<svg xmlns="http://www.w3.org/2000/svg" xmlns:xlink="http://www.w3.org/1999/xlink" xmlns:inkscape="http://www.inkscape.org/namespaces/inkscape" version="1.1" width="246.79874" height="69.04095" viewBox="0 0 246.79874 69.04095">
<defs>
<path id="font_1_17" d="M.19580078 .05517578C.19580078 .036621095 .18912761 .020751954 .17578125 .0075683596 .16243489-.0056152346 .14648438-.012207031 .12792969-.012207031 .109375-.012207031 .09358724-.0056152346 .080566409 .0075683596 .06754557 .020751954 .061035158 .036621095 .061035158 .05517578 .061035158 .073404949 .06754557 .08911133 .080566409 .10229492 .09358724 .115478519 .109375 .12207031 .12792969 .12207031 .14648438 .12207031 .16243489 .115478519 .17578125 .10229492 .18912761 .08911133 .19580078 .073404949 .19580078 .05517578Z"/>
<path id="font_2_677" d="M.0703125 .70751956C.059244794 .7159831 .049804689 .7257487 .041992189 .7368164 .034179689 .7478841 .030273438 .7630208 .030273438 .78222659 .030273438 .8102214 .039957685 .8331706 .059326173 .8510742 .078694667 .86897787 .100748699 .8779297 .12548828 .8779297 .14697266 .8779297 .16666667 .8727214 .18457031 .8623047L.1850586 .81396487C.17496746 .81917318 .16552735 .8224284 .15673828 .82373049 .14794922 .82503256 .1398112 .8256836 .13232422 .8256836 .11832682 .8256836 .10538737 .82145187 .09350586 .8129883 .08162435 .8045247 .075683597 .79215499 .075683597 .7758789 .07600912 .7657878 .08113607 .75594076 .09106445 .7463379 .100992839 .73673507 .11507162 .73323568 .13330078 .73583987 .13395183 .73583987 .13468425 .7360026 .13549805 .7363281 .13631185 .7366536 .13720703 .7369792 .1381836 .7373047L.20263672 .7607422 .20947266 .71240237 .0234375 .6386719 .016601563 .68652346 .0703125 .70751956M.15722656 .6088867V.00048828127H.07470703V.6088867H.15722656Z"/>
<path id="font_2_728" d="M.03173828 .5571289V.6035156L.2397461 .68847659V.64208987L.03173828 .5571289Z"/>
<path id="font_2_719" d="M.3305664 .41455079 .4013672 .34375 .3305664 .27294923 .25976563 .34375 .3305664 .41455079M.33642579-.12792969C.39078776-.12792969 .43286134-.11905924 .46264649-.10131836 .49243165-.08357748 .51326498-.060302736 .5251465-.03149414 .537028-.0026855469 .54296877 .028157553 .54296877 .061035158 .54296877 .09977213 .53776046 .13802083 .52734377 .17578125 .51692709 .21354167 .50716146 .24446614 .49804688 .2685547L.58154299 .3022461C.59684249 .2602539 .6084798 .21948242 .6164551 .17993164 .62443038 .14038086 .62841799 .10270182 .62841799 .06689453 .62841799 .011881511 .6182454-.036946615 .5979004-.079589847 .57755538-.12223307 .54589846-.15559896 .5029297-.1796875 .45996095-.20377605 .40445964-.21582031 .33642579-.21582031 .26611329-.21582031 .20987956-.20296224 .16772461-.1772461 .12556966-.15152996 .09513346-.11726888 .076416019-.07446289 .057698568-.031656904 .048339845 .0152994799 .048339845 .06640625 .048339845 .10091146 .051920576 .13631185 .05908203 .17260742 .06624349 .208903 .07600912 .24430339 .088378909 .2788086L.16601563 .2475586C.15657552 .21761067 .14860027 .18684896 .14208985 .15527344 .13557942 .123697917 .13232422 .09309896 .13232422 .06347656 .13232422 .028320313 .1385905-.0037434896 .15112305-.032714845 .1636556-.0616862 .18473308-.08479818 .21435547-.10205078 .24397786-.11930338 .28466798-.12792969 .33642579-.12792969Z"/>
<path id="font_2_737" d="M.020507813 .5673828C.020507813 .5908203 .028889975 .6110026 .045654298 .6279297 .06241862 .64485678 .08251953 .6533203 .10595703 .6533203 .12939453 .6533203 .14949544 .64485678 .16625977 .6279297 .1830241 .6110026 .19140625 .5908203 .19140625 .5673828 .19140625 .5439453 .1830241 .5238444 .16625977 .5070801 .14949544 .49031578 .12939453 .4819336 .10595703 .4819336 .08251953 .4819336 .06241862 .49031578 .045654298 .5070801 .028889975 .5238444 .020507813 .5439453 .020507813 .5673828M.059570314 .5673828C.059570314 .554362 .06404623 .54345706 .07299805 .53466799 .08194987 .5258789 .092936199 .5214844 .10595703 .5214844 .11897787 .5214844 .12988281 .5258789 .13867188 .53466799 .14746094 .54345706 .15185547 .554362 .15185547 .5673828 .15185547 .5804036 .14746094 .5914714 .13867188 .60058596 .12988281 .6097005 .11897787 .6142578 .10595703 .6142578 .092936199 .6142578 .08194987 .6097005 .07299805 .60058596 .06404623 .5914714 .059570314 .5804036 .059570314 .5673828Z"/>
<path id="font_2_1285" d="M-.0107421879 .08886719H.095214847C.12776692 .08886719 .14982097 .09830729 .16137696 .1171875 .17293294 .1360677 .17871094 .15999349 .17871094 .18896485 .17871094 .2101237 .17675781 .23274739 .17285156 .25683595 .16894531 .28092448 .16471355 .30517579 .16015625 .32958985L.24511719 .35107423C.25065104 .32503257 .25504557 .29947917 .25830079 .27441407 .261556 .24934896 .2631836 .22542317 .2631836 .20263672 .2631836 .16357422 .2578125 .12874349 .24707031 .09814453 .23632813 .06754557 .21875 .04353841 .19433594 .026123047 .16992188 .008707683 .13720703 0 .096191409 0H-.0107421879V.08886719M.16552735-.07763672 .23388672-.14550781 .16552735-.21435547 .09765625-.14550781 .16552735-.07763672M.0034179688-.07763672 .071777347-.14550781 .0034179688-.21435547-.064453128-.14550781 .0034179688-.07763672Z"/>
<path id="font_2_1273" d="M.14794922 .28857423 .22949219 .29833985 .23730469 .18408203C.24121094 .12060547 .2742513 .08886719 .33642579 .08886719H.3466797V0H.33544923C.2993164 0 .27042643 .0065104167 .2487793 .01953125 .22713216 .032552083 .20963542 .05094401 .19628906 .07470703 .17871094 .048990888 .15559896 .030110678 .12695313 .018066407 .09830729 .0060221354 .068359378 0 .037109376 0H-.009765625V.08886719H.037109376C.07845052 .08886719 .10799154 .09814453 .12573242 .11669922 .14347331 .1352539 .15234375 .16373699 .15234375 .20214844 .15234375 .21777344 .15193685 .23258464 .15112305 .24658203 .15030925 .26057945 .1492513 .2745768 .14794922 .28857423M.15722656 .5317383 .22802735 .4609375 .15722656 .39013673 .08642578 .4609375 .15722656 .5317383Z"/>
<path id="font_2_1199" d="M.3251953-.07470703 .3959961-.14550781 .3251953-.2163086 .25439454-.14550781 .3251953-.07470703M.6269531 .2709961V.18652344C.61295577 .18522136 .5965169 .181722 .5776367 .17602539 .55875656 .17032878 .538737 .16243489 .5175781 .15234375 .5182292 .12532552 .53125 .10799154 .5566406 .1003418 .58203127 .092692058 .6180013 .08886719 .6645508 .08886719H.69140627V0H.66259768C.5961914 0 .5464681 .0087890629 .51342776 .026367188 .48038737 .043945314 .46061198 .075520839 .45410157 .12109375 .38964845 .0859375 .32722984 .056966146 .2668457 .034179689 .2064616 .0113932299 .1414388 0 .071777347 0H-.009765625V.08886719H.07324219C.111328128 .08886719 .14632161 .092285159 .17822266 .099121097 .2101237 .10595703 .24129232 .11539713 .27172853 .1274414 .3021647 .13948567 .33406578 .15372722 .36743165 .17016602 .40079753 .18660482 .43815104 .20426433 .4794922 .22314453 .45638023 .23160808 .43245445 .24080403 .40771485 .25073243 .38297526 .2606608 .3594564 .27001954 .3371582 .2788086 .31486003 .28759767 .29541017 .29484049 .2788086 .3005371 .26220704 .30623374 .25048829 .30908204 .24365235 .30908204 .22379558 .30908204 .20629883 .30330406 .19116211 .29174806 .17602539 .28019206 .16210938 .26627604 .14941406 .25L.13623047 .23339844 .061523439 .27001954 .068847659 .28173829C.09033203 .316569 .11531576 .34448243 .14379883 .36547853 .1722819 .3864746 .20572917 .39697267 .24414063 .39697267 .26009117 .39697267 .27937828 .39290367 .30200196 .38476563 .32462565 .3766276 .34928385 .36645509 .37597657 .35424806 .40266929 .34204103 .43033854 .32967124 .45898438 .31713868 .48763023 .3046061 .51627609 .2940267 .5449219 .2854004 .5735677 .27677409 .60091146 .27197267 .6269531 .2709961Z"/>
<path id="font_2_1201" d="M.048828126-.08544922C.048828126-.03173828 .06241862 .018473307 .08959961 .06518555 .1167806 .11189779 .15779622 .15275066 .21264649 .18774414 .26749674 .22273763 .33626304 .24934896 .4189453 .26757813 .3922526 .27864585 .3659668 .28938804 .3400879 .2998047 .31420899 .31022135 .2915853 .31892906 .2722168 .32592774 .2528483 .33292643 .23925781 .33642579 .23144531 .33642579 .21158855 .33642579 .193278 .3306478 .17651367 .3190918 .15974935 .3075358 .14501953 .29361979 .13232422 .27734376L.119140628 .2607422 .044433595 .29736329 .051757814 .30908204C.07324219 .34391276 .09903971 .37182618 .12915039 .39282228 .15926107 .41381837 .19352214 .4243164 .2319336 .4243164 .25211589 .4243164 .27693687 .4181315 .30639649 .40576173 .3358561 .39339195 .36783854 .379069 .40234376 .36279298 .43684898 .34651695 .47192384 .33194987 .50756838 .3190918 .5432129 .30623374 .5773112 .2993164 .6098633 .29833985V.21435547C.57145187 .2117513 .53597006 .20719402 .50341799 .2006836 .50341799 .16617839 .5093587 .1410319 .52124026 .12524414 .53312179 .10945638 .55061849 .09944662 .57373049 .095214847 .59684249 .09098307 .625 .08886719 .6582031 .08886719H.6977539V0H.65966799C.6092122 0 .5671387 .005126953 .53344729 .015380859 .49975587 .025634766 .47452799 .044270833 .45776368 .07128906 .44099937 .09830729 .4326172 .13671875 .4326172 .18652344 .36263023 .16764324 .30541993 .1439616 .26098634 .115478519 .21655274 .086995448 .18383789 .055826826 .1628418 .021972657 .1418457-.011881511 .13134766-.046223958 .13134766-.08105469 .13134766-.1953125 .21468099-.2524414 .38134767-.2524414 .4181315-.2524414 .45581056-.2487793 .49438478-.24145508 .532959-.23413086 .56901046-.22265625 .60253909-.20703125L.6245117-.28857423C.59033206-.30452476 .5513509-.3166504 .50756838-.32495118 .4637858-.33325196 .41927085-.33740235 .37402345-.33740235 .31152345-.33740235 .25577799-.3285319 .20678711-.31079103 .15779622-.29305015 .11922201-.2655436 .09106445-.22827149 .0629069-.19099935 .048828126-.14339192 .048828126-.08544922Z"/>
<path id="font_2_1266" d="M.3310547-.011230469C.2985026-.011230469 .2684733-.0041503908 .2409668 .010009766 .21346028 .024169922 .18489583 .045572919 .15527344 .07421875 .13411458 .05045573 .11376953 .032145185 .09423828 .01928711 .07470703 .0064290368 .04720052 0 .01171875 0H-.009765625V.08886719H.009277344C.03108724 .08886719 .049479169 .09513346 .064453128 .107666019 .079427089 .12019857 .09277344 .13639324 .10449219 .15625 .11621094 .17610677 .12784831 .19718425 .1394043 .21948242 .15096028 .2417806 .16389974 .26285807 .17822266 .28271485 .19254558 .30257163 .20987956 .31876628 .23022461 .33129884 .25056968 .3438314 .27571617 .35009767 .30566407 .35009767 .34179688 .35009767 .37329103 .34138999 .40014649 .3239746 .42700196 .30655924 .4478353 .28320313 .46264649 .25390626 .47745768 .22460938 .48486329 .19189453 .48486329 .15576172 .48486329 .10270182 .47143556 .061604818 .44458009 .032470704 .4177246 .0033365887 .3798828-.011230469 .3310547-.011230469M.3076172 .26367188C.29134117 .26367188 .27652995 .2582194 .2631836 .24731446 .24983724 .2364095 .23779297 .22233074 .22705078 .20507813 .2163086 .18782552 .20670574 .16992188 .19824219 .15136719 .21777344 .13085938 .23795574 .114095058 .25878907 .10107422 .28548179 .08382162 .30924479 .07519531 .33007813 .07519531 .37825523 .07519531 .40234376 .09944662 .40234376 .14794922 .40234376 .18180339 .39396159 .20955403 .37719728 .23120117 .36043296 .2528483 .3372396 .26367188 .3076172 .26367188Z"/>
<path id="font_2_1261" d="M.3071289-.2421875C.24658203-.2421875 .19726563-.23136394 .15917969-.2097168 .12109375-.18806966 .09309896-.15787761 .07519531-.119140628 .057291669-.08040365 .048339845-.03548177 .048339845 .015625 .048339845 .050130208 .051920576 .0855306 .05908203 .12182617 .06624349 .15812175 .07600912 .19352214 .088378909 .22802735L.16601563 .19677735C.15657552 .16682942 .14860027 .1360677 .14208985 .10449219 .13557942 .072916667 .13232422 .042317708 .13232422 .0126953129 .13232422-.040039064 .14575196-.08105469 .17260742-.11035156 .19946289-.13964844 .24430339-.15429688 .3071289-.15429688 .36539714-.15429688 .40926109-.13834636 .4387207-.10644531 .46818034-.07454427 .48291017-.023111979 .48291017 .047851564V.6723633H.5654297V.19970703C.5654297 .1632487 .57218429 .13566081 .58569338 .11694336 .59920248 .098225917 .62565109 .08886719 .66503909 .08886719H.6796875V0H.6660156C.6373698 0 .616862 .0028483074 .6044922 .008544922 .5921224 .014241536 .5789388 .023763022 .5649414 .037109376 .5649414-.055989583 .54296877-.1258138 .49902345-.17236328 .45507813-.21891277 .39111329-.2421875 .3071289-.2421875Z"/>
<path id="font_2_781" d="M.15722656 .6088867V.00048828127H.07470703V.6088867H.15722656M-.025390625 .6904297-.016601563 .73095706C-.012369792 .7273763-.006754557 .72281906 .00024414063 .71728518 .0072428386 .7117513 .013671875 .70784506 .01953125 .7055664 .045898439 .7501628 .069742839 .7821452 .09106445 .8015137 .11238607 .82088217 .13590496 .8305664 .1616211 .8305664 .18766277 .8305664 .20898438 .8224284 .22558594 .80615237 .2421875 .7898763 .25048829 .76953127 .25048829 .7451172 .25048829 .7125651 .23909505 .6897786 .2163086 .6767578 .19352214 .663737 .15413411 .65722659 .09814453 .65722659H.0859375C.056640626 .65722659 .032552083 .6599121 .013671875 .6652832-.0052083337 .6706543-.018229166 .67903646-.025390625 .6904297M.09716797 .69921877C.13916016 .69921877 .16837566 .7020671 .18481446 .7077637 .20125325 .71346029 .20947266 .72526046 .20947266 .74316409 .20947266 .7558594 .20532227 .7664388 .19702149 .77490237 .1887207 .7833659 .17773438 .78759768 .1640625 .78759768 .14615886 .78759768 .13004558 .7809245 .115722659 .7675781 .10139974 .75423178 .08382162 .7314453 .06298828 .69921877H.09716797Z"/>
<path id="font_2_1262" d="M-.009765625 .08886719H.03125C.0703125 .08886719 .09667969 .0999349 .11035156 .12207031 .12402344 .14420574 .13085938 .171875 .13085938 .20507813V.6723633H.2133789V.2055664C.2133789 .13785808 .19873047 .08666992 .1694336 .052001954 .14013672 .017333985 .09391276 0 .030761719 0H-.009765625V.08886719Z"/>
<path id="font_2_1235" d="M.4140625 .3935547C.45084635 .3935547 .48347984 .38549806 .5119629 .36938478 .540446 .35327149 .5628255 .33138023 .57910159 .30371095 .5953776 .27604167 .6035156 .24479167 .6035156 .20996094 .6031901 .16829427 .5904948 .13102214 .5654297 .09814453 .57454428 .09586588 .5868327 .09375 .6022949 .091796878 .61775717 .08984375 .6402995 .08886719 .6699219 .08886719H.6845703V0H.67041018C.62906906 0 .5949707 .004231771 .56811526 .0126953129 .54125979 .021158854 .51871749 .032877607 .5004883 .047851564 .47379557 .032877607 .4386393 .021158854 .39501954 .0126953129 .35139976 .004231771 .30078126 0 .24316406 0H-.009765625V.08886719H.07324219C.079427089 .09928385 .0859375 .10961914 .09277344 .11987305 .099609378 .13012696 .10611979 .14029949 .11230469 .15039063V.6723633H.19482422V.26660157C.22998047 .30891929 .26538087 .34065757 .3010254 .3618164 .33666993 .38297526 .37434898 .3935547 .4140625 .3935547M.41601563 .3046875C.33789063 .3046875 .25325523 .23274739 .16210938 .08886719H.24121094C.33398438 .08886719 .40315757 .09814453 .44873048 .11669922 .49430339 .1352539 .51708987 .16471355 .51708987 .20507813 .51708987 .23372396 .5078125 .25748698 .4892578 .2763672 .47070313 .2952474 .44628907 .3046875 .41601563 .3046875Z"/>
<path id="font_2_735" d="M.03564453 .6582031V.70458987L.24316406 .7895508V.74316409L.03564453 .6582031M.16894531 .6357422C.16959636 .6223958 .17048645 .6086426 .1716156 .5944824 .17274475 .58032229 .17597454 .56852218 .18130493 .55908206 .18664551 .5496419 .19593811 .5449219 .20918274 .5449219 .22017925 .5449219 .22761536 .5491536 .23149109 .5576172 .23536682 .56608077 .23730469 .57633468 .23730469 .5883789 .23730469 .5991211 .2363332 .61002609 .23439026 .62109377 .23245748 .63216146 .23051961 .6422526 .22857666 .6513672L.27294923 .66015627C.27913413 .63932296 .28222657 .6180013 .28222657 .5961914 .28222657 .56722006 .27638755 .54386398 .26470948 .52612307 .2530416 .50838217 .23423767 .49951173 .20829773 .49951173 .20019023 .49951173 .1909434 .5013835 .18055725 .50512698 .17018128 .5088704 .16159058 .51627609 .15478516 .52734377 .14990235 .508138 .1402181 .4950358 .12573242 .4880371 .11124674 .48103843 .096354167 .47753907 .08105469 .47753907 .057291669 .47753907 .0398763 .4860026 .028808594 .5029297 .017740885 .51985678 .012207031 .54052737 .012207031 .5649414 .012207031 .5808919 .014485677 .59765627 .019042969 .6152344L.05859375 .6088867C.055338544 .59521487 .053710939 .58235678 .053710939 .5703125 .053710939 .55826827 .056070966 .54785159 .060791017 .5390625 .06551107 .53027346 .07421875 .5258789 .08691406 .5258789 .108072917 .5258789 .12044271 .53344729 .12402344 .548584 .12760417 .5637207 .12939453 .5864258 .12939453 .6166992L.12890625 .6308594 .16894531 .6357422Z"/>
<path id="font_2_1173" d="M.07470703 .6723633H.15722656V.2055664C.15722656 .15966797 .16569011 .12874349 .18261719 .11279297 .19954427 .096842449 .22509766 .08886719 .25927735 .08886719H.27148438V0H.25927735C.19710286 0 .15079753 .016520182 .12036133 .049560548 .08992513 .082600917 .07470703 .13476563 .07470703 .20605469V.6723633Z"/>
<path id="font_2_731" d="M.028320313-.24658203V-.20019531L.23632813-.115234378V-.1616211L.028320313-.24658203Z"/>
<path id="font_2_1175" d="M.453125-.07470703 .5239258-.14550781 .453125-.2163086 .38232423-.14550781 .453125-.07470703M.7397461 .28857423 .82128909 .29833985 .82958987 .18408203C.83154299 .15315755 .8404134 .1295573 .8562012 .11328125 .87198898 .09700521 .8956706 .08886719 .9272461 .08886719H.93896487V0H.9272461C.8904622 0 .8602702 .006917318 .8366699 .020751954 .81306967 .03458659 .7936198 .056803388 .7783203 .087402347 .75130209 .056152345 .7167155 .033772787 .67456057 .020263672 .6324056 .006754557 .57389327 0 .49902345 0H.41748048C.29475913 0 .20255535 .016601563 .14086914 .049804689 .079182948 .08300781 .048339845 .14046224 .048339845 .22216797 .048339845 .2446289 .05086263 .26660157 .055908204 .28808595 .060953779 .3095703 .06754557 .33024089 .075683597 .35009767L.15136719 .32177735C.14615886 .30745445 .1418457 .29215495 .13842774 .2758789 .13500977 .25960288 .13330078 .24414063 .13330078 .22949219 .1336263 .19140625 .14436849 .16219075 .16552735 .1418457 .1866862 .12150065 .21826172 .10758463 .2602539 .100097659 .3022461 .09261068 .35465495 .08886719 .41748048 .08886719H.49902345C.57682296 .08886719 .6371257 .09700521 .67993167 .11328125 .7227376 .1295573 .7441406 .15917969 .7441406 .20214844 .7441406 .2154948 .7437337 .2298177 .7429199 .24511719 .74210616 .26041667 .74104818 .27490235 .7397461 .28857423Z"/>
<path id="font_2_730" d="M.22460938 .52197268C.21777344 .52229818 .21191406 .5227051 .20703125 .52319338 .20214844 .52368167 .19645183 .5242513 .1899414 .52490237 .15673828 .47867839 .09863281 .45328776 .015625 .44873048L.009277344 .48632813C.041829427 .4892578 .07063802 .4947103 .095703128 .50268557 .12076823 .5106608 .13916016 .5208333 .1508789 .5332031 .12809246 .53483077 .10709635 .5423177 .087890628 .55566409 .0686849 .56901046 .05908203 .58968099 .05908203 .6176758 .05908203 .63948568 .06673177 .6582845 .08203125 .67407229 .09733073 .68986007 .11653646 .6977539 .13964844 .6977539 .16276042 .6977539 .18196614 .6903483 .19726563 .6755371 .21256511 .6607259 .22021485 .64127609 .22021485 .6171875 .22021485 .5989583 .21582031 .5789388 .20703125 .5571289 .21158855 .55647787 .21875 .55566409 .22851563 .5546875L.22460938 .52197268M.16796875 .5649414C.17154949 .5730794 .17464192 .5817871 .1772461 .59106448 .17985027 .6003418 .18115235 .6088867 .18115235 .6166992 .18115235 .62906906 .17732747 .6389974 .16967774 .6464844 .162028 .6539714 .15266927 .65771487 .14160156 .65771487 .12890625 .65771487 .11857096 .6533203 .1105957 .64453127 .102620448 .6357422 .09863281 .62613937 .09863281 .61572268 .09863281 .5991211 .10555013 .5875651 .119384769 .5810547 .1332194 .57454428 .14941406 .56917318 .16796875 .5649414Z"/>
<path id="font_1_71" d="M.53808596 0H.38085938V.053222658C.3580729 .03564453 .33382163 .020345053 .30810548 .0073242189 .2823893-.0056966149 .25504557-.012207031 .22607422-.012207031 .19254558-.012207031 .1636556-.005126953 .1394043 .009033203 .11515299 .02319336 .09529623 .041992189 .079833988 .06542969 .06437174 .08886719 .052897138 .114746097 .045410158 .1430664 .037923177 .17138672 .034179689 .19970703 .034179689 .22802735 .034179689 .27327476 .04345703 .3161621 .06201172 .35668946 .080566409 .3972168 .10872396 .43025718 .14648438 .45581056 .1842448 .48136393 .23177083 .49414063 .2890625 .49414063 .30501304 .49414063 .32234703 .4925944 .34106446 .48950196 .3597819 .48640953 .37304688 .48388673 .38085938 .4819336V.66503909H.30517579V.6982422L.43408204 .7368164H.4741211V.063964847C.4741211 .05029297 .48111979 .04296875 .4951172 .041992189L.53808596 .0390625V0M.38085938 .09082031V.43115235C.37239585 .43408204 .3597819 .43725587 .34301759 .44067384 .32625328 .4440918 .31054688 .44580079 .29589845 .44580079 .24641927 .44580079 .20686849 .42749024 .1772461 .39086915 .1476237 .35424806 .1328125 .30566407 .1328125 .24511719 .1328125 .1907552 .14550781 .14567058 .17089844 .10986328 .19628906 .07405599 .2319336 .056152345 .27783204 .056152345 .2980143 .056152345 .31697593 .059977216 .3347168 .06762695 .35245768 .075276698 .36783854 .08300781 .38085938 .09082031Z"/>
<path id="font_1_76" d="M.21777344 .64697268C.21777344 .6300456 .21191406 .6154785 .20019531 .6032715 .18847656 .59106448 .17415364 .58496096 .15722656 .58496096 .14029949 .58496096 .12573242 .59106448 .11352539 .6032715 .10131836 .6154785 .095214847 .6300456 .095214847 .64697268 .095214847 .6642253 .10131836 .67871096 .11352539 .6904297 .12573242 .70214846 .14029949 .7080078 .15722656 .7080078 .17415364 .7080078 .18847656 .70214846 .20019531 .6904297 .21191406 .67871096 .21777344 .6642253 .21777344 .64697268M.26904298 0H.034179689V.0390625L.08300781 .041992189C.09700521 .04296875 .104003909 .05029297 .104003909 .063964847V.42089845H.03515625V.4560547L.15722656 .49414063H.19677735V.063964847C.19677735 .05777995 .19881185 .052652997 .20288086 .048583986 .20694988 .044514974 .21191406 .042317708 .21777344 .041992189L.26904298 .0390625V0Z"/>
<path id="font_1_85" d="M.38085938 .3798828H.34179688C.33561198 .38736979 .3282064 .39379884 .31958009 .39916993 .31095378 .40454103 .30045573 .40722657 .28808595 .40722657 .2721354 .40722657 .25577799 .40169273 .23901367 .390625 .22224935 .37955729 .20524089 .36442057 .18798828 .34521485V.063964847C.18798828 .04996745 .19498699 .04264323 .20898438 .041992189L.27490235 .0390625V0H.024902344V.038085939L.07421875 .041992189C.080078128 .04264323 .08504232 .044921876 .08911133 .048828126 .093180339 .052734376 .095214847 .05777995 .095214847 .063964847V.4111328H.022949219V.44384767L.14697266 .4819336H.18798828V.3930664C.2163086 .425944 .2409668 .45100913 .2619629 .46826173 .28295899 .4855143 .3022461 .49414063 .31982423 .49414063 .33024089 .49414063 .34147135 .49251304 .35351563 .4892578 .3655599 .4860026 .37467448 .48258464 .38085938 .4790039V.3798828Z"/>
<path id="font_1_72" d="M.26611329-.012207031C.2257487-.012207031 .1879069-.0031738282 .15258789 .014892578 .11726888 .032958986 .08870443 .060384115 .06689453 .09716797 .045084638 .13395183 .034179689 .18017578 .034179689 .23583985 .034179689 .2879232 .044270833 .33333335 .064453128 .3720703 .084635417 .41080729 .112467449 .44083659 .14794922 .4621582 .18343099 .48347984 .22379558 .49414063 .26904298 .49414063 .33121745 .49414063 .3779297 .47485353 .4091797 .4362793 .4404297 .39770509 .4560547 .3486328 .4560547 .2890625 .4560547 .28580729 .4560547 .28149415 .4560547 .27612306 .4560547 .27075196 .45572917 .26578776 .45507813 .26123048H.13085938C.13085938 .23583985 .13354492 .2105306 .13891602 .18530274 .14428711 .16007488 .15332031 .13720703 .16601563 .11669922 .17871094 .096191409 .19580078 .0797526 .21728516 .06738281 .23876953 .05501302 .265625 .048828126 .29785157 .048828126 .3264974 .048828126 .3544108 .055419923 .3815918 .068603519 .4087728 .08178711 .43359376 .09586588 .4560547 .110839847V.049804689C.4280599 .032552083 .39786784 .017903647 .36547853 .005859375 .3330892-.006184896 .29996745-.012207031 .26611329-.012207031M.13623047 .30615235H.35595704V.328125C.35595704 .3610026 .34806315 .38867188 .3322754 .4111328 .31648765 .43359376 .2919922 .44482423 .25878907 .44482423 .22591146 .44482423 .19791667 .43245445 .17480469 .40771485 .1516927 .38297526 .13883464 .3491211 .13623047 .30615235Z"/>
<path id="font_1_70" d="M.4321289 .037109376C.40966798 .025065104 .38435874 .013834636 .35620118 .0034179688 .3280436-.0069986979 .29703776-.012207031 .2631836-.012207031 .21663411-.012207031 .17618816-.0013020834 .1418457 .020507813 .10750326 .042317708 .080973308 .072021488 .06225586 .10961914 .04353841 .1472168 .034179689 .1899414 .034179689 .23779297 .034179689 .29378257 .045328779 .3408203 .06762695 .37890626 .08992513 .4169922 .119384769 .4457194 .15600586 .4650879 .19262696 .4844564 .23225911 .49414063 .27490235 .49414063 .31884767 .49414063 .3557129 .4855957 .38549806 .46850587 .4152832 .45141603 .43017579 .42659507 .43017579 .39404298 .43017579 .37451173 .42407228 .3597819 .41186524 .34985353 .3996582 .33992515 .38606773 .33496095 .37109376 .33496095 .36002604 .33496095 .3504232 .33683268 .34228517 .34057618 .33414714 .34431968 .3269857 .34814454 .32080079 .35205079V.43896485C.3055013 .4477539 .2915039 .45214845 .2788086 .45214845 .2491862 .45214845 .22371419 .44344078 .20239258 .4260254 .18107097 .40861003 .16471355 .38476563 .15332031 .3544922 .14192708 .32421876 .13623047 .28971354 .13623047 .25097657 .13623047 .2141927 .14241536 .18058269 .15478516 .15014649 .16715496 .11971029 .18562825 .09554037 .21020508 .07763672 .2347819 .059733076 .26529948 .05078125 .3017578 .05078125 .32486979 .05078125 .34700523 .05452474 .36816407 .06201172 .3893229 .069498699 .41064454 .08024088 .4321289 .09423828V.037109376Z"/>
<path id="font_1_87" d="M.3330078 .020996094C.31966148 .013834636 .30037437 .0065104167 .27514649-.0009765625 .24991863-.008463542 .22428386-.012207031 .19824219-.012207031 .1608073-.012207031 .13354492-.0033365887 .11645508 .014404297 .099365238 .032145185 .09082031 .060709638 .09082031 .100097659V.4321289H.026855469V.46484376L.095214847 .4970703 .14013672 .60302737H.18408203V.4819336H.3251953V.4321289H.18408203V.15283203C.18408203 .11311849 .1907552 .08504232 .20410156 .068603519 .21744792 .052164716 .23746746 .043945314 .26416017 .043945314 .27848307 .043945314 .2919922 .045898439 .3046875 .049804689 .3173828 .053710939 .3268229 .057454427 .3330078 .061035158V.020996094Z"/>
<path id="font_1_82" d="M.5097656 .24023438C.5097656 .19303386 .5 .15030925 .48046876 .11206055 .4609375 .07381185 .4333496 .04353841 .39770509 .021240235 .36206056-.0010579428 .31982423-.012207031 .2709961-.012207031 .22249349-.012207031 .1805013-.0011393229 .14501953 .020996094 .10953776 .04313151 .08219401 .07324219 .06298828 .111328128 .04378255 .14941406 .034179689 .19238281 .034179689 .24023438 .034179689 .2877604 .043863935 .33072917 .06323242 .36914063 .082600917 .4075521 .11027018 .43798829 .14624024 .46044923 .18221028 .48291017 .22477214 .49414063 .27392579 .49414063 .32373048 .49414063 .36621095 .4827474 .4013672 .45996095 .43652345 .43717448 .4633789 .40657554 .4819336 .36816407 .5004883 .3297526 .5097656 .28710938 .5097656 .24023438M.40576173 .24121094C.40576173 .27766929 .4009603 .3116862 .39135743 .34326173 .38175456 .37483726 .3671061 .40039063 .3474121 .41992188 .3277181 .43945313 .30289714 .44921876 .27294923 .44921876 .24202474 .44921876 .2167155 .43945313 .19702149 .41992188 .17732747 .40039063 .16276042 .37483726 .15332031 .34326173 .1438802 .3116862 .13916016 .27766929 .13916016 .24121094 .13916016 .20507813 .1439616 .17114258 .15356446 .1394043 .16316732 .107666019 .17781575 .08203125 .19750977 .0625 .21720378 .04296875 .24202474 .033203126 .27197267 .033203126 .30257163 .033203126 .3277181 .04296875 .3474121 .0625 .3671061 .08203125 .38175456 .10758463 .39135743 .13916016 .4009603 .17073567 .40576173 .20475261 .40576173 .24121094Z"/>
<path id="font_1_180" d="M.39208985 .70214846C.38264976 .69108077 .37141929 .6780599 .35839845 .66308596 .3453776 .648112 .33390299 .6312663 .3239746 .6125488 .31404624 .59383139 .30908204 .5732422 .30908204 .55078127 .30908204 .54752609 .30924479 .5440267 .3095703 .5402832 .30989585 .53653976 .3100586 .5333659 .3100586 .5307617H.37304688L.38061524 .5197754C.3856608 .5124512 .3881836 .5032552 .3881836 .4921875 .3881836 .4752604 .38264976 .46069337 .37158204 .44848634 .3605143 .4362793 .34602867 .43017579 .328125 .43017579 .30208335 .43017579 .28173829 .4388021 .26708985 .4560547 .2524414 .47330729 .24511719 .4962565 .24511719 .52490237 .24511719 .5489909 .24951172 .5710449 .25830079 .59106448 .26708985 .611084 .27775065 .62890627 .2902832 .64453127 .30281578 .66015627 .31510417 .67333987 .32714845 .68408206 .33919273 .6948242 .34847007 .703125 .35498048 .7089844L.39208985 .70214846M.18603516 .70214846C.16617839 .6822917 .14737956 .65966799 .12963867 .63427737 .11189779 .6088867 .103027347 .5807292 .103027347 .5498047 .103027347 .5465495 .1031901 .5432129 .103515628 .5397949 .10384115 .53637698 .104003909 .5333659 .104003909 .5307617H.16699219L.17456055 .5202637C.17960613 .51326498 .1821289 .50358077 .1821289 .49121095 .1821289 .47428385 .17667644 .45987956 .16577149 .44799806 .15486653 .43611656 .14029949 .43017579 .12207031 .43017579 .096354167 .43017579 .07609049 .43847657 .061279298 .45507813 .046468099 .4716797 .0390625 .49430339 .0390625 .5229492 .0390625 .5473633 .04345703 .56974288 .052246095 .5900879 .061035158 .6104329 .07169596 .6284993 .084228519 .6442871 .09676107 .6600749 .10904948 .67333987 .12109375 .68408206 .13313802 .6948242 .14241536 .703125 .14892578 .7089844L.18603516 .70214846Z"/>
<path id="font_1_55" d="M.5830078 .51123049H.5239258L.5097656 .60498049C.507487 .6163737 .5019531 .6220703 .49316407 .6220703H.35009767V.068847659C.35009767 .063964847 .35180665 .059244794 .3552246 .0546875 .35864259 .050130208 .36393229 .047526044 .37109376 .046875L.4350586 .04296875V0H.1640625V.04296875L.22802735 .046875C.2351888 .047526044 .24047852 .050130208 .24389649 .0546875 .24731446 .059244794 .24902344 .063964847 .24902344 .068847659V.6220703H.10498047C.094563808 .6220703 .08886719 .6163737 .087890628 .60498049L.07421875 .51123049H.016113282V.67089846H.5830078V.51123049Z"/>
<path id="font_1_75" d="M.55078127 0H.328125V.0390625L.36914063 .041992189C.375 .04264323 .38012696 .044921876 .38452149 .048828126 .38891603 .052734376 .39111329 .05777995 .39111329 .063964847V.32177735C.39111329 .3504232 .38427735 .37410484 .37060548 .39282228 .3569336 .4115397 .33072917 .42089845 .2919922 .42089845 .27441407 .42089845 .25545249 .4181315 .23510742 .41259767 .21476238 .4070638 .19742839 .40022788 .18310547 .39208985V.063964847C.18310547 .05029297 .18977864 .04296875 .203125 .041992189L.24609375 .0390625V0H.020996094V.0390625L.068847659 .041992189C.082845058 .04296875 .08984375 .05029297 .08984375 .063964847V.66503909H.015136719V.6982422L.1430664 .7368164H.18310547V.4321289C.19514974 .43961589 .21077474 .4481608 .22998047 .45776368 .2491862 .46736656 .2693685 .47583009 .29052735 .4831543 .3116862 .49047853 .33089195 .49414063 .34814454 .49414063 .386556 .49414063 .41878257 .48177085 .44482423 .45703126 .47086589 .43229167 .48388673 .39420573 .48388673 .34277345V.063964847C.48388673 .05777995 .48608399 .052734376 .49047853 .048828126 .49487306 .044921876 .5 .04264323 .5058594 .041992189L.55078127 .0390625V0Z"/>
<path id="font_1_86" d="M.3491211 .35302735H.296875L.2890625 .42285157C.28190104 .4283854 .27132163 .43359376 .25732423 .43847657 .24332683 .44335938 .22851563 .44580079 .21289063 .44580079 .18554688 .44580079 .16520183 .43953453 .15185547 .42700196 .13850911 .4144694 .13183594 .3984375 .13183594 .37890626 .13183594 .36393229 .1352539 .35123698 .14208985 .3408203 .14892578 .33040367 .16048177 .3202311 .17675781 .31030274 .19303386 .30037437 .21516927 .28889976 .24316406 .2758789 .27799479 .25992839 .30680339 .24226888 .32958985 .22290039 .3523763 .2035319 .36376954 .17757161 .36376954 .14501953 .36376954 .09586588 .34684245 .057373048 .31298829 .029541016 .27913413 .0017089844 .23242188-.012207031 .17285156-.012207031 .14225261-.012207031 .11401367-.009033203 .088134769-.0026855469 .06225586 .0036621094 .044270833 .008951823 .034179689 .013183594V.1459961H.08496094L.09716797 .061035158C.10725912 .05452474 .11971029 .048258466 .13452149 .042236329 .14933269 .03621419 .1665039 .033203126 .18603516 .033203126 .21468099 .033203126 .2368164 .041178388 .2524414 .057128908 .2680664 .07307943 .2758789 .09098307 .2758789 .110839847 .2758789 .13688152 .2652181 .15730794 .24389649 .17211914 .22257488 .18693035 .19254558 .20361328 .1538086 .22216797 .11735026 .2397461 .08943685 .2578125 .07006836 .2763672 .05069987 .29492188 .041015626 .3191732 .041015626 .3491211 .041015626 .39371745 .056640626 .42903648 .087890628 .45507813 .119140628 .48111979 .16357422 .49414063 .2211914 .49414063 .25048829 .49414063 .27661134 .49145509 .29956056 .48608399 .32250978 .4807129 .33902995 .4757487 .3491211 .4711914V.35302735Z"/>
<path id="font_1_88" d="M.546875 0H.3881836V.057128908C.37679038 .048339845 .3623047 .03857422 .34472657 .027832032 .32714845 .017089844 .30826823 .0077311198 .28808595-.00024414063 .26790367-.008219401 .24788411-.012207031 .22802735-.012207031 .1850586-.012207031 .15128581 .0007324219 .12670899 .026611329 .102132167 .052490236 .08984375 .09358724 .08984375 .14990235V.42089845H.020019532V.45507813L.1430664 .49414063H.18310547V.16894531C.18310547 .13346355 .19034831 .10579427 .20483399 .0859375 .21931966 .06608073 .24430339 .056152345 .27978517 .056152345 .30029298 .056152345 .32047526 .05965169 .34033204 .06665039 .3601888 .073649089 .3761393 .080078128 .3881836 .0859375V.42089845H.3178711V.45507813L.4399414 .49414063H.48095704V.063964847C.48095704 .05777995 .4831543 .052734376 .48754884 .048828126 .49194337 .044921876 .4970703 .04264323 .5029297 .041992189L.546875 .0390625V0Z"/>
<path id="font_1_81" d="M.546875 0H.32617188V.0390625L.36816407 .041992189C.37402345 .04264323 .37898765 .044921876 .38305665 .048828126 .38712565 .052734376 .38916017 .05777995 .38916017 .063964847V.32421876C.38916017 .35579429 .38183595 .37980143 .3671875 .39624024 .35253907 .41267906 .32779948 .42089845 .29296876 .42089845 .27408854 .42089845 .2552897 .4182129 .23657227 .4128418 .21785482 .4074707 .20003255 .40055339 .18310547 .39208985V.063964847C.18310547 .05029297 .19010417 .04296875 .20410156 .041992189L.24609375 .0390625V0H.020019532V.0390625L.068847659 .041992189C.082845058 .04296875 .08984375 .05029297 .08984375 .063964847V.4111328H.020019532V.44384767L.14208985 .4819336H.18310547V.4321289C.21110027 .44807945 .23982747 .46240235 .2692871 .47509767 .29874674 .48779298 .32503257 .49414063 .34814454 .49414063 .3917643 .49414063 .42496745 .48055015 .4477539 .45336915 .47054038 .42618815 .4819336 .38834635 .4819336 .33984376V.063964847C.4819336 .05777995 .4839681 .052734376 .4880371 .048828126 .4921061 .044921876 .4970703 .04264323 .5029297 .041992189L.546875 .0390625V0Z"/>
<path id="font_1_83" d="M.52490237 .24804688C.52490237 .19563802 .5148112 .14990235 .4946289 .110839847 .47444663 .071777347 .44547526 .041503908 .40771485 .020019532 .36995445-.0014648438 .32470704-.012207031 .27197267-.012207031 .2569987-.012207031 .2421875-.011230469 .22753906-.009277344 .21289063-.0073242189 .19807942-.0052083337 .18310547-.0029296876V-.15185547C.18310547-.15804036 .18522136-.16292317 .18945313-.1665039 .19368489-.17008464 .19889324-.17220052 .20507813-.17285156L.26416017-.17919922V-.21777344H.020996094V-.17919922L.068847659-.17285156C.082845058-.17122396 .08984375-.16422527 .08984375-.15185547V.4111328H.020996094V.44384767L.14404297 .4819336H.18310547V.4321289C.20589192 .44970704 .23046875 .46443687 .25683595 .47631837 .28320313 .48819987 .30891929 .49414063 .33398438 .49414063 .3684896 .49414063 .40014649 .4839681 .42895509 .46362306 .45776368 .44327799 .48095704 .41471354 .49853517 .3779297 .5161133 .34114585 .52490237 .29785157 .52490237 .24804688M.4248047 .23388672C.4248047 .26839195 .41951499 .29996745 .40893556 .32861329 .3983561 .35725913 .3827311 .3802897 .36206056 .39770509 .34138999 .41512046 .31575523 .42382813 .28515626 .42382813 .26822917 .42382813 .25065104 .4207357 .23242188 .41455079 .2141927 .40836589 .1977539 .40152995 .18310547 .39404298V.049804689C.21044922 .03938802 .23746746 .034179689 .26416017 .034179689 .300944 .034179689 .33113609 .043619794 .35473634 .0625 .37833659 .08138021 .3959147 .106038417 .4074707 .13647461 .4190267 .16691081 .4248047 .19938152 .4248047 .23388672Z"/>
<path id="font_1_68" d="M.4921875 0H.34423829L.3310547 .05908203C.31835938 .048990888 .30257163 .038411458 .2836914 .02734375 .2648112 .016276041 .24495442 .006917318 .2241211-.0007324219 .20328777-.008382161 .18326824-.012207031 .1640625-.012207031 .12792969-.012207031 .09724935-.00016276042 .072021488 .023925782 .04679362 .048014326 .034179689 .08105469 .034179689 .123046878 .034179689 .14160156 .037516279 .15885417 .044189454 .17480469 .05086263 .1907552 .064208988 .20597331 .084228519 .22045899 .10424805 .23494466 .1340332 .24910482 .17358399 .26293946 .21313477 .27677409 .265625 .29085288 .3310547 .30517579 .3310547 .30745445 .3310547 .31306968 .3310547 .32202149 .3310547 .3309733 .3310547 .339681 .3310547 .34814454 .3310547 .41389976 .29996745 .44677735 .23779297 .44677735 .22054036 .44677735 .20564778 .44514976 .19311524 .44189454 .18058269 .4386393 .171875 .43603517 .16699219 .43408204V.34716798H.09423828C.085123699 .34716798 .076660159 .34887696 .068847659 .35229493 .061035158 .3557129 .057128908 .36360679 .057128908 .37597657 .057128908 .4033203 .06754557 .42569987 .088378909 .44311524 .10921224 .4605306 .13566081 .47338868 .16772461 .48168946 .1997884 .48999024 .23225911 .49414063 .26513673 .49414063 .30647788 .49414063 .33854167 .48771159 .36132813 .47485353 .3841146 .46199546 .4000651 .44425456 .4091797 .42163087 .41829429 .39900718 .42285157 .37320964 .42285157 .34423829V.063964847C.42285157 .05777995 .42488609 .052652997 .42895509 .048583986 .43302409 .044514974 .43798829 .042317708 .44384767 .041992189L.4921875 .0390625V0M.3310547 .09423828V.26708985C.2861328 .25602214 .2504069 .24487305 .22387696 .23364258 .197347 .22241211 .17757161 .21118164 .16455078 .19995117 .15152996 .1887207 .14298503 .17732747 .13891602 .16577149 .134847 .1542155 .1328125 .14225261 .1328125 .12988281 .1328125 .109375 .1394043 .090413417 .15258789 .07299805 .16577149 .055582685 .1842448 .046875 .20800781 .046875 .22753906 .046875 .2491862 .052246095 .27294923 .06298828 .29671226 .07373047 .31608073 .08414713 .3310547 .09423828Z"/>
<path id="font_1_181" d="M.4140625 .61621096C.4140625 .5917969 .40966798 .5694173 .4008789 .54907229 .39208985 .52872726 .38142906 .5106608 .36889649 .49487306 .35636393 .4790853 .34407554 .4658203 .33203126 .45507813 .31998698 .44433595 .31070964 .43603517 .30419923 .43017579L.26708985 .43798829C.28727214 .45817057 .3063151 .48079429 .32421876 .5058594 .3421224 .5309245 .35107423 .55891928 .35107423 .58984377 .35107423 .5934245 .3507487 .59676107 .35009767 .5998535 .34944663 .602946 .3491211 .60563156 .3491211 .60791018H.2861328L.27856446 .6191406C.2735189 .6266276 .2709961 .63655599 .2709961 .6489258 .2709961 .6661784 .27652995 .6805013 .28759767 .69189456 .29866538 .7032878 .31315104 .7089844 .3310547 .7089844 .3564453 .7089844 .3766276 .70060226 .39160157 .6838379 .40657554 .66707357 .4140625 .64453127 .4140625 .61621096M.20800781 .6152344C.20800781 .5911458 .20361328 .5690918 .19482422 .54907229 .18603516 .52905276 .17537435 .5111491 .1628418 .49536134 .15030925 .47957359 .13802083 .4662272 .12597656 .45532228 .11393229 .44441734 .104654949 .43603517 .09814453 .43017579L.061035158 .43798829C.07047526 .449056 .08170573 .46199546 .09472656 .47680665 .1077474 .49161784 .11922201 .5083008 .12915039 .52685549 .13907878 .54541018 .14404297 .5657552 .14404297 .5878906 .14404297 .5914714 .1438802 .5951335 .14355469 .59887698 .14322917 .6026204 .1430664 .60563156 .1430664 .60791018H.080078128L.072509769 .6196289C.067464198 .6274414 .064941409 .63688156 .064941409 .6479492 .064941409 .66520187 .07063802 .6796875 .08203125 .69140627 .09342448 .703125 .108072917 .7089844 .12597656 .7089844 .15201824 .7089844 .17220052 .70043948 .18652344 .6833496 .20084636 .66625979 .20800781 .6435547 .20800781 .6152344Z"/>
</defs>
<use data-text="." xlink:href="#font_1_17" transform="matrix(14.794527,0,0,-14.794527,13.930949,15.269096)" fill="#343a40"/>
<use data-text="&#x0623;" xlink:href="#font_2_677" transform="matrix(14.794527,0,0,-14.794527,67.69125,15.269096)" fill="#343a40"/>
<use data-text="&#x064e;" xlink:href="#font_2_728" transform="matrix(14.794527,0,0,-14.794527,67.2573,10.205246)" fill="#343a40"/>
<use data-text="&#x0646;" xlink:href="#font_2_719" transform="matrix(14.794527,0,0,-14.794527,57.67905,15.269096)" fill="#343a40"/>
<use data-text="&#x0652;" xlink:href="#font_2_737" transform="matrix(14.794527,0,0,-14.794527,61.00215,14.3022)" fill="#343a40"/>
<use data-text="&#x064a;" xlink:href="#font_2_1285" transform="matrix(14.794527,0,0,-14.794527,49.0974,15.269096)" fill="#343a40"/>
<use data-text="&#x064e;" xlink:href="#font_2_728" transform="matrix(14.794527,0,0,-14.794527,49.61055,16.592396)" fill="#343a40"/>
<use data-text="&#x0646;" xlink:href="#font_2_1273" transform="matrix(14.794527,0,0,-14.794527,44.11275,15.269096)" fill="#343a40"/>
<use data-text="&#x0652;" xlink:href="#font_2_737" transform="matrix(14.794527,0,0,-14.794527,44.7777,13.290752)" fill="#343a40"/>
<use data-text="&#x062c;" xlink:href="#font_2_1199" transform="matrix(14.794527,0,0,-14.794527,34.027948,15.269096)" fill="#343a40"/>
<use data-text="&#x064e;" xlink:href="#font_2_728" transform="matrix(14.794527,0,0,-14.794527,35.9271,15.681595)" fill="#343a40"/>
<use data-text="&#x062d;" xlink:href="#font_2_1201" transform="matrix(14.794527,0,0,-14.794527,23.8491,15.269096)" fill="#343a40"/>
<use data-text="&#x064e;" xlink:href="#font_2_728" transform="matrix(14.794527,0,0,-14.794527,25.77135,15.290546)" fill="#343a40"/>
<use data-text="&#x0623;" xlink:href="#font_2_677" transform="matrix(14.794527,0,0,-14.794527,145.45575,15.269096)" fill="#343a40"/>
<use data-text="&#x064e;" xlink:href="#font_2_728" transform="matrix(14.794527,0,0,-14.794527,145.02344,10.205246)" fill="#343a40"/>
<use data-text="&#x0645;" xlink:href="#font_2_1266" transform="matrix(14.794527,0,0,-14.794527,137.56873,15.269096)" fill="#343a40"/>
<use data-text="&#x064e;" xlink:href="#font_2_728" transform="matrix(14.794527,0,0,-14.794527,139.83585,16.3251)" fill="#343a40"/>
<use data-text="&#x0644;" xlink:href="#font_2_1261" transform="matrix(14.794527,0,0,-14.794527,127.65718,15.269096)" fill="#343a40"/>
<use data-text="&#x064e;" xlink:href="#font_2_728" transform="matrix(14.794527,0,0,-14.794527,129.70154,16.216198)" fill="#343a40"/>
<use data-text="&#x0671;" xlink:href="#font_2_781" transform="matrix(14.794527,0,0,-14.794527,120.25198,15.269096)" fill="#343a40"/>
<use data-text="&#x0644;" xlink:href="#font_2_1262" transform="matrix(14.794527,0,0,-14.794527,115.99116,15.269096)" fill="#343a40"/>
<use data-text="&#x0637;" xlink:href="#font_2_1235" transform="matrix(14.794527,0,0,-14.794527,106.01965,15.269096)" fill="#343a40"/>
<use data-text="&#x0651;" xlink:href="#font_2_735" transform="matrix(14.794527,0,0,-14.794527,105.862339,11.469151)" fill="#343a40"/>
<use data-text="&#x0627;" xlink:href="#font_2_1173" transform="matrix(14.794527,0,0,-14.794527,102.134998,15.269096)" fill="#343a40"/>
<use data-text="&#x0644;" xlink:href="#font_2_1262" transform="matrix(14.794527,0,0,-14.794527,97.88896,15.269096)" fill="#343a40"/>
<use data-text="&#x0650;" xlink:href="#font_2_731" transform="matrix(14.794527,0,0,-14.794527,97.57604,15.104099)" fill="#343a40"/>
<use data-text="&#x0628;" xlink:href="#font_2_1175" transform="matrix(14.794527,0,0,-14.794527,84.125247,15.269096)" fill="#343a40"/>
<use data-text="&#x064f;" xlink:href="#font_2_730" transform="matrix(14.794527,0,0,-14.794527,88.329448,15.117298)" fill="#343a40"/>
<path transform="matrix(1.65,0,0,-1.65,13.930949,15.269096)" stroke-width=".3985" stroke-linecap="butt" stroke-miterlimit="10" stroke-linejoin="miter" fill="none" stroke="#343a40" d="M-.19925-4.26807C.17433-5.01527 1.04608-5.51341 2.29143-5.51341H16.15373C17.39908-5.51341 18.27084-6.01154 18.64442-6.75876 19.01802-6.01154 19.88977-5.51341 21.13512-5.51341H34.99742C36.24277-5.51341 37.11453-5.01527 37.48811-4.26807"/>
<use data-text="d" xlink:href="#font_1_71" transform="matrix(9.863007,0,0,-9.863007,20.354399,37.910398)" fill="#343a40"/>
<use data-text="i" xlink:href="#font_1_76" transform="matrix(9.863007,0,0,-9.863007,25.917136,37.910398)" fill="#343a40"/>
<use data-text="r" xlink:href="#font_1_85" transform="matrix(9.863007,0,0,-9.863007,28.905627,37.910398)" fill="#343a40"/>
<use data-text="e" xlink:href="#font_1_72" transform="matrix(9.863007,0,0,-9.863007,32.762063,37.910398)" fill="#343a40"/>
<use data-text="c" xlink:href="#font_1_70" transform="matrix(9.863007,0,0,-9.863007,37.594934,37.910398)" fill="#343a40"/>
<use data-text="t" xlink:href="#font_1_87" transform="matrix(9.863007,0,0,-9.863007,42.1911,37.910398)" fill="#343a40"/>
<use data-text="d" xlink:href="#font_1_71" transform="matrix(9.863007,0,0,-9.863007,48.43438,37.910398)" fill="#343a40"/>
<use data-text="o" xlink:href="#font_1_82" transform="matrix(9.863007,0,0,-9.863007,53.997117,37.910398)" fill="#343a40"/>
<use data-text="e" xlink:href="#font_1_72" transform="matrix(9.863007,0,0,-9.863007,59.362596,37.910398)" fill="#343a40"/>
<use data-text="e" xlink:href="#font_1_72" transform="matrix(9.863007,0,0,-9.863007,64.19547,37.910398)" fill="#343a40"/>
<use data-text="&#x201c;" xlink:href="#font_1_180" transform="matrix(14.794527,0,0,-14.794527,4.9301998,62.3271)" fill="#343a40"/>
<use data-text="T" xlink:href="#font_1_55" transform="matrix(14.794527,0,0,-14.794527,11.632121,62.3271)" fill="#343a40"/>
<use data-text="h" xlink:href="#font_1_75" transform="matrix(14.794527,0,0,-14.794527,20.494044,62.3271)" fill="#343a40"/>
<use data-text="e" xlink:href="#font_1_72" transform="matrix(14.794527,0,0,-14.794527,28.986104,62.3271)" fill="#343a40"/>
<use data-text="s" xlink:href="#font_1_86" transform="matrix(14.794527,0,0,-14.794527,40.570219,62.3271)" fill="#343a40"/>
<use data-text="t" xlink:href="#font_1_87" transform="matrix(14.794527,0,0,-14.794527,46.45844,62.3271)" fill="#343a40"/>
<use data-text="u" xlink:href="#font_1_88" transform="matrix(14.794527,0,0,-14.794527,51.488576,62.3271)" fill="#343a40"/>
<use data-text="d" xlink:href="#font_1_71" transform="matrix(14.794527,0,0,-14.794527,59.906663,62.3271)" fill="#343a40"/>
<use data-text="e" xlink:href="#font_1_72" transform="matrix(14.794527,0,0,-14.794527,68.25077,62.3271)" fill="#343a40"/>
<use data-text="n" xlink:href="#font_1_81" transform="matrix(14.794527,0,0,-14.794527,75.50009,62.3271)" fill="#343a40"/>
<use data-text="t" xlink:href="#font_1_87" transform="matrix(14.794527,0,0,-14.794527,83.888599,62.3271)" fill="#343a40"/>
<use data-text="h" xlink:href="#font_1_75" transform="matrix(14.794527,0,0,-14.794527,93.253528,62.3271)" fill="#343a40"/>
<use data-text="o" xlink:href="#font_1_82" transform="matrix(14.794527,0,0,-14.794527,101.74558,62.3271)" fill="#343a40"/>
<use data-text="p" xlink:href="#font_1_83" transform="matrix(14.794527,0,0,-14.794527,109.79381,62.3271)" fill="#343a40"/>
<use data-text="e" xlink:href="#font_1_72" transform="matrix(14.794527,0,0,-14.794527,118.06395,62.3271)" fill="#343a40"/>
<use data-text="d" xlink:href="#font_1_71" transform="matrix(14.794527,0,0,-14.794527,125.31326,62.3271)" fill="#343a40"/>
<use data-text="t" xlink:href="#font_1_87" transform="matrix(14.794527,0,0,-14.794527,137.99217,62.3271)" fill="#343a40"/>
<use data-text="h" xlink:href="#font_1_75" transform="matrix(14.794527,0,0,-14.794527,142.96314,62.3271)" fill="#343a40"/>
<use data-text="a" xlink:href="#font_1_68" transform="matrix(14.794527,0,0,-14.794527,151.4552,62.3271)" fill="#343a40"/>
<use data-text="t" xlink:href="#font_1_87" transform="matrix(14.794527,0,0,-14.794527,158.98561,62.3271)" fill="#343a40"/>
<use data-text="h" xlink:href="#font_1_75" transform="matrix(14.794527,0,0,-14.794527,168.33576,62.3271)" fill="#343a40"/>
<use data-text="e" xlink:href="#font_1_72" transform="matrix(14.794527,0,0,-14.794527,176.82782,62.3271)" fill="#343a40"/>
<use data-text="s" xlink:href="#font_1_86" transform="matrix(14.794527,0,0,-14.794527,188.41193,62.3271)" fill="#343a40"/>
<use data-text="u" xlink:href="#font_1_88" transform="matrix(14.794527,0,0,-14.794527,194.30016,62.3271)" fill="#343a40"/>
<use data-text="c" xlink:href="#font_1_70" transform="matrix(14.794527,0,0,-14.794527,202.71823,62.3271)" fill="#343a40"/>
<use data-text="e" xlink:href="#font_1_72" transform="matrix(14.794527,0,0,-14.794527,209.61249,62.3271)" fill="#343a40"/>
<use data-text="e" xlink:href="#font_1_72" transform="matrix(14.794527,0,0,-14.794527,216.8618,62.3271)" fill="#343a40"/>
<use data-text="d" xlink:href="#font_1_71" transform="matrix(14.794527,0,0,-14.794527,224.11112,62.3271)" fill="#343a40"/>
<use data-text="." xlink:href="#font_1_17" transform="matrix(14.794527,0,0,-14.794527,232.45523,62.3271)" fill="#343a40"/>
<use data-text="&#x201d;" xlink:href="#font_1_181" transform="matrix(14.794527,0,0,-14.794527,235.16265,62.3271)" fill="#343a40"/>
</svg>
