<svg xmlns="http://www.w3.org/2000/svg" xmlns:xlink="http://www.w3.org/1999/xlink" xmlns:inkscape="http://www.inkscape.org/namespaces/inkscape" version="1.1" width="262.40007" height="76.57269" viewBox="0 0 262.40007 76.57269">
<defs>
<path id="font_1_17" d="M.19580078 .05517578C.19580078 .036621095 .18912761 .020751954 .17578125 .0075683596 .16243489-.0056152346 .14648438-.012207031 .12792969-.012207031 .109375-.012207031 .09358724-.0056152346 .080566409 .0075683596 .06754557 .020751954 .061035158 .036621095 .061035158 .05517578 .061035158 .073404949 .06754557 .08911133 .080566409 .10229492 .09358724 .115478519 .109375 .12207031 .12792969 .12207031 .14648438 .12207031 .16243489 .115478519 .17578125 .10229492 .18912761 .08911133 .19580078 .073404949 .19580078 .05517578Z"/>
<path id="font_2_677" d="M.0703125 .70751956C.059244794 .7159831 .049804689 .7257487 .041992189 .7368164 .034179689 .7478841 .030273438 .7630208 .030273438 .78222659 .030273438 .8102214 .039957685 .8331706 .059326173 .8510742 .078694667 .86897787 .100748699 .8779297 .12548828 .8779297 .14697266 .8779297 .16666667 .8727214 .18457031 .8623047L.1850586 .81396487C.17496746 .81917318 .16552735 .8224284 .15673828 .82373049 .14794922 .82503256 .1398112 .8256836 .13232422 .8256836 .11832682 .8256836 .10538737 .82145187 .09350586 .8129883 .08162435 .8045247 .075683597 .79215499 .075683597 .7758789 .07600912 .7657878 .08113607 .75594076 .09106445 .7463379 .100992839 .73673507 .11507162 .73323568 .13330078 .73583987 .13395183 .73583987 .13468425 .7360026 .13549805 .7363281 .13631185 .7366536 .13720703 .7369792 .1381836 .7373047L.20263672 .7607422 .20947266 .71240237 .0234375 .6386719 .016601563 .68652346 .0703125 .70751956M.15722656 .6088867V.00048828127H.07470703V.6088867H.15722656Z"/>
<path id="font_2_728" d="M.03173828 .5571289V.6035156L.2397461 .68847659V.64208987L.03173828 .5571289Z"/>
<path id="font_2_719" d="M.3305664 .41455079 .4013672 .34375 .3305664 .27294923 .25976563 .34375 .3305664 .41455079M.33642579-.12792969C.39078776-.12792969 .43286134-.11905924 .46264649-.10131836 .49243165-.08357748 .51326498-.060302736 .5251465-.03149414 .537028-.0026855469 .54296877 .028157553 .54296877 .061035158 .54296877 .09977213 .53776046 .13802083 .52734377 .17578125 .51692709 .21354167 .50716146 .24446614 .49804688 .2685547L.58154299 .3022461C.59684249 .2602539 .6084798 .21948242 .6164551 .17993164 .62443038 .14038086 .62841799 .10270182 .62841799 .06689453 .62841799 .011881511 .6182454-.036946615 .5979004-.079589847 .57755538-.12223307 .54589846-.15559896 .5029297-.1796875 .45996095-.20377605 .40445964-.21582031 .33642579-.21582031 .26611329-.21582031 .20987956-.20296224 .16772461-.1772461 .12556966-.15152996 .09513346-.11726888 .076416019-.07446289 .057698568-.031656904 .048339845 .0152994799 .048339845 .06640625 .048339845 .10091146 .051920576 .13631185 .05908203 .17260742 .06624349 .208903 .07600912 .24430339 .088378909 .2788086L.16601563 .2475586C.15657552 .21761067 .14860027 .18684896 .14208985 .15527344 .13557942 .123697917 .13232422 .09309896 .13232422 .06347656 .13232422 .028320313 .1385905-.0037434896 .15112305-.032714845 .1636556-.0616862 .18473308-.08479818 .21435547-.10205078 .24397786-.11930338 .28466798-.12792969 .33642579-.12792969Z"/>
<path id="font_2_737" d="M.020507813 .5673828C.020507813 .5908203 .028889975 .6110026 .045654298 .6279297 .06241862 .64485678 .08251953 .6533203 .10595703 .6533203 .12939453 .6533203 .14949544 .64485678 .16625977 .6279297 .1830241 .6110026 .19140625 .5908203 .19140625 .5673828 .19140625 .5439453 .1830241 .5238444 .16625977 .5070801 .14949544 .49031578 .12939453 .4819336 .10595703 .4819336 .08251953 .4819336 .06241862 .49031578 .045654298 .5070801 .028889975 .5238444 .020507813 .5439453 .020507813 .5673828M.059570314 .5673828C.059570314 .554362 .06404623 .54345706 .07299805 .53466799 .08194987 .5258789 .092936199 .5214844 .10595703 .5214844 .11897787 .5214844 .12988281 .5258789 .13867188 .53466799 .14746094 .54345706 .15185547 .554362 .15185547 .5673828 .15185547 .5804036 .14746094 .5914714 .13867188 .60058596 .12988281 .6097005 .11897787 .6142578 .10595703 .6142578 .092936199 .6142578 .08194987 .6097005 .07299805 .60058596 .06404623 .5914714 .059570314 .5804036 .059570314 .5673828Z"/>
<path id="font_2_1285" d="M-.0107421879 .08886719H.095214847C.12776692 .08886719 .14982097 .09830729 .16137696 .1171875 .17293294 .1360677 .17871094 .15999349 .17871094 .18896485 .17871094 .2101237 .17675781 .23274739 .17285156 .25683595 .16894531 .28092448 .16471355 .30517579 .16015625 .32958985L.24511719 .35107423C.25065104 .32503257 .25504557 .29947917 .25830079 .27441407 .261556 .24934896 .2631836 .22542317 .2631836 .20263672 .2631836 .16357422 .2578125 .12874349 .24707031 .09814453 .23632813 .06754557 .21875 .04353841 .19433594 .026123047 .16992188 .008707683 .13720703 0 .096191409 0H-.0107421879V.08886719M.16552735-.07763672 .23388672-.14550781 .16552735-.21435547 .09765625-.14550781 .16552735-.07763672M.0034179688-.07763672 .071777347-.14550781 .0034179688-.21435547-.064453128-.14550781 .0034179688-.07763672Z"/>
<path id="font_2_1211" d="M.24658203 .6933594 .3173828 .6225586 .24658203 .5517578 .17578125 .6225586 .24658203 .6933594M.32958985 .17773438C.32958985 .18619792 .3277181 .19718425 .3239746 .21069336 .3202311 .22420247 .31575523 .2368164 .31054688 .24853516L.2241211 .44433595 .30029298 .47998048 .4111328 .21923828C.42610679 .18408203 .43920899 .1570638 .45043946 .1381836 .46166993 .11930338 .47273765 .10636393 .48364259 .099365238 .49454753 .09236654 .5069987 .08886719 .5209961 .08886719H.5415039V0H.5209961C.49527995 0 .47436524 .003092448 .45825196 .009277344 .44213868 .015462239 .42822267 .024739584 .4165039 .037109376 .40478517 .049479169 .39290367 .065104167 .38085938 .083984378 .3580729 .055338544 .32902018 .034261068 .29370118 .020751954 .25838218 .0072428386 .21435547 .00048828127 .1616211 .00048828127 .13883464 .00048828127 .11832682 .001546224 .100097659 .0036621094 .08186849 .0057779948 .06461588 .0087890629 .048339845 .0126953129V.10107422C.08577474 .092285159 .12109375 .087890628 .15429688 .087890628 .27115885 .087890628 .32958985 .11783854 .32958985 .17773438Z"/>
<path id="font_2_1276" d="M.26123048 .39648438 .2998047 .46875C.41666667 .41178385 .50374349 .36092124 .56103518 .3161621 .61832687 .27140299 .64697268 .2257487 .64697268 .17919922 .64697268 .12158203 .6291504 .078125 .59350588 .048828126 .5578613 .01953125 .5100911 .0048828127 .4501953 .0048828127 .42773438 .0048828127 .4038086 .0066731774 .37841798 .010253906 .35302735 .013834636 .3289388 .018310547 .30615235 .02368164 .28336589 .029052735 .26416017 .03434245 .24853516 .03955078 .22021485 .029134116 .18701172 .01993815 .14892578 .011962891 .110839847 .0039876305 .07405599 0 .03857422 0H-.009765625V.08886719H.032226564C.053710939 .08886719 .07267252 .08935547 .08911133 .09033203 .10555013 .091308597 .123535159 .092936199 .1430664 .095214847 .12060547 .11344401 .104410808 .13338216 .09448242 .1550293 .08455404 .17667644 .079589847 .19905599 .079589847 .22216797 .079589847 .25602214 .0875651 .28515626 .103515628 .3095703 .11946615 .33398438 .140625 .3527832 .16699219 .3659668 .19335938 .3791504 .22216797 .3857422 .25341798 .3857422 .26741538 .3857422 .28141276 .3839518 .29541017 .3803711 .28434245 .38557945 .27294923 .39095054 .26123048 .39648438M.34960938 .09326172C.36393229 .09163412 .37955729 .09008789 .39648438 .08862305 .41341148 .0871582 .4283854 .08642578 .44140626 .08642578 .48079429 .08642578 .51082357 .09383138 .53149417 .10864258 .55216476 .12345377 .5625 .14648438 .5625 .17773438 .5625 .19368489 .55338546 .21101888 .53515627 .22973633 .51692709 .24845378 .4925944 .26782228 .4621582 .2878418 .43172203 .30786134 .39811198 .32763673 .36132813 .34716798 .37923179 .33284507 .39363609 .31559245 .40454103 .29541017 .41544596 .27522788 .42089845 .25390626 .42089845 .23144531 .42089845 .20084636 .41479493 .17472331 .4025879 .15307617 .39038087 .13142903 .37272135 .11149088 .34960938 .09326172M.16357422 .22314453C.16357422 .2039388 .17163086 .18481446 .18774414 .16577149 .20385742 .14672852 .22721355 .13134766 .2578125 .119628909 .31640626 .14339192 .34570313 .17757161 .34570313 .22216797 .34570313 .25048829 .3371582 .27205406 .32006837 .28686524 .30297853 .30167643 .2823893 .30908204 .25830079 .30908204 .23030599 .30908204 .20751953 .30126954 .1899414 .28564454 .17236328 .27001954 .16357422 .2491862 .16357422 .22314453Z"/>
<path id="font_2_1175" d="M.453125-.07470703 .5239258-.14550781 .453125-.2163086 .38232423-.14550781 .453125-.07470703M.7397461 .28857423 .82128909 .29833985 .82958987 .18408203C.83154299 .15315755 .8404134 .1295573 .8562012 .11328125 .87198898 .09700521 .8956706 .08886719 .9272461 .08886719H.93896487V0H.9272461C.8904622 0 .8602702 .006917318 .8366699 .020751954 .81306967 .03458659 .7936198 .056803388 .7783203 .087402347 .75130209 .056152345 .7167155 .033772787 .67456057 .020263672 .6324056 .006754557 .57389327 0 .49902345 0H.41748048C.29475913 0 .20255535 .016601563 .14086914 .049804689 .079182948 .08300781 .048339845 .14046224 .048339845 .22216797 .048339845 .2446289 .05086263 .26660157 .055908204 .28808595 .060953779 .3095703 .06754557 .33024089 .075683597 .35009767L.15136719 .32177735C.14615886 .30745445 .1418457 .29215495 .13842774 .2758789 .13500977 .25960288 .13330078 .24414063 .13330078 .22949219 .1336263 .19140625 .14436849 .16219075 .16552735 .1418457 .1866862 .12150065 .21826172 .10758463 .2602539 .100097659 .3022461 .09261068 .35465495 .08886719 .41748048 .08886719H.49902345C.57682296 .08886719 .6371257 .09700521 .67993167 .11328125 .7227376 .1295573 .7441406 .15917969 .7441406 .20214844 .7441406 .2154948 .7437337 .2298177 .7429199 .24511719 .74210616 .26041667 .74104818 .27490235 .7397461 .28857423Z"/>
<path id="font_2_1203" d="M.6269531 .2709961V.18652344C.61295577 .18522136 .5965169 .181722 .5776367 .17602539 .55875656 .17032878 .538737 .16243489 .5175781 .15234375 .5182292 .12532552 .53125 .10799154 .5566406 .1003418 .58203127 .092692058 .6180013 .08886719 .6645508 .08886719H.69140627V0H.66259768C.5961914 0 .5464681 .0087890629 .51342776 .026367188 .48038737 .043945314 .46061198 .075520839 .45410157 .12109375 .38964845 .0859375 .32722984 .056966146 .2668457 .034179689 .2064616 .0113932299 .1414388 0 .071777347 0H-.009765625V.08886719H.07324219C.111328128 .08886719 .14632161 .092285159 .17822266 .099121097 .2101237 .10595703 .24129232 .11539713 .27172853 .1274414 .3021647 .13948567 .33406578 .15372722 .36743165 .17016602 .40079753 .18660482 .43815104 .20426433 .4794922 .22314453 .45638023 .23160808 .43245445 .24080403 .40771485 .25073243 .38297526 .2606608 .3594564 .27001954 .3371582 .2788086 .31486003 .28759767 .29541017 .29484049 .2788086 .3005371 .26220704 .30623374 .25048829 .30908204 .24365235 .30908204 .22379558 .30908204 .20629883 .30330406 .19116211 .29174806 .17602539 .28019206 .16210938 .26627604 .14941406 .25L.13623047 .23339844 .061523439 .27001954 .068847659 .28173829C.09033203 .316569 .11531576 .34448243 .14379883 .36547853 .1722819 .3864746 .20572917 .39697267 .24414063 .39697267 .26009117 .39697267 .27937828 .39290367 .30200196 .38476563 .32462565 .3766276 .34928385 .36645509 .37597657 .35424806 .40266929 .34204103 .43033854 .32967124 .45898438 .31713868 .48763023 .3046061 .51627609 .2940267 .5449219 .2854004 .5735677 .27677409 .60091146 .27197267 .6269531 .2709961Z"/>
<path id="font_2_1215" d="M.20166016 .5024414 .27246095 .43164063 .20166016 .36083985 .13085938 .43164063 .20166016 .5024414M.3828125 0C.36035157 0 .34155274 .0030110677 .32641603 .009033203 .3112793 .015055339 .29947917 .021484375 .29101563 .028320313 .2861328-.014322917 .27433268-.055582685 .25561524-.095458988 .23689778-.13533528 .20882161-.17008464 .17138672-.19970703 .13395183-.22932942 .084472659-.25016276 .022949219-.26220704L-.005859375-.1850586C.07356771-.16780599 .1295573-.13761394 .16210938-.09448242 .19466146-.05135091 .2109375-.00032552085 .2109375 .05859375 .2109375 .08626302 .20792644 .11531576 .2019043 .14575196 .19588216 .17618816 .1875 .20719402 .17675781 .23876953L.2578125 .26611329 .2841797 .1640625C.29134117 .13671875 .30273438 .11735026 .31835938 .10595703 .33398438 .094563808 .35367839 .08886719 .3774414 .08886719H.3959961V0H.3828125Z"/>
<path id="font_2_730" d="M.22460938 .52197268C.21777344 .52229818 .21191406 .5227051 .20703125 .52319338 .20214844 .52368167 .19645183 .5242513 .1899414 .52490237 .15673828 .47867839 .09863281 .45328776 .015625 .44873048L.009277344 .48632813C.041829427 .4892578 .07063802 .4947103 .095703128 .50268557 .12076823 .5106608 .13916016 .5208333 .1508789 .5332031 .12809246 .53483077 .10709635 .5423177 .087890628 .55566409 .0686849 .56901046 .05908203 .58968099 .05908203 .6176758 .05908203 .63948568 .06673177 .6582845 .08203125 .67407229 .09733073 .68986007 .11653646 .6977539 .13964844 .6977539 .16276042 .6977539 .18196614 .6903483 .19726563 .6755371 .21256511 .6607259 .22021485 .64127609 .22021485 .6171875 .22021485 .5989583 .21582031 .5789388 .20703125 .5571289 .21158855 .55647787 .21875 .55566409 .22851563 .5546875L.22460938 .52197268M.16796875 .5649414C.17154949 .5730794 .17464192 .5817871 .1772461 .59106448 .17985027 .6003418 .18115235 .6088867 .18115235 .6166992 .18115235 .62906906 .17732747 .6389974 .16967774 .6464844 .162028 .6539714 .15266927 .65771487 .14160156 .65771487 .12890625 .65771487 .11857096 .6533203 .1105957 .64453127 .102620448 .6357422 .09863281 .62613937 .09863281 .61572268 .09863281 .5991211 .10555013 .5875651 .119384769 .5810547 .1332194 .57454428 .14941406 .56917318 .16796875 .5649414Z"/>
<path id="font_2_1272" d="M.06982422 0H-.009765625V.08886719H.068847659C.10139974 .08886719 .12345377 .09830729 .13500977 .1171875 .14656575 .1360677 .15234375 .15999349 .15234375 .18896485 .15234375 .2101237 .15039063 .23274739 .14648438 .25683595 .14257813 .28092448 .13834636 .30517579 .13378906 .32958985L.21875 .35107423C.22428386 .32503257 .22867839 .29947917 .2319336 .27441407 .2351888 .24934896 .2368164 .22542317 .2368164 .20263672 .2368164 .16357422 .23144531 .12874349 .22070313 .09814453 .20996094 .06754557 .19238281 .04353841 .16796875 .026123047 .14355469 .008707683 .110839847 0 .06982422 0M.12939453 .5761719 .20019531 .5053711 .12939453 .4345703 .05859375 .5053711 .12939453 .5761719Z"/>
<path id="font_2_1273" d="M.14794922 .28857423 .22949219 .29833985 .23730469 .18408203C.24121094 .12060547 .2742513 .08886719 .33642579 .08886719H.3466797V0H.33544923C.2993164 0 .27042643 .0065104167 .2487793 .01953125 .22713216 .032552083 .20963542 .05094401 .19628906 .07470703 .17871094 .048990888 .15559896 .030110678 .12695313 .018066407 .09830729 .0060221354 .068359378 0 .037109376 0H-.009765625V.08886719H.037109376C.07845052 .08886719 .10799154 .09814453 .12573242 .11669922 .14347331 .1352539 .15234375 .16373699 .15234375 .20214844 .15234375 .21777344 .15193685 .23258464 .15112305 .24658203 .15030925 .26057945 .1492513 .2745768 .14794922 .28857423M.15722656 .5317383 .22802735 .4609375 .15722656 .39013673 .08642578 .4609375 .15722656 .5317383Z"/>
<path id="font_2_731" d="M.028320313-.24658203V-.20019531L.23632813-.115234378V-.1616211L.028320313-.24658203Z"/>
<path id="font_2_1284" d="M.33642579-.25146485C.26611329-.25146485 .20987956-.23860677 .16772461-.21289063 .12556966-.18717449 .09513346-.1529134 .076416019-.11010742 .057698568-.06730143 .048339845-.020345053 .048339845 .030761719 .048339845 .052897138 .050048829 .07845052 .053466798 .107421878 .056884767 .13639324 .06477865 .1694336 .07714844 .20654297L.15478516 .17773438C.14534505 .1451823 .13924153 .116373699 .13647461 .091308597 .13370769 .06624349 .13232422 .045084638 .13232422 .027832032 .13232422-.0073242189 .13850911-.03938802 .1508789-.068359378 .1632487-.09733073 .18432617-.12044271 .21411133-.13769531 .24389649-.15494792 .28466798-.16357422 .33642579-.16357422 .3852539-.16357422 .4271647-.15755208 .4621582-.14550781 .4971517-.13346355 .52400717-.119140628 .5427246-.10253906 .5614421-.0859375 .5708008-.07080078 .5708008-.057128908 .5708008-.041503908 .5640462-.028157553 .5505371-.017089844 .537028-.0060221354 .5151367-.00048828127 .48486329-.00048828127H.41259767C.40608726-.00048828127 .4013672 .0023600262 .3984375 .008056641 .3955078 .013753255 .39274089 .021158854 .39013673 .030273438L.37695313 .07714844C.3766276 .0797526 .37727867 .08227539 .37890626 .0847168 .38053385 .0871582 .38346354 .088378909 .3876953 .088378909H.6586914V-.00048828127H.6386719C.6435547-.010253906 .6467285-.01953125 .64819338-.028320313 .6496582-.037109376 .6503906-.046223958 .6503906-.055664064 .6503906-.07714844 .6441243-.099365238 .6315918-.12231445 .61905929-.14526367 .5998535-.1665039 .5739746-.18603516 .5480957-.2055664 .5154622-.22135417 .47607423-.23339844 .4366862-.2454427 .39013673-.25146485 .33642579-.25146485M.43066407-.3178711 .49902345-.3857422 .43066407-.45458985 .36279298-.3857422 .43066407-.3178711M.2685547-.3178711 .33691407-.3857422 .2685547-.45458985 .2006836-.3857422 .2685547-.3178711Z"/>
<path id="font_1_71" d="M.53808596 0H.38085938V.053222658C.3580729 .03564453 .33382163 .020345053 .30810548 .0073242189 .2823893-.0056966149 .25504557-.012207031 .22607422-.012207031 .19254558-.012207031 .1636556-.005126953 .1394043 .009033203 .11515299 .02319336 .09529623 .041992189 .079833988 .06542969 .06437174 .08886719 .052897138 .114746097 .045410158 .1430664 .037923177 .17138672 .034179689 .19970703 .034179689 .22802735 .034179689 .27327476 .04345703 .3161621 .06201172 .35668946 .080566409 .3972168 .10872396 .43025718 .14648438 .45581056 .1842448 .48136393 .23177083 .49414063 .2890625 .49414063 .30501304 .49414063 .32234703 .4925944 .34106446 .48950196 .3597819 .48640953 .37304688 .48388673 .38085938 .4819336V.66503909H.30517579V.6982422L.43408204 .7368164H.4741211V.063964847C.4741211 .05029297 .48111979 .04296875 .4951172 .041992189L.53808596 .0390625V0M.38085938 .09082031V.43115235C.37239585 .43408204 .3597819 .43725587 .34301759 .44067384 .32625328 .4440918 .31054688 .44580079 .29589845 .44580079 .24641927 .44580079 .20686849 .42749024 .1772461 .39086915 .1476237 .35424806 .1328125 .30566407 .1328125 .24511719 .1328125 .1907552 .14550781 .14567058 .17089844 .10986328 .19628906 .07405599 .2319336 .056152345 .27783204 .056152345 .2980143 .056152345 .31697593 .059977216 .3347168 .06762695 .35245768 .075276698 .36783854 .08300781 .38085938 .09082031Z"/>
<path id="font_1_82" d="M.5097656 .24023438C.5097656 .19303386 .5 .15030925 .48046876 .11206055 .4609375 .07381185 .4333496 .04353841 .39770509 .021240235 .36206056-.0010579428 .31982423-.012207031 .2709961-.012207031 .22249349-.012207031 .1805013-.0011393229 .14501953 .020996094 .10953776 .04313151 .08219401 .07324219 .06298828 .111328128 .04378255 .14941406 .034179689 .19238281 .034179689 .24023438 .034179689 .2877604 .043863935 .33072917 .06323242 .36914063 .082600917 .4075521 .11027018 .43798829 .14624024 .46044923 .18221028 .48291017 .22477214 .49414063 .27392579 .49414063 .32373048 .49414063 .36621095 .4827474 .4013672 .45996095 .43652345 .43717448 .4633789 .40657554 .4819336 .36816407 .5004883 .3297526 .5097656 .28710938 .5097656 .24023438M.40576173 .24121094C.40576173 .27766929 .4009603 .3116862 .39135743 .34326173 .38175456 .37483726 .3671061 .40039063 .3474121 .41992188 .3277181 .43945313 .30289714 .44921876 .27294923 .44921876 .24202474 .44921876 .2167155 .43945313 .19702149 .41992188 .17732747 .40039063 .16276042 .37483726 .15332031 .34326173 .1438802 .3116862 .13916016 .27766929 .13916016 .24121094 .13916016 .20507813 .1439616 .17114258 .15356446 .1394043 .16316732 .107666019 .17781575 .08203125 .19750977 .0625 .21720378 .04296875 .24202474 .033203126 .27197267 .033203126 .30257163 .033203126 .3277181 .04296875 .3474121 .0625 .3671061 .08203125 .38175456 .10758463 .39135743 .13916016 .4009603 .17073567 .40576173 .20475261 .40576173 .24121094Z"/>
<path id="font_1_72" d="M.26611329-.012207031C.2257487-.012207031 .1879069-.0031738282 .15258789 .014892578 .11726888 .032958986 .08870443 .060384115 .06689453 .09716797 .045084638 .13395183 .034179689 .18017578 .034179689 .23583985 .034179689 .2879232 .044270833 .33333335 .064453128 .3720703 .084635417 .41080729 .112467449 .44083659 .14794922 .4621582 .18343099 .48347984 .22379558 .49414063 .26904298 .49414063 .33121745 .49414063 .3779297 .47485353 .4091797 .4362793 .4404297 .39770509 .4560547 .3486328 .4560547 .2890625 .4560547 .28580729 .4560547 .28149415 .4560547 .27612306 .4560547 .27075196 .45572917 .26578776 .45507813 .26123048H.13085938C.13085938 .23583985 .13354492 .2105306 .13891602 .18530274 .14428711 .16007488 .15332031 .13720703 .16601563 .11669922 .17871094 .096191409 .19580078 .0797526 .21728516 .06738281 .23876953 .05501302 .265625 .048828126 .29785157 .048828126 .3264974 .048828126 .3544108 .055419923 .3815918 .068603519 .4087728 .08178711 .43359376 .09586588 .4560547 .110839847V.049804689C.4280599 .032552083 .39786784 .017903647 .36547853 .005859375 .3330892-.006184896 .29996745-.012207031 .26611329-.012207031M.13623047 .30615235H.35595704V.328125C.35595704 .3610026 .34806315 .38867188 .3322754 .4111328 .31648765 .43359376 .2919922 .44482423 .25878907 .44482423 .22591146 .44482423 .19791667 .43245445 .17480469 .40771485 .1516927 .38297526 .13883464 .3491211 .13623047 .30615235Z"/>
<path id="font_1_85" d="M.38085938 .3798828H.34179688C.33561198 .38736979 .3282064 .39379884 .31958009 .39916993 .31095378 .40454103 .30045573 .40722657 .28808595 .40722657 .2721354 .40722657 .25577799 .40169273 .23901367 .390625 .22224935 .37955729 .20524089 .36442057 .18798828 .34521485V.063964847C.18798828 .04996745 .19498699 .04264323 .20898438 .041992189L.27490235 .0390625V0H.024902344V.038085939L.07421875 .041992189C.080078128 .04264323 .08504232 .044921876 .08911133 .048828126 .093180339 .052734376 .095214847 .05777995 .095214847 .063964847V.4111328H.022949219V.44384767L.14697266 .4819336H.18798828V.3930664C.2163086 .425944 .2409668 .45100913 .2619629 .46826173 .28295899 .4855143 .3022461 .49414063 .31982423 .49414063 .33024089 .49414063 .34147135 .49251304 .35351563 .4892578 .3655599 .4860026 .37467448 .48258464 .38085938 .4790039V.3798828Z"/>
<path id="font_1_180" d="M.39208985 .70214846C.38264976 .69108077 .37141929 .6780599 .35839845 .66308596 .3453776 .648112 .33390299 .6312663 .3239746 .6125488 .31404624 .59383139 .30908204 .5732422 .30908204 .55078127 .30908204 .54752609 .30924479 .5440267 .3095703 .5402832 .30989585 .53653976 .3100586 .5333659 .3100586 .5307617H.37304688L.38061524 .5197754C.3856608 .5124512 .3881836 .5032552 .3881836 .4921875 .3881836 .4752604 .38264976 .46069337 .37158204 .44848634 .3605143 .4362793 .34602867 .43017579 .328125 .43017579 .30208335 .43017579 .28173829 .4388021 .26708985 .4560547 .2524414 .47330729 .24511719 .4962565 .24511719 .52490237 .24511719 .5489909 .24951172 .5710449 .25830079 .59106448 .26708985 .611084 .27775065 .62890627 .2902832 .64453127 .30281578 .66015627 .31510417 .67333987 .32714845 .68408206 .33919273 .6948242 .34847007 .703125 .35498048 .7089844L.39208985 .70214846M.18603516 .70214846C.16617839 .6822917 .14737956 .65966799 .12963867 .63427737 .11189779 .6088867 .103027347 .5807292 .103027347 .5498047 .103027347 .5465495 .1031901 .5432129 .103515628 .5397949 .10384115 .53637698 .104003909 .5333659 .104003909 .5307617H.16699219L.17456055 .5202637C.17960613 .51326498 .1821289 .50358077 .1821289 .49121095 .1821289 .47428385 .17667644 .45987956 .16577149 .44799806 .15486653 .43611656 .14029949 .43017579 .12207031 .43017579 .096354167 .43017579 .07609049 .43847657 .061279298 .45507813 .046468099 .4716797 .0390625 .49430339 .0390625 .5229492 .0390625 .5473633 .04345703 .56974288 .052246095 .5900879 .061035158 .6104329 .07169596 .6284993 .084228519 .6442871 .09676107 .6600749 .10904948 .67333987 .12109375 .68408206 .13313802 .6948242 .14241536 .703125 .14892578 .7089844L.18603516 .70214846Z"/>
<path id="font_1_55" d="M.5830078 .51123049H.5239258L.5097656 .60498049C.507487 .6163737 .5019531 .6220703 .49316407 .6220703H.35009767V.068847659C.35009767 .063964847 .35180665 .059244794 .3552246 .0546875 .35864259 .050130208 .36393229 .047526044 .37109376 .046875L.4350586 .04296875V0H.1640625V.04296875L.22802735 .046875C.2351888 .047526044 .24047852 .050130208 .24389649 .0546875 .24731446 .059244794 .24902344 .063964847 .24902344 .068847659V.6220703H.10498047C.094563808 .6220703 .08886719 .6163737 .087890628 .60498049L.07421875 .51123049H.016113282V.67089846H.5830078V.51123049Z"/>
<path id="font_1_75" d="M.55078127 0H.328125V.0390625L.36914063 .041992189C.375 .04264323 .38012696 .044921876 .38452149 .048828126 .38891603 .052734376 .39111329 .05777995 .39111329 .063964847V.32177735C.39111329 .3504232 .38427735 .37410484 .37060548 .39282228 .3569336 .4115397 .33072917 .42089845 .2919922 .42089845 .27441407 .42089845 .25545249 .4181315 .23510742 .41259767 .21476238 .4070638 .19742839 .40022788 .18310547 .39208985V.063964847C.18310547 .05029297 .18977864 .04296875 .203125 .041992189L.24609375 .0390625V0H.020996094V.0390625L.068847659 .041992189C.082845058 .04296875 .08984375 .05029297 .08984375 .063964847V.66503909H.015136719V.6982422L.1430664 .7368164H.18310547V.4321289C.19514974 .43961589 .21077474 .4481608 .22998047 .45776368 .2491862 .46736656 .2693685 .47583009 .29052735 .4831543 .3116862 .49047853 .33089195 .49414063 .34814454 .49414063 .386556 .49414063 .41878257 .48177085 .44482423 .45703126 .47086589 .43229167 .48388673 .39420573 .48388673 .34277345V.063964847C.48388673 .05777995 .48608399 .052734376 .49047853 .048828126 .49487306 .044921876 .5 .04264323 .5058594 .041992189L.55078127 .0390625V0Z"/>
<path id="font_1_68" d="M.4921875 0H.34423829L.3310547 .05908203C.31835938 .048990888 .30257163 .038411458 .2836914 .02734375 .2648112 .016276041 .24495442 .006917318 .2241211-.0007324219 .20328777-.008382161 .18326824-.012207031 .1640625-.012207031 .12792969-.012207031 .09724935-.00016276042 .072021488 .023925782 .04679362 .048014326 .034179689 .08105469 .034179689 .123046878 .034179689 .14160156 .037516279 .15885417 .044189454 .17480469 .05086263 .1907552 .064208988 .20597331 .084228519 .22045899 .10424805 .23494466 .1340332 .24910482 .17358399 .26293946 .21313477 .27677409 .265625 .29085288 .3310547 .30517579 .3310547 .30745445 .3310547 .31306968 .3310547 .32202149 .3310547 .3309733 .3310547 .339681 .3310547 .34814454 .3310547 .41389976 .29996745 .44677735 .23779297 .44677735 .22054036 .44677735 .20564778 .44514976 .19311524 .44189454 .18058269 .4386393 .171875 .43603517 .16699219 .43408204V.34716798H.09423828C.085123699 .34716798 .076660159 .34887696 .068847659 .35229493 .061035158 .3557129 .057128908 .36360679 .057128908 .37597657 .057128908 .4033203 .06754557 .42569987 .088378909 .44311524 .10921224 .4605306 .13566081 .47338868 .16772461 .48168946 .1997884 .48999024 .23225911 .49414063 .26513673 .49414063 .30647788 .49414063 .33854167 .48771159 .36132813 .47485353 .3841146 .46199546 .4000651 .44425456 .4091797 .42163087 .41829429 .39900718 .42285157 .37320964 .42285157 .34423829V.063964847C.42285157 .05777995 .42488609 .052652997 .42895509 .048583986 .43302409 .044514974 .43798829 .042317708 .44384767 .041992189L.4921875 .0390625V0M.3310547 .09423828V.26708985C.2861328 .25602214 .2504069 .24487305 .22387696 .23364258 .197347 .22241211 .17757161 .21118164 .16455078 .19995117 .15152996 .1887207 .14298503 .17732747 .13891602 .16577149 .134847 .1542155 .1328125 .14225261 .1328125 .12988281 .1328125 .109375 .1394043 .090413417 .15258789 .07299805 .16577149 .055582685 .1842448 .046875 .20800781 .046875 .22753906 .046875 .2491862 .052246095 .27294923 .06298828 .29671226 .07373047 .31608073 .08414713 .3310547 .09423828Z"/>
<path id="font_1_87" d="M.3330078 .020996094C.31966148 .013834636 .30037437 .0065104167 .27514649-.0009765625 .24991863-.008463542 .22428386-.012207031 .19824219-.012207031 .1608073-.012207031 .13354492-.0033365887 .11645508 .014404297 .099365238 .032145185 .09082031 .060709638 .09082031 .100097659V.4321289H.026855469V.46484376L.095214847 .4970703 .14013672 .60302737H.18408203V.4819336H.3251953V.4321289H.18408203V.15283203C.18408203 .11311849 .1907552 .08504232 .20410156 .068603519 .21744792 .052164716 .23746746 .043945314 .26416017 .043945314 .27848307 .043945314 .2919922 .045898439 .3046875 .049804689 .3173828 .053710939 .3268229 .057454427 .3330078 .061035158V.020996094Z"/>
<path id="font_1_62" d="M.37890626-.13183594H.13623047V.7080078H.37890626V.66308596H.22314453V-.0859375H.37890626V-.13183594Z"/>
<path id="font_1_86" d="M.3491211 .35302735H.296875L.2890625 .42285157C.28190104 .4283854 .27132163 .43359376 .25732423 .43847657 .24332683 .44335938 .22851563 .44580079 .21289063 .44580079 .18554688 .44580079 .16520183 .43953453 .15185547 .42700196 .13850911 .4144694 .13183594 .3984375 .13183594 .37890626 .13183594 .36393229 .1352539 .35123698 .14208985 .3408203 .14892578 .33040367 .16048177 .3202311 .17675781 .31030274 .19303386 .30037437 .21516927 .28889976 .24316406 .2758789 .27799479 .25992839 .30680339 .24226888 .32958985 .22290039 .3523763 .2035319 .36376954 .17757161 .36376954 .14501953 .36376954 .09586588 .34684245 .057373048 .31298829 .029541016 .27913413 .0017089844 .23242188-.012207031 .17285156-.012207031 .14225261-.012207031 .11401367-.009033203 .088134769-.0026855469 .06225586 .0036621094 .044270833 .008951823 .034179689 .013183594V.1459961H.08496094L.09716797 .061035158C.10725912 .05452474 .11971029 .048258466 .13452149 .042236329 .14933269 .03621419 .1665039 .033203126 .18603516 .033203126 .21468099 .033203126 .2368164 .041178388 .2524414 .057128908 .2680664 .07307943 .2758789 .09098307 .2758789 .110839847 .2758789 .13688152 .2652181 .15730794 .24389649 .17211914 .22257488 .18693035 .19254558 .20361328 .1538086 .22216797 .11735026 .2397461 .08943685 .2578125 .07006836 .2763672 .05069987 .29492188 .041015626 .3191732 .041015626 .3491211 .041015626 .39371745 .056640626 .42903648 .087890628 .45507813 .119140628 .48111979 .16357422 .49414063 .2211914 .49414063 .25048829 .49414063 .27661134 .49145509 .29956056 .48608399 .32250978 .4807129 .33902995 .4757487 .3491211 .4711914V.35302735Z"/>
<path id="font_1_88" d="M.546875 0H.3881836V.057128908C.37679038 .048339845 .3623047 .03857422 .34472657 .027832032 .32714845 .017089844 .30826823 .0077311198 .28808595-.00024414063 .26790367-.008219401 .24788411-.012207031 .22802735-.012207031 .1850586-.012207031 .15128581 .0007324219 .12670899 .026611329 .102132167 .052490236 .08984375 .09358724 .08984375 .14990235V.42089845H.020019532V.45507813L.1430664 .49414063H.18310547V.16894531C.18310547 .13346355 .19034831 .10579427 .20483399 .0859375 .21931966 .06608073 .24430339 .056152345 .27978517 .056152345 .30029298 .056152345 .32047526 .05965169 .34033204 .06665039 .3601888 .073649089 .3761393 .080078128 .3881836 .0859375V.42089845H.3178711V.45507813L.4399414 .49414063H.48095704V.063964847C.48095704 .05777995 .4831543 .052734376 .48754884 .048828126 .49194337 .044921876 .4970703 .04264323 .5029297 .041992189L.546875 .0390625V0Z"/>
<path id="font_1_79" d="M.27001954 0H.026855469V.0390625L.080078128 .041992189C.084635417 .042317708 .08943685 .044840497 .09448242 .049560548 .09952799 .054280599 .10205078 .05875651 .10205078 .06298828V.66503909H.025878907V.6982422L.1538086 .7368164H.19482422V.06298828C.19482422 .05875651 .19726563 .054280599 .20214844 .049560548 .20703125 .044840497 .21158855 .042317708 .21582031 .041992189L.27001954 .0390625V0Z"/>
<path id="font_1_64" d="M.28808595-.13183594H.043945314V-.0859375H.20117188V.66308596H.043945314V.7080078H.28808595V-.13183594Z"/>
<path id="font_1_74" d="M.5078125 .41503907H.40820313C.4156901 .40299479 .42203776 .3898112 .4272461 .37548829 .43245445 .36116538 .4350586 .34440104 .4350586 .3251953 .4350586 .29003907 .4248047 .26017253 .40429688 .2355957 .38378907 .21101888 .35717774 .19278972 .3244629 .1809082 .29174806 .16902669 .2566732 .16438802 .21923828 .16699219 .21402996 .15852864 .21085613 .1492513 .2097168 .13916016 .20857747 .12906902 .20841472 .120279949 .20922852 .11279297 .21004232 .10530599 .21061199 .10107422 .2109375 .100097659 .22884114 .09814453 .2495931 .09586588 .27319337 .09326172 .2967936 .090657558 .3207194 .08658854 .3449707 .08105469 .36922203 .075520839 .3917643 .067871097 .41259767 .05810547 .433431 .048339845 .4501953 .03548177 .46289063 .01953125 .47558595 .0035807293 .4819336-.016276041 .4819336-.040039064 .4819336-.071614589 .4703776-.10180664 .44726563-.13061524 .42415367-.15942383 .39298503-.1830241 .35375978-.20141602 .31453453-.21980794 .27067057-.2290039 .22216797-.2290039 .16259766-.2290039 .116373699-.2154134 .083496097-.18823242 .05061849-.16105144 .034179689-.12727864 .034179689-.08691406 .034179689-.057942708 .04280599-.032145185 .060058595-.009521484 .077311199 .013102214 .104003909 .027669272 .14013672 .034179689 .13655599 .044596357 .13395183 .052083333 .13232422 .056640626 .13069661 .061197919 .12988281 .069010417 .12988281 .080078128 .12988281 .09309896 .13387044 .10750326 .1418457 .123291019 .14982097 .13907878 .16259766 .15592449 .18017578 .17382813 .14697266 .18131511 .118001308 .19816081 .09326172 .22436524 .06852213 .25056968 .056152345 .28385417 .056152345 .32421876 .056152345 .3766276 .07462565 .41805015 .111572269 .44848634 .14851888 .47892253 .19694011 .49414063 .25683595 .49414063 .28059898 .49414063 .30265299 .49064128 .32299806 .48364259 .3433431 .4766439 .36002604 .4700521 .37304688 .4638672H.5078125V.41503907M.33984376 .3310547C.33984376 .35221354 .33626304 .3720703 .32910157 .390625 .3219401 .4091797 .31152345 .42423503 .29785157 .43579103 .2841797 .44734703 .2672526 .453125 .24707031 .453125 .21907552 .453125 .19620769 .44230143 .1784668 .4206543 .1607259 .39900718 .15185547 .3688151 .15185547 .33007813 .15185547 .29654948 .15983074 .26782228 .17578125 .24389649 .19173177 .2199707 .2154948 .20800781 .24707031 .20800781 .27701823 .20800781 .29996745 .22005208 .31591798 .24414063 .3318685 .26822917 .33984376 .29720054 .33984376 .3310547M.3959961-.06689453C.3959961-.0460612 .38875328-.029947916 .37426759-.018554688 .3597819-.0071614587 .34179688 .0013020834 .3203125 .0068359377 .29882813 .012369792 .277181 .016357422 .2553711 .018798829 .2335612 .021240235 .21516927 .023925782 .20019531 .026855469 .17122396 .016438803 .15128581 .0022786458 .14038086-.015625 .1294759-.033528646 .12402344-.05061849 .12402344-.06689453 .12402344-.082845058 .12866211-.099853519 .13793946-.11791992 .1472168-.13598633 .16153972-.15136719 .1809082-.1640625 .20027669-.17675781 .22493489-.18310547 .2548828-.18310547 .28678385-.18310547 .31315104-.17675781 .33398438-.1640625 .35481773-.15136719 .37036134-.13598633 .38061524-.11791992 .39086915-.099853519 .3959961-.082845058 .3959961-.06689453Z"/>
<path id="font_1_81" d="M.546875 0H.32617188V.0390625L.36816407 .041992189C.37402345 .04264323 .37898765 .044921876 .38305665 .048828126 .38712565 .052734376 .38916017 .05777995 .38916017 .063964847V.32421876C.38916017 .35579429 .38183595 .37980143 .3671875 .39624024 .35253907 .41267906 .32779948 .42089845 .29296876 .42089845 .27408854 .42089845 .2552897 .4182129 .23657227 .4128418 .21785482 .4074707 .20003255 .40055339 .18310547 .39208985V.063964847C.18310547 .05029297 .19010417 .04296875 .20410156 .041992189L.24609375 .0390625V0H.020019532V.0390625L.068847659 .041992189C.082845058 .04296875 .08984375 .05029297 .08984375 .063964847V.4111328H.020019532V.44384767L.14208985 .4819336H.18310547V.4321289C.21110027 .44807945 .23982747 .46240235 .2692871 .47509767 .29874674 .48779298 .32503257 .49414063 .34814454 .49414063 .3917643 .49414063 .42496745 .48055015 .4477539 .45336915 .47054038 .42618815 .4819336 .38834635 .4819336 .33984376V.063964847C.4819336 .05777995 .4839681 .052734376 .4880371 .048828126 .4921061 .044921876 .4970703 .04264323 .5029297 .041992189L.546875 .0390625V0Z"/>
<path id="font_1_80" d="M.828125 0H.6040039V.0390625L.6459961 .041992189C.65999349 .04296875 .6669922 .05029297 .6669922 .063964847V.31884767C.6669922 .34977214 .6605632 .37451173 .6477051 .3930664 .634847 .4116211 .6116536 .42089845 .578125 .42089845 .56152346 .42089845 .5433757 .41829429 .52368167 .41308595 .5039876 .4078776 .48649089 .40120445 .4711914 .3930664V.063964847C.4711914 .05029297 .4781901 .04296875 .4921875 .041992189L.5341797 .0390625V0H.3149414V.0390625L.3569336 .041992189C.370931 .04296875 .3779297 .05029297 .3779297 .063964847V.3251953C.3779297 .35351563 .3712565 .37654624 .35791017 .3942871 .3445638 .41202799 .3219401 .42089845 .29003907 .42089845 .27115885 .42089845 .25146485 .4177246 .23095703 .41137696 .21044922 .4050293 .1944987 .39860026 .18310547 .39208985V.063964847C.18310547 .05029297 .19010417 .04296875 .20410156 .041992189L.24609375 .0390625V0H.020019532V.0390625L.068847659 .041992189C.082845058 .04296875 .08984375 .05029297 .08984375 .063964847V.4111328H.020996094V.44384767L.14208985 .4819336H.18310547V.4321289C.19807942 .4412435 .21492513 .45052085 .23364258 .45996095 .25236003 .46940104 .27148438 .47745768 .29101563 .48413087 .31054688 .49080406 .3289388 .49414063 .3461914 .49414063 .37516276 .49414063 .39860026 .48673503 .4165039 .47192384 .43440757 .45711265 .44759117 .44140626 .4560547 .4248047 .46940104 .43326823 .48632813 .44295249 .50683596 .45385743 .52734377 .46476237 .548584 .47420249 .57055667 .48217774 .5925293 .49015299 .6123047 .49414063 .6298828 .49414063 .66503909 .49414063 .69189456 .48608399 .7104492 .4699707 .7290039 .45385743 .7416992 .43400065 .74853518 .4104004 .7553711 .38680015 .75878909 .36360679 .75878909 .3408203V.063964847C.75878909 .05777995 .76082357 .052652997 .7648926 .048583986 .7689616 .044514974 .7739258 .042317708 .77978518 .041992189L.828125 .0390625V0Z"/>
<path id="font_1_181" d="M.4140625 .61621096C.4140625 .5917969 .40966798 .5694173 .4008789 .54907229 .39208985 .52872726 .38142906 .5106608 .36889649 .49487306 .35636393 .4790853 .34407554 .4658203 .33203126 .45507813 .31998698 .44433595 .31070964 .43603517 .30419923 .43017579L.26708985 .43798829C.28727214 .45817057 .3063151 .48079429 .32421876 .5058594 .3421224 .5309245 .35107423 .55891928 .35107423 .58984377 .35107423 .5934245 .3507487 .59676107 .35009767 .5998535 .34944663 .602946 .3491211 .60563156 .3491211 .60791018H.2861328L.27856446 .6191406C.2735189 .6266276 .2709961 .63655599 .2709961 .6489258 .2709961 .6661784 .27652995 .6805013 .28759767 .69189456 .29866538 .7032878 .31315104 .7089844 .3310547 .7089844 .3564453 .7089844 .3766276 .70060226 .39160157 .6838379 .40657554 .66707357 .4140625 .64453127 .4140625 .61621096M.20800781 .6152344C.20800781 .5911458 .20361328 .5690918 .19482422 .54907229 .18603516 .52905276 .17537435 .5111491 .1628418 .49536134 .15030925 .47957359 .13802083 .4662272 .12597656 .45532228 .11393229 .44441734 .104654949 .43603517 .09814453 .43017579L.061035158 .43798829C.07047526 .449056 .08170573 .46199546 .09472656 .47680665 .1077474 .49161784 .11922201 .5083008 .12915039 .52685549 .13907878 .54541018 .14404297 .5657552 .14404297 .5878906 .14404297 .5914714 .1438802 .5951335 .14355469 .59887698 .14322917 .6026204 .1430664 .60563156 .1430664 .60791018H.080078128L.072509769 .6196289C.067464198 .6274414 .064941409 .63688156 .064941409 .6479492 .064941409 .66520187 .07063802 .6796875 .08203125 .69140627 .09342448 .703125 .108072917 .7089844 .12597656 .7089844 .15201824 .7089844 .17220052 .70043948 .18652344 .6833496 .20084636 .66625979 .20800781 .6435547 .20800781 .6152344Z"/>
</defs>
<use data-text="." xlink:href="#font_1_17" transform="matrix(16.408476,0,0,-16.408476,15.45069,16.934823)" fill="#343a40"/>
<use data-text="&#x0623;" xlink:href="#font_2_677" transform="matrix(16.408476,0,0,-16.408476,82.44699,16.934823)" fill="#343a40"/>
<use data-text="&#x064e;" xlink:href="#font_2_728" transform="matrix(16.408476,0,0,-16.408476,81.965709,11.31855)" fill="#343a40"/>
<use data-text="&#x0646;" xlink:href="#font_2_719" transform="matrix(16.408476,0,0,-16.408476,71.34255,16.934823)" fill="#343a40"/>
<use data-text="&#x0652;" xlink:href="#font_2_737" transform="matrix(16.408476,0,0,-16.408476,75.028179,15.862442)" fill="#343a40"/>
<use data-text="&#x064a;" xlink:href="#font_2_1285" transform="matrix(16.408476,0,0,-16.408476,61.824724,16.934823)" fill="#343a40"/>
<use data-text="&#x064e;" xlink:href="#font_2_728" transform="matrix(16.408476,0,0,-16.408476,62.392026,18.402482)" fill="#343a40"/>
<use data-text="&#x0630;" xlink:href="#font_2_1211" transform="matrix(16.408476,0,0,-16.408476,53.09928,16.934823)" fill="#343a40"/>
<use data-text="&#x0652;" xlink:href="#font_2_737" transform="matrix(16.408476,0,0,-16.408476,55.39776,12.160347)" fill="#343a40"/>
<use data-text="&#x0647;" xlink:href="#font_2_1276" transform="matrix(16.408476,0,0,-16.408476,41.69838,16.934823)" fill="#343a40"/>
<use data-text="&#x064e;" xlink:href="#font_2_728" transform="matrix(16.408476,0,0,-16.408476,44.43057,16.32726)" fill="#343a40"/>
<use data-text="&#x0628;" xlink:href="#font_2_1175" transform="matrix(16.408476,0,0,-16.408476,26.45082,16.934823)" fill="#343a40"/>
<use data-text="&#x064e;" xlink:href="#font_2_728" transform="matrix(16.408476,0,0,-16.408476,31.113663,18.450062)" fill="#343a40"/>
<use data-text="&#x064a;" xlink:href="#font_2_1285" transform="matrix(16.408476,0,0,-16.408476,137.92894,16.934823)" fill="#343a40"/>
<use data-text="&#x064e;" xlink:href="#font_2_728" transform="matrix(16.408476,0,0,-16.408476,138.49806,18.402482)" fill="#343a40"/>
<use data-text="&#x062d;" xlink:href="#font_2_1203" transform="matrix(16.408476,0,0,-16.408476,126.745807,16.934823)" fill="#343a40"/>
<use data-text="&#x0652;" xlink:href="#font_2_737" transform="matrix(16.408476,0,0,-16.408476,129.5091,15.76545)" fill="#343a40"/>
<use data-text="&#x0632;" xlink:href="#font_2_1215" transform="matrix(16.408476,0,0,-16.408476,120.40668,16.934823)" fill="#343a40"/>
<use data-text="&#x064f;" xlink:href="#font_2_730" transform="matrix(16.408476,0,0,-16.408476,121.28874,15.172535)" fill="#343a40"/>
<use data-text="&#x0646;" xlink:href="#font_2_1272" transform="matrix(16.408476,0,0,-16.408476,116.85099,16.934823)" fill="#343a40"/>
<use data-text="&#x064f;" xlink:href="#font_2_730" transform="matrix(16.408476,0,0,-16.408476,116.51427,14.059891)" fill="#343a40"/>
<use data-text="&#x0646;" xlink:href="#font_2_1273" transform="matrix(16.408476,0,0,-16.408476,111.32256,16.934823)" fill="#343a40"/>
<use data-text="&#x0650;" xlink:href="#font_2_731" transform="matrix(16.408476,0,0,-16.408476,111.154209,16.751824)" fill="#343a40"/>
<use data-text="&#x064a;" xlink:href="#font_2_1284" transform="matrix(16.408476,0,0,-16.408476,100.67379,16.934823)" fill="#343a40"/>
<path transform="matrix(1.83,0,0,-1.83,15.45069,16.934823)" stroke-width=".3985" stroke-linecap="butt" stroke-miterlimit="10" stroke-linejoin="miter" fill="none" stroke="#343a40" d="M-.19925-4.26807C.17433-5.01527 1.04608-5.51341 2.29143-5.51341H18.1677C19.41304-5.51341 20.2848-6.01154 20.65839-6.75876 21.03198-6.01154 21.90373-5.51341 23.14908-5.51341H39.02534C40.27069-5.51341 41.14244-5.01527 41.51604-4.26807"/>
<use data-text="d" xlink:href="#font_1_71" transform="matrix(10.9389719,0,0,-10.9389719,42.37548,42.04608)" fill="#343a40"/>
<use data-text="o" xlink:href="#font_1_82" transform="matrix(10.9389719,0,0,-10.9389719,48.545064,42.04608)" fill="#343a40"/>
<use data-text="e" xlink:href="#font_1_72" transform="matrix(10.9389719,0,0,-10.9389719,54.495866,42.04608)" fill="#343a40"/>
<use data-text="r" xlink:href="#font_1_85" transform="matrix(10.9389719,0,0,-10.9389719,59.855966,42.04608)" fill="#343a40"/>
<use data-text="&#x201c;" xlink:href="#font_1_180" transform="matrix(16.408476,0,0,-16.408476,5.4680407,69.12642)" fill="#343a40"/>
<use data-text="T" xlink:href="#font_1_55" transform="matrix(16.408476,0,0,-16.408476,12.901081,69.12642)" fill="#343a40"/>
<use data-text="h" xlink:href="#font_1_75" transform="matrix(16.408476,0,0,-16.408476,22.729758,69.12642)" fill="#343a40"/>
<use data-text="a" xlink:href="#font_1_68" transform="matrix(16.408476,0,0,-16.408476,32.148225,69.12642)" fill="#343a40"/>
<use data-text="t" xlink:href="#font_1_87" transform="matrix(16.408476,0,0,-16.408476,40.500139,69.12642)" fill="#343a40"/>
<use data-text="h" xlink:href="#font_1_75" transform="matrix(16.408476,0,0,-16.408476,50.8867,69.12642)" fill="#343a40"/>
<use data-text="e" xlink:href="#font_1_72" transform="matrix(16.408476,0,0,-16.408476,60.30517,69.12642)" fill="#343a40"/>
<use data-text="[" xlink:href="#font_1_62" transform="matrix(16.408476,0,0,-16.408476,73.15301,69.12642)" fill="#343a40"/>
<use data-text="s" xlink:href="#font_1_86" transform="matrix(16.408476,0,0,-16.408476,80.09379,69.12642)" fill="#343a40"/>
<use data-text="h" xlink:href="#font_1_75" transform="matrix(16.408476,0,0,-16.408476,86.55873,69.12642)" fill="#343a40"/>
<use data-text="o" xlink:href="#font_1_82" transform="matrix(16.408476,0,0,-16.408476,95.977199,69.12642)" fill="#343a40"/>
<use data-text="u" xlink:href="#font_1_88" transform="matrix(16.408476,0,0,-16.408476,104.903408,69.12642)" fill="#343a40"/>
<use data-text="l" xlink:href="#font_1_79" transform="matrix(16.408476,0,0,-16.408476,114.23983,69.12642)" fill="#343a40"/>
<use data-text="d" xlink:href="#font_1_71" transform="matrix(16.408476,0,0,-16.408476,119.113147,69.12642)" fill="#343a40"/>
<use data-text="]" xlink:href="#font_1_64" transform="matrix(16.408476,0,0,-16.408476,128.36753,69.12642)" fill="#343a40"/>
<use data-text="g" xlink:href="#font_1_74" transform="matrix(16.408476,0,0,-16.408476,140.09958,69.12642)" fill="#343a40"/>
<use data-text="o" xlink:href="#font_1_82" transform="matrix(16.408476,0,0,-16.408476,148.71404,69.12642)" fill="#343a40"/>
<use data-text="s" xlink:href="#font_1_86" transform="matrix(16.408476,0,0,-16.408476,162.44792,69.12642)" fill="#343a40"/>
<use data-text="a" xlink:href="#font_1_68" transform="matrix(16.408476,0,0,-16.408476,168.9785,69.12642)" fill="#343a40"/>
<use data-text="d" xlink:href="#font_1_71" transform="matrix(16.408476,0,0,-16.408476,177.33042,69.12642)" fill="#343a40"/>
<use data-text="d" xlink:href="#font_1_71" transform="matrix(16.408476,0,0,-16.408476,186.5848,69.12642)" fill="#343a40"/>
<use data-text="e" xlink:href="#font_1_72" transform="matrix(16.408476,0,0,-16.408476,195.83917,69.12642)" fill="#343a40"/>
<use data-text="n" xlink:href="#font_1_81" transform="matrix(16.408476,0,0,-16.408476,203.87932,69.12642)" fill="#343a40"/>
<use data-text="s" xlink:href="#font_1_86" transform="matrix(16.408476,0,0,-16.408476,213.18292,69.12642)" fill="#343a40"/>
<use data-text="m" xlink:href="#font_1_80" transform="matrix(16.408476,0,0,-16.408476,224.5212,69.12642)" fill="#343a40"/>
<use data-text="e" xlink:href="#font_1_72" transform="matrix(16.408476,0,0,-16.408476,238.46839,69.12642)" fill="#343a40"/>
<use data-text="." xlink:href="#font_1_17" transform="matrix(16.408476,0,0,-16.408476,246.50855,69.12642)" fill="#343a40"/>
<use data-text="&#x201d;" xlink:href="#font_1_181" transform="matrix(16.408476,0,0,-16.408476,249.5113,69.12642)" fill="#343a40"/>
</svg>
