<svg xmlns="http://www.w3.org/2000/svg" xmlns:xlink="http://www.w3.org/1999/xlink" xmlns:inkscape="http://www.inkscape.org/namespaces/inkscape" version="1.1" width="409.1148" height="76.57269" viewBox="0 0 409.1148 76.57269">
<defs>
<path id="font_1_17" d="M.19580078 .05517578C.19580078 .036621095 .18912761 .020751954 .17578125 .0075683596 .16243489-.0056152346 .14648438-.012207031 .12792969-.012207031 .109375-.012207031 .09358724-.0056152346 .080566409 .0075683596 .06754557 .020751954 .061035158 .036621095 .061035158 .05517578 .061035158 .073404949 .06754557 .08911133 .080566409 .10229492 .09358724 .115478519 .109375 .12207031 .12792969 .12207031 .14648438 .12207031 .16243489 .115478519 .17578125 .10229492 .18912761 .08911133 .19580078 .073404949 .19580078 .05517578Z"/>
<path id="font_2_1242" d="M.14013672 .08886719C.12548828 .10709635 .11303711 .1294759 .1027832 .15600586 .0925293 .18253581 .087402347 .20914714 .087402347 .23583985 .087402347 .27067057 .09651693 .3022461 .114746097 .3305664 .13297527 .35888673 .15690105 .38134767 .18652344 .39794923 .21614583 .41455079 .24804688 .42285157 .28222657 .42285157 .33398438 .42285157 .3894857 .40266929 .44873048 .3623047L.41601563 .28955079C.36523438 .3194987 .32242839 .33447267 .28759767 .33447267 .25764976 .33447267 .2311198 .3251953 .20800781 .30664063 .18489583 .28808595 .17333985 .26334635 .17333985 .23242188 .17333985 .20833333 .17879232 .18701172 .18969727 .16845703 .20060222 .14990235 .21223958 .13549805 .22460938 .12524414 .23697917 .114990238 .24527996 .10986328 .24951172 .10986328 .2553711 .10986328 .26106773 .110677089 .26660157 .11230469L.47314454 .1616211V.072753909C.39208985 .048014326 .31713868 .029703776 .24829102 .017822266 .17944336 .0059407555 .11116537 0 .04345703 0H-.009765625V.08886719H.14013672Z"/>
<path id="font_2_728" d="M.03173828 .5571289V.6035156L.2397461 .68847659V.64208987L.03173828 .5571289Z"/>
<path id="font_2_1263" d="M.13085938 .21386719V.6723633H.2133789V.21240235C.2133789 .17659505 .22045899 .14705403 .23461914 .1237793 .2487793 .100504558 .2745768 .08886719 .31201173 .08886719H.32763673V0H.31298829C.27652995 0 .2475586 .0063476564 .22607422 .019042969 .20458985 .03173828 .1875 .050130208 .17480469 .07421875 .1640625 .05826823 .15323894 .044759115 .14233399 .033691408 .13142903 .022623698 .1175944 .014241536 .10083008 .008544922 .08406576 .0028483074 .061197919 0 .032226564 0H-.009765625V.08886719H.03125C.05859375 .08886719 .0793457 .094319667 .09350586 .10522461 .107666019 .116129558 .11743164 .13102214 .122802738 .14990235 .12817383 .16878255 .13085938 .19010417 .13085938 .21386719Z"/>
<path id="font_2_1292" d="M-.010253906 .08886719H.1171875C.15852864 .08886719 .18806966 .09814453 .20581055 .11669922 .22355144 .1352539 .23242188 .16373699 .23242188 .20214844 .23242188 .21777344 .23201497 .23258464 .23120117 .24658203 .23038738 .26057945 .22932942 .2745768 .22802735 .28857423L.3095703 .29833985 .3173828 .18408203C.32128907 .12060547 .35432945 .08886719 .4165039 .08886719H.4267578V0H.41552735C.37939454 0 .35050456 .0065104167 .32885743 .01953125 .3072103 .032552083 .28971354 .05094401 .2763672 .07470703 .25878907 .048990888 .23567708 .030110678 .20703125 .018066407 .17838542 .0060221354 .1484375 0 .1171875 0H-.010253906V.08886719M.21923828-.07763672 .28759767-.14550781 .21923828-.21435547 .15136719-.14550781 .21923828-.07763672M.057128908-.07763672 .12548828-.14550781 .057128908-.21435547-.0107421879-.14550781 .057128908-.07763672Z"/>
<path id="font_2_737" d="M.020507813 .5673828C.020507813 .5908203 .028889975 .6110026 .045654298 .6279297 .06241862 .64485678 .08251953 .6533203 .10595703 .6533203 .12939453 .6533203 .14949544 .64485678 .16625977 .6279297 .1830241 .6110026 .19140625 .5908203 .19140625 .5673828 .19140625 .5439453 .1830241 .5238444 .16625977 .5070801 .14949544 .49031578 .12939453 .4819336 .10595703 .4819336 .08251953 .4819336 .06241862 .49031578 .045654298 .5070801 .028889975 .5238444 .020507813 .5439453 .020507813 .5673828M.059570314 .5673828C.059570314 .554362 .06404623 .54345706 .07299805 .53466799 .08194987 .5258789 .092936199 .5214844 .10595703 .5214844 .11897787 .5214844 .12988281 .5258789 .13867188 .53466799 .14746094 .54345706 .15185547 .554362 .15185547 .5673828 .15185547 .5804036 .14746094 .5914714 .13867188 .60058596 .12988281 .6097005 .11897787 .6142578 .10595703 .6142578 .092936199 .6142578 .08194987 .6097005 .07299805 .60058596 .06404623 .5914714 .059570314 .5804036 .059570314 .5673828Z"/>
<path id="font_2_1277" d="M-.009765625 0V.08886719H.091308597V.09765625C.091308597 .13248699 .09448242 .16788738 .10083008 .20385742 .107177738 .23982747 .1171875 .2730306 .13085938 .3034668 .14453125 .33390299 .16251628 .35839845 .18481446 .37695313 .20711263 .3955078 .23421224 .40478517 .26611329 .40478517 .30745445 .40478517 .33984376 .39029948 .36328126 .36132813 .38671876 .33235679 .3984375 .29459635 .3984375 .24804688 .3984375 .21777344 .39241538 .18798828 .3803711 .1586914 .3683268 .12939453 .35188804 .10270182 .3310547 .07861328 .31022135 .05452474 .28645835 .03531901 .25976563 .020996094 .23307292 .0066731774 .20507813-.00048828127 .17578125-.00048828127 .18229167-.027832032 .19514974-.055664064 .21435547-.083984378 .2335612-.11230469 .25748698-.13574219 .2861328-.15429688 .2861328 .0078125 .35465495 .08886719 .49169923 .08886719H.5078125V0H.49072267C.44710288 0 .41430665-.011881511 .39233399-.03564453 .37036134-.05940755 .359375-.099609378 .359375-.15625 .359375-.16341146 .35953776-.17097982 .35986329-.17895508 .3601888-.18693035 .3606771-.19482422 .36132813-.20263672L.30078126-.26171876C.2454427-.23372396 .20052083-.19685872 .16601563-.15112305 .13151042-.10538737 .10888672-.05501302 .09814453 0H-.009765625M.26513673 .31884767C.24560547 .31884767 .22884114 .30908204 .21484375 .28955079 .20084636 .27001954 .19018555 .24357097 .18286133 .21020508 .17553711 .17683919 .171875 .13948567 .171875 .09814453V.088378909C.19921875 .088378909 .2241211 .095703128 .24658203 .11035156 .26904298 .125 .28694663 .14444988 .30029298 .16870117 .3136393 .19295247 .3203125 .21940105 .3203125 .24804688 .3203125 .27115885 .31518556 .28873698 .30493165 .30078126 .29467774 .31282554 .28141276 .31884767 .26513673 .31884767Z"/>
<path id="font_2_1173" d="M.07470703 .6723633H.15722656V.2055664C.15722656 .15966797 .16569011 .12874349 .18261719 .11279297 .19954427 .096842449 .22509766 .08886719 .25927735 .08886719H.27148438V0H.25927735C.19710286 0 .15079753 .016520182 .12036133 .049560548 .08992513 .082600917 .07470703 .13476563 .07470703 .20605469V.6723633Z"/>
<path id="font_2_677" d="M.0703125 .70751956C.059244794 .7159831 .049804689 .7257487 .041992189 .7368164 .034179689 .7478841 .030273438 .7630208 .030273438 .78222659 .030273438 .8102214 .039957685 .8331706 .059326173 .8510742 .078694667 .86897787 .100748699 .8779297 .12548828 .8779297 .14697266 .8779297 .16666667 .8727214 .18457031 .8623047L.1850586 .81396487C.17496746 .81917318 .16552735 .8224284 .15673828 .82373049 .14794922 .82503256 .1398112 .8256836 .13232422 .8256836 .11832682 .8256836 .10538737 .82145187 .09350586 .8129883 .08162435 .8045247 .075683597 .79215499 .075683597 .7758789 .07600912 .7657878 .08113607 .75594076 .09106445 .7463379 .100992839 .73673507 .11507162 .73323568 .13330078 .73583987 .13395183 .73583987 .13468425 .7360026 .13549805 .7363281 .13631185 .7366536 .13720703 .7369792 .1381836 .7373047L.20263672 .7607422 .20947266 .71240237 .0234375 .6386719 .016601563 .68652346 .0703125 .70751956M.15722656 .6088867V.00048828127H.07470703V.6088867H.15722656Z"/>
<path id="font_2_719" d="M.3305664 .41455079 .4013672 .34375 .3305664 .27294923 .25976563 .34375 .3305664 .41455079M.33642579-.12792969C.39078776-.12792969 .43286134-.11905924 .46264649-.10131836 .49243165-.08357748 .51326498-.060302736 .5251465-.03149414 .537028-.0026855469 .54296877 .028157553 .54296877 .061035158 .54296877 .09977213 .53776046 .13802083 .52734377 .17578125 .51692709 .21354167 .50716146 .24446614 .49804688 .2685547L.58154299 .3022461C.59684249 .2602539 .6084798 .21948242 .6164551 .17993164 .62443038 .14038086 .62841799 .10270182 .62841799 .06689453 .62841799 .011881511 .6182454-.036946615 .5979004-.079589847 .57755538-.12223307 .54589846-.15559896 .5029297-.1796875 .45996095-.20377605 .40445964-.21582031 .33642579-.21582031 .26611329-.21582031 .20987956-.20296224 .16772461-.1772461 .12556966-.15152996 .09513346-.11726888 .076416019-.07446289 .057698568-.031656904 .048339845 .0152994799 .048339845 .06640625 .048339845 .10091146 .051920576 .13631185 .05908203 .17260742 .06624349 .208903 .07600912 .24430339 .088378909 .2788086L.16601563 .2475586C.15657552 .21761067 .14860027 .18684896 .14208985 .15527344 .13557942 .123697917 .13232422 .09309896 .13232422 .06347656 .13232422 .028320313 .1385905-.0037434896 .15112305-.032714845 .1636556-.0616862 .18473308-.08479818 .21435547-.10205078 .24397786-.11930338 .28466798-.12792969 .33642579-.12792969Z"/>
<path id="font_2_1285" d="M-.0107421879 .08886719H.095214847C.12776692 .08886719 .14982097 .09830729 .16137696 .1171875 .17293294 .1360677 .17871094 .15999349 .17871094 .18896485 .17871094 .2101237 .17675781 .23274739 .17285156 .25683595 .16894531 .28092448 .16471355 .30517579 .16015625 .32958985L.24511719 .35107423C.25065104 .32503257 .25504557 .29947917 .25830079 .27441407 .261556 .24934896 .2631836 .22542317 .2631836 .20263672 .2631836 .16357422 .2578125 .12874349 .24707031 .09814453 .23632813 .06754557 .21875 .04353841 .19433594 .026123047 .16992188 .008707683 .13720703 0 .096191409 0H-.0107421879V.08886719M.16552735-.07763672 .23388672-.14550781 .16552735-.21435547 .09765625-.14550781 .16552735-.07763672M.0034179688-.07763672 .071777347-.14550781 .0034179688-.21435547-.064453128-.14550781 .0034179688-.07763672Z"/>
<path id="font_2_1247" d="M.3022461 .61376956 .37304688 .54296877 .3022461 .47216798 .23144531 .54296877 .3022461 .61376956M.30371095 .38183595C.32877604 .38183595 .35465495 .37980143 .38134767 .37573243 .40804038 .37166343 .43286134 .3658854 .45581056 .35839845 .47875978 .35091148 .49739585 .34179688 .51171877 .3310547 .5260417 .3203125 .5332031 .30826823 .5332031 .29492188 .5332031 .28548179 .52823898 .27246095 .51831057 .25585938 .50838217 .23925781 .49568687 .22135417 .4802246 .20214844 .46476237 .1829427 .44856773 .1644694 .43164063 .14672852 .41471354 .12898763 .3992513 .11393229 .3852539 .1015625 .40804038 .095703128 .4296875 .0921224 .4501953 .09082031 .47070313 .08951823 .4892578 .08886719 .5058594 .08886719H.58203127V0H.50634768C.47216798 0 .43806968 .0040690104 .40405274 .012207031 .3700358 .020345053 .33658854 .033854169 .30371095 .052734376 .28222657 .040364583 .2574056 .030273438 .22924805 .022460938 .2010905 .0146484379 .17277019 .008951823 .14428711 .0053710939 .11580404 .0017903646 .09016927 0 .06738281 0H-.009765625V.08886719H.067871097C.078938808 .08886719 .09383138 .08911133 .11254883 .08959961 .13126628 .09008789 .15063477 .09122721 .1706543 .09301758 .19067383 .094807948 .20817058 .09765625 .22314453 .1015625 .20914714 .11393229 .19368489 .12898763 .17675781 .14672852 .15983074 .1644694 .14363607 .1829427 .12817383 .20214844 .112711589 .22135417 .0999349 .23925781 .08984375 .25585938 .0797526 .27246095 .07470703 .28548179 .07470703 .29492188 .07470703 .30826823 .08170573 .3203125 .095703128 .3310547 .10970052 .34179688 .12817383 .35091148 .15112305 .35839845 .17407227 .3658854 .19889324 .37166343 .22558594 .37573243 .25227867 .37980143 .2783203 .38183595 .30371095 .38183595M.30371095 .29785157C.2890625 .29785157 .2681478 .29671226 .2409668 .2944336 .21378581 .29215495 .18815105 .28694663 .1640625 .2788086 .18522136 .25211589 .20654297 .22819011 .22802735 .20703125 .24951172 .18587239 .26749674 .16902669 .28198243 .15649414L.30371095 .13769531 .3256836 .15649414C.34033204 .16902669 .3585612 .18587239 .3803711 .20703125 .402181 .22819011 .4235026 .25211589 .44433595 .2788086 .4202474 .28694663 .39453126 .29215495 .3671875 .2944336 .33984376 .29671226 .3186849 .29785157 .30371095 .29785157Z"/>
<path id="font_2_1231" d="M.5776367 .63134768 .6484375 .5605469 .5776367 .4897461 .50683596 .5605469 .5776367 .63134768M.42822267 0H.40234376C.33333335 0 .28076173 .0065104167 .2446289 .01953125 .2084961 .032552083 .1829427 .05078125 .16796875 .07421875 .14908855 .048502607 .12784831 .029703776 .10424805 .017822266 .08064779 .0059407555 .049316408 0 .010253906 0H-.009765625L-.009277344 .08886719H.010253906C.055826826 .08886719 .086507167 .09855143 .10229492 .11791992 .11808268 .1372884 .12597656 .16536458 .12597656 .20214844 .12597656 .21777344 .1254069 .23225911 .12426758 .24560547 .12312826 .2589518 .12223307 .27327476 .12158203 .28857423L.203125 .29833985 .21044922 .18408203C.21207683 .16227214 .21663411 .14347331 .2241211 .12768555 .23160808 .11189779 .24316406 .104003909 .25878907 .104003909 .31705729 .20296224 .37410484 .2759603 .42993165 .32299806 .48575846 .3700358 .5416667 .3935547 .59765627 .3935547 .6347656 .3935547 .6677246 .38549806 .6965332 .36938478 .7253418 .35327149 .7478841 .33138023 .76416018 .30371095 .7804362 .27604167 .7885742 .24479167 .7885742 .20996094 .7882487 .16796875 .7757161 .13069661 .75097659 .09814453 .7604167 .09586588 .7727051 .09375 .7878418 .091796878 .8029785 .08984375 .8253581 .08886719 .85498049 .08886719H.8696289V0H.85546877C.8141276 0 .7800293 .004231771 .7531738 .0126953129 .72631838 .021158854 .70377609 .032877607 .6855469 .047851564 .6588542 .032877607 .62369796 .021158854 .5800781 .0126953129 .5364583 .004231771 .48583985 0 .42822267 0M.6015625 .3046875C.523112 .3046875 .4383138 .23274739 .34716798 .08886719H.42626954C.51904299 .08886719 .5882161 .09814453 .63378909 .11669922 .679362 .1352539 .70214846 .16471355 .70214846 .20507813 .70214846 .23372396 .69295248 .25748698 .67456057 .2763672 .65616866 .2952474 .63183596 .3046875 .6015625 .3046875Z"/>
<path id="font_2_1175" d="M.453125-.07470703 .5239258-.14550781 .453125-.2163086 .38232423-.14550781 .453125-.07470703M.7397461 .28857423 .82128909 .29833985 .82958987 .18408203C.83154299 .15315755 .8404134 .1295573 .8562012 .11328125 .87198898 .09700521 .8956706 .08886719 .9272461 .08886719H.93896487V0H.9272461C.8904622 0 .8602702 .006917318 .8366699 .020751954 .81306967 .03458659 .7936198 .056803388 .7783203 .087402347 .75130209 .056152345 .7167155 .033772787 .67456057 .020263672 .6324056 .006754557 .57389327 0 .49902345 0H.41748048C.29475913 0 .20255535 .016601563 .14086914 .049804689 .079182948 .08300781 .048339845 .14046224 .048339845 .22216797 .048339845 .2446289 .05086263 .26660157 .055908204 .28808595 .060953779 .3095703 .06754557 .33024089 .075683597 .35009767L.15136719 .32177735C.14615886 .30745445 .1418457 .29215495 .13842774 .2758789 .13500977 .25960288 .13330078 .24414063 .13330078 .22949219 .1336263 .19140625 .14436849 .16219075 .16552735 .1418457 .1866862 .12150065 .21826172 .10758463 .2602539 .100097659 .3022461 .09261068 .35465495 .08886719 .41748048 .08886719H.49902345C.57682296 .08886719 .6371257 .09700521 .67993167 .11328125 .7227376 .1295573 .7441406 .15917969 .7441406 .20214844 .7441406 .2154948 .7437337 .2298177 .7429199 .24511719 .74210616 .26041667 .74104818 .27490235 .7397461 .28857423Z"/>
<path id="font_2_1218" d="M.3305664 0C.2931315 0 .26424156 .0064290368 .24389649 .01928711 .22355144 .032145185 .20735677 .05061849 .1953125 .07470703 .18001302 .05061849 .16048177 .032145185 .13671875 .01928711 .11295573 .0064290368 .07910156 0 .03515625 0H-.009765625V.08886719H.036132814C.07779948 .08886719 .10823568 .096598308 .1274414 .11206055 .14664714 .12752278 .15625 .15576172 .15625 .19677735 .15625 .20524089 .1558431 .21525066 .1550293 .22680664 .1542155 .23836263 .1529948 .25455729 .15136719 .27539063L.23291016 .28564454 .24072266 .18359375C.24267578 .15625 .25105796 .1336263 .26586915 .115722659 .28068034 .09781901 .30257163 .08886719 .33154298 .08886719 .3660482 .08886719 .3894857 .09814453 .40185548 .11669922 .41422526 .1352539 .42041017 .16194661 .42041017 .19677735 .42041017 .20524089 .42000328 .21533203 .41918946 .22705078 .41837565 .23876953 .41715495 .2548828 .41552735 .27539063L.4970703 .28564454 .5048828 .18359375C.50651046 .15722656 .5135091 .134847 .5258789 .11645508 .5382487 .09806315 .55826827 .08886719 .5859375 .08886719 .61295577 .08886719 .63151046 .098958339 .64160159 .119140628 .6516927 .13932292 .6567383 .16292317 .6567383 .1899414 .6567383 .21435547 .65437826 .2389323 .6496582 .26367188 .6449382 .28841148 .6407878 .308431 .63720706 .32373048L.7207031 .3461914C.7265625 .3243815 .73128256 .30118815 .7348633 .27661134 .73844406 .25203453 .7402344 .22753906 .7402344 .203125 .7402344 .16796875 .73535159 .13492839 .72558596 .104003909 .7158203 .07307943 .6997884 .048095704 .67749026 .029052735 .6551921 .010009766 .6248372 .00032552085 .5864258 0 .5551758 0 .52994796 .0065104167 .5107422 .01953125 .49153648 .032552083 .47591148 .05094401 .4638672 .07470703 .44563804 .048339845 .42537437 .029296875 .40307618 .017578125 .38077799 .005859375 .35660807 0 .3305664 0Z"/>
<path id="font_2_1259" d="M.107421878 .4736328C.14453125 .44759117 .1800944 .4217936 .21411133 .39624024 .24812825 .37068687 .2788086 .34301759 .30615235 .31323243 .3334961 .28344728 .35514323 .24886067 .37109376 .20947266 .38834635 .16748047 .40657554 .13688152 .42578126 .11767578 .44498698 .098470058 .47200523 .08886719 .50683596 .08886719H.5205078V0H.50683596C.47070313 0 .4400228 .0069986979 .41479493 .020996094 .38956706 .03499349 .36702476 .057291669 .34716798 .087890628 .33414714 .0686849 .31827799 .052571615 .29956056 .03955078 .2808431 .026529948 .25642906 .016682944 .22631836 .010009766 .19620769 .0033365887 .15722656 0 .109375 0H-.009765625V.08886719H.10888672C.17203777 .08886719 .21728516 .09448242 .2446289 .10571289 .27197267 .11694336 .28564454 .13932292 .28564454 .17285156 .28564454 .19433594 .27807618 .21533203 .26293946 .23583985 .24780274 .25634767 .22827149 .27661134 .2043457 .29663087 .18041992 .3166504 .15478516 .3363444 .1274414 .3557129 .100097659 .3750814 .07438151 .39420573 .05029297 .41308595 .0398763 .42154948 .031901044 .43147788 .026367188 .4428711 .020833334 .4542643 .018066407 .4658203 .018066407 .47753907 .018066407 .4908854 .021728516 .50341799 .029052735 .5151367 .036376954 .52685549 .047851564 .5358073 .06347656 .5419922L.41455079 .6845703V.59814456L.107421878 .4736328Z"/>
<path id="font_2_1188" d="M.20507813 .5283203 .2734375 .46044923 .20507813 .39160157 .13720703 .46044923 .20507813 .5283203M.04296875 .5283203 .111328128 .46044923 .04296875 .39160157-.024902344 .46044923 .04296875 .5283203M-.009765625 .08886719H.05859375C.0999349 .08886719 .1294759 .09814453 .1472168 .11669922 .16495769 .1352539 .17382813 .16373699 .17382813 .20214844 .17382813 .21777344 .17342122 .23258464 .17260742 .24658203 .17179363 .26057945 .17073567 .2745768 .1694336 .28857423L.25097657 .29833985 .25878907 .18408203C.2626953 .12060547 .2957357 .08886719 .35791017 .08886719H.36816407V0H.3569336C.32080079 0 .2919108 .0065104167 .27026368 .01953125 .24861653 .032552083 .2311198 .05094401 .21777344 .07470703 .20019531 .048990888 .17708333 .030110678 .1484375 .018066407 .119791667 .0060221354 .08984375 0 .05859375 0H-.009765625V.08886719Z"/>
<path id="font_2_1185" d="M.5253906 .4790039 .59375 .4111328 .5253906 .34228517 .45751954 .4111328 .5253906 .4790039M.36328126 .4790039 .43164063 .4111328 .36328126 .34228517 .29541017 .4111328 .36328126 .4790039M.7397461 .28857423 .82128909 .29833985 .82958987 .18408203C.83154299 .15315755 .8404134 .1295573 .8562012 .11328125 .87198898 .09700521 .8956706 .08886719 .9272461 .08886719H.93896487V0H.9272461C.8904622 0 .8602702 .006917318 .8366699 .020751954 .81306967 .03458659 .7936198 .056803388 .7783203 .087402347 .75130209 .056152345 .7167155 .033772787 .67456057 .020263672 .6324056 .006754557 .57389327 0 .49902345 0H.41748048C.29475913 0 .20255535 .016601563 .14086914 .049804689 .079182948 .08300781 .048339845 .14046224 .048339845 .22216797 .048339845 .2446289 .05086263 .26660157 .055908204 .28808595 .060953779 .3095703 .06754557 .33024089 .075683597 .35009767L.15136719 .32177735C.14615886 .30745445 .1418457 .29215495 .13842774 .2758789 .13500977 .25960288 .13330078 .24414063 .13330078 .22949219 .1336263 .19140625 .14436849 .16219075 .16552735 .1418457 .1866862 .12150065 .21826172 .10758463 .2602539 .100097659 .3022461 .09261068 .35465495 .08886719 .41748048 .08886719H.49902345C.57682296 .08886719 .6371257 .09700521 .67993167 .11328125 .7227376 .1295573 .7441406 .15917969 .7441406 .20214844 .7441406 .2154948 .7437337 .2298177 .7429199 .24511719 .74210616 .26041667 .74104818 .27490235 .7397461 .28857423Z"/>
<path id="font_2_1266" d="M.3310547-.011230469C.2985026-.011230469 .2684733-.0041503908 .2409668 .010009766 .21346028 .024169922 .18489583 .045572919 .15527344 .07421875 .13411458 .05045573 .11376953 .032145185 .09423828 .01928711 .07470703 .0064290368 .04720052 0 .01171875 0H-.009765625V.08886719H.009277344C.03108724 .08886719 .049479169 .09513346 .064453128 .107666019 .079427089 .12019857 .09277344 .13639324 .10449219 .15625 .11621094 .17610677 .12784831 .19718425 .1394043 .21948242 .15096028 .2417806 .16389974 .26285807 .17822266 .28271485 .19254558 .30257163 .20987956 .31876628 .23022461 .33129884 .25056968 .3438314 .27571617 .35009767 .30566407 .35009767 .34179688 .35009767 .37329103 .34138999 .40014649 .3239746 .42700196 .30655924 .4478353 .28320313 .46264649 .25390626 .47745768 .22460938 .48486329 .19189453 .48486329 .15576172 .48486329 .10270182 .47143556 .061604818 .44458009 .032470704 .4177246 .0033365887 .3798828-.011230469 .3310547-.011230469M.3076172 .26367188C.29134117 .26367188 .27652995 .2582194 .2631836 .24731446 .24983724 .2364095 .23779297 .22233074 .22705078 .20507813 .2163086 .18782552 .20670574 .16992188 .19824219 .15136719 .21777344 .13085938 .23795574 .114095058 .25878907 .10107422 .28548179 .08382162 .30924479 .07519531 .33007813 .07519531 .37825523 .07519531 .40234376 .09944662 .40234376 .14794922 .40234376 .18180339 .39396159 .20955403 .37719728 .23120117 .36043296 .2528483 .3372396 .26367188 .3076172 .26367188Z"/>
<path id="font_2_731" d="M.028320313-.24658203V-.20019531L.23632813-.115234378V-.1616211L.028320313-.24658203Z"/>
<path id="font_2_1271" d="M.3310547 .3774414 .40185548 .30664063 .3310547 .23583985 .2602539 .30664063 .3310547 .3774414M.33642579-.16357422C.39078776-.16357422 .43286134-.15470378 .46264649-.13696289 .49243165-.11922201 .51326498-.095947269 .5251465-.06713867 .537028-.038330079 .54296877-.007486979 .54296877 .025390625 .54296877 .0641276 .53776046 .102376308 .52734377 .14013672 .51692709 .17789714 .50716146 .20882161 .49804688 .23291016L.58154299 .26660157 .6176758 .15234375C.6241862 .13151042 .634847 .115722659 .6496582 .10498047 .6644694 .09423828 .6852214 .08886719 .71191409 .08886719H.73095706V0H.7138672C.69108077 0 .67374679 .0021158856 .66186526 .0063476564 .6499837 .010579427 .63883468 .017740885 .62841799 .027832032 .62809249-.026529948 .6176758-.074788417 .59716799-.11694336 .57666018-.15909831 .54500326-.1920573 .50219729-.21582031 .45939128-.23958333 .40413413-.25146485 .33642579-.25146485 .26611329-.25146485 .20987956-.23860677 .16772461-.21289063 .12556966-.18717449 .09513346-.1529134 .076416019-.11010742 .057698568-.06730143 .048339845-.020345053 .048339845 .030761719 .048339845 .06526693 .051920576 .10066732 .05908203 .13696289 .06624349 .17325847 .07600912 .20865886 .088378909 .24316406L.16601563 .21191406C.15657552 .18196614 .14860027 .15120442 .14208985 .119628909 .13557942 .08805338 .13232422 .057454427 .13232422 .027832032 .13232422-.0073242189 .1385905-.03938802 .15112305-.068359378 .1636556-.09733073 .18473308-.12044271 .21435547-.13769531 .24397786-.15494792 .28466798-.16357422 .33642579-.16357422Z"/>
<path id="font_2_1206" d="M.2944336 .6201172 .36523438 .5493164 .2944336 .47851563 .22363281 .5493164 .2944336 .6201172M-.009765625 .08886719H.07324219C.111328128 .08886719 .14632161 .092285159 .17822266 .099121097 .2101237 .10595703 .24129232 .11539713 .27172853 .1274414 .3021647 .13948567 .33406578 .15372722 .36743165 .17016602 .40079753 .18660482 .43815104 .20426433 .4794922 .22314453 .45638023 .23160808 .43245445 .24080403 .40771485 .25073243 .38297526 .2606608 .3594564 .27001954 .3371582 .2788086 .31486003 .28759767 .29541017 .29484049 .2788086 .3005371 .26220704 .30623374 .25048829 .30908204 .24365235 .30908204 .22379558 .30908204 .20629883 .30330406 .19116211 .29174806 .17602539 .28019206 .16210938 .26627604 .14941406 .25L.13623047 .23339844 .061523439 .27001954 .068847659 .28173829C.09033203 .316569 .11531576 .34448243 .14379883 .36547853 .1722819 .3864746 .20572917 .39697267 .24414063 .39697267 .26009117 .39697267 .27937828 .39290367 .30200196 .38476563 .32462565 .3766276 .34928385 .36645509 .37597657 .35424806 .40266929 .34204103 .43033854 .32967124 .45898438 .31713868 .48763023 .3046061 .51627609 .2940267 .5449219 .2854004 .5735677 .27677409 .60091146 .27197267 .6269531 .2709961V.18652344C.6061198 .1842448 .5795085 .17667644 .54711917 .16381836 .5147298 .15096028 .47265626 .13085938 .42089845 .103515628 .37923179 .08138021 .34057618 .06258138 .30493165 .04711914 .2692871 .031656904 .23299153 .01993815 .19604492 .011962891 .15909831 .0039876305 .11767578 0 .071777347 0H-.009765625V.08886719Z"/>
<path id="font_2_1223" d="M.4350586 .64208987 .50097659 .5761719 .4350586 .5102539 .36914063 .5761719 .4350586 .64208987M.5185547 .5185547 .58447268 .45263673 .5185547 .38671876 .45263673 .45263673 .5185547 .5185547M.3515625 .5185547 .41748048 .45263673 .3515625 .38671876 .28564454 .45263673 .3515625 .5185547M.5864258 0C.5551758 0 .52994796 .0065104167 .5107422 .01953125 .49153648 .032552083 .47591148 .05094401 .4638672 .07470703 .44563804 .048339845 .42537437 .029296875 .40307618 .017578125 .38077799 .005859375 .35660807 0 .3305664 0 .2931315 0 .26424156 .0064290368 .24389649 .01928711 .22355144 .032145185 .20735677 .05061849 .1953125 .07470703 .18001302 .05061849 .16048177 .032145185 .13671875 .01928711 .11295573 .0064290368 .07910156 0 .03515625 0H-.009765625V.08886719H.036132814C.07779948 .08886719 .10823568 .096598308 .1274414 .11206055 .14664714 .12752278 .15625 .15576172 .15625 .19677735 .15625 .20524089 .1558431 .21525066 .1550293 .22680664 .1542155 .23836263 .1529948 .25455729 .15136719 .27539063L.23291016 .28564454 .24072266 .18359375C.24267578 .15625 .25105796 .1336263 .26586915 .115722659 .28068034 .09781901 .30257163 .08886719 .33154298 .08886719 .3660482 .08886719 .3894857 .09814453 .40185548 .11669922 .41422526 .1352539 .42041017 .16194661 .42041017 .19677735 .42041017 .20524089 .42000328 .21533203 .41918946 .22705078 .41837565 .23876953 .41715495 .2548828 .41552735 .27539063L.4970703 .28564454 .5048828 .18359375C.50651046 .15722656 .5135091 .134847 .5258789 .11645508 .5382487 .09806315 .55826827 .08886719 .5859375 .08886719 .63411459 .08886719 .6582031 .12483724 .6582031 .19677735 .6582031 .2084961 .6577962 .22070313 .6569824 .23339844 .65616866 .24609375 .65494796 .26285807 .6533203 .2836914L.7348633 .29345704 .7426758 .18359375C.74658206 .12044271 .7788086 .08886719 .83935549 .08886719H.8540039V0H.84033206C.80615237 0 .77766928 .006266276 .7548828 .018798829 .7320964 .03133138 .7164714 .050130208 .7080078 .07519531 .69433596 .05110677 .6786296 .032552083 .6608887 .01953125 .64314779 .0065104167 .61832687 0 .5864258 0Z"/>
<path id="font_2_1290" d="M-.0107421879 .08886719H.06298828C.10432943 .08886719 .13387044 .09814453 .15161133 .11669922 .16935222 .1352539 .17822266 .16373699 .17822266 .20214844 .17822266 .21777344 .17781575 .23258464 .17700196 .24658203 .17618816 .26057945 .1751302 .2745768 .17382813 .28857423L.2553711 .29833985 .2631836 .18408203C.26708985 .12060547 .30013023 .08886719 .3623047 .08886719H.3725586V0H.36132813C.3251953 0 .29630534 .0065104167 .2746582 .01953125 .25301109 .032552083 .23551433 .05094401 .22216797 .07470703 .20458985 .048990888 .18147786 .030110678 .15283203 .018066407 .124186199 .0060221354 .09423828 0 .06298828 0H-.0107421879V.08886719M.16552735-.07763672 .23388672-.14550781 .16552735-.21435547 .09765625-.14550781 .16552735-.07763672M.0034179688-.07763672 .071777347-.14550781 .0034179688-.21435547-.064453128-.14550781 .0034179688-.07763672Z"/>
<path id="font_2_1183" d="M.36523438 .67822268 .43359376 .61035159 .36523438 .5415039 .29736329 .61035159 .36523438 .67822268M.203125 .67822268 .27148438 .61035159 .203125 .5415039 .1352539 .61035159 .203125 .67822268M.51123049 0C.4633789 0 .42618815 .011230469 .3996582 .033691408 .37312828 .056152345 .35595704 .08707682 .34814454 .12646485 .3292643 .10758463 .3088379 .09309896 .28686524 .08300781 .26489259 .072916667 .24023438 .067871097 .21289063 .067871097 .16634114 .067871097 .12727864 .08040365 .095703128 .10546875 .0641276 .13053386 .048339845 .16520183 .048339845 .20947266 .048339845 .25960288 .068847659 .30297853 .10986328 .3395996 .1508789 .3762207 .21533203 .40804038 .30322267 .4350586L.2998047 .4584961 .3779297 .4741211 .42041017 .1743164C.4243164 .14567058 .43367515 .12426758 .44848634 .11010742 .46329753 .095947269 .48486329 .08886719 .5131836 .08886719H.5283203V0H.51123049M.32861329 .24560547C.32861329 .25569663 .32796226 .26529948 .32666017 .27441407L.31445313 .35595704C.2513021 .33317057 .20532227 .31070964 .17651367 .28857423 .14770508 .2664388 .13330078 .2421875 .13330078 .21582031 .13330078 .19433594 .140625 .17805989 .15527344 .16699219 .16992188 .15592449 .18977864 .15039063 .21484375 .15039063 .23404949 .15039063 .25236003 .15413411 .2697754 .1616211 .28719078 .16910808 .30135093 .18001302 .31225587 .19433594 .3231608 .20865886 .32861329 .2257487 .32861329 .24560547Z"/>
<path id="font_1_76" d="M.21777344 .64697268C.21777344 .6300456 .21191406 .6154785 .20019531 .6032715 .18847656 .59106448 .17415364 .58496096 .15722656 .58496096 .14029949 .58496096 .12573242 .59106448 .11352539 .6032715 .10131836 .6154785 .095214847 .6300456 .095214847 .64697268 .095214847 .6642253 .10131836 .67871096 .11352539 .6904297 .12573242 .70214846 .14029949 .7080078 .15722656 .7080078 .17415364 .7080078 .18847656 .70214846 .20019531 .6904297 .21191406 .67871096 .21777344 .6642253 .21777344 .64697268M.26904298 0H.034179689V.0390625L.08300781 .041992189C.09700521 .04296875 .104003909 .05029297 .104003909 .063964847V.42089845H.03515625V.4560547L.15722656 .49414063H.19677735V.063964847C.19677735 .05777995 .19881185 .052652997 .20288086 .048583986 .20694988 .044514974 .21191406 .042317708 .21777344 .041992189L.26904298 .0390625V0Z"/>
<path id="font_1_16" d="M.2758789 .203125H.043945314V.27783204H.2758789V.203125Z"/>
<path id="font_1_86" d="M.3491211 .35302735H.296875L.2890625 .42285157C.28190104 .4283854 .27132163 .43359376 .25732423 .43847657 .24332683 .44335938 .22851563 .44580079 .21289063 .44580079 .18554688 .44580079 .16520183 .43953453 .15185547 .42700196 .13850911 .4144694 .13183594 .3984375 .13183594 .37890626 .13183594 .36393229 .1352539 .35123698 .14208985 .3408203 .14892578 .33040367 .16048177 .3202311 .17675781 .31030274 .19303386 .30037437 .21516927 .28889976 .24316406 .2758789 .27799479 .25992839 .30680339 .24226888 .32958985 .22290039 .3523763 .2035319 .36376954 .17757161 .36376954 .14501953 .36376954 .09586588 .34684245 .057373048 .31298829 .029541016 .27913413 .0017089844 .23242188-.012207031 .17285156-.012207031 .14225261-.012207031 .11401367-.009033203 .088134769-.0026855469 .06225586 .0036621094 .044270833 .008951823 .034179689 .013183594V.1459961H.08496094L.09716797 .061035158C.10725912 .05452474 .11971029 .048258466 .13452149 .042236329 .14933269 .03621419 .1665039 .033203126 .18603516 .033203126 .21468099 .033203126 .2368164 .041178388 .2524414 .057128908 .2680664 .07307943 .2758789 .09098307 .2758789 .110839847 .2758789 .13688152 .2652181 .15730794 .24389649 .17211914 .22257488 .18693035 .19254558 .20361328 .1538086 .22216797 .11735026 .2397461 .08943685 .2578125 .07006836 .2763672 .05069987 .29492188 .041015626 .3191732 .041015626 .3491211 .041015626 .39371745 .056640626 .42903648 .087890628 .45507813 .119140628 .48111979 .16357422 .49414063 .2211914 .49414063 .25048829 .49414063 .27661134 .49145509 .29956056 .48608399 .32250978 .4807129 .33902995 .4757487 .3491211 .4711914V.35302735Z"/>
<path id="font_1_87" d="M.3330078 .020996094C.31966148 .013834636 .30037437 .0065104167 .27514649-.0009765625 .24991863-.008463542 .22428386-.012207031 .19824219-.012207031 .1608073-.012207031 .13354492-.0033365887 .11645508 .014404297 .099365238 .032145185 .09082031 .060709638 .09082031 .100097659V.4321289H.026855469V.46484376L.095214847 .4970703 .14013672 .60302737H.18408203V.4819336H.3251953V.4321289H.18408203V.15283203C.18408203 .11311849 .1907552 .08504232 .20410156 .068603519 .21744792 .052164716 .23746746 .043945314 .26416017 .043945314 .27848307 .043945314 .2919922 .045898439 .3046875 .049804689 .3173828 .053710939 .3268229 .057454427 .3330078 .061035158V.020996094Z"/>
<path id="font_1_68" d="M.4921875 0H.34423829L.3310547 .05908203C.31835938 .048990888 .30257163 .038411458 .2836914 .02734375 .2648112 .016276041 .24495442 .006917318 .2241211-.0007324219 .20328777-.008382161 .18326824-.012207031 .1640625-.012207031 .12792969-.012207031 .09724935-.00016276042 .072021488 .023925782 .04679362 .048014326 .034179689 .08105469 .034179689 .123046878 .034179689 .14160156 .037516279 .15885417 .044189454 .17480469 .05086263 .1907552 .064208988 .20597331 .084228519 .22045899 .10424805 .23494466 .1340332 .24910482 .17358399 .26293946 .21313477 .27677409 .265625 .29085288 .3310547 .30517579 .3310547 .30745445 .3310547 .31306968 .3310547 .32202149 .3310547 .3309733 .3310547 .339681 .3310547 .34814454 .3310547 .41389976 .29996745 .44677735 .23779297 .44677735 .22054036 .44677735 .20564778 .44514976 .19311524 .44189454 .18058269 .4386393 .171875 .43603517 .16699219 .43408204V.34716798H.09423828C.085123699 .34716798 .076660159 .34887696 .068847659 .35229493 .061035158 .3557129 .057128908 .36360679 .057128908 .37597657 .057128908 .4033203 .06754557 .42569987 .088378909 .44311524 .10921224 .4605306 .13566081 .47338868 .16772461 .48168946 .1997884 .48999024 .23225911 .49414063 .26513673 .49414063 .30647788 .49414063 .33854167 .48771159 .36132813 .47485353 .3841146 .46199546 .4000651 .44425456 .4091797 .42163087 .41829429 .39900718 .42285157 .37320964 .42285157 .34423829V.063964847C.42285157 .05777995 .42488609 .052652997 .42895509 .048583986 .43302409 .044514974 .43798829 .042317708 .44384767 .041992189L.4921875 .0390625V0M.3310547 .09423828V.26708985C.2861328 .25602214 .2504069 .24487305 .22387696 .23364258 .197347 .22241211 .17757161 .21118164 .16455078 .19995117 .15152996 .1887207 .14298503 .17732747 .13891602 .16577149 .134847 .1542155 .1328125 .14225261 .1328125 .12988281 .1328125 .109375 .1394043 .090413417 .15258789 .07299805 .16577149 .055582685 .1842448 .046875 .20800781 .046875 .22753906 .046875 .2491862 .052246095 .27294923 .06298828 .29671226 .07373047 .31608073 .08414713 .3310547 .09423828Z"/>
<path id="font_1_72" d="M.26611329-.012207031C.2257487-.012207031 .1879069-.0031738282 .15258789 .014892578 .11726888 .032958986 .08870443 .060384115 .06689453 .09716797 .045084638 .13395183 .034179689 .18017578 .034179689 .23583985 .034179689 .2879232 .044270833 .33333335 .064453128 .3720703 .084635417 .41080729 .112467449 .44083659 .14794922 .4621582 .18343099 .48347984 .22379558 .49414063 .26904298 .49414063 .33121745 .49414063 .3779297 .47485353 .4091797 .4362793 .4404297 .39770509 .4560547 .3486328 .4560547 .2890625 .4560547 .28580729 .4560547 .28149415 .4560547 .27612306 .4560547 .27075196 .45572917 .26578776 .45507813 .26123048H.13085938C.13085938 .23583985 .13354492 .2105306 .13891602 .18530274 .14428711 .16007488 .15332031 .13720703 .16601563 .11669922 .17871094 .096191409 .19580078 .0797526 .21728516 .06738281 .23876953 .05501302 .265625 .048828126 .29785157 .048828126 .3264974 .048828126 .3544108 .055419923 .3815918 .068603519 .4087728 .08178711 .43359376 .09586588 .4560547 .110839847V.049804689C.4280599 .032552083 .39786784 .017903647 .36547853 .005859375 .3330892-.006184896 .29996745-.012207031 .26611329-.012207031M.13623047 .30615235H.35595704V.328125C.35595704 .3610026 .34806315 .38867188 .3322754 .4111328 .31648765 .43359376 .2919922 .44482423 .25878907 .44482423 .22591146 .44482423 .19791667 .43245445 .17480469 .40771485 .1516927 .38297526 .13883464 .3491211 .13623047 .30615235Z"/>
<path id="font_1_69" d="M.5209961 .26416017C.5209961 .21402996 .5110677 .16902669 .49121095 .12915039 .47135417 .089274089 .44026695 .05777995 .39794923 .03466797 .3556315 .011555989 .300944 0 .23388672 0H.08984375V.66503909H.014160156V.6982422L.1430664 .7368164H.18310547V.45703126C.1944987 .4625651 .212972 .47013346 .23852539 .47973634 .26407878 .4893392 .2915039 .49414063 .32080079 .49414063 .3647461 .49414063 .40152995 .4835612 .43115235 .46240235 .46077476 .4412435 .4831543 .41316734 .49829103 .37817384 .51342776 .34318034 .5209961 .30517579 .5209961 .26416017M.4189453 .24414063C.4189453 .30729167 .40559898 .35489909 .37890626 .3869629 .35221354 .4190267 .31461589 .4350586 .26611329 .4350586 .25504557 .4350586 .2409668 .43326823 .22387696 .4296875 .20678711 .42610679 .19319661 .42252604 .18310547 .4189453V.047851564C.19124349 .047526044 .19938152 .047281904 .20751953 .04711914 .21565755 .04695638 .22379558 .046875 .2319336 .046875 .29117839 .046875 .3371582 .061523439 .36987306 .09082031 .4025879 .12011719 .4189453 .17122396 .4189453 .24414063Z"/>
<path id="font_1_81" d="M.546875 0H.32617188V.0390625L.36816407 .041992189C.37402345 .04264323 .37898765 .044921876 .38305665 .048828126 .38712565 .052734376 .38916017 .05777995 .38916017 .063964847V.32421876C.38916017 .35579429 .38183595 .37980143 .3671875 .39624024 .35253907 .41267906 .32779948 .42089845 .29296876 .42089845 .27408854 .42089845 .2552897 .4182129 .23657227 .4128418 .21785482 .4074707 .20003255 .40055339 .18310547 .39208985V.063964847C.18310547 .05029297 .19010417 .04296875 .20410156 .041992189L.24609375 .0390625V0H.020019532V.0390625L.068847659 .041992189C.082845058 .04296875 .08984375 .05029297 .08984375 .063964847V.4111328H.020019532V.44384767L.14208985 .4819336H.18310547V.4321289C.21110027 .44807945 .23982747 .46240235 .2692871 .47509767 .29874674 .48779298 .32503257 .49414063 .34814454 .49414063 .3917643 .49414063 .42496745 .48055015 .4477539 .45336915 .47054038 .42618815 .4819336 .38834635 .4819336 .33984376V.063964847C.4819336 .05777995 .4839681 .052734376 .4880371 .048828126 .4921061 .044921876 .4970703 .04264323 .5029297 .041992189L.546875 .0390625V0Z"/>
<path id="font_1_82" d="M.5097656 .24023438C.5097656 .19303386 .5 .15030925 .48046876 .11206055 .4609375 .07381185 .4333496 .04353841 .39770509 .021240235 .36206056-.0010579428 .31982423-.012207031 .2709961-.012207031 .22249349-.012207031 .1805013-.0011393229 .14501953 .020996094 .10953776 .04313151 .08219401 .07324219 .06298828 .111328128 .04378255 .14941406 .034179689 .19238281 .034179689 .24023438 .034179689 .2877604 .043863935 .33072917 .06323242 .36914063 .082600917 .4075521 .11027018 .43798829 .14624024 .46044923 .18221028 .48291017 .22477214 .49414063 .27392579 .49414063 .32373048 .49414063 .36621095 .4827474 .4013672 .45996095 .43652345 .43717448 .4633789 .40657554 .4819336 .36816407 .5004883 .3297526 .5097656 .28710938 .5097656 .24023438M.40576173 .24121094C.40576173 .27766929 .4009603 .3116862 .39135743 .34326173 .38175456 .37483726 .3671061 .40039063 .3474121 .41992188 .3277181 .43945313 .30289714 .44921876 .27294923 .44921876 .24202474 .44921876 .2167155 .43945313 .19702149 .41992188 .17732747 .40039063 .16276042 .37483726 .15332031 .34326173 .1438802 .3116862 .13916016 .27766929 .13916016 .24121094 .13916016 .20507813 .1439616 .17114258 .15356446 .1394043 .16316732 .107666019 .17781575 .08203125 .19750977 .0625 .21720378 .04296875 .24202474 .033203126 .27197267 .033203126 .30257163 .033203126 .3277181 .04296875 .3474121 .0625 .3671061 .08203125 .38175456 .10758463 .39135743 .13916016 .4009603 .17073567 .40576173 .20475261 .40576173 .24121094Z"/>
<path id="font_1_88" d="M.546875 0H.3881836V.057128908C.37679038 .048339845 .3623047 .03857422 .34472657 .027832032 .32714845 .017089844 .30826823 .0077311198 .28808595-.00024414063 .26790367-.008219401 .24788411-.012207031 .22802735-.012207031 .1850586-.012207031 .15128581 .0007324219 .12670899 .026611329 .102132167 .052490236 .08984375 .09358724 .08984375 .14990235V.42089845H.020019532V.45507813L.1430664 .49414063H.18310547V.16894531C.18310547 .13346355 .19034831 .10579427 .20483399 .0859375 .21931966 .06608073 .24430339 .056152345 .27978517 .056152345 .30029298 .056152345 .32047526 .05965169 .34033204 .06665039 .3601888 .073649089 .3761393 .080078128 .3881836 .0859375V.42089845H.3178711V.45507813L.4399414 .49414063H.48095704V.063964847C.48095704 .05777995 .4831543 .052734376 .48754884 .048828126 .49194337 .044921876 .4970703 .04264323 .5029297 .041992189L.546875 .0390625V0Z"/>
<path id="font_1_180" d="M.39208985 .70214846C.38264976 .69108077 .37141929 .6780599 .35839845 .66308596 .3453776 .648112 .33390299 .6312663 .3239746 .6125488 .31404624 .59383139 .30908204 .5732422 .30908204 .55078127 .30908204 .54752609 .30924479 .5440267 .3095703 .5402832 .30989585 .53653976 .3100586 .5333659 .3100586 .5307617H.37304688L.38061524 .5197754C.3856608 .5124512 .3881836 .5032552 .3881836 .4921875 .3881836 .4752604 .38264976 .46069337 .37158204 .44848634 .3605143 .4362793 .34602867 .43017579 .328125 .43017579 .30208335 .43017579 .28173829 .4388021 .26708985 .4560547 .2524414 .47330729 .24511719 .4962565 .24511719 .52490237 .24511719 .5489909 .24951172 .5710449 .25830079 .59106448 .26708985 .611084 .27775065 .62890627 .2902832 .64453127 .30281578 .66015627 .31510417 .67333987 .32714845 .68408206 .33919273 .6948242 .34847007 .703125 .35498048 .7089844L.39208985 .70214846M.18603516 .70214846C.16617839 .6822917 .14737956 .65966799 .12963867 .63427737 .11189779 .6088867 .103027347 .5807292 .103027347 .5498047 .103027347 .5465495 .1031901 .5432129 .103515628 .5397949 .10384115 .53637698 .104003909 .5333659 .104003909 .5307617H.16699219L.17456055 .5202637C.17960613 .51326498 .1821289 .50358077 .1821289 .49121095 .1821289 .47428385 .17667644 .45987956 .16577149 .44799806 .15486653 .43611656 .14029949 .43017579 .12207031 .43017579 .096354167 .43017579 .07609049 .43847657 .061279298 .45507813 .046468099 .4716797 .0390625 .49430339 .0390625 .5229492 .0390625 .5473633 .04345703 .56974288 .052246095 .5900879 .061035158 .6104329 .07169596 .6284993 .084228519 .6442871 .09676107 .6600749 .10904948 .67333987 .12109375 .68408206 .13313802 .6948242 .14241536 .703125 .14892578 .7089844L.18603516 .70214846Z"/>
<path id="font_1_54" d="M.4819336 .18798828C.4819336 .15445964 .4729004 .12207031 .45483399 .09082031 .43676759 .059570314 .40828453 .033935548 .36938478 .013916016 .33048503-.0061035158 .2796224-.016113282 .21679688-.016113282 .17740886-.016113282 .14168294-.011962891 .10961914-.0036621094 .077555339 .004638672 .054036458 .012858073 .0390625 .020996094V.19824219H.10205078L.115234378 .08496094C.115885417 .08105469 .118001308 .076822917 .12158203 .072265628 .12516277 .067708339 .12858074 .06461588 .13183594 .06298828 .14225261 .05777995 .15576172 .052652997 .17236328 .047607423 .18896485 .042561849 .20914714 .040039064 .23291016 .040039064 .27555339 .040039064 .31070964 .05045573 .3383789 .07128906 .3660482 .0921224 .3798828 .12109375 .3798828 .15820313 .3798828 .18131511 .3725586 .2010905 .35791017 .2175293 .34326173 .2339681 .3228353 .24951172 .29663087 .26416017 .27042643 .2788086 .23958333 .2944336 .20410156 .31103517 .17675781 .324056 .15136719 .33797203 .12792969 .3527832 .10449219 .3675944 .08561198 .38590495 .07128906 .40771485 .056966146 .42952476 .049804689 .45735679 .049804689 .49121095 .049804689 .5309245 .059895833 .5654297 .080078128 .59472659 .100260417 .62402346 .12776692 .6467285 .16259766 .6628418 .19742839 .6789551 .2368164 .6870117 .28076173 .6870117 .31559245 .6870117 .34822593 .6831868 .3786621 .6755371 .4090983 .6678874 .43522135 .66031906 .45703126 .65283206V.4970703H.39990235L.38476563 .59277346C.3844401 .5963542 .38264976 .5996094 .37939454 .60253909 .3761393 .60546877 .37304688 .60791018 .3701172 .6098633 .36490885 .61344406 .3556315 .61816409 .34228517 .62402346 .3289388 .6298828 .30891929 .6328125 .28222657 .6328125 .2421875 .6328125 .21061199 .6216634 .1875 .59936526 .16438802 .5770671 .15283203 .5489909 .15283203 .5151367 .15283203 .48453776 .16479492 .45914714 .1887207 .43896485 .21264649 .41878257 .24707031 .4000651 .2919922 .3828125 .35253907 .36002604 .39933268 .33439128 .43237306 .3059082 .46541343 .27742515 .4819336 .23811849 .4819336 .18798828Z"/>
<path id="font_1_75" d="M.55078127 0H.328125V.0390625L.36914063 .041992189C.375 .04264323 .38012696 .044921876 .38452149 .048828126 .38891603 .052734376 .39111329 .05777995 .39111329 .063964847V.32177735C.39111329 .3504232 .38427735 .37410484 .37060548 .39282228 .3569336 .4115397 .33072917 .42089845 .2919922 .42089845 .27441407 .42089845 .25545249 .4181315 .23510742 .41259767 .21476238 .4070638 .19742839 .40022788 .18310547 .39208985V.063964847C.18310547 .05029297 .18977864 .04296875 .203125 .041992189L.24609375 .0390625V0H.020996094V.0390625L.068847659 .041992189C.082845058 .04296875 .08984375 .05029297 .08984375 .063964847V.66503909H.015136719V.6982422L.1430664 .7368164H.18310547V.4321289C.19514974 .43961589 .21077474 .4481608 .22998047 .45776368 .2491862 .46736656 .2693685 .47583009 .29052735 .4831543 .3116862 .49047853 .33089195 .49414063 .34814454 .49414063 .386556 .49414063 .41878257 .48177085 .44482423 .45703126 .47086589 .43229167 .48388673 .39420573 .48388673 .34277345V.063964847C.48388673 .05777995 .48608399 .052734376 .49047853 .048828126 .49487306 .044921876 .5 .04264323 .5058594 .041992189L.55078127 .0390625V0Z"/>
<path id="font_1_92" d="M.52001956 .4428711 .46777345 .43701173 .2758789-.030761719C.27164714-.041503908 .26505534-.056884767 .25610353-.0769043 .24715169-.09692383 .23657227-.11743164 .22436524-.13842774 .2121582-.15942383 .19905599-.17692058 .1850586-.19091797 .17301433-.20296224 .15974935-.21232097 .14526367-.21899414 .130778-.22566732 .11507162-.2290039 .09814453-.2290039 .07438151-.2290039 .056233724-.2232259 .043701173-.21166992 .03116862-.20011394 .024902344-.18684896 .024902344-.171875 .024902344-.14973958 .03564453-.12972005 .057128908-.111816409L.1508789-.15478516C.16194661-.14371746 .17301433-.12874349 .18408203-.10986328 .19514974-.09098307 .2051595-.07145182 .21411133-.05126953 .22306316-.03108724 .22998047-.013671875 .23486328 .0009765625L.064941409 .43701173 .009765625 .4428711V.4819336H.23095703V.4428711L.18310547 .4399414C.17757161 .43961589 .1730957 .43725587 .16967774 .43286134 .16625977 .4284668 .16569011 .4235026 .16796875 .41796876L.2841797 .123046878 .40283204 .41796876C.4051107 .4231771 .40478517 .4280599 .40185548 .4326172 .39892579 .43717448 .394694 .43961589 .38916017 .4399414L.34179688 .4428711V.4819336H.52001956V.4428711Z"/>
<path id="font_1_71" d="M.53808596 0H.38085938V.053222658C.3580729 .03564453 .33382163 .020345053 .30810548 .0073242189 .2823893-.0056966149 .25504557-.012207031 .22607422-.012207031 .19254558-.012207031 .1636556-.005126953 .1394043 .009033203 .11515299 .02319336 .09529623 .041992189 .079833988 .06542969 .06437174 .08886719 .052897138 .114746097 .045410158 .1430664 .037923177 .17138672 .034179689 .19970703 .034179689 .22802735 .034179689 .27327476 .04345703 .3161621 .06201172 .35668946 .080566409 .3972168 .10872396 .43025718 .14648438 .45581056 .1842448 .48136393 .23177083 .49414063 .2890625 .49414063 .30501304 .49414063 .32234703 .4925944 .34106446 .48950196 .3597819 .48640953 .37304688 .48388673 .38085938 .4819336V.66503909H.30517579V.6982422L.43408204 .7368164H.4741211V.063964847C.4741211 .05029297 .48111979 .04296875 .4951172 .041992189L.53808596 .0390625V0M.38085938 .09082031V.43115235C.37239585 .43408204 .3597819 .43725587 .34301759 .44067384 .32625328 .4440918 .31054688 .44580079 .29589845 .44580079 .24641927 .44580079 .20686849 .42749024 .1772461 .39086915 .1476237 .35424806 .1328125 .30566407 .1328125 .24511719 .1328125 .1907552 .14550781 .14567058 .17089844 .10986328 .19628906 .07405599 .2319336 .056152345 .27783204 .056152345 .2980143 .056152345 .31697593 .059977216 .3347168 .06762695 .35245768 .075276698 .36783854 .08300781 .38085938 .09082031Z"/>
<path id="font_1_84" d="M.5341797-.21777344H.2919922V-.18017578L.35107423-.17480469C.3569336-.17415364 .3618978-.17203777 .3659668-.16845703 .3700358-.1648763 .3720703-.15999349 .3720703-.1538086V.026855469C.35351563 .017740885 .33113609 .008951823 .30493165 .00048828127 .2787272-.007975261 .25439454-.012207031 .2319336-.012207031 .19091797-.012207031 .15568035-.0013020834 .1262207 .020507813 .09676107 .042317708 .07405599 .07145182 .05810547 .107910159 .04215495 .14436849 .034179689 .18473308 .034179689 .2290039 .034179689 .31070964 .059570314 .37532554 .11035156 .42285157 .16113281 .4703776 .23209636 .49414063 .3232422 .49414063 .34147135 .49414063 .36442057 .49267579 .39208985 .4897461 .41975913 .4868164 .4440104 .48291017 .46484376 .47802735V-.1538086C.46484376-.15999349 .46687828-.16479492 .47094728-.16821289 .47501628-.17163086 .47998048-.17382813 .48583985-.17480469L.5341797-.18017578V-.21777344M.3720703 .061035158V.43701173C.36295573 .43896485 .35253907 .44132487 .3408203 .4440918 .32910157 .44685874 .316569 .4482422 .30322267 .4482422 .24853516 .4482422 .20678711 .4296875 .17797852 .39257813 .14916992 .35546876 .13476563 .3063151 .13476563 .24511719 .13476563 .2109375 .13989258 .17871094 .15014649 .1484375 .16040039 .11816406 .17667644 .09366862 .19897461 .07495117 .22127278 .056233724 .25032554 .046875 .2861328 .046875 .2985026 .046875 .31315104 .048421224 .33007813 .051513673 .34700523 .05460612 .3610026 .05777995 .3720703 .061035158Z"/>
<path id="font_1_73" d="M.38916017 .6767578C.38916017 .66341146 .38582359 .6529134 .3791504 .6452637 .3724772 .63761398 .36539714 .63216146 .35791017 .62890627 .3504232 .62565109 .3453776 .62369796 .34277345 .6230469L.25097657 .6879883C.23665364 .6805013 .2232259 .66536459 .21069336 .6425781 .19816081 .6197917 .19189453 .58496096 .19189453 .53808596V.4741211H.31591798V.42285157H.19189453V.063964847C.19189453 .05777995 .19392903 .052652997 .19799805 .048583986 .20206706 .044514974 .20703125 .042317708 .21289063 .041992189L.27197267 .0390625V0H.028808594V.0390625L.078125 .041992189C.083984378 .042317708 .08894857 .044514974 .09301758 .048583986 .097086589 .052652997 .099121097 .05777995 .099121097 .063964847V.42285157H.03515625V.4580078L.099121097 .47607423C.099121097 .50895187 .10164388 .5362142 .10668945 .5578613 .11173502 .5795085 .12044271 .60221359 .1328125 .62597659 .15234375 .663737 .17749024 .6916504 .20825196 .7097168 .23901367 .7277832 .27067057 .7368164 .30322267 .7368164 .33154298 .7368164 .35294596 .7308757 .36743165 .71899417 .38191734 .7071126 .38916017 .6930339 .38916017 .6767578Z"/>
<path id="font_1_85" d="M.38085938 .3798828H.34179688C.33561198 .38736979 .3282064 .39379884 .31958009 .39916993 .31095378 .40454103 .30045573 .40722657 .28808595 .40722657 .2721354 .40722657 .25577799 .40169273 .23901367 .390625 .22224935 .37955729 .20524089 .36442057 .18798828 .34521485V.063964847C.18798828 .04996745 .19498699 .04264323 .20898438 .041992189L.27490235 .0390625V0H.024902344V.038085939L.07421875 .041992189C.080078128 .04264323 .08504232 .044921876 .08911133 .048828126 .093180339 .052734376 .095214847 .05777995 .095214847 .063964847V.4111328H.022949219V.44384767L.14697266 .4819336H.18798828V.3930664C.2163086 .425944 .2409668 .45100913 .2619629 .46826173 .28295899 .4855143 .3022461 .49414063 .31982423 .49414063 .33024089 .49414063 .34147135 .49251304 .35351563 .4892578 .3655599 .4860026 .37467448 .48258464 .38085938 .4790039V.3798828Z"/>
<path id="font_1_80" d="M.828125 0H.6040039V.0390625L.6459961 .041992189C.65999349 .04296875 .6669922 .05029297 .6669922 .063964847V.31884767C.6669922 .34977214 .6605632 .37451173 .6477051 .3930664 .634847 .4116211 .6116536 .42089845 .578125 .42089845 .56152346 .42089845 .5433757 .41829429 .52368167 .41308595 .5039876 .4078776 .48649089 .40120445 .4711914 .3930664V.063964847C.4711914 .05029297 .4781901 .04296875 .4921875 .041992189L.5341797 .0390625V0H.3149414V.0390625L.3569336 .041992189C.370931 .04296875 .3779297 .05029297 .3779297 .063964847V.3251953C.3779297 .35351563 .3712565 .37654624 .35791017 .3942871 .3445638 .41202799 .3219401 .42089845 .29003907 .42089845 .27115885 .42089845 .25146485 .4177246 .23095703 .41137696 .21044922 .4050293 .1944987 .39860026 .18310547 .39208985V.063964847C.18310547 .05029297 .19010417 .04296875 .20410156 .041992189L.24609375 .0390625V0H.020019532V.0390625L.068847659 .041992189C.082845058 .04296875 .08984375 .05029297 .08984375 .063964847V.4111328H.020996094V.44384767L.14208985 .4819336H.18310547V.4321289C.19807942 .4412435 .21492513 .45052085 .23364258 .45996095 .25236003 .46940104 .27148438 .47745768 .29101563 .48413087 .31054688 .49080406 .3289388 .49414063 .3461914 .49414063 .37516276 .49414063 .39860026 .48673503 .4165039 .47192384 .43440757 .45711265 .44759117 .44140626 .4560547 .4248047 .46940104 .43326823 .48632813 .44295249 .50683596 .45385743 .52734377 .46476237 .548584 .47420249 .57055667 .48217774 .5925293 .49015299 .6123047 .49414063 .6298828 .49414063 .66503909 .49414063 .69189456 .48608399 .7104492 .4699707 .7290039 .45385743 .7416992 .43400065 .74853518 .4104004 .7553711 .38680015 .75878909 .36360679 .75878909 .3408203V.063964847C.75878909 .05777995 .76082357 .052652997 .7648926 .048583986 .7689616 .044514974 .7739258 .042317708 .77978518 .041992189L.828125 .0390625V0Z"/>
<path id="font_1_74" d="M.5078125 .41503907H.40820313C.4156901 .40299479 .42203776 .3898112 .4272461 .37548829 .43245445 .36116538 .4350586 .34440104 .4350586 .3251953 .4350586 .29003907 .4248047 .26017253 .40429688 .2355957 .38378907 .21101888 .35717774 .19278972 .3244629 .1809082 .29174806 .16902669 .2566732 .16438802 .21923828 .16699219 .21402996 .15852864 .21085613 .1492513 .2097168 .13916016 .20857747 .12906902 .20841472 .120279949 .20922852 .11279297 .21004232 .10530599 .21061199 .10107422 .2109375 .100097659 .22884114 .09814453 .2495931 .09586588 .27319337 .09326172 .2967936 .090657558 .3207194 .08658854 .3449707 .08105469 .36922203 .075520839 .3917643 .067871097 .41259767 .05810547 .433431 .048339845 .4501953 .03548177 .46289063 .01953125 .47558595 .0035807293 .4819336-.016276041 .4819336-.040039064 .4819336-.071614589 .4703776-.10180664 .44726563-.13061524 .42415367-.15942383 .39298503-.1830241 .35375978-.20141602 .31453453-.21980794 .27067057-.2290039 .22216797-.2290039 .16259766-.2290039 .116373699-.2154134 .083496097-.18823242 .05061849-.16105144 .034179689-.12727864 .034179689-.08691406 .034179689-.057942708 .04280599-.032145185 .060058595-.009521484 .077311199 .013102214 .104003909 .027669272 .14013672 .034179689 .13655599 .044596357 .13395183 .052083333 .13232422 .056640626 .13069661 .061197919 .12988281 .069010417 .12988281 .080078128 .12988281 .09309896 .13387044 .10750326 .1418457 .123291019 .14982097 .13907878 .16259766 .15592449 .18017578 .17382813 .14697266 .18131511 .118001308 .19816081 .09326172 .22436524 .06852213 .25056968 .056152345 .28385417 .056152345 .32421876 .056152345 .3766276 .07462565 .41805015 .111572269 .44848634 .14851888 .47892253 .19694011 .49414063 .25683595 .49414063 .28059898 .49414063 .30265299 .49064128 .32299806 .48364259 .3433431 .4766439 .36002604 .4700521 .37304688 .4638672H.5078125V.41503907M.33984376 .3310547C.33984376 .35221354 .33626304 .3720703 .32910157 .390625 .3219401 .4091797 .31152345 .42423503 .29785157 .43579103 .2841797 .44734703 .2672526 .453125 .24707031 .453125 .21907552 .453125 .19620769 .44230143 .1784668 .4206543 .1607259 .39900718 .15185547 .3688151 .15185547 .33007813 .15185547 .29654948 .15983074 .26782228 .17578125 .24389649 .19173177 .2199707 .2154948 .20800781 .24707031 .20800781 .27701823 .20800781 .29996745 .22005208 .31591798 .24414063 .3318685 .26822917 .33984376 .29720054 .33984376 .3310547M.3959961-.06689453C.3959961-.0460612 .38875328-.029947916 .37426759-.018554688 .3597819-.0071614587 .34179688 .0013020834 .3203125 .0068359377 .29882813 .012369792 .277181 .016357422 .2553711 .018798829 .2335612 .021240235 .21516927 .023925782 .20019531 .026855469 .17122396 .016438803 .15128581 .0022786458 .14038086-.015625 .1294759-.033528646 .12402344-.05061849 .12402344-.06689453 .12402344-.082845058 .12866211-.099853519 .13793946-.11791992 .1472168-.13598633 .16153972-.15136719 .1809082-.1640625 .20027669-.17675781 .22493489-.18310547 .2548828-.18310547 .28678385-.18310547 .31315104-.17675781 .33398438-.1640625 .35481773-.15136719 .37036134-.13598633 .38061524-.11791992 .39086915-.099853519 .3959961-.082845058 .3959961-.06689453Z"/>
<path id="font_1_181" d="M.4140625 .61621096C.4140625 .5917969 .40966798 .5694173 .4008789 .54907229 .39208985 .52872726 .38142906 .5106608 .36889649 .49487306 .35636393 .4790853 .34407554 .4658203 .33203126 .45507813 .31998698 .44433595 .31070964 .43603517 .30419923 .43017579L.26708985 .43798829C.28727214 .45817057 .3063151 .48079429 .32421876 .5058594 .3421224 .5309245 .35107423 .55891928 .35107423 .58984377 .35107423 .5934245 .3507487 .59676107 .35009767 .5998535 .34944663 .602946 .3491211 .60563156 .3491211 .60791018H.2861328L.27856446 .6191406C.2735189 .6266276 .2709961 .63655599 .2709961 .6489258 .2709961 .6661784 .27652995 .6805013 .28759767 .69189456 .29866538 .7032878 .31315104 .7089844 .3310547 .7089844 .3564453 .7089844 .3766276 .70060226 .39160157 .6838379 .40657554 .66707357 .4140625 .64453127 .4140625 .61621096M.20800781 .6152344C.20800781 .5911458 .20361328 .5690918 .19482422 .54907229 .18603516 .52905276 .17537435 .5111491 .1628418 .49536134 .15030925 .47957359 .13802083 .4662272 .12597656 .45532228 .11393229 .44441734 .104654949 .43603517 .09814453 .43017579L.061035158 .43798829C.07047526 .449056 .08170573 .46199546 .09472656 .47680665 .1077474 .49161784 .11922201 .5083008 .12915039 .52685549 .13907878 .54541018 .14404297 .5657552 .14404297 .5878906 .14404297 .5914714 .1438802 .5951335 .14355469 .59887698 .14322917 .6026204 .1430664 .60563156 .1430664 .60791018H.080078128L.072509769 .6196289C.067464198 .6274414 .064941409 .63688156 .064941409 .6479492 .064941409 .66520187 .07063802 .6796875 .08203125 .69140627 .09342448 .703125 .108072917 .7089844 .12597656 .7089844 .15201824 .7089844 .17220052 .70043948 .18652344 .6833496 .20084636 .66625979 .20800781 .6435547 .20800781 .6152344Z"/>
</defs>
<use data-text="." xlink:href="#font_1_17" transform="matrix(16.408476,0,0,-16.408476,15.45069,16.934823)" fill="#343a40"/>
<use data-text="&#x0639;" xlink:href="#font_2_1242" transform="matrix(16.408476,0,0,-16.408476,50.976484,16.934823)" fill="#343a40"/>
<use data-text="&#x064e;" xlink:href="#font_2_728" transform="matrix(16.408476,0,0,-16.408476,53.224447,16.934823)" fill="#343a40"/>
<use data-text="&#x0644;" xlink:href="#font_2_1263" transform="matrix(16.408476,0,0,-16.408476,45.775,16.934823)" fill="#343a40"/>
<use data-text="&#x064e;" xlink:href="#font_2_728" transform="matrix(16.408476,0,0,-16.408476,46.112344,14.059891)" fill="#343a40"/>
<use data-text="&#x064a;" xlink:href="#font_2_1292" transform="matrix(16.408476,0,0,-16.408476,38.91861,16.934823)" fill="#343a40"/>
<use data-text="&#x0652;" xlink:href="#font_2_737" transform="matrix(16.408476,0,0,-16.408476,41.17683,17.335595)" fill="#343a40"/>
<use data-text="&#x0647;" xlink:href="#font_2_1277" transform="matrix(16.408476,0,0,-16.408476,30.745833,16.934823)" fill="#343a40"/>
<use data-text="&#x064e;" xlink:href="#font_2_728" transform="matrix(16.408476,0,0,-16.408476,32.757,16.894562)" fill="#343a40"/>
<use data-text="&#x0627;" xlink:href="#font_2_1173" transform="matrix(16.408476,0,0,-16.408476,26.45082,16.934823)" fill="#343a40"/>
<use data-text="&#x0623;" xlink:href="#font_2_677" transform="matrix(16.408476,0,0,-16.408476,133.32282,16.934823)" fill="#343a40"/>
<use data-text="&#x064e;" xlink:href="#font_2_728" transform="matrix(16.408476,0,0,-16.408476,132.84152,11.31855)" fill="#343a40"/>
<use data-text="&#x0646;" xlink:href="#font_2_719" transform="matrix(16.408476,0,0,-16.408476,122.21838,16.934823)" fill="#343a40"/>
<use data-text="&#x0652;" xlink:href="#font_2_737" transform="matrix(16.408476,0,0,-16.408476,125.904,15.862442)" fill="#343a40"/>
<use data-text="&#x064a;" xlink:href="#font_2_1285" transform="matrix(16.408476,0,0,-16.408476,112.70055,16.934823)" fill="#343a40"/>
<use data-text="&#x064e;" xlink:href="#font_2_728" transform="matrix(16.408476,0,0,-16.408476,113.26968,18.402482)" fill="#343a40"/>
<use data-text="&#x063a;" xlink:href="#font_2_1247" transform="matrix(16.408476,0,0,-16.408476,103.310817,16.934823)" fill="#343a40"/>
<use data-text="&#x0652;" xlink:href="#font_2_737" transform="matrix(16.408476,0,0,-16.408476,106.46574,13.6097149)" fill="#343a40"/>
<use data-text="&#x0636;" xlink:href="#font_2_1231" transform="matrix(16.408476,0,0,-16.408476,89.201519,16.934823)" fill="#343a40"/>
<use data-text="&#x064e;" xlink:href="#font_2_728" transform="matrix(16.408476,0,0,-16.408476,96.203098,14.788231)" fill="#343a40"/>
<use data-text="&#x0628;" xlink:href="#font_2_1175" transform="matrix(16.408476,0,0,-16.408476,73.95395,16.934823)" fill="#343a40"/>
<use data-text="&#x064e;" xlink:href="#font_2_728" transform="matrix(16.408476,0,0,-16.408476,78.61679,18.450062)" fill="#343a40"/>
<use data-text="&#x0633;" xlink:href="#font_2_1218" transform="matrix(16.408476,0,0,-16.408476,249.76026,16.934823)" fill="#343a40"/>
<use data-text="&#x064e;" xlink:href="#font_2_728" transform="matrix(16.408476,0,0,-16.408476,254.63172,18.473855)" fill="#343a40"/>
<use data-text="&#x0643;" xlink:href="#font_2_1259" transform="matrix(16.408476,0,0,-16.408476,241.38066,16.934823)" fill="#343a40"/>
<use data-text="&#x064e;" xlink:href="#font_2_728" transform="matrix(16.408476,0,0,-16.408476,241.7485,15.485462)" fill="#343a40"/>
<use data-text="&#x062a;" xlink:href="#font_2_1188" transform="matrix(16.408476,0,0,-16.408476,235.49907,16.934823)" fill="#343a40"/>
<use data-text="&#x064e;" xlink:href="#font_2_728" transform="matrix(16.408476,0,0,-16.408476,235.29958,16.213799)" fill="#343a40"/>
<use data-text="&#x062a;" xlink:href="#font_2_1185" transform="matrix(16.408476,0,0,-16.408476,220.25151,16.934823)" fill="#343a40"/>
<use data-text="&#x0652;" xlink:href="#font_2_737" transform="matrix(16.408476,0,0,-16.408476,225.86045,15.212795)" fill="#343a40"/>
<use data-text="&#x0645;" xlink:href="#font_2_1266" transform="matrix(16.408476,0,0,-16.408476,207.09746,16.934823)" fill="#343a40"/>
<use data-text="&#x0650;" xlink:href="#font_2_731" transform="matrix(16.408476,0,0,-16.408476,209.40326,16.799405)" fill="#343a40"/>
<use data-text="&#x0646;" xlink:href="#font_2_1271" transform="matrix(16.408476,0,0,-16.408476,195.26285,16.934823)" fill="#343a40"/>
<use data-text="&#x0652;" xlink:href="#font_2_737" transform="matrix(16.408476,0,0,-16.408476,198.932,16.543198)" fill="#343a40"/>
<use data-text="&#x062e;" xlink:href="#font_2_1206" transform="matrix(16.408476,0,0,-16.408476,179.8634,16.934823)" fill="#343a40"/>
<use data-text="&#x064e;" xlink:href="#font_2_728" transform="matrix(16.408476,0,0,-16.408476,182.15639,14.835812)" fill="#343a40"/>
<use data-text="&#x0634;" xlink:href="#font_2_1223" transform="matrix(16.408476,0,0,-16.408476,166.01213,16.934823)" fill="#343a40"/>
<use data-text="&#x0652;" xlink:href="#font_2_737" transform="matrix(16.408476,0,0,-16.408476,171.34659,12.921627)" fill="#343a40"/>
<use data-text="&#x064a;" xlink:href="#font_2_1290" transform="matrix(16.408476,0,0,-16.408476,160.05913,16.934823)" fill="#343a40"/>
<use data-text="&#x064e;" xlink:href="#font_2_728" transform="matrix(16.408476,0,0,-16.408476,160.93936,18.993569)" fill="#343a40"/>
<use data-text="&#x0629;" xlink:href="#font_2_1183" transform="matrix(16.408476,0,0,-16.408476,151.54964,16.934823)" fill="#343a40"/>
<use data-text="&#x0650;" xlink:href="#font_2_731" transform="matrix(16.408476,0,0,-16.408476,153.44918,16.751824)" fill="#343a40"/>
<path transform="matrix(1.83,0,0,-1.83,15.45069,16.934823)" stroke-width=".3985" stroke-linecap="butt" stroke-miterlimit="10" stroke-linejoin="miter" fill="none" stroke="#343a40" d="M29.14323-4.26807C29.51682-5.01527 30.38858-5.51341 31.63393-5.51341H46.73962C47.98497-5.51341 48.85674-6.01154 49.23032-6.75876 49.60391-6.01154 50.47566-5.51341 51.72101-5.51341H66.82672C68.07207-5.51341 68.94382-5.01527 69.31741-4.26807"/>
<use data-text="i" xlink:href="#font_1_76" transform="matrix(10.9389719,0,0,-10.9389719,64.60632,42.04608)" fill="#343a40"/>
<use data-text="-" xlink:href="#font_1_16" transform="matrix(10.9389719,0,0,-10.9389719,67.92083,42.04608)" fill="#343a40"/>
<use data-text="s" xlink:href="#font_1_86" transform="matrix(10.9389719,0,0,-10.9389719,71.4213,42.04608)" fill="#343a40"/>
<use data-text="t" xlink:href="#font_1_87" transform="matrix(10.9389719,0,0,-10.9389719,75.77502,42.04608)" fill="#343a40"/>
<use data-text="a" xlink:href="#font_1_68" transform="matrix(10.9389719,0,0,-10.9389719,79.49427,42.04608)" fill="#343a40"/>
<use data-text="t" xlink:href="#font_1_87" transform="matrix(10.9389719,0,0,-10.9389719,85.0622,42.04608)" fill="#343a40"/>
<use data-text="e" xlink:href="#font_1_72" transform="matrix(10.9389719,0,0,-10.9389719,88.781459,42.04608)" fill="#343a40"/>
<use data-text="b" xlink:href="#font_1_69" transform="matrix(10.9389719,0,0,-10.9389719,97.34668,42.04608)" fill="#343a40"/>
<use data-text="a" xlink:href="#font_1_68" transform="matrix(10.9389719,0,0,-10.9389719,103.41781,42.04608)" fill="#343a40"/>
<use data-text="s" xlink:href="#font_1_86" transform="matrix(10.9389719,0,0,-10.9389719,108.98574,42.04608)" fill="#343a40"/>
<use data-text="e" xlink:href="#font_1_72" transform="matrix(10.9389719,0,0,-10.9389719,113.339458,42.04608)" fill="#343a40"/>
<use data-text="n" xlink:href="#font_1_81" transform="matrix(10.9389719,0,0,-10.9389719,121.90468,42.04608)" fill="#343a40"/>
<use data-text="o" xlink:href="#font_1_82" transform="matrix(10.9389719,0,0,-10.9389719,128.10709,42.04608)" fill="#343a40"/>
<use data-text="u" xlink:href="#font_1_88" transform="matrix(10.9389719,0,0,-10.9389719,134.05788,42.04608)" fill="#343a40"/>
<use data-text="n" xlink:href="#font_1_81" transform="matrix(10.9389719,0,0,-10.9389719,140.28215,42.04608)" fill="#343a40"/>
<use data-text="&#x201c;" xlink:href="#font_1_180" transform="matrix(16.408476,0,0,-16.408476,5.4680407,69.12642)" fill="#343a40"/>
<use data-text="S" xlink:href="#font_1_54" transform="matrix(16.408476,0,0,-16.408476,12.901081,69.12642)" fill="#343a40"/>
<use data-text="h" xlink:href="#font_1_75" transform="matrix(16.408476,0,0,-16.408476,21.449896,69.12642)" fill="#343a40"/>
<use data-text="e" xlink:href="#font_1_72" transform="matrix(16.408476,0,0,-16.408476,30.86836,69.12642)" fill="#343a40"/>
<use data-text="s" xlink:href="#font_1_86" transform="matrix(16.408476,0,0,-16.408476,43.716199,69.12642)" fill="#343a40"/>
<use data-text="t" xlink:href="#font_1_87" transform="matrix(16.408476,0,0,-16.408476,50.24677,69.12642)" fill="#343a40"/>
<use data-text="a" xlink:href="#font_1_68" transform="matrix(16.408476,0,0,-16.408476,55.82565,69.12642)" fill="#343a40"/>
<use data-text="y" xlink:href="#font_1_92" transform="matrix(16.408476,0,0,-16.408476,63.701719,69.12642)" fill="#343a40"/>
<use data-text="e" xlink:href="#font_1_72" transform="matrix(16.408476,0,0,-16.408476,72.16849,69.12642)" fill="#343a40"/>
<use data-text="d" xlink:href="#font_1_71" transform="matrix(16.408476,0,0,-16.408476,80.20865,69.12642)" fill="#343a40"/>
<use data-text="q" xlink:href="#font_1_84" transform="matrix(16.408476,0,0,-16.408476,94.2543,69.12642)" fill="#343a40"/>
<use data-text="u" xlink:href="#font_1_88" transform="matrix(16.408476,0,0,-16.408476,103.26255,69.12642)" fill="#343a40"/>
<use data-text="i" xlink:href="#font_1_76" transform="matrix(16.408476,0,0,-16.408476,112.598979,69.12642)" fill="#343a40"/>
<use data-text="e" xlink:href="#font_1_72" transform="matrix(16.408476,0,0,-16.408476,117.57075,69.12642)" fill="#343a40"/>
<use data-text="t" xlink:href="#font_1_87" transform="matrix(16.408476,0,0,-16.408476,125.61089,69.12642)" fill="#343a40"/>
<use data-text="f" xlink:href="#font_1_73" transform="matrix(16.408476,0,0,-16.408476,135.99747,69.12642)" fill="#343a40"/>
<use data-text="r" xlink:href="#font_1_85" transform="matrix(16.408476,0,0,-16.408476,141.34664,69.12642)" fill="#343a40"/>
<use data-text="o" xlink:href="#font_1_82" transform="matrix(16.408476,0,0,-16.408476,147.76235,69.12642)" fill="#343a40"/>
<use data-text="m" xlink:href="#font_1_80" transform="matrix(16.408476,0,0,-16.408476,156.68856,69.12642)" fill="#343a40"/>
<use data-text="f" xlink:href="#font_1_73" transform="matrix(16.408476,0,0,-16.408476,175.44344,69.12642)" fill="#343a40"/>
<use data-text="e" xlink:href="#font_1_72" transform="matrix(16.408476,0,0,-16.408476,180.7926,69.12642)" fill="#343a40"/>
<use data-text="a" xlink:href="#font_1_68" transform="matrix(16.408476,0,0,-16.408476,188.83275,69.12642)" fill="#343a40"/>
<use data-text="r" xlink:href="#font_1_85" transform="matrix(16.408476,0,0,-16.408476,197.18466,69.12642)" fill="#343a40"/>
<use data-text="o" xlink:href="#font_1_82" transform="matrix(16.408476,0,0,-16.408476,208.40807,69.12642)" fill="#343a40"/>
<use data-text="f" xlink:href="#font_1_73" transform="matrix(16.408476,0,0,-16.408476,217.33428,69.12642)" fill="#343a40"/>
<use data-text="t" xlink:href="#font_1_87" transform="matrix(16.408476,0,0,-16.408476,227.49112,69.12642)" fill="#343a40"/>
<use data-text="h" xlink:href="#font_1_75" transform="matrix(16.408476,0,0,-16.408476,233.00438,69.12642)" fill="#343a40"/>
<use data-text="a" xlink:href="#font_1_68" transform="matrix(16.408476,0,0,-16.408476,242.42285,69.12642)" fill="#343a40"/>
<use data-text="t" xlink:href="#font_1_87" transform="matrix(16.408476,0,0,-16.408476,250.77477,69.12642)" fill="#343a40"/>
<use data-text="h" xlink:href="#font_1_75" transform="matrix(16.408476,0,0,-16.408476,261.1449,69.12642)" fill="#343a40"/>
<use data-text="e" xlink:href="#font_1_72" transform="matrix(16.408476,0,0,-16.408476,270.56336,69.12642)" fill="#343a40"/>
<use data-text="b" xlink:href="#font_1_69" transform="matrix(16.408476,0,0,-16.408476,283.4112,69.12642)" fill="#343a40"/>
<use data-text="e" xlink:href="#font_1_72" transform="matrix(16.408476,0,0,-16.408476,292.5179,69.12642)" fill="#343a40"/>
<use data-text="a" xlink:href="#font_1_68" transform="matrix(16.408476,0,0,-16.408476,305.36576,69.12642)" fill="#343a40"/>
<use data-text="n" xlink:href="#font_1_81" transform="matrix(16.408476,0,0,-16.408476,313.71769,69.12642)" fill="#343a40"/>
<use data-text="g" xlink:href="#font_1_74" transform="matrix(16.408476,0,0,-16.408476,323.02128,69.12642)" fill="#343a40"/>
<use data-text="r" xlink:href="#font_1_85" transform="matrix(16.408476,0,0,-16.408476,331.63575,69.12642)" fill="#343a40"/>
<use data-text="y" xlink:href="#font_1_92" transform="matrix(16.408476,0,0,-16.408476,338.05146,69.12642)" fill="#343a40"/>
<use data-text="a" xlink:href="#font_1_68" transform="matrix(16.408476,0,0,-16.408476,351.55564,69.12642)" fill="#343a40"/>
<use data-text="t" xlink:href="#font_1_87" transform="matrix(16.408476,0,0,-16.408476,359.90757,69.12642)" fill="#343a40"/>
<use data-text="h" xlink:href="#font_1_75" transform="matrix(16.408476,0,0,-16.408476,370.29414,69.12642)" fill="#343a40"/>
<use data-text="e" xlink:href="#font_1_72" transform="matrix(16.408476,0,0,-16.408476,379.7126,69.12642)" fill="#343a40"/>
<use data-text="r" xlink:href="#font_1_85" transform="matrix(16.408476,0,0,-16.408476,387.75276,69.12642)" fill="#343a40"/>
<use data-text="." xlink:href="#font_1_17" transform="matrix(16.408476,0,0,-16.408476,393.21678,69.12642)" fill="#343a40"/>
<use data-text="&#x201d;" xlink:href="#font_1_181" transform="matrix(16.408476,0,0,-16.408476,396.2195,69.12642)" fill="#343a40"/>
</svg>
