<svg xmlns="http://www.w3.org/2000/svg" xmlns:xlink="http://www.w3.org/1999/xlink" xmlns:inkscape="http://www.inkscape.org/namespaces/inkscape" version="1.1" width="292.97895" height="76.7118" viewBox="0 0 292.97895 76.7118">
<defs>
<path id="font_1_17" d="M.19580078 .05517578C.19580078 .036621095 .18912761 .020751954 .17578125 .0075683596 .16243489-.0056152346 .14648438-.012207031 .12792969-.012207031 .109375-.012207031 .09358724-.0056152346 .080566409 .0075683596 .06754557 .020751954 .061035158 .036621095 .061035158 .05517578 .061035158 .073404949 .06754557 .08911133 .080566409 .10229492 .09358724 .115478519 .109375 .12207031 .12792969 .12207031 .14648438 .12207031 .16243489 .115478519 .17578125 .10229492 .18912761 .08911133 .19580078 .073404949 .19580078 .05517578Z"/>
<path id="font_2_677" d="M.0703125 .70751956C.059244794 .7159831 .049804689 .7257487 .041992189 .7368164 .034179689 .7478841 .030273438 .7630208 .030273438 .78222659 .030273438 .8102214 .039957685 .8331706 .059326173 .8510742 .078694667 .86897787 .100748699 .8779297 .12548828 .8779297 .14697266 .8779297 .16666667 .8727214 .18457031 .8623047L.1850586 .81396487C.17496746 .81917318 .16552735 .8224284 .15673828 .82373049 .14794922 .82503256 .1398112 .8256836 .13232422 .8256836 .11832682 .8256836 .10538737 .82145187 .09350586 .8129883 .08162435 .8045247 .075683597 .79215499 .075683597 .7758789 .07600912 .7657878 .08113607 .75594076 .09106445 .7463379 .100992839 .73673507 .11507162 .73323568 .13330078 .73583987 .13395183 .73583987 .13468425 .7360026 .13549805 .7363281 .13631185 .7366536 .13720703 .7369792 .1381836 .7373047L.20263672 .7607422 .20947266 .71240237 .0234375 .6386719 .016601563 .68652346 .0703125 .70751956M.15722656 .6088867V.00048828127H.07470703V.6088867H.15722656Z"/>
<path id="font_2_728" d="M.03173828 .5571289V.6035156L.2397461 .68847659V.64208987L.03173828 .5571289Z"/>
<path id="font_2_719" d="M.3305664 .41455079 .4013672 .34375 .3305664 .27294923 .25976563 .34375 .3305664 .41455079M.33642579-.12792969C.39078776-.12792969 .43286134-.11905924 .46264649-.10131836 .49243165-.08357748 .51326498-.060302736 .5251465-.03149414 .537028-.0026855469 .54296877 .028157553 .54296877 .061035158 .54296877 .09977213 .53776046 .13802083 .52734377 .17578125 .51692709 .21354167 .50716146 .24446614 .49804688 .2685547L.58154299 .3022461C.59684249 .2602539 .6084798 .21948242 .6164551 .17993164 .62443038 .14038086 .62841799 .10270182 .62841799 .06689453 .62841799 .011881511 .6182454-.036946615 .5979004-.079589847 .57755538-.12223307 .54589846-.15559896 .5029297-.1796875 .45996095-.20377605 .40445964-.21582031 .33642579-.21582031 .26611329-.21582031 .20987956-.20296224 .16772461-.1772461 .12556966-.15152996 .09513346-.11726888 .076416019-.07446289 .057698568-.031656904 .048339845 .0152994799 .048339845 .06640625 .048339845 .10091146 .051920576 .13631185 .05908203 .17260742 .06624349 .208903 .07600912 .24430339 .088378909 .2788086L.16601563 .2475586C.15657552 .21761067 .14860027 .18684896 .14208985 .15527344 .13557942 .123697917 .13232422 .09309896 .13232422 .06347656 .13232422 .028320313 .1385905-.0037434896 .15112305-.032714845 .1636556-.0616862 .18473308-.08479818 .21435547-.10205078 .24397786-.11930338 .28466798-.12792969 .33642579-.12792969Z"/>
<path id="font_2_737" d="M.020507813 .5673828C.020507813 .5908203 .028889975 .6110026 .045654298 .6279297 .06241862 .64485678 .08251953 .6533203 .10595703 .6533203 .12939453 .6533203 .14949544 .64485678 .16625977 .6279297 .1830241 .6110026 .19140625 .5908203 .19140625 .5673828 .19140625 .5439453 .1830241 .5238444 .16625977 .5070801 .14949544 .49031578 .12939453 .4819336 .10595703 .4819336 .08251953 .4819336 .06241862 .49031578 .045654298 .5070801 .028889975 .5238444 .020507813 .5439453 .020507813 .5673828M.059570314 .5673828C.059570314 .554362 .06404623 .54345706 .07299805 .53466799 .08194987 .5258789 .092936199 .5214844 .10595703 .5214844 .11897787 .5214844 .12988281 .5258789 .13867188 .53466799 .14746094 .54345706 .15185547 .554362 .15185547 .5673828 .15185547 .5804036 .14746094 .5914714 .13867188 .60058596 .12988281 .6097005 .11897787 .6142578 .10595703 .6142578 .092936199 .6142578 .08194987 .6097005 .07299805 .60058596 .06404623 .5914714 .059570314 .5804036 .059570314 .5673828Z"/>
<path id="font_2_1285" d="M-.0107421879 .08886719H.095214847C.12776692 .08886719 .14982097 .09830729 .16137696 .1171875 .17293294 .1360677 .17871094 .15999349 .17871094 .18896485 .17871094 .2101237 .17675781 .23274739 .17285156 .25683595 .16894531 .28092448 .16471355 .30517579 .16015625 .32958985L.24511719 .35107423C.25065104 .32503257 .25504557 .29947917 .25830079 .27441407 .261556 .24934896 .2631836 .22542317 .2631836 .20263672 .2631836 .16357422 .2578125 .12874349 .24707031 .09814453 .23632813 .06754557 .21875 .04353841 .19433594 .026123047 .16992188 .008707683 .13720703 0 .096191409 0H-.0107421879V.08886719M.16552735-.07763672 .23388672-.14550781 .16552735-.21435547 .09765625-.14550781 .16552735-.07763672M.0034179688-.07763672 .071777347-.14550781 .0034179688-.21435547-.064453128-.14550781 .0034179688-.07763672Z"/>
<path id="font_2_1163" d="M.0703125 .70751956C.059244794 .7159831 .049804689 .7257487 .041992189 .7368164 .034179689 .7478841 .030273438 .7630208 .030273438 .78222659 .030273438 .8102214 .039957685 .8331706 .059326173 .8510742 .078694667 .86897787 .100748699 .8779297 .12548828 .8779297 .14697266 .8779297 .16666667 .8727214 .18457031 .8623047L.1850586 .81396487C.17496746 .81917318 .16552735 .8224284 .15673828 .82373049 .14794922 .82503256 .1398112 .8256836 .13232422 .8256836 .11832682 .8256836 .10538737 .82145187 .09350586 .8129883 .08162435 .8045247 .075683597 .79215499 .075683597 .7758789 .07600912 .7657878 .08113607 .75594076 .09106445 .7463379 .100992839 .73673507 .11507162 .73323568 .13330078 .73583987 .13395183 .73583987 .13468425 .7360026 .13549805 .7363281 .13631185 .7366536 .13720703 .7369792 .1381836 .7373047L.20263672 .7607422 .20947266 .71240237 .0234375 .6386719 .016601563 .68652346 .0703125 .70751956M.07470703 .6088867H.15722656V.2055664C.15722656 .15966797 .16569011 .12874349 .18261719 .11279297 .19954427 .096842449 .22509766 .08886719 .25927735 .08886719H.27148438V0H.25927735C.19710286 0 .15079753 .016438803 .12036133 .049316408 .08992513 .08219401 .07470703 .13427735 .07470703 .2055664V.6088867Z"/>
<path id="font_2_1258" d="M.107421878 .4736328C.13574219 .45377604 .16520183 .43286134 .19580078 .41088868 .22639974 .38891603 .2549642 .36547853 .28149415 .34057618 .30802409 .31567384 .32950846 .2891439 .34594728 .26098634 .36238609 .23282878 .37060548 .20279949 .37060548 .17089844 .37027995 .11035156 .34936524 .06673177 .30786134 .040039064 .26635743 .0133463549 .20019531 0 .109375 0H-.009765625V.08886719H.10888672C.17203777 .08886719 .21728516 .09448242 .2446289 .10571289 .27197267 .11694336 .28564454 .13932292 .28564454 .17285156 .28564454 .19433594 .27807618 .21533203 .26293946 .23583985 .24780274 .25634767 .22827149 .27661134 .2043457 .29663087 .18041992 .3166504 .15478516 .3363444 .1274414 .3557129 .100097659 .3750814 .07438151 .39420573 .05029297 .41308595 .0398763 .42154948 .031901044 .43147788 .026367188 .4428711 .020833334 .4542643 .018066407 .46565757 .018066407 .47705079 .018066407 .49039714 .021728516 .50301107 .029052735 .5148926 .036376954 .5267741 .047851564 .5358073 .06347656 .5419922L.41455079 .6845703V.59814456L.107421878 .4736328Z"/>
<path id="font_2_730" d="M.22460938 .52197268C.21777344 .52229818 .21191406 .5227051 .20703125 .52319338 .20214844 .52368167 .19645183 .5242513 .1899414 .52490237 .15673828 .47867839 .09863281 .45328776 .015625 .44873048L.009277344 .48632813C.041829427 .4892578 .07063802 .4947103 .095703128 .50268557 .12076823 .5106608 .13916016 .5208333 .1508789 .5332031 .12809246 .53483077 .10709635 .5423177 .087890628 .55566409 .0686849 .56901046 .05908203 .58968099 .05908203 .6176758 .05908203 .63948568 .06673177 .6582845 .08203125 .67407229 .09733073 .68986007 .11653646 .6977539 .13964844 .6977539 .16276042 .6977539 .18196614 .6903483 .19726563 .6755371 .21256511 .6607259 .22021485 .64127609 .22021485 .6171875 .22021485 .5989583 .21582031 .5789388 .20703125 .5571289 .21158855 .55647787 .21875 .55566409 .22851563 .5546875L.22460938 .52197268M.16796875 .5649414C.17154949 .5730794 .17464192 .5817871 .1772461 .59106448 .17985027 .6003418 .18115235 .6088867 .18115235 .6166992 .18115235 .62906906 .17732747 .6389974 .16967774 .6464844 .162028 .6539714 .15266927 .65771487 .14160156 .65771487 .12890625 .65771487 .11857096 .6533203 .1105957 .64453127 .102620448 .6357422 .09863281 .62613937 .09863281 .61572268 .09863281 .5991211 .10555013 .5875651 .119384769 .5810547 .1332194 .57454428 .14941406 .56917318 .16796875 .5649414Z"/>
<path id="font_2_1261" d="M.3071289-.2421875C.24658203-.2421875 .19726563-.23136394 .15917969-.2097168 .12109375-.18806966 .09309896-.15787761 .07519531-.119140628 .057291669-.08040365 .048339845-.03548177 .048339845 .015625 .048339845 .050130208 .051920576 .0855306 .05908203 .12182617 .06624349 .15812175 .07600912 .19352214 .088378909 .22802735L.16601563 .19677735C.15657552 .16682942 .14860027 .1360677 .14208985 .10449219 .13557942 .072916667 .13232422 .042317708 .13232422 .0126953129 .13232422-.040039064 .14575196-.08105469 .17260742-.11035156 .19946289-.13964844 .24430339-.15429688 .3071289-.15429688 .36539714-.15429688 .40926109-.13834636 .4387207-.10644531 .46818034-.07454427 .48291017-.023111979 .48291017 .047851564V.6723633H.5654297V.19970703C.5654297 .1632487 .57218429 .13566081 .58569338 .11694336 .59920248 .098225917 .62565109 .08886719 .66503909 .08886719H.6796875V0H.6660156C.6373698 0 .616862 .0028483074 .6044922 .008544922 .5921224 .014241536 .5789388 .023763022 .5649414 .037109376 .5649414-.055989583 .54296877-.1258138 .49902345-.17236328 .45507813-.21891277 .39111329-.2421875 .3071289-.2421875Z"/>
<path id="font_2_781" d="M.15722656 .6088867V.00048828127H.07470703V.6088867H.15722656M-.025390625 .6904297-.016601563 .73095706C-.012369792 .7273763-.006754557 .72281906 .00024414063 .71728518 .0072428386 .7117513 .013671875 .70784506 .01953125 .7055664 .045898439 .7501628 .069742839 .7821452 .09106445 .8015137 .11238607 .82088217 .13590496 .8305664 .1616211 .8305664 .18766277 .8305664 .20898438 .8224284 .22558594 .80615237 .2421875 .7898763 .25048829 .76953127 .25048829 .7451172 .25048829 .7125651 .23909505 .6897786 .2163086 .6767578 .19352214 .663737 .15413411 .65722659 .09814453 .65722659H.0859375C.056640626 .65722659 .032552083 .6599121 .013671875 .6652832-.0052083337 .6706543-.018229166 .67903646-.025390625 .6904297M.09716797 .69921877C.13916016 .69921877 .16837566 .7020671 .18481446 .7077637 .20125325 .71346029 .20947266 .72526046 .20947266 .74316409 .20947266 .7558594 .20532227 .7664388 .19702149 .77490237 .1887207 .7833659 .17773438 .78759768 .1640625 .78759768 .14615886 .78759768 .13004558 .7809245 .115722659 .7675781 .10139974 .75423178 .08382162 .7314453 .06298828 .69921877H.09716797Z"/>
<path id="font_2_1262" d="M-.009765625 .08886719H.03125C.0703125 .08886719 .09667969 .0999349 .11035156 .12207031 .12402344 .14420574 .13085938 .171875 .13085938 .20507813V.6723633H.2133789V.2055664C.2133789 .13785808 .19873047 .08666992 .1694336 .052001954 .14013672 .017333985 .09391276 0 .030761719 0H-.009765625V.08886719Z"/>
<path id="font_2_1235" d="M.4140625 .3935547C.45084635 .3935547 .48347984 .38549806 .5119629 .36938478 .540446 .35327149 .5628255 .33138023 .57910159 .30371095 .5953776 .27604167 .6035156 .24479167 .6035156 .20996094 .6031901 .16829427 .5904948 .13102214 .5654297 .09814453 .57454428 .09586588 .5868327 .09375 .6022949 .091796878 .61775717 .08984375 .6402995 .08886719 .6699219 .08886719H.6845703V0H.67041018C.62906906 0 .5949707 .004231771 .56811526 .0126953129 .54125979 .021158854 .51871749 .032877607 .5004883 .047851564 .47379557 .032877607 .4386393 .021158854 .39501954 .0126953129 .35139976 .004231771 .30078126 0 .24316406 0H-.009765625V.08886719H.07324219C.079427089 .09928385 .0859375 .10961914 .09277344 .11987305 .099609378 .13012696 .10611979 .14029949 .11230469 .15039063V.6723633H.19482422V.26660157C.22998047 .30891929 .26538087 .34065757 .3010254 .3618164 .33666993 .38297526 .37434898 .3935547 .4140625 .3935547M.41601563 .3046875C.33789063 .3046875 .25325523 .23274739 .16210938 .08886719H.24121094C.33398438 .08886719 .40315757 .09814453 .44873048 .11669922 .49430339 .1352539 .51708987 .16471355 .51708987 .20507813 .51708987 .23372396 .5078125 .25748698 .4892578 .2763672 .47070313 .2952474 .44628907 .3046875 .41601563 .3046875Z"/>
<path id="font_2_735" d="M.03564453 .6582031V.70458987L.24316406 .7895508V.74316409L.03564453 .6582031M.16894531 .6357422C.16959636 .6223958 .17048645 .6086426 .1716156 .5944824 .17274475 .58032229 .17597454 .56852218 .18130493 .55908206 .18664551 .5496419 .19593811 .5449219 .20918274 .5449219 .22017925 .5449219 .22761536 .5491536 .23149109 .5576172 .23536682 .56608077 .23730469 .57633468 .23730469 .5883789 .23730469 .5991211 .2363332 .61002609 .23439026 .62109377 .23245748 .63216146 .23051961 .6422526 .22857666 .6513672L.27294923 .66015627C.27913413 .63932296 .28222657 .6180013 .28222657 .5961914 .28222657 .56722006 .27638755 .54386398 .26470948 .52612307 .2530416 .50838217 .23423767 .49951173 .20829773 .49951173 .20019023 .49951173 .1909434 .5013835 .18055725 .50512698 .17018128 .5088704 .16159058 .51627609 .15478516 .52734377 .14990235 .508138 .1402181 .4950358 .12573242 .4880371 .11124674 .48103843 .096354167 .47753907 .08105469 .47753907 .057291669 .47753907 .0398763 .4860026 .028808594 .5029297 .017740885 .51985678 .012207031 .54052737 .012207031 .5649414 .012207031 .5808919 .014485677 .59765627 .019042969 .6152344L.05859375 .6088867C.055338544 .59521487 .053710939 .58235678 .053710939 .5703125 .053710939 .55826827 .056070966 .54785159 .060791017 .5390625 .06551107 .53027346 .07421875 .5258789 .08691406 .5258789 .108072917 .5258789 .12044271 .53344729 .12402344 .548584 .12760417 .5637207 .12939453 .5864258 .12939453 .6166992L.12890625 .6308594 .16894531 .6357422Z"/>
<path id="font_2_1243" d="M.30371095 .38183595C.32877604 .38183595 .35465495 .37980143 .38134767 .37573243 .40804038 .37166343 .43286134 .3658854 .45581056 .35839845 .47875978 .35091148 .49739585 .34179688 .51171877 .3310547 .5260417 .3203125 .5332031 .30826823 .5332031 .29492188 .5332031 .28548179 .52823898 .27246095 .51831057 .25585938 .50838217 .23925781 .49568687 .22135417 .4802246 .20214844 .46476237 .1829427 .44856773 .1644694 .43164063 .14672852 .41471354 .12898763 .3992513 .11393229 .3852539 .1015625 .40804038 .095703128 .4296875 .0921224 .4501953 .09082031 .47070313 .08951823 .4892578 .08886719 .5058594 .08886719H.58203127V0H.50634768C.47216798 0 .43806968 .0040690104 .40405274 .012207031 .3700358 .020345053 .33658854 .033854169 .30371095 .052734376 .28222657 .040364583 .2574056 .030273438 .22924805 .022460938 .2010905 .0146484379 .17277019 .008951823 .14428711 .0053710939 .11580404 .0017903646 .09016927 0 .06738281 0H-.009765625V.08886719H.067871097C.078938808 .08886719 .09383138 .08911133 .11254883 .08959961 .13126628 .09008789 .15063477 .09122721 .1706543 .09301758 .19067383 .094807948 .20817058 .09765625 .22314453 .1015625 .20914714 .11393229 .19368489 .12898763 .17675781 .14672852 .15983074 .1644694 .14363607 .1829427 .12817383 .20214844 .112711589 .22135417 .0999349 .23925781 .08984375 .25585938 .0797526 .27246095 .07470703 .28548179 .07470703 .29492188 .07470703 .30826823 .08170573 .3203125 .095703128 .3310547 .10970052 .34179688 .12817383 .35091148 .15112305 .35839845 .17407227 .3658854 .19889324 .37166343 .22558594 .37573243 .25227867 .37980143 .2783203 .38183595 .30371095 .38183595M.30371095 .29785157C.2890625 .29785157 .2681478 .29671226 .2409668 .2944336 .21378581 .29215495 .18815105 .28694663 .1640625 .2788086 .18522136 .25211589 .20654297 .22819011 .22802735 .20703125 .24951172 .18587239 .26749674 .16902669 .28198243 .15649414L.30371095 .13769531 .3256836 .15649414C.34033204 .16902669 .3585612 .18587239 .3803711 .20703125 .402181 .22819011 .4235026 .25211589 .44433595 .2788086 .4202474 .28694663 .39453126 .29215495 .3671875 .2944336 .33984376 .29671226 .3186849 .29785157 .30371095 .29785157Z"/>
<path id="font_2_1173" d="M.07470703 .6723633H.15722656V.2055664C.15722656 .15966797 .16569011 .12874349 .18261719 .11279297 .19954427 .096842449 .22509766 .08886719 .25927735 .08886719H.27148438V0H.25927735C.19710286 0 .15079753 .016520182 .12036133 .049560548 .08992513 .082600917 .07470703 .13476563 .07470703 .20605469V.6723633Z"/>
<path id="font_2_718" d="M.17382813 .1459961C.1920573 .20947266 .21590169 .25935874 .24536133 .2956543 .27482096 .33194987 .31510417 .35009767 .36621095 .35009767 .40071617 .35009767 .43147788 .3413086 .4584961 .32373048 .4855143 .30615235 .5069173 .28198243 .5227051 .2512207 .53849288 .22045899 .5463867 .1850586 .5463867 .14501953 .5463867 .10107422 .53426107 .06461588 .51000979 .03564453 .48575846 .0066731774 .4482422-.0078125 .39746095-.0078125 .37825523-.0078125 .35880534-.0047200524 .33911134 .0014648438 .31941734 .0076497399 .3005371 .014729817 .2824707 .022705079 .2644043 .030680338 .24788411 .037760419 .23291016 .043945314 .2179362 .050130208 .20540364 .053222658 .1953125 .053222658 .17708333 .053222658 .16333008 .047281904 .15405274 .03540039 .14477539 .02351888 .1385905 .0034179688 .13549805-.024902344 .1324056-.053222658 .13085938-.092447917 .13085938-.14257813 .13085938-.16471355 .13110352-.18448894 .1315918-.2019043 .13208008-.21931966 .13289388-.23649089 .1340332-.25341798 .13517253-.27034507 .13639324-.28955079 .13769531-.31103517H.053710939C.052083333-.28108726 .05078125-.25301109 .049804689-.22680664 .048828126-.20060222 .048339845-.17415364 .048339845-.14746094 .048339845-.1110026 .049397787-.07633463 .051513673-.04345703 .05362956-.010579427 .05867513 .01912435 .06665039 .045654298 .07462565 .07218424 .08707682 .0941569 .104003909 .111572269 .12093099 .12898763 .14420574 .14046224 .17382813 .1459961M.4638672 .14550781C.4638672 .17903646 .45491538 .20711263 .43701173 .22973633 .41910807 .25236003 .39615885 .26367188 .36816407 .26367188 .34798179 .26367188 .33089195 .2574056 .31689454 .24487305 .30289714 .2323405 .29117839 .21590169 .28173829 .19555664 .2722982 .1752116 .2639974 .15348308 .25683595 .1303711 .29231773 .114746097 .32185874 .10245768 .34545899 .09350586 .36905924 .08455404 .38671876 .080078128 .3984375 .080078128 .4202474 .080078128 .43660484 .08601888 .44750978 .09790039 .4584147 .1097819 .4638672 .12565105 .4638672 .14550781Z"/>
<path id="font_2_691" d="M.022949219-.2626953-.005859375-.1850586C.07356771-.16780599 .1295573-.13761394 .16210938-.09448242 .19466146-.05135091 .2109375-.00032552085 .2109375 .05859375 .2109375 .08626302 .20792644 .11531576 .2019043 .14575196 .19588216 .17618816 .1875 .20719402 .17675781 .23876953L.2578125 .26611329C.28125 .19938152 .29296876 .13509114 .29296876 .07324219 .29296876 .018880209 .28344728-.03149414 .2644043-.07788086 .24536133-.12426758 .21590169-.1636556 .17602539-.19604492 .1361491-.22843425 .085123699-.25065104 .022949219-.2626953Z"/>
<path id="font_2_1246" d="M.2734375 .64990237 .34423829 .57910159 .2734375 .5083008 .20263672 .57910159 .2734375 .64990237M.14013672 .08886719C.12548828 .10709635 .11303711 .1294759 .1027832 .15600586 .0925293 .18253581 .087402347 .20914714 .087402347 .23583985 .087402347 .27067057 .09651693 .3022461 .114746097 .3305664 .13297527 .35888673 .15690105 .38134767 .18652344 .39794923 .21614583 .41455079 .24804688 .42285157 .28222657 .42285157 .33398438 .42285157 .3894857 .40266929 .44873048 .3623047L.41601563 .28955079C.36523438 .3194987 .32242839 .33447267 .28759767 .33447267 .25764976 .33447267 .2311198 .3251953 .20800781 .30664063 .18489583 .28808595 .17333985 .26334635 .17333985 .23242188 .17333985 .20833333 .17879232 .18701172 .18969727 .16845703 .20060222 .14990235 .21223958 .13549805 .22460938 .12524414 .23697917 .114990238 .24527996 .10986328 .24951172 .10986328 .2553711 .10986328 .26106773 .110677089 .26660157 .11230469L.47314454 .1616211V.072753909C.39208985 .048014326 .31713868 .029703776 .24829102 .017822266 .17944336 .0059407555 .11116537 0 .04345703 0H-.009765625V.08886719H.14013672Z"/>
<path id="font_2_731" d="M.028320313-.24658203V-.20019531L.23632813-.115234378V-.1616211L.028320313-.24658203Z"/>
<path id="font_2_1175" d="M.453125-.07470703 .5239258-.14550781 .453125-.2163086 .38232423-.14550781 .453125-.07470703M.7397461 .28857423 .82128909 .29833985 .82958987 .18408203C.83154299 .15315755 .8404134 .1295573 .8562012 .11328125 .87198898 .09700521 .8956706 .08886719 .9272461 .08886719H.93896487V0H.9272461C.8904622 0 .8602702 .006917318 .8366699 .020751954 .81306967 .03458659 .7936198 .056803388 .7783203 .087402347 .75130209 .056152345 .7167155 .033772787 .67456057 .020263672 .6324056 .006754557 .57389327 0 .49902345 0H.41748048C.29475913 0 .20255535 .016601563 .14086914 .049804689 .079182948 .08300781 .048339845 .14046224 .048339845 .22216797 .048339845 .2446289 .05086263 .26660157 .055908204 .28808595 .060953779 .3095703 .06754557 .33024089 .075683597 .35009767L.15136719 .32177735C.14615886 .30745445 .1418457 .29215495 .13842774 .2758789 .13500977 .25960288 .13330078 .24414063 .13330078 .22949219 .1336263 .19140625 .14436849 .16219075 .16552735 .1418457 .1866862 .12150065 .21826172 .10758463 .2602539 .100097659 .3022461 .09261068 .35465495 .08886719 .41748048 .08886719H.49902345C.57682296 .08886719 .6371257 .09700521 .67993167 .11328125 .7227376 .1295573 .7441406 .15917969 .7441406 .20214844 .7441406 .2154948 .7437337 .2298177 .7429199 .24511719 .74210616 .26041667 .74104818 .27490235 .7397461 .28857423Z"/>
<path id="font_2_1247" d="M.3022461 .61376956 .37304688 .54296877 .3022461 .47216798 .23144531 .54296877 .3022461 .61376956M.30371095 .38183595C.32877604 .38183595 .35465495 .37980143 .38134767 .37573243 .40804038 .37166343 .43286134 .3658854 .45581056 .35839845 .47875978 .35091148 .49739585 .34179688 .51171877 .3310547 .5260417 .3203125 .5332031 .30826823 .5332031 .29492188 .5332031 .28548179 .52823898 .27246095 .51831057 .25585938 .50838217 .23925781 .49568687 .22135417 .4802246 .20214844 .46476237 .1829427 .44856773 .1644694 .43164063 .14672852 .41471354 .12898763 .3992513 .11393229 .3852539 .1015625 .40804038 .095703128 .4296875 .0921224 .4501953 .09082031 .47070313 .08951823 .4892578 .08886719 .5058594 .08886719H.58203127V0H.50634768C.47216798 0 .43806968 .0040690104 .40405274 .012207031 .3700358 .020345053 .33658854 .033854169 .30371095 .052734376 .28222657 .040364583 .2574056 .030273438 .22924805 .022460938 .2010905 .0146484379 .17277019 .008951823 .14428711 .0053710939 .11580404 .0017903646 .09016927 0 .06738281 0H-.009765625V.08886719H.067871097C.078938808 .08886719 .09383138 .08911133 .11254883 .08959961 .13126628 .09008789 .15063477 .09122721 .1706543 .09301758 .19067383 .094807948 .20817058 .09765625 .22314453 .1015625 .20914714 .11393229 .19368489 .12898763 .17675781 .14672852 .15983074 .1644694 .14363607 .1829427 .12817383 .20214844 .112711589 .22135417 .0999349 .23925781 .08984375 .25585938 .0797526 .27246095 .07470703 .28548179 .07470703 .29492188 .07470703 .30826823 .08170573 .3203125 .095703128 .3310547 .10970052 .34179688 .12817383 .35091148 .15112305 .35839845 .17407227 .3658854 .19889324 .37166343 .22558594 .37573243 .25227867 .37980143 .2783203 .38183595 .30371095 .38183595M.30371095 .29785157C.2890625 .29785157 .2681478 .29671226 .2409668 .2944336 .21378581 .29215495 .18815105 .28694663 .1640625 .2788086 .18522136 .25211589 .20654297 .22819011 .22802735 .20703125 .24951172 .18587239 .26749674 .16902669 .28198243 .15649414L.30371095 .13769531 .3256836 .15649414C.34033204 .16902669 .3585612 .18587239 .3803711 .20703125 .402181 .22819011 .4235026 .25211589 .44433595 .2788086 .4202474 .28694663 .39453126 .29215495 .3671875 .2944336 .33984376 .29671226 .3186849 .29785157 .30371095 .29785157Z"/>
<path id="font_2_1302" d="M.2841797 .10107422C.30859376 .107910159 .33040367 .1184082 .34960938 .13256836 .3688151 .14672852 .3839518 .1673991 .39501954 .19458008 .40608726 .22176107 .4116211 .25846354 .4116211 .3046875V.6723633H.49414063V.2788086C.49414063 .21663411 .5016276 .1694336 .51660159 .13720703 .5315755 .10498047 .5576172 .08886719 .59472659 .08886719H.6123047V0H.5932617C.5496419 0 .5161133 .010498047 .49267579 .03149414 .46923829 .052490236 .45214845 .08170573 .44140626 .119140628 .4140625 .07877604 .37394206 .048828126 .32104493 .029296875 .2681478 .009765625 .20654297 0 .13623047 0 .12288412 0 .10921224 .00032552085 .095214847 .0009765625 .081217449 .0016276041 .06705729 .0026041668 .052734376 .00390625V.087890628C.072916667 .08658854 .09000651 .0855306 .104003909 .0847168 .118001308 .08390299 .1319987 .083496097 .1459961 .083496097 .15934246 .083496097 .17097982 .08357748 .1809082 .083740238 .1908366 .08390299 .19905599 .084635417 .2055664 .0859375L.19824219 .13012696C.19335938 .1595866 .18522136 .19946289 .17382813 .24975586 .16243489 .30004884 .14689128 .35677085 .12719727 .41992188 .10750326 .4830729 .082845058 .54817709 .053222658 .6152344L.12890625 .6503906C.15820313 .5810547 .18286133 .5136719 .20288086 .4482422 .22290039 .3828125 .2388509 .3239746 .25073243 .27172853 .26261393 .21948242 .27115885 .17797852 .2763672 .1472168L.2841797 .10107422Z"/>
<path id="font_2_1250" d="M.21289063 .7338867 .2836914 .66308596 .21289063 .59228518 .14208985 .66308596 .21289063 .7338867M.17578125 .08886719C.21256511 .08886719 .24226888 .09098307 .26489259 .095214847 .28751628 .09944662 .30411784 .108805339 .31469728 .123291019 .3252767 .13777669 .3305664 .16031902 .3305664 .19091797 .31461589 .18603516 .29842124 .18229167 .28198243 .1796875 .2655436 .17708333 .24788411 .17578125 .2290039 .17578125 .11832682 .17578125 .06298828 .2211914 .06298828 .31201173 .06298828 .34326173 .069254558 .37451173 .08178711 .40576173 .094319667 .43701173 .11279297 .46313478 .13720703 .48413087 .1616211 .50512698 .19124349 .515625 .22607422 .515625 .25797526 .515625 .2854004 .507487 .3083496 .49121095 .33129884 .4749349 .35017906 .4530436 .36499024 .4255371 .37980143 .3980306 .39078776 .36694337 .39794923 .3322754 .4051107 .29760743 .4086914 .2618815 .4086914 .22509766 .4086914 .17659505 .40437828 .13745117 .39575196 .107666019 .38712565 .07788086 .3733724 .05525716 .3544922 .039794923 .33561198 .024332682 .31103517 .013834636 .28076173 .008300781 .25048829 .002766927 .21354167 0 .16992188 0H-.009765625V.08886719H.17578125M.23583985 .25976563C.2508138 .25976563 .2657064 .26114909 .28051759 .26391603 .29532878 .26668296 .31022135 .27018229 .3251953 .27441407 .32259117 .29752604 .3177897 .32096354 .31079103 .34472657 .30379234 .3684896 .29345704 .38842774 .27978517 .40454103 .26611329 .4206543 .24788411 .42871095 .22509766 .42871095 .20491536 .42871095 .1887207 .42236329 .17651367 .40966798 .16430664 .39697267 .15551758 .38183595 .15014649 .3642578 .14477539 .3466797 .14208985 .33040367 .14208985 .3154297 .14208985 .29296876 .15014649 .27807618 .16625977 .27075196 .18237305 .26342774 .2055664 .25976563 .23583985 .25976563Z"/>
<path id="font_2_1284" d="M.33642579-.25146485C.26611329-.25146485 .20987956-.23860677 .16772461-.21289063 .12556966-.18717449 .09513346-.1529134 .076416019-.11010742 .057698568-.06730143 .048339845-.020345053 .048339845 .030761719 .048339845 .052897138 .050048829 .07845052 .053466798 .107421878 .056884767 .13639324 .06477865 .1694336 .07714844 .20654297L.15478516 .17773438C.14534505 .1451823 .13924153 .116373699 .13647461 .091308597 .13370769 .06624349 .13232422 .045084638 .13232422 .027832032 .13232422-.0073242189 .13850911-.03938802 .1508789-.068359378 .1632487-.09733073 .18432617-.12044271 .21411133-.13769531 .24389649-.15494792 .28466798-.16357422 .33642579-.16357422 .3852539-.16357422 .4271647-.15755208 .4621582-.14550781 .4971517-.13346355 .52400717-.119140628 .5427246-.10253906 .5614421-.0859375 .5708008-.07080078 .5708008-.057128908 .5708008-.041503908 .5640462-.028157553 .5505371-.017089844 .537028-.0060221354 .5151367-.00048828127 .48486329-.00048828127H.41259767C.40608726-.00048828127 .4013672 .0023600262 .3984375 .008056641 .3955078 .013753255 .39274089 .021158854 .39013673 .030273438L.37695313 .07714844C.3766276 .0797526 .37727867 .08227539 .37890626 .0847168 .38053385 .0871582 .38346354 .088378909 .3876953 .088378909H.6586914V-.00048828127H.6386719C.6435547-.010253906 .6467285-.01953125 .64819338-.028320313 .6496582-.037109376 .6503906-.046223958 .6503906-.055664064 .6503906-.07714844 .6441243-.099365238 .6315918-.12231445 .61905929-.14526367 .5998535-.1665039 .5739746-.18603516 .5480957-.2055664 .5154622-.22135417 .47607423-.23339844 .4366862-.2454427 .39013673-.25146485 .33642579-.25146485M.43066407-.3178711 .49902345-.3857422 .43066407-.45458985 .36279298-.3857422 .43066407-.3178711M.2685547-.3178711 .33691407-.3857422 .2685547-.45458985 .2006836-.3857422 .2685547-.3178711Z"/>
<path id="font_1_76" d="M.21777344 .64697268C.21777344 .6300456 .21191406 .6154785 .20019531 .6032715 .18847656 .59106448 .17415364 .58496096 .15722656 .58496096 .14029949 .58496096 .12573242 .59106448 .11352539 .6032715 .10131836 .6154785 .095214847 .6300456 .095214847 .64697268 .095214847 .6642253 .10131836 .67871096 .11352539 .6904297 .12573242 .70214846 .14029949 .7080078 .15722656 .7080078 .17415364 .7080078 .18847656 .70214846 .20019531 .6904297 .21191406 .67871096 .21777344 .6642253 .21777344 .64697268M.26904298 0H.034179689V.0390625L.08300781 .041992189C.09700521 .04296875 .104003909 .05029297 .104003909 .063964847V.42089845H.03515625V.4560547L.15722656 .49414063H.19677735V.063964847C.19677735 .05777995 .19881185 .052652997 .20288086 .048583986 .20694988 .044514974 .21191406 .042317708 .21777344 .041992189L.26904298 .0390625V0Z"/>
<path id="font_1_16" d="M.2758789 .203125H.043945314V.27783204H.2758789V.203125Z"/>
<path id="font_1_86" d="M.3491211 .35302735H.296875L.2890625 .42285157C.28190104 .4283854 .27132163 .43359376 .25732423 .43847657 .24332683 .44335938 .22851563 .44580079 .21289063 .44580079 .18554688 .44580079 .16520183 .43953453 .15185547 .42700196 .13850911 .4144694 .13183594 .3984375 .13183594 .37890626 .13183594 .36393229 .1352539 .35123698 .14208985 .3408203 .14892578 .33040367 .16048177 .3202311 .17675781 .31030274 .19303386 .30037437 .21516927 .28889976 .24316406 .2758789 .27799479 .25992839 .30680339 .24226888 .32958985 .22290039 .3523763 .2035319 .36376954 .17757161 .36376954 .14501953 .36376954 .09586588 .34684245 .057373048 .31298829 .029541016 .27913413 .0017089844 .23242188-.012207031 .17285156-.012207031 .14225261-.012207031 .11401367-.009033203 .088134769-.0026855469 .06225586 .0036621094 .044270833 .008951823 .034179689 .013183594V.1459961H.08496094L.09716797 .061035158C.10725912 .05452474 .11971029 .048258466 .13452149 .042236329 .14933269 .03621419 .1665039 .033203126 .18603516 .033203126 .21468099 .033203126 .2368164 .041178388 .2524414 .057128908 .2680664 .07307943 .2758789 .09098307 .2758789 .110839847 .2758789 .13688152 .2652181 .15730794 .24389649 .17211914 .22257488 .18693035 .19254558 .20361328 .1538086 .22216797 .11735026 .2397461 .08943685 .2578125 .07006836 .2763672 .05069987 .29492188 .041015626 .3191732 .041015626 .3491211 .041015626 .39371745 .056640626 .42903648 .087890628 .45507813 .119140628 .48111979 .16357422 .49414063 .2211914 .49414063 .25048829 .49414063 .27661134 .49145509 .29956056 .48608399 .32250978 .4807129 .33902995 .4757487 .3491211 .4711914V.35302735Z"/>
<path id="font_1_87" d="M.3330078 .020996094C.31966148 .013834636 .30037437 .0065104167 .27514649-.0009765625 .24991863-.008463542 .22428386-.012207031 .19824219-.012207031 .1608073-.012207031 .13354492-.0033365887 .11645508 .014404297 .099365238 .032145185 .09082031 .060709638 .09082031 .100097659V.4321289H.026855469V.46484376L.095214847 .4970703 .14013672 .60302737H.18408203V.4819336H.3251953V.4321289H.18408203V.15283203C.18408203 .11311849 .1907552 .08504232 .20410156 .068603519 .21744792 .052164716 .23746746 .043945314 .26416017 .043945314 .27848307 .043945314 .2919922 .045898439 .3046875 .049804689 .3173828 .053710939 .3268229 .057454427 .3330078 .061035158V.020996094Z"/>
<path id="font_1_68" d="M.4921875 0H.34423829L.3310547 .05908203C.31835938 .048990888 .30257163 .038411458 .2836914 .02734375 .2648112 .016276041 .24495442 .006917318 .2241211-.0007324219 .20328777-.008382161 .18326824-.012207031 .1640625-.012207031 .12792969-.012207031 .09724935-.00016276042 .072021488 .023925782 .04679362 .048014326 .034179689 .08105469 .034179689 .123046878 .034179689 .14160156 .037516279 .15885417 .044189454 .17480469 .05086263 .1907552 .064208988 .20597331 .084228519 .22045899 .10424805 .23494466 .1340332 .24910482 .17358399 .26293946 .21313477 .27677409 .265625 .29085288 .3310547 .30517579 .3310547 .30745445 .3310547 .31306968 .3310547 .32202149 .3310547 .3309733 .3310547 .339681 .3310547 .34814454 .3310547 .41389976 .29996745 .44677735 .23779297 .44677735 .22054036 .44677735 .20564778 .44514976 .19311524 .44189454 .18058269 .4386393 .171875 .43603517 .16699219 .43408204V.34716798H.09423828C.085123699 .34716798 .076660159 .34887696 .068847659 .35229493 .061035158 .3557129 .057128908 .36360679 .057128908 .37597657 .057128908 .4033203 .06754557 .42569987 .088378909 .44311524 .10921224 .4605306 .13566081 .47338868 .16772461 .48168946 .1997884 .48999024 .23225911 .49414063 .26513673 .49414063 .30647788 .49414063 .33854167 .48771159 .36132813 .47485353 .3841146 .46199546 .4000651 .44425456 .4091797 .42163087 .41829429 .39900718 .42285157 .37320964 .42285157 .34423829V.063964847C.42285157 .05777995 .42488609 .052652997 .42895509 .048583986 .43302409 .044514974 .43798829 .042317708 .44384767 .041992189L.4921875 .0390625V0M.3310547 .09423828V.26708985C.2861328 .25602214 .2504069 .24487305 .22387696 .23364258 .197347 .22241211 .17757161 .21118164 .16455078 .19995117 .15152996 .1887207 .14298503 .17732747 .13891602 .16577149 .134847 .1542155 .1328125 .14225261 .1328125 .12988281 .1328125 .109375 .1394043 .090413417 .15258789 .07299805 .16577149 .055582685 .1842448 .046875 .20800781 .046875 .22753906 .046875 .2491862 .052246095 .27294923 .06298828 .29671226 .07373047 .31608073 .08414713 .3310547 .09423828Z"/>
<path id="font_1_72" d="M.26611329-.012207031C.2257487-.012207031 .1879069-.0031738282 .15258789 .014892578 .11726888 .032958986 .08870443 .060384115 .06689453 .09716797 .045084638 .13395183 .034179689 .18017578 .034179689 .23583985 .034179689 .2879232 .044270833 .33333335 .064453128 .3720703 .084635417 .41080729 .112467449 .44083659 .14794922 .4621582 .18343099 .48347984 .22379558 .49414063 .26904298 .49414063 .33121745 .49414063 .3779297 .47485353 .4091797 .4362793 .4404297 .39770509 .4560547 .3486328 .4560547 .2890625 .4560547 .28580729 .4560547 .28149415 .4560547 .27612306 .4560547 .27075196 .45572917 .26578776 .45507813 .26123048H.13085938C.13085938 .23583985 .13354492 .2105306 .13891602 .18530274 .14428711 .16007488 .15332031 .13720703 .16601563 .11669922 .17871094 .096191409 .19580078 .0797526 .21728516 .06738281 .23876953 .05501302 .265625 .048828126 .29785157 .048828126 .3264974 .048828126 .3544108 .055419923 .3815918 .068603519 .4087728 .08178711 .43359376 .09586588 .4560547 .110839847V.049804689C.4280599 .032552083 .39786784 .017903647 .36547853 .005859375 .3330892-.006184896 .29996745-.012207031 .26611329-.012207031M.13623047 .30615235H.35595704V.328125C.35595704 .3610026 .34806315 .38867188 .3322754 .4111328 .31648765 .43359376 .2919922 .44482423 .25878907 .44482423 .22591146 .44482423 .19791667 .43245445 .17480469 .40771485 .1516927 .38297526 .13883464 .3491211 .13623047 .30615235Z"/>
<path id="font_1_73" d="M.38916017 .6767578C.38916017 .66341146 .38582359 .6529134 .3791504 .6452637 .3724772 .63761398 .36539714 .63216146 .35791017 .62890627 .3504232 .62565109 .3453776 .62369796 .34277345 .6230469L.25097657 .6879883C.23665364 .6805013 .2232259 .66536459 .21069336 .6425781 .19816081 .6197917 .19189453 .58496096 .19189453 .53808596V.4741211H.31591798V.42285157H.19189453V.063964847C.19189453 .05777995 .19392903 .052652997 .19799805 .048583986 .20206706 .044514974 .20703125 .042317708 .21289063 .041992189L.27197267 .0390625V0H.028808594V.0390625L.078125 .041992189C.083984378 .042317708 .08894857 .044514974 .09301758 .048583986 .097086589 .052652997 .099121097 .05777995 .099121097 .063964847V.42285157H.03515625V.4580078L.099121097 .47607423C.099121097 .50895187 .10164388 .5362142 .10668945 .5578613 .11173502 .5795085 .12044271 .60221359 .1328125 .62597659 .15234375 .663737 .17749024 .6916504 .20825196 .7097168 .23901367 .7277832 .27067057 .7368164 .30322267 .7368164 .33154298 .7368164 .35294596 .7308757 .36743165 .71899417 .38191734 .7071126 .38916017 .6930339 .38916017 .6767578Z"/>
<path id="font_1_85" d="M.38085938 .3798828H.34179688C.33561198 .38736979 .3282064 .39379884 .31958009 .39916993 .31095378 .40454103 .30045573 .40722657 .28808595 .40722657 .2721354 .40722657 .25577799 .40169273 .23901367 .390625 .22224935 .37955729 .20524089 .36442057 .18798828 .34521485V.063964847C.18798828 .04996745 .19498699 .04264323 .20898438 .041992189L.27490235 .0390625V0H.024902344V.038085939L.07421875 .041992189C.080078128 .04264323 .08504232 .044921876 .08911133 .048828126 .093180339 .052734376 .095214847 .05777995 .095214847 .063964847V.4111328H.022949219V.44384767L.14697266 .4819336H.18798828V.3930664C.2163086 .425944 .2409668 .45100913 .2619629 .46826173 .28295899 .4855143 .3022461 .49414063 .31982423 .49414063 .33024089 .49414063 .34147135 .49251304 .35351563 .4892578 .3655599 .4860026 .37467448 .48258464 .38085938 .4790039V.3798828Z"/>
<path id="font_1_83" d="M.52490237 .24804688C.52490237 .19563802 .5148112 .14990235 .4946289 .110839847 .47444663 .071777347 .44547526 .041503908 .40771485 .020019532 .36995445-.0014648438 .32470704-.012207031 .27197267-.012207031 .2569987-.012207031 .2421875-.011230469 .22753906-.009277344 .21289063-.0073242189 .19807942-.0052083337 .18310547-.0029296876V-.15185547C.18310547-.15804036 .18522136-.16292317 .18945313-.1665039 .19368489-.17008464 .19889324-.17220052 .20507813-.17285156L.26416017-.17919922V-.21777344H.020996094V-.17919922L.068847659-.17285156C.082845058-.17122396 .08984375-.16422527 .08984375-.15185547V.4111328H.020996094V.44384767L.14404297 .4819336H.18310547V.4321289C.20589192 .44970704 .23046875 .46443687 .25683595 .47631837 .28320313 .48819987 .30891929 .49414063 .33398438 .49414063 .3684896 .49414063 .40014649 .4839681 .42895509 .46362306 .45776368 .44327799 .48095704 .41471354 .49853517 .3779297 .5161133 .34114585 .52490237 .29785157 .52490237 .24804688M.4248047 .23388672C.4248047 .26839195 .41951499 .29996745 .40893556 .32861329 .3983561 .35725913 .3827311 .3802897 .36206056 .39770509 .34138999 .41512046 .31575523 .42382813 .28515626 .42382813 .26822917 .42382813 .25065104 .4207357 .23242188 .41455079 .2141927 .40836589 .1977539 .40152995 .18310547 .39404298V.049804689C.21044922 .03938802 .23746746 .034179689 .26416017 .034179689 .300944 .034179689 .33113609 .043619794 .35473634 .0625 .37833659 .08138021 .3959147 .106038417 .4074707 .13647461 .4190267 .16691081 .4248047 .19938152 .4248047 .23388672Z"/>
<path id="font_1_82" d="M.5097656 .24023438C.5097656 .19303386 .5 .15030925 .48046876 .11206055 .4609375 .07381185 .4333496 .04353841 .39770509 .021240235 .36206056-.0010579428 .31982423-.012207031 .2709961-.012207031 .22249349-.012207031 .1805013-.0011393229 .14501953 .020996094 .10953776 .04313151 .08219401 .07324219 .06298828 .111328128 .04378255 .14941406 .034179689 .19238281 .034179689 .24023438 .034179689 .2877604 .043863935 .33072917 .06323242 .36914063 .082600917 .4075521 .11027018 .43798829 .14624024 .46044923 .18221028 .48291017 .22477214 .49414063 .27392579 .49414063 .32373048 .49414063 .36621095 .4827474 .4013672 .45996095 .43652345 .43717448 .4633789 .40657554 .4819336 .36816407 .5004883 .3297526 .5097656 .28710938 .5097656 .24023438M.40576173 .24121094C.40576173 .27766929 .4009603 .3116862 .39135743 .34326173 .38175456 .37483726 .3671061 .40039063 .3474121 .41992188 .3277181 .43945313 .30289714 .44921876 .27294923 .44921876 .24202474 .44921876 .2167155 .43945313 .19702149 .41992188 .17732747 .40039063 .16276042 .37483726 .15332031 .34326173 .1438802 .3116862 .13916016 .27766929 .13916016 .24121094 .13916016 .20507813 .1439616 .17114258 .15356446 .1394043 .16316732 .107666019 .17781575 .08203125 .19750977 .0625 .21720378 .04296875 .24202474 .033203126 .27197267 .033203126 .30257163 .033203126 .3277181 .04296875 .3474121 .0625 .3671061 .08203125 .38175456 .10758463 .39135743 .13916016 .4009603 .17073567 .40576173 .20475261 .40576173 .24121094Z"/>
<path id="font_1_81" d="M.546875 0H.32617188V.0390625L.36816407 .041992189C.37402345 .04264323 .37898765 .044921876 .38305665 .048828126 .38712565 .052734376 .38916017 .05777995 .38916017 .063964847V.32421876C.38916017 .35579429 .38183595 .37980143 .3671875 .39624024 .35253907 .41267906 .32779948 .42089845 .29296876 .42089845 .27408854 .42089845 .2552897 .4182129 .23657227 .4128418 .21785482 .4074707 .20003255 .40055339 .18310547 .39208985V.063964847C.18310547 .05029297 .19010417 .04296875 .20410156 .041992189L.24609375 .0390625V0H.020019532V.0390625L.068847659 .041992189C.082845058 .04296875 .08984375 .05029297 .08984375 .063964847V.4111328H.020019532V.44384767L.14208985 .4819336H.18310547V.4321289C.21110027 .44807945 .23982747 .46240235 .2692871 .47509767 .29874674 .48779298 .32503257 .49414063 .34814454 .49414063 .3917643 .49414063 .42496745 .48055015 .4477539 .45336915 .47054038 .42618815 .4819336 .38834635 .4819336 .33984376V.063964847C.4819336 .05777995 .4839681 .052734376 .4880371 .048828126 .4921061 .044921876 .4970703 .04264323 .5029297 .041992189L.546875 .0390625V0Z"/>
<path id="font_1_180" d="M.39208985 .70214846C.38264976 .69108077 .37141929 .6780599 .35839845 .66308596 .3453776 .648112 .33390299 .6312663 .3239746 .6125488 .31404624 .59383139 .30908204 .5732422 .30908204 .55078127 .30908204 .54752609 .30924479 .5440267 .3095703 .5402832 .30989585 .53653976 .3100586 .5333659 .3100586 .5307617H.37304688L.38061524 .5197754C.3856608 .5124512 .3881836 .5032552 .3881836 .4921875 .3881836 .4752604 .38264976 .46069337 .37158204 .44848634 .3605143 .4362793 .34602867 .43017579 .328125 .43017579 .30208335 .43017579 .28173829 .4388021 .26708985 .4560547 .2524414 .47330729 .24511719 .4962565 .24511719 .52490237 .24511719 .5489909 .24951172 .5710449 .25830079 .59106448 .26708985 .611084 .27775065 .62890627 .2902832 .64453127 .30281578 .66015627 .31510417 .67333987 .32714845 .68408206 .33919273 .6948242 .34847007 .703125 .35498048 .7089844L.39208985 .70214846M.18603516 .70214846C.16617839 .6822917 .14737956 .65966799 .12963867 .63427737 .11189779 .6088867 .103027347 .5807292 .103027347 .5498047 .103027347 .5465495 .1031901 .5432129 .103515628 .5397949 .10384115 .53637698 .104003909 .5333659 .104003909 .5307617H.16699219L.17456055 .5202637C.17960613 .51326498 .1821289 .50358077 .1821289 .49121095 .1821289 .47428385 .17667644 .45987956 .16577149 .44799806 .15486653 .43611656 .14029949 .43017579 .12207031 .43017579 .096354167 .43017579 .07609049 .43847657 .061279298 .45507813 .046468099 .4716797 .0390625 .49430339 .0390625 .5229492 .0390625 .5473633 .04345703 .56974288 .052246095 .5900879 .061035158 .6104329 .07169596 .6284993 .084228519 .6442871 .09676107 .6600749 .10904948 .67333987 .12109375 .68408206 .13313802 .6948242 .14241536 .703125 .14892578 .7089844L.18603516 .70214846Z"/>
<path id="font_1_55" d="M.5830078 .51123049H.5239258L.5097656 .60498049C.507487 .6163737 .5019531 .6220703 .49316407 .6220703H.35009767V.068847659C.35009767 .063964847 .35180665 .059244794 .3552246 .0546875 .35864259 .050130208 .36393229 .047526044 .37109376 .046875L.4350586 .04296875V0H.1640625V.04296875L.22802735 .046875C.2351888 .047526044 .24047852 .050130208 .24389649 .0546875 .24731446 .059244794 .24902344 .063964847 .24902344 .068847659V.6220703H.10498047C.094563808 .6220703 .08886719 .6163737 .087890628 .60498049L.07421875 .51123049H.016113282V.67089846H.5830078V.51123049Z"/>
<path id="font_1_75" d="M.55078127 0H.328125V.0390625L.36914063 .041992189C.375 .04264323 .38012696 .044921876 .38452149 .048828126 .38891603 .052734376 .39111329 .05777995 .39111329 .063964847V.32177735C.39111329 .3504232 .38427735 .37410484 .37060548 .39282228 .3569336 .4115397 .33072917 .42089845 .2919922 .42089845 .27441407 .42089845 .25545249 .4181315 .23510742 .41259767 .21476238 .4070638 .19742839 .40022788 .18310547 .39208985V.063964847C.18310547 .05029297 .18977864 .04296875 .203125 .041992189L.24609375 .0390625V0H.020996094V.0390625L.068847659 .041992189C.082845058 .04296875 .08984375 .05029297 .08984375 .063964847V.66503909H.015136719V.6982422L.1430664 .7368164H.18310547V.4321289C.19514974 .43961589 .21077474 .4481608 .22998047 .45776368 .2491862 .46736656 .2693685 .47583009 .29052735 .4831543 .3116862 .49047853 .33089195 .49414063 .34814454 .49414063 .386556 .49414063 .41878257 .48177085 .44482423 .45703126 .47086589 .43229167 .48388673 .39420573 .48388673 .34277345V.063964847C.48388673 .05777995 .48608399 .052734376 .49047853 .048828126 .49487306 .044921876 .5 .04264323 .5058594 .041992189L.55078127 .0390625V0Z"/>
<path id="font_1_69" d="M.5209961 .26416017C.5209961 .21402996 .5110677 .16902669 .49121095 .12915039 .47135417 .089274089 .44026695 .05777995 .39794923 .03466797 .3556315 .011555989 .300944 0 .23388672 0H.08984375V.66503909H.014160156V.6982422L.1430664 .7368164H.18310547V.45703126C.1944987 .4625651 .212972 .47013346 .23852539 .47973634 .26407878 .4893392 .2915039 .49414063 .32080079 .49414063 .3647461 .49414063 .40152995 .4835612 .43115235 .46240235 .46077476 .4412435 .4831543 .41316734 .49829103 .37817384 .51342776 .34318034 .5209961 .30517579 .5209961 .26416017M.4189453 .24414063C.4189453 .30729167 .40559898 .35489909 .37890626 .3869629 .35221354 .4190267 .31461589 .4350586 .26611329 .4350586 .25504557 .4350586 .2409668 .43326823 .22387696 .4296875 .20678711 .42610679 .19319661 .42252604 .18310547 .4189453V.047851564C.19124349 .047526044 .19938152 .047281904 .20751953 .04711914 .21565755 .04695638 .22379558 .046875 .2319336 .046875 .29117839 .046875 .3371582 .061523439 .36987306 .09082031 .4025879 .12011719 .4189453 .17122396 .4189453 .24414063Z"/>
<path id="font_1_92" d="M.52001956 .4428711 .46777345 .43701173 .2758789-.030761719C.27164714-.041503908 .26505534-.056884767 .25610353-.0769043 .24715169-.09692383 .23657227-.11743164 .22436524-.13842774 .2121582-.15942383 .19905599-.17692058 .1850586-.19091797 .17301433-.20296224 .15974935-.21232097 .14526367-.21899414 .130778-.22566732 .11507162-.2290039 .09814453-.2290039 .07438151-.2290039 .056233724-.2232259 .043701173-.21166992 .03116862-.20011394 .024902344-.18684896 .024902344-.171875 .024902344-.14973958 .03564453-.12972005 .057128908-.111816409L.1508789-.15478516C.16194661-.14371746 .17301433-.12874349 .18408203-.10986328 .19514974-.09098307 .2051595-.07145182 .21411133-.05126953 .22306316-.03108724 .22998047-.013671875 .23486328 .0009765625L.064941409 .43701173 .009765625 .4428711V.4819336H.23095703V.4428711L.18310547 .4399414C.17757161 .43961589 .1730957 .43725587 .16967774 .43286134 .16625977 .4284668 .16569011 .4235026 .16796875 .41796876L.2841797 .123046878 .40283204 .41796876C.4051107 .4231771 .40478517 .4280599 .40185548 .4326172 .39892579 .43717448 .394694 .43961589 .38916017 .4399414L.34179688 .4428711V.4819336H.52001956V.4428711Z"/>
<path id="font_1_71" d="M.53808596 0H.38085938V.053222658C.3580729 .03564453 .33382163 .020345053 .30810548 .0073242189 .2823893-.0056966149 .25504557-.012207031 .22607422-.012207031 .19254558-.012207031 .1636556-.005126953 .1394043 .009033203 .11515299 .02319336 .09529623 .041992189 .079833988 .06542969 .06437174 .08886719 .052897138 .114746097 .045410158 .1430664 .037923177 .17138672 .034179689 .19970703 .034179689 .22802735 .034179689 .27327476 .04345703 .3161621 .06201172 .35668946 .080566409 .3972168 .10872396 .43025718 .14648438 .45581056 .1842448 .48136393 .23177083 .49414063 .2890625 .49414063 .30501304 .49414063 .32234703 .4925944 .34106446 .48950196 .3597819 .48640953 .37304688 .48388673 .38085938 .4819336V.66503909H.30517579V.6982422L.43408204 .7368164H.4741211V.063964847C.4741211 .05029297 .48111979 .04296875 .4951172 .041992189L.53808596 .0390625V0M.38085938 .09082031V.43115235C.37239585 .43408204 .3597819 .43725587 .34301759 .44067384 .32625328 .4440918 .31054688 .44580079 .29589845 .44580079 .24641927 .44580079 .20686849 .42749024 .1772461 .39086915 .1476237 .35424806 .1328125 .30566407 .1328125 .24511719 .1328125 .1907552 .14550781 .14567058 .17089844 .10986328 .19628906 .07405599 .2319336 .056152345 .27783204 .056152345 .2980143 .056152345 .31697593 .059977216 .3347168 .06762695 .35245768 .075276698 .36783854 .08300781 .38085938 .09082031Z"/>
<path id="font_1_181" d="M.4140625 .61621096C.4140625 .5917969 .40966798 .5694173 .4008789 .54907229 .39208985 .52872726 .38142906 .5106608 .36889649 .49487306 .35636393 .4790853 .34407554 .4658203 .33203126 .45507813 .31998698 .44433595 .31070964 .43603517 .30419923 .43017579L.26708985 .43798829C.28727214 .45817057 .3063151 .48079429 .32421876 .5058594 .3421224 .5309245 .35107423 .55891928 .35107423 .58984377 .35107423 .5934245 .3507487 .59676107 .35009767 .5998535 .34944663 .602946 .3491211 .60563156 .3491211 .60791018H.2861328L.27856446 .6191406C.2735189 .6266276 .2709961 .63655599 .2709961 .6489258 .2709961 .6661784 .27652995 .6805013 .28759767 .69189456 .29866538 .7032878 .31315104 .7089844 .3310547 .7089844 .3564453 .7089844 .3766276 .70060226 .39160157 .6838379 .40657554 .66707357 .4140625 .64453127 .4140625 .61621096M.20800781 .6152344C.20800781 .5911458 .20361328 .5690918 .19482422 .54907229 .18603516 .52905276 .17537435 .5111491 .1628418 .49536134 .15030925 .47957359 .13802083 .4662272 .12597656 .45532228 .11393229 .44441734 .104654949 .43603517 .09814453 .43017579L.061035158 .43798829C.07047526 .449056 .08170573 .46199546 .09472656 .47680665 .1077474 .49161784 .11922201 .5083008 .12915039 .52685549 .13907878 .54541018 .14404297 .5657552 .14404297 .5878906 .14404297 .5914714 .1438802 .5951335 .14355469 .59887698 .14322917 .6026204 .1430664 .60563156 .1430664 .60791018H.080078128L.072509769 .6196289C.067464198 .6274414 .064941409 .63688156 .064941409 .6479492 .064941409 .66520187 .07063802 .6796875 .08203125 .69140627 .09342448 .703125 .108072917 .7089844 .12597656 .7089844 .15201824 .7089844 .17220052 .70043948 .18652344 .6833496 .20084636 .66625979 .20800781 .6435547 .20800781 .6152344Z"/>
</defs>
<use data-text="." xlink:href="#font_1_17" transform="matrix(16.438357,0,0,-16.438357,15.51495,16.965302)" fill="#343a40"/>
<use data-text="&#x0623;" xlink:href="#font_2_677" transform="matrix(16.438357,0,0,-16.438357,117.348,16.965302)" fill="#343a40"/>
<use data-text="&#x064e;" xlink:href="#font_2_728" transform="matrix(16.438357,0,0,-16.438357,116.8662,11.3387989)" fill="#343a40"/>
<use data-text="&#x0646;" xlink:href="#font_2_719" transform="matrix(16.438357,0,0,-16.438357,106.223697,16.965302)" fill="#343a40"/>
<use data-text="&#x0652;" xlink:href="#font_2_737" transform="matrix(16.438357,0,0,-16.438357,109.9164,15.891151)" fill="#343a40"/>
<use data-text="&#x064a;" xlink:href="#font_2_1285" transform="matrix(16.438357,0,0,-16.438357,96.68835,16.965302)" fill="#343a40"/>
<use data-text="&#x064e;" xlink:href="#font_2_728" transform="matrix(16.438357,0,0,-16.438357,97.2576,18.435452)" fill="#343a40"/>
<use data-text="&#xfe84;" xlink:href="#font_2_1163" transform="matrix(16.438357,0,0,-16.438357,92.38515,16.965302)" fill="#343a40"/>
<use data-text="&#x0652;" xlink:href="#font_2_737" transform="matrix(16.438357,0,0,-16.438357,92.5617,9.685501)" fill="#343a40"/>
<use data-text="&#x0643;" xlink:href="#font_2_1258" transform="matrix(16.438357,0,0,-16.438357,85.08885,16.965302)" fill="#343a40"/>
<use data-text="&#x064f;" xlink:href="#font_2_730" transform="matrix(16.438357,0,0,-16.438357,85.45845,13.827)" fill="#343a40"/>
<use data-text="&#x0644;" xlink:href="#font_2_1261" transform="matrix(16.438357,0,0,-16.438357,74.07675,16.965302)" fill="#343a40"/>
<use data-text="&#x064e;" xlink:href="#font_2_728" transform="matrix(16.438357,0,0,-16.438357,76.3488,18.018002)" fill="#343a40"/>
<use data-text="&#x0671;" xlink:href="#font_2_781" transform="matrix(16.438357,0,0,-16.438357,65.84985,16.965302)" fill="#343a40"/>
<use data-text="&#x0644;" xlink:href="#font_2_1262" transform="matrix(16.438357,0,0,-16.438357,61.115606,16.965302)" fill="#343a40"/>
<use data-text="&#x0637;" xlink:href="#font_2_1235" transform="matrix(16.438357,0,0,-16.438357,50.036149,16.965302)" fill="#343a40"/>
<use data-text="&#x0651;" xlink:href="#font_2_735" transform="matrix(16.438357,0,0,-16.438357,49.861349,12.744598)" fill="#343a40"/>
<use data-text="&#x0639;" xlink:href="#font_2_1243" transform="matrix(16.438357,0,0,-16.438357,40.61475,16.965302)" fill="#343a40"/>
<use data-text="&#x064e;" xlink:href="#font_2_728" transform="matrix(16.438357,0,0,-16.438357,43.17555,17.671498)" fill="#343a40"/>
<use data-text="&#x0627;" xlink:href="#font_2_1173" transform="matrix(16.438357,0,0,-16.438357,36.31155,16.965302)" fill="#343a40"/>
<use data-text="&#x0645;" xlink:href="#font_2_718" transform="matrix(16.438357,0,0,-16.438357,26.547165,16.965302)" fill="#343a40"/>
<use data-text="&#x064e;" xlink:href="#font_2_728" transform="matrix(16.438357,0,0,-16.438357,30.261,18.234147)" fill="#343a40"/>
<use data-text="&#x0631;" xlink:href="#font_2_691" transform="matrix(16.438357,0,0,-16.438357,222.81764,16.965302)" fill="#343a40"/>
<use data-text="&#x064e;" xlink:href="#font_2_728" transform="matrix(16.438357,0,0,-16.438357,223.61954,19.341301)" fill="#343a40"/>
<use data-text="&#x063a;" xlink:href="#font_2_1246" transform="matrix(16.438357,0,0,-16.438357,215.52959,16.965302)" fill="#343a40"/>
<use data-text="&#x0650;" xlink:href="#font_2_731" transform="matrix(16.438357,0,0,-16.438357,217.43204,16.78875)" fill="#343a40"/>
<use data-text="&#x0628;" xlink:href="#font_2_1175" transform="matrix(16.438357,0,0,-16.438357,200.25389,16.965302)" fill="#343a40"/>
<use data-text="&#x064e;" xlink:href="#font_2_728" transform="matrix(16.438357,0,0,-16.438357,204.9267,18.4833)" fill="#343a40"/>
<use data-text="&#x0671;" xlink:href="#font_2_781" transform="matrix(16.438357,0,0,-16.438357,192.027,16.965302)" fill="#343a40"/>
<use data-text="&#x0644;" xlink:href="#font_2_1262" transform="matrix(16.438357,0,0,-16.438357,187.29274,16.965302)" fill="#343a40"/>
<use data-text="&#x0652;" xlink:href="#font_2_737" transform="matrix(16.438357,0,0,-16.438357,188.31119,12.431099)" fill="#343a40"/>
<use data-text="&#x063a;" xlink:href="#font_2_1247" transform="matrix(16.438357,0,0,-16.438357,177.88484,16.965302)" fill="#343a40"/>
<use data-text="&#x064f;" xlink:href="#font_2_730" transform="matrix(16.438357,0,0,-16.438357,180.38956,13.6026)" fill="#343a40"/>
<use data-text="&#xfefc;" xlink:href="#font_2_1302" transform="matrix(16.438357,0,0,-16.438357,167.9799,16.965302)" fill="#343a40"/>
<use data-text="&#x064e;" xlink:href="#font_2_728" transform="matrix(16.438357,0,0,-16.438357,172.98766,14.115749)" fill="#343a40"/>
<use data-text="&#x0645;" xlink:href="#font_2_718" transform="matrix(16.438357,0,0,-16.438357,158.20365,16.965302)" fill="#343a40"/>
<use data-text="&#x064f;" xlink:href="#font_2_730" transform="matrix(16.438357,0,0,-16.438357,161.9277,16.547848)" fill="#343a40"/>
<use data-text="&#x0641;" xlink:href="#font_2_1250" transform="matrix(16.438357,0,0,-16.438357,146.2758,16.965302)" fill="#343a40"/>
<use data-text="&#x0650;" xlink:href="#font_2_731" transform="matrix(16.438357,0,0,-16.438357,146.95891,16.813504)" fill="#343a40"/>
<use data-text="&#x064a;" xlink:href="#font_2_1284" transform="matrix(16.438357,0,0,-16.438357,135.60854,16.965302)" fill="#343a40"/>
<path transform="matrix(1.65,0,0,-1.65,15.51495,16.965302)" stroke-width=".3985" stroke-linecap="butt" stroke-miterlimit="10" stroke-linejoin="miter" fill="none" stroke="#343a40" d="M69.6666-4.72015C70.04019-5.46736 70.91194-5.9655 72.15729-5.9655H98.42612C99.67146-5.9655 100.54321-6.46362 100.91681-7.21085 101.29039-6.46362 102.16216-5.9655 103.4075-5.9655H129.67632C130.92166-5.9655 131.79343-5.46736 132.167-4.72015"/>
<use data-text="i" xlink:href="#font_1_76" transform="matrix(11.506852,0,0,-11.506852,122.53395,42.0486)" fill="#343a40"/>
<use data-text="-" xlink:href="#font_1_16" transform="matrix(11.506852,0,0,-11.506852,126.02052,42.0486)" fill="#343a40"/>
<use data-text="s" xlink:href="#font_1_86" transform="matrix(11.506852,0,0,-11.506852,129.70272,42.0486)" fill="#343a40"/>
<use data-text="t" xlink:href="#font_1_87" transform="matrix(11.506852,0,0,-11.506852,134.28243,42.0486)" fill="#343a40"/>
<use data-text="a" xlink:href="#font_1_68" transform="matrix(11.506852,0,0,-11.506852,138.19477,42.0486)" fill="#343a40"/>
<use data-text="t" xlink:href="#font_1_87" transform="matrix(11.506852,0,0,-11.506852,144.05176,42.0486)" fill="#343a40"/>
<use data-text="e" xlink:href="#font_1_72" transform="matrix(11.506852,0,0,-11.506852,147.96408,42.0486)" fill="#343a40"/>
<use data-text="a" xlink:href="#font_1_68" transform="matrix(11.506852,0,0,-11.506852,156.97394,42.0486)" fill="#343a40"/>
<use data-text="f" xlink:href="#font_1_73" transform="matrix(11.506852,0,0,-11.506852,162.83092,42.0486)" fill="#343a40"/>
<use data-text="t" xlink:href="#font_1_87" transform="matrix(11.506852,0,0,-11.506852,166.58216,42.0486)" fill="#343a40"/>
<use data-text="e" xlink:href="#font_1_72" transform="matrix(11.506852,0,0,-11.506852,170.49449,42.0486)" fill="#343a40"/>
<use data-text="r" xlink:href="#font_1_85" transform="matrix(11.506852,0,0,-11.506852,176.13285,42.0486)" fill="#343a40"/>
<use data-text="p" xlink:href="#font_1_83" transform="matrix(11.506852,0,0,-11.506852,184.00353,42.0486)" fill="#343a40"/>
<use data-text="r" xlink:href="#font_1_85" transform="matrix(11.506852,0,0,-11.506852,190.43585,42.0486)" fill="#343a40"/>
<use data-text="e" xlink:href="#font_1_72" transform="matrix(11.506852,0,0,-11.506852,194.93505,42.0486)" fill="#343a40"/>
<use data-text="p" xlink:href="#font_1_83" transform="matrix(11.506852,0,0,-11.506852,200.5734,42.0486)" fill="#343a40"/>
<use data-text="o" xlink:href="#font_1_82" transform="matrix(11.506852,0,0,-11.506852,207.00572,42.0486)" fill="#343a40"/>
<use data-text="s" xlink:href="#font_1_86" transform="matrix(11.506852,0,0,-11.506852,213.26544,42.0486)" fill="#343a40"/>
<use data-text="i" xlink:href="#font_1_76" transform="matrix(11.506852,0,0,-11.506852,217.84517,42.0486)" fill="#343a40"/>
<use data-text="t" xlink:href="#font_1_87" transform="matrix(11.506852,0,0,-11.506852,221.33176,42.0486)" fill="#343a40"/>
<use data-text="i" xlink:href="#font_1_76" transform="matrix(11.506852,0,0,-11.506852,225.24408,42.0486)" fill="#343a40"/>
<use data-text="o" xlink:href="#font_1_82" transform="matrix(11.506852,0,0,-11.506852,228.73067,42.0486)" fill="#343a40"/>
<use data-text="n" xlink:href="#font_1_81" transform="matrix(11.506852,0,0,-11.506852,234.9904,42.0486)" fill="#343a40"/>
<use data-text="&#x201c;" xlink:href="#font_1_180" transform="matrix(16.438357,0,0,-16.438357,5.4796507,69.25215)" fill="#343a40"/>
<use data-text="T" xlink:href="#font_1_55" transform="matrix(16.438357,0,0,-16.438357,12.926226,69.25215)" fill="#343a40"/>
<use data-text="h" xlink:href="#font_1_75" transform="matrix(16.438357,0,0,-16.438357,22.7728,69.25215)" fill="#343a40"/>
<use data-text="e" xlink:href="#font_1_72" transform="matrix(16.438357,0,0,-16.438357,32.208417,69.25215)" fill="#343a40"/>
<use data-text="b" xlink:href="#font_1_69" transform="matrix(16.438357,0,0,-16.438357,45.079648,69.25215)" fill="#343a40"/>
<use data-text="o" xlink:href="#font_1_82" transform="matrix(16.438357,0,0,-16.438357,54.202939,69.25215)" fill="#343a40"/>
<use data-text="y" xlink:href="#font_1_92" transform="matrix(16.438357,0,0,-16.438357,62.915269,69.25215)" fill="#343a40"/>
<use data-text="d" xlink:href="#font_1_71" transform="matrix(16.438357,0,0,-16.438357,76.427608,69.25215)" fill="#343a40"/>
<use data-text="e" xlink:href="#font_1_72" transform="matrix(16.438357,0,0,-16.438357,85.69884,69.25215)" fill="#343a40"/>
<use data-text="s" xlink:href="#font_1_86" transform="matrix(16.438357,0,0,-16.438357,93.75363,69.25215)" fill="#343a40"/>
<use data-text="i" xlink:href="#font_1_76" transform="matrix(16.438357,0,0,-16.438357,100.2961,69.25215)" fill="#343a40"/>
<use data-text="r" xlink:href="#font_1_85" transform="matrix(16.438357,0,0,-16.438357,105.276927,69.25215)" fill="#343a40"/>
<use data-text="e" xlink:href="#font_1_72" transform="matrix(16.438357,0,0,-16.438357,111.704319,69.25215)" fill="#343a40"/>
<use data-text="d" xlink:href="#font_1_71" transform="matrix(16.438357,0,0,-16.438357,119.7591,69.25215)" fill="#343a40"/>
<use data-text="t" xlink:href="#font_1_87" transform="matrix(16.438357,0,0,-16.438357,133.84677,69.25215)" fill="#343a40"/>
<use data-text="h" xlink:href="#font_1_75" transform="matrix(16.438357,0,0,-16.438357,139.37006,69.25215)" fill="#343a40"/>
<use data-text="a" xlink:href="#font_1_68" transform="matrix(16.438357,0,0,-16.438357,148.80568,69.25215)" fill="#343a40"/>
<use data-text="t" xlink:href="#font_1_87" transform="matrix(16.438357,0,0,-16.438357,157.17279,69.25215)" fill="#343a40"/>
<use data-text="h" xlink:href="#font_1_75" transform="matrix(16.438357,0,0,-16.438357,167.56183,69.25215)" fill="#343a40"/>
<use data-text="e" xlink:href="#font_1_72" transform="matrix(16.438357,0,0,-16.438357,176.99744,69.25215)" fill="#343a40"/>
<use data-text="e" xlink:href="#font_1_72" transform="matrix(16.438357,0,0,-16.438357,189.86867,69.25215)" fill="#343a40"/>
<use data-text="a" xlink:href="#font_1_68" transform="matrix(16.438357,0,0,-16.438357,197.92346,69.25215)" fill="#343a40"/>
<use data-text="t" xlink:href="#font_1_87" transform="matrix(16.438357,0,0,-16.438357,206.29059,69.25215)" fill="#343a40"/>
<use data-text="t" xlink:href="#font_1_87" transform="matrix(16.438357,0,0,-16.438357,216.69606,69.25215)" fill="#343a40"/>
<use data-text="h" xlink:href="#font_1_75" transform="matrix(16.438357,0,0,-16.438357,222.21935,69.25215)" fill="#343a40"/>
<use data-text="e" xlink:href="#font_1_72" transform="matrix(16.438357,0,0,-16.438357,231.65496,69.25215)" fill="#343a40"/>
<use data-text="f" xlink:href="#font_1_73" transform="matrix(16.438357,0,0,-16.438357,244.50975,69.25215)" fill="#343a40"/>
<use data-text="o" xlink:href="#font_1_82" transform="matrix(16.438357,0,0,-16.438357,249.86865,69.25215)" fill="#343a40"/>
<use data-text="o" xlink:href="#font_1_82" transform="matrix(16.438357,0,0,-16.438357,258.81114,69.25215)" fill="#343a40"/>
<use data-text="d" xlink:href="#font_1_71" transform="matrix(16.438357,0,0,-16.438357,267.75358,69.25215)" fill="#343a40"/>
<use data-text="." xlink:href="#font_1_17" transform="matrix(16.438357,0,0,-16.438357,277.0248,69.25215)" fill="#343a40"/>
<use data-text="&#x201d;" xlink:href="#font_1_181" transform="matrix(16.438357,0,0,-16.438357,280.04945,69.25215)" fill="#343a40"/>
</svg>
