<svg xmlns="http://www.w3.org/2000/svg" xmlns:xlink="http://www.w3.org/1999/xlink" xmlns:inkscape="http://www.inkscape.org/namespaces/inkscape" version="1.1" width="336.27494" height="76.7118" viewBox="0 0 336.27494 76.7118">
<defs>
<path id="font_1_17" d="M.19580078 .05517578C.19580078 .036621095 .18912761 .020751954 .17578125 .0075683596 .16243489-.0056152346 .14648438-.012207031 .12792969-.012207031 .109375-.012207031 .09358724-.0056152346 .080566409 .0075683596 .06754557 .020751954 .061035158 .036621095 .061035158 .05517578 .061035158 .073404949 .06754557 .08911133 .080566409 .10229492 .09358724 .115478519 .109375 .12207031 .12792969 .12207031 .14648438 .12207031 .16243489 .115478519 .17578125 .10229492 .18912761 .08911133 .19580078 .073404949 .19580078 .05517578Z"/>
<path id="font_2_1262" d="M-.009765625 .08886719H.03125C.0703125 .08886719 .09667969 .0999349 .11035156 .12207031 .12402344 .14420574 .13085938 .171875 .13085938 .20507813V.6723633H.2133789V.2055664C.2133789 .13785808 .19873047 .08666992 .1694336 .052001954 .14013672 .017333985 .09391276 0 .030761719 0H-.009765625V.08886719Z"/>
<path id="font_2_728" d="M.03125 .5571289V.6035156L.23925781 .68847659V.64208987L.03125 .5571289Z"/>
<path id="font_2_1290" d="M-.0107421879 .08886719H.06298828C.10432943 .08886719 .13387044 .09814453 .15161133 .11669922 .16935222 .1352539 .17822266 .16373699 .17822266 .20214844 .17822266 .21777344 .17781575 .23258464 .17700196 .24658203 .17618816 .26057945 .1751302 .2745768 .17382813 .28857423L.2553711 .29833985 .2631836 .18408203C.26708985 .12060547 .30013023 .08886719 .3623047 .08886719H.3725586V0H.36132813C.3251953 0 .29630534 .0065104167 .2746582 .01953125 .25301109 .032552083 .23551433 .05094401 .22216797 .07470703 .20458985 .048990888 .18147786 .030110678 .15283203 .018066407 .124186199 .0060221354 .09423828 0 .06298828 0H-.0107421879V.08886719M.16552735-.07763672 .23388672-.14550781 .16552735-.21435547 .09765625-.14550781 .16552735-.07763672M.0034179688-.07763672 .071777347-.14550781 .0034179688-.21435547-.064453128-.14550781 .0034179688-.07763672Z"/>
<path id="font_2_737" d="M.020507813 .56811526C.020507813 .59162399 .028889975 .6118622 .045654298 .62882998 .06241862 .6458079 .08251953 .6542969 .10595703 .6542969 .12939453 .6542969 .14949544 .6458079 .16625977 .62882998 .1830241 .6118622 .19140625 .59162399 .19140625 .56811526 .19140625 .5446065 .1830241 .5244446 .16625977 .5076294 .14949544 .49082438 .12939453 .48242188 .10595703 .48242188 .08251953 .48242188 .06241862 .49082438 .045654298 .5076294 .028889975 .5244446 .020507813 .5446065 .020507813 .56811526M.059570314 .56811526C.059570314 .5550232 .06404623 .5440572 .07299805 .5352173 .08194987 .5263875 .092936199 .52197268 .10595703 .52197268 .11897787 .52197268 .12988281 .5263875 .13867188 .5352173 .14746094 .5440572 .15185547 .5550232 .15185547 .56811526 .15185547 .5812073 .14746094 .59233096 .13867188 .6014862 .12988281 .6106517 .11897787 .6152344 .10595703 .6152344 .092936199 .6152344 .08194987 .6106517 .07299805 .6014862 .06404623 .59233096 .059570314 .5812073 .059570314 .56811526Z"/>
<path id="font_2_1263" d="M.13085938 .21386719V.6723633H.2133789V.21240235C.2133789 .17659505 .22045899 .14705403 .23461914 .1237793 .2487793 .100504558 .2745768 .08886719 .31201173 .08886719H.32763673V0H.31298829C.27652995 0 .2475586 .0063476564 .22607422 .019042969 .20458985 .03173828 .1875 .050130208 .17480469 .07421875 .1640625 .05826823 .15323894 .044759115 .14233399 .033691408 .13142903 .022623698 .1175944 .014241536 .10083008 .008544922 .08406576 .0028483074 .061197919 0 .032226564 0H-.009765625V.08886719H.03125C.05859375 .08886719 .0793457 .094319667 .09350586 .10522461 .107666019 .116129558 .11743164 .13102214 .122802738 .14990235 .12817383 .16878255 .13085938 .19010417 .13085938 .21386719Z"/>
<path id="font_2_1183" d="M.3647461 .67822268 .43310548 .61035159 .3647461 .5415039 .296875 .61035159 .3647461 .67822268M.20263672 .67822268 .2709961 .61035159 .20263672 .5415039 .13476563 .61035159 .20263672 .67822268M.5107422 0C.46289063 0 .42569987 .011230469 .39916993 .033691408 .37263999 .056152345 .35546876 .08707682 .34765626 .12646485 .32877604 .10758463 .3083496 .09309896 .28637696 .08300781 .2644043 .072916667 .2397461 .067871097 .21240235 .067871097 .16585286 .067871097 .12679036 .08040365 .095214847 .10546875 .06363932 .13053386 .047851564 .16520183 .047851564 .20947266 .047851564 .25960288 .068359378 .30297853 .109375 .3395996 .15039063 .3762207 .21484375 .40804038 .30273438 .4350586L.2993164 .4584961 .3774414 .4741211 .41992188 .1743164C.42382813 .14567058 .43318687 .12426758 .44799806 .11010742 .46280924 .095947269 .484375 .08886719 .5126953 .08886719H.52783206V0H.5107422M.328125 .24560547C.328125 .25569663 .32747398 .26529948 .32617188 .27441407L.31396485 .35595704C.2508138 .33317057 .20483399 .31070964 .17602539 .28857423 .1472168 .2664388 .1328125 .2421875 .1328125 .21582031 .1328125 .19433594 .14013672 .17805989 .15478516 .16699219 .1694336 .15592449 .18929036 .15039063 .21435547 .15039063 .2335612 .15039063 .25187174 .15413411 .2692871 .1616211 .28670249 .16910808 .30086265 .18001302 .31176759 .19433594 .32267253 .20865886 .328125 .2257487 .328125 .24560547Z"/>
<path id="font_2_781" d="M.15673828 .609375V.0009765625H.07421875V.609375H.15673828M-.025878907 .69132998-.017089844 .73176577C-.012858073 .7282054-.0072428386 .7236735-.00024414063 .71817019 .006754557 .7126668 .013183594 .70878097 .019042969 .70651248 .045410158 .75094607 .069254558 .78281149 .09057617 .80210879 .11189779 .82140609 .13541667 .8310547 .16113281 .8310547 .18717449 .8310547 .2084961 .822937 .22509766 .80670168 .24169922 .7904765 .25 .77019247 .25 .7458496 .25 .7133891 .23860677 .69066366 .21582031 .67767336 .19303386 .6646932 .15364583 .6582031 .09765625 .6582031H.08544922C.056152345 .6582031 .0320638 .6608836 .013183594 .6662445-.0056966149 .6716054-.018717448 .6799672-.025878907 .69132998M.09667969 .7001953C.13867188 .7001953 .16788738 .7030284 .18432617 .70869448 .20076497 .71436056 .20898438 .72609457 .20898438 .7438965 .20898438 .75652059 .20483399 .767039 .1965332 .77545168 .18823242 .7838745 .1772461 .78808596 .16357422 .78808596 .14567058 .78808596 .1295573 .78144839 .115234378 .7681732 .10091146 .75490829 .083333339 .73224899 .0625 .7001953H.09667969Z"/>
<path id="font_2_1255" d="M.34277345 .61816409 .4111328 .55029299 .34277345 .4814453 .27490235 .55029299 .34277345 .61816409M.18066406 .61816409 .24902344 .55029299 .18066406 .4814453 .11279297 .55029299 .18066406 .61816409M.43652345 .22998047C.43652345 .20426433 .4308268 .18041992 .4194336 .15844727 .40804038 .13647461 .39241538 .11393229 .3725586 .09082031 .39111329 .08984375 .4075521 .089274089 .421875 .08911133 .4361979 .08894857 .44889323 .08886719 .45996095 .08886719H.5073242V0H.46142579C.449056 0 .43204753 .0010579428 .4104004 .0031738282 .38875328 .0052897136 .36499024 .008951823 .33911134 .014160156 .31323243 .01936849 .2877604 .026367188 .2626953 .03515625 .2376302 .026041666 .21191406 .018961588 .18554688 .013916016 .15917969 .008870442 .13476563 .0052897136 .11230469 .0031738282 .08984375 .0010579428 .0719401 0 .05859375 0H-.009765625V.08886719H.05859375C.072265628 .08886719 .086507167 .08894857 .10131836 .08911133 .116129558 .089274089 .13411458 .09000651 .15527344 .091308597 .13574219 .114095058 .12044271 .13671875 .109375 .15917969 .09830729 .18164063 .09277344 .2055664 .09277344 .23095703 .09277344 .2511393 .09749349 .27148438 .106933597 .2919922 .116373699 .3125 .12906902 .33154298 .14501953 .3491211 .16097005 .36669923 .17919922 .38077799 .19970703 .39135743 .22021485 .40193687 .2413737 .40722657 .2631836 .40722657 .28597007 .40722657 .30777995 .40193687 .32861329 .39135743 .34944663 .38077799 .36791993 .3667806 .3840332 .34936524 .40014649 .33194987 .4129232 .31282554 .42236329 .2919922 .43180339 .27115885 .43652345 .25048829 .43652345 .22998047M.2631836 .32080079C.2508138 .32080079 .23787435 .3161621 .22436524 .30688478 .21085613 .29760743 .19946289 .28597007 .19018555 .27197267 .1809082 .25797526 .17626953 .24365235 .17626953 .2290039 .17626953 .21402996 .18066406 .19873047 .18945313 .18310547 .19824219 .16748047 .20939128 .15315755 .22290039 .14013672 .2364095 .12711589 .25016276 .11702474 .26416017 .10986328 .28889976 .120279949 .3099772 .13712566 .32739259 .16040039 .34480796 .18367513 .35351563 .20686849 .35351563 .22998047 .35351563 .24365235 .3487142 .25748698 .33911134 .27148438 .32950846 .28548179 .31770835 .29720054 .30371095 .30664063 .28971354 .31608073 .27620445 .32080079 .2631836 .32080079Z"/>
<path id="font_2_1209" d="M.32910157 .17773438C.32910157 .18619792 .32722984 .19718425 .32348634 .21069336 .31974284 .22420247 .31526695 .2368164 .3100586 .24853516L.22363281 .44433595 .2998047 .47998048 .41064454 .21923828C.4256185 .18408203 .4387207 .1570638 .44995118 .1381836 .46118165 .11930338 .47224937 .10636393 .4831543 .099365238 .49405924 .09236654 .50651046 .08886719 .5205078 .08886719H.5410156V0H.5205078C.49479167 0 .47387696 .003092448 .45776368 .009277344 .4416504 .015462239 .42773438 .024739584 .41601563 .037109376 .40429688 .049479169 .39241538 .065104167 .3803711 .083984378 .35758464 .055338544 .3285319 .034261068 .2932129 .020751954 .2578939 .0072428386 .21386719 .00048828127 .16113281 .00048828127 .13834636 .00048828127 .11783854 .001546224 .099609378 .0036621094 .08138021 .0057779948 .0641276 .0087890629 .047851564 .0126953129V.10107422C.08528646 .092285159 .12060547 .087890628 .1538086 .087890628 .27067057 .087890628 .32910157 .11783854 .32910157 .17773438Z"/>
<path id="font_2_691" d="M.022949219-.2626953-.005859375-.1850586C.07356771-.16780599 .1295573-.13761394 .16210938-.09448242 .19466146-.05135091 .2109375-.00032552085 .2109375 .05859375 .2109375 .08626302 .20792644 .11531576 .2019043 .14575196 .19588216 .17618816 .1875 .20719402 .17675781 .23876953L.2578125 .26611329C.28125 .19938152 .29296876 .13509114 .29296876 .07324219 .29296876 .018880209 .28344728-.03149414 .2644043-.07788086 .24536133-.12426758 .21590169-.1636556 .17602539-.19604492 .1361491-.22843425 .085123699-.25065104 .022949219-.2626953Z"/>
<path id="font_2_731" d="M.028320313-.24658203V-.20019531L.23632813-.115234378V-.1616211L.028320313-.24658203Z"/>
<path id="font_2_1218" d="M.3310547 0C.29361979 0 .26472984 .0064290368 .24438477 .01928711 .22403972 .032145185 .20784505 .05061849 .19580078 .07470703 .1805013 .05061849 .16097005 .032145185 .13720703 .01928711 .11344401 .0064290368 .079589847 0 .03564453 0H-.009277344V.08886719H.036621095C.07828776 .08886719 .10872396 .096598308 .12792969 .11206055 .14713542 .12752278 .15673828 .15576172 .15673828 .19677735 .15673828 .20524089 .15633138 .21525066 .15551758 .22680664 .15470378 .23836263 .15348308 .25455729 .15185547 .27539063L.23339844 .28564454 .24121094 .18359375C.24316406 .15625 .25154624 .1336263 .26635743 .115722659 .2811686 .09781901 .3030599 .08886719 .33203126 .08886719 .36653648 .08886719 .38997398 .09814453 .40234376 .11669922 .41471354 .1352539 .42089845 .16194661 .42089845 .19677735 .42089845 .20524089 .42049156 .21533203 .41967774 .22705078 .41886393 .23876953 .41764323 .2548828 .41601563 .27539063L.4975586 .28564454 .5053711 .18359375C.5069987 .15722656 .5139974 .134847 .5263672 .11645508 .538737 .09806315 .55875656 .08886719 .5864258 .08886719 .61344406 .08886719 .6319987 .098958339 .64208987 .119140628 .65218099 .13932292 .65722659 .16292317 .65722659 .1899414 .65722659 .21435547 .6548665 .2389323 .6501465 .26367188 .64542648 .28841148 .64127609 .308431 .6376953 .32373048L.7211914 .3461914C.7270508 .32435099 .7317708 .30112205 .73535159 .27650453 .7389323 .2518972 .74072268 .22737122 .74072268 .20292664 .74072268 .16771953 .73583987 .1346283 .7260742 .103652957 .7163086 .07268778 .7002767 .047668458 .6779785 .02859497 .65568038 .009531657 .6253255 0 .58691409 0 .55566409 0 .5304362 .0065104167 .51123049 .01953125 .49202476 .032552083 .47639976 .05094401 .46435548 .07470703 .4461263 .048339845 .42586265 .029296875 .40356446 .017578125 .38126628 .005859375 .35709635 0 .3310547 0Z"/>
<path id="font_2_1277" d="M-.009277344 0V.08886719H.091796878V.09767151C.091796878 .1325531 .09497579 .16800435 .10133362 .20402527 .107691448 .24005635 .11771647 .27331034 .13140869 .30378724 .1451009 .3342743 .16311138 .35881043 .18544007 .37739564 .20777893 .39598084 .23492432 .40527345 .26687623 .40527345 .30828858 .40527345 .34072877 .39078776 .36419679 .3618164 .38767497 .33284507 .39941407 .29508464 .39941407 .24853516 .39941407 .21826172 .39337669 .18847656 .38130189 .15917969 .36923728 .12988281 .35276286 .1031901 .33187867 .07910156 .31100465 .05501302 .28719078 .035807294 .260437 .021484375 .23368328 .0071614587 .20562744 0 .17626953 0 .18277996-.02734375 .19563802-.05517578 .21484375-.083496097 .23404949-.111816409 .25797526-.1352539 .2866211-.1538086 .2866211 .007975261 .35514323 .08886719 .4921875 .08886719H.5083008V0H.49127198C.4477946 0 .4151052-.011856079 .39320375-.035568239 .37130229-.05929057 .36035157-.09942118 .36035157-.15596009 .36035157-.16311138 .36035157-.17066448 .36035157-.17861939 .36035157-.18658448 .3606771-.19446309 .36132813-.20225525L.30148316-.26123048C.24608357-.23328655 .20111084-.19648743 .16656494-.15083313 .13202922-.105189 .10938517-.054911298 .09863281 0H-.009277344M.26593019 .31933595C.24633789 .31933595 .22951763 .3095703 .21546936 .29003907 .20143128 .2705078 .19073487 .24405925 .18338013 .21069336 .17603557 .17732747 .17236328 .13997396 .17236328 .09863281V.08886719C.19979859 .08886719 .2247823 .096191409 .24731446 .110839847 .2698466 .12548828 .28780619 .14493816 .30119325 .16918946 .31459046 .19344075 .32128907 .21988933 .32128907 .24853516 .32128907 .27164714 .31614176 .28922526 .30584718 .30126954 .29556275 .3133138 .28225709 .31933595 .26593019 .31933595Z"/>
<path id="font_2_1213" d="M.3828125 0C.36035157 0 .34155274 .0030110677 .32641603 .009033203 .3112793 .015055339 .29947917 .021484375 .29101563 .028320313 .2861328-.014322917 .27433268-.055582685 .25561524-.095458988 .23689778-.13533528 .20882161-.17008464 .17138672-.19970703 .13395183-.22932942 .084472659-.25016276 .022949219-.26220704L-.005859375-.1850586C.07356771-.16780599 .1295573-.13761394 .16210938-.09448242 .19466146-.05135091 .2109375-.00032552085 .2109375 .05859375 .2109375 .08626302 .20792644 .11531576 .2019043 .14575196 .19588216 .17618816 .1875 .20719402 .17675781 .23876953L.2578125 .26611329 .2841797 .1640625C.29134117 .13671875 .30273438 .11735026 .31835938 .10595703 .33398438 .094563808 .35367839 .08886719 .3774414 .08886719H.3959961V0H.3828125Z"/>
<path id="font_2_684" d="M.5310669 0H.41722108C.2944285 0 .20216878 .016601563 .1404419 .049804689 .078715007 .08300781 .047851564 .14046224 .047851564 .22216797 .047851564 .2446289 .050374349 .26660157 .055419923 .28808595 .060465497 .3095703 .06705729 .33024089 .07519531 .35009767L.15089417 .32177735C.14568584 .30745445 .1413676 .29215495 .13793946 .2758789 .13452149 .25960288 .1328125 .24414063 .1328125 .22949219 .1328125 .19140625 .14340718 .16219075 .16459656 .1418457 .1857961 .12150065 .21742249 .10758463 .2594757 .100097659 .3015391 .09261068 .35403443 .08886719 .41696168 .08886719H.5314026C.55356857 .08886719 .5767975 .08951823 .6010895 .09082031 .62538149 .0921224 .64812216 .095703128 .6693115 .1015625 .69051107 .107421878 .7077942 .11726888 .7211609 .13110352 .7345276 .14493816 .74121096 .16438802 .74121096 .18945313 .74121096 .2076823 .73941549 .22941081 .7358246 .25463868 .73224386 .27986656 .7280121 .30485026 .7231293 .32958985L.80810549 .35107423C.81396487 .3256836 .81844076 .2993978 .8215332 .2722168 .8246257 .24503581 .8261719 .22135417 .8261719 .20117188 .8261719 .15690105 .8186798 .12141927 .8036957 .09472656 .78871157 .06803385 .76778158 .047851564 .74090579 .034179689 .7140401 .020507813 .6827698 .0113932299 .6470947 .0068359377 .61142989 .0022786458 .5727539 0 .5310669 0M.52178958 .4790039 .59020999 .4111328 .52178958 .34228517 .45387269 .4111328 .52178958 .4790039M.3595581 .4790039 .42797853 .4111328 .3595581 .34228517 .29162599 .4111328 .3595581 .4790039Z"/>
<path id="font_2_1297" d="M.04296875 .7246094C.031901044 .73307296 .022460938 .74283859 .0146484379 .75390627 .0068359377 .76497396 .0029296876 .78011068 .0029296876 .7993164 .0029296876 .8273112 .012613933 .85026046 .031982423 .86816409 .05135091 .8860677 .073404949 .89501956 .09814453 .89501956 .119628909 .89501956 .13932292 .8898112 .15722656 .87939456V.8310547C.1471761 .836263 .13777669 .83951827 .12902832 .8408203 .120279949 .8421224 .11217753 .84277346 .10472107 .84277346 .09079488 .84277346 .077916469 .8385417 .066085819 .8300781 .05425517 .82161459 .048339845 .8092448 .048339845 .79296877 .048339845 .7828776 .053324384 .7730306 .06329346 .76342776 .073262538 .7538249 .08739217 .7503255 .10568237 .7529297 .10634359 .7529297 .10708109 .75309249 .1078949 .75341799 .1087087 .75374349 .10960897 .75406906 .1105957 .75439456L.17529297 .77783206 .1821289 .7294922-.00390625 .6557617-.0107421879 .7036133 .04296875 .7246094M.13574219 0C.122395839 0 .10872396 .00032552085 .09472656 .0009765625 .080729167 .0016276041 .06656901 .0026041668 .052246095 .00390625V.087890628C.07242838 .08658854 .08951823 .0855306 .103515628 .0847168 .11751302 .08390299 .13151042 .083496097 .14550781 .083496097 .15885417 .083496097 .17049153 .08365885 .18041992 .083984378 .19034831 .0843099 .1985677 .08496094 .20507813 .0859375L.1977539 .13012696C.1928711 .1595866 .18473308 .19946289 .17333985 .24975586 .16194661 .30004884 .146403 .35677085 .12670899 .41992188 .10701498 .4830729 .08235677 .54817709 .052734376 .6152344L.12841797 .6503906C.15771485 .5810547 .18237305 .5136719 .20239258 .4482422 .22241211 .3828125 .23836263 .3239746 .25024415 .27172853 .26212565 .21948242 .27067057 .17797852 .2758789 .1472168L.2836914 .10107422C.30810548 .107910159 .32991538 .1184082 .3491211 .13256836 .3683268 .14672852 .38346354 .1673991 .39453126 .19458008 .40559898 .22176107 .4111328 .25846354 .4111328 .3046875V.6723633H.49365235V.30322267C.49365235 .24169922 .48486329 .19116211 .46728517 .15161133 .44970704 .11206055 .42496745 .08129883 .3930664 .059326173 .36116538 .037353517 .32340495 .021972657 .27978517 .013183594 .23616536 .0043945314 .18815105 0 .13574219 0Z"/>
<path id="font_2_730" d="M.2241211 .52246096C.21728516 .52246096 .21142578 .52275088 .20654297 .5233307 .20166016 .5239207 .19596355 .52460739 .18945313 .5253906 .15625 .47916667 .09814453 .45377604 .015136719 .44921876L.0087890629 .4868164C.041341146 .4897461 .07014974 .49519859 .095214847 .5031738 .120279949 .5111491 .13867188 .5213216 .15039063 .5336914 .12760417 .53531906 .10660807 .54280599 .087402347 .55615237 .06819662 .5694987 .05859375 .59016928 .05859375 .61816409 .05859375 .63997396 .06624349 .65877279 .08154297 .67456057 .096842449 .6903483 .11604818 .6982422 .13916016 .6982422 .16227214 .6982422 .18147786 .6908366 .19677735 .6760254 .21207683 .6612142 .21972656 .64176437 .21972656 .6176758 .21972656 .5994466 .21533203 .57942709 .20654297 .5576172 .21110027 .5569661 .21826172 .55615237 .22802735 .5551758L.2241211 .52246096M.16748047 .5654297C.1710612 .5735677 .17415364 .5822754 .17675781 .59155276 .17936199 .6008301 .18066406 .609375 .18066406 .6171875 .18066406 .6295573 .17683919 .63948568 .16918946 .64697268 .16153972 .65445968 .15218099 .6582031 .14111328 .6582031 .12841797 .6582031 .11808268 .6538086 .11010742 .64501956 .102132167 .63623049 .09814453 .6266276 .09814453 .61621096 .09814453 .5996094 .10506185 .5880534 .118896488 .58154299 .13273113 .57503256 .14892578 .56966146 .16748047 .5654297Z"/>
<path id="font_2_718" d="M.17382813 .1459961C.1920573 .20947266 .21590169 .25935874 .24536133 .2956543 .27482096 .33194987 .31510417 .35009767 .36621095 .35009767 .40071617 .35009767 .43147788 .3413086 .4584961 .32373048 .4855143 .30615235 .5069173 .28198243 .5227051 .2512207 .53849288 .22045899 .5463867 .1850586 .5463867 .14501953 .5463867 .10107422 .53426107 .06461588 .51000979 .03564453 .48575846 .0066731774 .4482422-.0078125 .39746095-.0078125 .37825523-.0078125 .35880534-.0047200524 .33911134 .0014648438 .31941734 .0076497399 .3005371 .014729817 .2824707 .022705079 .2644043 .030680338 .24788411 .037760419 .23291016 .043945314 .2179362 .050130208 .20540364 .053222658 .1953125 .053222658 .17708333 .053222658 .16333008 .047281904 .15405274 .03540039 .14477539 .02351888 .1385905 .0034179688 .13549805-.024902344 .1324056-.053222658 .13085938-.092447917 .13085938-.14257813 .13085938-.16471355 .13110352-.18448894 .1315918-.2019043 .13208008-.21931966 .13289388-.23649089 .1340332-.25341798 .13517253-.27034507 .13639324-.28955079 .13769531-.31103517H.053710939C.052083333-.28108726 .05078125-.25301109 .049804689-.22680664 .048828126-.20060222 .048339845-.17415364 .048339845-.14746094 .048339845-.1110026 .049397787-.07633463 .051513673-.04345703 .05362956-.010579427 .05867513 .01912435 .06665039 .045654298 .07462565 .07218424 .08707682 .0941569 .104003909 .111572269 .12093099 .12898763 .14420574 .14046224 .17382813 .1459961M.4638672 .14550781C.4638672 .17903646 .45491538 .20711263 .43701173 .22973633 .41910807 .25236003 .39615885 .26367188 .36816407 .26367188 .34798179 .26367188 .33089195 .2574056 .31689454 .24487305 .30289714 .2323405 .29117839 .21590169 .28173829 .19555664 .2722982 .1752116 .2639974 .15348308 .25683595 .1303711 .29231773 .114746097 .32185874 .10245768 .34545899 .09350586 .36905924 .08455404 .38671876 .080078128 .3984375 .080078128 .4202474 .080078128 .43660484 .08601888 .44750978 .09790039 .4584147 .1097819 .4638672 .12565105 .4638672 .14550781Z"/>
<path id="font_2_736" d="M.24023438 .70996096C.23330689 .71028646 .22736614 .71069338 .22241211 .71118167 .21745809 .7116699 .2116801 .71223959 .20507813 .7128906 .17196656 .6666667 .11402384 .64127609 .03125 .63671877L.024902344 .6743164C.057454427 .6772461 .08626302 .68269857 .111328128 .6906738 .13639324 .6986491 .15478516 .7088216 .1665039 .7211914 .14371746 .72281906 .12272135 .73030599 .103515628 .74365237 .0843099 .7569987 .07470703 .77766928 .07470703 .80566409 .07470703 .82747396 .08233134 .84627279 .097579959 .86206057 .112838748 .8778483 .13198853 .8857422 .1550293 .8857422 .17807007 .8857422 .19721477 .8783366 .21246338 .8635254 .22772217 .8487142 .23535156 .82926437 .23535156 .8051758 .23535156 .7869466 .23095703 .76692709 .22216797 .7451172 .22682698 .7444661 .2341512 .74365237 .24414063 .7426758L.24023438 .70996096M.18318177 .7529297C.18674214 .7610677 .18981426 .7697754 .19239807 .77905276 .19499207 .7883301 .19628906 .796875 .19628906 .8046875 .19628906 .8170573 .19248455 .82698568 .18487549 .83447268 .17727661 .84195968 .16797383 .8457031 .15696717 .8457031 .14435323 .8457031 .13407898 .8413086 .12614441 .83251956 .11822001 .82373049 .11425781 .8141276 .11425781 .80371096 .11425781 .7871094 .12113444 .7755534 .1348877 .76904299 .14864095 .76253256 .16473897 .75716146 .18318177 .7529297M.16845703 .61328127C.16910808 .5999349 .17000325 .58618167 .17114258 .5720215 .1722819 .5578613 .17553711 .5460612 .1809082 .5366211 .1862793 .52718099 .19563802 .52246096 .20898438 .52246096 .22005208 .52246096 .22753906 .5266927 .23144531 .53515627 .23535156 .5436198 .23730469 .5538737 .23730469 .56591799 .23730469 .57666018 .23627217 .5875651 .23420716 .5986328 .2321523 .6097005 .23009236 .6197917 .22802735 .62890627L.27294923 .6376953C.27913413 .616862 .28222657 .59554037 .28222657 .57373049 .28222657 .5447591 .2763672 .521403 .26464845 .5036621 .2529297 .48592124 .23404949 .47705079 .20800781 .47705079 .1998698 .47705079 .19059246 .47892253 .18017578 .48266603 .16975911 .48640953 .16113281 .4938151 .15429688 .5048828 .14941406 .4856771 .13972982 .47257487 .12524414 .46557618 .11075846 .45857749 .09586588 .45507813 .080566409 .45507813 .056803388 .45507813 .03938802 .46354167 .028320313 .48046876 .017252604 .49739585 .01171875 .5180664 .01171875 .54248049 .01171875 .55843099 .0139973959 .5751953 .018554688 .59277346L.05810547 .5864258C.05485026 .5727539 .053222658 .5598958 .053222658 .54785159 .053222658 .5358073 .055582685 .5253906 .060302736 .51660159 .06502279 .5078125 .07373047 .50341799 .08642578 .50341799 .10758463 .50341799 .11995443 .5109863 .123535159 .52612307 .12711589 .54125979 .12890625 .56396487 .12890625 .5942383L.12841797 .60839846 .16845703 .61328127Z"/>
<path id="font_1_68" d="M.4921875 0H.34423829L.3310547 .05908203C.31835938 .048990888 .30257163 .038411458 .2836914 .02734375 .2648112 .016276041 .24495442 .006917318 .2241211-.0007324219 .20328777-.008382161 .18326824-.012207031 .1640625-.012207031 .12792969-.012207031 .09724935-.00016276042 .072021488 .023925782 .04679362 .048014326 .034179689 .08105469 .034179689 .123046878 .034179689 .14160156 .037516279 .15885417 .044189454 .17480469 .05086263 .1907552 .064208988 .20597331 .084228519 .22045899 .10424805 .23494466 .1340332 .24910482 .17358399 .26293946 .21313477 .27677409 .265625 .29085288 .3310547 .30517579 .3310547 .30745445 .3310547 .31306968 .3310547 .32202149 .3310547 .3309733 .3310547 .339681 .3310547 .34814454 .3310547 .41389976 .29996745 .44677735 .23779297 .44677735 .22054036 .44677735 .20564778 .44514976 .19311524 .44189454 .18058269 .4386393 .171875 .43603517 .16699219 .43408204V.34716798H.09423828C.085123699 .34716798 .076660159 .34887696 .068847659 .35229493 .061035158 .3557129 .057128908 .36360679 .057128908 .37597657 .057128908 .4033203 .06754557 .42569987 .088378909 .44311524 .10921224 .4605306 .13566081 .47338868 .16772461 .48168946 .1997884 .48999024 .23225911 .49414063 .26513673 .49414063 .30647788 .49414063 .33854167 .48771159 .36132813 .47485353 .3841146 .46199546 .4000651 .44425456 .4091797 .42163087 .41829429 .39900718 .42285157 .37320964 .42285157 .34423829V.063964847C.42285157 .05777995 .42488609 .052652997 .42895509 .048583986 .43302409 .044514974 .43798829 .042317708 .44384767 .041992189L.4921875 .0390625V0M.3310547 .09423828V.26708985C.2861328 .25602214 .2504069 .24487305 .22387696 .23364258 .197347 .22241211 .17757161 .21118164 .16455078 .19995117 .15152996 .1887207 .14298503 .17732747 .13891602 .16577149 .134847 .1542155 .1328125 .14225261 .1328125 .12988281 .1328125 .109375 .1394043 .090413417 .15258789 .07299805 .16577149 .055582685 .1842448 .046875 .20800781 .046875 .22753906 .046875 .2491862 .052246095 .27294923 .06298828 .29671226 .07373047 .31608073 .08414713 .3310547 .09423828Z"/>
<path id="font_1_16" d="M.2758789 .203125H.043945314V.27783204H.2758789V.203125Z"/>
<path id="font_1_86" d="M.3491211 .35302735H.296875L.2890625 .42285157C.28190104 .4283854 .27132163 .43359376 .25732423 .43847657 .24332683 .44335938 .22851563 .44580079 .21289063 .44580079 .18554688 .44580079 .16520183 .43953453 .15185547 .42700196 .13850911 .4144694 .13183594 .3984375 .13183594 .37890626 .13183594 .36393229 .1352539 .35123698 .14208985 .3408203 .14892578 .33040367 .16048177 .3202311 .17675781 .31030274 .19303386 .30037437 .21516927 .28889976 .24316406 .2758789 .27799479 .25992839 .30680339 .24226888 .32958985 .22290039 .3523763 .2035319 .36376954 .17757161 .36376954 .14501953 .36376954 .09586588 .34684245 .057373048 .31298829 .029541016 .27913413 .0017089844 .23242188-.012207031 .17285156-.012207031 .14225261-.012207031 .11401367-.009033203 .088134769-.0026855469 .06225586 .0036621094 .044270833 .008951823 .034179689 .013183594V.1459961H.08496094L.09716797 .061035158C.10725912 .05452474 .11971029 .048258466 .13452149 .042236329 .14933269 .03621419 .1665039 .033203126 .18603516 .033203126 .21468099 .033203126 .2368164 .041178388 .2524414 .057128908 .2680664 .07307943 .2758789 .09098307 .2758789 .110839847 .2758789 .13688152 .2652181 .15730794 .24389649 .17211914 .22257488 .18693035 .19254558 .20361328 .1538086 .22216797 .11735026 .2397461 .08943685 .2578125 .07006836 .2763672 .05069987 .29492188 .041015626 .3191732 .041015626 .3491211 .041015626 .39371745 .056640626 .42903648 .087890628 .45507813 .119140628 .48111979 .16357422 .49414063 .2211914 .49414063 .25048829 .49414063 .27661134 .49145509 .29956056 .48608399 .32250978 .4807129 .33902995 .4757487 .3491211 .4711914V.35302735Z"/>
<path id="font_1_87" d="M.3330078 .020996094C.31966148 .013834636 .30037437 .0065104167 .27514649-.0009765625 .24991863-.008463542 .22428386-.012207031 .19824219-.012207031 .1608073-.012207031 .13354492-.0033365887 .11645508 .014404297 .099365238 .032145185 .09082031 .060709638 .09082031 .100097659V.4321289H.026855469V.46484376L.095214847 .4970703 .14013672 .60302737H.18408203V.4819336H.3251953V.4321289H.18408203V.15283203C.18408203 .11311849 .1907552 .08504232 .20410156 .068603519 .21744792 .052164716 .23746746 .043945314 .26416017 .043945314 .27848307 .043945314 .2919922 .045898439 .3046875 .049804689 .3173828 .053710939 .3268229 .057454427 .3330078 .061035158V.020996094Z"/>
<path id="font_1_72" d="M.26611329-.012207031C.2257487-.012207031 .1879069-.0031738282 .15258789 .014892578 .11726888 .032958986 .08870443 .060384115 .06689453 .09716797 .045084638 .13395183 .034179689 .18017578 .034179689 .23583985 .034179689 .2879232 .044270833 .33333335 .064453128 .3720703 .084635417 .41080729 .112467449 .44083659 .14794922 .4621582 .18343099 .48347984 .22379558 .49414063 .26904298 .49414063 .33121745 .49414063 .3779297 .47485353 .4091797 .4362793 .4404297 .39770509 .4560547 .3486328 .4560547 .2890625 .4560547 .28580729 .4560547 .28149415 .4560547 .27612306 .4560547 .27075196 .45572917 .26578776 .45507813 .26123048H.13085938C.13085938 .23583985 .13354492 .2105306 .13891602 .18530274 .14428711 .16007488 .15332031 .13720703 .16601563 .11669922 .17871094 .096191409 .19580078 .0797526 .21728516 .06738281 .23876953 .05501302 .265625 .048828126 .29785157 .048828126 .3264974 .048828126 .3544108 .055419923 .3815918 .068603519 .4087728 .08178711 .43359376 .09586588 .4560547 .110839847V.049804689C.4280599 .032552083 .39786784 .017903647 .36547853 .005859375 .3330892-.006184896 .29996745-.012207031 .26611329-.012207031M.13623047 .30615235H.35595704V.328125C.35595704 .3610026 .34806315 .38867188 .3322754 .4111328 .31648765 .43359376 .2919922 .44482423 .25878907 .44482423 .22591146 .44482423 .19791667 .43245445 .17480469 .40771485 .1516927 .38297526 .13883464 .3491211 .13623047 .30615235Z"/>
<path id="font_1_71" d="M.53808596 0H.38085938V.053222658C.3580729 .03564453 .33382163 .020345053 .30810548 .0073242189 .2823893-.0056966149 .25504557-.012207031 .22607422-.012207031 .19254558-.012207031 .1636556-.005126953 .1394043 .009033203 .11515299 .02319336 .09529623 .041992189 .079833988 .06542969 .06437174 .08886719 .052897138 .114746097 .045410158 .1430664 .037923177 .17138672 .034179689 .19970703 .034179689 .22802735 .034179689 .27327476 .04345703 .3161621 .06201172 .35668946 .080566409 .3972168 .10872396 .43025718 .14648438 .45581056 .1842448 .48136393 .23177083 .49414063 .2890625 .49414063 .30501304 .49414063 .32234703 .4925944 .34106446 .48950196 .3597819 .48640953 .37304688 .48388673 .38085938 .4819336V.66503909H.30517579V.6982422L.43408204 .7368164H.4741211V.063964847C.4741211 .05029297 .48111979 .04296875 .4951172 .041992189L.53808596 .0390625V0M.38085938 .09082031V.43115235C.37239585 .43408204 .3597819 .43725587 .34301759 .44067384 .32625328 .4440918 .31054688 .44580079 .29589845 .44580079 .24641927 .44580079 .20686849 .42749024 .1772461 .39086915 .1476237 .35424806 .1328125 .30566407 .1328125 .24511719 .1328125 .1907552 .14550781 .14567058 .17089844 .10986328 .19628906 .07405599 .2319336 .056152345 .27783204 .056152345 .2980143 .056152345 .31697593 .059977216 .3347168 .06762695 .35245768 .075276698 .36783854 .08300781 .38085938 .09082031Z"/>
<path id="font_1_89" d="M.51904299 .4428711 .4658203 .43701173 .29101563 0H.22607422L.064941409 .43701173 .009765625 .4428711V.4819336H.23095703V.4428711L.18310547 .4399414C.17757161 .43961589 .17317708 .43725587 .16992188 .43286134 .16666667 .4284668 .16601563 .4235026 .16796875 .41796876L.27978517 .10498047 .40283204 .41796876C.4051107 .4231771 .40478517 .4280599 .40185548 .4326172 .39892579 .43717448 .394694 .43961589 .38916017 .4399414L.34423829 .4428711V.4819336H.51904299V.4428711Z"/>
<path id="font_1_85" d="M.38085938 .3798828H.34179688C.33561198 .38736979 .3282064 .39379884 .31958009 .39916993 .31095378 .40454103 .30045573 .40722657 .28808595 .40722657 .2721354 .40722657 .25577799 .40169273 .23901367 .390625 .22224935 .37955729 .20524089 .36442057 .18798828 .34521485V.063964847C.18798828 .04996745 .19498699 .04264323 .20898438 .041992189L.27490235 .0390625V0H.024902344V.038085939L.07421875 .041992189C.080078128 .04264323 .08504232 .044921876 .08911133 .048828126 .093180339 .052734376 .095214847 .05777995 .095214847 .063964847V.4111328H.022949219V.44384767L.14697266 .4819336H.18798828V.3930664C.2163086 .425944 .2409668 .45100913 .2619629 .46826173 .28295899 .4855143 .3022461 .49414063 .31982423 .49414063 .33024089 .49414063 .34147135 .49251304 .35351563 .4892578 .3655599 .4860026 .37467448 .48258464 .38085938 .4790039V.3798828Z"/>
<path id="font_1_69" d="M.5209961 .26416017C.5209961 .21402996 .5110677 .16902669 .49121095 .12915039 .47135417 .089274089 .44026695 .05777995 .39794923 .03466797 .3556315 .011555989 .300944 0 .23388672 0H.08984375V.66503909H.014160156V.6982422L.1430664 .7368164H.18310547V.45703126C.1944987 .4625651 .212972 .47013346 .23852539 .47973634 .26407878 .4893392 .2915039 .49414063 .32080079 .49414063 .3647461 .49414063 .40152995 .4835612 .43115235 .46240235 .46077476 .4412435 .4831543 .41316734 .49829103 .37817384 .51342776 .34318034 .5209961 .30517579 .5209961 .26416017M.4189453 .24414063C.4189453 .30729167 .40559898 .35489909 .37890626 .3869629 .35221354 .4190267 .31461589 .4350586 .26611329 .4350586 .25504557 .4350586 .2409668 .43326823 .22387696 .4296875 .20678711 .42610679 .19319661 .42252604 .18310547 .4189453V.047851564C.19124349 .047526044 .19938152 .047281904 .20751953 .04711914 .21565755 .04695638 .22379558 .046875 .2319336 .046875 .29117839 .046875 .3371582 .061523439 .36987306 .09082031 .4025879 .12011719 .4189453 .17122396 .4189453 .24414063Z"/>
<path id="font_1_82" d="M.5097656 .24023438C.5097656 .19303386 .5 .15030925 .48046876 .11206055 .4609375 .07381185 .4333496 .04353841 .39770509 .021240235 .36206056-.0010579428 .31982423-.012207031 .2709961-.012207031 .22249349-.012207031 .1805013-.0011393229 .14501953 .020996094 .10953776 .04313151 .08219401 .07324219 .06298828 .111328128 .04378255 .14941406 .034179689 .19238281 .034179689 .24023438 .034179689 .2877604 .043863935 .33072917 .06323242 .36914063 .082600917 .4075521 .11027018 .43798829 .14624024 .46044923 .18221028 .48291017 .22477214 .49414063 .27392579 .49414063 .32373048 .49414063 .36621095 .4827474 .4013672 .45996095 .43652345 .43717448 .4633789 .40657554 .4819336 .36816407 .5004883 .3297526 .5097656 .28710938 .5097656 .24023438M.40576173 .24121094C.40576173 .27766929 .4009603 .3116862 .39135743 .34326173 .38175456 .37483726 .3671061 .40039063 .3474121 .41992188 .3277181 .43945313 .30289714 .44921876 .27294923 .44921876 .24202474 .44921876 .2167155 .43945313 .19702149 .41992188 .17732747 .40039063 .16276042 .37483726 .15332031 .34326173 .1438802 .3116862 .13916016 .27766929 .13916016 .24121094 .13916016 .20507813 .1439616 .17114258 .15356446 .1394043 .16316732 .107666019 .17781575 .08203125 .19750977 .0625 .21720378 .04296875 .24202474 .033203126 .27197267 .033203126 .30257163 .033203126 .3277181 .04296875 .3474121 .0625 .3671061 .08203125 .38175456 .10758463 .39135743 .13916016 .4009603 .17073567 .40576173 .20475261 .40576173 .24121094Z"/>
<path id="font_1_73" d="M.38916017 .6767578C.38916017 .66341146 .38582359 .6529134 .3791504 .6452637 .3724772 .63761398 .36539714 .63216146 .35791017 .62890627 .3504232 .62565109 .3453776 .62369796 .34277345 .6230469L.25097657 .6879883C.23665364 .6805013 .2232259 .66536459 .21069336 .6425781 .19816081 .6197917 .19189453 .58496096 .19189453 .53808596V.4741211H.31591798V.42285157H.19189453V.063964847C.19189453 .05777995 .19392903 .052652997 .19799805 .048583986 .20206706 .044514974 .20703125 .042317708 .21289063 .041992189L.27197267 .0390625V0H.028808594V.0390625L.078125 .041992189C.083984378 .042317708 .08894857 .044514974 .09301758 .048583986 .097086589 .052652997 .099121097 .05777995 .099121097 .063964847V.42285157H.03515625V.4580078L.099121097 .47607423C.099121097 .50895187 .10164388 .5362142 .10668945 .5578613 .11173502 .5795085 .12044271 .60221359 .1328125 .62597659 .15234375 .663737 .17749024 .6916504 .20825196 .7097168 .23901367 .7277832 .27067057 .7368164 .30322267 .7368164 .33154298 .7368164 .35294596 .7308757 .36743165 .71899417 .38191734 .7071126 .38916017 .6930339 .38916017 .6767578Z"/>
<path id="font_1_76" d="M.21777344 .64697268C.21777344 .6300456 .21191406 .6154785 .20019531 .6032715 .18847656 .59106448 .17415364 .58496096 .15722656 .58496096 .14029949 .58496096 .12573242 .59106448 .11352539 .6032715 .10131836 .6154785 .095214847 .6300456 .095214847 .64697268 .095214847 .6642253 .10131836 .67871096 .11352539 .6904297 .12573242 .70214846 .14029949 .7080078 .15722656 .7080078 .17415364 .7080078 .18847656 .70214846 .20019531 .6904297 .21191406 .67871096 .21777344 .6642253 .21777344 .64697268M.26904298 0H.034179689V.0390625L.08300781 .041992189C.09700521 .04296875 .104003909 .05029297 .104003909 .063964847V.42089845H.03515625V.4560547L.15722656 .49414063H.19677735V.063964847C.19677735 .05777995 .19881185 .052652997 .20288086 .048583986 .20694988 .044514974 .21191406 .042317708 .21777344 .041992189L.26904298 .0390625V0Z"/>
<path id="font_1_80" d="M.828125 0H.6040039V.0390625L.6459961 .041992189C.65999349 .04296875 .6669922 .05029297 .6669922 .063964847V.31884767C.6669922 .34977214 .6605632 .37451173 .6477051 .3930664 .634847 .4116211 .6116536 .42089845 .578125 .42089845 .56152346 .42089845 .5433757 .41829429 .52368167 .41308595 .5039876 .4078776 .48649089 .40120445 .4711914 .3930664V.063964847C.4711914 .05029297 .4781901 .04296875 .4921875 .041992189L.5341797 .0390625V0H.3149414V.0390625L.3569336 .041992189C.370931 .04296875 .3779297 .05029297 .3779297 .063964847V.3251953C.3779297 .35351563 .3712565 .37654624 .35791017 .3942871 .3445638 .41202799 .3219401 .42089845 .29003907 .42089845 .27115885 .42089845 .25146485 .4177246 .23095703 .41137696 .21044922 .4050293 .1944987 .39860026 .18310547 .39208985V.063964847C.18310547 .05029297 .19010417 .04296875 .20410156 .041992189L.24609375 .0390625V0H.020019532V.0390625L.068847659 .041992189C.082845058 .04296875 .08984375 .05029297 .08984375 .063964847V.4111328H.020996094V.44384767L.14208985 .4819336H.18310547V.4321289C.19807942 .4412435 .21492513 .45052085 .23364258 .45996095 .25236003 .46940104 .27148438 .47745768 .29101563 .48413087 .31054688 .49080406 .3289388 .49414063 .3461914 .49414063 .37516276 .49414063 .39860026 .48673503 .4165039 .47192384 .43440757 .45711265 .44759117 .44140626 .4560547 .4248047 .46940104 .43326823 .48632813 .44295249 .50683596 .45385743 .52734377 .46476237 .548584 .47420249 .57055667 .48217774 .5925293 .49015299 .6123047 .49414063 .6298828 .49414063 .66503909 .49414063 .69189456 .48608399 .7104492 .4699707 .7290039 .45385743 .7416992 .43400065 .74853518 .4104004 .7553711 .38680015 .75878909 .36360679 .75878909 .3408203V.063964847C.75878909 .05777995 .76082357 .052652997 .7648926 .048583986 .7689616 .044514974 .7739258 .042317708 .77978518 .041992189L.828125 .0390625V0Z"/>
<path id="font_1_180" d="M.39208985 .70214846C.38264976 .69108077 .37141929 .6780599 .35839845 .66308596 .3453776 .648112 .33390299 .6312663 .3239746 .6125488 .31404624 .59383139 .30908204 .5732422 .30908204 .55078127 .30908204 .54752609 .30924479 .5440267 .3095703 .5402832 .30989585 .53653976 .3100586 .5333659 .3100586 .5307617H.37304688L.38061524 .5197754C.3856608 .5124512 .3881836 .5032552 .3881836 .4921875 .3881836 .4752604 .38264976 .46069337 .37158204 .44848634 .3605143 .4362793 .34602867 .43017579 .328125 .43017579 .30208335 .43017579 .28173829 .4388021 .26708985 .4560547 .2524414 .47330729 .24511719 .4962565 .24511719 .52490237 .24511719 .5489909 .24951172 .5710449 .25830079 .59106448 .26708985 .611084 .27775065 .62890627 .2902832 .64453127 .30281578 .66015627 .31510417 .67333987 .32714845 .68408206 .33919273 .6948242 .34847007 .703125 .35498048 .7089844L.39208985 .70214846M.18603516 .70214846C.16617839 .6822917 .14737956 .65966799 .12963867 .63427737 .11189779 .6088867 .103027347 .5807292 .103027347 .5498047 .103027347 .5465495 .1031901 .5432129 .103515628 .5397949 .10384115 .53637698 .104003909 .5333659 .104003909 .5307617H.16699219L.17456055 .5202637C.17960613 .51326498 .1821289 .50358077 .1821289 .49121095 .1821289 .47428385 .17667644 .45987956 .16577149 .44799806 .15486653 .43611656 .14029949 .43017579 .12207031 .43017579 .096354167 .43017579 .07609049 .43847657 .061279298 .45507813 .046468099 .4716797 .0390625 .49430339 .0390625 .5229492 .0390625 .5473633 .04345703 .56974288 .052246095 .5900879 .061035158 .6104329 .07169596 .6284993 .084228519 .6442871 .09676107 .6600749 .10904948 .67333987 .12109375 .68408206 .13313802 .6948242 .14241536 .703125 .14892578 .7089844L.18603516 .70214846Z"/>
<path id="font_1_55" d="M.5830078 .51123049H.5239258L.5097656 .60498049C.507487 .6163737 .5019531 .6220703 .49316407 .6220703H.35009767V.068847659C.35009767 .063964847 .35180665 .059244794 .3552246 .0546875 .35864259 .050130208 .36393229 .047526044 .37109376 .046875L.4350586 .04296875V0H.1640625V.04296875L.22802735 .046875C.2351888 .047526044 .24047852 .050130208 .24389649 .0546875 .24731446 .059244794 .24902344 .063964847 .24902344 .068847659V.6220703H.10498047C.094563808 .6220703 .08886719 .6163737 .087890628 .60498049L.07421875 .51123049H.016113282V.67089846H.5830078V.51123049Z"/>
<path id="font_1_75" d="M.55078127 0H.328125V.0390625L.36914063 .041992189C.375 .04264323 .38012696 .044921876 .38452149 .048828126 .38891603 .052734376 .39111329 .05777995 .39111329 .063964847V.32177735C.39111329 .3504232 .38427735 .37410484 .37060548 .39282228 .3569336 .4115397 .33072917 .42089845 .2919922 .42089845 .27441407 .42089845 .25545249 .4181315 .23510742 .41259767 .21476238 .4070638 .19742839 .40022788 .18310547 .39208985V.063964847C.18310547 .05029297 .18977864 .04296875 .203125 .041992189L.24609375 .0390625V0H.020996094V.0390625L.068847659 .041992189C.082845058 .04296875 .08984375 .05029297 .08984375 .063964847V.66503909H.015136719V.6982422L.1430664 .7368164H.18310547V.4321289C.19514974 .43961589 .21077474 .4481608 .22998047 .45776368 .2491862 .46736656 .2693685 .47583009 .29052735 .4831543 .3116862 .49047853 .33089195 .49414063 .34814454 .49414063 .386556 .49414063 .41878257 .48177085 .44482423 .45703126 .47086589 .43229167 .48388673 .39420573 .48388673 .34277345V.063964847C.48388673 .05777995 .48608399 .052734376 .49047853 .048828126 .49487306 .044921876 .5 .04264323 .5058594 .041992189L.55078127 .0390625V0Z"/>
<path id="font_1_92" d="M.52001956 .4428711 .46777345 .43701173 .2758789-.030761719C.27164714-.041503908 .26505534-.056884767 .25610353-.0769043 .24715169-.09692383 .23657227-.11743164 .22436524-.13842774 .2121582-.15942383 .19905599-.17692058 .1850586-.19091797 .17301433-.20296224 .15974935-.21232097 .14526367-.21899414 .130778-.22566732 .11507162-.2290039 .09814453-.2290039 .07438151-.2290039 .056233724-.2232259 .043701173-.21166992 .03116862-.20011394 .024902344-.18684896 .024902344-.171875 .024902344-.14973958 .03564453-.12972005 .057128908-.111816409L.1508789-.15478516C.16194661-.14371746 .17301433-.12874349 .18408203-.10986328 .19514974-.09098307 .2051595-.07145182 .21411133-.05126953 .22306316-.03108724 .22998047-.013671875 .23486328 .0009765625L.064941409 .43701173 .009765625 .4428711V.4819336H.23095703V.4428711L.18310547 .4399414C.17757161 .43961589 .1730957 .43725587 .16967774 .43286134 .16625977 .4284668 .16569011 .4235026 .16796875 .41796876L.2841797 .123046878 .40283204 .41796876C.4051107 .4231771 .40478517 .4280599 .40185548 .4326172 .39892579 .43717448 .394694 .43961589 .38916017 .4399414L.34179688 .4428711V.4819336H.52001956V.4428711Z"/>
<path id="font_1_88" d="M.546875 0H.3881836V.057128908C.37679038 .048339845 .3623047 .03857422 .34472657 .027832032 .32714845 .017089844 .30826823 .0077311198 .28808595-.00024414063 .26790367-.008219401 .24788411-.012207031 .22802735-.012207031 .1850586-.012207031 .15128581 .0007324219 .12670899 .026611329 .102132167 .052490236 .08984375 .09358724 .08984375 .14990235V.42089845H.020019532V.45507813L.1430664 .49414063H.18310547V.16894531C.18310547 .13346355 .19034831 .10579427 .20483399 .0859375 .21931966 .06608073 .24430339 .056152345 .27978517 .056152345 .30029298 .056152345 .32047526 .05965169 .34033204 .06665039 .3601888 .073649089 .3761393 .080078128 .3881836 .0859375V.42089845H.3178711V.45507813L.4399414 .49414063H.48095704V.063964847C.48095704 .05777995 .4831543 .052734376 .48754884 .048828126 .49194337 .044921876 .4970703 .04264323 .5029297 .041992189L.546875 .0390625V0Z"/>
<path id="font_1_83" d="M.52490237 .24804688C.52490237 .19563802 .5148112 .14990235 .4946289 .110839847 .47444663 .071777347 .44547526 .041503908 .40771485 .020019532 .36995445-.0014648438 .32470704-.012207031 .27197267-.012207031 .2569987-.012207031 .2421875-.011230469 .22753906-.009277344 .21289063-.0073242189 .19807942-.0052083337 .18310547-.0029296876V-.15185547C.18310547-.15804036 .18522136-.16292317 .18945313-.1665039 .19368489-.17008464 .19889324-.17220052 .20507813-.17285156L.26416017-.17919922V-.21777344H.020996094V-.17919922L.068847659-.17285156C.082845058-.17122396 .08984375-.16422527 .08984375-.15185547V.4111328H.020996094V.44384767L.14404297 .4819336H.18310547V.4321289C.20589192 .44970704 .23046875 .46443687 .25683595 .47631837 .28320313 .48819987 .30891929 .49414063 .33398438 .49414063 .3684896 .49414063 .40014649 .4839681 .42895509 .46362306 .45776368 .44327799 .48095704 .41471354 .49853517 .3779297 .5161133 .34114585 .52490237 .29785157 .52490237 .24804688M.4248047 .23388672C.4248047 .26839195 .41951499 .29996745 .40893556 .32861329 .3983561 .35725913 .3827311 .3802897 .36206056 .39770509 .34138999 .41512046 .31575523 .42382813 .28515626 .42382813 .26822917 .42382813 .25065104 .4207357 .23242188 .41455079 .2141927 .40836589 .1977539 .40152995 .18310547 .39404298V.049804689C.21044922 .03938802 .23746746 .034179689 .26416017 .034179689 .300944 .034179689 .33113609 .043619794 .35473634 .0625 .37833659 .08138021 .3959147 .106038417 .4074707 .13647461 .4190267 .16691081 .4248047 .19938152 .4248047 .23388672Z"/>
<path id="font_1_49" d="M.69189456 .6279297 .63623049 .62402346C.62906906 .62369796 .6237793 .6211751 .6203613 .6164551 .61694338 .61173507 .6152344 .6069336 .6152344 .6020508V0H.5371094L.16503906 .5600586V.068847659C.16503906 .063964847 .16674805 .059244794 .17016602 .0546875 .17358399 .050130208 .1788737 .047526044 .18603516 .046875L.24316406 .04296875V0H.026855469V.04296875L.083984378 .046875C.091145839 .047526044 .096598308 .050130208 .1003418 .0546875 .10408529 .059244794 .10595703 .063964847 .10595703 .068847659V.6020508C.10595703 .6069336 .10408529 .61173507 .1003418 .6164551 .096598308 .6211751 .091145839 .62369796 .083984378 .62402346L.024902344 .6279297V.67089846H.22314453V.6459961L.55615237 .1430664V.6020508C.55615237 .6069336 .554362 .61173507 .55078127 .6164551 .5472005 .6211751 .5419922 .62369796 .53515627 .62402346L.47802735 .6279297V.67089846H.69189456V.6279297Z"/>
<path id="font_1_74" d="M.5078125 .41503907H.40820313C.4156901 .40299479 .42203776 .3898112 .4272461 .37548829 .43245445 .36116538 .4350586 .34440104 .4350586 .3251953 .4350586 .29003907 .4248047 .26017253 .40429688 .2355957 .38378907 .21101888 .35717774 .19278972 .3244629 .1809082 .29174806 .16902669 .2566732 .16438802 .21923828 .16699219 .21402996 .15852864 .21085613 .1492513 .2097168 .13916016 .20857747 .12906902 .20841472 .120279949 .20922852 .11279297 .21004232 .10530599 .21061199 .10107422 .2109375 .100097659 .22884114 .09814453 .2495931 .09586588 .27319337 .09326172 .2967936 .090657558 .3207194 .08658854 .3449707 .08105469 .36922203 .075520839 .3917643 .067871097 .41259767 .05810547 .433431 .048339845 .4501953 .03548177 .46289063 .01953125 .47558595 .0035807293 .4819336-.016276041 .4819336-.040039064 .4819336-.071614589 .4703776-.10180664 .44726563-.13061524 .42415367-.15942383 .39298503-.1830241 .35375978-.20141602 .31453453-.21980794 .27067057-.2290039 .22216797-.2290039 .16259766-.2290039 .116373699-.2154134 .083496097-.18823242 .05061849-.16105144 .034179689-.12727864 .034179689-.08691406 .034179689-.057942708 .04280599-.032145185 .060058595-.009521484 .077311199 .013102214 .104003909 .027669272 .14013672 .034179689 .13655599 .044596357 .13395183 .052083333 .13232422 .056640626 .13069661 .061197919 .12988281 .069010417 .12988281 .080078128 .12988281 .09309896 .13387044 .10750326 .1418457 .123291019 .14982097 .13907878 .16259766 .15592449 .18017578 .17382813 .14697266 .18131511 .118001308 .19816081 .09326172 .22436524 .06852213 .25056968 .056152345 .28385417 .056152345 .32421876 .056152345 .3766276 .07462565 .41805015 .111572269 .44848634 .14851888 .47892253 .19694011 .49414063 .25683595 .49414063 .28059898 .49414063 .30265299 .49064128 .32299806 .48364259 .3433431 .4766439 .36002604 .4700521 .37304688 .4638672H.5078125V.41503907M.33984376 .3310547C.33984376 .35221354 .33626304 .3720703 .32910157 .390625 .3219401 .4091797 .31152345 .42423503 .29785157 .43579103 .2841797 .44734703 .2672526 .453125 .24707031 .453125 .21907552 .453125 .19620769 .44230143 .1784668 .4206543 .1607259 .39900718 .15185547 .3688151 .15185547 .33007813 .15185547 .29654948 .15983074 .26782228 .17578125 .24389649 .19173177 .2199707 .2154948 .20800781 .24707031 .20800781 .27701823 .20800781 .29996745 .22005208 .31591798 .24414063 .3318685 .26822917 .33984376 .29720054 .33984376 .3310547M.3959961-.06689453C.3959961-.0460612 .38875328-.029947916 .37426759-.018554688 .3597819-.0071614587 .34179688 .0013020834 .3203125 .0068359377 .29882813 .012369792 .277181 .016357422 .2553711 .018798829 .2335612 .021240235 .21516927 .023925782 .20019531 .026855469 .17122396 .016438803 .15128581 .0022786458 .14038086-.015625 .1294759-.033528646 .12402344-.05061849 .12402344-.06689453 .12402344-.082845058 .12866211-.099853519 .13793946-.11791992 .1472168-.13598633 .16153972-.15136719 .1809082-.1640625 .20027669-.17675781 .22493489-.18310547 .2548828-.18310547 .28678385-.18310547 .31315104-.17675781 .33398438-.1640625 .35481773-.15136719 .37036134-.13598633 .38061524-.11791992 .39086915-.099853519 .3959961-.082845058 .3959961-.06689453Z"/>
<path id="font_1_51" d="M.54003909 .46923829C.54003909 .42008464 .5283203 .37931315 .5048828 .34692384 .4814453 .31453453 .45003257 .2903646 .41064454 .27441407 .3712565 .25846354 .3273112 .25065104 .2788086 .25097657 .26578776 .25097657 .25138346 .25154624 .2355957 .25268556 .21980794 .25382487 .21061199 .25455729 .20800781 .2548828V.068847659C.20800781 .063964847 .2097168 .059244794 .21313477 .0546875 .21655274 .050130208 .22184246 .047526044 .2290039 .046875L.29492188 .04296875V0H.032226564V.04296875L.08496094 .046875C.0921224 .047526044 .09757487 .050130208 .10131836 .0546875 .10506185 .059244794 .106933597 .063964847 .106933597 .068847659V.6020508C.106933597 .6069336 .10506185 .61173507 .10131836 .6164551 .09757487 .6211751 .0921224 .62369796 .08496094 .62402346L.024902344 .6279297V.67089846H.26416017C.3585612 .67089846 .42814128 .6557617 .4729004 .6254883 .5176595 .59521487 .54003909 .54313156 .54003909 .46923829M.43603517 .46777345C.43603517 .51627609 .42244468 .55411788 .39526368 .5812988 .36808268 .6084798 .32259117 .6220703 .25878907 .6220703 .24967449 .6220703 .2389323 .62190756 .2265625 .62158206L.20800781 .62109377V.30615235C.20963542 .30615235 .21704102 .30525718 .23022461 .3034668 .2434082 .30167643 .25472007 .30078126 .26416017 .30078126 .316569 .30045573 .35831706 .3137207 .3894043 .34057618 .42049156 .36743165 .43603517 .40983073 .43603517 .46777345Z"/>
<path id="font_1_90" d="M.7729492 .4428711 .72216799 .43701173 .58496096 0H.51416018L.3959961 .37402345 .26416017 0H.1928711L.064941409 .43701173 .009765625 .4428711V.4819336H.2290039V.4428711L.1821289 .4399414C.17659505 .43961589 .17236328 .43725587 .1694336 .43286134 .1665039 .4284668 .16569011 .4235026 .16699219 .41796876L.25 .106933597 .37890626 .4819336H.4501953L.56591799 .106933597 .6582031 .41796876C.65983077 .4231771 .65926107 .4280599 .65649417 .4326172 .65372726 .43717448 .64957687 .43961589 .64404299 .4399414L.59814456 .4428711V.4819336H.7729492V.4428711Z"/>
<path id="font_1_181" d="M.4140625 .61621096C.4140625 .5917969 .40966798 .5694173 .4008789 .54907229 .39208985 .52872726 .38142906 .5106608 .36889649 .49487306 .35636393 .4790853 .34407554 .4658203 .33203126 .45507813 .31998698 .44433595 .31070964 .43603517 .30419923 .43017579L.26708985 .43798829C.28727214 .45817057 .3063151 .48079429 .32421876 .5058594 .3421224 .5309245 .35107423 .55891928 .35107423 .58984377 .35107423 .5934245 .3507487 .59676107 .35009767 .5998535 .34944663 .602946 .3491211 .60563156 .3491211 .60791018H.2861328L.27856446 .6191406C.2735189 .6266276 .2709961 .63655599 .2709961 .6489258 .2709961 .6661784 .27652995 .6805013 .28759767 .69189456 .29866538 .7032878 .31315104 .7089844 .3310547 .7089844 .3564453 .7089844 .3766276 .70060226 .39160157 .6838379 .40657554 .66707357 .4140625 .64453127 .4140625 .61621096M.20800781 .6152344C.20800781 .5911458 .20361328 .5690918 .19482422 .54907229 .18603516 .52905276 .17537435 .5111491 .1628418 .49536134 .15030925 .47957359 .13802083 .4662272 .12597656 .45532228 .11393229 .44441734 .104654949 .43603517 .09814453 .43017579L.061035158 .43798829C.07047526 .449056 .08170573 .46199546 .09472656 .47680665 .1077474 .49161784 .11922201 .5083008 .12915039 .52685549 .13907878 .54541018 .14404297 .5657552 .14404297 .5878906 .14404297 .5914714 .1438802 .5951335 .14355469 .59887698 .14322917 .6026204 .1430664 .60563156 .1430664 .60791018H.080078128L.072509769 .6196289C.067464198 .6274414 .064941409 .63688156 .064941409 .6479492 .064941409 .66520187 .07063802 .6796875 .08203125 .69140627 .09342448 .703125 .108072917 .7089844 .12597656 .7089844 .15201824 .7089844 .17220052 .70043948 .18652344 .6833496 .20084636 .66625979 .20800781 .6435547 .20800781 .6152344Z"/>
</defs>
<use data-text="." xlink:href="#font_1_17" transform="matrix(16.438357,0,0,-16.438357,23.166,16.965302)" fill="#343a40"/>
<use data-text="&#x0644;" xlink:href="#font_2_1262" transform="matrix(16.438357,0,0,-16.438357,89.40855,16.965302)" fill="#343a40"/>
<use data-text="&#x064e;" xlink:href="#font_2_728" transform="matrix(16.438357,0,0,-16.438357,89.7699,14.0844)" fill="#343a40"/>
<use data-text="&#x064a;" xlink:href="#font_2_1290" transform="matrix(16.438357,0,0,-16.438357,83.44545,16.965302)" fill="#343a40"/>
<use data-text="&#x0652;" xlink:href="#font_2_737" transform="matrix(16.438357,0,0,-16.438357,84.98655,17.374497)" fill="#343a40"/>
<use data-text="&#x0644;" xlink:href="#font_2_1263" transform="matrix(16.438357,0,0,-16.438357,78.219898,16.965302)" fill="#343a40"/>
<use data-text="&#x064e;" xlink:href="#font_2_728" transform="matrix(16.438357,0,0,-16.438357,78.573,14.0844)" fill="#343a40"/>
<use data-text="&#x0629;" xlink:href="#font_2_1183" transform="matrix(16.438357,0,0,-16.438357,69.696,16.965302)" fill="#343a40"/>
<use data-text="&#x064e;" xlink:href="#font_2_728" transform="matrix(16.438357,0,0,-16.438357,72.0159,13.947449)" fill="#343a40"/>
<use data-text="&#x0671;" xlink:href="#font_2_781" transform="matrix(16.438357,0,0,-16.438357,61.4691,16.965302)" fill="#343a40"/>
<use data-text="&#x0644;" xlink:href="#font_2_1262" transform="matrix(16.438357,0,0,-16.438357,56.734857,16.965302)" fill="#343a40"/>
<use data-text="&#x0652;" xlink:href="#font_2_737" transform="matrix(16.438357,0,0,-16.438357,57.753297,12.431099)" fill="#343a40"/>
<use data-text="&#x0642;" xlink:href="#font_2_1255" transform="matrix(16.438357,0,0,-16.438357,48.55455,16.965302)" fill="#343a40"/>
<use data-text="&#x064e;" xlink:href="#font_2_728" transform="matrix(16.438357,0,0,-16.438357,50.35965,14.8797039)" fill="#343a40"/>
<use data-text="&#x062f;" xlink:href="#font_2_1209" transform="matrix(16.438357,0,0,-16.438357,39.812849,16.965302)" fill="#343a40"/>
<use data-text="&#x0652;" xlink:href="#font_2_737" transform="matrix(16.438357,0,0,-16.438357,42.22185,15.280651)" fill="#343a40"/>
<use data-text="&#x0631;" xlink:href="#font_2_691" transform="matrix(16.438357,0,0,-16.438357,34.186349,16.965302)" fill="#343a40"/>
<use data-text="&#x0650;" xlink:href="#font_2_731" transform="matrix(16.438357,0,0,-16.438357,34.668149,19.90395)" fill="#343a40"/>
<use data-text="&#x0633;" xlink:href="#font_2_1218" transform="matrix(16.438357,0,0,-16.438357,163.56615,16.965302)" fill="#343a40"/>
<use data-text="&#x064e;" xlink:href="#font_2_728" transform="matrix(16.438357,0,0,-16.438357,168.44684,18.506398)" fill="#343a40"/>
<use data-text="&#x0647;" xlink:href="#font_2_1277" transform="matrix(16.438357,0,0,-16.438357,155.37885,16.965302)" fill="#343a40"/>
<use data-text="&#x064e;" xlink:href="#font_2_728" transform="matrix(16.438357,0,0,-16.438357,157.3935,16.925698)" fill="#343a40"/>
<use data-text="&#x0631;" xlink:href="#font_2_1213" transform="matrix(16.438357,0,0,-16.438357,149.02965,16.965302)" fill="#343a40"/>
<use data-text="&#x064e;" xlink:href="#font_2_728" transform="matrix(16.438357,0,0,-16.438357,149.91405,19.341301)" fill="#343a40"/>
<use data-text="&#x062a;" xlink:href="#font_2_684" transform="matrix(16.438357,0,0,-16.438357,135.93856,16.965302)" fill="#343a40"/>
<use data-text="&#x0650;" xlink:href="#font_2_731" transform="matrix(16.438357,0,0,-16.438357,141.09975,16.7178)" fill="#343a40"/>
<use data-text="&#x0671;" xlink:href="#font_2_781" transform="matrix(16.438357,0,0,-16.438357,127.71165,16.965302)" fill="#343a40"/>
<use data-text="&#xfef7;" xlink:href="#font_2_1297" transform="matrix(16.438357,0,0,-16.438357,118.36935,16.965302)" fill="#343a40"/>
<use data-text="&#x0652;" xlink:href="#font_2_737" transform="matrix(16.438357,0,0,-16.438357,124.09155,12.439354)" fill="#343a40"/>
<use data-text="&#x064f;" xlink:href="#font_2_730" transform="matrix(16.438357,0,0,-16.438357,117.42225,9.444595)" fill="#343a40"/>
<use data-text="&#x0645;" xlink:href="#font_2_718" transform="matrix(16.438357,0,0,-16.438357,108.5931,16.965302)" fill="#343a40"/>
<use data-text="&#x0651;" xlink:href="#font_2_736" transform="matrix(16.438357,0,0,-16.438357,112.084499,16.476899)" fill="#343a40"/>
<path transform="matrix(1.65,0,0,-1.65,23.166,16.965302)" stroke-width=".3985" stroke-linecap="butt" stroke-miterlimit="10" stroke-linejoin="miter" fill="none" stroke="#343a40" d="M-.19925-4.72015C.17433-5.46736 1.04608-5.9655 2.29143-5.9655H20.47766C21.723-5.9655 22.59477-6.46362 22.96835-7.21085 23.34195-6.46362 24.2137-5.9655 25.45905-5.9655H43.64528C44.89063-5.9655 45.76239-5.46736 46.13597-4.72015"/>
<use data-text="a" xlink:href="#font_1_68" transform="matrix(11.506852,0,0,-11.506852,5.4796507,42.0486)" fill="#343a40"/>
<use data-text="-" xlink:href="#font_1_16" transform="matrix(11.506852,0,0,-11.506852,11.3366379,42.0486)" fill="#343a40"/>
<use data-text="s" xlink:href="#font_1_86" transform="matrix(11.506852,0,0,-11.506852,15.018831,42.0486)" fill="#343a40"/>
<use data-text="t" xlink:href="#font_1_87" transform="matrix(11.506852,0,0,-11.506852,19.598559,42.0486)" fill="#343a40"/>
<use data-text="a" xlink:href="#font_1_68" transform="matrix(11.506852,0,0,-11.506852,23.51089,42.0486)" fill="#343a40"/>
<use data-text="t" xlink:href="#font_1_87" transform="matrix(11.506852,0,0,-11.506852,29.367878,42.0486)" fill="#343a40"/>
<use data-text="e" xlink:href="#font_1_72" transform="matrix(11.506852,0,0,-11.506852,33.28021,42.0486)" fill="#343a40"/>
<use data-text="a" xlink:href="#font_1_68" transform="matrix(11.506852,0,0,-11.506852,42.290075,42.0486)" fill="#343a40"/>
<use data-text="d" xlink:href="#font_1_71" transform="matrix(11.506852,0,0,-11.506852,48.147066,42.0486)" fill="#343a40"/>
<use data-text="v" xlink:href="#font_1_89" transform="matrix(11.506852,0,0,-11.506852,54.636926,42.0486)" fill="#343a40"/>
<use data-text="e" xlink:href="#font_1_72" transform="matrix(11.506852,0,0,-11.506852,60.562959,42.0486)" fill="#343a40"/>
<use data-text="r" xlink:href="#font_1_85" transform="matrix(11.506852,0,0,-11.506852,66.20132,42.0486)" fill="#343a40"/>
<use data-text="b" xlink:href="#font_1_69" transform="matrix(11.506852,0,0,-11.506852,70.70049,42.0486)" fill="#343a40"/>
<use data-text="o" xlink:href="#font_1_82" transform="matrix(11.506852,0,0,-11.506852,80.4468,42.0486)" fill="#343a40"/>
<use data-text="f" xlink:href="#font_1_73" transform="matrix(11.506852,0,0,-11.506852,86.70653,42.0486)" fill="#343a40"/>
<use data-text="t" xlink:href="#font_1_87" transform="matrix(11.506852,0,0,-11.506852,93.82927,42.0486)" fill="#343a40"/>
<use data-text="i" xlink:href="#font_1_76" transform="matrix(11.506852,0,0,-11.506852,97.7416,42.0486)" fill="#343a40"/>
<use data-text="m" xlink:href="#font_1_80" transform="matrix(11.506852,0,0,-11.506852,101.22817,42.0486)" fill="#343a40"/>
<use data-text="e" xlink:href="#font_1_72" transform="matrix(11.506852,0,0,-11.506852,111.009,42.0486)" fill="#343a40"/>
<use data-text="&#x201c;" xlink:href="#font_1_180" transform="matrix(16.438357,0,0,-16.438357,13.12905,69.25215)" fill="#343a40"/>
<use data-text="T" xlink:href="#font_1_55" transform="matrix(16.438357,0,0,-16.438357,20.575627,69.25215)" fill="#343a40"/>
<use data-text="h" xlink:href="#font_1_75" transform="matrix(16.438357,0,0,-16.438357,30.422204,69.25215)" fill="#343a40"/>
<use data-text="e" xlink:href="#font_1_72" transform="matrix(16.438357,0,0,-16.438357,39.85782,69.25215)" fill="#343a40"/>
<use data-text="m" xlink:href="#font_1_80" transform="matrix(16.438357,0,0,-16.438357,52.72905,69.25215)" fill="#343a40"/>
<use data-text="o" xlink:href="#font_1_82" transform="matrix(16.438357,0,0,-16.438357,66.70165,69.25215)" fill="#343a40"/>
<use data-text="t" xlink:href="#font_1_87" transform="matrix(16.438357,0,0,-16.438357,75.64412,69.25215)" fill="#343a40"/>
<use data-text="h" xlink:href="#font_1_75" transform="matrix(16.438357,0,0,-16.438357,81.167407,69.25215)" fill="#343a40"/>
<use data-text="e" xlink:href="#font_1_72" transform="matrix(16.438357,0,0,-16.438357,90.60302,69.25215)" fill="#343a40"/>
<use data-text="r" xlink:href="#font_1_85" transform="matrix(16.438357,0,0,-16.438357,98.65782,69.25215)" fill="#343a40"/>
<use data-text="s" xlink:href="#font_1_86" transform="matrix(16.438357,0,0,-16.438357,109.885219,69.25215)" fill="#343a40"/>
<use data-text="t" xlink:href="#font_1_87" transform="matrix(16.438357,0,0,-16.438357,116.42768,69.25215)" fill="#343a40"/>
<use data-text="a" xlink:href="#font_1_68" transform="matrix(16.438357,0,0,-16.438357,122.01672,69.25215)" fill="#343a40"/>
<use data-text="y" xlink:href="#font_1_92" transform="matrix(16.438357,0,0,-16.438357,129.92357,69.25215)" fill="#343a40"/>
<use data-text="e" xlink:href="#font_1_72" transform="matrix(16.438357,0,0,-16.438357,138.38933,69.25215)" fill="#343a40"/>
<use data-text="d" xlink:href="#font_1_71" transform="matrix(16.438357,0,0,-16.438357,146.44412,69.25215)" fill="#343a40"/>
<use data-text="u" xlink:href="#font_1_88" transform="matrix(16.438357,0,0,-16.438357,160.51535,69.25215)" fill="#343a40"/>
<use data-text="p" xlink:href="#font_1_83" transform="matrix(16.438357,0,0,-16.438357,169.86876,69.25215)" fill="#343a40"/>
<use data-text="t" xlink:href="#font_1_87" transform="matrix(16.438357,0,0,-16.438357,183.87424,69.25215)" fill="#343a40"/>
<use data-text="h" xlink:href="#font_1_75" transform="matrix(16.438357,0,0,-16.438357,189.39754,69.25215)" fill="#343a40"/>
<use data-text="e" xlink:href="#font_1_72" transform="matrix(16.438357,0,0,-16.438357,198.83316,69.25215)" fill="#343a40"/>
<use data-text="N" xlink:href="#font_1_49" transform="matrix(16.438357,0,0,-16.438357,211.68796,69.25215)" fill="#343a40"/>
<use data-text="i" xlink:href="#font_1_76" transform="matrix(16.438357,0,0,-16.438357,223.54,69.25215)" fill="#343a40"/>
<use data-text="g" xlink:href="#font_1_74" transform="matrix(16.438357,0,0,-16.438357,228.52082,69.25215)" fill="#343a40"/>
<use data-text="h" xlink:href="#font_1_75" transform="matrix(16.438357,0,0,-16.438357,237.15097,69.25215)" fill="#343a40"/>
<use data-text="t" xlink:href="#font_1_87" transform="matrix(16.438357,0,0,-16.438357,246.58658,69.25215)" fill="#343a40"/>
<use data-text="o" xlink:href="#font_1_82" transform="matrix(16.438357,0,0,-16.438357,256.99208,69.25215)" fill="#343a40"/>
<use data-text="f" xlink:href="#font_1_73" transform="matrix(16.438357,0,0,-16.438357,265.9345,69.25215)" fill="#343a40"/>
<use data-text="P" xlink:href="#font_1_51" transform="matrix(16.438357,0,0,-16.438357,276.10987,69.25215)" fill="#343a40"/>
<use data-text="o" xlink:href="#font_1_82" transform="matrix(16.438357,0,0,-16.438357,285.47975,69.25215)" fill="#343a40"/>
<use data-text="w" xlink:href="#font_1_90" transform="matrix(16.438357,0,0,-16.438357,294.19206,69.25215)" fill="#343a40"/>
<use data-text="e" xlink:href="#font_1_72" transform="matrix(16.438357,0,0,-16.438357,306.8167,69.25215)" fill="#343a40"/>
<use data-text="r" xlink:href="#font_1_85" transform="matrix(16.438357,0,0,-16.438357,314.87153,69.25215)" fill="#343a40"/>
<use data-text="." xlink:href="#font_1_17" transform="matrix(16.438357,0,0,-16.438357,320.34547,69.25215)" fill="#343a40"/>
<use data-text="&#x201d;" xlink:href="#font_1_181" transform="matrix(16.438357,0,0,-16.438357,323.33726,69.25215)" fill="#343a40"/>
</svg>
