<svg xmlns="http://www.w3.org/2000/svg" xmlns:xlink="http://www.w3.org/1999/xlink" xmlns:inkscape="http://www.inkscape.org/namespaces/inkscape" version="1.1" width="182.39427" height="76.57269" viewBox="0 0 182.39427 76.57269">
<defs>
<path id="font_1_17" d="M.19580078 .05517578C.19580078 .036621095 .18912761 .020751954 .17578125 .0075683596 .16243489-.0056152346 .14648438-.012207031 .12792969-.012207031 .109375-.012207031 .09358724-.0056152346 .080566409 .0075683596 .06754557 .020751954 .061035158 .036621095 .061035158 .05517578 .061035158 .073404949 .06754557 .08911133 .080566409 .10229492 .09358724 .115478519 .109375 .12207031 .12792969 .12207031 .14648438 .12207031 .16243489 .115478519 .17578125 .10229492 .18912761 .08911133 .19580078 .073404949 .19580078 .05517578Z"/>
<path id="font_2_781" d="M.15722656 .6088867V.00048828127H.07470703V.6088867H.15722656M-.025390625 .6904297-.016601563 .73095706C-.012369792 .7273763-.006754557 .72281906 .00024414063 .71728518 .0072428386 .7117513 .013671875 .70784506 .01953125 .7055664 .045898439 .7501628 .069742839 .7821452 .09106445 .8015137 .11238607 .82088217 .13590496 .8305664 .1616211 .8305664 .18766277 .8305664 .20898438 .8224284 .22558594 .80615237 .2421875 .7898763 .25048829 .76953127 .25048829 .7451172 .25048829 .7125651 .23909505 .6897786 .2163086 .6767578 .19352214 .663737 .15413411 .65722659 .09814453 .65722659H.0859375C.056640626 .65722659 .032552083 .6599121 .013671875 .6652832-.0052083337 .6706543-.018229166 .67903646-.025390625 .6904297M.09716797 .69921877C.13916016 .69921877 .16837566 .7020671 .18481446 .7077637 .20125325 .71346029 .20947266 .72526046 .20947266 .74316409 .20947266 .7558594 .20532227 .7664388 .19702149 .77490237 .1887207 .7833659 .17773438 .78759768 .1640625 .78759768 .14615886 .78759768 .13004558 .7809245 .115722659 .7675781 .10139974 .75423178 .08382162 .7314453 .06298828 .69921877H.09716797Z"/>
<path id="font_2_1262" d="M-.009765625 .08886719H.03125C.0703125 .08886719 .09667969 .0999349 .11035156 .12207031 .12402344 .14420574 .13085938 .171875 .13085938 .20507813V.6723633H.2133789V.2055664C.2133789 .13785808 .19873047 .08666992 .1694336 .052001954 .14013672 .017333985 .09391276 0 .030761719 0H-.009765625V.08886719Z"/>
<path id="font_2_737" d="M.020507813 .5673828C.020507813 .5908203 .028889975 .6110026 .045654298 .6279297 .06241862 .64485678 .08251953 .6533203 .10595703 .6533203 .12939453 .6533203 .14949544 .64485678 .16625977 .6279297 .1830241 .6110026 .19140625 .5908203 .19140625 .5673828 .19140625 .5439453 .1830241 .5238444 .16625977 .5070801 .14949544 .49031578 .12939453 .4819336 .10595703 .4819336 .08251953 .4819336 .06241862 .49031578 .045654298 .5070801 .028889975 .5238444 .020507813 .5439453 .020507813 .5673828M.059570314 .5673828C.059570314 .554362 .06404623 .54345706 .07299805 .53466799 .08194987 .5258789 .092936199 .5214844 .10595703 .5214844 .11897787 .5214844 .12988281 .5258789 .13867188 .53466799 .14746094 .54345706 .15185547 .554362 .15185547 .5673828 .15185547 .5804036 .14746094 .5914714 .13867188 .60058596 .12988281 .6097005 .11897787 .6142578 .10595703 .6142578 .092936199 .6142578 .08194987 .6097005 .07299805 .60058596 .06404623 .5914714 .059570314 .5804036 .059570314 .5673828Z"/>
<path id="font_2_1268" d="M.01171875 0H-.009765625V.08886719H.009277344C.03108724 .08886719 .049479169 .09513346 .064453128 .107666019 .079427089 .12019857 .09277344 .13639324 .10449219 .15625 .11621094 .17610677 .12784831 .19718425 .1394043 .21948242 .15096028 .2417806 .16389974 .26285807 .17822266 .28271485 .19254558 .30257163 .20987956 .31876628 .23022461 .33129884 .25056968 .3438314 .27571617 .35009767 .30566407 .35009767 .35677085 .35009767 .39648438 .33455406 .4248047 .3034668 .453125 .27237956 .47216798 .23372396 .4819336 .1875 .488444 .15559896 .4995931 .13118489 .51538088 .11425781 .53116866 .09733073 .5494792 .08886719 .5703125 .08886719H.5830078V0H.5698242C.5489909 0 .5286458 .004313151 .50878909 .012939453 .48893229 .021565756 .472819 .03531901 .46044923 .05419922 .44677735 .03434245 .42985026 .018473307 .40966798 .006591797 .3894857-.0052897136 .36328126-.011230469 .3310547-.011230469 .2985026-.011230469 .2684733-.0041503908 .2409668 .010009766 .21346028 .024169922 .18489583 .045572919 .15527344 .07421875 .13411458 .05045573 .11376953 .032145185 .09423828 .01928711 .07470703 .0064290368 .04720052 0 .01171875 0M.3076172 .26367188C.29134117 .26367188 .27652995 .2582194 .2631836 .24731446 .24983724 .2364095 .23779297 .22233074 .22705078 .20507813 .2163086 .18782552 .20670574 .16992188 .19824219 .15136719 .20898438 .14029949 .21972656 .1303711 .23046875 .12158203 .24121094 .11279297 .2516276 .10530599 .26171876 .099121097 .2877604 .08317057 .31054688 .07519531 .33007813 .07519531 .37825523 .07519531 .40234376 .09944662 .40234376 .14794922 .40234376 .18180339 .39396159 .20955403 .37719728 .23120117 .36043296 .2528483 .3372396 .26367188 .3076172 .26367188Z"/>
<path id="font_2_728" d="M.03173828 .5571289V.6035156L.2397461 .68847659V.64208987L.03173828 .5571289Z"/>
<path id="font_2_1173" d="M.07470703 .6723633H.15722656V.2055664C.15722656 .15966797 .16569011 .12874349 .18261719 .11279297 .19954427 .096842449 .22509766 .08886719 .25927735 .08886719H.27148438V0H.25927735C.19710286 0 .15079753 .016520182 .12036133 .049560548 .08992513 .082600917 .07470703 .13476563 .07470703 .20605469V.6723633Z"/>
<path id="font_2_675" d="M.14746094 .20898438C.14746094 .19596355 .15307617 .18139649 .16430664 .1652832 .17553711 .14916992 .19335938 .13444011 .21777344 .12109375 .23958333 .1282552 .25797526 .13411458 .27294923 .13867188 .2879232 .14322917 .3018392 .14705403 .31469728 .15014649 .32755534 .15323894 .34147135 .15608724 .3564453 .1586914V.076171878C.31608073 .06738281 .27189128 .05452474 .22387696 .037597658 .17586263 .020670573 .12060547-.0047200524 .05810547-.03857422L.045410158 .04296875C.06201172 .051757814 .075683597 .05891927 .08642578 .064453128 .09716797 .06998698 .11311849 .07747396 .13427735 .08691406 .11051432 .108072917 .09423828 .1283366 .08544922 .14770508 .076660159 .16707357 .072265628 .18733724 .072265628 .2084961 .072265628 .23616536 .07910156 .26163737 .09277344 .2849121 .10644531 .30818687 .12491862 .3268229 .14819336 .3408203 .1714681 .35481773 .19710286 .3618164 .22509766 .3618164 .2475586 .3618164 .26822917 .35888673 .28710938 .35302735 .3059896 .34716798 .3251953 .3370768 .34472657 .3227539L.31982423 .25732423C.30192057 .26611329 .28605143 .2722982 .2722168 .2758789 .25838218 .27945964 .24479167 .28125 .23144531 .28125 .20833333 .28125 .18855794 .2738444 .17211914 .2590332 .15568035 .244222 .14746094 .22753906 .14746094 .20898438Z"/>
<path id="font_2_730" d="M.22460938 .52197268C.21777344 .52229818 .21191406 .5227051 .20703125 .52319338 .20214844 .52368167 .19645183 .5242513 .1899414 .52490237 .15673828 .47867839 .09863281 .45328776 .015625 .44873048L.009277344 .48632813C.041829427 .4892578 .07063802 .4947103 .095703128 .50268557 .12076823 .5106608 .13916016 .5208333 .1508789 .5332031 .12809246 .53483077 .10709635 .5423177 .087890628 .55566409 .0686849 .56901046 .05908203 .58968099 .05908203 .6176758 .05908203 .63948568 .06673177 .6582845 .08203125 .67407229 .09733073 .68986007 .11653646 .6977539 .13964844 .6977539 .16276042 .6977539 .18196614 .6903483 .19726563 .6755371 .21256511 .6607259 .22021485 .64127609 .22021485 .6171875 .22021485 .5989583 .21582031 .5789388 .20703125 .5571289 .21158855 .55647787 .21875 .55566409 .22851563 .5546875L.22460938 .52197268M.16796875 .5649414C.17154949 .5730794 .17464192 .5817871 .1772461 .59106448 .17985027 .6003418 .18115235 .6088867 .18115235 .6166992 .18115235 .62906906 .17732747 .6389974 .16967774 .6464844 .162028 .6539714 .15266927 .65771487 .14160156 .65771487 .12890625 .65771487 .11857096 .6533203 .1105957 .64453127 .102620448 .6357422 .09863281 .62613937 .09863281 .61572268 .09863281 .5991211 .10555013 .5875651 .119384769 .5810547 .1332194 .57454428 .14941406 .56917318 .16796875 .5649414Z"/>
<path id="font_2_1222" d="M.4350586 .64208987 .50097659 .5761719 .4350586 .5102539 .36914063 .5761719 .4350586 .64208987M.5185547 .5185547 .58447268 .45263673 .5185547 .38671876 .45263673 .45263673 .5185547 .5185547M.3515625 .5185547 .41748048 .45263673 .3515625 .38671876 .28564454 .45263673 .3515625 .5185547M.3305664 0C.2931315 0 .26424156 .0064290368 .24389649 .01928711 .22355144 .032145185 .20735677 .05061849 .1953125 .07470703 .18001302 .05061849 .16048177 .032145185 .13671875 .01928711 .11295573 .0064290368 .07910156 0 .03515625 0H-.009765625V.08886719H.036132814C.07779948 .08886719 .10823568 .096598308 .1274414 .11206055 .14664714 .12752278 .15625 .15576172 .15625 .19677735 .15625 .20524089 .1558431 .21525066 .1550293 .22680664 .1542155 .23836263 .1529948 .25455729 .15136719 .27539063L.23291016 .28564454 .24072266 .18359375C.24267578 .15625 .25105796 .1336263 .26586915 .115722659 .28068034 .09781901 .30257163 .08886719 .33154298 .08886719 .3660482 .08886719 .3894857 .09814453 .40185548 .11669922 .41422526 .1352539 .42041017 .16194661 .42041017 .19677735 .42041017 .20524089 .42000328 .21533203 .41918946 .22705078 .41837565 .23876953 .41715495 .2548828 .41552735 .27539063L.4970703 .28564454 .5048828 .18359375C.50651046 .15722656 .5135091 .134847 .5258789 .11645508 .5382487 .09806315 .55826827 .08886719 .5859375 .08886719 .61295577 .08886719 .63151046 .098958339 .64160159 .119140628 .6516927 .13932292 .6567383 .16292317 .6567383 .1899414 .6567383 .21435547 .65437826 .2389323 .6496582 .26367188 .6449382 .28841148 .6407878 .308431 .63720706 .32373048L.7207031 .3461914C.7265625 .3243815 .73128256 .30118815 .7348633 .27661134 .73844406 .25203453 .7402344 .22753906 .7402344 .203125 .7402344 .16796875 .73535159 .13492839 .72558596 .104003909 .7158203 .07307943 .6997884 .048095704 .67749026 .029052735 .6551921 .010009766 .6248372 .00032552085 .5864258 0 .5551758 0 .52994796 .0065104167 .5107422 .01953125 .49153648 .032552083 .47591148 .05094401 .4638672 .07470703 .44563804 .048339845 .42537437 .029296875 .40307618 .017578125 .38077799 .005859375 .35660807 0 .3305664 0Z"/>
<path id="font_2_1213" d="M.3828125 0C.36035157 0 .34155274 .0030110677 .32641603 .009033203 .3112793 .015055339 .29947917 .021484375 .29101563 .028320313 .2861328-.014322917 .27433268-.055582685 .25561524-.095458988 .23689778-.13533528 .20882161-.17008464 .17138672-.19970703 .13395183-.22932942 .084472659-.25016276 .022949219-.26220704L-.005859375-.1850586C.07356771-.16780599 .1295573-.13761394 .16210938-.09448242 .19466146-.05135091 .2109375-.00032552085 .2109375 .05859375 .2109375 .08626302 .20792644 .11531576 .2019043 .14575196 .19588216 .17618816 .1875 .20719402 .17675781 .23876953L.2578125 .26611329 .2841797 .1640625C.29134117 .13671875 .30273438 .11735026 .31835938 .10595703 .33398438 .094563808 .35367839 .08886719 .3774414 .08886719H.3959961V0H.3828125Z"/>
<path id="font_2_731" d="M.028320313-.24658203V-.20019531L.23632813-.115234378V-.1616211L.028320313-.24658203Z"/>
<path id="font_2_682" d="M.453125-.07470703 .5239258-.14550781 .453125-.2163086 .38232423-.14550781 .453125-.07470703M.53125 0H.41748048C.29475913 0 .20255535 .016601563 .14086914 .049804689 .079182948 .08300781 .048339845 .14046224 .048339845 .22216797 .048339845 .2446289 .05086263 .26660157 .055908204 .28808595 .060953779 .3095703 .06754557 .33024089 .075683597 .35009767L.15136719 .32177735C.14615886 .30745445 .1418457 .29215495 .13842774 .2758789 .13500977 .25960288 .13330078 .24414063 .13330078 .22949219 .1336263 .19140625 .14436849 .16219075 .16552735 .1418457 .1866862 .12150065 .21826172 .10758463 .2602539 .100097659 .3022461 .09261068 .35465495 .08886719 .41748048 .08886719H.5317383C.5538737 .08886719 .5770671 .08951823 .60131838 .09082031 .62556967 .0921224 .6482747 .095703128 .6694336 .1015625 .69059249 .107421878 .70784506 .11726888 .7211914 .13110352 .7345378 .14493816 .74121096 .16438802 .74121096 .18945313 .74121096 .2076823 .7394206 .22941081 .73583987 .25463868 .7322591 .27986656 .72802737 .30485026 .72314456 .32958985L.80810549 .35107423C.81396487 .3256836 .81844076 .2993978 .8215332 .2722168 .8246257 .24503581 .8261719 .22135417 .8261719 .20117188 .8261719 .15690105 .8186849 .12141927 .80371096 .09472656 .788737 .06803385 .76782229 .047851564 .7409668 .034179689 .7141113 .020507813 .6828613 .0113932299 .6472168 .0068359377 .61157229 .0022786458 .5729167 0 .53125 0Z"/>
<path id="font_1_71" d="M.53808596 0H.38085938V.053222658C.3580729 .03564453 .33382163 .020345053 .30810548 .0073242189 .2823893-.0056966149 .25504557-.012207031 .22607422-.012207031 .19254558-.012207031 .1636556-.005126953 .1394043 .009033203 .11515299 .02319336 .09529623 .041992189 .079833988 .06542969 .06437174 .08886719 .052897138 .114746097 .045410158 .1430664 .037923177 .17138672 .034179689 .19970703 .034179689 .22802735 .034179689 .27327476 .04345703 .3161621 .06201172 .35668946 .080566409 .3972168 .10872396 .43025718 .14648438 .45581056 .1842448 .48136393 .23177083 .49414063 .2890625 .49414063 .30501304 .49414063 .32234703 .4925944 .34106446 .48950196 .3597819 .48640953 .37304688 .48388673 .38085938 .4819336V.66503909H.30517579V.6982422L.43408204 .7368164H.4741211V.063964847C.4741211 .05029297 .48111979 .04296875 .4951172 .041992189L.53808596 .0390625V0M.38085938 .09082031V.43115235C.37239585 .43408204 .3597819 .43725587 .34301759 .44067384 .32625328 .4440918 .31054688 .44580079 .29589845 .44580079 .24641927 .44580079 .20686849 .42749024 .1772461 .39086915 .1476237 .35424806 .1328125 .30566407 .1328125 .24511719 .1328125 .1907552 .14550781 .14567058 .17089844 .10986328 .19628906 .07405599 .2319336 .056152345 .27783204 .056152345 .2980143 .056152345 .31697593 .059977216 .3347168 .06762695 .35245768 .075276698 .36783854 .08300781 .38085938 .09082031Z"/>
<path id="font_1_72" d="M.26611329-.012207031C.2257487-.012207031 .1879069-.0031738282 .15258789 .014892578 .11726888 .032958986 .08870443 .060384115 .06689453 .09716797 .045084638 .13395183 .034179689 .18017578 .034179689 .23583985 .034179689 .2879232 .044270833 .33333335 .064453128 .3720703 .084635417 .41080729 .112467449 .44083659 .14794922 .4621582 .18343099 .48347984 .22379558 .49414063 .26904298 .49414063 .33121745 .49414063 .3779297 .47485353 .4091797 .4362793 .4404297 .39770509 .4560547 .3486328 .4560547 .2890625 .4560547 .28580729 .4560547 .28149415 .4560547 .27612306 .4560547 .27075196 .45572917 .26578776 .45507813 .26123048H.13085938C.13085938 .23583985 .13354492 .2105306 .13891602 .18530274 .14428711 .16007488 .15332031 .13720703 .16601563 .11669922 .17871094 .096191409 .19580078 .0797526 .21728516 .06738281 .23876953 .05501302 .265625 .048828126 .29785157 .048828126 .3264974 .048828126 .3544108 .055419923 .3815918 .068603519 .4087728 .08178711 .43359376 .09586588 .4560547 .110839847V.049804689C.4280599 .032552083 .39786784 .017903647 .36547853 .005859375 .3330892-.006184896 .29996745-.012207031 .26611329-.012207031M.13623047 .30615235H.35595704V.328125C.35595704 .3610026 .34806315 .38867188 .3322754 .4111328 .31648765 .43359376 .2919922 .44482423 .25878907 .44482423 .22591146 .44482423 .19791667 .43245445 .17480469 .40771485 .1516927 .38297526 .13883464 .3491211 .13623047 .30615235Z"/>
<path id="font_1_83" d="M.52490237 .24804688C.52490237 .19563802 .5148112 .14990235 .4946289 .110839847 .47444663 .071777347 .44547526 .041503908 .40771485 .020019532 .36995445-.0014648438 .32470704-.012207031 .27197267-.012207031 .2569987-.012207031 .2421875-.011230469 .22753906-.009277344 .21289063-.0073242189 .19807942-.0052083337 .18310547-.0029296876V-.15185547C.18310547-.15804036 .18522136-.16292317 .18945313-.1665039 .19368489-.17008464 .19889324-.17220052 .20507813-.17285156L.26416017-.17919922V-.21777344H.020996094V-.17919922L.068847659-.17285156C.082845058-.17122396 .08984375-.16422527 .08984375-.15185547V.4111328H.020996094V.44384767L.14404297 .4819336H.18310547V.4321289C.20589192 .44970704 .23046875 .46443687 .25683595 .47631837 .28320313 .48819987 .30891929 .49414063 .33398438 .49414063 .3684896 .49414063 .40014649 .4839681 .42895509 .46362306 .45776368 .44327799 .48095704 .41471354 .49853517 .3779297 .5161133 .34114585 .52490237 .29785157 .52490237 .24804688M.4248047 .23388672C.4248047 .26839195 .41951499 .29996745 .40893556 .32861329 .3983561 .35725913 .3827311 .3802897 .36206056 .39770509 .34138999 .41512046 .31575523 .42382813 .28515626 .42382813 .26822917 .42382813 .25065104 .4207357 .23242188 .41455079 .2141927 .40836589 .1977539 .40152995 .18310547 .39404298V.049804689C.21044922 .03938802 .23746746 .034179689 .26416017 .034179689 .300944 .034179689 .33113609 .043619794 .35473634 .0625 .37833659 .08138021 .3959147 .106038417 .4074707 .13647461 .4190267 .16691081 .4248047 .19938152 .4248047 .23388672Z"/>
<path id="font_1_88" d="M.546875 0H.3881836V.057128908C.37679038 .048339845 .3623047 .03857422 .34472657 .027832032 .32714845 .017089844 .30826823 .0077311198 .28808595-.00024414063 .26790367-.008219401 .24788411-.012207031 .22802735-.012207031 .1850586-.012207031 .15128581 .0007324219 .12670899 .026611329 .102132167 .052490236 .08984375 .09358724 .08984375 .14990235V.42089845H.020019532V.45507813L.1430664 .49414063H.18310547V.16894531C.18310547 .13346355 .19034831 .10579427 .20483399 .0859375 .21931966 .06608073 .24430339 .056152345 .27978517 .056152345 .30029298 .056152345 .32047526 .05965169 .34033204 .06665039 .3601888 .073649089 .3761393 .080078128 .3881836 .0859375V.42089845H.3178711V.45507813L.4399414 .49414063H.48095704V.063964847C.48095704 .05777995 .4831543 .052734376 .48754884 .048828126 .49194337 .044921876 .4970703 .04264323 .5029297 .041992189L.546875 .0390625V0Z"/>
<path id="font_1_87" d="M.3330078 .020996094C.31966148 .013834636 .30037437 .0065104167 .27514649-.0009765625 .24991863-.008463542 .22428386-.012207031 .19824219-.012207031 .1608073-.012207031 .13354492-.0033365887 .11645508 .014404297 .099365238 .032145185 .09082031 .060709638 .09082031 .100097659V.4321289H.026855469V.46484376L.095214847 .4970703 .14013672 .60302737H.18408203V.4819336H.3251953V.4321289H.18408203V.15283203C.18408203 .11311849 .1907552 .08504232 .20410156 .068603519 .21744792 .052164716 .23746746 .043945314 .26416017 .043945314 .27848307 .043945314 .2919922 .045898439 .3046875 .049804689 .3173828 .053710939 .3268229 .057454427 .3330078 .061035158V.020996094Z"/>
<path id="font_1_92" d="M.52001956 .4428711 .46777345 .43701173 .2758789-.030761719C.27164714-.041503908 .26505534-.056884767 .25610353-.0769043 .24715169-.09692383 .23657227-.11743164 .22436524-.13842774 .2121582-.15942383 .19905599-.17692058 .1850586-.19091797 .17301433-.20296224 .15974935-.21232097 .14526367-.21899414 .130778-.22566732 .11507162-.2290039 .09814453-.2290039 .07438151-.2290039 .056233724-.2232259 .043701173-.21166992 .03116862-.20011394 .024902344-.18684896 .024902344-.171875 .024902344-.14973958 .03564453-.12972005 .057128908-.111816409L.1508789-.15478516C.16194661-.14371746 .17301433-.12874349 .18408203-.10986328 .19514974-.09098307 .2051595-.07145182 .21411133-.05126953 .22306316-.03108724 .22998047-.013671875 .23486328 .0009765625L.064941409 .43701173 .009765625 .4428711V.4819336H.23095703V.4428711L.18310547 .4399414C.17757161 .43961589 .1730957 .43725587 .16967774 .43286134 .16625977 .4284668 .16569011 .4235026 .16796875 .41796876L.2841797 .123046878 .40283204 .41796876C.4051107 .4231771 .40478517 .4280599 .40185548 .4326172 .39892579 .43717448 .394694 .43961589 .38916017 .4399414L.34179688 .4428711V.4819336H.52001956V.4428711Z"/>
<path id="font_1_82" d="M.5097656 .24023438C.5097656 .19303386 .5 .15030925 .48046876 .11206055 .4609375 .07381185 .4333496 .04353841 .39770509 .021240235 .36206056-.0010579428 .31982423-.012207031 .2709961-.012207031 .22249349-.012207031 .1805013-.0011393229 .14501953 .020996094 .10953776 .04313151 .08219401 .07324219 .06298828 .111328128 .04378255 .14941406 .034179689 .19238281 .034179689 .24023438 .034179689 .2877604 .043863935 .33072917 .06323242 .36914063 .082600917 .4075521 .11027018 .43798829 .14624024 .46044923 .18221028 .48291017 .22477214 .49414063 .27392579 .49414063 .32373048 .49414063 .36621095 .4827474 .4013672 .45996095 .43652345 .43717448 .4633789 .40657554 .4819336 .36816407 .5004883 .3297526 .5097656 .28710938 .5097656 .24023438M.40576173 .24121094C.40576173 .27766929 .4009603 .3116862 .39135743 .34326173 .38175456 .37483726 .3671061 .40039063 .3474121 .41992188 .3277181 .43945313 .30289714 .44921876 .27294923 .44921876 .24202474 .44921876 .2167155 .43945313 .19702149 .41992188 .17732747 .40039063 .16276042 .37483726 .15332031 .34326173 .1438802 .3116862 .13916016 .27766929 .13916016 .24121094 .13916016 .20507813 .1439616 .17114258 .15356446 .1394043 .16316732 .107666019 .17781575 .08203125 .19750977 .0625 .21720378 .04296875 .24202474 .033203126 .27197267 .033203126 .30257163 .033203126 .3277181 .04296875 .3474121 .0625 .3671061 .08203125 .38175456 .10758463 .39135743 .13916016 .4009603 .17073567 .40576173 .20475261 .40576173 .24121094Z"/>
<path id="font_1_85" d="M.38085938 .3798828H.34179688C.33561198 .38736979 .3282064 .39379884 .31958009 .39916993 .31095378 .40454103 .30045573 .40722657 .28808595 .40722657 .2721354 .40722657 .25577799 .40169273 .23901367 .390625 .22224935 .37955729 .20524089 .36442057 .18798828 .34521485V.063964847C.18798828 .04996745 .19498699 .04264323 .20898438 .041992189L.27490235 .0390625V0H.024902344V.038085939L.07421875 .041992189C.080078128 .04264323 .08504232 .044921876 .08911133 .048828126 .093180339 .052734376 .095214847 .05777995 .095214847 .063964847V.4111328H.022949219V.44384767L.14697266 .4819336H.18798828V.3930664C.2163086 .425944 .2409668 .45100913 .2619629 .46826173 .28295899 .4855143 .3022461 .49414063 .31982423 .49414063 .33024089 .49414063 .34147135 .49251304 .35351563 .4892578 .3655599 .4860026 .37467448 .48258464 .38085938 .4790039V.3798828Z"/>
<path id="font_1_180" d="M.39208985 .70214846C.38264976 .69108077 .37141929 .6780599 .35839845 .66308596 .3453776 .648112 .33390299 .6312663 .3239746 .6125488 .31404624 .59383139 .30908204 .5732422 .30908204 .55078127 .30908204 .54752609 .30924479 .5440267 .3095703 .5402832 .30989585 .53653976 .3100586 .5333659 .3100586 .5307617H.37304688L.38061524 .5197754C.3856608 .5124512 .3881836 .5032552 .3881836 .4921875 .3881836 .4752604 .38264976 .46069337 .37158204 .44848634 .3605143 .4362793 .34602867 .43017579 .328125 .43017579 .30208335 .43017579 .28173829 .4388021 .26708985 .4560547 .2524414 .47330729 .24511719 .4962565 .24511719 .52490237 .24511719 .5489909 .24951172 .5710449 .25830079 .59106448 .26708985 .611084 .27775065 .62890627 .2902832 .64453127 .30281578 .66015627 .31510417 .67333987 .32714845 .68408206 .33919273 .6948242 .34847007 .703125 .35498048 .7089844L.39208985 .70214846M.18603516 .70214846C.16617839 .6822917 .14737956 .65966799 .12963867 .63427737 .11189779 .6088867 .103027347 .5807292 .103027347 .5498047 .103027347 .5465495 .1031901 .5432129 .103515628 .5397949 .10384115 .53637698 .104003909 .5333659 .104003909 .5307617H.16699219L.17456055 .5202637C.17960613 .51326498 .1821289 .50358077 .1821289 .49121095 .1821289 .47428385 .17667644 .45987956 .16577149 .44799806 .15486653 .43611656 .14029949 .43017579 .12207031 .43017579 .096354167 .43017579 .07609049 .43847657 .061279298 .45507813 .046468099 .4716797 .0390625 .49430339 .0390625 .5229492 .0390625 .5473633 .04345703 .56974288 .052246095 .5900879 .061035158 .6104329 .07169596 .6284993 .084228519 .6442871 .09676107 .6600749 .10904948 .67333987 .12109375 .68408206 .13313802 .6948242 .14241536 .703125 .14892578 .7089844L.18603516 .70214846Z"/>
<path id="font_1_55" d="M.5830078 .51123049H.5239258L.5097656 .60498049C.507487 .6163737 .5019531 .6220703 .49316407 .6220703H.35009767V.068847659C.35009767 .063964847 .35180665 .059244794 .3552246 .0546875 .35864259 .050130208 .36393229 .047526044 .37109376 .046875L.4350586 .04296875V0H.1640625V.04296875L.22802735 .046875C.2351888 .047526044 .24047852 .050130208 .24389649 .0546875 .24731446 .059244794 .24902344 .063964847 .24902344 .068847659V.6220703H.10498047C.094563808 .6220703 .08886719 .6163737 .087890628 .60498049L.07421875 .51123049H.016113282V.67089846H.5830078V.51123049Z"/>
<path id="font_1_75" d="M.55078127 0H.328125V.0390625L.36914063 .041992189C.375 .04264323 .38012696 .044921876 .38452149 .048828126 .38891603 .052734376 .39111329 .05777995 .39111329 .063964847V.32177735C.39111329 .3504232 .38427735 .37410484 .37060548 .39282228 .3569336 .4115397 .33072917 .42089845 .2919922 .42089845 .27441407 .42089845 .25545249 .4181315 .23510742 .41259767 .21476238 .4070638 .19742839 .40022788 .18310547 .39208985V.063964847C.18310547 .05029297 .18977864 .04296875 .203125 .041992189L.24609375 .0390625V0H.020996094V.0390625L.068847659 .041992189C.082845058 .04296875 .08984375 .05029297 .08984375 .063964847V.66503909H.015136719V.6982422L.1430664 .7368164H.18310547V.4321289C.19514974 .43961589 .21077474 .4481608 .22998047 .45776368 .2491862 .46736656 .2693685 .47583009 .29052735 .4831543 .3116862 .49047853 .33089195 .49414063 .34814454 .49414063 .386556 .49414063 .41878257 .48177085 .44482423 .45703126 .47086589 .43229167 .48388673 .39420573 .48388673 .34277345V.063964847C.48388673 .05777995 .48608399 .052734376 .49047853 .048828126 .49487306 .044921876 .5 .04264323 .5058594 .041992189L.55078127 .0390625V0Z"/>
<path id="font_1_90" d="M.7729492 .4428711 .72216799 .43701173 .58496096 0H.51416018L.3959961 .37402345 .26416017 0H.1928711L.064941409 .43701173 .009765625 .4428711V.4819336H.2290039V.4428711L.1821289 .4399414C.17659505 .43961589 .17236328 .43725587 .1694336 .43286134 .1665039 .4284668 .16569011 .4235026 .16699219 .41796876L.25 .106933597 .37890626 .4819336H.4501953L.56591799 .106933597 .6582031 .41796876C.65983077 .4231771 .65926107 .4280599 .65649417 .4326172 .65372726 .43717448 .64957687 .43961589 .64404299 .4399414L.59814456 .4428711V.4819336H.7729492V.4428711Z"/>
<path id="font_1_68" d="M.4921875 0H.34423829L.3310547 .05908203C.31835938 .048990888 .30257163 .038411458 .2836914 .02734375 .2648112 .016276041 .24495442 .006917318 .2241211-.0007324219 .20328777-.008382161 .18326824-.012207031 .1640625-.012207031 .12792969-.012207031 .09724935-.00016276042 .072021488 .023925782 .04679362 .048014326 .034179689 .08105469 .034179689 .123046878 .034179689 .14160156 .037516279 .15885417 .044189454 .17480469 .05086263 .1907552 .064208988 .20597331 .084228519 .22045899 .10424805 .23494466 .1340332 .24910482 .17358399 .26293946 .21313477 .27677409 .265625 .29085288 .3310547 .30517579 .3310547 .30745445 .3310547 .31306968 .3310547 .32202149 .3310547 .3309733 .3310547 .339681 .3310547 .34814454 .3310547 .41389976 .29996745 .44677735 .23779297 .44677735 .22054036 .44677735 .20564778 .44514976 .19311524 .44189454 .18058269 .4386393 .171875 .43603517 .16699219 .43408204V.34716798H.09423828C.085123699 .34716798 .076660159 .34887696 .068847659 .35229493 .061035158 .3557129 .057128908 .36360679 .057128908 .37597657 .057128908 .4033203 .06754557 .42569987 .088378909 .44311524 .10921224 .4605306 .13566081 .47338868 .16772461 .48168946 .1997884 .48999024 .23225911 .49414063 .26513673 .49414063 .30647788 .49414063 .33854167 .48771159 .36132813 .47485353 .3841146 .46199546 .4000651 .44425456 .4091797 .42163087 .41829429 .39900718 .42285157 .37320964 .42285157 .34423829V.063964847C.42285157 .05777995 .42488609 .052652997 .42895509 .048583986 .43302409 .044514974 .43798829 .042317708 .44384767 .041992189L.4921875 .0390625V0M.3310547 .09423828V.26708985C.2861328 .25602214 .2504069 .24487305 .22387696 .23364258 .197347 .22241211 .17757161 .21118164 .16455078 .19995117 .15152996 .1887207 .14298503 .17732747 .13891602 .16577149 .134847 .1542155 .1328125 .14225261 .1328125 .12988281 .1328125 .109375 .1394043 .090413417 .15258789 .07299805 .16577149 .055582685 .1842448 .046875 .20800781 .046875 .22753906 .046875 .2491862 .052246095 .27294923 .06298828 .29671226 .07373047 .31608073 .08414713 .3310547 .09423828Z"/>
<path id="font_1_86" d="M.3491211 .35302735H.296875L.2890625 .42285157C.28190104 .4283854 .27132163 .43359376 .25732423 .43847657 .24332683 .44335938 .22851563 .44580079 .21289063 .44580079 .18554688 .44580079 .16520183 .43953453 .15185547 .42700196 .13850911 .4144694 .13183594 .3984375 .13183594 .37890626 .13183594 .36393229 .1352539 .35123698 .14208985 .3408203 .14892578 .33040367 .16048177 .3202311 .17675781 .31030274 .19303386 .30037437 .21516927 .28889976 .24316406 .2758789 .27799479 .25992839 .30680339 .24226888 .32958985 .22290039 .3523763 .2035319 .36376954 .17757161 .36376954 .14501953 .36376954 .09586588 .34684245 .057373048 .31298829 .029541016 .27913413 .0017089844 .23242188-.012207031 .17285156-.012207031 .14225261-.012207031 .11401367-.009033203 .088134769-.0026855469 .06225586 .0036621094 .044270833 .008951823 .034179689 .013183594V.1459961H.08496094L.09716797 .061035158C.10725912 .05452474 .11971029 .048258466 .13452149 .042236329 .14933269 .03621419 .1665039 .033203126 .18603516 .033203126 .21468099 .033203126 .2368164 .041178388 .2524414 .057128908 .2680664 .07307943 .2758789 .09098307 .2758789 .110839847 .2758789 .13688152 .2652181 .15730794 .24389649 .17211914 .22257488 .18693035 .19254558 .20361328 .1538086 .22216797 .11735026 .2397461 .08943685 .2578125 .07006836 .2763672 .05069987 .29492188 .041015626 .3191732 .041015626 .3491211 .041015626 .39371745 .056640626 .42903648 .087890628 .45507813 .119140628 .48111979 .16357422 .49414063 .2211914 .49414063 .25048829 .49414063 .27661134 .49145509 .29956056 .48608399 .32250978 .4807129 .33902995 .4757487 .3491211 .4711914V.35302735Z"/>
<path id="font_1_81" d="M.546875 0H.32617188V.0390625L.36816407 .041992189C.37402345 .04264323 .37898765 .044921876 .38305665 .048828126 .38712565 .052734376 .38916017 .05777995 .38916017 .063964847V.32421876C.38916017 .35579429 .38183595 .37980143 .3671875 .39624024 .35253907 .41267906 .32779948 .42089845 .29296876 .42089845 .27408854 .42089845 .2552897 .4182129 .23657227 .4128418 .21785482 .4074707 .20003255 .40055339 .18310547 .39208985V.063964847C.18310547 .05029297 .19010417 .04296875 .20410156 .041992189L.24609375 .0390625V0H.020019532V.0390625L.068847659 .041992189C.082845058 .04296875 .08984375 .05029297 .08984375 .063964847V.4111328H.020019532V.44384767L.14208985 .4819336H.18310547V.4321289C.21110027 .44807945 .23982747 .46240235 .2692871 .47509767 .29874674 .48779298 .32503257 .49414063 .34814454 .49414063 .3917643 .49414063 .42496745 .48055015 .4477539 .45336915 .47054038 .42618815 .4819336 .38834635 .4819336 .33984376V.063964847C.4819336 .05777995 .4839681 .052734376 .4880371 .048828126 .4921061 .044921876 .4970703 .04264323 .5029297 .041992189L.546875 .0390625V0Z"/>
<path id="font_1_78" d="M.5239258 0H.36376954V.0390625L.23876953 .22705078H.18310547V.063964847C.18310547 .05029297 .19010417 .04296875 .20410156 .041992189L.24707031 .0390625V0H.020019532V.0390625L.068847659 .041992189C.082845058 .04296875 .08984375 .05029297 .08984375 .063964847V.66503909H.014160156V.6982422L.14208985 .7368164H.18310547V.25585938H.203125L.35009767 .421875C.3527018 .42513023 .35310874 .42871095 .35131837 .4326172 .34952799 .43652345 .34635417 .4386393 .34179688 .43896485L.30078126 .4428711V.4819336H.4951172V.4428711L.43115235 .43603517 .29882813 .29492188 .4711914 .044921876 .5239258 .0390625V0Z"/>
<path id="font_1_181" d="M.4140625 .61621096C.4140625 .5917969 .40966798 .5694173 .4008789 .54907229 .39208985 .52872726 .38142906 .5106608 .36889649 .49487306 .35636393 .4790853 .34407554 .4658203 .33203126 .45507813 .31998698 .44433595 .31070964 .43603517 .30419923 .43017579L.26708985 .43798829C.28727214 .45817057 .3063151 .48079429 .32421876 .5058594 .3421224 .5309245 .35107423 .55891928 .35107423 .58984377 .35107423 .5934245 .3507487 .59676107 .35009767 .5998535 .34944663 .602946 .3491211 .60563156 .3491211 .60791018H.2861328L.27856446 .6191406C.2735189 .6266276 .2709961 .63655599 .2709961 .6489258 .2709961 .6661784 .27652995 .6805013 .28759767 .69189456 .29866538 .7032878 .31315104 .7089844 .3310547 .7089844 .3564453 .7089844 .3766276 .70060226 .39160157 .6838379 .40657554 .66707357 .4140625 .64453127 .4140625 .61621096M.20800781 .6152344C.20800781 .5911458 .20361328 .5690918 .19482422 .54907229 .18603516 .52905276 .17537435 .5111491 .1628418 .49536134 .15030925 .47957359 .13802083 .4662272 .12597656 .45532228 .11393229 .44441734 .104654949 .43603517 .09814453 .43017579L.061035158 .43798829C.07047526 .449056 .08170573 .46199546 .09472656 .47680665 .1077474 .49161784 .11922201 .5083008 .12915039 .52685549 .13907878 .54541018 .14404297 .5657552 .14404297 .5878906 .14404297 .5914714 .1438802 .5951335 .14355469 .59887698 .14322917 .6026204 .1430664 .60563156 .1430664 .60791018H.080078128L.072509769 .6196289C.067464198 .6274414 .064941409 .63688156 .064941409 .6479492 .064941409 .66520187 .07063802 .6796875 .08203125 .69140627 .09342448 .703125 .108072917 .7089844 .12597656 .7089844 .15201824 .7089844 .17220052 .70043948 .18652344 .6833496 .20084636 .66625979 .20800781 .6435547 .20800781 .6152344Z"/>
</defs>
<use data-text="." xlink:href="#font_1_17" transform="matrix(16.408476,0,0,-16.408476,15.45069,16.934823)" fill="#343a40"/>
<use data-text="&#x0671;" xlink:href="#font_2_781" transform="matrix(16.408476,0,0,-16.408476,51.519994,16.934823)" fill="#343a40"/>
<use data-text="&#x0644;" xlink:href="#font_2_1262" transform="matrix(16.408476,0,0,-16.408476,46.81076,16.934823)" fill="#343a40"/>
<use data-text="&#x0652;" xlink:href="#font_2_737" transform="matrix(16.408476,0,0,-16.408476,47.81058,12.409233)" fill="#343a40"/>
<use data-text="&#x0645;" xlink:href="#font_2_1268" transform="matrix(16.408476,0,0,-16.408476,37.3869,16.934823)" fill="#343a40"/>
<use data-text="&#x064e;" xlink:href="#font_2_728" transform="matrix(16.408476,0,0,-16.408476,39.895833,18.106022)" fill="#343a40"/>
<use data-text="&#x0627;" xlink:href="#font_2_1173" transform="matrix(16.408476,0,0,-16.408476,33.09372,16.934823)" fill="#343a40"/>
<use data-text="&#x0621;" xlink:href="#font_2_675" transform="matrix(16.408476,0,0,-16.408476,26.464697,16.934823)" fill="#343a40"/>
<use data-text="&#x064f;" xlink:href="#font_2_730" transform="matrix(16.408476,0,0,-16.408476,27.4134,16.678624)" fill="#343a40"/>
<use data-text="&#x0634;" xlink:href="#font_2_1222" transform="matrix(16.408476,0,0,-16.408476,89.15211,16.934823)" fill="#343a40"/>
<use data-text="&#x064f;" xlink:href="#font_2_730" transform="matrix(16.408476,0,0,-16.408476,93.83142,12.888691)" fill="#343a40"/>
<use data-text="&#x0631;" xlink:href="#font_2_1213" transform="matrix(16.408476,0,0,-16.408476,82.81483,16.934823)" fill="#343a40"/>
<use data-text="&#x0650;" xlink:href="#font_2_731" transform="matrix(16.408476,0,0,-16.408476,83.29611,19.868313)" fill="#343a40"/>
<use data-text="&#x0628;" xlink:href="#font_2_682" transform="matrix(16.408476,0,0,-16.408476,69.74862,16.934823)" fill="#343a40"/>
<use data-text="&#x064e;" xlink:href="#font_2_728" transform="matrix(16.408476,0,0,-16.408476,74.4993,18.24876)" fill="#343a40"/>
<path transform="matrix(1.83,0,0,-1.83,15.45069,16.934823)" stroke-width=".3985" stroke-linecap="butt" stroke-miterlimit="10" stroke-linejoin="miter" fill="none" stroke="#343a40" d="M-.19925-4.26807C.17433-5.01527 1.04608-5.51341 2.29143-5.51341H9.71782C10.96317-5.51341 11.83493-6.01154 12.20851-6.75876 12.5821-6.01154 13.45386-5.51341 14.6992-5.51341H22.12561C23.37096-5.51341 24.2427-5.01527 24.6163-4.26807"/>
<use data-text="d" xlink:href="#font_1_71" transform="matrix(10.9389719,0,0,-10.9389719,8.61747,42.04608)" fill="#343a40"/>
<use data-text="e" xlink:href="#font_1_72" transform="matrix(10.9389719,0,0,-10.9389719,14.78705,42.04608)" fill="#343a40"/>
<use data-text="p" xlink:href="#font_1_83" transform="matrix(10.9389719,0,0,-10.9389719,20.147149,42.04608)" fill="#343a40"/>
<use data-text="u" xlink:href="#font_1_88" transform="matrix(10.9389719,0,0,-10.9389719,26.262032,42.04608)" fill="#343a40"/>
<use data-text="t" xlink:href="#font_1_87" transform="matrix(10.9389719,0,0,-10.9389719,32.48631,42.04608)" fill="#343a40"/>
<use data-text="y" xlink:href="#font_1_92" transform="matrix(10.9389719,0,0,-10.9389719,36.20556,42.04608)" fill="#343a40"/>
<use data-text="d" xlink:href="#font_1_71" transform="matrix(10.9389719,0,0,-10.9389719,45.208333,42.04608)" fill="#343a40"/>
<use data-text="o" xlink:href="#font_1_82" transform="matrix(10.9389719,0,0,-10.9389719,51.37791,42.04608)" fill="#343a40"/>
<use data-text="e" xlink:href="#font_1_72" transform="matrix(10.9389719,0,0,-10.9389719,57.328718,42.04608)" fill="#343a40"/>
<use data-text="r" xlink:href="#font_1_85" transform="matrix(10.9389719,0,0,-10.9389719,62.688814,42.04608)" fill="#343a40"/>
<use data-text="&#x201c;" xlink:href="#font_1_180" transform="matrix(16.408476,0,0,-16.408476,5.4680407,69.12642)" fill="#343a40"/>
<use data-text="T" xlink:href="#font_1_55" transform="matrix(16.408476,0,0,-16.408476,12.901081,69.12642)" fill="#343a40"/>
<use data-text="h" xlink:href="#font_1_75" transform="matrix(16.408476,0,0,-16.408476,22.729758,69.12642)" fill="#343a40"/>
<use data-text="e" xlink:href="#font_1_72" transform="matrix(16.408476,0,0,-16.408476,32.148225,69.12642)" fill="#343a40"/>
<use data-text="w" xlink:href="#font_1_90" transform="matrix(16.408476,0,0,-16.408476,44.99606,69.12642)" fill="#343a40"/>
<use data-text="a" xlink:href="#font_1_68" transform="matrix(16.408476,0,0,-16.408476,57.778264,69.12642)" fill="#343a40"/>
<use data-text="t" xlink:href="#font_1_87" transform="matrix(16.408476,0,0,-16.408476,66.13017,69.12642)" fill="#343a40"/>
<use data-text="e" xlink:href="#font_1_72" transform="matrix(16.408476,0,0,-16.408476,71.70905,69.12642)" fill="#343a40"/>
<use data-text="r" xlink:href="#font_1_85" transform="matrix(16.408476,0,0,-16.408476,79.749217,69.12642)" fill="#343a40"/>
<use data-text="w" xlink:href="#font_1_90" transform="matrix(16.408476,0,0,-16.408476,90.95621,69.12642)" fill="#343a40"/>
<use data-text="a" xlink:href="#font_1_68" transform="matrix(16.408476,0,0,-16.408476,103.7384,69.12642)" fill="#343a40"/>
<use data-text="s" xlink:href="#font_1_86" transform="matrix(16.408476,0,0,-16.408476,112.090328,69.12642)" fill="#343a40"/>
<use data-text="d" xlink:href="#font_1_71" transform="matrix(16.408476,0,0,-16.408476,123.41216,69.12642)" fill="#343a40"/>
<use data-text="r" xlink:href="#font_1_85" transform="matrix(16.408476,0,0,-16.408476,132.66655,69.12642)" fill="#343a40"/>
<use data-text="u" xlink:href="#font_1_88" transform="matrix(16.408476,0,0,-16.408476,139.08225,69.12642)" fill="#343a40"/>
<use data-text="n" xlink:href="#font_1_81" transform="matrix(16.408476,0,0,-16.408476,148.41867,69.12642)" fill="#343a40"/>
<use data-text="k" xlink:href="#font_1_78" transform="matrix(16.408476,0,0,-16.408476,157.72228,69.12642)" fill="#343a40"/>
<use data-text="." xlink:href="#font_1_17" transform="matrix(16.408476,0,0,-16.408476,166.4844,69.12642)" fill="#343a40"/>
<use data-text="&#x201d;" xlink:href="#font_1_181" transform="matrix(16.408476,0,0,-16.408476,169.48717,69.12642)" fill="#343a40"/>
</svg>
