<svg xmlns="http://www.w3.org/2000/svg" xmlns:xlink="http://www.w3.org/1999/xlink" xmlns:inkscape="http://www.inkscape.org/namespaces/inkscape" version="1.1" width="817.6696" height="373.1919" viewBox="0 0 817.6696 373.1919">
<defs>
<path id="font_1_17" d="M.08999634 0H.17399597V.26011659H.2809906C.4249878 .26011659 .5239868 .32411195 .5239868 .46318055 .5239868 .60723879 .42399598 .65625 .2769928 .65625H.08999634V0M.17399597 .328125V.5882416H.2669983C.38198854 .5882416 .43998719 .55722048 .43998719 .46318055 .43998719 .37013246 .3849945 .328125 .2709961 .328125H.17399597Z"/>
<path id="font_1_45" d="M.08198547 0H.16499329V.31202699C.19799805 .3940277 .24699402 .42303468 .28799439 .42303468 .30699159 .42303468 .31799317 .42103578 .33198548 .41703797L.34999085 .48828126C.33499146 .4950409 .31999208 .49804688 .2979889 .49804688 .24398804 .49804688 .19400025 .4590454 .1599884 .39804078H.15699768L.1499939 .48632813H.08198547V0Z"/>
<path id="font_1_42" d="M.2709961-.01171875C.3899994-.01171875 .49699403 .08125305 .49699403 .24215698 .49699403 .4050598 .3899994 .49804688 .2709961 .49804688 .1519928 .49804688 .04598999 .4050598 .04598999 .24215698 .04598999 .08125305 .1519928-.01171875 .2709961-.01171875M.2709961 .057266237C.18798828 .057266237 .13198853 .13122559 .13198853 .24215698 .13198853 .35409547 .18798828 .42904664 .2709961 .42904664 .35499574 .42904664 .41099549 .35409547 .41099549 .24215698 .41099549 .13122559 .35499574 .057266237 .2709961 .057266237Z"/>
<path id="font_1_47" d="M.23498535-.01171875C.2679901-.01171875 .30099488-.0027313233 .32699586 .009277344L.30999757 .06826782C.2899933 .059280397 .27198792 .056274415 .2539978 .056274415 .19898987 .056274415 .1789856 .090270999 .1789856 .14929199V.41932679H.31098939V.48632813H.1789856V.6423187H.10998535L.099990848 .48632813 .023986817 .48132325V.41932679H.09599304V.1512909C.09599304 .054275514 .1309967-.01171875 .23498535-.01171875Z"/>
<path id="font_1_1279" d="M.040985109 .2191925H.2709961V.28320313H.040985109V.2191925Z"/>
<path id="font_1_2" d="M.20399475 .3662262C.22698975 .43922425 .24798584 .51123049 .2679901 .58724978H.27198792C.29299928 .51123049 .31399537 .43922425 .33799745 .3662262L.36898805 .2672119H.17298889L.20399475 .3662262M.0029907227 0H.08799744L.15098572 .19921875H.3899994L.45199586 0H.54100039L.31999208 .65625H.22399903L.0029907227 0Z"/>
<path id="font_1_28" d="M.19400025-.01171875C.25498963-.01171875 .30799867 .01927185 .35398866 .058273317H.35699464L.36499024 0H.43299867V.2990265C.43299867 .41903688 .38198854 .49804688 .2639923 .49804688 .18598938 .49804688 .117996219 .4650421 .07299805 .43504334L.10499573 .37902833C.14299011 .40403749 .19400025 .42904664 .25 .42904664 .32899476 .42904664 .34899903 .37002564 .34999085 .309021 .14199829 .286026 .051986696 .23402405 .051986696 .12600708 .051986696 .038269044 .11299133-.01171875 .19400025-.01171875M.21699524 .056274415C.16999817 .056274415 .1329956 .07725525 .1329956 .13122559 .1329956 .19418335 .18598938 .23117066 .34999085 .2501526V.11824036C.30299378 .07725525 .2639923 .056274415 .21699524 .056274415Z"/>
<path id="font_1_29" d="M.29699708-.01171875C.4079895-.01171875 .5079956 .085250858 .5079956 .2511444 .5079956 .401062 .43998719 .49804688 .31498719 .49804688 .26098634 .49804688 .20698548 .46903993 .1619873 .43104554L.16499329 .51802065V.71191409H.08198547V0H.147995L.1559906 .05027771H.15899658C.20199585 .011276245 .2519989-.01171875 .29699708-.01171875M.2829895 .058273317C.25099183 .058273317 .20698548 .071258548 .16499329 .10824585V.3620758C.21099854 .40605165 .25299073 .42803956 .2939911 .42803956 .3849945 .42803956 .42199708 .35708619 .42199708 .2501526 .42199708 .13023377 .36299134 .058273317 .2829895 .058273317Z"/>
<path id="font_1_36" d="M.08198547 0H.16499329V.48632813H.08198547V0M.12399292 .5863342C.1559906 .5863342 .1789856 .6073303 .1789856 .6403351 .1789856 .67233279 .1559906 .69433596 .12399292 .69433596 .09199524 .69433596 .068984989 .67233279 .068984989 .6403351 .068984989 .6073303 .09199524 .5863342 .12399292 .5863342Z"/>
<path id="font_1_30" d="M.27398683-.01171875C.33198548-.01171875 .3869934 .010269165 .43099977 .05027771L.394989 .10324097C.3659973 .07725525 .32598878 .057266237 .2809906 .057266237 .19198609 .057266237 .13198853 .13122559 .13198853 .24215698 .13198853 .35409547 .19599915 .42904664 .28399659 .42904664 .32299806 .42904664 .35398866 .41404725 .3809967 .3890686L.42199708 .44104005C.3880005 .47303773 .34399415 .49804688 .27999879 .49804688 .15499878 .49804688 .04598999 .4050598 .04598999 .24215698 .04598999 .08125305 .14498902-.01171875 .27398683-.01171875Z"/>
<path id="font_1_4" d="M.33799745-.01171875C.42199708-.01171875 .48599244 .022277832 .5389862 .08326721L.49299623 .13322449C.45098878 .087265018 .4039917 .06227112 .34098817 .06227112 .21699524 .06227112 .13899231 .16520691 .13899231 .33010865 .13899231 .49301148 .22099304 .5939636 .34399415 .5939636 .3999939 .5939636 .44299317 .5709686 .47799684 .5349884L.5239868 .58695986C.4850006 .6299591 .4229889 .66796877 .34298707 .66796877 .17599488 .66796877 .051986696 .5389862 .051986696 .32810975 .051986696 .11424255 .17399597-.01171875 .33799745-.01171875Z"/>
<path id="font_1_39" d="M.16899109-.01171875C.18998719-.01171875 .20498657-.008728027 .21699524-.0027313233L.20599365 .059265138C.19799805 .057266237 .19400025 .057266237 .18899536 .057266237 .17599488 .057266237 .16499329 .06626892 .16499329 .09225464V.71191409H.08198547V.09825134C.08198547 .028274537 .10699463-.01171875 .16899109-.01171875Z"/>
<path id="font_1_46" d="M.20899964-.01171875C.32398988-.01171875 .3869934 .054275514 .3869934 .13322449 .3869934 .22117615 .31399537 .2541504 .23799134 .28112794 .1769867 .30212403 .1349945 .32011415 .1349945 .36408998 .1349945 .40005494 .1619873 .43403626 .22399903 .43403626 .2669983 .43403626 .3019867 .42004396 .33599855 .3950653L.37399293 .44303895C.33599855 .47503663 .28399659 .49804688 .22299195 .49804688 .116989139 .49804688 .054992677 .43803407 .054992677 .36009217 .054992677 .2801361 .125 .24516297 .19799805 .21917725 .25299073 .19918823 .30699159 .17819214 .30699159 .12823487 .30699159 .086257938 .27598573 .053268434 .21199036 .053268434 .1519928 .053268434 .10798645 .071258548 .06599426 .10624695L.027999878 .058273317C.07299805 .014266968 .13798523-.01171875 .20899964-.01171875Z"/>
<path id="font_1_14" d="M.08898926 0H.1659851V.36210633C.1659851 .4201355 .15899658 .50120547 .1539917 .5582428H.1579895L.20999146 .4051361 .33198548 .065963748H.3929901L.5159912 .4051361 .5669861 .5582428H.57099917C.56599429 .50120547 .5589905 .4201355 .5589905 .36210633V0H.6380005V.65625H.5329895L.40899659 .3050537C.3929901 .2590332 .3809967 .21699524 .3659973 .16796875H.3619995C.34799195 .21699524 .33399964 .2590332 .31799317 .3050537L.19400025 .65625H.08898926V0Z"/>
<path id="font_1_20" d="M.27198792-.01171875C.4099884-.01171875 .49598695 .0712738 .49598695 .17520142 .49598695 .27215577 .43699647 .31811524 .36099244 .35009767L.2669983 .39108277C.21598816 .4120636 .15899658 .43605042 .15899658 .49900819 .15899658 .5569763 .20698548 .5939636 .27999879 .5939636 .33699037 .5939636 .3880005 .5709686 .42799378 .5329895L.47399903 .58895877C.42799378 .634964 .3600006 .66796877 .27999879 .66796877 .16099549 .66796877 .07398987 .5939636 .07398987 .49401856 .07398987 .39707948 .14498902 .35110475 .20599365 .32511903L.30099488 .2831421C.3619995 .25616456 .4099884 .23516846 .4099884 .16821289 .4099884 .10525513 .35899354 .06227112 .272995 .06227112 .20399475 .06227112 .13699341 .09225464 .08898926 .1412201L.041992189 .086257938C.09899902 .025268555 .17799378-.01171875 .27198792-.01171875Z"/>
<path id="font_1_31" d="M.24798584-.01171875C.30499269-.01171875 .35699464 .02027893 .394989 .057266237H.397995L.40499879 0H.47299195V.71191409H.3899994V.5250244L.3939972 .44203187C.35099793 .47703553 .31399537 .49804688 .2579956 .49804688 .14698792 .49804688 .04699707 .40003968 .04699707 .24201966 .04699707 .08026123 .12599182-.01171875 .24798584-.01171875M.2659912 .058273317C.18099976 .058273317 .1329956 .12722779 .1329956 .2431488 .1329956 .3540802 .19499207 .42803956 .27198792 .42803956 .31199647 .42803956 .34899903 .41503907 .3899994 .37806703V.12423706C.34999085 .08026123 .31098939 .058273317 .2659912 .058273317Z"/>
<path id="font_1_32" d="M.27799989-.01171875C.34498597-.01171875 .39698792 .008270264 .43899537 .038269044L.4099884 .09124756C.37599183 .06826782 .33499146 .055267335 .28799439 .055267335 .19599915 .055267335 .1349945 .12123108 .12799073 .22114563H.45498658C.45799256 .2371521 .45899964 .2521515 .45899964 .2701416 .45899964 .41004945 .3880005 .49804688 .2639923 .49804688 .15299988 .49804688 .04598999 .401062 .04598999 .2431488 .04598999 .08226013 .147995-.01171875 .27799989-.01171875M.12799073 .28515626C.13798523 .37808229 .19799805 .43203736 .2659912 .43203736 .33999635 .43203736 .3849945 .381073 .3849945 .28515626H.12799073Z"/>
<path id="font_1_41" d="M.08198547 0H.16499329V.35203553C.21299744 .4010315 .24798584 .42604066 .29699708 .42604066 .36099244 .42604066 .3889923 .388031 .3889923 .2970276V0H.47200013V.30802918C.47200013 .43203736 .42599488 .49804688 .32299806 .49804688 .2559967 .49804688 .20599365 .46203614 .1599884 .41603089H.15699768L.1499939 .48632813H.08198547V0Z"/>
<path id="font_1_23" d="M.20599365 0H.30299378L.5159912 .65625H.42999269L.32099916 .3020935C.2979889 .22505188 .28199769 .16203308 .2579956 .085998538H.2539978C.22999573 .16203308 .21299744 .22505188 .19099427 .3020935L.08898926 .65625H0L.20599365 0Z"/>
<path id="font_1_48" d="M.22399903-.01171875C.29100038-.01171875 .33898927 .023269654 .38398744 .07627869H.3869934L.3939972 0H.46199037V.48632813H.3789978V.14228821C.33399964 .08528137 .29899598 .060272218 .25 .060272218 .18598938 .060272218 .1579895 .09927368 .1579895 .18928528V.48632813H.07499695V.17828369C.07499695 .054275514 .12098694-.01171875 .22399903-.01171875Z"/>
<path id="font_1_35" d="M.08198547 0H.16499329V.35203553C.21299744 .4010315 .24798584 .42604066 .29699708 .42604066 .36099244 .42604066 .3889923 .388031 .3889923 .2970276V0H.47200013V.30802918C.47200013 .43203736 .42599488 .49804688 .32299806 .49804688 .2559967 .49804688 .20698548 .46203614 .1619873 .4180298L.16499329 .51802065V.71191409H.08198547V0Z"/>
<path id="font_1_49" d="M.18699646 0H.28399659L.45599366 .48632813H.37399293L.2829895 .21110535C.2679901 .16307068 .2519989 .11402893 .23799134 .066986087H.23399353C.21899414 .11402893 .20399475 .16307068 .18899536 .21110535L.09799194 .48632813H.011993408L.18699646 0Z"/>
<path id="font_1_33" d="M.09599304 0H.1789856V.41932679H.2809906V.48632813H.1789856V.5620117C.1789856 .62376406 .20098877 .65663149 .24699402 .65663149 .2639923 .65663149 .28199769 .6526489 .30099488 .6466675L.31900025 .70762637C.29899598 .716629 .2679901 .7236328 .23799134 .7236328 .14099121 .7236328 .09599304 .6606293 .09599304 .5620117V.48632813L.02999878 .48132325V.41932679H.09599304V0Z"/>
<path id="font_1_40" d="M.08198547 0H.16499329V.35203553C.20999146 .40203858 .25 .42604066 .28599549 .42604066 .34799195 .42604066 .37599183 .388031 .37599183 .2970276V0H.45899964V.35203553C.5039978 .40203858 .54299929 .42604066 .58099368 .42604066 .6419983 .42604066 .67099 .388031 .67099 .2970276V0H.7539978V.30802918C.7539978 .43203736 .70599368 .49804688 .60598757 .49804688 .5469971 .49804688 .49598695 .46003724 .44599916 .40603639 .42599488 .4630432 .38598634 .49804688 .31098939 .49804688 .25299073 .49804688 .20298767 .46203614 .1599884 .41603089H.15699768L.1499939 .48632813H.08198547V0Z"/>
<path id="font_1_53" d="M.0309906 0H.3999939V.067993167H.13598633L.3909912 .44232179V.48632813H.05899048V.41932679H.28599549L.0309906 .04399109V0Z"/>
<path id="font_1_50" d="M.1599884 0H.2599945L.32499696 .2611847C.33799745 .30522157 .34700013 .3482666 .35598756 .4053192H.3600006C.37098695 .3482666 .37998963 .30622865 .3919983 .2611847L.45799256 0H.5629883L.69400027 .48632813H.61499026L.5439911 .20413208C.5329895 .16007996 .5249939 .11804199 .5149994 .06599426H.5109863C.5009918 .11804199 .48999024 .16007996 .47898866 .20413208L.40499879 .48632813H.31599427L.24299622 .20413208C.23199463 .16007996 .22299195 .11804199 .21299744 .06599426H.20899964C.20098877 .11804199 .19099427 .16007996 .17999268 .20413208L.10899353 .48632813H.023986817L.1599884 0Z"/>
<path id="font_1_1258" d="M.066986087-.16998291C.14898682-.13697815 .19898987-.068984989 .19898987 .01701355 .19898987 .07801819 .17298889 .11502075 .1289978 .11502075 .09599304 .11502075 .067993167 .09301758 .067993167 .057022096 .067993167 .019012452 .09498596-.0009765625 .1269989-.0009765625 .1309967-.0009765625 .13398743-.0009765625 .13798523 .000015258789 .13798523-.052978517 .10398865-.09698486 .04699707-.12197876L.066986087-.16998291Z"/>
<path id="font_1_1257" d="M.125-.01171875C.1579895-.01171875 .18499756 .014266968 .18499756 .05126953 .18499756 .089279178 .1579895 .11528015 .125 .11528015 .09199524 .11528015 .06498718 .089279178 .06498718 .05126953 .06498718 .014266968 .09199524-.01171875 .125-.01171875Z"/>
<path id="font_1_8" d="M.34799195-.01171875C.43598939-.01171875 .5079956 .02027893 .5509949 .06427002V.33984376H.33499146V.2708435H.47399903V.10018921C.44799806 .07624817 .40299989 .06227112 .35598756 .06227112 .21598816 .06227112 .13899231 .16505432 .13899231 .32983399 .13899231 .49290467 .22299195 .5939636 .35499574 .5939636 .42099 .5939636 .46299745 .56895449 .49598695 .53492739L.5419922 .58695986C.5039978 .6279602 .44400025 .66796877 .35299684 .66796877 .1789856 .66796877 .051986696 .5389404 .051986696 .32783509 .051986696 .11416626 .1749878-.01171875 .34799195-.01171875Z"/>
<path id="font_1_38" d="M.08198547 0H.1639862V.12808228L.2539978 .2331543 .3959961 0H.48599244L.30299378 .29019166 .46499635 .48632813H.37199403L.16699219 .23214722H.1639862V.71191409H.08198547V0Z"/>
<path id="font_1_52" d="M.09098816-.20898438C.18798828-.20898438 .23899842-.13598633 .272995-.03994751L.45599366 .48632813H.375L.28799439 .21818543C.2749939 .1751709 .26098634 .12513733 .24798584 .08111572H.24398804C.22799683 .12614441 .21199036 .17616272 .19599915 .21818543L.09799194 .48632813H.011993408L.20698548-.00093078616 .19599915-.03694153C.17599488-.096969608 .14099121-.13999939 .08699036-.13999939 .07499695-.13999939 .06298828-.13798523 .050994874-.13398743L.032989503-.19898987C.04899597-.20498657 .067993167-.20898438 .09098816-.20898438Z"/>
<path id="font_1_34" d="M.24598694-.22363281C.39698792-.22363281 .49198915-.1456604 .49198915-.054763795 .49198915 .025177002 .43499757 .061172487 .32199098 .061172487H.22799683C.16299439 .061172487 .14299011 .08320618 .14299011 .11323547 .14299011 .14027405 .1559906 .15629578 .17399597 .17129517 .19599915 .16029358 .22200012 .15429688 .24598694 .15429688 .34498597 .15429688 .42399598 .21928406 .42399598 .32330323 .42399598 .36431886 .4079895 .40031434 .3849945 .4223175H.48399354V.48632813H.31498719C.29699708 .493042 .272995 .49804688 .24598694 .49804688 .14698792 .49804688 .06298828 .43104554 .06298828 .3251648 .06298828 .26722718 .09399414 .22027588 .12599182 .19429016V.19029236C.100997928 .17329407 .07299805 .14128113 .07299805 .10021973 .07299805 .062179567 .09199524 .03617859 .115997318 .0211792V.017181397C.07199097-.012817383 .04499817-.05177307 .04499817-.09272766 .04499817-.17663574 .1269989-.22363281 .24598694-.22363281M.24598694 .21029663C.18998719 .21029663 .14299011 .25424195 .14299011 .3251648 .14299011 .39608766 .18899536 .43803407 .24598694 .43803407 .30299378 .43803407 .34899903 .39508058 .34899903 .3251648 .34899903 .25424195 .3019867 .21029663 .24598694 .21029663M.2579956-.16563416C.16999817-.16563416 .116989139-.13371277 .116989139-.081832889 .116989139-.053894044 .13198853-.02494812 .16699219 0 .18798828-.0058135988 .21099854-.0078125 .22999573-.0078125H.31298829C.3769989-.0078125 .41099549-.02279663 .41099549-.06774902 .41099549-.117752078 .34999085-.16563416 .2579956-.16563416Z"/>
<path id="font_1_6" d="M.08999634 0H.47799684V.070999149H.17399597V.3088684H.42199708V.3798828H.17399597V.5852356H.46798707V.65625H.08999634V0Z"/>
<path id="font_1_7" d="M.08999634 0H.17399597V.2932434H.42399598V.3642578H.17399597V.5852356H.46798707V.65625H.08999634V0Z"/>
<path id="font_1_1311" d="M.009994507-.16004944H.069992069L.33599855 .70996096H.27598573L.009994507-.16004944Z"/>
<path id="font_1_9" d="M.08999634 0H.17399597V.3078308H.47799684V0H.56199648V.65625H.47799684V.38183595H.17399597V.65625H.08999634V0Z"/>
<path id="font_1_37" d="M.03199768-.21679688C.1289978-.21679688 .1659851-.1538086 .1659851-.05378723V.48632813H.08299255V-.05378723C.08299255-.11279297 .070999149-.14880371 .022994996-.14880371 .0069885256-.14880371-.011001587-.14480591-.023010254-.1408081L-.040008546-.20280457C-.023010254-.21080017 .0029907227-.21679688 .03199768-.21679688M.12298584 .5863342C.15499878 .5863342 .17799378 .6073303 .17799378 .6403351 .17799378 .67233279 .15499878 .69433596 .12298584 .69433596 .09098816 .69433596 .067993167 .67233279 .067993167 .6403351 .067993167 .6073303 .09098816 .5863342 .12298584 .5863342Z"/>
</defs>
<use data-text="P" xlink:href="#font_1_17" transform="matrix(16.271264,0,0,-16.271264,122.67772,324.2467)" fill="#343a40"/>
<use data-text="r" xlink:href="#font_1_45" transform="matrix(16.271264,0,0,-16.271264,131.90354,324.2467)" fill="#343a40"/>
<use data-text="o" xlink:href="#font_1_42" transform="matrix(16.271264,0,0,-16.271264,137.40322,324.2467)" fill="#343a40"/>
<use data-text="t" xlink:href="#font_1_47" transform="matrix(16.271264,0,0,-16.271264,145.94564,324.2467)" fill="#343a40"/>
<use data-text="o" xlink:href="#font_1_42" transform="matrix(16.271264,0,0,-16.271264,151.23378,324.2467)" fill="#343a40"/>
<use data-text="-" xlink:href="#font_1_1279" transform="matrix(16.271264,0,0,-16.271264,160.15042,324.2467)" fill="#343a40"/>
<use data-text="A" xlink:href="#font_1_2" transform="matrix(16.271264,0,0,-16.271264,165.2108,324.2467)" fill="#343a40"/>
<use data-text="r" xlink:href="#font_1_45" transform="matrix(16.271264,0,0,-16.271264,174.06237,324.2467)" fill="#343a40"/>
<use data-text="a" xlink:href="#font_1_28" transform="matrix(16.271264,0,0,-16.271264,179.33426,324.2467)" fill="#343a40"/>
<use data-text="b" xlink:href="#font_1_29" transform="matrix(16.271264,0,0,-16.271264,187.53496,324.2467)" fill="#343a40"/>
<use data-text="i" xlink:href="#font_1_36" transform="matrix(16.271264,0,0,-16.271264,196.54924,324.2467)" fill="#343a40"/>
<use data-text="c" xlink:href="#font_1_30" transform="matrix(16.271264,0,0,-16.271264,200.56824,324.2467)" fill="#343a40"/>
<use data-text="C" xlink:href="#font_1_4" transform="matrix(16.271264,0,0,-16.271264,320.36164,324.2467)" fill="#343a40"/>
<use data-text="l" xlink:href="#font_1_39" transform="matrix(16.271264,0,0,-16.271264,329.65257,324.2467)" fill="#343a40"/>
<use data-text="a" xlink:href="#font_1_28" transform="matrix(16.271264,0,0,-16.271264,333.80174,324.2467)" fill="#343a40"/>
<use data-text="s" xlink:href="#font_1_46" transform="matrix(16.271264,0,0,-16.271264,342.0024,324.2467)" fill="#343a40"/>
<use data-text="s" xlink:href="#font_1_46" transform="matrix(16.271264,0,0,-16.271264,348.82008,324.2467)" fill="#343a40"/>
<use data-text="i" xlink:href="#font_1_36" transform="matrix(16.271264,0,0,-16.271264,355.63774,324.2467)" fill="#343a40"/>
<use data-text="c" xlink:href="#font_1_30" transform="matrix(16.271264,0,0,-16.271264,359.65675,324.2467)" fill="#343a40"/>
<use data-text="a" xlink:href="#font_1_28" transform="matrix(16.271264,0,0,-16.271264,366.91374,324.2467)" fill="#343a40"/>
<use data-text="l" xlink:href="#font_1_39" transform="matrix(16.271264,0,0,-16.271264,375.11445,324.2467)" fill="#343a40"/>
<use data-text="A" xlink:href="#font_1_2" transform="matrix(16.271264,0,0,-16.271264,382.51786,324.2467)" fill="#343a40"/>
<use data-text="r" xlink:href="#font_1_45" transform="matrix(16.271264,0,0,-16.271264,391.36943,324.2467)" fill="#343a40"/>
<use data-text="a" xlink:href="#font_1_28" transform="matrix(16.271264,0,0,-16.271264,396.64134,324.2467)" fill="#343a40"/>
<use data-text="b" xlink:href="#font_1_29" transform="matrix(16.271264,0,0,-16.271264,404.842,324.2467)" fill="#343a40"/>
<use data-text="i" xlink:href="#font_1_36" transform="matrix(16.271264,0,0,-16.271264,413.85633,324.2467)" fill="#343a40"/>
<use data-text="c" xlink:href="#font_1_30" transform="matrix(16.271264,0,0,-16.271264,417.87535,324.2467)" fill="#343a40"/>
<use data-text="M" xlink:href="#font_1_14" transform="matrix(16.271264,0,0,-16.271264,684.95077,220.49852)" fill="#343a40"/>
<use data-text="S" xlink:href="#font_1_20" transform="matrix(16.271264,0,0,-16.271264,696.77999,220.49852)" fill="#343a40"/>
<use data-text="A" xlink:href="#font_1_2" transform="matrix(16.271264,0,0,-16.271264,705.4688,220.49852)" fill="#343a40"/>
<use data-text="M" xlink:href="#font_1_14" transform="matrix(14.46335,0,0,-14.46335,659.69308,312.26753)" fill="#343a40"/>
<use data-text="o" xlink:href="#font_1_42" transform="matrix(14.46335,0,0,-14.46335,670.20797,312.26753)" fill="#343a40"/>
<use data-text="d" xlink:href="#font_1_31" transform="matrix(14.46335,0,0,-14.46335,678.04708,312.26753)" fill="#343a40"/>
<use data-text="e" xlink:href="#font_1_32" transform="matrix(14.46335,0,0,-14.46335,686.0742,312.26753)" fill="#343a40"/>
<use data-text="r" xlink:href="#font_1_45" transform="matrix(14.46335,0,0,-14.46335,693.24807,312.26753)" fill="#343a40"/>
<use data-text="n" xlink:href="#font_1_41" transform="matrix(14.46335,0,0,-14.46335,698.2813,312.26753)" fill="#343a40"/>
<use data-text="V" xlink:href="#font_1_23" transform="matrix(14.46335,0,0,-14.46335,711.60208,312.26753)" fill="#343a40"/>
<use data-text="e" xlink:href="#font_1_32" transform="matrix(14.46335,0,0,-14.46335,718.8627,312.26753)" fill="#343a40"/>
<use data-text="r" xlink:href="#font_1_45" transform="matrix(14.46335,0,0,-14.46335,726.0365,312.26753)" fill="#343a40"/>
<use data-text="n" xlink:href="#font_1_41" transform="matrix(14.46335,0,0,-14.46335,731.0697,312.26753)" fill="#343a40"/>
<use data-text="a" xlink:href="#font_1_28" transform="matrix(14.46335,0,0,-14.46335,738.9812,312.26753)" fill="#343a40"/>
<use data-text="c" xlink:href="#font_1_30" transform="matrix(14.46335,0,0,-14.46335,746.2707,312.26753)" fill="#343a40"/>
<use data-text="u" xlink:href="#font_1_48" transform="matrix(14.46335,0,0,-14.46335,752.86599,312.26753)" fill="#343a40"/>
<use data-text="l" xlink:href="#font_1_39" transform="matrix(14.46335,0,0,-14.46335,760.7341,312.26753)" fill="#343a40"/>
<use data-text="a" xlink:href="#font_1_28" transform="matrix(14.46335,0,0,-14.46335,764.4222,312.26753)" fill="#343a40"/>
<use data-text="r" xlink:href="#font_1_45" transform="matrix(14.46335,0,0,-14.46335,771.71176,312.26753)" fill="#343a40"/>
<use data-text="A" xlink:href="#font_1_2" transform="matrix(14.46335,0,0,-14.46335,659.69308,332.23103)" fill="#343a40"/>
<use data-text="r" xlink:href="#font_1_45" transform="matrix(14.46335,0,0,-14.46335,667.56118,332.23103)" fill="#343a40"/>
<use data-text="a" xlink:href="#font_1_28" transform="matrix(14.46335,0,0,-14.46335,672.24728,332.23103)" fill="#343a40"/>
<use data-text="b" xlink:href="#font_1_29" transform="matrix(14.46335,0,0,-14.46335,679.53677,332.23103)" fill="#343a40"/>
<use data-text="i" xlink:href="#font_1_36" transform="matrix(14.46335,0,0,-14.46335,687.54946,332.23103)" fill="#343a40"/>
<use data-text="c" xlink:href="#font_1_30" transform="matrix(14.46335,0,0,-14.46335,691.1218,332.23103)" fill="#343a40"/>
<path transform="matrix(1.83,0,0,-1.83,165.33319,317.32749)" stroke-width="8.56798" stroke-linecap="butt" stroke-miterlimit="10" stroke-linejoin="miter" fill="none" stroke="#343a40" d="M26.49684 0H73.12625"/>
<path transform="matrix(1.83,0,0,-1.83,165.33319,317.32749)" stroke-width="6.97394" stroke-linecap="butt" stroke-miterlimit="10" stroke-linejoin="miter" fill="none" stroke="#ffffff" d="M26.49684 0H73.12625"/>
<path transform="matrix(1.83,0,0,-1.83,299.15425,317.32749)" stroke-width=".79701" stroke-linecap="round" stroke-linejoin="round" fill="none" stroke="#343a40" d="M-5.20651 10.29646C-2.68098 4.85683 4.11858 .19427 8.00404 0 4.11858-.19427-2.68098-4.85683-5.20651-10.29646"/>
<use data-text="d" xlink:href="#font_1_31" transform="matrix(12.65542,0,0,-12.65542,243.60413,321.5127)" fill="#343a40"/>
<use data-text="i" xlink:href="#font_1_36" transform="matrix(12.65542,0,0,-12.65542,250.62789,321.5127)" fill="#343a40"/>
<use data-text="a" xlink:href="#font_1_28" transform="matrix(12.65542,0,0,-12.65542,253.75376,321.5127)" fill="#343a40"/>
<use data-text="l" xlink:href="#font_1_39" transform="matrix(12.65542,0,0,-12.65542,260.13209,321.5127)" fill="#343a40"/>
<use data-text="e" xlink:href="#font_1_32" transform="matrix(12.65542,0,0,-12.65542,263.35923,321.5127)" fill="#343a40"/>
<use data-text="c" xlink:href="#font_1_30" transform="matrix(12.65542,0,0,-12.65542,269.6363,321.5127)" fill="#343a40"/>
<use data-text="t" xlink:href="#font_1_47" transform="matrix(12.65542,0,0,-12.65542,275.28065,321.5127)" fill="#343a40"/>
<use data-text="s" xlink:href="#font_1_46" transform="matrix(12.65542,0,0,-12.65542,279.44429,321.5127)" fill="#343a40"/>
<path transform="matrix(1.83,0,0,-1.83,165.33319,317.32749)" stroke-width="8.56798" stroke-linecap="butt" stroke-miterlimit="10" stroke-linejoin="miter" fill="none" stroke="#343a40" d="M145.24571 0H258.55503"/>
<path transform="matrix(1.83,0,0,-1.83,165.33319,317.32749)" stroke-width="6.97394" stroke-linecap="butt" stroke-miterlimit="10" stroke-linejoin="miter" fill="none" stroke="#ffffff" d="M145.24571 0H258.55503"/>
<path transform="matrix(1.83,0,0,-1.83,638.4889,317.32749)" stroke-width=".79701" stroke-linecap="round" stroke-linejoin="round" fill="none" stroke="#343a40" d="M-5.20651 10.29646C-2.68098 4.85683 4.11858 .19427 8.00404 0 4.11858-.19427-2.68098-4.85683-5.20651-10.29646"/>
<use data-text="d" xlink:href="#font_1_31" transform="matrix(12.65542,0,0,-12.65542,521.9215,321.5127)" fill="#343a40"/>
<use data-text="i" xlink:href="#font_1_36" transform="matrix(12.65542,0,0,-12.65542,528.94528,321.5127)" fill="#343a40"/>
<use data-text="a" xlink:href="#font_1_28" transform="matrix(12.65542,0,0,-12.65542,532.0711,321.5127)" fill="#343a40"/>
<use data-text="l" xlink:href="#font_1_39" transform="matrix(12.65542,0,0,-12.65542,538.4494,321.5127)" fill="#343a40"/>
<use data-text="e" xlink:href="#font_1_32" transform="matrix(12.65542,0,0,-12.65542,541.6766,321.5127)" fill="#343a40"/>
<use data-text="c" xlink:href="#font_1_30" transform="matrix(12.65542,0,0,-12.65542,547.9537,321.5127)" fill="#343a40"/>
<use data-text="t" xlink:href="#font_1_47" transform="matrix(12.65542,0,0,-12.65542,553.61068,321.5127)" fill="#343a40"/>
<use data-text="s" xlink:href="#font_1_46" transform="matrix(12.65542,0,0,-12.65542,557.7743,321.5127)" fill="#343a40"/>
<path transform="matrix(1.83,0,0,-1.83,165.33319,317.32749)" stroke-width=".79701" stroke-linecap="butt" stroke-miterlimit="10" stroke-linejoin="miter" fill="none" stroke="#343a40" d="M167.59938 56.69362H278.1697"/>
<path transform="matrix(1.83,0,0,-1.83,674.3838,213.57816)" d="M2.59026 0-1.55415 2.0722 0 0-1.55415-2.0722" fill="#343a40"/>
<path transform="matrix(1.83,0,0,-1.83,165.33319,317.32749)" stroke-width=".3985" stroke-linecap="butt" stroke-miterlimit="10" stroke-linejoin="miter" fill="none" stroke="#343a40" d="M81.52881 2.3799C82.37917 4.08069 84.36345 5.21452 87.19809 5.21452H130.01929C132.85393 5.21452 134.83821 6.34836 135.68857 8.04916 136.4053 6.34836 138.07785 5.21452 140.46714 5.21452 142.85643 5.21452 144.52898 4.08069 145.24571 2.3799"/>
<path transform="matrix(1.83,0,0,-1.83,165.33319,317.32749)" stroke-width=".79701" stroke-linecap="butt" stroke-miterlimit="10" stroke-linejoin="miter" fill="none" stroke="#343a40" d="M135.60791 8.04916C137.00395 28.69823 144.50836 42.31032 159.13188 52.9865"/>
<path transform="matrix(1.477963,-1.0790229,-1.0790229,-1.477963,456.54457,220.36219)" d="M2.59026 0-1.55415 2.0722 0 0-1.55415-2.0722" fill="#343a40"/>
<use data-text="S" xlink:href="#font_1_20" transform="matrix(6.4330065,-14.944992,-14.944992,-6.4330065,416.52815,264.62165)"/>
<use data-text="C" xlink:href="#font_1_4" transform="matrix(7.8427488,-14.255741,-14.255741,-7.8427488,420.14607,256.23298)"/>
<use data-text="A" xlink:href="#font_1_2" transform="matrix(9.191149,-13.425744,-13.425744,-9.191149,424.8693,247.7161)"/>
<path transform="matrix(1.83,0,0,-1.83,165.33319,317.32749)" stroke-width=".3985" stroke-linecap="butt" stroke-miterlimit="10" stroke-linejoin="miter" fill="none" stroke="#343a40" d="M0 8.04916C12.65323 18.53691 23.25104 22.32195 37.69296 22.23456"/>
<path transform="matrix(1.8298903,.0110349,.0110349,-1.8298903,234.31131,276.6382)" d="M1.99252 0-1.19551 1.59401 0 0-1.19551-1.59401" fill="#343a40"/>
<use data-text="o" xlink:href="#font_1_42" transform="matrix(9.956146,-7.8119385,-7.8119385,-9.956146,163.54163,298.1253)"/>
<use data-text="t" xlink:href="#font_1_47" transform="matrix(10.235197,-7.4426529,-7.4426529,-10.235197,169.08286,293.8083)"/>
<use data-text="h" xlink:href="#font_1_35" transform="matrix(10.544496,-6.9966766,-6.9966766,-10.544496,172.69528,291.14933)"/>
<use data-text="e" xlink:href="#font_1_32" transform="matrix(10.937574,-6.3649175,-6.3649175,-10.937574,178.66109,287.20387)"/>
<use data-text="r" xlink:href="#font_1_45" transform="matrix(11.264084,-5.7678349,-5.7678349,-11.264084,184.31212,283.9501)"/>
<use data-text="v" xlink:href="#font_1_49" transform="matrix(11.711327,-4.794506,-4.794506,-11.711327,190.86719,280.69093)"/>
<use data-text="a" xlink:href="#font_1_28" transform="matrix(12.020119,-3.95773,-3.95773,-12.020119,196.64998,278.32655)"/>
<use data-text="r" xlink:href="#font_1_45" transform="matrix(12.238677,-3.2189062,-3.2189062,-12.238677,202.98361,276.2824)"/>
<use data-text="i" xlink:href="#font_1_36" transform="matrix(12.359537,-2.7171188,-2.7171188,-12.359537,207.42502,275.13319)"/>
<use data-text="e" xlink:href="#font_1_32" transform="matrix(12.475714,-2.1218079,-2.1218079,-12.475714,210.68608,274.3847)"/>
<use data-text="t" xlink:href="#font_1_47" transform="matrix(12.564681,-1.5092855,-1.5092855,-12.564681,217.0984,273.32514)"/>
<use data-text="i" xlink:href="#font_1_36" transform="matrix(12.605179,-1.1202577,-1.1202577,-12.605179,221.49773,272.80909)"/>
<use data-text="e" xlink:href="#font_1_32" transform="matrix(12.636944,-.67643228,-.67643228,-12.636944,224.76976,272.49617)"/>
<use data-text="s" xlink:href="#font_1_46" transform="matrix(12.653522,-.20552404,-.20552404,-12.653522,231.2077,272.16676)"/>
<path transform="matrix(1.83,0,0,-1.83,165.33319,317.32749)" stroke-width=".3985" stroke-linecap="butt" stroke-dasharray="2.98883,2.98883" stroke-miterlimit="10" stroke-linejoin="miter" fill="none" stroke="#343a40" d="M233.98789 48.64444 283.7219 15.69604"/>
<path transform="matrix(1.525488,1.0106176,1.0106176,-1.525488,684.54428,288.6037)" d="M1.99252 0-1.19551 1.59401 0 0-1.19551-1.59401" fill="#343a40"/>
<path transform="matrix(1.83,0,0,-1.83,165.33319,317.32749)" stroke-width=".3985" stroke-linecap="butt" stroke-dasharray="2.98883,2.98883" stroke-miterlimit="10" stroke-linejoin="miter" fill="none" stroke="#343a40" d="M238.61078 14.5957 279.21009 47.39241"/>
<path transform="matrix(1.4234839,-1.1499171,-1.1499171,-1.4234839,676.2876,230.5994)" d="M1.99252 0-1.19551 1.59401 0 0-1.19551-1.59401" fill="#343a40"/>
<use data-text="c" xlink:href="#font_1_30" transform="matrix(10.847508,0,0,-10.847508,618.48696,268.74098)" fill="#343a40"/>
<use data-text="r" xlink:href="#font_1_45" transform="matrix(10.847508,0,0,-10.847508,623.4334,268.74098)" fill="#343a40"/>
<use data-text="o" xlink:href="#font_1_42" transform="matrix(10.847508,0,0,-10.847508,627.09988,268.74098)" fill="#343a40"/>
<use data-text="s" xlink:href="#font_1_46" transform="matrix(10.847508,0,0,-10.847508,632.97927,268.74098)" fill="#343a40"/>
<use data-text="s" xlink:href="#font_1_46" transform="matrix(10.847508,0,0,-10.847508,637.52438,268.74098)" fill="#343a40"/>
<use data-text="-" xlink:href="#font_1_1279" transform="matrix(10.847508,0,0,-10.847508,642.1671,268.74098)" fill="#343a40"/>
<use data-text="i" xlink:href="#font_1_36" transform="matrix(10.847508,0,0,-10.847508,645.54067,268.74098)" fill="#343a40"/>
<use data-text="n" xlink:href="#font_1_41" transform="matrix(10.847508,0,0,-10.847508,648.22,268.74098)" fill="#343a40"/>
<use data-text="f" xlink:href="#font_1_33" transform="matrix(10.847508,0,0,-10.847508,654.15359,268.74098)" fill="#343a40"/>
<use data-text="l" xlink:href="#font_1_39" transform="matrix(10.847508,0,0,-10.847508,657.32107,268.74098)" fill="#343a40"/>
<use data-text="u" xlink:href="#font_1_48" transform="matrix(10.847508,0,0,-10.847508,660.08718,268.74098)" fill="#343a40"/>
<use data-text="e" xlink:href="#font_1_32" transform="matrix(10.847508,0,0,-10.847508,665.9882,268.74098)" fill="#343a40"/>
<use data-text="n" xlink:href="#font_1_41" transform="matrix(10.847508,0,0,-10.847508,671.3686,268.74098)" fill="#343a40"/>
<use data-text="c" xlink:href="#font_1_30" transform="matrix(10.847508,0,0,-10.847508,677.3022,268.74098)" fill="#343a40"/>
<use data-text="e" xlink:href="#font_1_32" transform="matrix(10.847508,0,0,-10.847508,682.0317,268.74098)" fill="#343a40"/>
<use data-text="n" xlink:href="#font_1_41" transform="matrix(12.65542,0,0,-12.65542,40.344186,304.28327)" fill="#343a40"/>
<use data-text="a" xlink:href="#font_1_28" transform="matrix(12.65542,0,0,-12.65542,47.266698,304.28327)" fill="#343a40"/>
<use data-text="t" xlink:href="#font_1_47" transform="matrix(12.65542,0,0,-12.65542,53.467859,304.28327)" fill="#343a40"/>
<use data-text="i" xlink:href="#font_1_36" transform="matrix(12.65542,0,0,-12.65542,57.758047,304.28327)" fill="#343a40"/>
<use data-text="v" xlink:href="#font_1_49" transform="matrix(12.65542,0,0,-12.65542,60.88393,304.28327)" fill="#343a40"/>
<use data-text="e" xlink:href="#font_1_32" transform="matrix(12.65542,0,0,-12.65542,66.75606,304.28327)" fill="#343a40"/>
<use data-text="A" xlink:href="#font_1_2" transform="matrix(12.65542,0,0,-12.65542,39.760416,324.2467)" fill="#343a40"/>
<use data-text="r" xlink:href="#font_1_45" transform="matrix(12.65542,0,0,-12.65542,46.644964,324.2467)" fill="#343a40"/>
<use data-text="a" xlink:href="#font_1_28" transform="matrix(12.65542,0,0,-12.65542,50.757974,324.2467)" fill="#343a40"/>
<use data-text="b" xlink:href="#font_1_29" transform="matrix(12.65542,0,0,-12.65542,57.136308,324.2467)" fill="#343a40"/>
<use data-text="i" xlink:href="#font_1_36" transform="matrix(12.65542,0,0,-12.65542,64.147418,324.2467)" fill="#343a40"/>
<use data-text="c" xlink:href="#font_1_30" transform="matrix(12.65542,0,0,-12.65542,67.2733,324.2467)" fill="#343a40"/>
<use data-text="n" xlink:href="#font_1_41" transform="matrix(12.65542,0,0,-12.65542,18.870968,200.53505)" fill="#343a40"/>
<use data-text="o" xlink:href="#font_1_42" transform="matrix(12.65542,0,0,-12.65542,25.793484,200.53505)" fill="#343a40"/>
<use data-text="n" xlink:href="#font_1_41" transform="matrix(12.65542,0,0,-12.65542,32.652727,200.53505)" fill="#343a40"/>
<use data-text="-" xlink:href="#font_1_1279" transform="matrix(12.65542,0,0,-12.65542,39.575239,200.53505)" fill="#343a40"/>
<use data-text="n" xlink:href="#font_1_41" transform="matrix(12.65542,0,0,-12.65542,43.511075,200.53505)" fill="#343a40"/>
<use data-text="a" xlink:href="#font_1_28" transform="matrix(12.65542,0,0,-12.65542,50.43359,200.53505)" fill="#343a40"/>
<use data-text="t" xlink:href="#font_1_47" transform="matrix(12.65542,0,0,-12.65542,56.634748,200.53505)" fill="#343a40"/>
<use data-text="i" xlink:href="#font_1_36" transform="matrix(12.65542,0,0,-12.65542,60.924936,200.53505)" fill="#343a40"/>
<use data-text="v" xlink:href="#font_1_49" transform="matrix(12.65542,0,0,-12.65542,64.05083,200.53505)" fill="#343a40"/>
<use data-text="e" xlink:href="#font_1_32" transform="matrix(12.65542,0,0,-12.65542,69.92294,200.53505)" fill="#343a40"/>
<use data-text="f" xlink:href="#font_1_33" transform="matrix(12.65542,0,0,-12.65542,5.468048,220.49852)" fill="#343a40"/>
<use data-text="o" xlink:href="#font_1_42" transform="matrix(12.65542,0,0,-12.65542,9.049532,220.49852)" fill="#343a40"/>
<use data-text="r" xlink:href="#font_1_45" transform="matrix(12.65542,0,0,-12.65542,15.9087719,220.49852)" fill="#343a40"/>
<use data-text="m" xlink:href="#font_1_40" transform="matrix(12.65542,0,0,-12.65542,20.312857,220.49852)" fill="#343a40"/>
<use data-text="a" xlink:href="#font_1_28" transform="matrix(12.65542,0,0,-12.65542,30.804203,220.49852)" fill="#343a40"/>
<use data-text="l" xlink:href="#font_1_39" transform="matrix(12.65542,0,0,-12.65542,37.182538,220.49852)" fill="#343a40"/>
<use data-text="A" xlink:href="#font_1_2" transform="matrix(12.65542,0,0,-12.65542,42.928098,220.49852)" fill="#343a40"/>
<use data-text="r" xlink:href="#font_1_45" transform="matrix(12.65542,0,0,-12.65542,49.812646,220.49852)" fill="#343a40"/>
<use data-text="a" xlink:href="#font_1_28" transform="matrix(12.65542,0,0,-12.65542,53.92566,220.49852)" fill="#343a40"/>
<use data-text="b" xlink:href="#font_1_29" transform="matrix(12.65542,0,0,-12.65542,60.30399,220.49852)" fill="#343a40"/>
<use data-text="i" xlink:href="#font_1_36" transform="matrix(12.65542,0,0,-12.65542,67.315097,220.49852)" fill="#343a40"/>
<use data-text="c" xlink:href="#font_1_30" transform="matrix(12.65542,0,0,-12.65542,70.44099,220.49852)" fill="#343a40"/>
<use data-text="A" xlink:href="#font_1_2" transform="matrix(10.847508,0,0,-10.847508,104.88463,96.786869)" fill="#343a40"/>
<use data-text="r" xlink:href="#font_1_45" transform="matrix(10.847508,0,0,-10.847508,110.78567,96.786869)" fill="#343a40"/>
<use data-text="a" xlink:href="#font_1_28" transform="matrix(10.847508,0,0,-10.847508,114.30026,96.786869)" fill="#343a40"/>
<use data-text="b" xlink:href="#font_1_29" transform="matrix(10.847508,0,0,-10.847508,119.7674,96.786869)" fill="#343a40"/>
<use data-text="i" xlink:href="#font_1_36" transform="matrix(10.847508,0,0,-10.847508,125.776927,96.786869)" fill="#343a40"/>
<use data-text="c" xlink:href="#font_1_30" transform="matrix(10.847508,0,0,-10.847508,128.45627,96.786869)" fill="#343a40"/>
<use data-text="i" xlink:href="#font_1_36" transform="matrix(10.847508,0,0,-10.847508,133.40274,96.786869)" fill="#343a40"/>
<use data-text="z" xlink:href="#font_1_53" transform="matrix(10.847508,0,0,-10.847508,136.08206,96.786869)" fill="#343a40"/>
<use data-text="e" xlink:href="#font_1_32" transform="matrix(10.847508,0,0,-10.847508,140.5838,96.786869)" fill="#343a40"/>
<use data-text="d" xlink:href="#font_1_31" transform="matrix(10.847508,0,0,-10.847508,145.96414,96.786869)" fill="#343a40"/>
<use data-text="l" xlink:href="#font_1_39" transform="matrix(10.847508,0,0,-10.847508,154.15402,96.786869)" fill="#343a40"/>
<use data-text="o" xlink:href="#font_1_42" transform="matrix(10.847508,0,0,-10.847508,156.92014,96.786869)" fill="#343a40"/>
<use data-text="a" xlink:href="#font_1_28" transform="matrix(10.847508,0,0,-10.847508,162.64762,96.786869)" fill="#343a40"/>
<use data-text="n" xlink:href="#font_1_41" transform="matrix(10.847508,0,0,-10.847508,168.11475,96.786869)" fill="#343a40"/>
<use data-text="w" xlink:href="#font_1_50" transform="matrix(10.847508,0,0,-10.847508,174.04834,96.786869)" fill="#343a40"/>
<use data-text="o" xlink:href="#font_1_42" transform="matrix(10.847508,0,0,-10.847508,181.79349,96.786869)" fill="#343a40"/>
<use data-text="r" xlink:href="#font_1_45" transform="matrix(10.847508,0,0,-10.847508,187.67282,96.786869)" fill="#343a40"/>
<use data-text="d" xlink:href="#font_1_31" transform="matrix(10.847508,0,0,-10.847508,191.3393,96.786869)" fill="#343a40"/>
<use data-text="s" xlink:href="#font_1_46" transform="matrix(10.847508,0,0,-10.847508,197.35965,96.786869)" fill="#343a40"/>
<use data-text="f" xlink:href="#font_1_33" transform="matrix(10.847508,0,0,-10.847508,204.07425,96.786869)" fill="#343a40"/>
<use data-text="r" xlink:href="#font_1_45" transform="matrix(10.847508,0,0,-10.847508,207.24173,96.786869)" fill="#343a40"/>
<use data-text="o" xlink:href="#font_1_42" transform="matrix(10.847508,0,0,-10.847508,210.9082,96.786869)" fill="#343a40"/>
<use data-text="m" xlink:href="#font_1_40" transform="matrix(10.847508,0,0,-10.847508,216.78754,96.786869)" fill="#343a40"/>
<use data-text="P" xlink:href="#font_1_17" transform="matrix(10.847508,0,0,-10.847508,116.92603,116.750339)" fill="#343a40"/>
<use data-text="e" xlink:href="#font_1_32" transform="matrix(10.847508,0,0,-10.847508,122.81622,116.750339)" fill="#343a40"/>
<use data-text="r" xlink:href="#font_1_45" transform="matrix(10.847508,0,0,-10.847508,128.1966,116.750339)" fill="#343a40"/>
<use data-text="s" xlink:href="#font_1_46" transform="matrix(10.847508,0,0,-10.847508,131.92813,116.750339)" fill="#343a40"/>
<use data-text="i" xlink:href="#font_1_36" transform="matrix(10.847508,0,0,-10.847508,136.47324,116.750339)" fill="#343a40"/>
<use data-text="a" xlink:href="#font_1_28" transform="matrix(10.847508,0,0,-10.847508,139.15256,116.750339)" fill="#343a40"/>
<use data-text="n" xlink:href="#font_1_41" transform="matrix(10.847508,0,0,-10.847508,144.61972,116.750339)" fill="#343a40"/>
<use data-text="," xlink:href="#font_1_1258" transform="matrix(10.847508,0,0,-10.847508,150.55332,116.750339)" fill="#343a40"/>
<use data-text="A" xlink:href="#font_1_2" transform="matrix(10.847508,0,0,-10.847508,155.4347,116.750339)" fill="#343a40"/>
<use data-text="r" xlink:href="#font_1_45" transform="matrix(10.847508,0,0,-10.847508,161.33573,116.750339)" fill="#343a40"/>
<use data-text="a" xlink:href="#font_1_28" transform="matrix(10.847508,0,0,-10.847508,164.85031,116.750339)" fill="#343a40"/>
<use data-text="m" xlink:href="#font_1_40" transform="matrix(10.847508,0,0,-10.847508,170.31748,116.750339)" fill="#343a40"/>
<use data-text="a" xlink:href="#font_1_28" transform="matrix(10.847508,0,0,-10.847508,179.31006,116.750339)" fill="#343a40"/>
<use data-text="i" xlink:href="#font_1_36" transform="matrix(10.847508,0,0,-10.847508,184.77719,116.750339)" fill="#343a40"/>
<use data-text="c" xlink:href="#font_1_30" transform="matrix(10.847508,0,0,-10.847508,187.45655,116.750339)" fill="#343a40"/>
<use data-text="," xlink:href="#font_1_1258" transform="matrix(10.847508,0,0,-10.847508,192.40299,116.750339)" fill="#343a40"/>
<use data-text="e" xlink:href="#font_1_32" transform="matrix(10.847508,0,0,-10.847508,197.28437,116.750339)" fill="#343a40"/>
<use data-text="t" xlink:href="#font_1_47" transform="matrix(10.847508,0,0,-10.847508,202.55628,116.750339)" fill="#343a40"/>
<use data-text="c" xlink:href="#font_1_30" transform="matrix(10.847508,0,0,-10.847508,206.0817,116.750339)" fill="#343a40"/>
<use data-text="." xlink:href="#font_1_1257" transform="matrix(10.847508,0,0,-10.847508,211.02817,116.750339)" fill="#343a40"/>
<path transform="matrix(1.83,0,0,-1.83,165.33319,317.32749)" stroke-width=".3985" stroke-linecap="butt" stroke-dasharray="2.98883,2.98883" stroke-miterlimit="10" stroke-linejoin="miter" fill="none" stroke="#343a40" d="M6.22134 105.33809 80.30925 9.62473"/>
<path transform="matrix(1.1201063,1.4470543,1.4470543,-1.1201063,312.29908,299.71424)" d="M1.99252 0-1.19551 1.59401 0 0-1.19551-1.59401" fill="#343a40"/>
<use data-text="A" xlink:href="#font_1_2" transform="matrix(10.847508,0,0,-10.847508,312.381,96.786869)" fill="#343a40"/>
<use data-text="r" xlink:href="#font_1_45" transform="matrix(10.847508,0,0,-10.847508,318.28205,96.786869)" fill="#343a40"/>
<use data-text="a" xlink:href="#font_1_28" transform="matrix(10.847508,0,0,-10.847508,321.79664,96.786869)" fill="#343a40"/>
<use data-text="b" xlink:href="#font_1_29" transform="matrix(10.847508,0,0,-10.847508,327.26377,96.786869)" fill="#343a40"/>
<use data-text="i" xlink:href="#font_1_36" transform="matrix(10.847508,0,0,-10.847508,333.2733,96.786869)" fill="#343a40"/>
<use data-text="c" xlink:href="#font_1_30" transform="matrix(10.847508,0,0,-10.847508,335.9526,96.786869)" fill="#343a40"/>
<use data-text="i" xlink:href="#font_1_36" transform="matrix(10.847508,0,0,-10.847508,340.89909,96.786869)" fill="#343a40"/>
<use data-text="z" xlink:href="#font_1_53" transform="matrix(10.847508,0,0,-10.847508,343.5784,96.786869)" fill="#343a40"/>
<use data-text="e" xlink:href="#font_1_32" transform="matrix(10.847508,0,0,-10.847508,348.0801,96.786869)" fill="#343a40"/>
<use data-text="d" xlink:href="#font_1_31" transform="matrix(10.847508,0,0,-10.847508,353.46049,96.786869)" fill="#343a40"/>
<use data-text="l" xlink:href="#font_1_39" transform="matrix(10.847508,0,0,-10.847508,361.65037,96.786869)" fill="#343a40"/>
<use data-text="o" xlink:href="#font_1_42" transform="matrix(10.847508,0,0,-10.847508,364.41648,96.786869)" fill="#343a40"/>
<use data-text="a" xlink:href="#font_1_28" transform="matrix(10.847508,0,0,-10.847508,370.14393,96.786869)" fill="#343a40"/>
<use data-text="n" xlink:href="#font_1_41" transform="matrix(10.847508,0,0,-10.847508,375.61106,96.786869)" fill="#343a40"/>
<use data-text="w" xlink:href="#font_1_50" transform="matrix(10.847508,0,0,-10.847508,381.54466,96.786869)" fill="#343a40"/>
<use data-text="o" xlink:href="#font_1_42" transform="matrix(10.847508,0,0,-10.847508,389.28977,96.786869)" fill="#343a40"/>
<use data-text="r" xlink:href="#font_1_45" transform="matrix(10.847508,0,0,-10.847508,395.1691,96.786869)" fill="#343a40"/>
<use data-text="d" xlink:href="#font_1_31" transform="matrix(10.847508,0,0,-10.847508,398.83555,96.786869)" fill="#343a40"/>
<use data-text="s" xlink:href="#font_1_46" transform="matrix(10.847508,0,0,-10.847508,404.85594,96.786869)" fill="#343a40"/>
<use data-text="f" xlink:href="#font_1_33" transform="matrix(10.847508,0,0,-10.847508,411.57054,96.786869)" fill="#343a40"/>
<use data-text="r" xlink:href="#font_1_45" transform="matrix(10.847508,0,0,-10.847508,414.738,96.786869)" fill="#343a40"/>
<use data-text="o" xlink:href="#font_1_42" transform="matrix(10.847508,0,0,-10.847508,418.40446,96.786869)" fill="#343a40"/>
<use data-text="m" xlink:href="#font_1_40" transform="matrix(10.847508,0,0,-10.847508,424.28379,96.786869)" fill="#343a40"/>
<use data-text="P" xlink:href="#font_1_17" transform="matrix(10.847508,0,0,-10.847508,329.59034,116.750339)" fill="#343a40"/>
<use data-text="e" xlink:href="#font_1_32" transform="matrix(10.847508,0,0,-10.847508,335.48054,116.750339)" fill="#343a40"/>
<use data-text="r" xlink:href="#font_1_45" transform="matrix(10.847508,0,0,-10.847508,340.8609,116.750339)" fill="#343a40"/>
<use data-text="s" xlink:href="#font_1_46" transform="matrix(10.847508,0,0,-10.847508,344.59245,116.750339)" fill="#343a40"/>
<use data-text="i" xlink:href="#font_1_36" transform="matrix(10.847508,0,0,-10.847508,349.13755,116.750339)" fill="#343a40"/>
<use data-text="a" xlink:href="#font_1_28" transform="matrix(10.847508,0,0,-10.847508,351.81687,116.750339)" fill="#343a40"/>
<use data-text="n" xlink:href="#font_1_41" transform="matrix(10.847508,0,0,-10.847508,357.284,116.750339)" fill="#343a40"/>
<use data-text="," xlink:href="#font_1_1258" transform="matrix(10.847508,0,0,-10.847508,363.2176,116.750339)" fill="#343a40"/>
<use data-text="G" xlink:href="#font_1_8" transform="matrix(10.847508,0,0,-10.847508,368.09898,116.750339)" fill="#343a40"/>
<use data-text="r" xlink:href="#font_1_45" transform="matrix(10.847508,0,0,-10.847508,374.7919,116.750339)" fill="#343a40"/>
<use data-text="e" xlink:href="#font_1_32" transform="matrix(10.847508,0,0,-10.847508,378.45835,116.750339)" fill="#343a40"/>
<use data-text="e" xlink:href="#font_1_32" transform="matrix(10.847508,0,0,-10.847508,383.8387,116.750339)" fill="#343a40"/>
<use data-text="k" xlink:href="#font_1_38" transform="matrix(10.847508,0,0,-10.847508,389.2191,116.750339)" fill="#343a40"/>
<use data-text="," xlink:href="#font_1_1258" transform="matrix(10.847508,0,0,-10.847508,394.7296,116.750339)" fill="#343a40"/>
<use data-text="e" xlink:href="#font_1_32" transform="matrix(10.847508,0,0,-10.847508,399.611,116.750339)" fill="#343a40"/>
<use data-text="t" xlink:href="#font_1_47" transform="matrix(10.847508,0,0,-10.847508,404.88288,116.750339)" fill="#343a40"/>
<use data-text="c" xlink:href="#font_1_30" transform="matrix(10.847508,0,0,-10.847508,408.40834,116.750339)" fill="#343a40"/>
<use data-text="." xlink:href="#font_1_1257" transform="matrix(10.847508,0,0,-10.847508,413.35478,116.750339)" fill="#343a40"/>
<path transform="matrix(1.83,0,0,-1.83,165.33319,317.32749)" stroke-width=".3985" stroke-linecap="butt" stroke-dasharray="2.98883,2.98883" stroke-miterlimit="10" stroke-linejoin="miter" fill="none" stroke="#343a40" d="M123.64621 105.33809 173.8296 65.97253"/>
<path transform="matrix(1.439789,1.1294577,1.1294577,-1.439789,483.44139,196.59772)" d="M1.99252 0-1.19551 1.59401 0 0-1.19551-1.59401" fill="#343a40"/>
<use data-text="t" xlink:href="#font_1_47" transform="matrix(10.847508,0,0,-10.847508,486.33717,96.786869)" fill="#343a40"/>
<use data-text="r" xlink:href="#font_1_45" transform="matrix(10.847508,0,0,-10.847508,490.01448,96.786869)" fill="#343a40"/>
<use data-text="a" xlink:href="#font_1_28" transform="matrix(10.847508,0,0,-10.847508,493.52903,96.786869)" fill="#343a40"/>
<use data-text="n" xlink:href="#font_1_41" transform="matrix(10.847508,0,0,-10.847508,498.9962,96.786869)" fill="#343a40"/>
<use data-text="s" xlink:href="#font_1_46" transform="matrix(10.847508,0,0,-10.847508,504.92979,96.786869)" fill="#343a40"/>
<use data-text="l" xlink:href="#font_1_39" transform="matrix(10.847508,0,0,-10.847508,509.4749,96.786869)" fill="#343a40"/>
<use data-text="a" xlink:href="#font_1_28" transform="matrix(10.847508,0,0,-10.847508,512.241,96.786869)" fill="#343a40"/>
<use data-text="t" xlink:href="#font_1_47" transform="matrix(10.847508,0,0,-10.847508,517.55636,96.786869)" fill="#343a40"/>
<use data-text="e" xlink:href="#font_1_32" transform="matrix(10.847508,0,0,-10.847508,521.0818,96.786869)" fill="#343a40"/>
<use data-text="d" xlink:href="#font_1_31" transform="matrix(10.847508,0,0,-10.847508,526.46218,96.786869)" fill="#343a40"/>
<use data-text="v" xlink:href="#font_1_49" transform="matrix(10.847508,0,0,-10.847508,534.6412,96.786869)" fill="#343a40"/>
<use data-text="o" xlink:href="#font_1_42" transform="matrix(10.847508,0,0,-10.847508,539.68527,96.786869)" fill="#343a40"/>
<use data-text="c" xlink:href="#font_1_30" transform="matrix(10.847508,0,0,-10.847508,545.56466,96.786869)" fill="#343a40"/>
<use data-text="a" xlink:href="#font_1_28" transform="matrix(10.847508,0,0,-10.847508,550.4026,96.786869)" fill="#343a40"/>
<use data-text="b" xlink:href="#font_1_29" transform="matrix(10.847508,0,0,-10.847508,555.86978,96.786869)" fill="#343a40"/>
<use data-text="u" xlink:href="#font_1_48" transform="matrix(10.847508,0,0,-10.847508,561.87936,96.786869)" fill="#343a40"/>
<use data-text="l" xlink:href="#font_1_39" transform="matrix(10.847508,0,0,-10.847508,567.78036,96.786869)" fill="#343a40"/>
<use data-text="a" xlink:href="#font_1_28" transform="matrix(10.847508,0,0,-10.847508,570.54647,96.786869)" fill="#343a40"/>
<use data-text="r" xlink:href="#font_1_45" transform="matrix(10.847508,0,0,-10.847508,576.0136,96.786869)" fill="#343a40"/>
<use data-text="y" xlink:href="#font_1_52" transform="matrix(10.847508,0,0,-10.847508,580.0489,96.786869)" fill="#343a40"/>
<use data-text="," xlink:href="#font_1_1258" transform="matrix(10.847508,0,0,-10.847508,584.7567,96.786869)" fill="#343a40"/>
<use data-text="s" xlink:href="#font_1_46" transform="matrix(10.847508,0,0,-10.847508,589.62728,96.786869)" fill="#343a40"/>
<use data-text="t" xlink:href="#font_1_47" transform="matrix(10.847508,0,0,-10.847508,593.9663,96.786869)" fill="#343a40"/>
<use data-text="y" xlink:href="#font_1_52" transform="matrix(10.847508,0,0,-10.847508,597.6436,96.786869)" fill="#343a40"/>
<use data-text="l" xlink:href="#font_1_39" transform="matrix(10.847508,0,0,-10.847508,602.7202,96.786869)" fill="#343a40"/>
<use data-text="e" xlink:href="#font_1_32" transform="matrix(10.847508,0,0,-10.847508,605.4863,96.786869)" fill="#343a40"/>
<use data-text="a" xlink:href="#font_1_28" transform="matrix(10.847508,0,0,-10.847508,613.0254,96.786869)" fill="#343a40"/>
<use data-text="n" xlink:href="#font_1_41" transform="matrix(10.847508,0,0,-10.847508,618.49258,96.786869)" fill="#343a40"/>
<use data-text="d" xlink:href="#font_1_31" transform="matrix(10.847508,0,0,-10.847508,624.42617,96.786869)" fill="#343a40"/>
<use data-text="g" xlink:href="#font_1_34" transform="matrix(10.847508,0,0,-10.847508,632.616,96.786869)" fill="#343a40"/>
<use data-text="r" xlink:href="#font_1_45" transform="matrix(10.847508,0,0,-10.847508,638.094,96.786869)" fill="#343a40"/>
<use data-text="a" xlink:href="#font_1_28" transform="matrix(10.847508,0,0,-10.847508,641.61947,96.786869)" fill="#343a40"/>
<use data-text="m" xlink:href="#font_1_40" transform="matrix(10.847508,0,0,-10.847508,647.0866,96.786869)" fill="#343a40"/>
<use data-text="m" xlink:href="#font_1_40" transform="matrix(10.847508,0,0,-10.847508,656.0792,96.786869)" fill="#343a40"/>
<use data-text="a" xlink:href="#font_1_28" transform="matrix(10.847508,0,0,-10.847508,665.0718,96.786869)" fill="#343a40"/>
<use data-text="r" xlink:href="#font_1_45" transform="matrix(10.847508,0,0,-10.847508,670.53897,96.786869)" fill="#343a40"/>
<use data-text="f" xlink:href="#font_1_33" transform="matrix(10.847508,0,0,-10.847508,523.2775,116.750339)" fill="#343a40"/>
<use data-text="r" xlink:href="#font_1_45" transform="matrix(10.847508,0,0,-10.847508,526.445,116.750339)" fill="#343a40"/>
<use data-text="o" xlink:href="#font_1_42" transform="matrix(10.847508,0,0,-10.847508,530.1115,116.750339)" fill="#343a40"/>
<use data-text="m" xlink:href="#font_1_40" transform="matrix(10.847508,0,0,-10.847508,535.99087,116.750339)" fill="#343a40"/>
<use data-text="E" xlink:href="#font_1_6" transform="matrix(10.847508,0,0,-10.847508,547.15298,116.750339)" fill="#343a40"/>
<use data-text="n" xlink:href="#font_1_41" transform="matrix(10.847508,0,0,-10.847508,552.86959,116.750339)" fill="#343a40"/>
<use data-text="g" xlink:href="#font_1_34" transform="matrix(10.847508,0,0,-10.847508,558.80319,116.750339)" fill="#343a40"/>
<use data-text="l" xlink:href="#font_1_39" transform="matrix(10.847508,0,0,-10.847508,564.2811,116.750339)" fill="#343a40"/>
<use data-text="i" xlink:href="#font_1_36" transform="matrix(10.847508,0,0,-10.847508,567.04727,116.750339)" fill="#343a40"/>
<use data-text="s" xlink:href="#font_1_46" transform="matrix(10.847508,0,0,-10.847508,569.72659,116.750339)" fill="#343a40"/>
<use data-text="h" xlink:href="#font_1_35" transform="matrix(10.847508,0,0,-10.847508,574.27169,116.750339)" fill="#343a40"/>
<use data-text="," xlink:href="#font_1_1258" transform="matrix(10.847508,0,0,-10.847508,580.1727,116.750339)" fill="#343a40"/>
<use data-text="F" xlink:href="#font_1_7" transform="matrix(10.847508,0,0,-10.847508,585.0541,116.750339)" fill="#343a40"/>
<use data-text="r" xlink:href="#font_1_45" transform="matrix(10.847508,0,0,-10.847508,590.20669,116.750339)" fill="#343a40"/>
<use data-text="e" xlink:href="#font_1_32" transform="matrix(10.847508,0,0,-10.847508,593.87319,116.750339)" fill="#343a40"/>
<use data-text="n" xlink:href="#font_1_41" transform="matrix(10.847508,0,0,-10.847508,599.25357,116.750339)" fill="#343a40"/>
<use data-text="c" xlink:href="#font_1_30" transform="matrix(10.847508,0,0,-10.847508,605.18716,116.750339)" fill="#343a40"/>
<use data-text="h" xlink:href="#font_1_35" transform="matrix(10.847508,0,0,-10.847508,610.13357,116.750339)" fill="#343a40"/>
<use data-text="," xlink:href="#font_1_1258" transform="matrix(10.847508,0,0,-10.847508,616.0346,116.750339)" fill="#343a40"/>
<use data-text="e" xlink:href="#font_1_32" transform="matrix(10.847508,0,0,-10.847508,620.91598,116.750339)" fill="#343a40"/>
<use data-text="t" xlink:href="#font_1_47" transform="matrix(10.847508,0,0,-10.847508,626.18789,116.750339)" fill="#343a40"/>
<use data-text="c" xlink:href="#font_1_30" transform="matrix(10.847508,0,0,-10.847508,629.7134,116.750339)" fill="#343a40"/>
<use data-text="." xlink:href="#font_1_1257" transform="matrix(10.847508,0,0,-10.847508,634.6598,116.750339)" fill="#343a40"/>
<path transform="matrix(1.83,0,0,-1.83,165.33319,317.32749)" stroke-width=".3985" stroke-linecap="butt" stroke-dasharray="2.98883,2.98883" stroke-miterlimit="10" stroke-linejoin="miter" fill="none" stroke="#343a40" d="M235.70594 105.33809 279.27976 66.07652"/>
<path transform="matrix(1.3594887,1.2249471,1.2249471,-1.3594887,676.41519,196.40741)" d="M1.99252 0-1.19551 1.59401 0 0-1.19551-1.59401" fill="#343a40"/>
<use data-text="f" xlink:href="#font_1_33" transform="matrix(12.65542,0,0,-12.65542,30.399975,96.786869)" fill="#343a40"/>
<use data-text="o" xlink:href="#font_1_42" transform="matrix(12.65542,0,0,-12.65542,33.968805,96.786869)" fill="#343a40"/>
<use data-text="r" xlink:href="#font_1_45" transform="matrix(12.65542,0,0,-12.65542,40.828046,96.786869)" fill="#343a40"/>
<use data-text="e" xlink:href="#font_1_32" transform="matrix(12.65542,0,0,-12.65542,45.10558,96.786869)" fill="#343a40"/>
<use data-text="i" xlink:href="#font_1_36" transform="matrix(12.65542,0,0,-12.65542,51.382669,96.786869)" fill="#343a40"/>
<use data-text="g" xlink:href="#font_1_34" transform="matrix(12.65542,0,0,-12.65542,54.508558,96.786869)" fill="#343a40"/>
<use data-text="n" xlink:href="#font_1_41" transform="matrix(12.65542,0,0,-12.65542,60.899545,96.786869)" fill="#343a40"/>
<use data-text="l" xlink:href="#font_1_39" transform="matrix(12.65542,0,0,-12.65542,13.847626,116.750339)" fill="#343a40"/>
<use data-text="a" xlink:href="#font_1_28" transform="matrix(12.65542,0,0,-12.65542,17.074759,116.750339)" fill="#343a40"/>
<use data-text="n" xlink:href="#font_1_41" transform="matrix(12.65542,0,0,-12.65542,23.45309,116.750339)" fill="#343a40"/>
<use data-text="g" xlink:href="#font_1_34" transform="matrix(12.65542,0,0,-12.65542,30.375605,116.750339)" fill="#343a40"/>
<use data-text="u" xlink:href="#font_1_48" transform="matrix(12.65542,0,0,-12.65542,36.76659,116.750339)" fill="#343a40"/>
<use data-text="a" xlink:href="#font_1_28" transform="matrix(12.65542,0,0,-12.65542,43.65114,116.750339)" fill="#343a40"/>
<use data-text="g" xlink:href="#font_1_34" transform="matrix(12.65542,0,0,-12.65542,50.029474,116.750339)" fill="#343a40"/>
<use data-text="e" xlink:href="#font_1_32" transform="matrix(12.65542,0,0,-12.65542,56.243284,116.750339)" fill="#343a40"/>
<use data-text="s" xlink:href="#font_1_46" transform="matrix(12.65542,0,0,-12.65542,62.52037,116.750339)" fill="#343a40"/>
<path transform="matrix(1.83,0,0,-1.83,165.33319,317.32749)" stroke-width=".3985" stroke-linecap="butt" stroke-miterlimit="10" stroke-linejoin="miter" fill="none" stroke="#343a40" d="M-85.04042-14.17339H309.82237"/>
<path transform="matrix(1.83,0,0,-1.83,732.3081,343.2648)" d="M1.99252 0-1.19551 1.59401 0 0-1.19551-1.59401" fill="#343a40"/>
<path transform="matrix(1.83,0,0,-1.83,165.33319,317.32749)" stroke-width=".3985" stroke-linecap="butt" stroke-miterlimit="10" stroke-linejoin="miter" fill="none" stroke="#343a40" d="M-42.5202-28.3468V139.74152"/>
<path transform="matrix(0,-1.83,-1.83,-0,87.521228,61.60051)" d="M1.99252 0-1.19551 1.59401 0 0-1.19551-1.59401" fill="#343a40"/>
<use data-text="l" xlink:href="#font_1_39" transform="matrix(0,-12.65542,-12.65542,-0,59.74768,58.570955)" fill="#343a40"/>
<use data-text="a" xlink:href="#font_1_28" transform="matrix(0,-12.65542,-12.65542,-0,59.74768,55.34381)" fill="#343a40"/>
<use data-text="n" xlink:href="#font_1_41" transform="matrix(0,-12.65542,-12.65542,-0,59.74768,48.965486)" fill="#343a40"/>
<use data-text="g" xlink:href="#font_1_34" transform="matrix(0,-12.65542,-12.65542,-0,59.74768,42.04297)" fill="#343a40"/>
<use data-text="u" xlink:href="#font_1_48" transform="matrix(0,-12.65542,-12.65542,-0,59.74768,35.651979)" fill="#343a40"/>
<use data-text="a" xlink:href="#font_1_28" transform="matrix(0,-12.65542,-12.65542,-0,59.74768,28.767426)" fill="#343a40"/>
<use data-text="g" xlink:href="#font_1_34" transform="matrix(0,-12.65542,-12.65542,-0,59.74768,22.389092)" fill="#343a40"/>
<use data-text="e" xlink:href="#font_1_32" transform="matrix(0,-12.65542,-12.65542,-0,59.74768,16.175286)" fill="#343a40"/>
<use data-text="/" xlink:href="#font_1_1311" transform="matrix(0,-12.65542,-12.65542,-0,59.74768,9.898209)" fill="#343a40"/>
<use data-text="v" xlink:href="#font_1_49" transform="matrix(0,-12.65542,-12.65542,-0,79.71115,49.990076)" fill="#343a40"/>
<use data-text="a" xlink:href="#font_1_28" transform="matrix(0,-12.65542,-12.65542,-0,79.71115,44.320444)" fill="#343a40"/>
<use data-text="r" xlink:href="#font_1_45" transform="matrix(0,-12.65542,-12.65542,-0,79.71115,37.94211)" fill="#343a40"/>
<use data-text="i" xlink:href="#font_1_36" transform="matrix(0,-12.65542,-12.65542,-0,79.71115,33.538026)" fill="#343a40"/>
<use data-text="e" xlink:href="#font_1_32" transform="matrix(0,-12.65542,-12.65542,-0,79.71115,30.412133)" fill="#343a40"/>
<use data-text="t" xlink:href="#font_1_47" transform="matrix(0,-12.65542,-12.65542,-0,79.71115,24.261597)" fill="#343a40"/>
<use data-text="y" xlink:href="#font_1_52" transform="matrix(0,-12.65542,-12.65542,-0,79.71115,19.971413)" fill="#343a40"/>
<use data-text="t" xlink:href="#font_1_47" transform="matrix(12.65542,0,0,-12.65542,346.90397,365.74565)" fill="#343a40"/>
<use data-text="h" xlink:href="#font_1_35" transform="matrix(12.65542,0,0,-12.65542,351.19416,365.74565)" fill="#343a40"/>
<use data-text="e" xlink:href="#font_1_32" transform="matrix(12.65542,0,0,-12.65542,358.0787,365.74565)" fill="#343a40"/>
<use data-text="H" xlink:href="#font_1_9" transform="matrix(12.65542,0,0,-12.65542,366.88688,365.74565)" fill="#343a40"/>
<use data-text="i" xlink:href="#font_1_36" transform="matrix(12.65542,0,0,-12.65542,375.13819,365.74565)" fill="#343a40"/>
<use data-text="j" xlink:href="#font_1_37" transform="matrix(12.65542,0,0,-12.65542,378.26408,365.74565)" fill="#343a40"/>
<use data-text="r" xlink:href="#font_1_45" transform="matrix(12.65542,0,0,-12.65542,381.38996,365.74565)" fill="#343a40"/>
<use data-text="a" xlink:href="#font_1_28" transform="matrix(12.65542,0,0,-12.65542,385.4903,365.74565)" fill="#343a40"/>
<use data-text="h" xlink:href="#font_1_35" transform="matrix(12.65542,0,0,-12.65542,391.86866,365.74565)" fill="#343a40"/>
<use data-text="m" xlink:href="#font_1_40" transform="matrix(12.65542,0,0,-12.65542,667.71768,365.74565)" fill="#343a40"/>
<use data-text="o" xlink:href="#font_1_42" transform="matrix(12.65542,0,0,-12.65542,678.209,365.74565)" fill="#343a40"/>
<use data-text="d" xlink:href="#font_1_31" transform="matrix(12.65542,0,0,-12.65542,685.06826,365.74565)" fill="#343a40"/>
<use data-text="e" xlink:href="#font_1_32" transform="matrix(12.65542,0,0,-12.65542,692.092,365.74565)" fill="#343a40"/>
<use data-text="r" xlink:href="#font_1_45" transform="matrix(12.65542,0,0,-12.65542,698.3691,365.74565)" fill="#343a40"/>
<use data-text="n" xlink:href="#font_1_41" transform="matrix(12.65542,0,0,-12.65542,702.7732,365.74565)" fill="#343a40"/>
<use data-text="d" xlink:href="#font_1_31" transform="matrix(12.65542,0,0,-12.65542,712.2268,365.74565)" fill="#343a40"/>
<use data-text="a" xlink:href="#font_1_28" transform="matrix(12.65542,0,0,-12.65542,719.25057,365.74565)" fill="#343a40"/>
<use data-text="y" xlink:href="#font_1_52" transform="matrix(12.65542,0,0,-12.65542,725.62887,365.74565)" fill="#343a40"/>
</svg>
