<svg xmlns="http://www.w3.org/2000/svg" xmlns:xlink="http://www.w3.org/1999/xlink" xmlns:inkscape="http://www.inkscape.org/namespaces/inkscape" version="1.1" width="757.2559" height="343.99198" viewBox="0 0 757.2559 343.99198">
<defs>
<path id="font_1_50" d="M.69189456 .33496095C.69189456 .28645835 .6841634 .24104817 .6687012 .19873047 .65323898 .15641277 .6311849 .119140628 .60253909 .08691406 .57389327 .0546875 .5395508 .029459635 .49951173 .011230469 .45947267-.0069986979 .41503907-.016113282 .36621095-.016113282 .30078126-.016113282 .24357097-.0007324219 .19458008 .030029297 .14558919 .060791017 .107421878 .10270182 .080078128 .15576172 .052734376 .20882161 .0390625 .26888023 .0390625 .3359375 .0390625 .38476563 .04663086 .43033854 .061767579 .47265626 .0769043 .51497396 .09879557 .5522461 .1274414 .58447268 .15608724 .6166992 .19042969 .6418457 .23046875 .6599121 .2705078 .6779785 .3154297 .6870117 .36523438 .6870117 .41471354 .6870117 .45947267 .67789718 .49951173 .65966799 .5395508 .6414388 .57389327 .6161296 .60253909 .58374026 .6311849 .5513509 .65323898 .513916 .6687012 .47143556 .6841634 .42895509 .69189456 .38346354 .69189456 .33496095M.5761719 .33398438C.5761719 .38834635 .5683594 .4379069 .5527344 .48266603 .5371094 .5274251 .51375326 .56315109 .48266603 .58984377 .45157878 .61653646 .4127604 .6298828 .36621095 .6298828 .31803385 .6298828 .27823893 .6164551 .24682617 .5895996 .2154134 .56274417 .1920573 .52701827 .17675781 .48242188 .16145833 .43782554 .1538086 .3889974 .1538086 .3359375 .1538086 .2825521 .16145833 .23331706 .17675781 .18823242 .1920573 .14314778 .21525066 .10701498 .24633789 .079833988 .27742515 .052652997 .316569 .0390625 .36376954 .0390625 .41194663 .0390625 .45166017 .052652997 .48291017 .079833988 .51416018 .10701498 .5375163 .14298503 .5529785 .18774414 .56844076 .23250325 .5761719 .28125 .5761719 .33398438Z"/>
<path id="font_1_79" d="M.27001954 0H.026855469V.0390625L.080078128 .041992189C.084635417 .042317708 .08943685 .044840497 .09448242 .049560548 .09952799 .054280599 .10205078 .05875651 .10205078 .06298828V.66503909H.025878907V.6982422L.1538086 .7368164H.19482422V.06298828C.19482422 .05875651 .19726563 .054280599 .20214844 .049560548 .20703125 .044840497 .21158855 .042317708 .21582031 .041992189L.27001954 .0390625V0Z"/>
<path id="font_1_71" d="M.53808596 0H.38085938V.053222658C.3580729 .03564453 .33382163 .020345053 .30810548 .0073242189 .2823893-.0056966149 .25504557-.012207031 .22607422-.012207031 .19254558-.012207031 .1636556-.005126953 .1394043 .009033203 .11515299 .02319336 .09529623 .041992189 .079833988 .06542969 .06437174 .08886719 .052897138 .114746097 .045410158 .1430664 .037923177 .17138672 .034179689 .19970703 .034179689 .22802735 .034179689 .27327476 .04345703 .3161621 .06201172 .35668946 .080566409 .3972168 .10872396 .43025718 .14648438 .45581056 .1842448 .48136393 .23177083 .49414063 .2890625 .49414063 .30501304 .49414063 .32234703 .4925944 .34106446 .48950196 .3597819 .48640953 .37304688 .48388673 .38085938 .4819336V.66503909H.30517579V.6982422L.43408204 .7368164H.4741211V.063964847C.4741211 .05029297 .48111979 .04296875 .4951172 .041992189L.53808596 .0390625V0M.38085938 .09082031V.43115235C.37239585 .43408204 .3597819 .43725587 .34301759 .44067384 .32625328 .4440918 .31054688 .44580079 .29589845 .44580079 .24641927 .44580079 .20686849 .42749024 .1772461 .39086915 .1476237 .35424806 .1328125 .30566407 .1328125 .24511719 .1328125 .1907552 .14550781 .14567058 .17089844 .10986328 .19628906 .07405599 .2319336 .056152345 .27783204 .056152345 .2980143 .056152345 .31697593 .059977216 .3347168 .06762695 .35245768 .075276698 .36783854 .08300781 .38085938 .09082031Z"/>
<path id="font_1_36" d="M.6689453 0H.43115235V.04296875L.48876954 .047851564C.49202476 .047851564 .49479167 .050130208 .4970703 .0546875 .49934898 .059244794 .5 .06266276 .49902345 .064941409L.43017579 .24804688H.19921875L.1328125 .067871097C.13151042 .063964847 .13273113 .05965169 .13647461 .05493164 .1402181 .05021159 .14371746 .047851564 .14697266 .047851564L.20605469 .04296875V0H.0048828127V.04296875L.06298828 .05517578 .29589845 .6870117H.37109376L.60302737 .06982422C.60563156 .06298828 .60791018 .05843099 .6098633 .056152345 .6118164 .0538737 .61653646 .052083333 .62402346 .05078125L.6689453 .04296875V0M.41210938 .29589845 .31396485 .55810549 .21679688 .29589845H.41210938Z"/>
<path id="font_1_85" d="M.38085938 .3798828H.34179688C.33561198 .38736979 .3282064 .39379884 .31958009 .39916993 .31095378 .40454103 .30045573 .40722657 .28808595 .40722657 .2721354 .40722657 .25577799 .40169273 .23901367 .390625 .22224935 .37955729 .20524089 .36442057 .18798828 .34521485V.063964847C.18798828 .04996745 .19498699 .04264323 .20898438 .041992189L.27490235 .0390625V0H.024902344V.038085939L.07421875 .041992189C.080078128 .04264323 .08504232 .044921876 .08911133 .048828126 .093180339 .052734376 .095214847 .05777995 .095214847 .063964847V.4111328H.022949219V.44384767L.14697266 .4819336H.18798828V.3930664C.2163086 .425944 .2409668 .45100913 .2619629 .46826173 .28295899 .4855143 .3022461 .49414063 .31982423 .49414063 .33024089 .49414063 .34147135 .49251304 .35351563 .4892578 .3655599 .4860026 .37467448 .48258464 .38085938 .4790039V.3798828Z"/>
<path id="font_1_68" d="M.4921875 0H.34423829L.3310547 .05908203C.31835938 .048990888 .30257163 .038411458 .2836914 .02734375 .2648112 .016276041 .24495442 .006917318 .2241211-.0007324219 .20328777-.008382161 .18326824-.012207031 .1640625-.012207031 .12792969-.012207031 .09724935-.00016276042 .072021488 .023925782 .04679362 .048014326 .034179689 .08105469 .034179689 .123046878 .034179689 .14160156 .037516279 .15885417 .044189454 .17480469 .05086263 .1907552 .064208988 .20597331 .084228519 .22045899 .10424805 .23494466 .1340332 .24910482 .17358399 .26293946 .21313477 .27677409 .265625 .29085288 .3310547 .30517579 .3310547 .30745445 .3310547 .31306968 .3310547 .32202149 .3310547 .3309733 .3310547 .339681 .3310547 .34814454 .3310547 .41389976 .29996745 .44677735 .23779297 .44677735 .22054036 .44677735 .20564778 .44514976 .19311524 .44189454 .18058269 .4386393 .171875 .43603517 .16699219 .43408204V.34716798H.09423828C.085123699 .34716798 .076660159 .34887696 .068847659 .35229493 .061035158 .3557129 .057128908 .36360679 .057128908 .37597657 .057128908 .4033203 .06754557 .42569987 .088378909 .44311524 .10921224 .4605306 .13566081 .47338868 .16772461 .48168946 .1997884 .48999024 .23225911 .49414063 .26513673 .49414063 .30647788 .49414063 .33854167 .48771159 .36132813 .47485353 .3841146 .46199546 .4000651 .44425456 .4091797 .42163087 .41829429 .39900718 .42285157 .37320964 .42285157 .34423829V.063964847C.42285157 .05777995 .42488609 .052652997 .42895509 .048583986 .43302409 .044514974 .43798829 .042317708 .44384767 .041992189L.4921875 .0390625V0M.3310547 .09423828V.26708985C.2861328 .25602214 .2504069 .24487305 .22387696 .23364258 .197347 .22241211 .17757161 .21118164 .16455078 .19995117 .15152996 .1887207 .14298503 .17732747 .13891602 .16577149 .134847 .1542155 .1328125 .14225261 .1328125 .12988281 .1328125 .109375 .1394043 .090413417 .15258789 .07299805 .16577149 .055582685 .1842448 .046875 .20800781 .046875 .22753906 .046875 .2491862 .052246095 .27294923 .06298828 .29671226 .07373047 .31608073 .08414713 .3310547 .09423828Z"/>
<path id="font_1_69" d="M.5209961 .26416017C.5209961 .21402996 .5110677 .16902669 .49121095 .12915039 .47135417 .089274089 .44026695 .05777995 .39794923 .03466797 .3556315 .011555989 .300944 0 .23388672 0H.08984375V.66503909H.014160156V.6982422L.1430664 .7368164H.18310547V.45703126C.1944987 .4625651 .212972 .47013346 .23852539 .47973634 .26407878 .4893392 .2915039 .49414063 .32080079 .49414063 .3647461 .49414063 .40152995 .4835612 .43115235 .46240235 .46077476 .4412435 .4831543 .41316734 .49829103 .37817384 .51342776 .34318034 .5209961 .30517579 .5209961 .26416017M.4189453 .24414063C.4189453 .30729167 .40559898 .35489909 .37890626 .3869629 .35221354 .4190267 .31461589 .4350586 .26611329 .4350586 .25504557 .4350586 .2409668 .43326823 .22387696 .4296875 .20678711 .42610679 .19319661 .42252604 .18310547 .4189453V.047851564C.19124349 .047526044 .19938152 .047281904 .20751953 .04711914 .21565755 .04695638 .22379558 .046875 .2319336 .046875 .29117839 .046875 .3371582 .061523439 .36987306 .09082031 .4025879 .12011719 .4189453 .17122396 .4189453 .24414063Z"/>
<path id="font_1_76" d="M.21777344 .64697268C.21777344 .6300456 .21191406 .6154785 .20019531 .6032715 .18847656 .59106448 .17415364 .58496096 .15722656 .58496096 .14029949 .58496096 .12573242 .59106448 .11352539 .6032715 .10131836 .6154785 .095214847 .6300456 .095214847 .64697268 .095214847 .6642253 .10131836 .67871096 .11352539 .6904297 .12573242 .70214846 .14029949 .7080078 .15722656 .7080078 .17415364 .7080078 .18847656 .70214846 .20019531 .6904297 .21191406 .67871096 .21777344 .6642253 .21777344 .64697268M.26904298 0H.034179689V.0390625L.08300781 .041992189C.09700521 .04296875 .104003909 .05029297 .104003909 .063964847V.42089845H.03515625V.4560547L.15722656 .49414063H.19677735V.063964847C.19677735 .05777995 .19881185 .052652997 .20288086 .048583986 .20694988 .044514974 .21191406 .042317708 .21777344 .041992189L.26904298 .0390625V0Z"/>
<path id="font_1_70" d="M.4321289 .037109376C.40966798 .025065104 .38435874 .013834636 .35620118 .0034179688 .3280436-.0069986979 .29703776-.012207031 .2631836-.012207031 .21663411-.012207031 .17618816-.0013020834 .1418457 .020507813 .10750326 .042317708 .080973308 .072021488 .06225586 .10961914 .04353841 .1472168 .034179689 .1899414 .034179689 .23779297 .034179689 .29378257 .045328779 .3408203 .06762695 .37890626 .08992513 .4169922 .119384769 .4457194 .15600586 .4650879 .19262696 .4844564 .23225911 .49414063 .27490235 .49414063 .31884767 .49414063 .3557129 .4855957 .38549806 .46850587 .4152832 .45141603 .43017579 .42659507 .43017579 .39404298 .43017579 .37451173 .42407228 .3597819 .41186524 .34985353 .3996582 .33992515 .38606773 .33496095 .37109376 .33496095 .36002604 .33496095 .3504232 .33683268 .34228517 .34057618 .33414714 .34431968 .3269857 .34814454 .32080079 .35205079V.43896485C.3055013 .4477539 .2915039 .45214845 .2788086 .45214845 .2491862 .45214845 .22371419 .44344078 .20239258 .4260254 .18107097 .40861003 .16471355 .38476563 .15332031 .3544922 .14192708 .32421876 .13623047 .28971354 .13623047 .25097657 .13623047 .2141927 .14241536 .18058269 .15478516 .15014649 .16715496 .11971029 .18562825 .09554037 .21020508 .07763672 .2347819 .059733076 .26529948 .05078125 .3017578 .05078125 .32486979 .05078125 .34700523 .05452474 .36816407 .06201172 .3893229 .069498699 .41064454 .08024088 .4321289 .09423828V.037109376Z"/>
<path id="font_1_38" d="M.5878906 .022949219C.586263 .022298178 .57592776 .018717448 .55688479 .012207031 .5378418 .0056966149 .5135091-.0006510417 .48388673-.0068359377 .4542643-.013020833 .42236329-.016113282 .3881836-.016113282 .332194-.016113282 .2825521-.0064290368 .23925781 .012939453 .19596355 .03230794 .15942383 .05859375 .12963867 .091796878 .099853519 .125 .077311199 .16267903 .06201172 .20483399 .04671224 .24698894 .0390625 .29101563 .0390625 .33691407 .0390625 .40592448 .053710939 .46671549 .08300781 .5192871 .11230469 .5718587 .15323894 .61295577 .20581055 .6425781 .25838218 .6722005 .3194987 .6870117 .38916017 .6870117 .42171226 .6870117 .45288087 .68359377 .48266603 .6767578 .5124512 .6699219 .54752609 .66031906 .5878906 .6479492V.49121095H.52783206L.5131836 .58203127C.5128581 .58658859 .5106608 .59122726 .5065918 .59594729 .50252279 .6006673 .49902345 .6036784 .49609376 .60498049 .48860679 .6085612 .47599284 .61376956 .45825196 .62060549 .44051109 .6274414 .41910807 .6308594 .39404298 .6308594 .34879557 .6308594 .30802409 .61971029 .27172853 .5974121 .23543294 .57511398 .20670574 .54215499 .18554688 .49853517 .16438802 .45491538 .1538086 .40104167 .1538086 .33691407 .1538086 .24381511 .17626953 .17089844 .2211914 .11816406 .26611329 .06542969 .328125 .0390625 .40722657 .0390625 .43066407 .0390625 .44970704 .041829427 .46435548 .04736328 .4790039 .052897138 .4868164 .055826826 .48779298 .056152345 .49820964 .060058595 .5045573 .06673177 .50683596 .076171878L.52978518 .1850586H.5878906V.022949219Z"/>
<path id="font_1_86" d="M.3491211 .35302735H.296875L.2890625 .42285157C.28190104 .4283854 .27132163 .43359376 .25732423 .43847657 .24332683 .44335938 .22851563 .44580079 .21289063 .44580079 .18554688 .44580079 .16520183 .43953453 .15185547 .42700196 .13850911 .4144694 .13183594 .3984375 .13183594 .37890626 .13183594 .36393229 .1352539 .35123698 .14208985 .3408203 .14892578 .33040367 .16048177 .3202311 .17675781 .31030274 .19303386 .30037437 .21516927 .28889976 .24316406 .2758789 .27799479 .25992839 .30680339 .24226888 .32958985 .22290039 .3523763 .2035319 .36376954 .17757161 .36376954 .14501953 .36376954 .09586588 .34684245 .057373048 .31298829 .029541016 .27913413 .0017089844 .23242188-.012207031 .17285156-.012207031 .14225261-.012207031 .11401367-.009033203 .088134769-.0026855469 .06225586 .0036621094 .044270833 .008951823 .034179689 .013183594V.1459961H.08496094L.09716797 .061035158C.10725912 .05452474 .11971029 .048258466 .13452149 .042236329 .14933269 .03621419 .1665039 .033203126 .18603516 .033203126 .21468099 .033203126 .2368164 .041178388 .2524414 .057128908 .2680664 .07307943 .2758789 .09098307 .2758789 .110839847 .2758789 .13688152 .2652181 .15730794 .24389649 .17211914 .22257488 .18693035 .19254558 .20361328 .1538086 .22216797 .11735026 .2397461 .08943685 .2578125 .07006836 .2763672 .05069987 .29492188 .041015626 .3191732 .041015626 .3491211 .041015626 .39371745 .056640626 .42903648 .087890628 .45507813 .119140628 .48111979 .16357422 .49414063 .2211914 .49414063 .25048829 .49414063 .27661134 .49145509 .29956056 .48608399 .32250978 .4807129 .33902995 .4757487 .3491211 .4711914V.35302735Z"/>
<path id="font_1_48" d="M.84521487 0H.59277346V.04296875L.6459961 .046875C.65315756 .047526044 .65861007 .050130208 .6623535 .0546875 .666097 .059244794 .66796877 .063964847 .66796877 .068847659V.6201172L.43798829 0H.3881836L.16601563 .61083987V.068847659C.16601563 .063964847 .16788738 .059244794 .17163086 .0546875 .17537435 .050130208 .18082683 .047526044 .18798828 .046875L.24511719 .04296875V0H.028808594V.04296875L.0859375 .046875C.09309896 .047526044 .09838867 .050130208 .10180664 .0546875 .10522461 .059244794 .106933597 .063964847 .106933597 .068847659V.6020508C.106933597 .6069336 .10522461 .61173507 .10180664 .6164551 .09838867 .6211751 .09309896 .62369796 .0859375 .62402346L.028808594 .6279297V.67089846H.2529297V.64404299L.43408204 .15283203 .6152344 .6411133V.67089846H.84521487V.6279297L.7910156 .62402346C.7838542 .62369796 .7784017 .6211751 .7746582 .6164551 .77091476 .61173507 .76904299 .6069336 .76904299 .6020508V.068847659C.76904299 .063964847 .77091476 .059244794 .7746582 .0546875 .7784017 .050130208 .7838542 .047526044 .7910156 .046875L.84521487 .04296875V0Z"/>
<path id="font_1_54" d="M.4819336 .18798828C.4819336 .15445964 .4729004 .12207031 .45483399 .09082031 .43676759 .059570314 .40828453 .033935548 .36938478 .013916016 .33048503-.0061035158 .2796224-.016113282 .21679688-.016113282 .17740886-.016113282 .14168294-.011962891 .10961914-.0036621094 .077555339 .004638672 .054036458 .012858073 .0390625 .020996094V.19824219H.10205078L.115234378 .08496094C.115885417 .08105469 .118001308 .076822917 .12158203 .072265628 .12516277 .067708339 .12858074 .06461588 .13183594 .06298828 .14225261 .05777995 .15576172 .052652997 .17236328 .047607423 .18896485 .042561849 .20914714 .040039064 .23291016 .040039064 .27555339 .040039064 .31070964 .05045573 .3383789 .07128906 .3660482 .0921224 .3798828 .12109375 .3798828 .15820313 .3798828 .18131511 .3725586 .2010905 .35791017 .2175293 .34326173 .2339681 .3228353 .24951172 .29663087 .26416017 .27042643 .2788086 .23958333 .2944336 .20410156 .31103517 .17675781 .324056 .15136719 .33797203 .12792969 .3527832 .10449219 .3675944 .08561198 .38590495 .07128906 .40771485 .056966146 .42952476 .049804689 .45735679 .049804689 .49121095 .049804689 .5309245 .059895833 .5654297 .080078128 .59472659 .100260417 .62402346 .12776692 .6467285 .16259766 .6628418 .19742839 .6789551 .2368164 .6870117 .28076173 .6870117 .31559245 .6870117 .34822593 .6831868 .3786621 .6755371 .4090983 .6678874 .43522135 .66031906 .45703126 .65283206V.4970703H.39990235L.38476563 .59277346C.3844401 .5963542 .38264976 .5996094 .37939454 .60253909 .3761393 .60546877 .37304688 .60791018 .3701172 .6098633 .36490885 .61344406 .3556315 .61816409 .34228517 .62402346 .3289388 .6298828 .30891929 .6328125 .28222657 .6328125 .2421875 .6328125 .21061199 .6216634 .1875 .59936526 .16438802 .5770671 .15283203 .5489909 .15283203 .5151367 .15283203 .48453776 .16479492 .45914714 .1887207 .43896485 .21264649 .41878257 .24707031 .4000651 .2919922 .3828125 .35253907 .36002604 .39933268 .33439128 .43237306 .3059082 .46541343 .27742515 .4819336 .23811849 .4819336 .18798828Z"/>
<path id="font_1_82" d="M.5097656 .24023438C.5097656 .19303386 .5 .15030925 .48046876 .11206055 .4609375 .07381185 .4333496 .04353841 .39770509 .021240235 .36206056-.0010579428 .31982423-.012207031 .2709961-.012207031 .22249349-.012207031 .1805013-.0011393229 .14501953 .020996094 .10953776 .04313151 .08219401 .07324219 .06298828 .111328128 .04378255 .14941406 .034179689 .19238281 .034179689 .24023438 .034179689 .2877604 .043863935 .33072917 .06323242 .36914063 .082600917 .4075521 .11027018 .43798829 .14624024 .46044923 .18221028 .48291017 .22477214 .49414063 .27392579 .49414063 .32373048 .49414063 .36621095 .4827474 .4013672 .45996095 .43652345 .43717448 .4633789 .40657554 .4819336 .36816407 .5004883 .3297526 .5097656 .28710938 .5097656 .24023438M.40576173 .24121094C.40576173 .27766929 .4009603 .3116862 .39135743 .34326173 .38175456 .37483726 .3671061 .40039063 .3474121 .41992188 .3277181 .43945313 .30289714 .44921876 .27294923 .44921876 .24202474 .44921876 .2167155 .43945313 .19702149 .41992188 .17732747 .40039063 .16276042 .37483726 .15332031 .34326173 .1438802 .3116862 .13916016 .27766929 .13916016 .24121094 .13916016 .20507813 .1439616 .17114258 .15356446 .1394043 .16316732 .107666019 .17781575 .08203125 .19750977 .0625 .21720378 .04296875 .24202474 .033203126 .27197267 .033203126 .30257163 .033203126 .3277181 .04296875 .3474121 .0625 .3671061 .08203125 .38175456 .10758463 .39135743 .13916016 .4009603 .17073567 .40576173 .20475261 .40576173 .24121094Z"/>
<path id="font_1_72" d="M.26611329-.012207031C.2257487-.012207031 .1879069-.0031738282 .15258789 .014892578 .11726888 .032958986 .08870443 .060384115 .06689453 .09716797 .045084638 .13395183 .034179689 .18017578 .034179689 .23583985 .034179689 .2879232 .044270833 .33333335 .064453128 .3720703 .084635417 .41080729 .112467449 .44083659 .14794922 .4621582 .18343099 .48347984 .22379558 .49414063 .26904298 .49414063 .33121745 .49414063 .3779297 .47485353 .4091797 .4362793 .4404297 .39770509 .4560547 .3486328 .4560547 .2890625 .4560547 .28580729 .4560547 .28149415 .4560547 .27612306 .4560547 .27075196 .45572917 .26578776 .45507813 .26123048H.13085938C.13085938 .23583985 .13354492 .2105306 .13891602 .18530274 .14428711 .16007488 .15332031 .13720703 .16601563 .11669922 .17871094 .096191409 .19580078 .0797526 .21728516 .06738281 .23876953 .05501302 .265625 .048828126 .29785157 .048828126 .3264974 .048828126 .3544108 .055419923 .3815918 .068603519 .4087728 .08178711 .43359376 .09586588 .4560547 .110839847V.049804689C.4280599 .032552083 .39786784 .017903647 .36547853 .005859375 .3330892-.006184896 .29996745-.012207031 .26611329-.012207031M.13623047 .30615235H.35595704V.328125C.35595704 .3610026 .34806315 .38867188 .3322754 .4111328 .31648765 .43359376 .2919922 .44482423 .25878907 .44482423 .22591146 .44482423 .19791667 .43245445 .17480469 .40771485 .1516927 .38297526 .13883464 .3491211 .13623047 .30615235Z"/>
<path id="font_1_81" d="M.546875 0H.32617188V.0390625L.36816407 .041992189C.37402345 .04264323 .37898765 .044921876 .38305665 .048828126 .38712565 .052734376 .38916017 .05777995 .38916017 .063964847V.32421876C.38916017 .35579429 .38183595 .37980143 .3671875 .39624024 .35253907 .41267906 .32779948 .42089845 .29296876 .42089845 .27408854 .42089845 .2552897 .4182129 .23657227 .4128418 .21785482 .4074707 .20003255 .40055339 .18310547 .39208985V.063964847C.18310547 .05029297 .19010417 .04296875 .20410156 .041992189L.24609375 .0390625V0H.020019532V.0390625L.068847659 .041992189C.082845058 .04296875 .08984375 .05029297 .08984375 .063964847V.4111328H.020019532V.44384767L.14208985 .4819336H.18310547V.4321289C.21110027 .44807945 .23982747 .46240235 .2692871 .47509767 .29874674 .48779298 .32503257 .49414063 .34814454 .49414063 .3917643 .49414063 .42496745 .48055015 .4477539 .45336915 .47054038 .42618815 .4819336 .38834635 .4819336 .33984376V.063964847C.4819336 .05777995 .4839681 .052734376 .4880371 .048828126 .4921061 .044921876 .4970703 .04264323 .5029297 .041992189L.546875 .0390625V0Z"/>
<path id="font_1_57" d="M.6557617 .6279297 .59814456 .6171875 .37402345-.016113282H.29785157L.068847659 .61816409 .009765625 .6279297V.67089846H.24902344V.6279297L.1899414 .6230469C.1866862 .6227214 .1841634 .6203613 .18237305 .6159668 .18058269 .61157229 .18017578 .60791018 .18115235 .60498049L.3569336 .110839847 .5258789 .60302737C.52750656 .6069336 .5267741 .61116537 .52368167 .61572268 .5205892 .62027999 .51676437 .6227214 .51220706 .6230469L.45703126 .6279297V.67089846H.6557617V.6279297Z"/>
<path id="font_1_88" d="M.546875 0H.3881836V.057128908C.37679038 .048339845 .3623047 .03857422 .34472657 .027832032 .32714845 .017089844 .30826823 .0077311198 .28808595-.00024414063 .26790367-.008219401 .24788411-.012207031 .22802735-.012207031 .1850586-.012207031 .15128581 .0007324219 .12670899 .026611329 .102132167 .052490236 .08984375 .09358724 .08984375 .14990235V.42089845H.020019532V.45507813L.1430664 .49414063H.18310547V.16894531C.18310547 .13346355 .19034831 .10579427 .20483399 .0859375 .21931966 .06608073 .24430339 .056152345 .27978517 .056152345 .30029298 .056152345 .32047526 .05965169 .34033204 .06665039 .3601888 .073649089 .3761393 .080078128 .3881836 .0859375V.42089845H.3178711V.45507813L.4399414 .49414063H.48095704V.063964847C.48095704 .05777995 .4831543 .052734376 .48754884 .048828126 .49194337 .044921876 .4970703 .04264323 .5029297 .041992189L.546875 .0390625V0Z"/>
<path id="font_1_87" d="M.3330078 .020996094C.31966148 .013834636 .30037437 .0065104167 .27514649-.0009765625 .24991863-.008463542 .22428386-.012207031 .19824219-.012207031 .1608073-.012207031 .13354492-.0033365887 .11645508 .014404297 .099365238 .032145185 .09082031 .060709638 .09082031 .100097659V.4321289H.026855469V.46484376L.095214847 .4970703 .14013672 .60302737H.18408203V.4819336H.3251953V.4321289H.18408203V.15283203C.18408203 .11311849 .1907552 .08504232 .20410156 .068603519 .21744792 .052164716 .23746746 .043945314 .26416017 .043945314 .27848307 .043945314 .2919922 .045898439 .3046875 .049804689 .3173828 .053710939 .3268229 .057454427 .3330078 .061035158V.020996094Z"/>
<path id="font_1_16" d="M.2758789 .203125H.043945314V.27783204H.2758789V.203125Z"/>
<path id="font_1_784" d="M.028808594 0V.0390625L.078125 .041992189C.083984378 .04264323 .08894857 .044921876 .09301758 .048828126 .097086589 .052734376 .099121097 .05777995 .099121097 .063964847V.42285157H.03515625V.4580078L.099121097 .47607423C.099121097 .50895187 .10164388 .5362142 .10668945 .5578613 .11173502 .5795085 .12044271 .60221359 .1328125 .62597659 .15234375 .663737 .17749024 .6916504 .20825196 .7097168 .23901367 .7277832 .27067057 .7368164 .30322267 .7368164 .3243815 .7368164 .34163413 .7334798 .35498048 .72680667 .3683268 .7201335 .37760417 .71158859 .3828125 .7011719L.48095704 .7368164H.52197268V.06298828C.52197268 .05875651 .52441409 .05419922 .5292969 .049316408 .5341797 .044433595 .538737 .041992189 .54296877 .041992189L.5961914 .0390625V0H.3540039V.0390625L.40722657 .041992189C.41178385 .041992189 .4165853 .044433595 .42163087 .049316408 .42667643 .05419922 .42919923 .05875651 .42919923 .06298828V.6582031H.38623048C.3816732 .6451823 .37394206 .6363118 .3630371 .6315918 .35213218 .62687179 .3453776 .62402346 .34277345 .6230469 .34179688 .62402346 .33666993 .6277669 .32739259 .63427737 .31811524 .6407878 .30769859 .648112 .29614259 .65625 .28458659 .664388 .27433268 .67163088 .26538087 .6779785 .25642906 .6843262 .2516276 .6876628 .25097657 .6879883 .23665364 .6805013 .22355144 .66536459 .21166992 .6425781 .1997884 .6197917 .19352214 .58496096 .1928711 .53808596L.19189453 .4741211H.31591798V.42285157H.19189453V.063964847C.19189453 .05777995 .19392903 .052734376 .19799805 .048828126 .20206706 .044921876 .20703125 .04264323 .21289063 .041992189L.27197267 .0390625V0H.028808594Z"/>
<path id="font_1_89" d="M.51904299 .4428711 .4658203 .43701173 .29101563 0H.22607422L.064941409 .43701173 .009765625 .4428711V.4819336H.23095703V.4428711L.18310547 .4399414C.17757161 .43961589 .17317708 .43725587 .16992188 .43286134 .16666667 .4284668 .16601563 .4235026 .16796875 .41796876L.27978517 .10498047 .40283204 .41796876C.4051107 .4231771 .40478517 .4280599 .40185548 .4326172 .39892579 .43717448 .394694 .43961589 .38916017 .4399414L.34423829 .4428711V.4819336H.51904299V.4428711Z"/>
<path id="font_1_73" d="M.38916017 .6767578C.38916017 .66341146 .38582359 .6529134 .3791504 .6452637 .3724772 .63761398 .36539714 .63216146 .35791017 .62890627 .3504232 .62565109 .3453776 .62369796 .34277345 .6230469L.25097657 .6879883C.23665364 .6805013 .2232259 .66536459 .21069336 .6425781 .19816081 .6197917 .19189453 .58496096 .19189453 .53808596V.4741211H.31591798V.42285157H.19189453V.063964847C.19189453 .05777995 .19392903 .052652997 .19799805 .048583986 .20206706 .044514974 .20703125 .042317708 .21289063 .041992189L.27197267 .0390625V0H.028808594V.0390625L.078125 .041992189C.083984378 .042317708 .08894857 .044514974 .09301758 .048583986 .097086589 .052652997 .099121097 .05777995 .099121097 .063964847V.42285157H.03515625V.4580078L.099121097 .47607423C.099121097 .50895187 .10164388 .5362142 .10668945 .5578613 .11173502 .5795085 .12044271 .60221359 .1328125 .62597659 .15234375 .663737 .17749024 .6916504 .20825196 .7097168 .23901367 .7277832 .27067057 .7368164 .30322267 .7368164 .33154298 .7368164 .35294596 .7308757 .36743165 .71899417 .38191734 .7071126 .38916017 .6930339 .38916017 .6767578Z"/>
<path id="font_1_80" d="M.828125 0H.6040039V.0390625L.6459961 .041992189C.65999349 .04296875 .6669922 .05029297 .6669922 .063964847V.31884767C.6669922 .34977214 .6605632 .37451173 .6477051 .3930664 .634847 .4116211 .6116536 .42089845 .578125 .42089845 .56152346 .42089845 .5433757 .41829429 .52368167 .41308595 .5039876 .4078776 .48649089 .40120445 .4711914 .3930664V.063964847C.4711914 .05029297 .4781901 .04296875 .4921875 .041992189L.5341797 .0390625V0H.3149414V.0390625L.3569336 .041992189C.370931 .04296875 .3779297 .05029297 .3779297 .063964847V.3251953C.3779297 .35351563 .3712565 .37654624 .35791017 .3942871 .3445638 .41202799 .3219401 .42089845 .29003907 .42089845 .27115885 .42089845 .25146485 .4177246 .23095703 .41137696 .21044922 .4050293 .1944987 .39860026 .18310547 .39208985V.063964847C.18310547 .05029297 .19010417 .04296875 .20410156 .041992189L.24609375 .0390625V0H.020019532V.0390625L.068847659 .041992189C.082845058 .04296875 .08984375 .05029297 .08984375 .063964847V.4111328H.020996094V.44384767L.14208985 .4819336H.18310547V.4321289C.19807942 .4412435 .21492513 .45052085 .23364258 .45996095 .25236003 .46940104 .27148438 .47745768 .29101563 .48413087 .31054688 .49080406 .3289388 .49414063 .3461914 .49414063 .37516276 .49414063 .39860026 .48673503 .4165039 .47192384 .43440757 .45711265 .44759117 .44140626 .4560547 .4248047 .46940104 .43326823 .48632813 .44295249 .50683596 .45385743 .52734377 .46476237 .548584 .47420249 .57055667 .48217774 .5925293 .49015299 .6123047 .49414063 .6298828 .49414063 .66503909 .49414063 .69189456 .48608399 .7104492 .4699707 .7290039 .45385743 .7416992 .43400065 .74853518 .4104004 .7553711 .38680015 .75878909 .36360679 .75878909 .3408203V.063964847C.75878909 .05777995 .76082357 .052652997 .7648926 .048583986 .7689616 .044514974 .7739258 .042317708 .77978518 .041992189L.828125 .0390625V0Z"/>
<path id="font_1_93" d="M.42822267 0H.034179689V.053222658L.29882813 .4350586H.125C.12011719 .4350586 .11580404 .43269859 .11206055 .42797853 .108317058 .42325846 .10595703 .41861979 .10498047 .4140625L.095214847 .33984376H.043945314V.4819336H.4140625V.44091798L.14013672 .047851564H.34179688C.34635417 .047851564 .35107423 .05061849 .35595704 .056152345 .36083985 .0616862 .363444 .06689453 .36376954 .071777347L.37402345 .1508789H.42822267V0Z"/>
<path id="font_1_90" d="M.7729492 .4428711 .72216799 .43701173 .58496096 0H.51416018L.3959961 .37402345 .26416017 0H.1928711L.064941409 .43701173 .009765625 .4428711V.4819336H.2290039V.4428711L.1821289 .4399414C.17659505 .43961589 .17236328 .43725587 .1694336 .43286134 .1665039 .4284668 .16569011 .4235026 .16699219 .41796876L.25 .106933597 .37890626 .4819336H.4501953L.56591799 .106933597 .6582031 .41796876C.65983077 .4231771 .65926107 .4280599 .65649417 .4326172 .65372726 .43717448 .64957687 .43961589 .64404299 .4399414L.59814456 .4428711V.4819336H.7729492V.4428711Z"/>
<path id="font_1_51" d="M.54003909 .46923829C.54003909 .42008464 .5283203 .37931315 .5048828 .34692384 .4814453 .31453453 .45003257 .2903646 .41064454 .27441407 .3712565 .25846354 .3273112 .25065104 .2788086 .25097657 .26578776 .25097657 .25138346 .25154624 .2355957 .25268556 .21980794 .25382487 .21061199 .25455729 .20800781 .2548828V.068847659C.20800781 .063964847 .2097168 .059244794 .21313477 .0546875 .21655274 .050130208 .22184246 .047526044 .2290039 .046875L.29492188 .04296875V0H.032226564V.04296875L.08496094 .046875C.0921224 .047526044 .09757487 .050130208 .10131836 .0546875 .10506185 .059244794 .106933597 .063964847 .106933597 .068847659V.6020508C.106933597 .6069336 .10506185 .61173507 .10131836 .6164551 .09757487 .6211751 .0921224 .62369796 .08496094 .62402346L.024902344 .6279297V.67089846H.26416017C.3585612 .67089846 .42814128 .6557617 .4729004 .6254883 .5176595 .59521487 .54003909 .54313156 .54003909 .46923829M.43603517 .46777345C.43603517 .51627609 .42244468 .55411788 .39526368 .5812988 .36808268 .6084798 .32259117 .6220703 .25878907 .6220703 .24967449 .6220703 .2389323 .62190756 .2265625 .62158206L.20800781 .62109377V.30615235C.20963542 .30615235 .21704102 .30525718 .23022461 .3034668 .2434082 .30167643 .25472007 .30078126 .26416017 .30078126 .316569 .30045573 .35831706 .3137207 .3894043 .34057618 .42049156 .36743165 .43603517 .40983073 .43603517 .46777345Z"/>
<path id="font_1_15" d="M.20605469 .009765625C.20605469-.0234375 .19791667-.053059896 .18164063-.07910156 .16536458-.10514323 .1439616-.12613933 .11743164-.14208985 .090901698-.15804036 .0625-.1673177 .032226564-.16992188V-.13378906C.067708339-.12597656 .095052089-.11189779 .11425781-.091552738 .13346355-.07120768 .14274089-.038411458 .14208985 .0068359377H.07910156C.07779948 .008463542 .07446289 .013183594 .0690918 .020996094 .0637207 .028808594 .061035158 .03955078 .061035158 .053222658 .061035158 .07047526 .06689453 .08626302 .07861328 .10058594 .09033203 .11490885 .10514323 .12207031 .123046878 .12207031 .1516927 .12207031 .1726888 .11140951 .18603516 .09008789 .19938152 .06876627 .20605469 .041992189 .20605469 .009765625Z"/>
<path id="font_1_17" d="M.19580078 .05517578C.19580078 .036621095 .18912761 .020751954 .17578125 .0075683596 .16243489-.0056152346 .14648438-.012207031 .12792969-.012207031 .109375-.012207031 .09358724-.0056152346 .080566409 .0075683596 .06754557 .020751954 .061035158 .036621095 .061035158 .05517578 .061035158 .073404949 .06754557 .08911133 .080566409 .10229492 .09358724 .115478519 .109375 .12207031 .12792969 .12207031 .14648438 .12207031 .16243489 .115478519 .17578125 .10229492 .18912761 .08911133 .19580078 .073404949 .19580078 .05517578Z"/>
<path id="font_1_42" d="M.6699219 .28076173 .6191406 .2758789C.6119792 .27555339 .60668948 .27327476 .6032715 .26904298 .5998535 .2648112 .59814456 .26009117 .59814456 .2548828V.023925782L.56811526 .013916016C.5480957 .0072428386 .52213546 .00056966146 .49023438-.0061035158 .45833335-.012776692 .4243164-.016113282 .3881836-.016113282 .33251954-.016113282 .28304038-.0065104167 .2397461 .0126953129 .19645183 .031901044 .15991211 .05802409 .13012696 .09106445 .1003418 .12410482 .0777181 .16178386 .06225586 .20410156 .04679362 .24641927 .0390625 .2906901 .0390625 .33691407 .0390625 .40690104 .05362956 .46818034 .08276367 .52075198 .11189779 .57332357 .15356446 .61417648 .20776367 .64331057 .2619629 .67244467 .32633464 .6870117 .4008789 .6870117 .4386393 .6870117 .47314454 .6833496 .50439456 .6760254 .53564456 .6687012 .56656906 .66097006 .59716799 .65283206V.49121095H.5371094L.5209961 .5810547C.52001956 .58691409 .5175781 .59187826 .5136719 .59594729 .5097656 .6000163 .5055339 .60302737 .50097659 .60498049 .49153648 .6088867 .4777018 .61417648 .45947267 .6208496 .4412435 .62752279 .42041017 .6308594 .39697267 .6308594 .3491211 .6308594 .30680339 .61971029 .27001954 .5974121 .23323567 .57511398 .20450847 .54248049 .18383789 .49951173 .16316732 .45654298 .15283203 .40397135 .15283203 .34179688 .15283203 .24576824 .17602539 .1714681 .22241211 .118896488 .26879884 .06632487 .3310547 .040039064 .4091797 .040039064 .4313151 .040039064 .45092774 .042561849 .46801759 .047607423 .48510743 .052652997 .49479167 .05517578 .4970703 .05517578V.2548828C.4970703 .26009117 .49536134 .2648112 .49194337 .26904298 .4885254 .27327476 .4832357 .27555339 .47607423 .2758789L.4091797 .28076173V.32421876H.6699219V.28076173Z"/>
<path id="font_1_78" d="M.5239258 0H.36376954V.0390625L.23876953 .22705078H.18310547V.063964847C.18310547 .05029297 .19010417 .04296875 .20410156 .041992189L.24707031 .0390625V0H.020019532V.0390625L.068847659 .041992189C.082845058 .04296875 .08984375 .05029297 .08984375 .063964847V.66503909H.014160156V.6982422L.14208985 .7368164H.18310547V.25585938H.203125L.35009767 .421875C.3527018 .42513023 .35310874 .42871095 .35131837 .4326172 .34952799 .43652345 .34635417 .4386393 .34179688 .43896485L.30078126 .4428711V.4819336H.4951172V.4428711L.43115235 .43603517 .29882813 .29492188 .4711914 .044921876 .5239258 .0390625V0Z"/>
<path id="font_1_92" d="M.52001956 .4428711 .46777345 .43701173 .2758789-.030761719C.27164714-.041503908 .26505534-.056884767 .25610353-.0769043 .24715169-.09692383 .23657227-.11743164 .22436524-.13842774 .2121582-.15942383 .19905599-.17692058 .1850586-.19091797 .17301433-.20296224 .15974935-.21232097 .14526367-.21899414 .130778-.22566732 .11507162-.2290039 .09814453-.2290039 .07438151-.2290039 .056233724-.2232259 .043701173-.21166992 .03116862-.20011394 .024902344-.18684896 .024902344-.171875 .024902344-.14973958 .03564453-.12972005 .057128908-.111816409L.1508789-.15478516C.16194661-.14371746 .17301433-.12874349 .18408203-.10986328 .19514974-.09098307 .2051595-.07145182 .21411133-.05126953 .22306316-.03108724 .22998047-.013671875 .23486328 .0009765625L.064941409 .43701173 .009765625 .4428711V.4819336H.23095703V.4428711L.18310547 .4399414C.17757161 .43961589 .1730957 .43725587 .16967774 .43286134 .16625977 .4284668 .16569011 .4235026 .16796875 .41796876L.2841797 .123046878 .40283204 .41796876C.4051107 .4231771 .40478517 .4280599 .40185548 .4326172 .39892579 .43717448 .394694 .43961589 .38916017 .4399414L.34179688 .4428711V.4819336H.52001956V.4428711Z"/>
<path id="font_1_74" d="M.5078125 .41503907H.40820313C.4156901 .40299479 .42203776 .3898112 .4272461 .37548829 .43245445 .36116538 .4350586 .34440104 .4350586 .3251953 .4350586 .29003907 .4248047 .26017253 .40429688 .2355957 .38378907 .21101888 .35717774 .19278972 .3244629 .1809082 .29174806 .16902669 .2566732 .16438802 .21923828 .16699219 .21402996 .15852864 .21085613 .1492513 .2097168 .13916016 .20857747 .12906902 .20841472 .120279949 .20922852 .11279297 .21004232 .10530599 .21061199 .10107422 .2109375 .100097659 .22884114 .09814453 .2495931 .09586588 .27319337 .09326172 .2967936 .090657558 .3207194 .08658854 .3449707 .08105469 .36922203 .075520839 .3917643 .067871097 .41259767 .05810547 .433431 .048339845 .4501953 .03548177 .46289063 .01953125 .47558595 .0035807293 .4819336-.016276041 .4819336-.040039064 .4819336-.071614589 .4703776-.10180664 .44726563-.13061524 .42415367-.15942383 .39298503-.1830241 .35375978-.20141602 .31453453-.21980794 .27067057-.2290039 .22216797-.2290039 .16259766-.2290039 .116373699-.2154134 .083496097-.18823242 .05061849-.16105144 .034179689-.12727864 .034179689-.08691406 .034179689-.057942708 .04280599-.032145185 .060058595-.009521484 .077311199 .013102214 .104003909 .027669272 .14013672 .034179689 .13655599 .044596357 .13395183 .052083333 .13232422 .056640626 .13069661 .061197919 .12988281 .069010417 .12988281 .080078128 .12988281 .09309896 .13387044 .10750326 .1418457 .123291019 .14982097 .13907878 .16259766 .15592449 .18017578 .17382813 .14697266 .18131511 .118001308 .19816081 .09326172 .22436524 .06852213 .25056968 .056152345 .28385417 .056152345 .32421876 .056152345 .3766276 .07462565 .41805015 .111572269 .44848634 .14851888 .47892253 .19694011 .49414063 .25683595 .49414063 .28059898 .49414063 .30265299 .49064128 .32299806 .48364259 .3433431 .4766439 .36002604 .4700521 .37304688 .4638672H.5078125V.41503907M.33984376 .3310547C.33984376 .35221354 .33626304 .3720703 .32910157 .390625 .3219401 .4091797 .31152345 .42423503 .29785157 .43579103 .2841797 .44734703 .2672526 .453125 .24707031 .453125 .21907552 .453125 .19620769 .44230143 .1784668 .4206543 .1607259 .39900718 .15185547 .3688151 .15185547 .33007813 .15185547 .29654948 .15983074 .26782228 .17578125 .24389649 .19173177 .2199707 .2154948 .20800781 .24707031 .20800781 .27701823 .20800781 .29996745 .22005208 .31591798 .24414063 .3318685 .26822917 .33984376 .29720054 .33984376 .3310547M.3959961-.06689453C.3959961-.0460612 .38875328-.029947916 .37426759-.018554688 .3597819-.0071614587 .34179688 .0013020834 .3203125 .0068359377 .29882813 .012369792 .277181 .016357422 .2553711 .018798829 .2335612 .021240235 .21516927 .023925782 .20019531 .026855469 .17122396 .016438803 .15128581 .0022786458 .14038086-.015625 .1294759-.033528646 .12402344-.05061849 .12402344-.06689453 .12402344-.082845058 .12866211-.099853519 .13793946-.11791992 .1472168-.13598633 .16153972-.15136719 .1809082-.1640625 .20027669-.17675781 .22493489-.18310547 .2548828-.18310547 .28678385-.18310547 .31315104-.17675781 .33398438-.1640625 .35481773-.15136719 .37036134-.13598633 .38061524-.11791992 .39086915-.099853519 .3959961-.082845058 .3959961-.06689453Z"/>
<path id="font_1_40" d="M.55078127 0H.032226564V.04296875L.083984378 .046875C.091145839 .047526044 .096598308 .050130208 .1003418 .0546875 .10408529 .059244794 .10595703 .063964847 .10595703 .068847659V.6020508C.10595703 .6069336 .10408529 .61173507 .1003418 .6164551 .096598308 .6211751 .091145839 .62369796 .083984378 .62402346L.032226564 .6279297V.67089846H.5180664V.52197268H.4580078L.4428711 .6040039C.44254557 .6088867 .44059245 .61328127 .43701173 .6171875 .433431 .62109377 .42936198 .6230469 .4248047 .6230469H.20800781V.37402345H.35791017C.36246745 .37402345 .36661784 .37597657 .37036134 .3798828 .37410484 .38378907 .37597657 .38753257 .37597657 .39111329L.38623048 .45996095H.43701173V.2368164H.38623048L.37597657 .30615235C.37597657 .30973307 .37402345 .3136393 .3701172 .3178711 .36621095 .32210288 .36214195 .32421876 .35791017 .32421876H.20800781V.048828126H.4609375C.46516929 .048828126 .4691569 .051188154 .4729004 .055908204 .4766439 .060628255 .47867839 .06461588 .4790039 .067871097L.4970703 .16699219H.55078127V0Z"/>
<path id="font_1_75" d="M.55078127 0H.328125V.0390625L.36914063 .041992189C.375 .04264323 .38012696 .044921876 .38452149 .048828126 .38891603 .052734376 .39111329 .05777995 .39111329 .063964847V.32177735C.39111329 .3504232 .38427735 .37410484 .37060548 .39282228 .3569336 .4115397 .33072917 .42089845 .2919922 .42089845 .27441407 .42089845 .25545249 .4181315 .23510742 .41259767 .21476238 .4070638 .19742839 .40022788 .18310547 .39208985V.063964847C.18310547 .05029297 .18977864 .04296875 .203125 .041992189L.24609375 .0390625V0H.020996094V.0390625L.068847659 .041992189C.082845058 .04296875 .08984375 .05029297 .08984375 .063964847V.66503909H.015136719V.6982422L.1430664 .7368164H.18310547V.4321289C.19514974 .43961589 .21077474 .4481608 .22998047 .45776368 .2491862 .46736656 .2693685 .47583009 .29052735 .4831543 .3116862 .49047853 .33089195 .49414063 .34814454 .49414063 .386556 .49414063 .41878257 .48177085 .44482423 .45703126 .47086589 .43229167 .48388673 .39420573 .48388673 .34277345V.063964847C.48388673 .05777995 .48608399 .052734376 .49047853 .048828126 .49487306 .044921876 .5 .04264323 .5058594 .041992189L.55078127 .0390625V0Z"/>
<path id="font_1_41" d="M.51123049 .51220706H.45214845L.43798829 .6040039C.43701173 .6088867 .4350586 .61311849 .4321289 .6166992 .42919923 .62027999 .42545573 .6220703 .42089845 .6220703H.20800781V.3618164H.36083985C.36539714 .3618164 .36946617 .36401368 .37304688 .3684082 .3766276 .37280274 .37858073 .3766276 .37890626 .3798828L.3881836 .4501953H.43798829V.22509766H.3881836L.37890626 .29492188C.37858073 .2985026 .37654624 .30240885 .37280274 .30664063 .36905924 .3108724 .36507163 .31298829 .36083985 .31298829H.20800781V.068847659C.20800781 .063964847 .2097168 .059244794 .21313477 .0546875 .21655274 .050130208 .22184246 .047526044 .2290039 .046875L.29589845 .04296875V0H.033203126V.04296875L.0859375 .046875C.09309896 .047526044 .09838867 .050130208 .10180664 .0546875 .10522461 .059244794 .106933597 .063964847 .106933597 .068847659V.6020508C.106933597 .6069336 .10522461 .61173507 .10180664 .6164551 .09838867 .6211751 .09309896 .62369796 .0859375 .62402346L.024902344 .6279297V.67089846H.51123049V.51220706Z"/>
<path id="font_1_18" d="M.49023438 .67089846 .063964847-.09277344H0L.42578126 .67089846H.49023438Z"/>
<path id="font_1_43" d="M.7109375 0H.4580078V.04296875L.5151367 .046875C.52197268 .047526044 .52718099 .050130208 .5307617 .0546875 .53434249 .059244794 .5361328 .063964847 .5361328 .068847659V.32714845H.20703125V.068847659C.20703125 .063964847 .20874024 .059244794 .2121582 .0546875 .21557617 .050130208 .22086589 .047526044 .22802735 .046875L.28515626 .04296875V0H.032226564V.04296875L.083984378 .046875C.091145839 .047526044 .096598308 .050130208 .1003418 .0546875 .10408529 .059244794 .10595703 .063964847 .10595703 .068847659V.6020508C.10595703 .6069336 .10408529 .61157229 .1003418 .6159668 .096598308 .6203613 .091145839 .6227214 .083984378 .6230469L.032226564 .6269531V.67089846H.28515626V.6269531L.22802735 .6230469C.22086589 .6227214 .21557617 .6203613 .2121582 .6159668 .20874024 .61157229 .20703125 .6069336 .20703125 .6020508V.37695313H.5361328V.6020508C.5361328 .6069336 .53434249 .61157229 .5307617 .6159668 .52718099 .6203613 .52197268 .6227214 .5151367 .6230469L.4580078 .6269531V.67089846H.7109375V.6269531L.6591797 .6230469C.65201827 .6227214 .64656576 .6203613 .64282229 .6159668 .6390788 .61157229 .63720706 .6069336 .63720706 .6020508V.068847659C.63720706 .063964847 .6390788 .059244794 .64282229 .0546875 .64656576 .050130208 .65201827 .047526044 .6591797 .046875L.7109375 .04296875V0Z"/>
<path id="font_1_77" d="M.21289063 .64697268C.21289063 .6300456 .20703125 .6154785 .1953125 .6032715 .18359375 .59106448 .16910808 .58496096 .15185547 .58496096 .13492839 .58496096 .12036133 .59106448 .1081543 .6032715 .095947269 .6154785 .08984375 .6300456 .08984375 .64697268 .08984375 .6642253 .095947269 .67871096 .1081543 .6904297 .12036133 .70214846 .13492839 .7080078 .15185547 .7080078 .16910808 .7080078 .18359375 .70214846 .1953125 .6904297 .20703125 .67871096 .21289063 .6642253 .21289063 .64697268M.20214844 .063964847C.20214844 .044108076 .20125325 .021972657 .19946289-.0024414063 .19767253-.026855469 .19401042-.05078125 .18847656-.07421875 .1829427-.09765625 .17447917-.11832682 .16308594-.13623047 .14257813-.16780599 .11767578-.19116211 .088378909-.20629883 .05908203-.22143555 .028645834-.2290039-.0029296876-.2290039-.0234375-.2290039-.041259767-.224528-.056396486-.21557617-.0715332-.20662435-.07910156-.19270833-.07910156-.17382813-.07910156-.15690105-.07446289-.1438802-.06518555-.13476563-.055908204-.12565105-.046223958-.11946615-.036132814-.11621094L.061035158-.18310547C.079589847-.1726888 .09220377-.15266927 .09887695-.123046878 .10555013-.09342448 .10888672-.05940755 .10888672-.020996094V.42285157H.038085939V.4560547L.16113281 .49414063H.20214844V.063964847Z"/>
<path id="font_1_2205" d="M.4086914 0H.068359378V.044921876L.1694336 .048828126C.17561849 .049153646 .18082683 .051432294 .1850586 .055664064 .18929036 .059895833 .19140625 .064941409 .19140625 .07080078V.47021485L.04638672 .43359376V.47851563L.2524414 .5600586H.28564454V.07080078C.28564454 .064941409 .2877604 .059895833 .2919922 .055664064 .29622398 .051432294 .30143229 .049153646 .3076172 .048828126L.4086914 .044921876V0Z"/>
<path id="font_1_2229" d="M.5024414 .06591797H.41748048V-.1381836H.32373048V.06591797H.029296875V.13476563L.34765626 .5600586H.41748048V.13378906H.5024414V.06591797M.32373048 .13378906V.4321289L.10839844 .13378906H.32373048Z"/>
<path id="font_1_2198" d="M.5600586 .27294923C.5600586 .21923828 .54988607 .17049153 .529541 .12670899 .509196 .08292643 .47973634 .048177083 .4411621 .022460938 .4025879-.0032552083 .35611979-.016113282 .3017578-.016113282 .24772136-.016113282 .20141602-.0032552083 .1628418 .022460938 .12426758 .048177083 .094807948 .08292643 .07446289 .12670899 .05411784 .17049153 .043945314 .21923828 .043945314 .27294923 .043945314 .3269857 .05411784 .37565104 .07446289 .4189453 .094807948 .4622396 .12426758 .49658204 .1628418 .52197268 .20141602 .5473633 .24772136 .5600586 .3017578 .5600586 .35611979 .5600586 .4025879 .5473633 .4411621 .52197268 .47973634 .49658204 .509196 .4622396 .529541 .4189453 .54988607 .37565104 .5600586 .3269857 .5600586 .27294923M.45996095 .27294923C.45996095 .3149414 .45418296 .35375978 .44262696 .3894043 .43107096 .42504884 .41357423 .45377604 .39013673 .47558595 .36669923 .49739585 .3372396 .5083008 .3017578 .5083008 .26627604 .5083008 .23689778 .49739585 .21362305 .47558595 .19034831 .45377604 .17293294 .42504884 .16137696 .3894043 .14982097 .35375978 .14404297 .3149414 .14404297 .27294923 .14404297 .23128255 .14982097 .19238281 .16137696 .15625 .17293294 .12011719 .19034831 .09098307 .21362305 .068847659 .23689778 .04671224 .26627604 .03564453 .3017578 .03564453 .3372396 .03564453 .36669923 .04671224 .39013673 .068847659 .41357423 .09098307 .43107096 .12011719 .44262696 .15625 .45418296 .19238281 .45996095 .23128255 .45996095 .27294923Z"/>
<path id="font_1_3037" d="M.0078125 0V.04248047L.059570314 .052246095 .27148438 .5600586H.33691407L.546875 .061035158C.5485026 .056803388 .5502116 .054036458 .55200198 .052734376 .5537923 .051432294 .55826827 .050130208 .5654297 .048828126L.6064453 .04248047V0H.39160157V.04248047L.44384767 .04638672C.4464518 .04671224 .44881187 .047851564 .45092774 .049804689 .4530436 .051757814 .45377604 .053385419 .453125 .0546875L.390625 .19921875H.18261719L.122558597 .056640626C.121907558 .05436198 .123291019 .052164716 .12670899 .050048829 .13012696 .04793294 .13313802 .04671224 .13574219 .04638672L.18847656 .04248047V0H.0078125M.2006836 .24560547H.3725586L.2861328 .4506836 .2006836 .24560547Z"/>
<path id="font_1_3296" d="M.032226564 0V.04248047L.07910156 .045410158C.08561198 .0460612 .09049479 .047770185 .09375 .05053711 .09700521 .053304037 .09863281 .056152345 .09863281 .05908203V.48779298C.09863281 .49560548 .0921224 .5 .07910156 .50097659L.032226564 .50390627V.546875H.2607422V.50390627L.20898438 .50097659C.19628906 .5 .1899414 .49560548 .1899414 .48779298V.31054688H.4868164V.48779298C.4868164 .49560548 .4806315 .5 .46826173 .50097659L.4165039 .50390627V.546875H.64453127V.50390627L.59814456 .50097659C.58479818 .5 .578125 .49560548 .578125 .48779298V.05908203C.578125 .056152345 .579834 .053304037 .58325198 .05053711 .5866699 .047770185 .5916341 .0460612 .59814456 .045410158L.64453127 .04248047V0H.4165039V.04248047L.46826173 .045410158C.4806315 .04638672 .4868164 .05094401 .4868164 .05908203V.2631836H.1899414V.05908203C.1899414 .056152345 .19156902 .053304037 .19482422 .05053711 .19807942 .047770185 .20279949 .0460612 .20898438 .045410158L.2607422 .04248047V0H.032226564Z"/>
</defs>
<use data-text="O" xlink:href="#font_1_50" transform="matrix(16.438357,0,0,-16.438357,118.5822,299.11528)" fill="#343a40"/>
<use data-text="l" xlink:href="#font_1_79" transform="matrix(16.438357,0,0,-16.438357,130.59864,299.11528)" fill="#343a40"/>
<use data-text="d" xlink:href="#font_1_71" transform="matrix(16.438357,0,0,-16.438357,135.48084,299.11528)" fill="#343a40"/>
<use data-text="A" xlink:href="#font_1_36" transform="matrix(16.438357,0,0,-16.438357,149.55207,299.11528)" fill="#343a40"/>
<use data-text="r" xlink:href="#font_1_85" transform="matrix(16.438357,0,0,-16.438357,160.6315,299.11528)" fill="#343a40"/>
<use data-text="a" xlink:href="#font_1_68" transform="matrix(16.438357,0,0,-16.438357,167.0589,299.11528)" fill="#343a40"/>
<use data-text="b" xlink:href="#font_1_69" transform="matrix(16.438357,0,0,-16.438357,175.42603,299.11528)" fill="#343a40"/>
<use data-text="i" xlink:href="#font_1_76" transform="matrix(16.438357,0,0,-16.438357,184.54932,299.11528)" fill="#343a40"/>
<use data-text="c" xlink:href="#font_1_70" transform="matrix(16.438357,0,0,-16.438357,189.53012,299.11528)" fill="#343a40"/>
<use data-text="C" xlink:href="#font_1_38" transform="matrix(16.438357,0,0,-16.438357,287.49269,299.11528)" fill="#343a40"/>
<use data-text="l" xlink:href="#font_1_79" transform="matrix(16.438357,0,0,-16.438357,297.79954,299.11528)" fill="#343a40"/>
<use data-text="a" xlink:href="#font_1_68" transform="matrix(16.438357,0,0,-16.438357,302.68174,299.11528)" fill="#343a40"/>
<use data-text="s" xlink:href="#font_1_86" transform="matrix(16.438357,0,0,-16.438357,311.04887,299.11528)" fill="#343a40"/>
<use data-text="s" xlink:href="#font_1_86" transform="matrix(16.438357,0,0,-16.438357,317.59135,299.11528)" fill="#343a40"/>
<use data-text="i" xlink:href="#font_1_76" transform="matrix(16.438357,0,0,-16.438357,324.1338,299.11528)" fill="#343a40"/>
<use data-text="c" xlink:href="#font_1_70" transform="matrix(16.438357,0,0,-16.438357,329.11463,299.11528)" fill="#343a40"/>
<use data-text="a" xlink:href="#font_1_68" transform="matrix(16.438357,0,0,-16.438357,336.7749,299.11528)" fill="#343a40"/>
<use data-text="l" xlink:href="#font_1_79" transform="matrix(16.438357,0,0,-16.438357,345.14204,299.11528)" fill="#343a40"/>
<use data-text="A" xlink:href="#font_1_36" transform="matrix(16.438357,0,0,-16.438357,354.84065,299.11528)" fill="#343a40"/>
<use data-text="r" xlink:href="#font_1_85" transform="matrix(16.438357,0,0,-16.438357,365.9201,299.11528)" fill="#343a40"/>
<use data-text="a" xlink:href="#font_1_68" transform="matrix(16.438357,0,0,-16.438357,372.34748,299.11528)" fill="#343a40"/>
<use data-text="b" xlink:href="#font_1_69" transform="matrix(16.438357,0,0,-16.438357,380.7146,299.11528)" fill="#343a40"/>
<use data-text="i" xlink:href="#font_1_76" transform="matrix(16.438357,0,0,-16.438357,389.8379,299.11528)" fill="#343a40"/>
<use data-text="c" xlink:href="#font_1_70" transform="matrix(16.438357,0,0,-16.438357,394.8187,299.11528)" fill="#343a40"/>
<use data-text="M" xlink:href="#font_1_48" transform="matrix(16.438357,0,0,-16.438357,622.6209,205.57183)" fill="#343a40"/>
<use data-text="S" xlink:href="#font_1_54" transform="matrix(16.438357,0,0,-16.438357,637.0209,205.57183)" fill="#343a40"/>
<use data-text="A" xlink:href="#font_1_36" transform="matrix(16.438357,0,0,-16.438357,645.58529,205.57183)" fill="#343a40"/>
<use data-text="M" xlink:href="#font_1_48" transform="matrix(14.794527,0,0,-14.794527,592.9836,288.4117)" fill="#343a40"/>
<use data-text="o" xlink:href="#font_1_82" transform="matrix(14.794527,0,0,-14.794527,605.9436,288.4117)" fill="#343a40"/>
<use data-text="d" xlink:href="#font_1_71" transform="matrix(14.794527,0,0,-14.794527,613.9918,288.4117)" fill="#343a40"/>
<use data-text="e" xlink:href="#font_1_72" transform="matrix(14.794527,0,0,-14.794527,622.33596,288.4117)" fill="#343a40"/>
<use data-text="r" xlink:href="#font_1_85" transform="matrix(14.794527,0,0,-14.794527,629.58529,288.4117)" fill="#343a40"/>
<use data-text="n" xlink:href="#font_1_81" transform="matrix(14.794527,0,0,-14.794527,635.36996,288.4117)" fill="#343a40"/>
<use data-text="V" xlink:href="#font_1_57" transform="matrix(14.794527,0,0,-14.794527,649.23239,288.4117)" fill="#343a40"/>
<use data-text="e" xlink:href="#font_1_72" transform="matrix(14.794527,0,0,-14.794527,658.2275,288.4117)" fill="#343a40"/>
<use data-text="r" xlink:href="#font_1_85" transform="matrix(14.794527,0,0,-14.794527,665.4768,288.4117)" fill="#343a40"/>
<use data-text="n" xlink:href="#font_1_81" transform="matrix(14.794527,0,0,-14.794527,671.2615,288.4117)" fill="#343a40"/>
<use data-text="a" xlink:href="#font_1_68" transform="matrix(14.794527,0,0,-14.794527,679.64999,288.4117)" fill="#343a40"/>
<use data-text="c" xlink:href="#font_1_70" transform="matrix(14.794527,0,0,-14.794527,687.1803,288.4117)" fill="#343a40"/>
<use data-text="u" xlink:href="#font_1_88" transform="matrix(14.794527,0,0,-14.794527,694.0746,288.4117)" fill="#343a40"/>
<use data-text="l" xlink:href="#font_1_79" transform="matrix(14.794527,0,0,-14.794527,702.4927,288.4117)" fill="#343a40"/>
<use data-text="a" xlink:href="#font_1_68" transform="matrix(14.794527,0,0,-14.794527,706.88668,288.4117)" fill="#343a40"/>
<use data-text="r" xlink:href="#font_1_85" transform="matrix(14.794527,0,0,-14.794527,714.41708,288.4117)" fill="#343a40"/>
<use data-text="A" xlink:href="#font_1_36" transform="matrix(14.794527,0,0,-14.794527,592.9836,308.13914)" fill="#343a40"/>
<use data-text="r" xlink:href="#font_1_85" transform="matrix(14.794527,0,0,-14.794527,602.9551,308.13914)" fill="#343a40"/>
<use data-text="a" xlink:href="#font_1_68" transform="matrix(14.794527,0,0,-14.794527,608.73977,308.13914)" fill="#343a40"/>
<use data-text="b" xlink:href="#font_1_69" transform="matrix(14.794527,0,0,-14.794527,616.27017,308.13914)" fill="#343a40"/>
<use data-text="i" xlink:href="#font_1_76" transform="matrix(14.794527,0,0,-14.794527,624.48117,308.13914)" fill="#343a40"/>
<use data-text="c" xlink:href="#font_1_70" transform="matrix(14.794527,0,0,-14.794527,628.9639,308.13914)" fill="#343a40"/>
<path transform="matrix(1.65,0,0,-1.65,157.89345,292.18363)" stroke-width="8.56798" stroke-linecap="butt" stroke-miterlimit="10" stroke-linejoin="miter" fill="none" stroke="#343a40" d="M27.34436 0H66.62437"/>
<path transform="matrix(1.65,0,0,-1.65,157.89345,292.18363)" stroke-width="6.97394" stroke-linecap="butt" stroke-miterlimit="10" stroke-linejoin="miter" fill="none" stroke="#ffffff" d="M27.34436 0H66.62437"/>
<path transform="matrix(1.65,0,0,-1.65,267.82368,292.18363)" stroke-width=".79701" stroke-linecap="round" stroke-linejoin="round" fill="none" stroke="#343a40" d="M-5.20651 10.29646C-2.68098 4.85683 4.11858 .19427 8.00404 0 4.11858-.19427-2.68098-4.85683-5.20651-10.29646"/>
<use data-text="d" xlink:href="#font_1_71" transform="matrix(13.1506819,0,0,-13.1506819,220.21065,296.64854)" fill="#343a40"/>
<use data-text="i" xlink:href="#font_1_76" transform="matrix(13.1506819,0,0,-13.1506819,227.62764,296.64854)" fill="#343a40"/>
<use data-text="a" xlink:href="#font_1_68" transform="matrix(13.1506819,0,0,-13.1506819,231.6123,296.64854)" fill="#343a40"/>
<use data-text="l" xlink:href="#font_1_79" transform="matrix(13.1506819,0,0,-13.1506819,238.30602,296.64854)" fill="#343a40"/>
<use data-text="e" xlink:href="#font_1_72" transform="matrix(13.1506819,0,0,-13.1506819,242.21176,296.64854)" fill="#343a40"/>
<use data-text="c" xlink:href="#font_1_70" transform="matrix(13.1506819,0,0,-13.1506819,248.6556,296.64854)" fill="#343a40"/>
<use data-text="t" xlink:href="#font_1_87" transform="matrix(13.1506819,0,0,-13.1506819,254.7838,296.64854)" fill="#343a40"/>
<use data-text="s" xlink:href="#font_1_86" transform="matrix(13.1506819,0,0,-13.1506819,259.25505,296.64854)" fill="#343a40"/>
<path transform="matrix(1.65,0,0,-1.65,157.89345,292.18363)" stroke-width="8.56798" stroke-linecap="butt" stroke-miterlimit="10" stroke-linejoin="miter" fill="none" stroke="#343a40" d="M151.74759 0H251.77265"/>
<path transform="matrix(1.65,0,0,-1.65,157.89345,292.18363)" stroke-width="6.97394" stroke-linecap="butt" stroke-miterlimit="10" stroke-linejoin="miter" fill="none" stroke="#ffffff" d="M151.74759 0H251.77265"/>
<path transform="matrix(1.65,0,0,-1.65,573.3183,292.18363)" stroke-width=".79701" stroke-linecap="round" stroke-linejoin="round" fill="none" stroke="#343a40" d="M-5.20651 10.29646C-2.68098 4.85683 4.11858 .19427 8.00404 0 4.11858-.19427-2.68098-4.85683-5.20651-10.29646"/>
<use data-text="d" xlink:href="#font_1_71" transform="matrix(13.1506819,0,0,-13.1506819,475.58778,296.64854)" fill="#343a40"/>
<use data-text="i" xlink:href="#font_1_76" transform="matrix(13.1506819,0,0,-13.1506819,483.00477,296.64854)" fill="#343a40"/>
<use data-text="a" xlink:href="#font_1_68" transform="matrix(13.1506819,0,0,-13.1506819,486.98945,296.64854)" fill="#343a40"/>
<use data-text="l" xlink:href="#font_1_79" transform="matrix(13.1506819,0,0,-13.1506819,493.68315,296.64854)" fill="#343a40"/>
<use data-text="e" xlink:href="#font_1_72" transform="matrix(13.1506819,0,0,-13.1506819,497.5889,296.64854)" fill="#343a40"/>
<use data-text="c" xlink:href="#font_1_70" transform="matrix(13.1506819,0,0,-13.1506819,504.03276,296.64854)" fill="#343a40"/>
<use data-text="t" xlink:href="#font_1_87" transform="matrix(13.1506819,0,0,-13.1506819,510.16099,296.64854)" fill="#343a40"/>
<use data-text="s" xlink:href="#font_1_86" transform="matrix(13.1506819,0,0,-13.1506819,514.6322,296.64854)" fill="#343a40"/>
<path transform="matrix(1.65,0,0,-1.65,157.89345,292.18363)" stroke-width=".79701" stroke-linecap="butt" stroke-miterlimit="10" stroke-linejoin="miter" fill="none" stroke="#343a40" d="M167.93144 56.69362H275.54679"/>
<path transform="matrix(1.65,0,0,-1.65,612.54568,198.63916)" d="M2.59026 0-1.55415 2.0722 0 0-1.55415-2.0722" fill="#343a40"/>
<path transform="matrix(1.65,0,0,-1.65,157.89345,292.18363)" stroke-width=".3985" stroke-linecap="butt" stroke-miterlimit="10" stroke-linejoin="miter" fill="none" stroke="#343a40" d="M75.02695 3.2521C75.87729 4.9529 77.86157 6.08675 80.69621 6.08675H134.57068C137.4053 6.08675 139.38959 7.22057 140.23995 8.92139 141.0903 7.22057 143.07459 6.08675 145.90923 6.08675H146.07831C148.91295 6.08675 150.89723 4.9529 151.74759 3.2521"/>
<path transform="matrix(1.65,0,0,-1.65,157.89345,292.18363)" stroke-width=".79701" stroke-linecap="butt" stroke-miterlimit="10" stroke-linejoin="miter" fill="none" stroke="#343a40" d="M140.40904 8.92139C140.23276 28.27203 146.18161 41.33937 158.9229 52.22981"/>
<path transform="matrix(1.254198,-1.0720049,-1.0720049,-1.254198,420.1162,206.00444)" d="M2.59026 0-1.55415 2.0722 0 0-1.55415-2.0722" fill="#343a40"/>
<use data-text="S" xlink:href="#font_1_54" transform="matrix(4.7145206,-15.746795,-15.746795,-4.7145206,388.33906,249.0823)"/>
<use data-text="C" xlink:href="#font_1_38" transform="matrix(6.564986,-15.069533,-15.069533,-6.564986,390.91468,240.3852)"/>
<use data-text="A" xlink:href="#font_1_36" transform="matrix(8.562739,-14.030958,-14.030958,-8.562739,395.27894,230.41422)"/>
<path transform="matrix(1.65,0,0,-1.65,157.89345,292.18363)" stroke-width=".3985" stroke-linecap="butt" stroke-dasharray="2.98883,2.98883" stroke-miterlimit="10" stroke-linejoin="miter" fill="none" stroke="#343a40" d="M231.36495 47.77223 276.95686 16.53403"/>
<path transform="matrix(1.3610685,.93256357,.93256357,-1.3610685,614.87228,264.90248)" d="M1.99252 0-1.19551 1.59401 0 0-1.19551-1.59401" fill="#343a40"/>
<path transform="matrix(1.65,0,0,-1.65,157.89345,292.18363)" stroke-width=".3985" stroke-linecap="butt" stroke-dasharray="2.98883,2.98883" stroke-miterlimit="10" stroke-linejoin="miter" fill="none" stroke="#343a40" d="M231.8284 15.4079 276.50389 46.63086"/>
<path transform="matrix(1.3524059,-.9451695,-.9451695,-1.3524059,614.1248,215.24274)" d="M1.99252 0-1.19551 1.59401 0 0-1.19551-1.59401" fill="#343a40"/>
<use data-text="c" xlink:href="#font_1_70" transform="matrix(11.506852,0,0,-11.506852,559.6206,249.06912)" fill="#343a40"/>
<use data-text="r" xlink:href="#font_1_85" transform="matrix(11.506852,0,0,-11.506852,564.9828,249.06912)" fill="#343a40"/>
<use data-text="o" xlink:href="#font_1_82" transform="matrix(11.506852,0,0,-11.506852,569.482,249.06912)" fill="#343a40"/>
<use data-text="s" xlink:href="#font_1_86" transform="matrix(11.506852,0,0,-11.506852,575.7417,249.06912)" fill="#343a40"/>
<use data-text="s" xlink:href="#font_1_86" transform="matrix(11.506852,0,0,-11.506852,580.3214,249.06912)" fill="#343a40"/>
<use data-text="-" xlink:href="#font_1_16" transform="matrix(11.506852,0,0,-11.506852,584.9012,249.06912)" fill="#343a40"/>
<use data-text="i" xlink:href="#font_1_76" transform="matrix(11.506852,0,0,-11.506852,588.5834,249.06912)" fill="#343a40"/>
<use data-text="n" xlink:href="#font_1_81" transform="matrix(11.506852,0,0,-11.506852,592.06997,249.06912)" fill="#343a40"/>
<use data-text="f" xlink:href="#font_1_784" transform="matrix(11.506852,0,0,-11.506852,598.5943,249.06912)" fill="#343a40"/>
<use data-text="u" xlink:href="#font_1_88" transform="matrix(11.506852,0,0,-11.506852,605.76309,249.06912)" fill="#343a40"/>
<use data-text="e" xlink:href="#font_1_72" transform="matrix(11.506852,0,0,-11.506852,612.3104,249.06912)" fill="#343a40"/>
<use data-text="n" xlink:href="#font_1_81" transform="matrix(11.506852,0,0,-11.506852,617.9487,249.06912)" fill="#343a40"/>
<use data-text="c" xlink:href="#font_1_70" transform="matrix(11.506852,0,0,-11.506852,624.47317,249.06912)" fill="#343a40"/>
<use data-text="e" xlink:href="#font_1_72" transform="matrix(11.506852,0,0,-11.506852,629.8353,249.06912)" fill="#343a40"/>
<use data-text="n" xlink:href="#font_1_81" transform="matrix(13.1506819,0,0,-13.1506819,42.916498,279.38954)" fill="#343a40"/>
<use data-text="a" xlink:href="#font_1_68" transform="matrix(13.1506819,0,0,-13.1506819,50.372934,279.38954)" fill="#343a40"/>
<use data-text="t" xlink:href="#font_1_87" transform="matrix(13.1506819,0,0,-13.1506819,57.066629,279.38954)" fill="#343a40"/>
<use data-text="i" xlink:href="#font_1_76" transform="matrix(13.1506819,0,0,-13.1506819,61.53786,279.38954)" fill="#343a40"/>
<use data-text="v" xlink:href="#font_1_89" transform="matrix(13.1506819,0,0,-13.1506819,65.52252,279.38954)" fill="#343a40"/>
<use data-text="e" xlink:href="#font_1_72" transform="matrix(13.1506819,0,0,-13.1506819,72.29512,279.38954)" fill="#343a40"/>
<use data-text="A" xlink:href="#font_1_36" transform="matrix(13.1506819,0,0,-13.1506819,40.616395,299.11528)" fill="#343a40"/>
<use data-text="r" xlink:href="#font_1_85" transform="matrix(13.1506819,0,0,-13.1506819,49.479955,299.11528)" fill="#343a40"/>
<use data-text="a" xlink:href="#font_1_68" transform="matrix(13.1506819,0,0,-13.1506819,54.621873,299.11528)" fill="#343a40"/>
<use data-text="b" xlink:href="#font_1_69" transform="matrix(13.1506819,0,0,-13.1506819,61.315568,299.11528)" fill="#343a40"/>
<use data-text="i" xlink:href="#font_1_76" transform="matrix(13.1506819,0,0,-13.1506819,68.6142,299.11528)" fill="#343a40"/>
<use data-text="c" xlink:href="#font_1_70" transform="matrix(13.1506819,0,0,-13.1506819,72.59886,299.11528)" fill="#343a40"/>
<use data-text="n" xlink:href="#font_1_81" transform="matrix(13.1506819,0,0,-13.1506819,23.722044,185.84607)" fill="#343a40"/>
<use data-text="o" xlink:href="#font_1_82" transform="matrix(13.1506819,0,0,-13.1506819,31.178483,185.84607)" fill="#343a40"/>
<use data-text="n" xlink:href="#font_1_81" transform="matrix(13.1506819,0,0,-13.1506819,38.332456,185.84607)" fill="#343a40"/>
<use data-text="-" xlink:href="#font_1_16" transform="matrix(13.1506819,0,0,-13.1506819,45.78889,185.84607)" fill="#343a40"/>
<use data-text="n" xlink:href="#font_1_81" transform="matrix(13.1506819,0,0,-13.1506819,49.99711,185.84607)" fill="#343a40"/>
<use data-text="a" xlink:href="#font_1_68" transform="matrix(13.1506819,0,0,-13.1506819,57.45355,185.84607)" fill="#343a40"/>
<use data-text="t" xlink:href="#font_1_87" transform="matrix(13.1506819,0,0,-13.1506819,64.14724,185.84607)" fill="#343a40"/>
<use data-text="i" xlink:href="#font_1_76" transform="matrix(13.1506819,0,0,-13.1506819,68.61848,185.84607)" fill="#343a40"/>
<use data-text="v" xlink:href="#font_1_89" transform="matrix(13.1506819,0,0,-13.1506819,72.603137,185.84607)" fill="#343a40"/>
<use data-text="e" xlink:href="#font_1_72" transform="matrix(13.1506819,0,0,-13.1506819,79.37574,185.84607)" fill="#343a40"/>
<use data-text="f" xlink:href="#font_1_73" transform="matrix(13.1506819,0,0,-13.1506819,5.479645,205.57183)" fill="#343a40"/>
<use data-text="o" xlink:href="#font_1_82" transform="matrix(13.1506819,0,0,-13.1506819,9.7667679,205.57183)" fill="#343a40"/>
<use data-text="r" xlink:href="#font_1_85" transform="matrix(13.1506819,0,0,-13.1506819,16.920739,205.57183)" fill="#343a40"/>
<use data-text="m" xlink:href="#font_1_80" transform="matrix(13.1506819,0,0,-13.1506819,22.062655,205.57183)" fill="#343a40"/>
<use data-text="a" xlink:href="#font_1_68" transform="matrix(13.1506819,0,0,-13.1506819,33.240736,205.57183)" fill="#343a40"/>
<use data-text="l" xlink:href="#font_1_79" transform="matrix(13.1506819,0,0,-13.1506819,39.934434,205.57183)" fill="#343a40"/>
<use data-text="A" xlink:href="#font_1_36" transform="matrix(13.1506819,0,0,-13.1506819,47.680185,205.57183)" fill="#343a40"/>
<use data-text="r" xlink:href="#font_1_85" transform="matrix(13.1506819,0,0,-13.1506819,56.54374,205.57183)" fill="#343a40"/>
<use data-text="a" xlink:href="#font_1_68" transform="matrix(13.1506819,0,0,-13.1506819,61.685659,205.57183)" fill="#343a40"/>
<use data-text="b" xlink:href="#font_1_69" transform="matrix(13.1506819,0,0,-13.1506819,68.37935,205.57183)" fill="#343a40"/>
<use data-text="i" xlink:href="#font_1_76" transform="matrix(13.1506819,0,0,-13.1506819,75.67798,205.57183)" fill="#343a40"/>
<use data-text="c" xlink:href="#font_1_70" transform="matrix(13.1506819,0,0,-13.1506819,79.662639,205.57183)" fill="#343a40"/>
<use data-text="A" xlink:href="#font_1_36" transform="matrix(11.506852,0,0,-11.506852,89.040599,92.30263)" fill="#343a40"/>
<use data-text="r" xlink:href="#font_1_85" transform="matrix(11.506852,0,0,-11.506852,96.79621,92.30263)" fill="#343a40"/>
<use data-text="a" xlink:href="#font_1_68" transform="matrix(11.506852,0,0,-11.506852,101.29539,92.30263)" fill="#343a40"/>
<use data-text="b" xlink:href="#font_1_69" transform="matrix(11.506852,0,0,-11.506852,107.15238,92.30263)" fill="#343a40"/>
<use data-text="i" xlink:href="#font_1_76" transform="matrix(11.506852,0,0,-11.506852,113.53867,92.30263)" fill="#343a40"/>
<use data-text="c" xlink:href="#font_1_70" transform="matrix(11.506852,0,0,-11.506852,117.02525,92.30263)" fill="#343a40"/>
<use data-text="i" xlink:href="#font_1_76" transform="matrix(11.506852,0,0,-11.506852,122.38745,92.30263)" fill="#343a40"/>
<use data-text="z" xlink:href="#font_1_93" transform="matrix(11.506852,0,0,-11.506852,125.87402,92.30263)" fill="#343a40"/>
<use data-text="e" xlink:href="#font_1_72" transform="matrix(11.506852,0,0,-11.506852,131.19019,92.30263)" fill="#343a40"/>
<use data-text="d" xlink:href="#font_1_71" transform="matrix(11.506852,0,0,-11.506852,136.82852,92.30263)" fill="#343a40"/>
<use data-text="l" xlink:href="#font_1_79" transform="matrix(11.506852,0,0,-11.506852,146.68991,92.30263)" fill="#343a40"/>
<use data-text="o" xlink:href="#font_1_82" transform="matrix(11.506852,0,0,-11.506852,150.10746,92.30263)" fill="#343a40"/>
<use data-text="a" xlink:href="#font_1_68" transform="matrix(11.506852,0,0,-11.506852,156.36719,92.30263)" fill="#343a40"/>
<use data-text="n" xlink:href="#font_1_81" transform="matrix(11.506852,0,0,-11.506852,162.22415,92.30263)" fill="#343a40"/>
<use data-text="w" xlink:href="#font_1_90" transform="matrix(11.506852,0,0,-11.506852,168.41486,92.30263)" fill="#343a40"/>
<use data-text="o" xlink:href="#font_1_82" transform="matrix(11.506852,0,0,-11.506852,177.26361,92.30263)" fill="#343a40"/>
<use data-text="r" xlink:href="#font_1_85" transform="matrix(11.506852,0,0,-11.506852,183.52335,92.30263)" fill="#343a40"/>
<use data-text="d" xlink:href="#font_1_71" transform="matrix(11.506852,0,0,-11.506852,188.02252,92.30263)" fill="#343a40"/>
<use data-text="s" xlink:href="#font_1_86" transform="matrix(11.506852,0,0,-11.506852,194.51239,92.30263)" fill="#343a40"/>
<use data-text="f" xlink:href="#font_1_73" transform="matrix(11.506852,0,0,-11.506852,202.45212,92.30263)" fill="#343a40"/>
<use data-text="r" xlink:href="#font_1_85" transform="matrix(11.506852,0,0,-11.506852,206.20334,92.30263)" fill="#343a40"/>
<use data-text="o" xlink:href="#font_1_82" transform="matrix(11.506852,0,0,-11.506852,210.70252,92.30263)" fill="#343a40"/>
<use data-text="m" xlink:href="#font_1_80" transform="matrix(11.506852,0,0,-11.506852,216.96225,92.30263)" fill="#343a40"/>
<use data-text="P" xlink:href="#font_1_51" transform="matrix(11.506852,0,0,-11.506852,102.36929,112.02838)" fill="#343a40"/>
<use data-text="e" xlink:href="#font_1_72" transform="matrix(11.506852,0,0,-11.506852,108.92819,112.02838)" fill="#343a40"/>
<use data-text="r" xlink:href="#font_1_85" transform="matrix(11.506852,0,0,-11.506852,114.56654,112.02838)" fill="#343a40"/>
<use data-text="s" xlink:href="#font_1_86" transform="matrix(11.506852,0,0,-11.506852,119.06572,112.02838)" fill="#343a40"/>
<use data-text="i" xlink:href="#font_1_76" transform="matrix(11.506852,0,0,-11.506852,123.64545,112.02838)" fill="#343a40"/>
<use data-text="a" xlink:href="#font_1_68" transform="matrix(11.506852,0,0,-11.506852,127.13202,112.02838)" fill="#343a40"/>
<use data-text="n" xlink:href="#font_1_81" transform="matrix(11.506852,0,0,-11.506852,132.98902,112.02838)" fill="#343a40"/>
<use data-text="," xlink:href="#font_1_15" transform="matrix(11.506852,0,0,-11.506852,139.5134,112.02838)" fill="#343a40"/>
<use data-text="A" xlink:href="#font_1_36" transform="matrix(11.506852,0,0,-11.506852,146.0953,112.02838)" fill="#343a40"/>
<use data-text="r" xlink:href="#font_1_85" transform="matrix(11.506852,0,0,-11.506852,153.85092,112.02838)" fill="#343a40"/>
<use data-text="a" xlink:href="#font_1_68" transform="matrix(11.506852,0,0,-11.506852,158.3501,112.02838)" fill="#343a40"/>
<use data-text="m" xlink:href="#font_1_80" transform="matrix(11.506852,0,0,-11.506852,164.20709,112.02838)" fill="#343a40"/>
<use data-text="a" xlink:href="#font_1_68" transform="matrix(11.506852,0,0,-11.506852,173.98792,112.02838)" fill="#343a40"/>
<use data-text="i" xlink:href="#font_1_76" transform="matrix(11.506852,0,0,-11.506852,179.84491,112.02838)" fill="#343a40"/>
<use data-text="c" xlink:href="#font_1_70" transform="matrix(11.506852,0,0,-11.506852,183.33148,112.02838)" fill="#343a40"/>
<use data-text="," xlink:href="#font_1_15" transform="matrix(11.506852,0,0,-11.506852,188.69367,112.02838)" fill="#343a40"/>
<use data-text="e" xlink:href="#font_1_72" transform="matrix(11.506852,0,0,-11.506852,195.28708,112.02838)" fill="#343a40"/>
<use data-text="t" xlink:href="#font_1_87" transform="matrix(11.506852,0,0,-11.506852,200.92545,112.02838)" fill="#343a40"/>
<use data-text="c" xlink:href="#font_1_70" transform="matrix(11.506852,0,0,-11.506852,204.83777,112.02838)" fill="#343a40"/>
<use data-text="." xlink:href="#font_1_17" transform="matrix(11.506852,0,0,-11.506852,210.19998,112.02838)" fill="#343a40"/>
<path transform="matrix(1.65,0,0,-1.65,157.89345,292.18363)" stroke-width=".3985" stroke-linecap="butt" stroke-dasharray="2.98883,2.98883" stroke-miterlimit="10" stroke-linejoin="miter" fill="none" stroke="#343a40" d="M6.4072 104.46588 73.86469 10.53969"/>
<path transform="matrix(.9624615,1.34013,1.34013,-.9624615,279.77015,274.79313)" d="M1.99252 0-1.19551 1.59401 0 0-1.19551-1.59401" fill="#343a40"/>
<use data-text="A" xlink:href="#font_1_36" transform="matrix(11.506852,0,0,-11.506852,276.12586,92.30263)" fill="#343a40"/>
<use data-text="r" xlink:href="#font_1_85" transform="matrix(11.506852,0,0,-11.506852,283.88148,92.30263)" fill="#343a40"/>
<use data-text="a" xlink:href="#font_1_68" transform="matrix(11.506852,0,0,-11.506852,288.38066,92.30263)" fill="#343a40"/>
<use data-text="b" xlink:href="#font_1_69" transform="matrix(11.506852,0,0,-11.506852,294.23765,92.30263)" fill="#343a40"/>
<use data-text="i" xlink:href="#font_1_76" transform="matrix(11.506852,0,0,-11.506852,300.62394,92.30263)" fill="#343a40"/>
<use data-text="c" xlink:href="#font_1_70" transform="matrix(11.506852,0,0,-11.506852,304.1105,92.30263)" fill="#343a40"/>
<use data-text="i" xlink:href="#font_1_76" transform="matrix(11.506852,0,0,-11.506852,309.47273,92.30263)" fill="#343a40"/>
<use data-text="z" xlink:href="#font_1_93" transform="matrix(11.506852,0,0,-11.506852,312.9593,92.30263)" fill="#343a40"/>
<use data-text="e" xlink:href="#font_1_72" transform="matrix(11.506852,0,0,-11.506852,318.27549,92.30263)" fill="#343a40"/>
<use data-text="d" xlink:href="#font_1_71" transform="matrix(11.506852,0,0,-11.506852,323.91383,92.30263)" fill="#343a40"/>
<use data-text="l" xlink:href="#font_1_79" transform="matrix(11.506852,0,0,-11.506852,333.7752,92.30263)" fill="#343a40"/>
<use data-text="o" xlink:href="#font_1_82" transform="matrix(11.506852,0,0,-11.506852,337.19276,92.30263)" fill="#343a40"/>
<use data-text="a" xlink:href="#font_1_68" transform="matrix(11.506852,0,0,-11.506852,343.45249,92.30263)" fill="#343a40"/>
<use data-text="n" xlink:href="#font_1_81" transform="matrix(11.506852,0,0,-11.506852,349.30946,92.30263)" fill="#343a40"/>
<use data-text="w" xlink:href="#font_1_90" transform="matrix(11.506852,0,0,-11.506852,355.50016,92.30263)" fill="#343a40"/>
<use data-text="o" xlink:href="#font_1_82" transform="matrix(11.506852,0,0,-11.506852,364.3489,92.30263)" fill="#343a40"/>
<use data-text="r" xlink:href="#font_1_85" transform="matrix(11.506852,0,0,-11.506852,370.60865,92.30263)" fill="#343a40"/>
<use data-text="d" xlink:href="#font_1_71" transform="matrix(11.506852,0,0,-11.506852,375.10783,92.30263)" fill="#343a40"/>
<use data-text="s" xlink:href="#font_1_86" transform="matrix(11.506852,0,0,-11.506852,381.5977,92.30263)" fill="#343a40"/>
<use data-text="f" xlink:href="#font_1_73" transform="matrix(11.506852,0,0,-11.506852,389.5374,92.30263)" fill="#343a40"/>
<use data-text="r" xlink:href="#font_1_85" transform="matrix(11.506852,0,0,-11.506852,393.28865,92.30263)" fill="#343a40"/>
<use data-text="o" xlink:href="#font_1_82" transform="matrix(11.506852,0,0,-11.506852,397.7878,92.30263)" fill="#343a40"/>
<use data-text="m" xlink:href="#font_1_80" transform="matrix(11.506852,0,0,-11.506852,404.04756,92.30263)" fill="#343a40"/>
<use data-text="P" xlink:href="#font_1_51" transform="matrix(11.506852,0,0,-11.506852,295.7922,112.02838)" fill="#343a40"/>
<use data-text="e" xlink:href="#font_1_72" transform="matrix(11.506852,0,0,-11.506852,302.3511,112.02838)" fill="#343a40"/>
<use data-text="r" xlink:href="#font_1_85" transform="matrix(11.506852,0,0,-11.506852,307.98948,112.02838)" fill="#343a40"/>
<use data-text="s" xlink:href="#font_1_86" transform="matrix(11.506852,0,0,-11.506852,312.48866,112.02838)" fill="#343a40"/>
<use data-text="i" xlink:href="#font_1_76" transform="matrix(11.506852,0,0,-11.506852,317.0684,112.02838)" fill="#343a40"/>
<use data-text="a" xlink:href="#font_1_68" transform="matrix(11.506852,0,0,-11.506852,320.55497,112.02838)" fill="#343a40"/>
<use data-text="n" xlink:href="#font_1_81" transform="matrix(11.506852,0,0,-11.506852,326.41197,112.02838)" fill="#343a40"/>
<use data-text="," xlink:href="#font_1_15" transform="matrix(11.506852,0,0,-11.506852,332.93635,112.02838)" fill="#343a40"/>
<use data-text="G" xlink:href="#font_1_42" transform="matrix(11.506852,0,0,-11.506852,339.51826,112.02838)" fill="#343a40"/>
<use data-text="r" xlink:href="#font_1_85" transform="matrix(11.506852,0,0,-11.506852,347.51554,112.02838)" fill="#343a40"/>
<use data-text="e" xlink:href="#font_1_72" transform="matrix(11.506852,0,0,-11.506852,352.0147,112.02838)" fill="#343a40"/>
<use data-text="e" xlink:href="#font_1_72" transform="matrix(11.506852,0,0,-11.506852,357.65309,112.02838)" fill="#343a40"/>
<use data-text="k" xlink:href="#font_1_78" transform="matrix(11.506852,0,0,-11.506852,363.29145,112.02838)" fill="#343a40"/>
<use data-text="," xlink:href="#font_1_15" transform="matrix(11.506852,0,0,-11.506852,369.4361,112.02838)" fill="#343a40"/>
<use data-text="e" xlink:href="#font_1_72" transform="matrix(11.506852,0,0,-11.506852,376.0295,112.02838)" fill="#343a40"/>
<use data-text="t" xlink:href="#font_1_87" transform="matrix(11.506852,0,0,-11.506852,381.66789,112.02838)" fill="#343a40"/>
<use data-text="c" xlink:href="#font_1_70" transform="matrix(11.506852,0,0,-11.506852,385.5802,112.02838)" fill="#343a40"/>
<use data-text="." xlink:href="#font_1_17" transform="matrix(11.506852,0,0,-11.506852,390.9424,112.02838)" fill="#343a40"/>
<path transform="matrix(1.65,0,0,-1.65,157.89345,292.18363)" stroke-width=".3985" stroke-linecap="butt" stroke-dasharray="2.98883,2.98883" stroke-miterlimit="10" stroke-linejoin="miter" fill="none" stroke="#343a40" d="M124.89919 104.46588 173.48992 66.83493"/>
<path transform="matrix(1.30449,1.010229,1.010229,-1.30449,444.1518,181.90595)" d="M1.99252 0-1.19551 1.59401 0 0-1.19551-1.59401" fill="#343a40"/>
<use data-text="t" xlink:href="#font_1_87" transform="matrix(11.506852,0,0,-11.506852,426.3435,92.30263)" fill="#343a40"/>
<use data-text="r" xlink:href="#font_1_85" transform="matrix(11.506852,0,0,-11.506852,430.25584,92.30263)" fill="#343a40"/>
<use data-text="a" xlink:href="#font_1_68" transform="matrix(11.506852,0,0,-11.506852,434.755,92.30263)" fill="#343a40"/>
<use data-text="n" xlink:href="#font_1_81" transform="matrix(11.506852,0,0,-11.506852,440.61198,92.30263)" fill="#343a40"/>
<use data-text="s" xlink:href="#font_1_86" transform="matrix(11.506852,0,0,-11.506852,447.13636,92.30263)" fill="#343a40"/>
<use data-text="l" xlink:href="#font_1_79" transform="matrix(11.506852,0,0,-11.506852,451.67008,92.30263)" fill="#343a40"/>
<use data-text="a" xlink:href="#font_1_68" transform="matrix(11.506852,0,0,-11.506852,455.0876,92.30263)" fill="#343a40"/>
<use data-text="t" xlink:href="#font_1_87" transform="matrix(11.506852,0,0,-11.506852,460.94459,92.30263)" fill="#343a40"/>
<use data-text="e" xlink:href="#font_1_72" transform="matrix(11.506852,0,0,-11.506852,464.85688,92.30263)" fill="#343a40"/>
<use data-text="d" xlink:href="#font_1_71" transform="matrix(11.506852,0,0,-11.506852,470.4952,92.30263)" fill="#343a40"/>
<use data-text="v" xlink:href="#font_1_89" transform="matrix(11.506852,0,0,-11.506852,480.34513,92.30263)" fill="#343a40"/>
<use data-text="o" xlink:href="#font_1_82" transform="matrix(11.506852,0,0,-11.506852,486.27119,92.30263)" fill="#343a40"/>
<use data-text="c" xlink:href="#font_1_70" transform="matrix(11.506852,0,0,-11.506852,492.53089,92.30263)" fill="#343a40"/>
<use data-text="a" xlink:href="#font_1_68" transform="matrix(11.506852,0,0,-11.506852,497.8931,92.30263)" fill="#343a40"/>
<use data-text="b" xlink:href="#font_1_69" transform="matrix(11.506852,0,0,-11.506852,503.75007,92.30263)" fill="#343a40"/>
<use data-text="u" xlink:href="#font_1_88" transform="matrix(11.506852,0,0,-11.506852,510.13636,92.30263)" fill="#343a40"/>
<use data-text="l" xlink:href="#font_1_79" transform="matrix(11.506852,0,0,-11.506852,516.6837,92.30263)" fill="#343a40"/>
<use data-text="a" xlink:href="#font_1_68" transform="matrix(11.506852,0,0,-11.506852,520.10128,92.30263)" fill="#343a40"/>
<use data-text="r" xlink:href="#font_1_85" transform="matrix(11.506852,0,0,-11.506852,525.95828,92.30263)" fill="#343a40"/>
<use data-text="y" xlink:href="#font_1_92" transform="matrix(11.506852,0,0,-11.506852,530.4574,92.30263)" fill="#343a40"/>
<use data-text="," xlink:href="#font_1_15" transform="matrix(11.506852,0,0,-11.506852,535.6585,92.30263)" fill="#343a40"/>
<use data-text="s" xlink:href="#font_1_86" transform="matrix(11.506852,0,0,-11.506852,542.2405,92.30263)" fill="#343a40"/>
<use data-text="t" xlink:href="#font_1_87" transform="matrix(11.506852,0,0,-11.506852,546.8202,92.30263)" fill="#343a40"/>
<use data-text="y" xlink:href="#font_1_92" transform="matrix(11.506852,0,0,-11.506852,550.7325,92.30263)" fill="#343a40"/>
<use data-text="l" xlink:href="#font_1_79" transform="matrix(11.506852,0,0,-11.506852,556.8311,92.30263)" fill="#343a40"/>
<use data-text="e" xlink:href="#font_1_72" transform="matrix(11.506852,0,0,-11.506852,560.24868,92.30263)" fill="#343a40"/>
<use data-text="a" xlink:href="#font_1_68" transform="matrix(11.506852,0,0,-11.506852,569.2585,92.30263)" fill="#343a40"/>
<use data-text="n" xlink:href="#font_1_81" transform="matrix(11.506852,0,0,-11.506852,575.1155,92.30263)" fill="#343a40"/>
<use data-text="d" xlink:href="#font_1_71" transform="matrix(11.506852,0,0,-11.506852,581.63986,92.30263)" fill="#343a40"/>
<use data-text="g" xlink:href="#font_1_74" transform="matrix(11.506852,0,0,-11.506852,591.5012,92.30263)" fill="#343a40"/>
<use data-text="r" xlink:href="#font_1_85" transform="matrix(11.506852,0,0,-11.506852,597.54238,92.30263)" fill="#343a40"/>
<use data-text="a" xlink:href="#font_1_68" transform="matrix(11.506852,0,0,-11.506852,602.0415,92.30263)" fill="#343a40"/>
<use data-text="m" xlink:href="#font_1_80" transform="matrix(11.506852,0,0,-11.506852,607.8985,92.30263)" fill="#343a40"/>
<use data-text="m" xlink:href="#font_1_80" transform="matrix(11.506852,0,0,-11.506852,617.6793,92.30263)" fill="#343a40"/>
<use data-text="a" xlink:href="#font_1_68" transform="matrix(11.506852,0,0,-11.506852,627.46017,92.30263)" fill="#343a40"/>
<use data-text="r" xlink:href="#font_1_85" transform="matrix(11.506852,0,0,-11.506852,633.3171,92.30263)" fill="#343a40"/>
<use data-text="f" xlink:href="#font_1_73" transform="matrix(11.506852,0,0,-11.506852,466.52265,112.02838)" fill="#343a40"/>
<use data-text="r" xlink:href="#font_1_85" transform="matrix(11.506852,0,0,-11.506852,470.27388,112.02838)" fill="#343a40"/>
<use data-text="o" xlink:href="#font_1_82" transform="matrix(11.506852,0,0,-11.506852,474.77305,112.02838)" fill="#343a40"/>
<use data-text="m" xlink:href="#font_1_80" transform="matrix(11.506852,0,0,-11.506852,481.03276,112.02838)" fill="#343a40"/>
<use data-text="E" xlink:href="#font_1_40" transform="matrix(11.506852,0,0,-11.506852,494.18507,112.02838)" fill="#343a40"/>
<use data-text="n" xlink:href="#font_1_81" transform="matrix(11.506852,0,0,-11.506852,500.8936,112.02838)" fill="#343a40"/>
<use data-text="g" xlink:href="#font_1_74" transform="matrix(11.506852,0,0,-11.506852,507.41795,112.02838)" fill="#343a40"/>
<use data-text="l" xlink:href="#font_1_79" transform="matrix(11.506852,0,0,-11.506852,513.45907,112.02838)" fill="#343a40"/>
<use data-text="i" xlink:href="#font_1_76" transform="matrix(11.506852,0,0,-11.506852,516.8766,112.02838)" fill="#343a40"/>
<use data-text="s" xlink:href="#font_1_86" transform="matrix(11.506852,0,0,-11.506852,520.36318,112.02838)" fill="#343a40"/>
<use data-text="h" xlink:href="#font_1_75" transform="matrix(11.506852,0,0,-11.506852,524.89688,112.02838)" fill="#343a40"/>
<use data-text="," xlink:href="#font_1_15" transform="matrix(11.506852,0,0,-11.506852,531.50186,112.02838)" fill="#343a40"/>
<use data-text="F" xlink:href="#font_1_41" transform="matrix(11.506852,0,0,-11.506852,538.08377,112.02838)" fill="#343a40"/>
<use data-text="r" xlink:href="#font_1_85" transform="matrix(11.506852,0,0,-11.506852,544.30899,112.02838)" fill="#343a40"/>
<use data-text="e" xlink:href="#font_1_72" transform="matrix(11.506852,0,0,-11.506852,548.8081,112.02838)" fill="#343a40"/>
<use data-text="n" xlink:href="#font_1_81" transform="matrix(11.506852,0,0,-11.506852,554.4465,112.02838)" fill="#343a40"/>
<use data-text="c" xlink:href="#font_1_70" transform="matrix(11.506852,0,0,-11.506852,560.9708,112.02838)" fill="#343a40"/>
<use data-text="h" xlink:href="#font_1_75" transform="matrix(11.506852,0,0,-11.506852,566.287,112.02838)" fill="#343a40"/>
<use data-text="," xlink:href="#font_1_15" transform="matrix(11.506852,0,0,-11.506852,572.89199,112.02838)" fill="#343a40"/>
<use data-text="e" xlink:href="#font_1_72" transform="matrix(11.506852,0,0,-11.506852,579.4739,112.02838)" fill="#343a40"/>
<use data-text="t" xlink:href="#font_1_87" transform="matrix(11.506852,0,0,-11.506852,585.1122,112.02838)" fill="#343a40"/>
<use data-text="c" xlink:href="#font_1_70" transform="matrix(11.506852,0,0,-11.506852,589.02456,112.02838)" fill="#343a40"/>
<use data-text="." xlink:href="#font_1_17" transform="matrix(11.506852,0,0,-11.506852,594.3867,112.02838)" fill="#343a40"/>
<path transform="matrix(1.65,0,0,-1.65,157.89345,292.18363)" stroke-width=".3985" stroke-linecap="butt" stroke-dasharray="2.98883,2.98883" stroke-miterlimit="10" stroke-linejoin="miter" fill="none" stroke="#343a40" d="M236.36119 104.46588 276.678 66.97186"/>
<path transform="matrix(1.2082125,1.123617,1.123617,-1.2082125,614.4122,181.68003)" d="M1.99252 0-1.19551 1.59401 0 0-1.19551-1.59401" fill="#343a40"/>
<use data-text="f" xlink:href="#font_1_73" transform="matrix(13.1506819,0,0,-13.1506819,33.11551,92.30263)" fill="#343a40"/>
<use data-text="o" xlink:href="#font_1_82" transform="matrix(13.1506819,0,0,-13.1506819,37.402627,92.30263)" fill="#343a40"/>
<use data-text="r" xlink:href="#font_1_85" transform="matrix(13.1506819,0,0,-13.1506819,44.556604,92.30263)" fill="#343a40"/>
<use data-text="e" xlink:href="#font_1_72" transform="matrix(13.1506819,0,0,-13.1506819,49.698518,92.30263)" fill="#343a40"/>
<use data-text="i" xlink:href="#font_1_76" transform="matrix(13.1506819,0,0,-13.1506819,56.14235,92.30263)" fill="#343a40"/>
<use data-text="g" xlink:href="#font_1_74" transform="matrix(13.1506819,0,0,-13.1506819,60.127008,92.30263)" fill="#343a40"/>
<use data-text="n" xlink:href="#font_1_81" transform="matrix(13.1506819,0,0,-13.1506819,67.03111,92.30263)" fill="#343a40"/>
<use data-text="l" xlink:href="#font_1_79" transform="matrix(13.1506819,0,0,-13.1506819,16.78711,112.02838)" fill="#343a40"/>
<use data-text="a" xlink:href="#font_1_68" transform="matrix(13.1506819,0,0,-13.1506819,20.692862,112.02838)" fill="#343a40"/>
<use data-text="n" xlink:href="#font_1_81" transform="matrix(13.1506819,0,0,-13.1506819,27.386557,112.02838)" fill="#343a40"/>
<use data-text="g" xlink:href="#font_1_74" transform="matrix(13.1506819,0,0,-13.1506819,34.842996,112.02838)" fill="#343a40"/>
<use data-text="u" xlink:href="#font_1_88" transform="matrix(13.1506819,0,0,-13.1506819,41.7471,112.02838)" fill="#343a40"/>
<use data-text="a" xlink:href="#font_1_68" transform="matrix(13.1506819,0,0,-13.1506819,49.229845,112.02838)" fill="#343a40"/>
<use data-text="g" xlink:href="#font_1_74" transform="matrix(13.1506819,0,0,-13.1506819,55.92354,112.02838)" fill="#343a40"/>
<use data-text="e" xlink:href="#font_1_72" transform="matrix(13.1506819,0,0,-13.1506819,62.827646,112.02838)" fill="#343a40"/>
<use data-text="s" xlink:href="#font_1_86" transform="matrix(13.1506819,0,0,-13.1506819,69.27148,112.02838)" fill="#343a40"/>
<path transform="matrix(1.65,0,0,-1.65,157.89345,292.18363)" stroke-width=".3985" stroke-linecap="butt" stroke-miterlimit="10" stroke-linejoin="miter" fill="none" stroke="#343a40" d="M-85.04042-14.17339H309.82237"/>
<path transform="matrix(1.65,0,0,-1.65,669.10037,315.5697)" d="M1.99252 0-1.19551 1.59401 0 0-1.19551-1.59401" fill="#343a40"/>
<path transform="matrix(1.65,0,0,-1.65,157.89345,292.18363)" stroke-width=".3985" stroke-linecap="butt" stroke-miterlimit="10" stroke-linejoin="miter" fill="none" stroke="#343a40" d="M-42.5202-28.3468V139.74152"/>
<path transform="matrix(0,-1.65,-1.65,-0,87.73512,61.610124)" d="M1.99252 0-1.19551 1.59401 0 0-1.19551-1.59401" fill="#343a40"/>
<use data-text="l" xlink:href="#font_1_79" transform="matrix(0,-13.1506819,-13.1506819,-0,60.22171,64.39949)" fill="#343a40"/>
<use data-text="a" xlink:href="#font_1_68" transform="matrix(0,-13.1506819,-13.1506819,-0,60.22171,60.493738)" fill="#343a40"/>
<use data-text="n" xlink:href="#font_1_81" transform="matrix(0,-13.1506819,-13.1506819,-0,60.22171,53.80004)" fill="#343a40"/>
<use data-text="g" xlink:href="#font_1_74" transform="matrix(0,-13.1506819,-13.1506819,-0,60.22171,46.343614)" fill="#343a40"/>
<use data-text="u" xlink:href="#font_1_88" transform="matrix(0,-13.1506819,-13.1506819,-0,60.22171,39.439508)" fill="#343a40"/>
<use data-text="a" xlink:href="#font_1_68" transform="matrix(0,-13.1506819,-13.1506819,-0,60.22171,31.956765)" fill="#343a40"/>
<use data-text="g" xlink:href="#font_1_74" transform="matrix(0,-13.1506819,-13.1506819,-0,60.22171,25.26307)" fill="#343a40"/>
<use data-text="e" xlink:href="#font_1_72" transform="matrix(0,-13.1506819,-13.1506819,-0,60.22171,18.358956)" fill="#343a40"/>
<use data-text="/" xlink:href="#font_1_18" transform="matrix(0,-13.1506819,-13.1506819,-0,60.22171,11.915115)" fill="#343a40"/>
<use data-text="v" xlink:href="#font_1_89" transform="matrix(0,-13.1506819,-13.1506819,-0,79.94745,55.237039)" fill="#343a40"/>
<use data-text="a" xlink:href="#font_1_68" transform="matrix(0,-13.1506819,-13.1506819,-0,79.94745,48.332925)" fill="#343a40"/>
<use data-text="r" xlink:href="#font_1_85" transform="matrix(0,-13.1506819,-13.1506819,-0,79.94745,41.63923)" fill="#343a40"/>
<use data-text="i" xlink:href="#font_1_76" transform="matrix(0,-13.1506819,-13.1506819,-0,79.94745,36.497316)" fill="#343a40"/>
<use data-text="e" xlink:href="#font_1_72" transform="matrix(0,-13.1506819,-13.1506819,-0,79.94745,32.512666)" fill="#343a40"/>
<use data-text="t" xlink:href="#font_1_87" transform="matrix(0,-13.1506819,-13.1506819,-0,79.94745,26.068825)" fill="#343a40"/>
<use data-text="y" xlink:href="#font_1_92" transform="matrix(0,-13.1506819,-13.1506819,-0,79.94745,21.597588)" fill="#343a40"/>
<use data-text="t" xlink:href="#font_1_87" transform="matrix(13.1506819,0,0,-13.1506819,315.3579,336.53233)" fill="#343a40"/>
<use data-text="h" xlink:href="#font_1_75" transform="matrix(13.1506819,0,0,-13.1506819,319.77656,336.53233)" fill="#343a40"/>
<use data-text="e" xlink:href="#font_1_72" transform="matrix(13.1506819,0,0,-13.1506819,327.32505,336.53233)" fill="#343a40"/>
<use data-text="H" xlink:href="#font_1_43" transform="matrix(13.1506819,0,0,-13.1506819,337.60887,336.53233)" fill="#343a40"/>
<use data-text="i" xlink:href="#font_1_76" transform="matrix(13.1506819,0,0,-13.1506819,347.37983,336.53233)" fill="#343a40"/>
<use data-text="j" xlink:href="#font_1_77" transform="matrix(13.1506819,0,0,-13.1506819,351.3645,336.53233)" fill="#343a40"/>
<use data-text="r" xlink:href="#font_1_85" transform="matrix(13.1506819,0,0,-13.1506819,355.2045,336.53233)" fill="#343a40"/>
<use data-text="a" xlink:href="#font_1_68" transform="matrix(13.1506819,0,0,-13.1506819,360.3464,336.53233)" fill="#343a40"/>
<use data-text="h" xlink:href="#font_1_75" transform="matrix(13.1506819,0,0,-13.1506819,367.04014,336.53233)" fill="#343a40"/>
<use data-text="1" xlink:href="#font_1_2205" transform="matrix(13.1506819,0,0,-13.1506819,616.7172,336.53233)" fill="#343a40"/>
<use data-text="4" xlink:href="#font_1_2229" transform="matrix(13.1506819,0,0,-13.1506819,622.4772,336.53233)" fill="#343a40"/>
<use data-text="0" xlink:href="#font_1_2198" transform="matrix(13.1506819,0,0,-13.1506819,629.53909,336.53233)" fill="#343a40"/>
<use data-text="0" xlink:href="#font_1_2198" transform="matrix(13.1506819,0,0,-13.1506819,637.48208,336.53233)" fill="#343a40"/>
<use data-text="a" xlink:href="#font_1_3037" transform="matrix(13.1506819,0,0,-13.1506819,645.4206,336.53233)" fill="#343a40"/>
<use data-text="h" xlink:href="#font_1_3296" transform="matrix(13.1506819,0,0,-13.1506819,653.57406,336.53233)" fill="#343a40"/>
</svg>
