<svg xmlns="http://www.w3.org/2000/svg" xmlns:xlink="http://www.w3.org/1999/xlink" xmlns:inkscape="http://www.inkscape.org/namespaces/inkscape" version="1.1" width="822.7223" height="337.9095" viewBox="0 0 822.7223 337.9095">
<defs>
<path id="font_1_17" d="M.08999634 0H.17399597V.26011659H.2809906C.4249878 .26011659 .5239868 .32411195 .5239868 .46318055 .5239868 .60723879 .42399598 .65625 .2769928 .65625H.08999634V0M.17399597 .328125V.5882416H.2669983C.38198854 .5882416 .43998719 .55722048 .43998719 .46318055 .43998719 .37013246 .3849945 .328125 .2709961 .328125H.17399597Z"/>
<path id="font_1_45" d="M.08198547 0H.16499329V.31202699C.19799805 .3940277 .24699402 .42303468 .28799439 .42303468 .30699159 .42303468 .31799317 .42103578 .33198548 .41703797L.34999085 .48828126C.33499146 .4950409 .31999208 .49804688 .2979889 .49804688 .24398804 .49804688 .19400025 .4590454 .1599884 .39804078H.15699768L.1499939 .48632813H.08198547V0Z"/>
<path id="font_1_42" d="M.2709961-.01171875C.3899994-.01171875 .49699403 .08125305 .49699403 .24215698 .49699403 .4050598 .3899994 .49804688 .2709961 .49804688 .1519928 .49804688 .04598999 .4050598 .04598999 .24215698 .04598999 .08125305 .1519928-.01171875 .2709961-.01171875M.2709961 .057266237C.18798828 .057266237 .13198853 .13122559 .13198853 .24215698 .13198853 .35409547 .18798828 .42904664 .2709961 .42904664 .35499574 .42904664 .41099549 .35409547 .41099549 .24215698 .41099549 .13122559 .35499574 .057266237 .2709961 .057266237Z"/>
<path id="font_1_47" d="M.23498535-.01171875C.2679901-.01171875 .30099488-.0027313233 .32699586 .009277344L.30999757 .06826782C.2899933 .059280397 .27198792 .056274415 .2539978 .056274415 .19898987 .056274415 .1789856 .090270999 .1789856 .14929199V.41932679H.31098939V.48632813H.1789856V.6423187H.10998535L.099990848 .48632813 .023986817 .48132325V.41932679H.09599304V.1512909C.09599304 .054275514 .1309967-.01171875 .23498535-.01171875Z"/>
<path id="font_1_1279" d="M.040985109 .2191925H.2709961V.28320313H.040985109V.2191925Z"/>
<path id="font_1_2" d="M.20399475 .3662262C.22698975 .43922425 .24798584 .51123049 .2679901 .58724978H.27198792C.29299928 .51123049 .31399537 .43922425 .33799745 .3662262L.36898805 .2672119H.17298889L.20399475 .3662262M.0029907227 0H.08799744L.15098572 .19921875H.3899994L.45199586 0H.54100039L.31999208 .65625H.22399903L.0029907227 0Z"/>
<path id="font_1_28" d="M.19400025-.01171875C.25498963-.01171875 .30799867 .01927185 .35398866 .058273317H.35699464L.36499024 0H.43299867V.2990265C.43299867 .41903688 .38198854 .49804688 .2639923 .49804688 .18598938 .49804688 .117996219 .4650421 .07299805 .43504334L.10499573 .37902833C.14299011 .40403749 .19400025 .42904664 .25 .42904664 .32899476 .42904664 .34899903 .37002564 .34999085 .309021 .14199829 .286026 .051986696 .23402405 .051986696 .12600708 .051986696 .038269044 .11299133-.01171875 .19400025-.01171875M.21699524 .056274415C.16999817 .056274415 .1329956 .07725525 .1329956 .13122559 .1329956 .19418335 .18598938 .23117066 .34999085 .2501526V.11824036C.30299378 .07725525 .2639923 .056274415 .21699524 .056274415Z"/>
<path id="font_1_29" d="M.29699708-.01171875C.4079895-.01171875 .5079956 .085250858 .5079956 .2511444 .5079956 .401062 .43998719 .49804688 .31498719 .49804688 .26098634 .49804688 .20698548 .46903993 .1619873 .43104554L.16499329 .51802065V.71191409H.08198547V0H.147995L.1559906 .05027771H.15899658C.20199585 .011276245 .2519989-.01171875 .29699708-.01171875M.2829895 .058273317C.25099183 .058273317 .20698548 .071258548 .16499329 .10824585V.3620758C.21099854 .40605165 .25299073 .42803956 .2939911 .42803956 .3849945 .42803956 .42199708 .35708619 .42199708 .2501526 .42199708 .13023377 .36299134 .058273317 .2829895 .058273317Z"/>
<path id="font_1_36" d="M.08198547 0H.16499329V.48632813H.08198547V0M.12399292 .5863342C.1559906 .5863342 .1789856 .6073303 .1789856 .6403351 .1789856 .67233279 .1559906 .69433596 .12399292 .69433596 .09199524 .69433596 .068984989 .67233279 .068984989 .6403351 .068984989 .6073303 .09199524 .5863342 .12399292 .5863342Z"/>
<path id="font_1_30" d="M.27398683-.01171875C.33198548-.01171875 .3869934 .010269165 .43099977 .05027771L.394989 .10324097C.3659973 .07725525 .32598878 .057266237 .2809906 .057266237 .19198609 .057266237 .13198853 .13122559 .13198853 .24215698 .13198853 .35409547 .19599915 .42904664 .28399659 .42904664 .32299806 .42904664 .35398866 .41404725 .3809967 .3890686L.42199708 .44104005C.3880005 .47303773 .34399415 .49804688 .27999879 .49804688 .15499878 .49804688 .04598999 .4050598 .04598999 .24215698 .04598999 .08125305 .14498902-.01171875 .27398683-.01171875Z"/>
<path id="font_1_4" d="M.33799745-.01171875C.42199708-.01171875 .48599244 .022277832 .5389862 .08326721L.49299623 .13322449C.45098878 .087265018 .4039917 .06227112 .34098817 .06227112 .21699524 .06227112 .13899231 .16520691 .13899231 .33010865 .13899231 .49301148 .22099304 .5939636 .34399415 .5939636 .3999939 .5939636 .44299317 .5709686 .47799684 .5349884L.5239868 .58695986C.4850006 .6299591 .4229889 .66796877 .34298707 .66796877 .17599488 .66796877 .051986696 .5389862 .051986696 .32810975 .051986696 .11424255 .17399597-.01171875 .33799745-.01171875Z"/>
<path id="font_1_39" d="M.16899109-.01171875C.18998719-.01171875 .20498657-.008728027 .21699524-.0027313233L.20599365 .059265138C.19799805 .057266237 .19400025 .057266237 .18899536 .057266237 .17599488 .057266237 .16499329 .06626892 .16499329 .09225464V.71191409H.08198547V.09825134C.08198547 .028274537 .10699463-.01171875 .16899109-.01171875Z"/>
<path id="font_1_46" d="M.20899964-.01171875C.32398988-.01171875 .3869934 .054275514 .3869934 .13322449 .3869934 .22117615 .31399537 .2541504 .23799134 .28112794 .1769867 .30212403 .1349945 .32011415 .1349945 .36408998 .1349945 .40005494 .1619873 .43403626 .22399903 .43403626 .2669983 .43403626 .3019867 .42004396 .33599855 .3950653L.37399293 .44303895C.33599855 .47503663 .28399659 .49804688 .22299195 .49804688 .116989139 .49804688 .054992677 .43803407 .054992677 .36009217 .054992677 .2801361 .125 .24516297 .19799805 .21917725 .25299073 .19918823 .30699159 .17819214 .30699159 .12823487 .30699159 .086257938 .27598573 .053268434 .21199036 .053268434 .1519928 .053268434 .10798645 .071258548 .06599426 .10624695L.027999878 .058273317C.07299805 .014266968 .13798523-.01171875 .20899964-.01171875Z"/>
<path id="font_1_14" d="M.08898926 0H.1659851V.36210633C.1659851 .4201355 .15899658 .50120547 .1539917 .5582428H.1579895L.20999146 .4051361 .33198548 .065963748H.3929901L.5159912 .4051361 .5669861 .5582428H.57099917C.56599429 .50120547 .5589905 .4201355 .5589905 .36210633V0H.6380005V.65625H.5329895L.40899659 .3050537C.3929901 .2590332 .3809967 .21699524 .3659973 .16796875H.3619995C.34799195 .21699524 .33399964 .2590332 .31799317 .3050537L.19400025 .65625H.08898926V0Z"/>
<path id="font_1_20" d="M.27198792-.01171875C.4099884-.01171875 .49598695 .0712738 .49598695 .17520142 .49598695 .27215577 .43699647 .31811524 .36099244 .35009767L.2669983 .39108277C.21598816 .4120636 .15899658 .43605042 .15899658 .49900819 .15899658 .5569763 .20698548 .5939636 .27999879 .5939636 .33699037 .5939636 .3880005 .5709686 .42799378 .5329895L.47399903 .58895877C.42799378 .634964 .3600006 .66796877 .27999879 .66796877 .16099549 .66796877 .07398987 .5939636 .07398987 .49401856 .07398987 .39707948 .14498902 .35110475 .20599365 .32511903L.30099488 .2831421C.3619995 .25616456 .4099884 .23516846 .4099884 .16821289 .4099884 .10525513 .35899354 .06227112 .272995 .06227112 .20399475 .06227112 .13699341 .09225464 .08898926 .1412201L.041992189 .086257938C.09899902 .025268555 .17799378-.01171875 .27198792-.01171875Z"/>
<path id="font_1_35" d="M.08198547 0H.16499329V.35203553C.21299744 .4010315 .24798584 .42604066 .29699708 .42604066 .36099244 .42604066 .3889923 .388031 .3889923 .2970276V0H.47200013V.30802918C.47200013 .43203736 .42599488 .49804688 .32299806 .49804688 .2559967 .49804688 .20698548 .46203614 .1619873 .4180298L.16499329 .51802065V.71191409H.08198547V0Z"/>
<path id="font_1_32" d="M.27799989-.01171875C.34498597-.01171875 .39698792 .008270264 .43899537 .038269044L.4099884 .09124756C.37599183 .06826782 .33499146 .055267335 .28799439 .055267335 .19599915 .055267335 .1349945 .12123108 .12799073 .22114563H.45498658C.45799256 .2371521 .45899964 .2521515 .45899964 .2701416 .45899964 .41004945 .3880005 .49804688 .2639923 .49804688 .15299988 .49804688 .04598999 .401062 .04598999 .2431488 .04598999 .08226013 .147995-.01171875 .27799989-.01171875M.12799073 .28515626C.13798523 .37808229 .19799805 .43203736 .2659912 .43203736 .33999635 .43203736 .3849945 .381073 .3849945 .28515626H.12799073Z"/>
<path id="font_1_49" d="M.18699646 0H.28399659L.45599366 .48632813H.37399293L.2829895 .21110535C.2679901 .16307068 .2519989 .11402893 .23799134 .066986087H.23399353C.21899414 .11402893 .20399475 .16307068 .18899536 .21110535L.09799194 .48632813H.011993408L.18699646 0Z"/>
<path id="font_1_31" d="M.24798584-.01171875C.30499269-.01171875 .35699464 .02027893 .394989 .057266237H.397995L.40499879 0H.47299195V.71191409H.3899994V.5250244L.3939972 .44203187C.35099793 .47703553 .31399537 .49804688 .2579956 .49804688 .14698792 .49804688 .04699707 .40003968 .04699707 .24201966 .04699707 .08026123 .12599182-.01171875 .24798584-.01171875M.2659912 .058273317C.18099976 .058273317 .1329956 .12722779 .1329956 .2431488 .1329956 .3540802 .19499207 .42803956 .27198792 .42803956 .31199647 .42803956 .34899903 .41503907 .3899994 .37806703V.12423706C.34999085 .08026123 .31098939 .058273317 .2659912 .058273317Z"/>
<path id="font_1_41" d="M.08198547 0H.16499329V.35203553C.21299744 .4010315 .24798584 .42604066 .29699708 .42604066 .36099244 .42604066 .3889923 .388031 .3889923 .2970276V0H.47200013V.30802918C.47200013 .43203736 .42599488 .49804688 .32299806 .49804688 .2559967 .49804688 .20599365 .46203614 .1599884 .41603089H.15699768L.1499939 .48632813H.08198547V0Z"/>
<path id="font_1_23" d="M.20599365 0H.30299378L.5159912 .65625H.42999269L.32099916 .3020935C.2979889 .22505188 .28199769 .16203308 .2579956 .085998538H.2539978C.22999573 .16203308 .21299744 .22505188 .19099427 .3020935L.08898926 .65625H0L.20599365 0Z"/>
<path id="font_1_48" d="M.22399903-.01171875C.29100038-.01171875 .33898927 .023269654 .38398744 .07627869H.3869934L.3939972 0H.46199037V.48632813H.3789978V.14228821C.33399964 .08528137 .29899598 .060272218 .25 .060272218 .18598938 .060272218 .1579895 .09927368 .1579895 .18928528V.48632813H.07499695V.17828369C.07499695 .054275514 .12098694-.01171875 .22399903-.01171875Z"/>
<path id="font_1_33" d="M.09599304 0H.1789856V.41932679H.2809906V.48632813H.1789856V.5620117C.1789856 .62376406 .20098877 .65663149 .24699402 .65663149 .2639923 .65663149 .28199769 .6526489 .30099488 .6466675L.31900025 .70762637C.29899598 .716629 .2679901 .7236328 .23799134 .7236328 .14099121 .7236328 .09599304 .6606293 .09599304 .5620117V.48632813L.02999878 .48132325V.41932679H.09599304V0Z"/>
<path id="font_1_40" d="M.08198547 0H.16499329V.35203553C.20999146 .40203858 .25 .42604066 .28599549 .42604066 .34799195 .42604066 .37599183 .388031 .37599183 .2970276V0H.45899964V.35203553C.5039978 .40203858 .54299929 .42604066 .58099368 .42604066 .6419983 .42604066 .67099 .388031 .67099 .2970276V0H.7539978V.30802918C.7539978 .43203736 .70599368 .49804688 .60598757 .49804688 .5469971 .49804688 .49598695 .46003724 .44599916 .40603639 .42599488 .4630432 .38598634 .49804688 .31098939 .49804688 .25299073 .49804688 .20298767 .46203614 .1599884 .41603089H.15699768L.1499939 .48632813H.08198547V0Z"/>
<path id="font_1_1258" d="M.066986087-.16998291C.14898682-.13697815 .19898987-.068984989 .19898987 .01701355 .19898987 .07801819 .17298889 .11502075 .1289978 .11502075 .09599304 .11502075 .067993167 .09301758 .067993167 .057022096 .067993167 .019012452 .09498596-.0009765625 .1269989-.0009765625 .1309967-.0009765625 .13398743-.0009765625 .13798523 .000015258789 .13798523-.052978517 .10398865-.09698486 .04699707-.12197876L.066986087-.16998291Z"/>
<path id="font_1_1257" d="M.125-.01171875C.1579895-.01171875 .18499756 .014266968 .18499756 .05126953 .18499756 .089279178 .1579895 .11528015 .125 .11528015 .09199524 .11528015 .06498718 .089279178 .06498718 .05126953 .06498718 .014266968 .09199524-.01171875 .125-.01171875Z"/>
<path id="font_1_50" d="M.1599884 0H.2599945L.32499696 .2611847C.33799745 .30522157 .34700013 .3482666 .35598756 .4053192H.3600006C.37098695 .3482666 .37998963 .30622865 .3919983 .2611847L.45799256 0H.5629883L.69400027 .48632813H.61499026L.5439911 .20413208C.5329895 .16007996 .5249939 .11804199 .5149994 .06599426H.5109863C.5009918 .11804199 .48999024 .16007996 .47898866 .20413208L.40499879 .48632813H.31599427L.24299622 .20413208C.23199463 .16007996 .22299195 .11804199 .21299744 .06599426H.20899964C.20098877 .11804199 .19099427 .16007996 .17999268 .20413208L.10899353 .48632813H.023986817L.1599884 0Z"/>
<path id="font_1_8" d="M.34799195-.01171875C.43598939-.01171875 .5079956 .02027893 .5509949 .06427002V.33984376H.33499146V.2708435H.47399903V.10018921C.44799806 .07624817 .40299989 .06227112 .35598756 .06227112 .21598816 .06227112 .13899231 .16505432 .13899231 .32983399 .13899231 .49290467 .22299195 .5939636 .35499574 .5939636 .42099 .5939636 .46299745 .56895449 .49598695 .53492739L.5419922 .58695986C.5039978 .6279602 .44400025 .66796877 .35299684 .66796877 .1789856 .66796877 .051986696 .5389404 .051986696 .32783509 .051986696 .11416626 .1749878-.01171875 .34799195-.01171875Z"/>
<path id="font_1_38" d="M.08198547 0H.1639862V.12808228L.2539978 .2331543 .3959961 0H.48599244L.30299378 .29019166 .46499635 .48632813H.37199403L.16699219 .23214722H.1639862V.71191409H.08198547V0Z"/>
<path id="font_1_6" d="M.08999634 0H.47799684V.070999149H.17399597V.3088684H.42199708V.3798828H.17399597V.5852356H.46798707V.65625H.08999634V0Z"/>
<path id="font_1_34" d="M.24598694-.22363281C.39698792-.22363281 .49198915-.1456604 .49198915-.054763795 .49198915 .025177002 .43499757 .061172487 .32199098 .061172487H.22799683C.16299439 .061172487 .14299011 .08320618 .14299011 .11323547 .14299011 .14027405 .1559906 .15629578 .17399597 .17129517 .19599915 .16029358 .22200012 .15429688 .24598694 .15429688 .34498597 .15429688 .42399598 .21928406 .42399598 .32330323 .42399598 .36431886 .4079895 .40031434 .3849945 .4223175H.48399354V.48632813H.31498719C.29699708 .493042 .272995 .49804688 .24598694 .49804688 .14698792 .49804688 .06298828 .43104554 .06298828 .3251648 .06298828 .26722718 .09399414 .22027588 .12599182 .19429016V.19029236C.100997928 .17329407 .07299805 .14128113 .07299805 .10021973 .07299805 .062179567 .09199524 .03617859 .115997318 .0211792V.017181397C.07199097-.012817383 .04499817-.05177307 .04499817-.09272766 .04499817-.17663574 .1269989-.22363281 .24598694-.22363281M.24598694 .21029663C.18998719 .21029663 .14299011 .25424195 .14299011 .3251648 .14299011 .39608766 .18899536 .43803407 .24598694 .43803407 .30299378 .43803407 .34899903 .39508058 .34899903 .3251648 .34899903 .25424195 .3019867 .21029663 .24598694 .21029663M.2579956-.16563416C.16999817-.16563416 .116989139-.13371277 .116989139-.081832889 .116989139-.053894044 .13198853-.02494812 .16699219 0 .18798828-.0058135988 .21099854-.0078125 .22999573-.0078125H.31298829C.3769989-.0078125 .41099549-.02279663 .41099549-.06774902 .41099549-.117752078 .34999085-.16563416 .2579956-.16563416Z"/>
<path id="font_1_7" d="M.08999634 0H.17399597V.2932434H.42399598V.3642578H.17399597V.5852356H.46798707V.65625H.08999634V0Z"/>
<path id="font_1_52" d="M.09098816-.20898438C.18798828-.20898438 .23899842-.13598633 .272995-.03994751L.45599366 .48632813H.375L.28799439 .21818543C.2749939 .1751709 .26098634 .12513733 .24798584 .08111572H.24398804C.22799683 .12614441 .21199036 .17616272 .19599915 .21818543L.09799194 .48632813H.011993408L.20698548-.00093078616 .19599915-.03694153C.17599488-.096969608 .14099121-.13999939 .08699036-.13999939 .07499695-.13999939 .06298828-.13798523 .050994874-.13398743L.032989503-.19898987C.04899597-.20498657 .067993167-.20898438 .09098816-.20898438Z"/>
<path id="font_1_51" d="M.01399231 0H.100997928L.1659851 .11306763C.18299866 .14208985 .19898987 .17210388 .21499634 .20013428H.21899414C.23699951 .17210388 .25498963 .14208985 .27198792 .11306763L.34298707 0H.43299867L.2749939 .24516297 .42199708 .48632813H.33499146L.27598573 .38024903C.26098634 .3532257 .24699402 .32621766 .23199463 .29919435H.22799683C.21199036 .32621766 .19599915 .3532257 .18099976 .38024903L.115997318 .48632813H.025985718L.17298889 .25416566 .01399231 0Z"/>
<path id="font_1_9" d="M.08999634 0H.17399597V.3078308H.47799684V0H.56199648V.65625H.47799684V.38183595H.17399597V.65625H.08999634V0Z"/>
<path id="font_1_37" d="M.03199768-.21679688C.1289978-.21679688 .1659851-.1538086 .1659851-.05378723V.48632813H.08299255V-.05378723C.08299255-.11279297 .070999149-.14880371 .022994996-.14880371 .0069885256-.14880371-.011001587-.14480591-.023010254-.1408081L-.040008546-.20280457C-.023010254-.21080017 .0029907227-.21679688 .03199768-.21679688M.12298584 .5863342C.15499878 .5863342 .17799378 .6073303 .17799378 .6403351 .17799378 .67233279 .15499878 .69433596 .12298584 .69433596 .09098816 .69433596 .067993167 .67233279 .067993167 .6403351 .067993167 .6073303 .09098816 .5863342 .12298584 .5863342Z"/>
</defs>
<use data-text="P" xlink:href="#font_1_17" transform="matrix(16.271264,0,0,-16.271264,127.73035,266.65293)" fill="#343a40"/>
<use data-text="r" xlink:href="#font_1_45" transform="matrix(16.271264,0,0,-16.271264,136.95615,266.65293)" fill="#343a40"/>
<use data-text="o" xlink:href="#font_1_42" transform="matrix(16.271264,0,0,-16.271264,142.45584,266.65293)" fill="#343a40"/>
<use data-text="t" xlink:href="#font_1_47" transform="matrix(16.271264,0,0,-16.271264,150.99826,266.65293)" fill="#343a40"/>
<use data-text="o" xlink:href="#font_1_42" transform="matrix(16.271264,0,0,-16.271264,156.2864,266.65293)" fill="#343a40"/>
<use data-text="-" xlink:href="#font_1_1279" transform="matrix(16.271264,0,0,-16.271264,165.20307,266.65293)" fill="#343a40"/>
<use data-text="A" xlink:href="#font_1_2" transform="matrix(16.271264,0,0,-16.271264,170.26343,266.65293)" fill="#343a40"/>
<use data-text="r" xlink:href="#font_1_45" transform="matrix(16.271264,0,0,-16.271264,179.11499,266.65293)" fill="#343a40"/>
<use data-text="a" xlink:href="#font_1_28" transform="matrix(16.271264,0,0,-16.271264,184.38687,266.65293)" fill="#343a40"/>
<use data-text="b" xlink:href="#font_1_29" transform="matrix(16.271264,0,0,-16.271264,192.58762,266.65293)" fill="#343a40"/>
<use data-text="i" xlink:href="#font_1_36" transform="matrix(16.271264,0,0,-16.271264,201.60187,266.65293)" fill="#343a40"/>
<use data-text="c" xlink:href="#font_1_30" transform="matrix(16.271264,0,0,-16.271264,205.62088,266.65293)" fill="#343a40"/>
<use data-text="C" xlink:href="#font_1_4" transform="matrix(16.271264,0,0,-16.271264,325.41429,266.65293)" fill="#343a40"/>
<use data-text="l" xlink:href="#font_1_39" transform="matrix(16.271264,0,0,-16.271264,334.70518,266.65293)" fill="#343a40"/>
<use data-text="a" xlink:href="#font_1_28" transform="matrix(16.271264,0,0,-16.271264,338.85435,266.65293)" fill="#343a40"/>
<use data-text="s" xlink:href="#font_1_46" transform="matrix(16.271264,0,0,-16.271264,347.05506,266.65293)" fill="#343a40"/>
<use data-text="s" xlink:href="#font_1_46" transform="matrix(16.271264,0,0,-16.271264,353.8727,266.65293)" fill="#343a40"/>
<use data-text="i" xlink:href="#font_1_36" transform="matrix(16.271264,0,0,-16.271264,360.69038,266.65293)" fill="#343a40"/>
<use data-text="c" xlink:href="#font_1_30" transform="matrix(16.271264,0,0,-16.271264,364.70939,266.65293)" fill="#343a40"/>
<use data-text="a" xlink:href="#font_1_28" transform="matrix(16.271264,0,0,-16.271264,371.96638,266.65293)" fill="#343a40"/>
<use data-text="l" xlink:href="#font_1_39" transform="matrix(16.271264,0,0,-16.271264,380.16706,266.65293)" fill="#343a40"/>
<use data-text="A" xlink:href="#font_1_2" transform="matrix(16.271264,0,0,-16.271264,387.57048,266.65293)" fill="#343a40"/>
<use data-text="r" xlink:href="#font_1_45" transform="matrix(16.271264,0,0,-16.271264,396.42207,266.65293)" fill="#343a40"/>
<use data-text="a" xlink:href="#font_1_28" transform="matrix(16.271264,0,0,-16.271264,401.69395,266.65293)" fill="#343a40"/>
<use data-text="b" xlink:href="#font_1_29" transform="matrix(16.271264,0,0,-16.271264,409.89466,266.65293)" fill="#343a40"/>
<use data-text="i" xlink:href="#font_1_36" transform="matrix(16.271264,0,0,-16.271264,418.90895,266.65293)" fill="#343a40"/>
<use data-text="c" xlink:href="#font_1_30" transform="matrix(16.271264,0,0,-16.271264,422.92796,266.65293)" fill="#343a40"/>
<use data-text="M" xlink:href="#font_1_14" transform="matrix(16.271264,0,0,-16.271264,690.00338,162.90476)" fill="#343a40"/>
<use data-text="S" xlink:href="#font_1_20" transform="matrix(16.271264,0,0,-16.271264,701.8325,162.90476)" fill="#343a40"/>
<use data-text="A" xlink:href="#font_1_2" transform="matrix(16.271264,0,0,-16.271264,710.5214,162.90476)" fill="#343a40"/>
<use data-text="o" xlink:href="#font_1_42" transform="matrix(16.271264,0,0,-16.271264,225.43222,297.7776)" fill="#343a40"/>
<use data-text="t" xlink:href="#font_1_47" transform="matrix(16.271264,0,0,-16.271264,233.97464,297.7776)" fill="#343a40"/>
<use data-text="h" xlink:href="#font_1_35" transform="matrix(16.271264,0,0,-16.271264,239.4906,297.7776)" fill="#343a40"/>
<use data-text="e" xlink:href="#font_1_32" transform="matrix(16.271264,0,0,-16.271264,248.34218,297.7776)" fill="#343a40"/>
<use data-text="r" xlink:href="#font_1_45" transform="matrix(16.271264,0,0,-16.271264,256.41273,297.7776)" fill="#343a40"/>
<use data-text="v" xlink:href="#font_1_49" transform="matrix(16.271264,0,0,-16.271264,265.3294,297.7776)" fill="#343a40"/>
<use data-text="a" xlink:href="#font_1_28" transform="matrix(16.271264,0,0,-16.271264,272.6189,297.7776)" fill="#343a40"/>
<use data-text="r" xlink:href="#font_1_45" transform="matrix(16.271264,0,0,-16.271264,280.81965,297.7776)" fill="#343a40"/>
<use data-text="i" xlink:href="#font_1_36" transform="matrix(16.271264,0,0,-16.271264,286.48207,297.7776)" fill="#343a40"/>
<use data-text="e" xlink:href="#font_1_32" transform="matrix(16.271264,0,0,-16.271264,290.50105,297.7776)" fill="#343a40"/>
<use data-text="t" xlink:href="#font_1_47" transform="matrix(16.271264,0,0,-16.271264,298.40888,297.7776)" fill="#343a40"/>
<use data-text="i" xlink:href="#font_1_36" transform="matrix(16.271264,0,0,-16.271264,303.92488,297.7776)" fill="#343a40"/>
<use data-text="e" xlink:href="#font_1_32" transform="matrix(16.271264,0,0,-16.271264,307.94386,297.7776)" fill="#343a40"/>
<use data-text="s" xlink:href="#font_1_46" transform="matrix(16.271264,0,0,-16.271264,316.0144,297.7776)" fill="#343a40"/>
<use data-text="M" xlink:href="#font_1_14" transform="matrix(16.271264,0,0,-16.271264,664.74386,254.67377)" fill="#343a40"/>
<use data-text="o" xlink:href="#font_1_42" transform="matrix(16.271264,0,0,-16.271264,676.57308,254.67377)" fill="#343a40"/>
<use data-text="d" xlink:href="#font_1_31" transform="matrix(16.271264,0,0,-16.271264,685.3921,254.67377)" fill="#343a40"/>
<use data-text="e" xlink:href="#font_1_32" transform="matrix(16.271264,0,0,-16.271264,694.4226,254.67377)" fill="#343a40"/>
<use data-text="r" xlink:href="#font_1_45" transform="matrix(16.271264,0,0,-16.271264,702.49319,254.67377)" fill="#343a40"/>
<use data-text="n" xlink:href="#font_1_41" transform="matrix(16.271264,0,0,-16.271264,708.1556,254.67377)" fill="#343a40"/>
<use data-text="V" xlink:href="#font_1_23" transform="matrix(16.271264,0,0,-16.271264,722.4743,254.67377)" fill="#343a40"/>
<use data-text="e" xlink:href="#font_1_32" transform="matrix(16.271264,0,0,-16.271264,730.64248,254.67377)" fill="#343a40"/>
<use data-text="r" xlink:href="#font_1_45" transform="matrix(16.271264,0,0,-16.271264,738.71298,254.67377)" fill="#343a40"/>
<use data-text="n" xlink:href="#font_1_41" transform="matrix(16.271264,0,0,-16.271264,744.37539,254.67377)" fill="#343a40"/>
<use data-text="a" xlink:href="#font_1_28" transform="matrix(16.271264,0,0,-16.271264,753.2757,254.67377)" fill="#343a40"/>
<use data-text="c" xlink:href="#font_1_30" transform="matrix(16.271264,0,0,-16.271264,761.47647,254.67377)" fill="#343a40"/>
<use data-text="u" xlink:href="#font_1_48" transform="matrix(16.271264,0,0,-16.271264,768.8961,254.67377)" fill="#343a40"/>
<use data-text="l" xlink:href="#font_1_39" transform="matrix(16.271264,0,0,-16.271264,777.7477,254.67377)" fill="#343a40"/>
<use data-text="a" xlink:href="#font_1_28" transform="matrix(16.271264,0,0,-16.271264,781.89688,254.67377)" fill="#343a40"/>
<use data-text="r" xlink:href="#font_1_45" transform="matrix(16.271264,0,0,-16.271264,790.09756,254.67377)" fill="#343a40"/>
<use data-text="A" xlink:href="#font_1_2" transform="matrix(16.271264,0,0,-16.271264,664.74386,274.63725)" fill="#343a40"/>
<use data-text="r" xlink:href="#font_1_45" transform="matrix(16.271264,0,0,-16.271264,673.5954,274.63725)" fill="#343a40"/>
<use data-text="a" xlink:href="#font_1_28" transform="matrix(16.271264,0,0,-16.271264,678.8673,274.63725)" fill="#343a40"/>
<use data-text="b" xlink:href="#font_1_29" transform="matrix(16.271264,0,0,-16.271264,687.068,274.63725)" fill="#343a40"/>
<use data-text="i" xlink:href="#font_1_36" transform="matrix(16.271264,0,0,-16.271264,696.0823,274.63725)" fill="#343a40"/>
<use data-text="c" xlink:href="#font_1_30" transform="matrix(16.271264,0,0,-16.271264,700.10128,274.63725)" fill="#343a40"/>
<path transform="matrix(1.83,0,0,-1.83,170.38399,259.7337)" stroke-width="8.56798" stroke-linecap="butt" stroke-miterlimit="10" stroke-linejoin="miter" fill="none" stroke="#343a40" d="M26.49684 0H73.12625"/>
<path transform="matrix(1.83,0,0,-1.83,170.38399,259.7337)" stroke-width="6.97394" stroke-linecap="butt" stroke-miterlimit="10" stroke-linejoin="miter" fill="none" stroke="#ffffff" d="M26.49684 0H73.12625"/>
<path transform="matrix(1.83,0,0,-1.83,304.20503,259.7337)" stroke-width=".79701" stroke-linecap="round" stroke-linejoin="round" fill="none" stroke="#343a40" d="M-5.20651 10.29646C-2.68098 4.85683 4.11858 .19427 8.00404 0 4.11858-.19427-2.68098-4.85683-5.20651-10.29646"/>
<use data-text="d" xlink:href="#font_1_31" transform="matrix(12.65542,0,0,-12.65542,248.65493,263.9189)" fill="#343a40"/>
<use data-text="i" xlink:href="#font_1_36" transform="matrix(12.65542,0,0,-12.65542,255.67868,263.9189)" fill="#343a40"/>
<use data-text="a" xlink:href="#font_1_28" transform="matrix(12.65542,0,0,-12.65542,258.80458,263.9189)" fill="#343a40"/>
<use data-text="l" xlink:href="#font_1_39" transform="matrix(12.65542,0,0,-12.65542,265.18293,263.9189)" fill="#343a40"/>
<use data-text="e" xlink:href="#font_1_32" transform="matrix(12.65542,0,0,-12.65542,268.41004,263.9189)" fill="#343a40"/>
<use data-text="c" xlink:href="#font_1_30" transform="matrix(12.65542,0,0,-12.65542,274.68714,263.9189)" fill="#343a40"/>
<use data-text="t" xlink:href="#font_1_47" transform="matrix(12.65542,0,0,-12.65542,280.34413,263.9189)" fill="#343a40"/>
<use data-text="s" xlink:href="#font_1_46" transform="matrix(12.65542,0,0,-12.65542,284.50776,263.9189)" fill="#343a40"/>
<path transform="matrix(1.83,0,0,-1.83,170.38399,259.7337)" stroke-width="8.56798" stroke-linecap="butt" stroke-miterlimit="10" stroke-linejoin="miter" fill="none" stroke="#343a40" d="M145.24571 0H258.55503"/>
<path transform="matrix(1.83,0,0,-1.83,170.38399,259.7337)" stroke-width="6.97394" stroke-linecap="butt" stroke-miterlimit="10" stroke-linejoin="miter" fill="none" stroke="#ffffff" d="M145.24571 0H258.55503"/>
<path transform="matrix(1.83,0,0,-1.83,643.5397,259.7337)" stroke-width=".79701" stroke-linecap="round" stroke-linejoin="round" fill="none" stroke="#343a40" d="M-5.20651 10.29646C-2.68098 4.85683 4.11858 .19427 8.00404 0 4.11858-.19427-2.68098-4.85683-5.20651-10.29646"/>
<use data-text="d" xlink:href="#font_1_31" transform="matrix(12.65542,0,0,-12.65542,526.9741,263.9189)" fill="#343a40"/>
<use data-text="i" xlink:href="#font_1_36" transform="matrix(12.65542,0,0,-12.65542,533.99789,263.9189)" fill="#343a40"/>
<use data-text="a" xlink:href="#font_1_28" transform="matrix(12.65542,0,0,-12.65542,537.1237,263.9189)" fill="#343a40"/>
<use data-text="l" xlink:href="#font_1_39" transform="matrix(12.65542,0,0,-12.65542,543.502,263.9189)" fill="#343a40"/>
<use data-text="e" xlink:href="#font_1_32" transform="matrix(12.65542,0,0,-12.65542,546.7291,263.9189)" fill="#343a40"/>
<use data-text="c" xlink:href="#font_1_30" transform="matrix(12.65542,0,0,-12.65542,553.0063,263.9189)" fill="#343a40"/>
<use data-text="t" xlink:href="#font_1_47" transform="matrix(12.65542,0,0,-12.65542,558.6506,263.9189)" fill="#343a40"/>
<use data-text="s" xlink:href="#font_1_46" transform="matrix(12.65542,0,0,-12.65542,562.8142,263.9189)" fill="#343a40"/>
<path transform="matrix(1.83,0,0,-1.83,170.38399,259.7337)" stroke-width=".79701" stroke-linecap="butt" stroke-miterlimit="10" stroke-linejoin="miter" fill="none" stroke="#343a40" d="M167.59938 56.69362H278.1697"/>
<path transform="matrix(1.83,0,0,-1.83,679.4346,155.98438)" d="M2.59026 0-1.55415 2.0722 0 0-1.55415-2.0722" fill="#343a40"/>
<path transform="matrix(1.83,0,0,-1.83,170.38399,259.7337)" stroke-width=".3985" stroke-linecap="butt" stroke-miterlimit="10" stroke-linejoin="miter" fill="none" stroke="#343a40" d="M81.52881 2.3799C82.37917 4.08069 84.36345 5.21452 87.19809 5.21452H130.01929C132.85393 5.21452 134.83821 6.34836 135.68857 8.04916 136.4053 6.34836 138.07785 5.21452 140.46714 5.21452 142.85643 5.21452 144.52898 4.08069 145.24571 2.3799"/>
<path transform="matrix(1.83,0,0,-1.83,170.38399,259.7337)" stroke-width=".79701" stroke-linecap="butt" stroke-miterlimit="10" stroke-linejoin="miter" fill="none" stroke="#343a40" d="M135.60791 8.04916C137.00395 28.69823 144.50836 42.31032 159.13188 52.9865"/>
<path transform="matrix(1.477963,-1.0790229,-1.0790229,-1.477963,461.59535,162.7684)" d="M2.59026 0-1.55415 2.0722 0 0-1.55415-2.0722" fill="#343a40"/>
<use data-text="S" xlink:href="#font_1_20" transform="matrix(6.4330065,-14.944992,-14.944992,-6.4330065,421.58079,207.02783)"/>
<use data-text="C" xlink:href="#font_1_4" transform="matrix(7.8427488,-14.255741,-14.255741,-7.8427488,425.19688,198.63916)"/>
<use data-text="A" xlink:href="#font_1_2" transform="matrix(9.191149,-13.425744,-13.425744,-9.191149,429.92195,190.12235)"/>
<path transform="matrix(1.83,0,0,-1.83,170.38399,259.7337)" stroke-width=".3985" stroke-linecap="butt" stroke-miterlimit="10" stroke-linejoin="miter" fill="none" stroke="#343a40" d="M0-8.04916C9.25713-14.15858 15.82199-16.34589 24.90472-16.88936"/>
<path transform="matrix(1.8266512,.1092144,.1092144,-1.8266512,215.95963,290.6412)" d="M1.99252 0-1.19551 1.59401 0 0-1.19551-1.59401" fill="#343a40"/>
<path transform="matrix(1.83,0,0,-1.83,170.38399,259.7337)" stroke-width=".3985" stroke-linecap="butt" stroke-dasharray="2.98883,2.98883" stroke-miterlimit="10" stroke-linejoin="miter" fill="none" stroke="#343a40" d="M233.98789 48.64444 283.7219 15.69604"/>
<path transform="matrix(1.525488,1.0106176,1.0106176,-1.525488,689.59506,231.00992)" d="M1.99252 0-1.19551 1.59401 0 0-1.19551-1.59401" fill="#343a40"/>
<path transform="matrix(1.83,0,0,-1.83,170.38399,259.7337)" stroke-width=".3985" stroke-linecap="butt" stroke-dasharray="2.98883,2.98883" stroke-miterlimit="10" stroke-linejoin="miter" fill="none" stroke="#343a40" d="M238.61078 14.5957 279.21009 47.39241"/>
<path transform="matrix(1.4234839,-1.1499171,-1.1499171,-1.4234839,681.3384,173.00562)" d="M1.99252 0-1.19551 1.59401 0 0-1.19551-1.59401" fill="#343a40"/>
<use data-text="c" xlink:href="#font_1_30" transform="matrix(12.65542,0,0,-12.65542,617.7952,211.14722)" fill="#343a40"/>
<use data-text="r" xlink:href="#font_1_45" transform="matrix(12.65542,0,0,-12.65542,623.5661,211.14722)" fill="#343a40"/>
<use data-text="o" xlink:href="#font_1_42" transform="matrix(12.65542,0,0,-12.65542,627.8436,211.14722)" fill="#343a40"/>
<use data-text="s" xlink:href="#font_1_46" transform="matrix(12.65542,0,0,-12.65542,634.70297,211.14722)" fill="#343a40"/>
<use data-text="s" xlink:href="#font_1_46" transform="matrix(12.65542,0,0,-12.65542,640.00558,211.14722)" fill="#343a40"/>
<use data-text="-" xlink:href="#font_1_1279" transform="matrix(12.65542,0,0,-12.65542,645.43478,211.14722)" fill="#343a40"/>
<use data-text="i" xlink:href="#font_1_36" transform="matrix(12.65542,0,0,-12.65542,649.37057,211.14722)" fill="#343a40"/>
<use data-text="n" xlink:href="#font_1_41" transform="matrix(12.65542,0,0,-12.65542,652.49649,211.14722)" fill="#343a40"/>
<use data-text="f" xlink:href="#font_1_33" transform="matrix(12.65542,0,0,-12.65542,659.41897,211.14722)" fill="#343a40"/>
<use data-text="l" xlink:href="#font_1_39" transform="matrix(12.65542,0,0,-12.65542,663.1144,211.14722)" fill="#343a40"/>
<use data-text="u" xlink:href="#font_1_48" transform="matrix(12.65542,0,0,-12.65542,666.3415,211.14722)" fill="#343a40"/>
<use data-text="e" xlink:href="#font_1_32" transform="matrix(12.65542,0,0,-12.65542,673.2261,211.14722)" fill="#343a40"/>
<use data-text="n" xlink:href="#font_1_41" transform="matrix(12.65542,0,0,-12.65542,679.5032,211.14722)" fill="#343a40"/>
<use data-text="c" xlink:href="#font_1_30" transform="matrix(12.65542,0,0,-12.65542,686.4257,211.14722)" fill="#343a40"/>
<use data-text="e" xlink:href="#font_1_32" transform="matrix(12.65542,0,0,-12.65542,691.9308,211.14722)" fill="#343a40"/>
<use data-text="n" xlink:href="#font_1_41" transform="matrix(14.46335,0,0,-14.46335,43.101995,267.438)" fill="#343a40"/>
<use data-text="a" xlink:href="#font_1_28" transform="matrix(14.46335,0,0,-14.46335,51.013448,267.438)" fill="#343a40"/>
<use data-text="t" xlink:href="#font_1_47" transform="matrix(14.46335,0,0,-14.46335,58.100488,267.438)" fill="#343a40"/>
<use data-text="i" xlink:href="#font_1_36" transform="matrix(14.46335,0,0,-14.46335,63.003564,267.438)" fill="#343a40"/>
<use data-text="v" xlink:href="#font_1_49" transform="matrix(14.46335,0,0,-14.46335,66.576007,267.438)" fill="#343a40"/>
<use data-text="e" xlink:href="#font_1_32" transform="matrix(14.46335,0,0,-14.46335,73.287,267.438)" fill="#343a40"/>
<use data-text="A" xlink:href="#font_1_2" transform="matrix(14.46335,0,0,-14.46335,42.437707,287.4033)" fill="#343a40"/>
<use data-text="r" xlink:href="#font_1_45" transform="matrix(14.46335,0,0,-14.46335,50.30577,287.4033)" fill="#343a40"/>
<use data-text="a" xlink:href="#font_1_28" transform="matrix(14.46335,0,0,-14.46335,54.991895,287.4033)" fill="#343a40"/>
<use data-text="b" xlink:href="#font_1_29" transform="matrix(14.46335,0,0,-14.46335,62.28142,287.4033)" fill="#343a40"/>
<use data-text="i" xlink:href="#font_1_36" transform="matrix(14.46335,0,0,-14.46335,70.29411,287.4033)" fill="#343a40"/>
<use data-text="c" xlink:href="#font_1_30" transform="matrix(14.46335,0,0,-14.46335,73.86656,287.4033)" fill="#343a40"/>
<use data-text="n" xlink:href="#font_1_41" transform="matrix(14.46335,0,0,-14.46335,20.785149,142.94129)" fill="#343a40"/>
<use data-text="o" xlink:href="#font_1_42" transform="matrix(14.46335,0,0,-14.46335,28.6966,142.94129)" fill="#343a40"/>
<use data-text="n" xlink:href="#font_1_41" transform="matrix(14.46335,0,0,-14.46335,36.53574,142.94129)" fill="#343a40"/>
<use data-text="-" xlink:href="#font_1_1279" transform="matrix(14.46335,0,0,-14.46335,44.447195,142.94129)" fill="#343a40"/>
<use data-text="n" xlink:href="#font_1_41" transform="matrix(14.46335,0,0,-14.46335,48.945295,142.94129)" fill="#343a40"/>
<use data-text="a" xlink:href="#font_1_28" transform="matrix(14.46335,0,0,-14.46335,56.856748,142.94129)" fill="#343a40"/>
<use data-text="t" xlink:href="#font_1_47" transform="matrix(14.46335,0,0,-14.46335,63.943788,142.94129)" fill="#343a40"/>
<use data-text="i" xlink:href="#font_1_36" transform="matrix(14.46335,0,0,-14.46335,68.84686,142.94129)" fill="#343a40"/>
<use data-text="v" xlink:href="#font_1_49" transform="matrix(14.46335,0,0,-14.46335,72.41931,142.94129)" fill="#343a40"/>
<use data-text="e" xlink:href="#font_1_32" transform="matrix(14.46335,0,0,-14.46335,79.13031,142.94129)" fill="#343a40"/>
<use data-text="f" xlink:href="#font_1_33" transform="matrix(14.46335,0,0,-14.46335,5.468048,162.90476)" fill="#343a40"/>
<use data-text="o" xlink:href="#font_1_42" transform="matrix(14.46335,0,0,-14.46335,9.561176,162.90476)" fill="#343a40"/>
<use data-text="r" xlink:href="#font_1_45" transform="matrix(14.46335,0,0,-14.46335,17.400315,162.90476)" fill="#343a40"/>
<use data-text="m" xlink:href="#font_1_40" transform="matrix(14.46335,0,0,-14.46335,22.433562,162.90476)" fill="#343a40"/>
<use data-text="a" xlink:href="#font_1_28" transform="matrix(14.46335,0,0,-14.46335,34.42368,162.90476)" fill="#343a40"/>
<use data-text="l" xlink:href="#font_1_39" transform="matrix(14.46335,0,0,-14.46335,41.713209,162.90476)" fill="#343a40"/>
<use data-text="A" xlink:href="#font_1_2" transform="matrix(14.46335,0,0,-14.46335,48.279569,162.90476)" fill="#343a40"/>
<use data-text="r" xlink:href="#font_1_45" transform="matrix(14.46335,0,0,-14.46335,56.147634,162.90476)" fill="#343a40"/>
<use data-text="a" xlink:href="#font_1_28" transform="matrix(14.46335,0,0,-14.46335,60.84822,162.90476)" fill="#343a40"/>
<use data-text="b" xlink:href="#font_1_29" transform="matrix(14.46335,0,0,-14.46335,68.13775,162.90476)" fill="#343a40"/>
<use data-text="i" xlink:href="#font_1_36" transform="matrix(14.46335,0,0,-14.46335,76.150447,162.90476)" fill="#343a40"/>
<use data-text="c" xlink:href="#font_1_30" transform="matrix(14.46335,0,0,-14.46335,79.722888,162.90476)" fill="#343a40"/>
<use data-text="A" xlink:href="#font_1_2" transform="matrix(14.46335,0,0,-14.46335,105.84171,59.156557)" fill="#343a40"/>
<use data-text="r" xlink:href="#font_1_45" transform="matrix(14.46335,0,0,-14.46335,113.70978,59.156557)" fill="#343a40"/>
<use data-text="a" xlink:href="#font_1_28" transform="matrix(14.46335,0,0,-14.46335,118.395908,59.156557)" fill="#343a40"/>
<use data-text="m" xlink:href="#font_1_40" transform="matrix(14.46335,0,0,-14.46335,125.685428,59.156557)" fill="#343a40"/>
<use data-text="a" xlink:href="#font_1_28" transform="matrix(14.46335,0,0,-14.46335,137.67554,59.156557)" fill="#343a40"/>
<use data-text="i" xlink:href="#font_1_36" transform="matrix(14.46335,0,0,-14.46335,144.96508,59.156557)" fill="#343a40"/>
<use data-text="c" xlink:href="#font_1_30" transform="matrix(14.46335,0,0,-14.46335,148.5375,59.156557)" fill="#343a40"/>
<use data-text="," xlink:href="#font_1_1258" transform="matrix(14.46335,0,0,-14.46335,155.1328,59.156557)" fill="#343a40"/>
<use data-text="P" xlink:href="#font_1_17" transform="matrix(14.46335,0,0,-14.46335,161.64131,59.156557)" fill="#343a40"/>
<use data-text="e" xlink:href="#font_1_32" transform="matrix(14.46335,0,0,-14.46335,169.49492,59.156557)" fill="#343a40"/>
<use data-text="r" xlink:href="#font_1_45" transform="matrix(14.46335,0,0,-14.46335,176.66873,59.156557)" fill="#343a40"/>
<use data-text="s" xlink:href="#font_1_46" transform="matrix(14.46335,0,0,-14.46335,181.64412,59.156557)" fill="#343a40"/>
<use data-text="i" xlink:href="#font_1_36" transform="matrix(14.46335,0,0,-14.46335,187.70427,59.156557)" fill="#343a40"/>
<use data-text="a" xlink:href="#font_1_28" transform="matrix(14.46335,0,0,-14.46335,191.2767,59.156557)" fill="#343a40"/>
<use data-text="n" xlink:href="#font_1_41" transform="matrix(14.46335,0,0,-14.46335,198.56623,59.156557)" fill="#343a40"/>
<use data-text="," xlink:href="#font_1_1258" transform="matrix(14.46335,0,0,-14.46335,206.47768,59.156557)" fill="#343a40"/>
<use data-text="e" xlink:href="#font_1_32" transform="matrix(14.46335,0,0,-14.46335,212.98619,59.156557)" fill="#343a40"/>
<use data-text="t" xlink:href="#font_1_47" transform="matrix(14.46335,0,0,-14.46335,220.01538,59.156557)" fill="#343a40"/>
<use data-text="c" xlink:href="#font_1_30" transform="matrix(14.46335,0,0,-14.46335,224.71598,59.156557)" fill="#343a40"/>
<use data-text="." xlink:href="#font_1_1257" transform="matrix(14.46335,0,0,-14.46335,231.31125,59.156557)" fill="#343a40"/>
<path transform="matrix(1.83,0,0,-1.83,170.38399,259.7337)" stroke-width=".3985" stroke-linecap="butt" stroke-dasharray="2.98883,2.98883" stroke-miterlimit="10" stroke-linejoin="miter" fill="none" stroke="#343a40" d="M6.22134 105.33809 80.30925 9.62473"/>
<path transform="matrix(1.1201063,1.4470543,1.4470543,-1.1201063,317.34986,242.12046)" d="M1.99252 0-1.19551 1.59401 0 0-1.19551-1.59401" fill="#343a40"/>
<use data-text="l" xlink:href="#font_1_39" transform="matrix(7.746129,10.007148,10.007148,-7.746129,236.99782,130.87059)"/>
<use data-text="o" xlink:href="#font_1_42" transform="matrix(7.746129,10.007148,10.007148,-7.746129,238.97238,133.4216)"/>
<use data-text="a" xlink:href="#font_1_28" transform="matrix(7.746129,10.007148,10.007148,-7.746129,243.17041,138.84574)"/>
<use data-text="n" xlink:href="#font_1_41" transform="matrix(7.746129,10.007148,10.007148,-7.746129,247.07379,143.8892)"/>
<use data-text="w" xlink:href="#font_1_50" transform="matrix(7.746129,10.007148,10.007148,-7.746129,251.31208,149.36273)"/>
<use data-text="o" xlink:href="#font_1_42" transform="matrix(7.746129,10.007148,10.007148,-7.746129,256.87345,156.54917)"/>
<use data-text="r" xlink:href="#font_1_45" transform="matrix(7.746129,10.007148,10.007148,-7.746129,261.07148,161.97144)"/>
<use data-text="d" xlink:href="#font_1_31" transform="matrix(7.746129,10.007148,10.007148,-7.746129,263.76707,165.45392)"/>
<use data-text="s" xlink:href="#font_1_46" transform="matrix(7.746129,10.007148,10.007148,-7.746129,268.06575,171.00798)"/>
<use data-text="P" xlink:href="#font_1_17" transform="matrix(14.46335,0,0,-14.46335,320.2299,59.156557)" fill="#343a40"/>
<use data-text="e" xlink:href="#font_1_32" transform="matrix(14.46335,0,0,-14.46335,328.08348,59.156557)" fill="#343a40"/>
<use data-text="r" xlink:href="#font_1_45" transform="matrix(14.46335,0,0,-14.46335,335.2573,59.156557)" fill="#343a40"/>
<use data-text="s" xlink:href="#font_1_46" transform="matrix(14.46335,0,0,-14.46335,340.2327,59.156557)" fill="#343a40"/>
<use data-text="i" xlink:href="#font_1_36" transform="matrix(14.46335,0,0,-14.46335,346.29283,59.156557)" fill="#343a40"/>
<use data-text="a" xlink:href="#font_1_28" transform="matrix(14.46335,0,0,-14.46335,349.8653,59.156557)" fill="#343a40"/>
<use data-text="n" xlink:href="#font_1_41" transform="matrix(14.46335,0,0,-14.46335,357.15483,59.156557)" fill="#343a40"/>
<use data-text="," xlink:href="#font_1_1258" transform="matrix(14.46335,0,0,-14.46335,365.06629,59.156557)" fill="#343a40"/>
<use data-text="G" xlink:href="#font_1_8" transform="matrix(14.46335,0,0,-14.46335,371.57478,59.156557)" fill="#343a40"/>
<use data-text="r" xlink:href="#font_1_45" transform="matrix(14.46335,0,0,-14.46335,380.49864,59.156557)" fill="#343a40"/>
<use data-text="e" xlink:href="#font_1_32" transform="matrix(14.46335,0,0,-14.46335,385.38725,59.156557)" fill="#343a40"/>
<use data-text="e" xlink:href="#font_1_32" transform="matrix(14.46335,0,0,-14.46335,392.56108,59.156557)" fill="#343a40"/>
<use data-text="k" xlink:href="#font_1_38" transform="matrix(14.46335,0,0,-14.46335,399.7349,59.156557)" fill="#343a40"/>
<use data-text="," xlink:href="#font_1_1258" transform="matrix(14.46335,0,0,-14.46335,407.08229,59.156557)" fill="#343a40"/>
<use data-text="e" xlink:href="#font_1_32" transform="matrix(14.46335,0,0,-14.46335,413.59077,59.156557)" fill="#343a40"/>
<use data-text="t" xlink:href="#font_1_47" transform="matrix(14.46335,0,0,-14.46335,420.61994,59.156557)" fill="#343a40"/>
<use data-text="c" xlink:href="#font_1_30" transform="matrix(14.46335,0,0,-14.46335,425.32054,59.156557)" fill="#343a40"/>
<use data-text="." xlink:href="#font_1_1257" transform="matrix(14.46335,0,0,-14.46335,431.91584,59.156557)" fill="#343a40"/>
<path transform="matrix(1.83,0,0,-1.83,170.38399,259.7337)" stroke-width=".3985" stroke-linecap="butt" stroke-dasharray="2.98883,2.98883" stroke-miterlimit="10" stroke-linejoin="miter" fill="none" stroke="#343a40" d="M123.64621 105.33809 173.8296 65.97253"/>
<path transform="matrix(1.439789,1.1294577,1.1294577,-1.439789,488.4922,139.00394)" d="M1.99252 0-1.19551 1.59401 0 0-1.19551-1.59401" fill="#343a40"/>
<use data-text="l" xlink:href="#font_1_39" transform="matrix(9.956904,7.810799,7.810799,-9.956904,424.71009,83.18262)"/>
<use data-text="o" xlink:href="#font_1_42" transform="matrix(9.956904,7.810799,7.810799,-9.956904,427.2483,85.17366)"/>
<use data-text="a" xlink:href="#font_1_28" transform="matrix(9.956904,7.810799,7.810799,-9.956904,432.64497,89.40828)"/>
<use data-text="n" xlink:href="#font_1_41" transform="matrix(9.956904,7.810799,7.810799,-9.956904,437.66285,93.34462)"/>
<use data-text="w" xlink:href="#font_1_50" transform="matrix(9.956904,7.810799,7.810799,-9.956904,443.1089,97.61766)"/>
<use data-text="o" xlink:href="#font_1_42" transform="matrix(9.956904,7.810799,7.810799,-9.956904,450.25874,103.22478)"/>
<use data-text="r" xlink:href="#font_1_45" transform="matrix(9.956904,7.810799,7.810799,-9.956904,455.6554,107.457569)"/>
<use data-text="d" xlink:href="#font_1_31" transform="matrix(9.956904,7.810799,7.810799,-9.956904,459.11958,110.176959)"/>
<use data-text="s" xlink:href="#font_1_46" transform="matrix(9.956904,7.810799,7.810799,-9.956904,464.64619,114.51222)"/>
<use data-text="E" xlink:href="#font_1_6" transform="matrix(14.46335,0,0,-14.46335,525.232,59.156557)" fill="#343a40"/>
<use data-text="n" xlink:href="#font_1_41" transform="matrix(14.46335,0,0,-14.46335,532.8542,59.156557)" fill="#343a40"/>
<use data-text="g" xlink:href="#font_1_34" transform="matrix(14.46335,0,0,-14.46335,540.7657,59.156557)" fill="#343a40"/>
<use data-text="l" xlink:href="#font_1_39" transform="matrix(14.46335,0,0,-14.46335,548.06967,59.156557)" fill="#343a40"/>
<use data-text="i" xlink:href="#font_1_36" transform="matrix(14.46335,0,0,-14.46335,551.7578,59.156557)" fill="#343a40"/>
<use data-text="s" xlink:href="#font_1_46" transform="matrix(14.46335,0,0,-14.46335,555.33029,59.156557)" fill="#343a40"/>
<use data-text="h" xlink:href="#font_1_35" transform="matrix(14.46335,0,0,-14.46335,561.3904,59.156557)" fill="#343a40"/>
<use data-text="," xlink:href="#font_1_1258" transform="matrix(14.46335,0,0,-14.46335,569.2585,59.156557)" fill="#343a40"/>
<use data-text="F" xlink:href="#font_1_7" transform="matrix(14.46335,0,0,-14.46335,575.7525,59.156557)" fill="#343a40"/>
<use data-text="r" xlink:href="#font_1_45" transform="matrix(14.46335,0,0,-14.46335,582.637,59.156557)" fill="#343a40"/>
<use data-text="e" xlink:href="#font_1_32" transform="matrix(14.46335,0,0,-14.46335,587.52566,59.156557)" fill="#343a40"/>
<use data-text="n" xlink:href="#font_1_41" transform="matrix(14.46335,0,0,-14.46335,594.69949,59.156557)" fill="#343a40"/>
<use data-text="c" xlink:href="#font_1_30" transform="matrix(14.46335,0,0,-14.46335,602.61099,59.156557)" fill="#343a40"/>
<use data-text="h" xlink:href="#font_1_35" transform="matrix(14.46335,0,0,-14.46335,609.20626,59.156557)" fill="#343a40"/>
<use data-text="," xlink:href="#font_1_1258" transform="matrix(14.46335,0,0,-14.46335,617.07437,59.156557)" fill="#343a40"/>
<use data-text="e" xlink:href="#font_1_32" transform="matrix(14.46335,0,0,-14.46335,623.56838,59.156557)" fill="#343a40"/>
<use data-text="t" xlink:href="#font_1_47" transform="matrix(14.46335,0,0,-14.46335,630.612,59.156557)" fill="#343a40"/>
<use data-text="c" xlink:href="#font_1_30" transform="matrix(14.46335,0,0,-14.46335,635.3126,59.156557)" fill="#343a40"/>
<use data-text="." xlink:href="#font_1_1257" transform="matrix(14.46335,0,0,-14.46335,641.9079,59.156557)" fill="#343a40"/>
<path transform="matrix(1.83,0,0,-1.83,170.38399,259.7337)" stroke-width=".3985" stroke-linecap="butt" stroke-dasharray="2.98883,2.98883" stroke-miterlimit="10" stroke-linejoin="miter" fill="none" stroke="#343a40" d="M235.70594 105.33809 279.27976 66.07652"/>
<path transform="matrix(1.3594887,1.2249471,1.2249471,-1.3594887,681.46597,138.81363)" d="M1.99252 0-1.19551 1.59401 0 0-1.19551-1.59401" fill="#343a40"/>
<use data-text="l" xlink:href="#font_1_39" transform="matrix(9.401586,8.471159,8.471159,-9.401586,610.23367,68.50418)"/>
<use data-text="o" xlink:href="#font_1_42" transform="matrix(9.401586,8.471159,8.471159,-9.401586,612.6309,70.66359)"/>
<use data-text="a" xlink:href="#font_1_28" transform="matrix(9.401586,8.471159,8.471159,-9.401586,617.7275,75.255069)"/>
<use data-text="n" xlink:href="#font_1_41" transform="matrix(9.401586,8.471159,8.471159,-9.401586,622.4654,79.524448)"/>
<use data-text="w" xlink:href="#font_1_50" transform="matrix(9.401586,8.471159,8.471159,-9.401586,627.60769,84.158008)"/>
<use data-text="o" xlink:href="#font_1_42" transform="matrix(9.401586,8.471159,8.471159,-9.401586,634.3585,90.24092)"/>
<use data-text="r" xlink:href="#font_1_45" transform="matrix(9.401586,8.471159,8.471159,-9.401586,639.4551,94.8324)"/>
<use data-text="d" xlink:href="#font_1_31" transform="matrix(9.401586,8.471159,8.471159,-9.401586,642.7271,97.78053)"/>
<use data-text="s" xlink:href="#font_1_46" transform="matrix(9.401586,8.471159,8.471159,-9.401586,647.94448,102.4818)"/>
<use data-text="," xlink:href="#font_1_1258" transform="matrix(9.401586,8.471159,8.471159,-9.401586,651.8826,106.03018)"/>
<use data-text="s" xlink:href="#font_1_46" transform="matrix(9.401586,8.471159,8.471159,-9.401586,656.1136,109.84207)"/>
<use data-text="y" xlink:href="#font_1_52" transform="matrix(9.401586,8.471159,8.471159,-9.401586,660.0536,113.39226)"/>
<use data-text="n" xlink:href="#font_1_41" transform="matrix(9.401586,8.471159,8.471159,-9.401586,664.4529,117.35603)"/>
<use data-text="t" xlink:href="#font_1_47" transform="matrix(9.401586,8.471159,8.471159,-9.401586,669.5952,121.98961)"/>
<use data-text="a" xlink:href="#font_1_28" transform="matrix(9.401586,8.471159,8.471159,-9.401586,672.7831,124.8627)"/>
<use data-text="x" xlink:href="#font_1_51" transform="matrix(9.401586,8.471159,8.471159,-9.401586,677.52096,129.1321)"/>
<use data-text="f" xlink:href="#font_1_33" transform="matrix(14.46335,0,0,-14.46335,33.961149,39.193086)" fill="#343a40"/>
<use data-text="o" xlink:href="#font_1_42" transform="matrix(14.46335,0,0,-14.46335,38.03981,39.193086)" fill="#343a40"/>
<use data-text="r" xlink:href="#font_1_45" transform="matrix(14.46335,0,0,-14.46335,45.87895,39.193086)" fill="#343a40"/>
<use data-text="e" xlink:href="#font_1_32" transform="matrix(14.46335,0,0,-14.46335,50.767564,39.193086)" fill="#343a40"/>
<use data-text="i" xlink:href="#font_1_36" transform="matrix(14.46335,0,0,-14.46335,57.941389,39.193086)" fill="#343a40"/>
<use data-text="g" xlink:href="#font_1_34" transform="matrix(14.46335,0,0,-14.46335,61.513833,39.193086)" fill="#343a40"/>
<use data-text="n" xlink:href="#font_1_41" transform="matrix(14.46335,0,0,-14.46335,68.817829,39.193086)" fill="#343a40"/>
<use data-text="l" xlink:href="#font_1_39" transform="matrix(14.46335,0,0,-14.46335,15.044434,59.156557)" fill="#343a40"/>
<use data-text="a" xlink:href="#font_1_28" transform="matrix(14.46335,0,0,-14.46335,18.73259,59.156557)" fill="#343a40"/>
<use data-text="n" xlink:href="#font_1_41" transform="matrix(14.46335,0,0,-14.46335,26.022118,59.156557)" fill="#343a40"/>
<use data-text="g" xlink:href="#font_1_34" transform="matrix(14.46335,0,0,-14.46335,33.93357,59.156557)" fill="#343a40"/>
<use data-text="u" xlink:href="#font_1_48" transform="matrix(14.46335,0,0,-14.46335,41.237565,59.156557)" fill="#343a40"/>
<use data-text="a" xlink:href="#font_1_28" transform="matrix(14.46335,0,0,-14.46335,49.10563,59.156557)" fill="#343a40"/>
<use data-text="g" xlink:href="#font_1_34" transform="matrix(14.46335,0,0,-14.46335,56.395158,59.156557)" fill="#343a40"/>
<use data-text="e" xlink:href="#font_1_32" transform="matrix(14.46335,0,0,-14.46335,63.49666,59.156557)" fill="#343a40"/>
<use data-text="s" xlink:href="#font_1_46" transform="matrix(14.46335,0,0,-14.46335,70.67047,59.156557)" fill="#343a40"/>
<path transform="matrix(1.83,0,0,-1.83,170.38399,259.7337)" stroke-width=".3985" stroke-linecap="butt" stroke-miterlimit="10" stroke-linejoin="miter" fill="none" stroke="#343a40" d="M-85.04042-28.3468H309.82237"/>
<path transform="matrix(1.83,0,0,-1.83,737.3589,311.60835)" d="M1.99252 0-1.19551 1.59401 0 0-1.19551-1.59401" fill="#343a40"/>
<path transform="matrix(1.83,0,0,-1.83,170.38399,259.7337)" stroke-width=".3985" stroke-linecap="butt" stroke-miterlimit="10" stroke-linejoin="miter" fill="none" stroke="#343a40" d="M-42.5202-42.5202V139.74152"/>
<path transform="matrix(0,-1.83,-1.83,-0,92.57202,4.006729)" d="M1.99252 0-1.19551 1.59401 0 0-1.19551-1.59401" fill="#343a40"/>
<use data-text="t" xlink:href="#font_1_47" transform="matrix(14.46335,0,0,-14.46335,348.2527,326.30729)" fill="#343a40"/>
<use data-text="h" xlink:href="#font_1_35" transform="matrix(14.46335,0,0,-14.46335,353.15574,326.30729)" fill="#343a40"/>
<use data-text="e" xlink:href="#font_1_32" transform="matrix(14.46335,0,0,-14.46335,361.0238,326.30729)" fill="#343a40"/>
<use data-text="H" xlink:href="#font_1_9" transform="matrix(14.46335,0,0,-14.46335,371.09028,326.30729)" fill="#343a40"/>
<use data-text="i" xlink:href="#font_1_36" transform="matrix(14.46335,0,0,-14.46335,380.5204,326.30729)" fill="#343a40"/>
<use data-text="j" xlink:href="#font_1_37" transform="matrix(14.46335,0,0,-14.46335,384.09284,326.30729)" fill="#343a40"/>
<use data-text="r" xlink:href="#font_1_45" transform="matrix(14.46335,0,0,-14.46335,387.6653,326.30729)" fill="#343a40"/>
<use data-text="a" xlink:href="#font_1_28" transform="matrix(14.46335,0,0,-14.46335,392.35145,326.30729)" fill="#343a40"/>
<use data-text="h" xlink:href="#font_1_35" transform="matrix(14.46335,0,0,-14.46335,399.64097,326.30729)" fill="#343a40"/>
<use data-text="m" xlink:href="#font_1_40" transform="matrix(14.46335,0,0,-14.46335,668.2099,326.30729)" fill="#343a40"/>
<use data-text="o" xlink:href="#font_1_42" transform="matrix(14.46335,0,0,-14.46335,680.19998,326.30729)" fill="#343a40"/>
<use data-text="d" xlink:href="#font_1_31" transform="matrix(14.46335,0,0,-14.46335,688.0391,326.30729)" fill="#343a40"/>
<use data-text="e" xlink:href="#font_1_32" transform="matrix(14.46335,0,0,-14.46335,696.0663,326.30729)" fill="#343a40"/>
<use data-text="r" xlink:href="#font_1_45" transform="matrix(14.46335,0,0,-14.46335,703.2401,326.30729)" fill="#343a40"/>
<use data-text="n" xlink:href="#font_1_41" transform="matrix(14.46335,0,0,-14.46335,708.2734,326.30729)" fill="#343a40"/>
<use data-text="d" xlink:href="#font_1_31" transform="matrix(14.46335,0,0,-14.46335,719.0775,326.30729)" fill="#343a40"/>
<use data-text="a" xlink:href="#font_1_28" transform="matrix(14.46335,0,0,-14.46335,727.1046,326.30729)" fill="#343a40"/>
<use data-text="y" xlink:href="#font_1_52" transform="matrix(14.46335,0,0,-14.46335,734.3941,326.30729)" fill="#343a40"/>
</svg>
