<svg xmlns="http://www.w3.org/2000/svg" xmlns:xlink="http://www.w3.org/1999/xlink" xmlns:inkscape="http://www.inkscape.org/namespaces/inkscape" version="1.1" width="724.1603" height="337.9095" viewBox="0 0 724.1603 337.9095">
<defs>
<path id="font_1_17" d="M.08999634 0H.17399597V.26011659H.2809906C.4249878 .26011659 .5239868 .32411195 .5239868 .46318055 .5239868 .60723879 .42399598 .65625 .2769928 .65625H.08999634V0M.17399597 .328125V.5882416H.2669983C.38198854 .5882416 .43998719 .55722048 .43998719 .46318055 .43998719 .37013246 .3849945 .328125 .2709961 .328125H.17399597Z"/>
<path id="font_1_45" d="M.08198547 0H.16499329V.31202699C.19799805 .3940277 .24699402 .42303468 .28799439 .42303468 .30699159 .42303468 .31799317 .42103578 .33198548 .41703797L.34999085 .48828126C.33499146 .4950409 .31999208 .49804688 .2979889 .49804688 .24398804 .49804688 .19400025 .4590454 .1599884 .39804078H.15699768L.1499939 .48632813H.08198547V0Z"/>
<path id="font_1_42" d="M.2709961-.01171875C.3899994-.01171875 .49699403 .08125305 .49699403 .24215698 .49699403 .4050598 .3899994 .49804688 .2709961 .49804688 .1519928 .49804688 .04598999 .4050598 .04598999 .24215698 .04598999 .08125305 .1519928-.01171875 .2709961-.01171875M.2709961 .057266237C.18798828 .057266237 .13198853 .13122559 .13198853 .24215698 .13198853 .35409547 .18798828 .42904664 .2709961 .42904664 .35499574 .42904664 .41099549 .35409547 .41099549 .24215698 .41099549 .13122559 .35499574 .057266237 .2709961 .057266237Z"/>
<path id="font_1_47" d="M.23498535-.01171875C.2679901-.01171875 .30099488-.0027313233 .32699586 .009277344L.30999757 .06826782C.2899933 .059280397 .27198792 .056274415 .2539978 .056274415 .19898987 .056274415 .1789856 .090270999 .1789856 .14929199V.41932679H.31098939V.48632813H.1789856V.6423187H.10998535L.099990848 .48632813 .023986817 .48132325V.41932679H.09599304V.1512909C.09599304 .054275514 .1309967-.01171875 .23498535-.01171875Z"/>
<path id="font_1_1279" d="M.040985109 .2191925H.2709961V.28320313H.040985109V.2191925Z"/>
<path id="font_1_2" d="M.20399475 .3662262C.22698975 .43922425 .24798584 .51123049 .2679901 .58724978H.27198792C.29299928 .51123049 .31399537 .43922425 .33799745 .3662262L.36898805 .2672119H.17298889L.20399475 .3662262M.0029907227 0H.08799744L.15098572 .19921875H.3899994L.45199586 0H.54100039L.31999208 .65625H.22399903L.0029907227 0Z"/>
<path id="font_1_28" d="M.19400025-.01171875C.25498963-.01171875 .30799867 .01927185 .35398866 .058273317H.35699464L.36499024 0H.43299867V.2990265C.43299867 .41903688 .38198854 .49804688 .2639923 .49804688 .18598938 .49804688 .117996219 .4650421 .07299805 .43504334L.10499573 .37902833C.14299011 .40403749 .19400025 .42904664 .25 .42904664 .32899476 .42904664 .34899903 .37002564 .34999085 .309021 .14199829 .286026 .051986696 .23402405 .051986696 .12600708 .051986696 .038269044 .11299133-.01171875 .19400025-.01171875M.21699524 .056274415C.16999817 .056274415 .1329956 .07725525 .1329956 .13122559 .1329956 .19418335 .18598938 .23117066 .34999085 .2501526V.11824036C.30299378 .07725525 .2639923 .056274415 .21699524 .056274415Z"/>
<path id="font_1_29" d="M.29699708-.01171875C.4079895-.01171875 .5079956 .085250858 .5079956 .2511444 .5079956 .401062 .43998719 .49804688 .31498719 .49804688 .26098634 .49804688 .20698548 .46903993 .1619873 .43104554L.16499329 .51802065V.71191409H.08198547V0H.147995L.1559906 .05027771H.15899658C.20199585 .011276245 .2519989-.01171875 .29699708-.01171875M.2829895 .058273317C.25099183 .058273317 .20698548 .071258548 .16499329 .10824585V.3620758C.21099854 .40605165 .25299073 .42803956 .2939911 .42803956 .3849945 .42803956 .42199708 .35708619 .42199708 .2501526 .42199708 .13023377 .36299134 .058273317 .2829895 .058273317Z"/>
<path id="font_1_36" d="M.08198547 0H.16499329V.48632813H.08198547V0M.12399292 .5863342C.1559906 .5863342 .1789856 .6073303 .1789856 .6403351 .1789856 .67233279 .1559906 .69433596 .12399292 .69433596 .09199524 .69433596 .068984989 .67233279 .068984989 .6403351 .068984989 .6073303 .09199524 .5863342 .12399292 .5863342Z"/>
<path id="font_1_30" d="M.27398683-.01171875C.33198548-.01171875 .3869934 .010269165 .43099977 .05027771L.394989 .10324097C.3659973 .07725525 .32598878 .057266237 .2809906 .057266237 .19198609 .057266237 .13198853 .13122559 .13198853 .24215698 .13198853 .35409547 .19599915 .42904664 .28399659 .42904664 .32299806 .42904664 .35398866 .41404725 .3809967 .3890686L.42199708 .44104005C.3880005 .47303773 .34399415 .49804688 .27999879 .49804688 .15499878 .49804688 .04598999 .4050598 .04598999 .24215698 .04598999 .08125305 .14498902-.01171875 .27398683-.01171875Z"/>
<path id="font_1_4" d="M.33799745-.01171875C.42199708-.01171875 .48599244 .022277832 .5389862 .08326721L.49299623 .13322449C.45098878 .087265018 .4039917 .06227112 .34098817 .06227112 .21699524 .06227112 .13899231 .16520691 .13899231 .33010865 .13899231 .49301148 .22099304 .5939636 .34399415 .5939636 .3999939 .5939636 .44299317 .5709686 .47799684 .5349884L.5239868 .58695986C.4850006 .6299591 .4229889 .66796877 .34298707 .66796877 .17599488 .66796877 .051986696 .5389862 .051986696 .32810975 .051986696 .11424255 .17399597-.01171875 .33799745-.01171875Z"/>
<path id="font_1_39" d="M.16899109-.01171875C.18998719-.01171875 .20498657-.008728027 .21699524-.0027313233L.20599365 .059265138C.19799805 .057266237 .19400025 .057266237 .18899536 .057266237 .17599488 .057266237 .16499329 .06626892 .16499329 .09225464V.71191409H.08198547V.09825134C.08198547 .028274537 .10699463-.01171875 .16899109-.01171875Z"/>
<path id="font_1_46" d="M.20899964-.01171875C.32398988-.01171875 .3869934 .054275514 .3869934 .13322449 .3869934 .22117615 .31399537 .2541504 .23799134 .28112794 .1769867 .30212403 .1349945 .32011415 .1349945 .36408998 .1349945 .40005494 .1619873 .43403626 .22399903 .43403626 .2669983 .43403626 .3019867 .42004396 .33599855 .3950653L.37399293 .44303895C.33599855 .47503663 .28399659 .49804688 .22299195 .49804688 .116989139 .49804688 .054992677 .43803407 .054992677 .36009217 .054992677 .2801361 .125 .24516297 .19799805 .21917725 .25299073 .19918823 .30699159 .17819214 .30699159 .12823487 .30699159 .086257938 .27598573 .053268434 .21199036 .053268434 .1519928 .053268434 .10798645 .071258548 .06599426 .10624695L.027999878 .058273317C.07299805 .014266968 .13798523-.01171875 .20899964-.01171875Z"/>
<path id="font_1_14" d="M.08898926 0H.1659851V.36210633C.1659851 .4201355 .15899658 .50120547 .1539917 .5582428H.1579895L.20999146 .4051361 .33198548 .065963748H.3929901L.5159912 .4051361 .5669861 .5582428H.57099917C.56599429 .50120547 .5589905 .4201355 .5589905 .36210633V0H.6380005V.65625H.5329895L.40899659 .3050537C.3929901 .2590332 .3809967 .21699524 .3659973 .16796875H.3619995C.34799195 .21699524 .33399964 .2590332 .31799317 .3050537L.19400025 .65625H.08898926V0Z"/>
<path id="font_1_20" d="M.27198792-.01171875C.4099884-.01171875 .49598695 .0712738 .49598695 .17520142 .49598695 .27215577 .43699647 .31811524 .36099244 .35009767L.2669983 .39108277C.21598816 .4120636 .15899658 .43605042 .15899658 .49900819 .15899658 .5569763 .20698548 .5939636 .27999879 .5939636 .33699037 .5939636 .3880005 .5709686 .42799378 .5329895L.47399903 .58895877C.42799378 .634964 .3600006 .66796877 .27999879 .66796877 .16099549 .66796877 .07398987 .5939636 .07398987 .49401856 .07398987 .39707948 .14498902 .35110475 .20599365 .32511903L.30099488 .2831421C.3619995 .25616456 .4099884 .23516846 .4099884 .16821289 .4099884 .10525513 .35899354 .06227112 .272995 .06227112 .20399475 .06227112 .13699341 .09225464 .08898926 .1412201L.041992189 .086257938C.09899902 .025268555 .17799378-.01171875 .27198792-.01171875Z"/>
<path id="font_1_35" d="M.08198547 0H.16499329V.35203553C.21299744 .4010315 .24798584 .42604066 .29699708 .42604066 .36099244 .42604066 .3889923 .388031 .3889923 .2970276V0H.47200013V.30802918C.47200013 .43203736 .42599488 .49804688 .32299806 .49804688 .2559967 .49804688 .20698548 .46203614 .1619873 .4180298L.16499329 .51802065V.71191409H.08198547V0Z"/>
<path id="font_1_32" d="M.27799989-.01171875C.34498597-.01171875 .39698792 .008270264 .43899537 .038269044L.4099884 .09124756C.37599183 .06826782 .33499146 .055267335 .28799439 .055267335 .19599915 .055267335 .1349945 .12123108 .12799073 .22114563H.45498658C.45799256 .2371521 .45899964 .2521515 .45899964 .2701416 .45899964 .41004945 .3880005 .49804688 .2639923 .49804688 .15299988 .49804688 .04598999 .401062 .04598999 .2431488 .04598999 .08226013 .147995-.01171875 .27799989-.01171875M.12799073 .28515626C.13798523 .37808229 .19799805 .43203736 .2659912 .43203736 .33999635 .43203736 .3849945 .381073 .3849945 .28515626H.12799073Z"/>
<path id="font_1_49" d="M.18699646 0H.28399659L.45599366 .48632813H.37399293L.2829895 .21110535C.2679901 .16307068 .2519989 .11402893 .23799134 .066986087H.23399353C.21899414 .11402893 .20399475 .16307068 .18899536 .21110535L.09799194 .48632813H.011993408L.18699646 0Z"/>
<path id="font_1_31" d="M.24798584-.01171875C.30499269-.01171875 .35699464 .02027893 .394989 .057266237H.397995L.40499879 0H.47299195V.71191409H.3899994V.5250244L.3939972 .44203187C.35099793 .47703553 .31399537 .49804688 .2579956 .49804688 .14698792 .49804688 .04699707 .40003968 .04699707 .24201966 .04699707 .08026123 .12599182-.01171875 .24798584-.01171875M.2659912 .058273317C.18099976 .058273317 .1329956 .12722779 .1329956 .2431488 .1329956 .3540802 .19499207 .42803956 .27198792 .42803956 .31199647 .42803956 .34899903 .41503907 .3899994 .37806703V.12423706C.34999085 .08026123 .31098939 .058273317 .2659912 .058273317Z"/>
<path id="font_1_41" d="M.08198547 0H.16499329V.35203553C.21299744 .4010315 .24798584 .42604066 .29699708 .42604066 .36099244 .42604066 .3889923 .388031 .3889923 .2970276V0H.47200013V.30802918C.47200013 .43203736 .42599488 .49804688 .32299806 .49804688 .2559967 .49804688 .20599365 .46203614 .1599884 .41603089H.15699768L.1499939 .48632813H.08198547V0Z"/>
<path id="font_1_23" d="M.20599365 0H.30299378L.5159912 .65625H.42999269L.32099916 .3020935C.2979889 .22505188 .28199769 .16203308 .2579956 .085998538H.2539978C.22999573 .16203308 .21299744 .22505188 .19099427 .3020935L.08898926 .65625H0L.20599365 0Z"/>
<path id="font_1_48" d="M.22399903-.01171875C.29100038-.01171875 .33898927 .023269654 .38398744 .07627869H.3869934L.3939972 0H.46199037V.48632813H.3789978V.14228821C.33399964 .08528137 .29899598 .060272218 .25 .060272218 .18598938 .060272218 .1579895 .09927368 .1579895 .18928528V.48632813H.07499695V.17828369C.07499695 .054275514 .12098694-.01171875 .22399903-.01171875Z"/>
<path id="font_1_33" d="M.09599304 0H.1789856V.41932679H.2809906V.48632813H.1789856V.5620117C.1789856 .62376406 .20098877 .65663149 .24699402 .65663149 .2639923 .65663149 .28199769 .6526489 .30099488 .6466675L.31900025 .70762637C.29899598 .716629 .2679901 .7236328 .23799134 .7236328 .14099121 .7236328 .09599304 .6606293 .09599304 .5620117V.48632813L.02999878 .48132325V.41932679H.09599304V0Z"/>
<path id="font_1_40" d="M.08198547 0H.16499329V.35203553C.20999146 .40203858 .25 .42604066 .28599549 .42604066 .34799195 .42604066 .37599183 .388031 .37599183 .2970276V0H.45899964V.35203553C.5039978 .40203858 .54299929 .42604066 .58099368 .42604066 .6419983 .42604066 .67099 .388031 .67099 .2970276V0H.7539978V.30802918C.7539978 .43203736 .70599368 .49804688 .60598757 .49804688 .5469971 .49804688 .49598695 .46003724 .44599916 .40603639 .42599488 .4630432 .38598634 .49804688 .31098939 .49804688 .25299073 .49804688 .20298767 .46203614 .1599884 .41603089H.15699768L.1499939 .48632813H.08198547V0Z"/>
<path id="font_1_1258" d="M.066986087-.16998291C.14898682-.13697815 .19898987-.068984989 .19898987 .01701355 .19898987 .07801819 .17298889 .11502075 .1289978 .11502075 .09599304 .11502075 .067993167 .09301758 .067993167 .057022096 .067993167 .019012452 .09498596-.0009765625 .1269989-.0009765625 .1309967-.0009765625 .13398743-.0009765625 .13798523 .000015258789 .13798523-.052978517 .10398865-.09698486 .04699707-.12197876L.066986087-.16998291Z"/>
<path id="font_1_1257" d="M.125-.01171875C.1579895-.01171875 .18499756 .014266968 .18499756 .05126953 .18499756 .089279178 .1579895 .11528015 .125 .11528015 .09199524 .11528015 .06498718 .089279178 .06498718 .05126953 .06498718 .014266968 .09199524-.01171875 .125-.01171875Z"/>
<path id="font_1_50" d="M.1599884 0H.2599945L.32499696 .2611847C.33799745 .30522157 .34700013 .3482666 .35598756 .4053192H.3600006C.37098695 .3482666 .37998963 .30622865 .3919983 .2611847L.45799256 0H.5629883L.69400027 .48632813H.61499026L.5439911 .20413208C.5329895 .16007996 .5249939 .11804199 .5149994 .06599426H.5109863C.5009918 .11804199 .48999024 .16007996 .47898866 .20413208L.40499879 .48632813H.31599427L.24299622 .20413208C.23199463 .16007996 .22299195 .11804199 .21299744 .06599426H.20899964C.20098877 .11804199 .19099427 .16007996 .17999268 .20413208L.10899353 .48632813H.023986817L.1599884 0Z"/>
<path id="font_1_8" d="M.34799195-.01171875C.43598939-.01171875 .5079956 .02027893 .5509949 .06427002V.33984376H.33499146V.2708435H.47399903V.10018921C.44799806 .07624817 .40299989 .06227112 .35598756 .06227112 .21598816 .06227112 .13899231 .16505432 .13899231 .32983399 .13899231 .49290467 .22299195 .5939636 .35499574 .5939636 .42099 .5939636 .46299745 .56895449 .49598695 .53492739L.5419922 .58695986C.5039978 .6279602 .44400025 .66796877 .35299684 .66796877 .1789856 .66796877 .051986696 .5389404 .051986696 .32783509 .051986696 .11416626 .1749878-.01171875 .34799195-.01171875Z"/>
<path id="font_1_38" d="M.08198547 0H.1639862V.12808228L.2539978 .2331543 .3959961 0H.48599244L.30299378 .29019166 .46499635 .48632813H.37199403L.16699219 .23214722H.1639862V.71191409H.08198547V0Z"/>
<path id="font_1_6" d="M.08999634 0H.47799684V.070999149H.17399597V.3088684H.42199708V.3798828H.17399597V.5852356H.46798707V.65625H.08999634V0Z"/>
<path id="font_1_34" d="M.24598694-.22363281C.39698792-.22363281 .49198915-.1456604 .49198915-.054763795 .49198915 .025177002 .43499757 .061172487 .32199098 .061172487H.22799683C.16299439 .061172487 .14299011 .08320618 .14299011 .11323547 .14299011 .14027405 .1559906 .15629578 .17399597 .17129517 .19599915 .16029358 .22200012 .15429688 .24598694 .15429688 .34498597 .15429688 .42399598 .21928406 .42399598 .32330323 .42399598 .36431886 .4079895 .40031434 .3849945 .4223175H.48399354V.48632813H.31498719C.29699708 .493042 .272995 .49804688 .24598694 .49804688 .14698792 .49804688 .06298828 .43104554 .06298828 .3251648 .06298828 .26722718 .09399414 .22027588 .12599182 .19429016V.19029236C.100997928 .17329407 .07299805 .14128113 .07299805 .10021973 .07299805 .062179567 .09199524 .03617859 .115997318 .0211792V.017181397C.07199097-.012817383 .04499817-.05177307 .04499817-.09272766 .04499817-.17663574 .1269989-.22363281 .24598694-.22363281M.24598694 .21029663C.18998719 .21029663 .14299011 .25424195 .14299011 .3251648 .14299011 .39608766 .18899536 .43803407 .24598694 .43803407 .30299378 .43803407 .34899903 .39508058 .34899903 .3251648 .34899903 .25424195 .3019867 .21029663 .24598694 .21029663M.2579956-.16563416C.16999817-.16563416 .116989139-.13371277 .116989139-.081832889 .116989139-.053894044 .13198853-.02494812 .16699219 0 .18798828-.0058135988 .21099854-.0078125 .22999573-.0078125H.31298829C.3769989-.0078125 .41099549-.02279663 .41099549-.06774902 .41099549-.117752078 .34999085-.16563416 .2579956-.16563416Z"/>
<path id="font_1_7" d="M.08999634 0H.17399597V.2932434H.42399598V.3642578H.17399597V.5852356H.46798707V.65625H.08999634V0Z"/>
<path id="font_1_52" d="M.09098816-.20898438C.18798828-.20898438 .23899842-.13598633 .272995-.03994751L.45599366 .48632813H.375L.28799439 .21818543C.2749939 .1751709 .26098634 .12513733 .24798584 .08111572H.24398804C.22799683 .12614441 .21199036 .17616272 .19599915 .21818543L.09799194 .48632813H.011993408L.20698548-.00093078616 .19599915-.03694153C.17599488-.096969608 .14099121-.13999939 .08699036-.13999939 .07499695-.13999939 .06298828-.13798523 .050994874-.13398743L.032989503-.19898987C.04899597-.20498657 .067993167-.20898438 .09098816-.20898438Z"/>
<path id="font_1_51" d="M.01399231 0H.100997928L.1659851 .11306763C.18299866 .14208985 .19898987 .17210388 .21499634 .20013428H.21899414C.23699951 .17210388 .25498963 .14208985 .27198792 .11306763L.34298707 0H.43299867L.2749939 .24516297 .42199708 .48632813H.33499146L.27598573 .38024903C.26098634 .3532257 .24699402 .32621766 .23199463 .29919435H.22799683C.21199036 .32621766 .19599915 .3532257 .18099976 .38024903L.115997318 .48632813H.025985718L.17298889 .25416566 .01399231 0Z"/>
<path id="font_1_9" d="M.08999634 0H.17399597V.3078308H.47799684V0H.56199648V.65625H.47799684V.38183595H.17399597V.65625H.08999634V0Z"/>
<path id="font_1_37" d="M.03199768-.21679688C.1289978-.21679688 .1659851-.1538086 .1659851-.05378723V.48632813H.08299255V-.05378723C.08299255-.11279297 .070999149-.14880371 .022994996-.14880371 .0069885256-.14880371-.011001587-.14480591-.023010254-.1408081L-.040008546-.20280457C-.023010254-.21080017 .0029907227-.21679688 .03199768-.21679688M.12298584 .5863342C.15499878 .5863342 .17799378 .6073303 .17799378 .6403351 .17799378 .67233279 .15499878 .69433596 .12298584 .69433596 .09098816 .69433596 .067993167 .67233279 .067993167 .6403351 .067993167 .6073303 .09098816 .5863342 .12298584 .5863342Z"/>
</defs>
<use data-text="P" xlink:href="#font_1_17" transform="matrix(16.271264,0,0,-16.271264,106.979969,266.65293)" fill="#343a40"/>
<use data-text="r" xlink:href="#font_1_45" transform="matrix(16.271264,0,0,-16.271264,116.20577,266.65293)" fill="#343a40"/>
<use data-text="o" xlink:href="#font_1_42" transform="matrix(16.271264,0,0,-16.271264,121.70545,266.65293)" fill="#343a40"/>
<use data-text="t" xlink:href="#font_1_47" transform="matrix(16.271264,0,0,-16.271264,130.24787,266.65293)" fill="#343a40"/>
<use data-text="o" xlink:href="#font_1_42" transform="matrix(16.271264,0,0,-16.271264,135.53601,266.65293)" fill="#343a40"/>
<use data-text="-" xlink:href="#font_1_1279" transform="matrix(16.271264,0,0,-16.271264,144.45267,266.65293)" fill="#343a40"/>
<use data-text="A" xlink:href="#font_1_2" transform="matrix(16.271264,0,0,-16.271264,149.51303,266.65293)" fill="#343a40"/>
<use data-text="r" xlink:href="#font_1_45" transform="matrix(16.271264,0,0,-16.271264,158.3646,266.65293)" fill="#343a40"/>
<use data-text="a" xlink:href="#font_1_28" transform="matrix(16.271264,0,0,-16.271264,163.63648,266.65293)" fill="#343a40"/>
<use data-text="b" xlink:href="#font_1_29" transform="matrix(16.271264,0,0,-16.271264,171.83722,266.65293)" fill="#343a40"/>
<use data-text="i" xlink:href="#font_1_36" transform="matrix(16.271264,0,0,-16.271264,180.8515,266.65293)" fill="#343a40"/>
<use data-text="c" xlink:href="#font_1_30" transform="matrix(16.271264,0,0,-16.271264,184.87049,266.65293)" fill="#343a40"/>
<use data-text="C" xlink:href="#font_1_4" transform="matrix(16.271264,0,0,-16.271264,304.66389,266.65293)" fill="#343a40"/>
<use data-text="l" xlink:href="#font_1_39" transform="matrix(16.271264,0,0,-16.271264,313.95478,266.65293)" fill="#343a40"/>
<use data-text="a" xlink:href="#font_1_28" transform="matrix(16.271264,0,0,-16.271264,318.10395,266.65293)" fill="#343a40"/>
<use data-text="s" xlink:href="#font_1_46" transform="matrix(16.271264,0,0,-16.271264,326.30467,266.65293)" fill="#343a40"/>
<use data-text="s" xlink:href="#font_1_46" transform="matrix(16.271264,0,0,-16.271264,333.1223,266.65293)" fill="#343a40"/>
<use data-text="i" xlink:href="#font_1_36" transform="matrix(16.271264,0,0,-16.271264,339.93998,266.65293)" fill="#343a40"/>
<use data-text="c" xlink:href="#font_1_30" transform="matrix(16.271264,0,0,-16.271264,343.95899,266.65293)" fill="#343a40"/>
<use data-text="a" xlink:href="#font_1_28" transform="matrix(16.271264,0,0,-16.271264,351.21595,266.65293)" fill="#343a40"/>
<use data-text="l" xlink:href="#font_1_39" transform="matrix(16.271264,0,0,-16.271264,359.41667,266.65293)" fill="#343a40"/>
<use data-text="A" xlink:href="#font_1_2" transform="matrix(16.271264,0,0,-16.271264,366.82008,266.65293)" fill="#343a40"/>
<use data-text="r" xlink:href="#font_1_45" transform="matrix(16.271264,0,0,-16.271264,375.67167,266.65293)" fill="#343a40"/>
<use data-text="a" xlink:href="#font_1_28" transform="matrix(16.271264,0,0,-16.271264,380.94355,266.65293)" fill="#343a40"/>
<use data-text="b" xlink:href="#font_1_29" transform="matrix(16.271264,0,0,-16.271264,389.14427,266.65293)" fill="#343a40"/>
<use data-text="i" xlink:href="#font_1_36" transform="matrix(16.271264,0,0,-16.271264,398.15855,266.65293)" fill="#343a40"/>
<use data-text="c" xlink:href="#font_1_30" transform="matrix(16.271264,0,0,-16.271264,402.17756,266.65293)" fill="#343a40"/>
<use data-text="M" xlink:href="#font_1_14" transform="matrix(16.271264,0,0,-16.271264,565.50479,162.90476)" fill="#343a40"/>
<use data-text="S" xlink:href="#font_1_20" transform="matrix(16.271264,0,0,-16.271264,577.334,162.90476)" fill="#343a40"/>
<use data-text="A" xlink:href="#font_1_2" transform="matrix(16.271264,0,0,-16.271264,586.0228,162.90476)" fill="#343a40"/>
<use data-text="o" xlink:href="#font_1_42" transform="matrix(16.271264,0,0,-16.271264,204.68367,297.7776)" fill="#343a40"/>
<use data-text="t" xlink:href="#font_1_47" transform="matrix(16.271264,0,0,-16.271264,213.22609,297.7776)" fill="#343a40"/>
<use data-text="h" xlink:href="#font_1_35" transform="matrix(16.271264,0,0,-16.271264,218.74204,297.7776)" fill="#343a40"/>
<use data-text="e" xlink:href="#font_1_32" transform="matrix(16.271264,0,0,-16.271264,227.59362,297.7776)" fill="#343a40"/>
<use data-text="r" xlink:href="#font_1_45" transform="matrix(16.271264,0,0,-16.271264,235.66417,297.7776)" fill="#343a40"/>
<use data-text="v" xlink:href="#font_1_49" transform="matrix(16.271264,0,0,-16.271264,244.56456,297.7776)" fill="#343a40"/>
<use data-text="a" xlink:href="#font_1_28" transform="matrix(16.271264,0,0,-16.271264,251.87038,297.7776)" fill="#343a40"/>
<use data-text="r" xlink:href="#font_1_45" transform="matrix(16.271264,0,0,-16.271264,260.07109,297.7776)" fill="#343a40"/>
<use data-text="i" xlink:href="#font_1_36" transform="matrix(16.271264,0,0,-16.271264,265.7335,297.7776)" fill="#343a40"/>
<use data-text="e" xlink:href="#font_1_32" transform="matrix(16.271264,0,0,-16.271264,269.7525,297.7776)" fill="#343a40"/>
<use data-text="t" xlink:href="#font_1_47" transform="matrix(16.271264,0,0,-16.271264,277.66035,297.7776)" fill="#343a40"/>
<use data-text="i" xlink:href="#font_1_36" transform="matrix(16.271264,0,0,-16.271264,283.1763,297.7776)" fill="#343a40"/>
<use data-text="e" xlink:href="#font_1_32" transform="matrix(16.271264,0,0,-16.271264,287.1953,297.7776)" fill="#343a40"/>
<use data-text="s" xlink:href="#font_1_46" transform="matrix(16.271264,0,0,-16.271264,295.26588,297.7776)" fill="#343a40"/>
<use data-text="M" xlink:href="#font_1_14" transform="matrix(16.271264,0,0,-16.271264,566.1837,254.67377)" fill="#343a40"/>
<use data-text="o" xlink:href="#font_1_42" transform="matrix(16.271264,0,0,-16.271264,578.01296,254.67377)" fill="#343a40"/>
<use data-text="d" xlink:href="#font_1_31" transform="matrix(16.271264,0,0,-16.271264,586.83206,254.67377)" fill="#343a40"/>
<use data-text="e" xlink:href="#font_1_32" transform="matrix(16.271264,0,0,-16.271264,595.86257,254.67377)" fill="#343a40"/>
<use data-text="r" xlink:href="#font_1_45" transform="matrix(16.271264,0,0,-16.271264,603.9331,254.67377)" fill="#343a40"/>
<use data-text="n" xlink:href="#font_1_41" transform="matrix(16.271264,0,0,-16.271264,609.59548,254.67377)" fill="#343a40"/>
<use data-text="V" xlink:href="#font_1_23" transform="matrix(16.271264,0,0,-16.271264,566.1837,274.63725)" fill="#343a40"/>
<use data-text="e" xlink:href="#font_1_32" transform="matrix(16.271264,0,0,-16.271264,574.33566,274.63725)" fill="#343a40"/>
<use data-text="r" xlink:href="#font_1_45" transform="matrix(16.271264,0,0,-16.271264,582.4062,274.63725)" fill="#343a40"/>
<use data-text="n" xlink:href="#font_1_41" transform="matrix(16.271264,0,0,-16.271264,588.06857,274.63725)" fill="#343a40"/>
<use data-text="a" xlink:href="#font_1_28" transform="matrix(16.271264,0,0,-16.271264,596.96896,274.63725)" fill="#343a40"/>
<use data-text="c" xlink:href="#font_1_30" transform="matrix(16.271264,0,0,-16.271264,605.1696,274.63725)" fill="#343a40"/>
<use data-text="u" xlink:href="#font_1_48" transform="matrix(16.271264,0,0,-16.271264,612.58938,274.63725)" fill="#343a40"/>
<use data-text="l" xlink:href="#font_1_39" transform="matrix(16.271264,0,0,-16.271264,621.44088,274.63725)" fill="#343a40"/>
<use data-text="a" xlink:href="#font_1_28" transform="matrix(16.271264,0,0,-16.271264,625.59,274.63725)" fill="#343a40"/>
<use data-text="r" xlink:href="#font_1_45" transform="matrix(16.271264,0,0,-16.271264,633.7908,274.63725)" fill="#343a40"/>
<use data-text="A" xlink:href="#font_1_2" transform="matrix(16.271264,0,0,-16.271264,566.1837,294.6007)" fill="#343a40"/>
<use data-text="r" xlink:href="#font_1_45" transform="matrix(16.271264,0,0,-16.271264,575.0353,294.6007)" fill="#343a40"/>
<use data-text="a" xlink:href="#font_1_28" transform="matrix(16.271264,0,0,-16.271264,580.3072,294.6007)" fill="#343a40"/>
<use data-text="b" xlink:href="#font_1_29" transform="matrix(16.271264,0,0,-16.271264,588.50796,294.6007)" fill="#343a40"/>
<use data-text="i" xlink:href="#font_1_36" transform="matrix(16.271264,0,0,-16.271264,597.5222,294.6007)" fill="#343a40"/>
<use data-text="c" xlink:href="#font_1_30" transform="matrix(16.271264,0,0,-16.271264,601.5412,294.6007)" fill="#343a40"/>
<path transform="matrix(1.83,0,0,-1.83,149.63544,259.7337)" stroke-width="8.56798" stroke-linecap="butt" stroke-miterlimit="10" stroke-linejoin="miter" fill="none" stroke="#343a40" d="M26.49684 0H73.12625"/>
<path transform="matrix(1.83,0,0,-1.83,149.63544,259.7337)" stroke-width="6.97394" stroke-linecap="butt" stroke-miterlimit="10" stroke-linejoin="miter" fill="none" stroke="#ffffff" d="M26.49684 0H73.12625"/>
<path transform="matrix(1.83,0,0,-1.83,283.45649,259.7337)" stroke-width=".79701" stroke-linecap="round" stroke-linejoin="round" fill="none" stroke="#343a40" d="M-5.20651 10.29646C-2.68098 4.85683 4.11858 .19427 8.00404 0 4.11858-.19427-2.68098-4.85683-5.20651-10.29646"/>
<use data-text="d" xlink:href="#font_1_31" transform="matrix(12.65542,0,0,-12.65542,227.90637,263.9189)" fill="#343a40"/>
<use data-text="i" xlink:href="#font_1_36" transform="matrix(12.65542,0,0,-12.65542,234.93013,263.9189)" fill="#343a40"/>
<use data-text="a" xlink:href="#font_1_28" transform="matrix(12.65542,0,0,-12.65542,238.05602,263.9189)" fill="#343a40"/>
<use data-text="l" xlink:href="#font_1_39" transform="matrix(12.65542,0,0,-12.65542,244.43434,263.9189)" fill="#343a40"/>
<use data-text="e" xlink:href="#font_1_32" transform="matrix(12.65542,0,0,-12.65542,247.66149,263.9189)" fill="#343a40"/>
<use data-text="c" xlink:href="#font_1_30" transform="matrix(12.65542,0,0,-12.65542,253.93856,263.9189)" fill="#343a40"/>
<use data-text="t" xlink:href="#font_1_47" transform="matrix(12.65542,0,0,-12.65542,259.5829,263.9189)" fill="#343a40"/>
<use data-text="s" xlink:href="#font_1_46" transform="matrix(12.65542,0,0,-12.65542,263.74653,263.9189)" fill="#343a40"/>
<path transform="matrix(1.83,0,0,-1.83,149.63544,259.7337)" stroke-width="8.56798" stroke-linecap="butt" stroke-miterlimit="10" stroke-linejoin="miter" fill="none" stroke="#343a40" d="M145.24571 0H216.03478"/>
<path transform="matrix(1.83,0,0,-1.83,149.63544,259.7337)" stroke-width="6.97394" stroke-linecap="butt" stroke-miterlimit="10" stroke-linejoin="miter" fill="none" stroke="#ffffff" d="M145.24571 0H216.03478"/>
<path transform="matrix(1.83,0,0,-1.83,544.9791,259.7337)" stroke-width=".79701" stroke-linecap="round" stroke-linejoin="round" fill="none" stroke="#343a40" d="M-5.20651 10.29646C-2.68098 4.85683 4.11858 .19427 8.00404 0 4.11858-.19427-2.68098-4.85683-5.20651-10.29646"/>
<use data-text="d" xlink:href="#font_1_31" transform="matrix(12.65542,0,0,-12.65542,467.3198,263.9189)" fill="#343a40"/>
<use data-text="i" xlink:href="#font_1_36" transform="matrix(12.65542,0,0,-12.65542,474.3435,263.9189)" fill="#343a40"/>
<use data-text="a" xlink:href="#font_1_28" transform="matrix(12.65542,0,0,-12.65542,477.4694,263.9189)" fill="#343a40"/>
<use data-text="l" xlink:href="#font_1_39" transform="matrix(12.65542,0,0,-12.65542,483.8477,263.9189)" fill="#343a40"/>
<use data-text="e" xlink:href="#font_1_32" transform="matrix(12.65542,0,0,-12.65542,487.07484,263.9189)" fill="#343a40"/>
<use data-text="c" xlink:href="#font_1_30" transform="matrix(12.65542,0,0,-12.65542,493.35194,263.9189)" fill="#343a40"/>
<use data-text="t" xlink:href="#font_1_47" transform="matrix(12.65542,0,0,-12.65542,498.99626,263.9189)" fill="#343a40"/>
<use data-text="s" xlink:href="#font_1_46" transform="matrix(12.65542,0,0,-12.65542,503.15989,263.9189)" fill="#343a40"/>
<path transform="matrix(1.83,0,0,-1.83,149.63544,259.7337)" stroke-width=".79701" stroke-linecap="butt" stroke-miterlimit="10" stroke-linejoin="miter" fill="none" stroke="#343a40" d="M167.59938 56.69362H221.47605"/>
<path transform="matrix(1.83,0,0,-1.83,554.93667,155.98438)" d="M2.59026 0-1.55415 2.0722 0 0-1.55415-2.0722" fill="#343a40"/>
<path transform="matrix(1.83,0,0,-1.83,149.63544,259.7337)" stroke-width=".3985" stroke-linecap="butt" stroke-miterlimit="10" stroke-linejoin="miter" fill="none" stroke="#343a40" d="M81.52881 2.3799C82.37917 4.08069 84.36345 5.21452 87.19809 5.21452H130.01929C132.85393 5.21452 134.83821 6.34836 135.68857 8.04916 136.4053 6.34836 138.07785 5.21452 140.46714 5.21452 142.85643 5.21452 144.52898 4.08069 145.24571 2.3799"/>
<path transform="matrix(1.83,0,0,-1.83,149.63544,259.7337)" stroke-width=".79701" stroke-linecap="butt" stroke-miterlimit="10" stroke-linejoin="miter" fill="none" stroke="#343a40" d="M135.60791 8.04916C137.00395 28.69823 144.50836 42.31032 159.13188 52.9865"/>
<path transform="matrix(1.477963,-1.0790229,-1.0790229,-1.477963,440.8468,162.7684)" d="M2.59026 0-1.55415 2.0722 0 0-1.55415-2.0722" fill="#343a40"/>
<use data-text="S" xlink:href="#font_1_20" transform="matrix(6.4330065,-14.944992,-14.944992,-6.4330065,400.83039,207.02783)"/>
<use data-text="C" xlink:href="#font_1_4" transform="matrix(7.8427488,-14.255741,-14.255741,-7.8427488,404.4483,198.63913)"/>
<use data-text="A" xlink:href="#font_1_2" transform="matrix(9.191149,-13.425744,-13.425744,-9.191149,409.17155,190.12235)"/>
<path transform="matrix(1.83,0,0,-1.83,149.63544,259.7337)" stroke-width=".79701" stroke-linecap="butt" stroke-miterlimit="10" stroke-linejoin="miter" fill="none" stroke="#343a40" d="M0-8.04916C9.25713-14.15858 15.82199-16.34589 24.30807-16.85368"/>
<path transform="matrix(1.8266512,.1092144,.1092144,-1.8266512,194.1192,290.57594)" d="M2.59026 0-1.55415 2.0722 0 0-1.55415-2.0722" fill="#343a40"/>
<use data-text="n" xlink:href="#font_1_41" transform="matrix(14.46335,0,0,-14.46335,53.476259,267.438)" fill="#343a40"/>
<use data-text="a" xlink:href="#font_1_28" transform="matrix(14.46335,0,0,-14.46335,61.387708,267.438)" fill="#343a40"/>
<use data-text="t" xlink:href="#font_1_47" transform="matrix(14.46335,0,0,-14.46335,68.47475,267.438)" fill="#343a40"/>
<use data-text="i" xlink:href="#font_1_36" transform="matrix(14.46335,0,0,-14.46335,73.37782,267.438)" fill="#343a40"/>
<use data-text="v" xlink:href="#font_1_49" transform="matrix(14.46335,0,0,-14.46335,76.95027,267.438)" fill="#343a40"/>
<use data-text="e" xlink:href="#font_1_32" transform="matrix(14.46335,0,0,-14.46335,83.66127,267.438)" fill="#343a40"/>
<use data-text="A" xlink:href="#font_1_2" transform="matrix(14.46335,0,0,-14.46335,52.811967,287.4033)" fill="#343a40"/>
<use data-text="r" xlink:href="#font_1_45" transform="matrix(14.46335,0,0,-14.46335,60.680028,287.4033)" fill="#343a40"/>
<use data-text="a" xlink:href="#font_1_28" transform="matrix(14.46335,0,0,-14.46335,65.36615,287.4033)" fill="#343a40"/>
<use data-text="b" xlink:href="#font_1_29" transform="matrix(14.46335,0,0,-14.46335,72.655689,287.4033)" fill="#343a40"/>
<use data-text="i" xlink:href="#font_1_36" transform="matrix(14.46335,0,0,-14.46335,80.66838,287.4033)" fill="#343a40"/>
<use data-text="c" xlink:href="#font_1_30" transform="matrix(14.46335,0,0,-14.46335,84.24083,287.4033)" fill="#343a40"/>
<use data-text="n" xlink:href="#font_1_41" transform="matrix(14.46335,0,0,-14.46335,20.785134,142.94129)" fill="#343a40"/>
<use data-text="o" xlink:href="#font_1_42" transform="matrix(14.46335,0,0,-14.46335,28.696585,142.94129)" fill="#343a40"/>
<use data-text="n" xlink:href="#font_1_41" transform="matrix(14.46335,0,0,-14.46335,36.535726,142.94129)" fill="#343a40"/>
<use data-text="-" xlink:href="#font_1_1279" transform="matrix(14.46335,0,0,-14.46335,44.447179,142.94129)" fill="#343a40"/>
<use data-text="n" xlink:href="#font_1_41" transform="matrix(14.46335,0,0,-14.46335,48.94528,142.94129)" fill="#343a40"/>
<use data-text="a" xlink:href="#font_1_28" transform="matrix(14.46335,0,0,-14.46335,56.85673,142.94129)" fill="#343a40"/>
<use data-text="t" xlink:href="#font_1_47" transform="matrix(14.46335,0,0,-14.46335,63.94377,142.94129)" fill="#343a40"/>
<use data-text="i" xlink:href="#font_1_36" transform="matrix(14.46335,0,0,-14.46335,68.84685,142.94129)" fill="#343a40"/>
<use data-text="v" xlink:href="#font_1_49" transform="matrix(14.46335,0,0,-14.46335,72.4193,142.94129)" fill="#343a40"/>
<use data-text="e" xlink:href="#font_1_32" transform="matrix(14.46335,0,0,-14.46335,79.130298,142.94129)" fill="#343a40"/>
<use data-text="f" xlink:href="#font_1_33" transform="matrix(14.46335,0,0,-14.46335,5.468033,162.90476)" fill="#343a40"/>
<use data-text="o" xlink:href="#font_1_42" transform="matrix(14.46335,0,0,-14.46335,9.561161,162.90476)" fill="#343a40"/>
<use data-text="r" xlink:href="#font_1_45" transform="matrix(14.46335,0,0,-14.46335,17.4003,162.90476)" fill="#343a40"/>
<use data-text="m" xlink:href="#font_1_40" transform="matrix(14.46335,0,0,-14.46335,22.433547,162.90476)" fill="#343a40"/>
<use data-text="a" xlink:href="#font_1_28" transform="matrix(14.46335,0,0,-14.46335,34.423666,162.90476)" fill="#343a40"/>
<use data-text="l" xlink:href="#font_1_39" transform="matrix(14.46335,0,0,-14.46335,41.713193,162.90476)" fill="#343a40"/>
<use data-text="A" xlink:href="#font_1_2" transform="matrix(14.46335,0,0,-14.46335,48.279554,162.90476)" fill="#343a40"/>
<use data-text="r" xlink:href="#font_1_45" transform="matrix(14.46335,0,0,-14.46335,56.147619,162.90476)" fill="#343a40"/>
<use data-text="a" xlink:href="#font_1_28" transform="matrix(14.46335,0,0,-14.46335,60.848207,162.90476)" fill="#343a40"/>
<use data-text="b" xlink:href="#font_1_29" transform="matrix(14.46335,0,0,-14.46335,68.13773,162.90476)" fill="#343a40"/>
<use data-text="i" xlink:href="#font_1_36" transform="matrix(14.46335,0,0,-14.46335,76.15043,162.90476)" fill="#343a40"/>
<use data-text="c" xlink:href="#font_1_30" transform="matrix(14.46335,0,0,-14.46335,79.72287,162.90476)" fill="#343a40"/>
<use data-text="A" xlink:href="#font_1_2" transform="matrix(14.46335,0,0,-14.46335,211.36684,39.193086)" fill="#343a40"/>
<use data-text="r" xlink:href="#font_1_45" transform="matrix(14.46335,0,0,-14.46335,219.23491,39.193086)" fill="#343a40"/>
<use data-text="a" xlink:href="#font_1_28" transform="matrix(14.46335,0,0,-14.46335,223.92102,39.193086)" fill="#343a40"/>
<use data-text="m" xlink:href="#font_1_40" transform="matrix(14.46335,0,0,-14.46335,231.21054,39.193086)" fill="#343a40"/>
<use data-text="a" xlink:href="#font_1_28" transform="matrix(14.46335,0,0,-14.46335,243.20066,39.193086)" fill="#343a40"/>
<use data-text="i" xlink:href="#font_1_36" transform="matrix(14.46335,0,0,-14.46335,250.49019,39.193086)" fill="#343a40"/>
<use data-text="c" xlink:href="#font_1_30" transform="matrix(14.46335,0,0,-14.46335,254.06266,39.193086)" fill="#343a40"/>
<use data-text="," xlink:href="#font_1_1258" transform="matrix(14.46335,0,0,-14.46335,260.65797,39.193086)" fill="#343a40"/>
<use data-text="P" xlink:href="#font_1_17" transform="matrix(14.46335,0,0,-14.46335,201.1774,59.156557)" fill="#343a40"/>
<use data-text="e" xlink:href="#font_1_32" transform="matrix(14.46335,0,0,-14.46335,209.03099,59.156557)" fill="#343a40"/>
<use data-text="r" xlink:href="#font_1_45" transform="matrix(14.46335,0,0,-14.46335,216.20482,59.156557)" fill="#343a40"/>
<use data-text="s" xlink:href="#font_1_46" transform="matrix(14.46335,0,0,-14.46335,221.1802,59.156557)" fill="#343a40"/>
<use data-text="i" xlink:href="#font_1_36" transform="matrix(14.46335,0,0,-14.46335,227.24034,59.156557)" fill="#343a40"/>
<use data-text="a" xlink:href="#font_1_28" transform="matrix(14.46335,0,0,-14.46335,230.81279,59.156557)" fill="#343a40"/>
<use data-text="n" xlink:href="#font_1_41" transform="matrix(14.46335,0,0,-14.46335,238.10231,59.156557)" fill="#343a40"/>
<use data-text="," xlink:href="#font_1_1258" transform="matrix(14.46335,0,0,-14.46335,246.01377,59.156557)" fill="#343a40"/>
<use data-text="e" xlink:href="#font_1_32" transform="matrix(14.46335,0,0,-14.46335,252.52225,59.156557)" fill="#343a40"/>
<use data-text="t" xlink:href="#font_1_47" transform="matrix(14.46335,0,0,-14.46335,259.55143,59.156557)" fill="#343a40"/>
<use data-text="c" xlink:href="#font_1_30" transform="matrix(14.46335,0,0,-14.46335,264.252,59.156557)" fill="#343a40"/>
<use data-text="." xlink:href="#font_1_1257" transform="matrix(14.46335,0,0,-14.46335,270.84733,59.156557)" fill="#343a40"/>
<path transform="matrix(1.83,0,0,-1.83,149.63544,259.7337)" stroke-width=".3985" stroke-linecap="butt" stroke-dasharray="2.98883,2.98883" stroke-miterlimit="10" stroke-linejoin="miter" fill="none" stroke="#343a40" d="M48.54935 105.33809C51.15686 65.29906 59.25113 41.42024 80.42259 9.70627"/>
<path transform="matrix(1.0159978,1.5219561,1.5219561,-1.0159978,296.80879,241.9712)" d="M1.99252 0-1.19551 1.59401 0 0-1.19551-1.59401" fill="#343a40"/>
<use data-text="l" xlink:href="#font_1_39" transform="matrix(2.908975,12.316002,12.316002,-2.908975,251.9544,132.55237)"/>
<use data-text="o" xlink:href="#font_1_42" transform="matrix(3.1220923,12.263609,12.263609,-3.1220923,252.6626,135.61945)"/>
<use data-text="a" xlink:href="#font_1_28" transform="matrix(3.4087375,12.186916,12.186916,-3.4087375,254.32975,142.15985)"/>
<use data-text="n" xlink:href="#font_1_41" transform="matrix(3.7022169,12.101366,12.101366,-3.7022169,256.01335,148.19702)"/>
<use data-text="w" xlink:href="#font_1_50" transform="matrix(4.057708,11.986708,11.986708,-4.057708,257.9806,154.69355)"/>
<use data-text="o" xlink:href="#font_1_42" transform="matrix(4.408389,11.862179,11.862179,-4.408389,260.8647,163.16643)"/>
<use data-text="r" xlink:href="#font_1_45" transform="matrix(4.6506145,11.769288,11.769288,-4.6506145,263.23088,169.50189)"/>
<use data-text="d" xlink:href="#font_1_31" transform="matrix(4.8896749,11.6719679,11.6719679,-4.8896749,264.801,173.51325)"/>
<use data-text="s" xlink:href="#font_1_46" transform="matrix(5.1379745,11.565156,11.565156,-5.1379745,267.4856,179.8963)"/>
<use data-text="P" xlink:href="#font_1_17" transform="matrix(14.46335,0,0,-14.46335,369.21534,39.193086)" fill="#343a40"/>
<use data-text="e" xlink:href="#font_1_32" transform="matrix(14.46335,0,0,-14.46335,377.08338,39.193086)" fill="#343a40"/>
<use data-text="r" xlink:href="#font_1_45" transform="matrix(14.46335,0,0,-14.46335,384.2572,39.193086)" fill="#343a40"/>
<use data-text="s" xlink:href="#font_1_46" transform="matrix(14.46335,0,0,-14.46335,389.2326,39.193086)" fill="#343a40"/>
<use data-text="i" xlink:href="#font_1_36" transform="matrix(14.46335,0,0,-14.46335,395.29277,39.193086)" fill="#343a40"/>
<use data-text="a" xlink:href="#font_1_28" transform="matrix(14.46335,0,0,-14.46335,398.8652,39.193086)" fill="#343a40"/>
<use data-text="n" xlink:href="#font_1_41" transform="matrix(14.46335,0,0,-14.46335,406.15473,39.193086)" fill="#343a40"/>
<use data-text="," xlink:href="#font_1_1258" transform="matrix(14.46335,0,0,-14.46335,414.0662,39.193086)" fill="#343a40"/>
<use data-text="G" xlink:href="#font_1_8" transform="matrix(14.46335,0,0,-14.46335,361.46345,59.156557)" fill="#343a40"/>
<use data-text="r" xlink:href="#font_1_45" transform="matrix(14.46335,0,0,-14.46335,370.3873,59.156557)" fill="#343a40"/>
<use data-text="e" xlink:href="#font_1_32" transform="matrix(14.46335,0,0,-14.46335,375.2759,59.156557)" fill="#343a40"/>
<use data-text="e" xlink:href="#font_1_32" transform="matrix(14.46335,0,0,-14.46335,382.44975,59.156557)" fill="#343a40"/>
<use data-text="k" xlink:href="#font_1_38" transform="matrix(14.46335,0,0,-14.46335,389.62358,59.156557)" fill="#343a40"/>
<use data-text="," xlink:href="#font_1_1258" transform="matrix(14.46335,0,0,-14.46335,396.97096,59.156557)" fill="#343a40"/>
<use data-text="e" xlink:href="#font_1_32" transform="matrix(14.46335,0,0,-14.46335,403.47944,59.156557)" fill="#343a40"/>
<use data-text="t" xlink:href="#font_1_47" transform="matrix(14.46335,0,0,-14.46335,410.5086,59.156557)" fill="#343a40"/>
<use data-text="c" xlink:href="#font_1_30" transform="matrix(14.46335,0,0,-14.46335,415.2092,59.156557)" fill="#343a40"/>
<use data-text="." xlink:href="#font_1_1257" transform="matrix(14.46335,0,0,-14.46335,421.8045,59.156557)" fill="#343a40"/>
<path transform="matrix(1.83,0,0,-1.83,149.63544,259.7337)" stroke-width=".3985" stroke-linecap="butt" stroke-dasharray="2.98883,2.98883" stroke-miterlimit="10" stroke-linejoin="miter" fill="none" stroke="#343a40" d="M137.13954 105.33809C147.45433 86.18263 156.88666 76.1745 173.70206 65.78969"/>
<path transform="matrix(1.5569275,.96151867,.96151867,-1.5569275,467.51023,139.33855)" d="M1.99252 0-1.19551 1.59401 0 0-1.19551-1.59401" fill="#343a40"/>
<use data-text="l" xlink:href="#font_1_39" transform="matrix(7.0651419,10.49919,10.49919,-7.0651419,416.4659,84.847919)"/>
<use data-text="o" xlink:href="#font_1_42" transform="matrix(7.3469779,10.303411,10.303411,-7.3469779,418.1733,87.43553)"/>
<use data-text="a" xlink:href="#font_1_28" transform="matrix(7.7447378,10.00816,10.00816,-7.7447378,422.05107,92.87613)"/>
<use data-text="n" xlink:href="#font_1_41" transform="matrix(8.164138,9.668995,9.668995,-8.164138,425.82637,97.77321)"/>
<use data-text="w" xlink:href="#font_1_50" transform="matrix(8.67238,9.216057,9.216057,-8.67238,430.10859,102.89903)"/>
<use data-text="o" xlink:href="#font_1_42" transform="matrix(9.153791,8.737681,8.737681,-9.153791,436.18418,109.32234)"/>
<use data-text="r" xlink:href="#font_1_45" transform="matrix(9.465495,8.399149,8.399149,-9.465495,441.03916,113.92845)"/>
<use data-text="d" xlink:href="#font_1_31" transform="matrix(9.750369,8.066565,8.066565,-9.750369,444.1996,116.76495)"/>
<use data-text="s" xlink:href="#font_1_46" transform="matrix(10.01993,7.7294247,7.7294247,-10.01993,449.4974,121.1295)"/>
<use data-text="E" xlink:href="#font_1_6" transform="matrix(14.46335,0,0,-14.46335,473.36976,39.193086)" fill="#343a40"/>
<use data-text="n" xlink:href="#font_1_41" transform="matrix(14.46335,0,0,-14.46335,480.99195,39.193086)" fill="#343a40"/>
<use data-text="g" xlink:href="#font_1_34" transform="matrix(14.46335,0,0,-14.46335,488.90345,39.193086)" fill="#343a40"/>
<use data-text="l" xlink:href="#font_1_39" transform="matrix(14.46335,0,0,-14.46335,496.2074,39.193086)" fill="#343a40"/>
<use data-text="i" xlink:href="#font_1_36" transform="matrix(14.46335,0,0,-14.46335,499.89555,39.193086)" fill="#343a40"/>
<use data-text="s" xlink:href="#font_1_46" transform="matrix(14.46335,0,0,-14.46335,503.468,39.193086)" fill="#343a40"/>
<use data-text="h" xlink:href="#font_1_35" transform="matrix(14.46335,0,0,-14.46335,509.52815,39.193086)" fill="#343a40"/>
<use data-text="," xlink:href="#font_1_1258" transform="matrix(14.46335,0,0,-14.46335,517.39627,39.193086)" fill="#343a40"/>
<use data-text="F" xlink:href="#font_1_7" transform="matrix(14.46335,0,0,-14.46335,462.31108,59.156557)" fill="#343a40"/>
<use data-text="r" xlink:href="#font_1_45" transform="matrix(14.46335,0,0,-14.46335,469.19566,59.156557)" fill="#343a40"/>
<use data-text="e" xlink:href="#font_1_32" transform="matrix(14.46335,0,0,-14.46335,474.08424,59.156557)" fill="#343a40"/>
<use data-text="n" xlink:href="#font_1_41" transform="matrix(14.46335,0,0,-14.46335,481.25807,59.156557)" fill="#343a40"/>
<use data-text="c" xlink:href="#font_1_30" transform="matrix(14.46335,0,0,-14.46335,489.16957,59.156557)" fill="#343a40"/>
<use data-text="h" xlink:href="#font_1_35" transform="matrix(14.46335,0,0,-14.46335,495.7648,59.156557)" fill="#343a40"/>
<use data-text="," xlink:href="#font_1_1258" transform="matrix(14.46335,0,0,-14.46335,503.6329,59.156557)" fill="#343a40"/>
<use data-text="e" xlink:href="#font_1_32" transform="matrix(14.46335,0,0,-14.46335,510.12693,59.156557)" fill="#343a40"/>
<use data-text="t" xlink:href="#font_1_47" transform="matrix(14.46335,0,0,-14.46335,517.1706,59.156557)" fill="#343a40"/>
<use data-text="c" xlink:href="#font_1_30" transform="matrix(14.46335,0,0,-14.46335,521.8712,59.156557)" fill="#343a40"/>
<use data-text="." xlink:href="#font_1_1257" transform="matrix(14.46335,0,0,-14.46335,528.46646,59.156557)" fill="#343a40"/>
<path transform="matrix(1.83,0,0,-1.83,149.63544,259.7337)" stroke-width=".3985" stroke-linecap="butt" stroke-dasharray="2.98883,2.98883" stroke-miterlimit="10" stroke-linejoin="miter" fill="none" stroke="#343a40" d="M192.86191 105.33809C200.54676 86.82898 208.15651 76.92972 222.48464 65.95435"/>
<path transform="matrix(1.4526724,1.1127498,1.1127498,-1.4526724,556.7823,139.03723)" d="M1.99252 0-1.19551 1.59401 0 0-1.19551-1.59401" fill="#343a40"/>
<use data-text="l" xlink:href="#font_1_39" transform="matrix(4.888156,11.672474,11.672474,-4.888156,506.54219,64.663028)"/>
<use data-text="o" xlink:href="#font_1_42" transform="matrix(5.0802657,11.590215,11.590215,-5.0802657,507.74266,67.574558)"/>
<use data-text="a" xlink:href="#font_1_28" transform="matrix(5.3780477,11.455433,11.455433,-5.3780477,510.4474,73.74713)"/>
<use data-text="n" xlink:href="#font_1_41" transform="matrix(5.7317669,11.282687,11.282687,-5.7317669,513.0881,79.39636)"/>
<use data-text="w" xlink:href="#font_1_50" transform="matrix(6.230263,11.014772,11.014772,-6.230263,516.1021,85.402408)"/>
<use data-text="o" xlink:href="#font_1_42" transform="matrix(6.7921645,10.677631,10.677631,-6.7921645,520.474,93.09573)"/>
<use data-text="r" xlink:href="#font_1_45" transform="matrix(7.2135899,10.39744,10.39744,-7.2135899,524.07357,98.71748)"/>
<use data-text="d" xlink:href="#font_1_31" transform="matrix(7.6462786,10.083965,10.083965,-7.6462786,526.4489,102.19632)"/>
<use data-text="s" xlink:href="#font_1_46" transform="matrix(8.09909,9.723666,9.723666,-8.09909,530.5774,107.616779)"/>
<use data-text="," xlink:href="#font_1_1258" transform="matrix(8.393075,9.470937,9.470937,-8.393075,533.8915,111.57324)"/>
<use data-text="s" xlink:href="#font_1_46" transform="matrix(8.821081,9.074063,9.074063,-8.821081,537.5515,115.65596)"/>
<use data-text="y" xlink:href="#font_1_52" transform="matrix(9.130886,8.76198,8.76198,-9.130886,541.1328,119.34891)"/>
<use data-text="n" xlink:href="#font_1_41" transform="matrix(9.433097,8.435471,8.435471,-9.433097,545.2833,123.343799)"/>
<use data-text="t" xlink:href="#font_1_47" transform="matrix(9.653428,8.182489,8.182489,-9.653428,550.3634,127.86391)"/>
<use data-text="a" xlink:href="#font_1_28" transform="matrix(9.829339,7.970637,7.970637,-9.829339,553.5512,130.57962)"/>
<use data-text="x" xlink:href="#font_1_51" transform="matrix(9.9928469,7.76448,7.76448,-9.9928469,558.43368,134.53424)"/>
<use data-text="f" xlink:href="#font_1_33" transform="matrix(14.46335,0,0,-14.46335,44.337236,39.193086)" fill="#343a40"/>
<use data-text="o" xlink:href="#font_1_42" transform="matrix(14.46335,0,0,-14.46335,48.4159,39.193086)" fill="#343a40"/>
<use data-text="r" xlink:href="#font_1_45" transform="matrix(14.46335,0,0,-14.46335,56.25504,39.193086)" fill="#343a40"/>
<use data-text="e" xlink:href="#font_1_32" transform="matrix(14.46335,0,0,-14.46335,61.14365,39.193086)" fill="#343a40"/>
<use data-text="i" xlink:href="#font_1_36" transform="matrix(14.46335,0,0,-14.46335,68.317478,39.193086)" fill="#343a40"/>
<use data-text="g" xlink:href="#font_1_34" transform="matrix(14.46335,0,0,-14.46335,71.889919,39.193086)" fill="#343a40"/>
<use data-text="n" xlink:href="#font_1_41" transform="matrix(14.46335,0,0,-14.46335,79.19391,39.193086)" fill="#343a40"/>
<use data-text="l" xlink:href="#font_1_39" transform="matrix(14.46335,0,0,-14.46335,25.418694,59.156557)" fill="#343a40"/>
<use data-text="a" xlink:href="#font_1_28" transform="matrix(14.46335,0,0,-14.46335,29.10685,59.156557)" fill="#343a40"/>
<use data-text="n" xlink:href="#font_1_41" transform="matrix(14.46335,0,0,-14.46335,36.396379,59.156557)" fill="#343a40"/>
<use data-text="g" xlink:href="#font_1_34" transform="matrix(14.46335,0,0,-14.46335,44.30783,59.156557)" fill="#343a40"/>
<use data-text="u" xlink:href="#font_1_48" transform="matrix(14.46335,0,0,-14.46335,51.611825,59.156557)" fill="#343a40"/>
<use data-text="a" xlink:href="#font_1_28" transform="matrix(14.46335,0,0,-14.46335,59.47989,59.156557)" fill="#343a40"/>
<use data-text="g" xlink:href="#font_1_34" transform="matrix(14.46335,0,0,-14.46335,66.76942,59.156557)" fill="#343a40"/>
<use data-text="e" xlink:href="#font_1_32" transform="matrix(14.46335,0,0,-14.46335,73.87092,59.156557)" fill="#343a40"/>
<use data-text="s" xlink:href="#font_1_46" transform="matrix(14.46335,0,0,-14.46335,81.04474,59.156557)" fill="#343a40"/>
<path transform="matrix(1.83,0,0,-1.83,149.63544,259.7337)" stroke-width=".3985" stroke-linecap="butt" stroke-miterlimit="10" stroke-linejoin="miter" fill="none" stroke="#343a40" d="M-42.5202-28.3468H267.30216"/>
<path transform="matrix(1.83,0,0,-1.83,638.7984,311.60835)" d="M1.99252 0-1.19551 1.59401 0 0-1.19551-1.59401" fill="#343a40"/>
<path transform="matrix(1.83,0,0,-1.83,149.63544,259.7337)" stroke-width=".3985" stroke-linecap="butt" stroke-miterlimit="10" stroke-linejoin="miter" fill="none" stroke="#343a40" d="M-28.3468-42.5202V139.74152"/>
<path transform="matrix(0,-1.83,-1.83,-0,97.76079,4.006729)" d="M1.99252 0-1.19551 1.59401 0 0-1.19551-1.59401" fill="#343a40"/>
<use data-text="t" xlink:href="#font_1_47" transform="matrix(14.46335,0,0,-14.46335,327.5023,326.30729)" fill="#343a40"/>
<use data-text="h" xlink:href="#font_1_35" transform="matrix(14.46335,0,0,-14.46335,332.40538,326.30729)" fill="#343a40"/>
<use data-text="e" xlink:href="#font_1_32" transform="matrix(14.46335,0,0,-14.46335,340.27345,326.30729)" fill="#343a40"/>
<use data-text="H" xlink:href="#font_1_9" transform="matrix(14.46335,0,0,-14.46335,350.3399,326.30729)" fill="#343a40"/>
<use data-text="i" xlink:href="#font_1_36" transform="matrix(14.46335,0,0,-14.46335,359.77003,326.30729)" fill="#343a40"/>
<use data-text="j" xlink:href="#font_1_37" transform="matrix(14.46335,0,0,-14.46335,363.34248,326.30729)" fill="#343a40"/>
<use data-text="r" xlink:href="#font_1_45" transform="matrix(14.46335,0,0,-14.46335,366.91493,326.30729)" fill="#343a40"/>
<use data-text="a" xlink:href="#font_1_28" transform="matrix(14.46335,0,0,-14.46335,371.60108,326.30729)" fill="#343a40"/>
<use data-text="h" xlink:href="#font_1_35" transform="matrix(14.46335,0,0,-14.46335,378.8906,326.30729)" fill="#343a40"/>
<use data-text="m" xlink:href="#font_1_40" transform="matrix(14.46335,0,0,-14.46335,559.27548,326.30729)" fill="#343a40"/>
<use data-text="o" xlink:href="#font_1_42" transform="matrix(14.46335,0,0,-14.46335,571.26559,326.30729)" fill="#343a40"/>
<use data-text="d" xlink:href="#font_1_31" transform="matrix(14.46335,0,0,-14.46335,579.10476,326.30729)" fill="#343a40"/>
<use data-text="e" xlink:href="#font_1_32" transform="matrix(14.46335,0,0,-14.46335,587.13186,326.30729)" fill="#343a40"/>
<use data-text="r" xlink:href="#font_1_45" transform="matrix(14.46335,0,0,-14.46335,594.30569,326.30729)" fill="#343a40"/>
<use data-text="n" xlink:href="#font_1_41" transform="matrix(14.46335,0,0,-14.46335,599.3389,326.30729)" fill="#343a40"/>
<use data-text="d" xlink:href="#font_1_31" transform="matrix(14.46335,0,0,-14.46335,610.14309,326.30729)" fill="#343a40"/>
<use data-text="a" xlink:href="#font_1_28" transform="matrix(14.46335,0,0,-14.46335,618.17019,326.30729)" fill="#343a40"/>
<use data-text="y" xlink:href="#font_1_52" transform="matrix(14.46335,0,0,-14.46335,625.4597,326.30729)" fill="#343a40"/>
</svg>
