<svg xmlns="http://www.w3.org/2000/svg" xmlns:xlink="http://www.w3.org/1999/xlink" xmlns:inkscape="http://www.inkscape.org/namespaces/inkscape" version="1.1" width="151.9122" height="128.75279" viewBox="0 0 151.9122 128.75279">
<defs>
<path id="font_1_17" d="M.19580078 .05517578C.19580078 .036621095 .18912761 .020751954 .17578125 .0075683596 .16243489-.0056152346 .14648438-.012207031 .12792969-.012207031 .109375-.012207031 .09358724-.0056152346 .080566409 .0075683596 .06754557 .020751954 .061035158 .036621095 .061035158 .05517578 .061035158 .073404949 .06754557 .08911133 .080566409 .10229492 .09358724 .115478519 .109375 .12207031 .12792969 .12207031 .14648438 .12207031 .16243489 .115478519 .17578125 .10229492 .18912761 .08911133 .19580078 .073404949 .19580078 .05517578Z"/>
<path id="font_2_691" d="M.022949219-.2626953-.005859375-.1850586C.07356771-.16780599 .1295573-.13761394 .16210938-.09448242 .19466146-.05135091 .2109375-.00032552085 .2109375 .05859375 .2109375 .08626302 .20792644 .11531576 .2019043 .14575196 .19588216 .17618816 .1875 .20719402 .17675781 .23876953L.2578125 .26611329C.28125 .19938152 .29296876 .13509114 .29296876 .07324219 .29296876 .018880209 .28344728-.03149414 .2644043-.07788086 .24536133-.12426758 .21590169-.1636556 .17602539-.19604492 .1361491-.22843425 .085123699-.25065104 .022949219-.2626953Z"/>
<path id="font_2_728" d="M.03125 .5571289V.6035156L.23925781 .68847659V.64208987L.03125 .5571289Z"/>
<path id="font_2_681" d="M.15673828 .67285159V.0009765625H.07421875V.67285159H.15673828Z"/>
<path id="font_2_1258" d="M.107421878 .4736328C.13574219 .45377604 .16520183 .43286134 .19580078 .41088868 .22639974 .38891603 .2549642 .36547853 .28149415 .34057618 .30802409 .31567384 .32950846 .2891439 .34594728 .26098634 .36238609 .23282878 .37060548 .20279949 .37060548 .17089844 .37060548 .11035156 .34985353 .06673177 .3083496 .040039064 .2668457 .0133463549 .2006836 0 .10986328 0H-.009277344V.08886719H.109375C.17252605 .08886719 .21777344 .09448242 .24511719 .10571289 .27246095 .11694336 .2861328 .13932292 .2861328 .17285156 .2861328 .19433594 .27856446 .21533203 .26342774 .23583985 .24829102 .25634767 .22875977 .27661134 .20483399 .29663087 .1809082 .3166504 .15527344 .3363444 .12792969 .3557129 .10058594 .3750814 .07486979 .39420573 .05078125 .41308595 .040364583 .42154948 .032389326 .43147788 .026855469 .4428711 .021321616 .4542643 .018554688 .46565757 .018554688 .47705079 .018554688 .49039714 .022216797 .50301107 .029541016 .5148926 .036865236 .5267741 .048339845 .5358073 .063964847 .5419922L.41503907 .6845703V.59814456L.107421878 .4736328Z"/>
<path id="font_2_731" d="M.028320313-.24658203V-.20019531L.23632813-.115234378V-.1616211L.028320313-.24658203Z"/>
<path id="font_2_1179" d="M-.009765625 .08886719H.04736328C.08870443 .08886719 .118245448 .09814453 .13598633 .11669922 .15372722 .1352539 .16259766 .16373699 .16259766 .20214844 .16259766 .21777344 .16219075 .23258464 .16137696 .24658203 .16056316 .26057945 .1595052 .2745768 .15820313 .28857423L.2397461 .29833985 .2475586 .18408203C.25146485 .12060547 .28450523 .08886719 .3466797 .08886719H.3569336V0H.34570313C.3095703 0 .28068034 .0065104167 .2590332 .01953125 .23738607 .032552083 .21988933 .05094401 .20654297 .07470703 .18896485 .048990888 .16585286 .030110678 .13720703 .018066407 .108561199 .0060221354 .07861328 0 .04736328 0H-.009765625V.08886719M.09082031-.07470703 .1616211-.14550781 .09082031-.2163086 .020019532-.14550781 .09082031-.07470703Z"/>
<path id="font_2_724" d="M.028320313 .60009768V.6464844L.23632813 .7314453V.6850586L.028320313 .60009768M.028320313 .5V.5463867L.23632813 .63134768V.58496096L.028320313 .5Z"/>
<path id="font_2_1173" d="M.07421875 .67285159H.15673828V.20645142C.15673828 .1605835 .16520183 .12967937 .1821289 .11373901 .19905599 .09780884 .22460938 .08984375 .25878907 .08984375H.2709961V.0009765625H.25878907C.19661458 .0009765625 .15030925 .017481486 .11987305 .050491334 .08943685 .08351135 .07421875 .13564046 .07421875 .20687866V.67285159Z"/>
<path id="font_2_692" d="M.20166016 .5024414 .27246095 .43164063 .20166016 .36083985 .13085938 .43164063 .20166016 .5024414M.022949219-.2626953-.005859375-.1850586C.07356771-.16780599 .1295573-.13761394 .16210938-.09448242 .19466146-.05135091 .2109375-.00032552085 .2109375 .05859375 .2109375 .08626302 .20792644 .11531576 .2019043 .14575196 .19588216 .17618816 .1875 .20719402 .17675781 .23876953L.2578125 .26611329C.28125 .19938152 .29296876 .13509114 .29296876 .07324219 .29296876 .018880209 .28344728-.03149414 .2644043-.07788086 .24536133-.12426758 .21590169-.1636556 .17602539-.19604492 .1361491-.22843425 .085123699-.25065104 .022949219-.2626953Z"/>
<path id="font_2_1285" d="M-.0107421879 .08886719H.095214847C.12776692 .08886719 .14982097 .09830729 .16137696 .1171875 .17293294 .1360677 .17871094 .15999349 .17871094 .18896485 .17871094 .2101237 .17675781 .23274739 .17285156 .25683595 .16894531 .28092448 .16471355 .30517579 .16015625 .32958985L.24511719 .35107423C.25065104 .32503257 .25504557 .29947917 .25830079 .27441407 .261556 .24934896 .2631836 .22542317 .2631836 .20263672 .2631836 .16357422 .2578125 .12874349 .24707031 .09814453 .23632813 .06754557 .21875 .04353841 .19433594 .026123047 .16992188 .008707683 .13720703 0 .096191409 0H-.0107421879V.08886719M.16552735-.07763672 .23388672-.14550781 .16552735-.21435547 .09765625-.14550781 .16552735-.07763672M.0034179688-.07763672 .071777347-.14550781 .0034179688-.21435547-.064453128-.14550781 .0034179688-.07763672Z"/>
<path id="font_2_737" d="M.020507813 .56811526C.020507813 .59162399 .028889975 .6118622 .045654298 .62882998 .06241862 .6458079 .08251953 .6542969 .10595703 .6542969 .12939453 .6542969 .14949544 .6458079 .16625977 .62882998 .1830241 .6118622 .19140625 .59162399 .19140625 .56811526 .19140625 .5446065 .1830241 .5244446 .16625977 .5076294 .14949544 .49082438 .12939453 .48242188 .10595703 .48242188 .08251953 .48242188 .06241862 .49082438 .045654298 .5076294 .028889975 .5244446 .020507813 .5446065 .020507813 .56811526M.059570314 .56811526C.059570314 .5550232 .06404623 .5440572 .07299805 .5352173 .08194987 .5263875 .092936199 .52197268 .10595703 .52197268 .11897787 .52197268 .12988281 .5263875 .13867188 .5352173 .14746094 .5440572 .15185547 .5550232 .15185547 .56811526 .15185547 .5812073 .14746094 .59233096 .13867188 .6014862 .12988281 .6106517 .11897787 .6152344 .10595703 .6152344 .092936199 .6152344 .08194987 .6106517 .07299805 .6014862 .06404623 .59233096 .059570314 .5812073 .059570314 .56811526Z"/>
<path id="font_2_1209" d="M.32910157 .17773438C.32910157 .18619792 .32722984 .19718425 .32348634 .21069336 .31974284 .22420247 .31526695 .2368164 .3100586 .24853516L.22363281 .44433595 .2998047 .47998048 .41064454 .21923828C.4256185 .18408203 .4387207 .1570638 .44995118 .1381836 .46118165 .11930338 .47224937 .10636393 .4831543 .099365238 .49405924 .09236654 .50651046 .08886719 .5205078 .08886719H.5410156V0H.5205078C.49479167 0 .47387696 .003092448 .45776368 .009277344 .4416504 .015462239 .42773438 .024739584 .41601563 .037109376 .40429688 .049479169 .39241538 .065104167 .3803711 .083984378 .35758464 .055338544 .3285319 .034261068 .2932129 .020751954 .2578939 .0072428386 .21386719 .00048828127 .16113281 .00048828127 .13834636 .00048828127 .11783854 .001546224 .099609378 .0036621094 .08138021 .0057779948 .0641276 .0087890629 .047851564 .0126953129V.10107422C.08528646 .092285159 .12060547 .087890628 .1538086 .087890628 .27067057 .087890628 .32910157 .11783854 .32910157 .17773438Z"/>
<path id="font_2_726" d="M.25578309 .5151367C.23980205 .49253337 .21533203 .4742686 .18237305 .4603424 .14942424 .44641624 .11125692 .43945313 .067871097 .43945313L.051757814 .4741211C.061523439 .50146487 .06640625 .5218099 .06640625 .53515627 .06640625 .5520833 .05826823 .5605469 .041992189 .5605469 .033854169 .5605469 .022135416 .55826827 .0068359377 .55371096L.0024414063 .5942383C.020019532 .60042318 .03597005 .6035156 .05029297 .6035156 .085123699 .6035156 .10253906 .5813802 .10253906 .5371094 .10253906 .5292969 .10205078 .5206706 .10107422 .51123049 .100097659 .50179037 .09830729 .4913737 .095703128 .47998048 .113983158 .48258464 .13519795 .48706056 .15934754 .4934082 .18349712 .49975587 .20258586 .5100911 .21661377 .52441409 .1937561 .5260417 .1726888 .533549 .15341187 .54693606 .1341451 .56032308 .12451172 .5810547 .12451172 .60913088 .12451172 .63101199 .13218181 .64986678 .14752198 .6656952 .16287232 .6815338 .18213909 .6894531 .20532227 .6894531 .22850545 .6894531 .24776714 .6820221 .2631073 .66716006 .27845765 .652298 .2861328 .632782 .2861328 .60861209 .2861328 .5903117 .28173829 .57022097 .27294923 .54833987 .2775065 .5476888 .28466798 .546875 .2944336 .54589846L.29052735 .5126953C.28368125 .5126953 .2778066 .51293948 .27290345 .51342776 .26801048 .513916 .26230369 .51448568 .25578309 .5151367M.23381043 .5566406C.2374115 .5647786 .24051921 .5734863 .24313355 .5827637 .24575806 .592041 .24707031 .60058596 .24707031 .60839846 .24707031 .62076827 .24322002 .6306966 .23551941 .6381836 .22782898 .6456706 .21841939 .64941409 .20729065 .64941409 .19451396 .64941409 .18411255 .64501956 .17608643 .63623049 .16807048 .6274414 .1640625 .61783859 .1640625 .6074219 .1640625 .5908203 .17102051 .57926437 .18493653 .5727539 .19885254 .56624349 .21514385 .5608724 .23381043 .5566406Z"/>
<path id="font_2_1198" d="M.3251953-.07470703 .3959961-.14550781 .3251953-.2163086 .25439454-.14550781 .3251953-.07470703M-.009765625 .08886719H.07324219C.111328128 .08886719 .14632161 .092290248 .17822266 .09913635 .2101237 .10599264 .24129232 .11545309 .27172853 .1275177 .3021647 .13959249 .33406578 .15386963 .36743165 .17034912 .40079753 .18682862 .43815104 .20452881 .4794922 .2234497 .45638023 .2319336 .43245445 .2411499 .40771485 .25109864 .38297526 .26104737 .3594564 .27042643 .3371582 .27923585 .31486003 .28804527 .29541017 .29530335 .2788086 .30101014 .26220704 .30671693 .25048829 .3095703 .24365235 .3095703 .22379558 .3095703 .20629883 .30377708 .19116211 .29219056 .17602539 .28061424 .16210938 .2666677 .14941406 .25035096L.13623047 .23371887 .061523439 .27043153 .068847659 .28215028C.09033203 .31700135 .11531576 .34493003 .14379883 .36593629 .1722819 .38695274 .20572917 .39746095 .24414063 .39746095 .26009117 .39746095 .27937828 .39335633 .30200196 .3851471 .32462565 .37693788 .34928385 .36667887 .37597657 .35437013 .40266929 .34206138 .43033854 .32958476 .45898438 .3169403 .48763023 .30430604 .51627609 .29364015 .5449219 .28494264 .5735677 .27624513 .60091146 .27189637 .6269531 .27189637V.18673706C.6061198 .18445842 .5795085 .17687989 .54711917 .16400147 .5147298 .15113323 .47265626 .13101197 .42089845 .103637699 .37923179 .08147176 .34057618 .0626475 .30493165 .047164918 .2692871 .031692506 .23299153 .019963583 .19604492 .011978149 .15909831 .0039927165 .11767578 0 .071777347 0H-.009765625V.08886719Z"/>
<path id="font_2_675" d="M.14746094 .20898438C.14746094 .19596355 .15307617 .18139649 .16430664 .1652832 .17553711 .14916992 .19335938 .13444011 .21777344 .12109375 .23958333 .1282552 .25797526 .13411458 .27294923 .13867188 .2879232 .14322917 .3018392 .14705403 .31469728 .15014649 .32755534 .15323894 .34147135 .15608724 .3564453 .1586914V.076171878C.31608073 .06738281 .27189128 .05452474 .22387696 .037597658 .17586263 .020670573 .12060547-.0047200524 .05810547-.03857422L.045410158 .04296875C.06201172 .051757814 .075683597 .05891927 .08642578 .064453128 .09716797 .06998698 .11311849 .07747396 .13427735 .08691406 .11051432 .108072917 .09423828 .1283366 .08544922 .14770508 .076660159 .16707357 .072265628 .18733724 .072265628 .2084961 .072265628 .23616536 .07910156 .26163737 .09277344 .2849121 .10644531 .30818687 .12491862 .3268229 .14819336 .3408203 .1714681 .35481773 .19710286 .3618164 .22509766 .3618164 .2475586 .3618164 .26822917 .35888673 .28710938 .35302735 .3059896 .34716798 .3251953 .3370768 .34472657 .3227539L.31982423 .25732423C.30192057 .26611329 .28605143 .2722982 .2722168 .2758789 .25838218 .27945964 .24479167 .28125 .23144531 .28125 .20833333 .28125 .18855794 .2738444 .17211914 .2590332 .15568035 .244222 .14746094 .22753906 .14746094 .20898438Z"/>
<path id="font_1_902" d="M.55078127 0H.328125V.0390625L.36914063 .041992189C.375 .04264323 .38012696 .044921876 .38452149 .048828126 .38891603 .052734376 .39111329 .05777995 .39111329 .063964847V.32177735C.39111329 .3504232 .38427735 .37410484 .37060548 .39282228 .3569336 .4115397 .33072917 .42089845 .2919922 .42089845 .27441407 .42089845 .25545249 .4181315 .23510742 .41259767 .21476238 .4070638 .19742839 .40022788 .18310547 .39208985V.063964847C.18310547 .05029297 .18977864 .04296875 .203125 .041992189L.24609375 .0390625V0H.020996094V.0390625L.068847659 .041992189C.082845058 .04296875 .08984375 .05029297 .08984375 .063964847V.66503909H.015136719V.6982422L.1430664 .7368164H.18310547V.4321289C.19514974 .43961589 .21077474 .4481608 .22998047 .45776368 .2491862 .46736656 .2693685 .47583009 .29052735 .4831543 .3116862 .49047853 .33089195 .49414063 .34814454 .49414063 .386556 .49414063 .41878257 .48177085 .44482423 .45703126 .47086589 .43229167 .48388673 .39420573 .48388673 .34277345V.063964847C.48388673 .05777995 .48608399 .052734376 .49047853 .048828126 .49487306 .044921876 .5 .04264323 .5058594 .041992189L.55078127 .0390625V0M.3388672-.1430664C.3388672-.15836589 .3334147-.17154949 .32250978-.18261719 .31160484-.19368489 .2985026-.19921875 .28320313-.19921875 .26757813-.19921875 .25431315-.19368489 .2434082-.18261719 .23250325-.17154949 .22705078-.15836589 .22705078-.1430664 .22705078-.12679036 .23250325-.11303711 .2434082-.10180664 .25431315-.09057617 .26757813-.08496094 .28320313-.08496094 .2985026-.08496094 .31160484-.09057617 .32250978-.10180664 .3334147-.11303711 .3388672-.12679036 .3388672-.1430664Z"/>
<path id="font_1_271" d="M.4921875 0H.34423829L.3310547 .05908203C.31835938 .048990888 .30257163 .038411458 .2836914 .02734375 .2648112 .016276041 .24495442 .006917318 .2241211-.0007324219 .20328777-.008382161 .18326824-.012207031 .1640625-.012207031 .12792969-.012207031 .09724935-.00016276042 .072021488 .023925782 .04679362 .048014326 .034179689 .08105469 .034179689 .123046878 .034179689 .14160156 .037516279 .15885417 .044189454 .17480469 .05086263 .1907552 .064208988 .20597331 .084228519 .22045899 .10424805 .23494466 .1340332 .24910482 .17358399 .26293946 .21313477 .27677409 .265625 .29085288 .3310547 .30517579 .3310547 .30745445 .3310547 .31306968 .3310547 .32202149 .3310547 .3309733 .3310547 .339681 .3310547 .34814454 .3310547 .41389976 .29996745 .44677735 .23779297 .44677735 .22054036 .44677735 .20564778 .44514976 .19311524 .44189454 .18058269 .4386393 .171875 .43603517 .16699219 .43408204V.34716798H.09423828C.085123699 .34716798 .076660159 .34887696 .068847659 .35229493 .061035158 .3557129 .057128908 .36360679 .057128908 .37597657 .057128908 .4033203 .06754557 .42569987 .088378909 .44311524 .10921224 .4605306 .13566081 .47338868 .16772461 .48168946 .1997884 .48999024 .23225911 .49414063 .26513673 .49414063 .30647788 .49414063 .33854167 .48771159 .36132813 .47485353 .3841146 .46199546 .4000651 .44425456 .4091797 .42163087 .41829429 .39900718 .42285157 .37320964 .42285157 .34423829V.063964847C.42285157 .05777995 .42488609 .052652997 .42895509 .048583986 .43302409 .044514974 .43798829 .042317708 .44384767 .041992189L.4921875 .0390625V0M.3310547 .09423828V.26708985C.2861328 .25602214 .2504069 .24487305 .22387696 .23364258 .197347 .22241211 .17757161 .21118164 .16455078 .19995117 .15152996 .1887207 .14298503 .17732747 .13891602 .16577149 .134847 .1542155 .1328125 .14225261 .1328125 .12988281 .1328125 .109375 .1394043 .090413417 .15258789 .07299805 .16577149 .055582685 .1842448 .046875 .20800781 .046875 .22753906 .046875 .2491862 .052246095 .27294923 .06298828 .29671226 .07373047 .31608073 .08414713 .3310547 .09423828M.4165039 .5859375H.08154297V.64941409H.4165039V.5859375Z"/>
<path id="font_1_79" d="M.27001954 0H.026855469V.0390625L.080078128 .041992189C.084635417 .042317708 .08943685 .044840497 .09448242 .049560548 .09952799 .054280599 .10205078 .05875651 .10205078 .06298828V.66503909H.025878907V.6982422L.1538086 .7368164H.19482422V.06298828C.19482422 .05875651 .19726563 .054280599 .20214844 .049560548 .20703125 .044840497 .21158855 .042317708 .21582031 .041992189L.27001954 .0390625V0Z"/>
<path id="font_1_83" d="M.52490237 .24804688C.52490237 .19563802 .5148112 .14990235 .4946289 .110839847 .47444663 .071777347 .44547526 .041503908 .40771485 .020019532 .36995445-.0014648438 .32470704-.012207031 .27197267-.012207031 .2569987-.012207031 .2421875-.011230469 .22753906-.009277344 .21289063-.0073242189 .19807942-.0052083337 .18310547-.0029296876V-.15185547C.18310547-.15804036 .18522136-.16292317 .18945313-.1665039 .19368489-.17008464 .19889324-.17220052 .20507813-.17285156L.26416017-.17919922V-.21777344H.020996094V-.17919922L.068847659-.17285156C.082845058-.17122396 .08984375-.16422527 .08984375-.15185547V.4111328H.020996094V.44384767L.14404297 .4819336H.18310547V.4321289C.20589192 .44970704 .23046875 .46443687 .25683595 .47631837 .28320313 .48819987 .30891929 .49414063 .33398438 .49414063 .3684896 .49414063 .40014649 .4839681 .42895509 .46362306 .45776368 .44327799 .48095704 .41471354 .49853517 .3779297 .5161133 .34114585 .52490237 .29785157 .52490237 .24804688M.4248047 .23388672C.4248047 .26839195 .41951499 .29996745 .40893556 .32861329 .3983561 .35725913 .3827311 .3802897 .36206056 .39770509 .34138999 .41512046 .31575523 .42382813 .28515626 .42382813 .26822917 .42382813 .25065104 .4207357 .23242188 .41455079 .2141927 .40836589 .1977539 .40152995 .18310547 .39404298V.049804689C.21044922 .03938802 .23746746 .034179689 .26416017 .034179689 .300944 .034179689 .33113609 .043619794 .35473634 .0625 .37833659 .08138021 .3959147 .106038417 .4074707 .13647461 .4190267 .16691081 .4248047 .19938152 .4248047 .23388672Z"/>
<path id="font_1_72" d="M.26611329-.012207031C.2257487-.012207031 .1879069-.0031738282 .15258789 .014892578 .11726888 .032958986 .08870443 .060384115 .06689453 .09716797 .045084638 .13395183 .034179689 .18017578 .034179689 .23583985 .034179689 .2879232 .044270833 .33333335 .064453128 .3720703 .084635417 .41080729 .112467449 .44083659 .14794922 .4621582 .18343099 .48347984 .22379558 .49414063 .26904298 .49414063 .33121745 .49414063 .3779297 .47485353 .4091797 .4362793 .4404297 .39770509 .4560547 .3486328 .4560547 .2890625 .4560547 .28580729 .4560547 .28149415 .4560547 .27612306 .4560547 .27075196 .45572917 .26578776 .45507813 .26123048H.13085938C.13085938 .23583985 .13354492 .2105306 .13891602 .18530274 .14428711 .16007488 .15332031 .13720703 .16601563 .11669922 .17871094 .096191409 .19580078 .0797526 .21728516 .06738281 .23876953 .05501302 .265625 .048828126 .29785157 .048828126 .3264974 .048828126 .3544108 .055419923 .3815918 .068603519 .4087728 .08178711 .43359376 .09586588 .4560547 .110839847V.049804689C.4280599 .032552083 .39786784 .017903647 .36547853 .005859375 .3330892-.006184896 .29996745-.012207031 .26611329-.012207031M.13623047 .30615235H.35595704V.328125C.35595704 .3610026 .34806315 .38867188 .3322754 .4111328 .31648765 .43359376 .2919922 .44482423 .25878907 .44482423 .22591146 .44482423 .19791667 .43245445 .17480469 .40771485 .1516927 .38297526 .13883464 .3491211 .13623047 .30615235Z"/>
<path id="font_1_85" d="M.38085938 .3798828H.34179688C.33561198 .38736979 .3282064 .39379884 .31958009 .39916993 .31095378 .40454103 .30045573 .40722657 .28808595 .40722657 .2721354 .40722657 .25577799 .40169273 .23901367 .390625 .22224935 .37955729 .20524089 .36442057 .18798828 .34521485V.063964847C.18798828 .04996745 .19498699 .04264323 .20898438 .041992189L.27490235 .0390625V0H.024902344V.038085939L.07421875 .041992189C.080078128 .04264323 .08504232 .044921876 .08911133 .048828126 .093180339 .052734376 .095214847 .05777995 .095214847 .063964847V.4111328H.022949219V.44384767L.14697266 .4819336H.18798828V.3930664C.2163086 .425944 .2409668 .45100913 .2619629 .46826173 .28295899 .4855143 .3022461 .49414063 .31982423 .49414063 .33024089 .49414063 .34147135 .49251304 .35351563 .4892578 .3655599 .4860026 .37467448 .48258464 .38085938 .4790039V.3798828Z"/>
<path id="font_1_86" d="M.3491211 .35302735H.296875L.2890625 .42285157C.28190104 .4283854 .27132163 .43359376 .25732423 .43847657 .24332683 .44335938 .22851563 .44580079 .21289063 .44580079 .18554688 .44580079 .16520183 .43953453 .15185547 .42700196 .13850911 .4144694 .13183594 .3984375 .13183594 .37890626 .13183594 .36393229 .1352539 .35123698 .14208985 .3408203 .14892578 .33040367 .16048177 .3202311 .17675781 .31030274 .19303386 .30037437 .21516927 .28889976 .24316406 .2758789 .27799479 .25992839 .30680339 .24226888 .32958985 .22290039 .3523763 .2035319 .36376954 .17757161 .36376954 .14501953 .36376954 .09586588 .34684245 .057373048 .31298829 .029541016 .27913413 .0017089844 .23242188-.012207031 .17285156-.012207031 .14225261-.012207031 .11401367-.009033203 .088134769-.0026855469 .06225586 .0036621094 .044270833 .008951823 .034179689 .013183594V.1459961H.08496094L.09716797 .061035158C.10725912 .05452474 .11971029 .048258466 .13452149 .042236329 .14933269 .03621419 .1665039 .033203126 .18603516 .033203126 .21468099 .033203126 .2368164 .041178388 .2524414 .057128908 .2680664 .07307943 .2758789 .09098307 .2758789 .110839847 .2758789 .13688152 .2652181 .15730794 .24389649 .17211914 .22257488 .18693035 .19254558 .20361328 .1538086 .22216797 .11735026 .2397461 .08943685 .2578125 .07006836 .2763672 .05069987 .29492188 .041015626 .3191732 .041015626 .3491211 .041015626 .39371745 .056640626 .42903648 .087890628 .45507813 .119140628 .48111979 .16357422 .49414063 .2211914 .49414063 .25048829 .49414063 .27661134 .49145509 .29956056 .48608399 .32250978 .4807129 .33902995 .4757487 .3491211 .4711914V.35302735Z"/>
<path id="font_1_82" d="M.5097656 .24023438C.5097656 .19303386 .5 .15030925 .48046876 .11206055 .4609375 .07381185 .4333496 .04353841 .39770509 .021240235 .36206056-.0010579428 .31982423-.012207031 .2709961-.012207031 .22249349-.012207031 .1805013-.0011393229 .14501953 .020996094 .10953776 .04313151 .08219401 .07324219 .06298828 .111328128 .04378255 .14941406 .034179689 .19238281 .034179689 .24023438 .034179689 .2877604 .043863935 .33072917 .06323242 .36914063 .082600917 .4075521 .11027018 .43798829 .14624024 .46044923 .18221028 .48291017 .22477214 .49414063 .27392579 .49414063 .32373048 .49414063 .36621095 .4827474 .4013672 .45996095 .43652345 .43717448 .4633789 .40657554 .4819336 .36816407 .5004883 .3297526 .5097656 .28710938 .5097656 .24023438M.40576173 .24121094C.40576173 .27766929 .4009603 .3116862 .39135743 .34326173 .38175456 .37483726 .3671061 .40039063 .3474121 .41992188 .3277181 .43945313 .30289714 .44921876 .27294923 .44921876 .24202474 .44921876 .2167155 .43945313 .19702149 .41992188 .17732747 .40039063 .16276042 .37483726 .15332031 .34326173 .1438802 .3116862 .13916016 .27766929 .13916016 .24121094 .13916016 .20507813 .1439616 .17114258 .15356446 .1394043 .16316732 .107666019 .17781575 .08203125 .19750977 .0625 .21720378 .04296875 .24202474 .033203126 .27197267 .033203126 .30257163 .033203126 .3277181 .04296875 .3474121 .0625 .3671061 .08203125 .38175456 .10758463 .39135743 .13916016 .4009603 .17073567 .40576173 .20475261 .40576173 .24121094Z"/>
<path id="font_1_81" d="M.546875 0H.32617188V.0390625L.36816407 .041992189C.37402345 .04264323 .37898765 .044921876 .38305665 .048828126 .38712565 .052734376 .38916017 .05777995 .38916017 .063964847V.32421876C.38916017 .35579429 .38183595 .37980143 .3671875 .39624024 .35253907 .41267906 .32779948 .42089845 .29296876 .42089845 .27408854 .42089845 .2552897 .4182129 .23657227 .4128418 .21785482 .4074707 .20003255 .40055339 .18310547 .39208985V.063964847C.18310547 .05029297 .19010417 .04296875 .20410156 .041992189L.24609375 .0390625V0H.020019532V.0390625L.068847659 .041992189C.082845058 .04296875 .08984375 .05029297 .08984375 .063964847V.4111328H.020019532V.44384767L.14208985 .4819336H.18310547V.4321289C.21110027 .44807945 .23982747 .46240235 .2692871 .47509767 .29874674 .48779298 .32503257 .49414063 .34814454 .49414063 .3917643 .49414063 .42496745 .48055015 .4477539 .45336915 .47054038 .42618815 .4819336 .38834635 .4819336 .33984376V.063964847C.4819336 .05777995 .4839681 .052734376 .4880371 .048828126 .4921061 .044921876 .4970703 .04264323 .5029297 .041992189L.546875 .0390625V0Z"/>
<path id="font_1_73" d="M.38916017 .6767578C.38916017 .66341146 .38582359 .6529134 .3791504 .6452637 .3724772 .63761398 .36539714 .63216146 .35791017 .62890627 .3504232 .62565109 .3453776 .62369796 .34277345 .6230469L.25097657 .6879883C.23665364 .6805013 .2232259 .66536459 .21069336 .6425781 .19816081 .6197917 .19189453 .58496096 .19189453 .53808596V.4741211H.31591798V.42285157H.19189453V.063964847C.19189453 .05777995 .19392903 .052652997 .19799805 .048583986 .20206706 .044514974 .20703125 .042317708 .21289063 .041992189L.27197267 .0390625V0H.028808594V.0390625L.078125 .041992189C.083984378 .042317708 .08894857 .044514974 .09301758 .048583986 .097086589 .052652997 .099121097 .05777995 .099121097 .063964847V.42285157H.03515625V.4580078L.099121097 .47607423C.099121097 .50895187 .10164388 .5362142 .10668945 .5578613 .11173502 .5795085 .12044271 .60221359 .1328125 .62597659 .15234375 .663737 .17749024 .6916504 .20825196 .7097168 .23901367 .7277832 .27067057 .7368164 .30322267 .7368164 .33154298 .7368164 .35294596 .7308757 .36743165 .71899417 .38191734 .7071126 .38916017 .6930339 .38916017 .6767578Z"/>
<path id="font_1_74" d="M.5078125 .41503907H.40820313C.4156901 .40299479 .42203776 .3898112 .4272461 .37548829 .43245445 .36116538 .4350586 .34440104 .4350586 .3251953 .4350586 .29003907 .4248047 .26017253 .40429688 .2355957 .38378907 .21101888 .35717774 .19278972 .3244629 .1809082 .29174806 .16902669 .2566732 .16438802 .21923828 .16699219 .21402996 .15852864 .21085613 .1492513 .2097168 .13916016 .20857747 .12906902 .20841472 .120279949 .20922852 .11279297 .21004232 .10530599 .21061199 .10107422 .2109375 .100097659 .22884114 .09814453 .2495931 .09586588 .27319337 .09326172 .2967936 .090657558 .3207194 .08658854 .3449707 .08105469 .36922203 .075520839 .3917643 .067871097 .41259767 .05810547 .433431 .048339845 .4501953 .03548177 .46289063 .01953125 .47558595 .0035807293 .4819336-.016276041 .4819336-.040039064 .4819336-.071614589 .4703776-.10180664 .44726563-.13061524 .42415367-.15942383 .39298503-.1830241 .35375978-.20141602 .31453453-.21980794 .27067057-.2290039 .22216797-.2290039 .16259766-.2290039 .116373699-.2154134 .083496097-.18823242 .05061849-.16105144 .034179689-.12727864 .034179689-.08691406 .034179689-.057942708 .04280599-.032145185 .060058595-.009521484 .077311199 .013102214 .104003909 .027669272 .14013672 .034179689 .13655599 .044596357 .13395183 .052083333 .13232422 .056640626 .13069661 .061197919 .12988281 .069010417 .12988281 .080078128 .12988281 .09309896 .13387044 .10750326 .1418457 .123291019 .14982097 .13907878 .16259766 .15592449 .18017578 .17382813 .14697266 .18131511 .118001308 .19816081 .09326172 .22436524 .06852213 .25056968 .056152345 .28385417 .056152345 .32421876 .056152345 .3766276 .07462565 .41805015 .111572269 .44848634 .14851888 .47892253 .19694011 .49414063 .25683595 .49414063 .28059898 .49414063 .30265299 .49064128 .32299806 .48364259 .3433431 .4766439 .36002604 .4700521 .37304688 .4638672H.5078125V.41503907M.33984376 .3310547C.33984376 .35221354 .33626304 .3720703 .32910157 .390625 .3219401 .4091797 .31152345 .42423503 .29785157 .43579103 .2841797 .44734703 .2672526 .453125 .24707031 .453125 .21907552 .453125 .19620769 .44230143 .1784668 .4206543 .1607259 .39900718 .15185547 .3688151 .15185547 .33007813 .15185547 .29654948 .15983074 .26782228 .17578125 .24389649 .19173177 .2199707 .2154948 .20800781 .24707031 .20800781 .27701823 .20800781 .29996745 .22005208 .31591798 .24414063 .3318685 .26822917 .33984376 .29720054 .33984376 .3310547M.3959961-.06689453C.3959961-.0460612 .38875328-.029947916 .37426759-.018554688 .3597819-.0071614587 .34179688 .0013020834 .3203125 .0068359377 .29882813 .012369792 .277181 .016357422 .2553711 .018798829 .2335612 .021240235 .21516927 .023925782 .20019531 .026855469 .17122396 .016438803 .15128581 .0022786458 .14038086-.015625 .1294759-.033528646 .12402344-.05061849 .12402344-.06689453 .12402344-.082845058 .12866211-.099853519 .13793946-.11791992 .1472168-.13598633 .16153972-.15136719 .1809082-.1640625 .20027669-.17675781 .22493489-.18310547 .2548828-.18310547 .28678385-.18310547 .31315104-.17675781 .33398438-.1640625 .35481773-.15136719 .37036134-.13598633 .38061524-.11791992 .39086915-.099853519 .3959961-.082845058 .3959961-.06689453Z"/>
<path id="font_1_89" d="M.51904299 .4428711 .4658203 .43701173 .29101563 0H.22607422L.064941409 .43701173 .009765625 .4428711V.4819336H.23095703V.4428711L.18310547 .4399414C.17757161 .43961589 .17317708 .43725587 .16992188 .43286134 .16666667 .4284668 .16601563 .4235026 .16796875 .41796876L.27978517 .10498047 .40283204 .41796876C.4051107 .4231771 .40478517 .4280599 .40185548 .4326172 .39892579 .43717448 .394694 .43961589 .38916017 .4399414L.34423829 .4428711V.4819336H.51904299V.4428711Z"/>
<path id="font_1_180" d="M.39208985 .70214846C.38264976 .69108077 .37141929 .6780599 .35839845 .66308596 .3453776 .648112 .33390299 .6312663 .3239746 .6125488 .31404624 .59383139 .30908204 .5732422 .30908204 .55078127 .30908204 .54752609 .30924479 .5440267 .3095703 .5402832 .30989585 .53653976 .3100586 .5333659 .3100586 .5307617H.37304688L.38061524 .5197754C.3856608 .5124512 .3881836 .5032552 .3881836 .4921875 .3881836 .4752604 .38264976 .46069337 .37158204 .44848634 .3605143 .4362793 .34602867 .43017579 .328125 .43017579 .30208335 .43017579 .28173829 .4388021 .26708985 .4560547 .2524414 .47330729 .24511719 .4962565 .24511719 .52490237 .24511719 .5489909 .24951172 .5710449 .25830079 .59106448 .26708985 .611084 .27775065 .62890627 .2902832 .64453127 .30281578 .66015627 .31510417 .67333987 .32714845 .68408206 .33919273 .6948242 .34847007 .703125 .35498048 .7089844L.39208985 .70214846M.18603516 .70214846C.16617839 .6822917 .14737956 .65966799 .12963867 .63427737 .11189779 .6088867 .103027347 .5807292 .103027347 .5498047 .103027347 .5465495 .1031901 .5432129 .103515628 .5397949 .10384115 .53637698 .104003909 .5333659 .104003909 .5307617H.16699219L.17456055 .5202637C.17960613 .51326498 .1821289 .50358077 .1821289 .49121095 .1821289 .47428385 .17667644 .45987956 .16577149 .44799806 .15486653 .43611656 .14029949 .43017579 .12207031 .43017579 .096354167 .43017579 .07609049 .43847657 .061279298 .45507813 .046468099 .4716797 .0390625 .49430339 .0390625 .5229492 .0390625 .5473633 .04345703 .56974288 .052246095 .5900879 .061035158 .6104329 .07169596 .6284993 .084228519 .6442871 .09676107 .6600749 .10904948 .67333987 .12109375 .68408206 .13313802 .6948242 .14241536 .703125 .14892578 .7089844L.18603516 .70214846Z"/>
<path id="font_1_61" d="M.5361328 0H.0390625V.043945314L.4111328 .62109377H.1508789C.14241536 .62109377 .13671875 .61539718 .13378906 .6040039L.119140628 .51123049H.060058595V.67089846H.5307617V.625L.15820313 .05078125H.4428711C.44742839 .05078125 .45117188 .052571615 .45410157 .056152345 .45703126 .059733076 .45898438 .063964847 .45996095 .068847659L.47705079 .1850586H.5361328V0Z"/>
<path id="font_1_68" d="M.4921875 0H.34423829L.3310547 .05908203C.31835938 .048990888 .30257163 .038411458 .2836914 .02734375 .2648112 .016276041 .24495442 .006917318 .2241211-.0007324219 .20328777-.008382161 .18326824-.012207031 .1640625-.012207031 .12792969-.012207031 .09724935-.00016276042 .072021488 .023925782 .04679362 .048014326 .034179689 .08105469 .034179689 .123046878 .034179689 .14160156 .037516279 .15885417 .044189454 .17480469 .05086263 .1907552 .064208988 .20597331 .084228519 .22045899 .10424805 .23494466 .1340332 .24910482 .17358399 .26293946 .21313477 .27677409 .265625 .29085288 .3310547 .30517579 .3310547 .30745445 .3310547 .31306968 .3310547 .32202149 .3310547 .3309733 .3310547 .339681 .3310547 .34814454 .3310547 .41389976 .29996745 .44677735 .23779297 .44677735 .22054036 .44677735 .20564778 .44514976 .19311524 .44189454 .18058269 .4386393 .171875 .43603517 .16699219 .43408204V.34716798H.09423828C.085123699 .34716798 .076660159 .34887696 .068847659 .35229493 .061035158 .3557129 .057128908 .36360679 .057128908 .37597657 .057128908 .4033203 .06754557 .42569987 .088378909 .44311524 .10921224 .4605306 .13566081 .47338868 .16772461 .48168946 .1997884 .48999024 .23225911 .49414063 .26513673 .49414063 .30647788 .49414063 .33854167 .48771159 .36132813 .47485353 .3841146 .46199546 .4000651 .44425456 .4091797 .42163087 .41829429 .39900718 .42285157 .37320964 .42285157 .34423829V.063964847C.42285157 .05777995 .42488609 .052652997 .42895509 .048583986 .43302409 .044514974 .43798829 .042317708 .44384767 .041992189L.4921875 .0390625V0M.3310547 .09423828V.26708985C.2861328 .25602214 .2504069 .24487305 .22387696 .23364258 .197347 .22241211 .17757161 .21118164 .16455078 .19995117 .15152996 .1887207 .14298503 .17732747 .13891602 .16577149 .134847 .1542155 .1328125 .14225261 .1328125 .12988281 .1328125 .109375 .1394043 .090413417 .15258789 .07299805 .16577149 .055582685 .1842448 .046875 .20800781 .046875 .22753906 .046875 .2491862 .052246095 .27294923 .06298828 .29671226 .07373047 .31608073 .08414713 .3310547 .09423828Z"/>
<path id="font_1_92" d="M.52001956 .4428711 .46777345 .43701173 .2758789-.030761719C.27164714-.041503908 .26505534-.056884767 .25610353-.0769043 .24715169-.09692383 .23657227-.11743164 .22436524-.13842774 .2121582-.15942383 .19905599-.17692058 .1850586-.19091797 .17301433-.20296224 .15974935-.21232097 .14526367-.21899414 .130778-.22566732 .11507162-.2290039 .09814453-.2290039 .07438151-.2290039 .056233724-.2232259 .043701173-.21166992 .03116862-.20011394 .024902344-.18684896 .024902344-.171875 .024902344-.14973958 .03564453-.12972005 .057128908-.111816409L.1508789-.15478516C.16194661-.14371746 .17301433-.12874349 .18408203-.10986328 .19514974-.09098307 .2051595-.07145182 .21411133-.05126953 .22306316-.03108724 .22998047-.013671875 .23486328 .0009765625L.064941409 .43701173 .009765625 .4428711V.4819336H.23095703V.4428711L.18310547 .4399414C.17757161 .43961589 .1730957 .43725587 .16967774 .43286134 .16625977 .4284668 .16569011 .4235026 .16796875 .41796876L.2841797 .123046878 .40283204 .41796876C.4051107 .4231771 .40478517 .4280599 .40185548 .4326172 .39892579 .43717448 .394694 .43961589 .38916017 .4399414L.34179688 .4428711V.4819336H.52001956V.4428711Z"/>
<path id="font_1_71" d="M.53808596 0H.38085938V.053222658C.3580729 .03564453 .33382163 .020345053 .30810548 .0073242189 .2823893-.0056966149 .25504557-.012207031 .22607422-.012207031 .19254558-.012207031 .1636556-.005126953 .1394043 .009033203 .11515299 .02319336 .09529623 .041992189 .079833988 .06542969 .06437174 .08886719 .052897138 .114746097 .045410158 .1430664 .037923177 .17138672 .034179689 .19970703 .034179689 .22802735 .034179689 .27327476 .04345703 .3161621 .06201172 .35668946 .080566409 .3972168 .10872396 .43025718 .14648438 .45581056 .1842448 .48136393 .23177083 .49414063 .2890625 .49414063 .30501304 .49414063 .32234703 .4925944 .34106446 .48950196 .3597819 .48640953 .37304688 .48388673 .38085938 .4819336V.66503909H.30517579V.6982422L.43408204 .7368164H.4741211V.063964847C.4741211 .05029297 .48111979 .04296875 .4951172 .041992189L.53808596 .0390625V0M.38085938 .09082031V.43115235C.37239585 .43408204 .3597819 .43725587 .34301759 .44067384 .32625328 .4440918 .31054688 .44580079 .29589845 .44580079 .24641927 .44580079 .20686849 .42749024 .1772461 .39086915 .1476237 .35424806 .1328125 .30566407 .1328125 .24511719 .1328125 .1907552 .14550781 .14567058 .17089844 .10986328 .19628906 .07405599 .2319336 .056152345 .27783204 .056152345 .2980143 .056152345 .31697593 .059977216 .3347168 .06762695 .35245768 .075276698 .36783854 .08300781 .38085938 .09082031Z"/>
<path id="font_1_70" d="M.4321289 .037109376C.40966798 .025065104 .38435874 .013834636 .35620118 .0034179688 .3280436-.0069986979 .29703776-.012207031 .2631836-.012207031 .21663411-.012207031 .17618816-.0013020834 .1418457 .020507813 .10750326 .042317708 .080973308 .072021488 .06225586 .10961914 .04353841 .1472168 .034179689 .1899414 .034179689 .23779297 .034179689 .29378257 .045328779 .3408203 .06762695 .37890626 .08992513 .4169922 .119384769 .4457194 .15600586 .4650879 .19262696 .4844564 .23225911 .49414063 .27490235 .49414063 .31884767 .49414063 .3557129 .4855957 .38549806 .46850587 .4152832 .45141603 .43017579 .42659507 .43017579 .39404298 .43017579 .37451173 .42407228 .3597819 .41186524 .34985353 .3996582 .33992515 .38606773 .33496095 .37109376 .33496095 .36002604 .33496095 .3504232 .33683268 .34228517 .34057618 .33414714 .34431968 .3269857 .34814454 .32080079 .35205079V.43896485C.3055013 .4477539 .2915039 .45214845 .2788086 .45214845 .2491862 .45214845 .22371419 .44344078 .20239258 .4260254 .18107097 .40861003 .16471355 .38476563 .15332031 .3544922 .14192708 .32421876 .13623047 .28971354 .13623047 .25097657 .13623047 .2141927 .14241536 .18058269 .15478516 .15014649 .16715496 .11971029 .18562825 .09554037 .21020508 .07763672 .2347819 .059733076 .26529948 .05078125 .3017578 .05078125 .32486979 .05078125 .34700523 .05452474 .36816407 .06201172 .3893229 .069498699 .41064454 .08024088 .4321289 .09423828V.037109376Z"/>
<path id="font_1_80" d="M.828125 0H.6040039V.0390625L.6459961 .041992189C.65999349 .04296875 .6669922 .05029297 .6669922 .063964847V.31884767C.6669922 .34977214 .6605632 .37451173 .6477051 .3930664 .634847 .4116211 .6116536 .42089845 .578125 .42089845 .56152346 .42089845 .5433757 .41829429 .52368167 .41308595 .5039876 .4078776 .48649089 .40120445 .4711914 .3930664V.063964847C.4711914 .05029297 .4781901 .04296875 .4921875 .041992189L.5341797 .0390625V0H.3149414V.0390625L.3569336 .041992189C.370931 .04296875 .3779297 .05029297 .3779297 .063964847V.3251953C.3779297 .35351563 .3712565 .37654624 .35791017 .3942871 .3445638 .41202799 .3219401 .42089845 .29003907 .42089845 .27115885 .42089845 .25146485 .4177246 .23095703 .41137696 .21044922 .4050293 .1944987 .39860026 .18310547 .39208985V.063964847C.18310547 .05029297 .19010417 .04296875 .20410156 .041992189L.24609375 .0390625V0H.020019532V.0390625L.068847659 .041992189C.082845058 .04296875 .08984375 .05029297 .08984375 .063964847V.4111328H.020996094V.44384767L.14208985 .4819336H.18310547V.4321289C.19807942 .4412435 .21492513 .45052085 .23364258 .45996095 .25236003 .46940104 .27148438 .47745768 .29101563 .48413087 .31054688 .49080406 .3289388 .49414063 .3461914 .49414063 .37516276 .49414063 .39860026 .48673503 .4165039 .47192384 .43440757 .45711265 .44759117 .44140626 .4560547 .4248047 .46940104 .43326823 .48632813 .44295249 .50683596 .45385743 .52734377 .46476237 .548584 .47420249 .57055667 .48217774 .5925293 .49015299 .6123047 .49414063 .6298828 .49414063 .66503909 .49414063 .69189456 .48608399 .7104492 .4699707 .7290039 .45385743 .7416992 .43400065 .74853518 .4104004 .7553711 .38680015 .75878909 .36360679 .75878909 .3408203V.063964847C.75878909 .05777995 .76082357 .052652997 .7648926 .048583986 .7689616 .044514974 .7739258 .042317708 .77978518 .041992189L.828125 .0390625V0Z"/>
<path id="font_1_76" d="M.21777344 .64697268C.21777344 .6300456 .21191406 .6154785 .20019531 .6032715 .18847656 .59106448 .17415364 .58496096 .15722656 .58496096 .14029949 .58496096 .12573242 .59106448 .11352539 .6032715 .10131836 .6154785 .095214847 .6300456 .095214847 .64697268 .095214847 .6642253 .10131836 .67871096 .11352539 .6904297 .12573242 .70214846 .14029949 .7080078 .15722656 .7080078 .17415364 .7080078 .18847656 .70214846 .20019531 .6904297 .21191406 .67871096 .21777344 .6642253 .21777344 .64697268M.26904298 0H.034179689V.0390625L.08300781 .041992189C.09700521 .04296875 .104003909 .05029297 .104003909 .063964847V.42089845H.03515625V.4560547L.15722656 .49414063H.19677735V.063964847C.19677735 .05777995 .19881185 .052652997 .20288086 .048583986 .20694988 .044514974 .21191406 .042317708 .21777344 .041992189L.26904298 .0390625V0Z"/>
<path id="font_1_181" d="M.4140625 .61621096C.4140625 .5917969 .40966798 .5694173 .4008789 .54907229 .39208985 .52872726 .38142906 .5106608 .36889649 .49487306 .35636393 .4790853 .34407554 .4658203 .33203126 .45507813 .31998698 .44433595 .31070964 .43603517 .30419923 .43017579L.26708985 .43798829C.28727214 .45817057 .3063151 .48079429 .32421876 .5058594 .3421224 .5309245 .35107423 .55891928 .35107423 .58984377 .35107423 .5934245 .3507487 .59676107 .35009767 .5998535 .34944663 .602946 .3491211 .60563156 .3491211 .60791018H.2861328L.27856446 .6191406C.2735189 .6266276 .2709961 .63655599 .2709961 .6489258 .2709961 .6661784 .27652995 .6805013 .28759767 .69189456 .29866538 .7032878 .31315104 .7089844 .3310547 .7089844 .3564453 .7089844 .3766276 .70060226 .39160157 .6838379 .40657554 .66707357 .4140625 .64453127 .4140625 .61621096M.20800781 .6152344C.20800781 .5911458 .20361328 .5690918 .19482422 .54907229 .18603516 .52905276 .17537435 .5111491 .1628418 .49536134 .15030925 .47957359 .13802083 .4662272 .12597656 .45532228 .11393229 .44441734 .104654949 .43603517 .09814453 .43017579L.061035158 .43798829C.07047526 .449056 .08170573 .46199546 .09472656 .47680665 .1077474 .49161784 .11922201 .5083008 .12915039 .52685549 .13907878 .54541018 .14404297 .5657552 .14404297 .5878906 .14404297 .5914714 .1438802 .5951335 .14355469 .59887698 .14322917 .6026204 .1430664 .60563156 .1430664 .60791018H.080078128L.072509769 .6196289C.067464198 .6274414 .064941409 .63688156 .064941409 .6479492 .064941409 .66520187 .07063802 .6796875 .08203125 .69140627 .09342448 .703125 .108072917 .7089844 .12597656 .7089844 .15201824 .7089844 .17220052 .70043948 .18652344 .6833496 .20084636 .66625979 .20800781 .6435547 .20800781 .6152344Z"/>
</defs>
<use data-text="." xlink:href="#font_1_17" transform="matrix(16.438357,0,0,-16.438357,7.5933005,93.564899)" fill="#343a40"/>
<use data-text="&#x0631;" xlink:href="#font_2_691" transform="matrix(16.438357,0,0,-16.438357,38.600099,93.564899)" fill="#343a40"/>
<use data-text="&#x064e;" xlink:href="#font_2_728" transform="matrix(16.438357,0,0,-16.438357,39.401998,95.940898)" fill="#343a40"/>
<use data-text="&#x0627;" xlink:href="#font_2_681" transform="matrix(16.438357,0,0,-16.438357,35.9106,93.564899)" fill="#343a40"/>
<use data-text="&#x0643;" xlink:href="#font_2_1258" transform="matrix(16.438357,0,0,-16.438357,28.62841,93.564899)" fill="#343a40"/>
<use data-text="&#x0650;" xlink:href="#font_2_731" transform="matrix(16.438357,0,0,-16.438357,29.048249,93.40485)" fill="#343a40"/>
<use data-text="&#x0628;" xlink:href="#font_2_1179" transform="matrix(16.438357,0,0,-16.438357,22.91685,93.564899)" fill="#343a40"/>
<use data-text="&#x064b;" xlink:href="#font_2_724" transform="matrix(16.438357,0,0,-16.438357,23.42175,94.67369)" fill="#343a40"/>
<use data-text="&#x0627;" xlink:href="#font_2_1173" transform="matrix(16.438357,0,0,-16.438357,18.61365,93.564899)" fill="#343a40"/>
<use data-text="&#x0632;" xlink:href="#font_2_692" transform="matrix(16.438357,0,0,-16.438357,72.535648,93.564899)" fill="#343a40"/>
<use data-text="&#x064e;" xlink:href="#font_2_728" transform="matrix(16.438357,0,0,-16.438357,73.418399,93.48569)" fill="#343a40"/>
<use data-text="&#x064a;" xlink:href="#font_2_1285" transform="matrix(16.438357,0,0,-16.438357,67.4157,93.564899)" fill="#343a40"/>
<use data-text="&#x0652;" xlink:href="#font_2_737" transform="matrix(16.438357,0,0,-16.438357,68.6433,93.381748)" fill="#343a40"/>
<use data-text="&#x062f;" xlink:href="#font_2_1209" transform="matrix(16.438357,0,0,-16.438357,58.674,93.564899)" fill="#343a40"/>
<use data-text="&#x064c;" xlink:href="#font_2_726" transform="matrix(16.438357,0,0,-16.438357,59.38845,91.67894)" fill="#343a40"/>
<use data-text="&#x062c;" xlink:href="#font_2_1198" transform="matrix(16.438357,0,0,-16.438357,103.5672,93.564899)" fill="#343a40"/>
<use data-text="&#x064e;" xlink:href="#font_2_728" transform="matrix(16.438357,0,0,-16.438357,105.67754,94.02359)" fill="#343a40"/>
<use data-text="&#x0627;" xlink:href="#font_2_1173" transform="matrix(16.438357,0,0,-16.438357,99.264,93.564899)" fill="#343a40"/>
<use data-text="&#x0621;" xlink:href="#font_2_675" transform="matrix(16.438357,0,0,-16.438357,92.6229,93.564899)" fill="#343a40"/>
<use data-text="&#x064e;" xlink:href="#font_2_728" transform="matrix(16.438357,0,0,-16.438357,93.57314,94.99379)" fill="#343a40"/>
<path transform="matrix(1.65,0,0,-1.65,7.5933005,93.564899)" stroke-width=".3985" stroke-linecap="butt" stroke-miterlimit="10" stroke-linejoin="miter" fill="none" stroke="#343a40" d="M-.19925 9.52156C.17433 10.26877 1.04608 10.7669 2.29143 10.7669H10.06978C11.31512 10.7669 12.18689 11.26503 12.56047 12.01225 12.93407 11.26503 13.80582 10.7669 15.05116 10.7669H22.82951C24.07486 10.7669 24.94662 10.26877 25.3202 9.52156"/>
<use data-text="&#x1e25;" xlink:href="#font_1_902" transform="matrix(0,-11.506852,-11.506852,-0,32.278947,72.04724)" fill="#343a40"/>
<use data-text="&#x0101;" xlink:href="#font_1_271" transform="matrix(0,-11.506852,-11.506852,-0,32.278947,65.44231)" fill="#343a40"/>
<use data-text="l" xlink:href="#font_1_79" transform="matrix(0,-11.506852,-11.506852,-0,32.278947,59.585317)" fill="#343a40"/>
<path transform="matrix(1.65,0,0,-1.65,7.5933005,93.564899)" stroke-width=".3985" stroke-linecap="butt" stroke-miterlimit="10" stroke-linejoin="miter" fill="none" stroke="#343a40" d="M27.84048 9.52156C28.21408 10.26877 29.08583 10.7669 30.33118 10.7669H34.37349C35.61884 10.7669 36.4906 11.26503 36.86418 12.01225 37.23778 11.26503 38.10953 10.7669 39.35487 10.7669H43.39719C44.64253 10.7669 45.5143 10.26877 45.88788 9.52156"/>
<use data-text="p" xlink:href="#font_1_83" transform="matrix(0,-11.506852,-11.506852,-0,72.37889,72.04725)" fill="#343a40"/>
<use data-text="e" xlink:href="#font_1_72" transform="matrix(0,-11.506852,-11.506852,-0,72.37889,65.61492)" fill="#343a40"/>
<use data-text="r" xlink:href="#font_1_85" transform="matrix(0,-11.506852,-11.506852,-0,72.37889,59.976564)" fill="#343a40"/>
<use data-text="s" xlink:href="#font_1_86" transform="matrix(0,-11.506852,-11.506852,-0,72.37889,55.47738)" fill="#343a40"/>
<use data-text="o" xlink:href="#font_1_82" transform="matrix(0,-11.506852,-11.506852,-0,72.37889,50.89765)" fill="#343a40"/>
<use data-text="n" xlink:href="#font_1_81" transform="matrix(0,-11.506852,-11.506852,-0,72.37889,44.637926)" fill="#343a40"/>
<use data-text="o" xlink:href="#font_1_82" transform="matrix(0,-11.506852,-11.506852,-0,72.37889,34.742036)" fill="#343a40"/>
<use data-text="f" xlink:href="#font_1_73" transform="matrix(0,-11.506852,-11.506852,-0,72.37889,28.482308)" fill="#343a40"/>
<use data-text="&#x1e25;" xlink:href="#font_1_902" transform="matrix(0,-11.506852,-11.506852,-0,72.37889,21.359566)" fill="#343a40"/>
<use data-text="&#x0101;" xlink:href="#font_1_271" transform="matrix(0,-11.506852,-11.506852,-0,72.37889,14.754639)" fill="#343a40"/>
<use data-text="l" xlink:href="#font_1_79" transform="matrix(0,-11.506852,-11.506852,-0,72.37889,8.897644)" fill="#343a40"/>
<path transform="matrix(1.65,0,0,-1.65,7.5933005,93.564899)" stroke-width=".3985" stroke-linecap="butt" stroke-miterlimit="10" stroke-linejoin="miter" fill="none" stroke="#343a40" d="M48.40816 9.52156C48.78174 10.26877 49.6535 10.7669 50.89885 10.7669H55.69275C56.9381 10.7669 57.80984 11.26503 58.18344 12.01225 58.55702 11.26503 59.42879 10.7669 60.67413 10.7669H65.46803C66.71338 10.7669 67.58513 10.26877 67.95872 9.52156"/>
<use data-text="g" xlink:href="#font_1_74" transform="matrix(0,-11.506852,-11.506852,-0,107.55525,72.04723)" fill="#343a40"/>
<use data-text="o" xlink:href="#font_1_82" transform="matrix(0,-11.506852,-11.506852,-0,107.55525,66.00614)" fill="#343a40"/>
<use data-text="v" xlink:href="#font_1_89" transform="matrix(0,-11.506852,-11.506852,-0,107.55525,59.9075)" fill="#343a40"/>
<use data-text="e" xlink:href="#font_1_72" transform="matrix(0,-11.506852,-11.506852,-0,107.55525,53.99298)" fill="#343a40"/>
<use data-text="r" xlink:href="#font_1_85" transform="matrix(0,-11.506852,-11.506852,-0,107.55525,48.35463)" fill="#343a40"/>
<use data-text="n" xlink:href="#font_1_81" transform="matrix(0,-11.506852,-11.506852,-0,107.55525,43.855455)" fill="#343a40"/>
<use data-text="o" xlink:href="#font_1_82" transform="matrix(0,-11.506852,-11.506852,-0,107.55525,37.33107)" fill="#343a40"/>
<use data-text="r" xlink:href="#font_1_85" transform="matrix(0,-11.506852,-11.506852,-0,107.55525,31.071335)" fill="#343a40"/>
<use data-text="&#x201c;" xlink:href="#font_1_180" transform="matrix(16.438357,0,0,-16.438357,5.4796507,121.293148)" fill="#343a40"/>
<use data-text="Z" xlink:href="#font_1_61" transform="matrix(16.438357,0,0,-16.438357,12.926226,121.293148)" fill="#343a40"/>
<use data-text="a" xlink:href="#font_1_68" transform="matrix(16.438357,0,0,-16.438357,22.37828,121.293148)" fill="#343a40"/>
<use data-text="y" xlink:href="#font_1_92" transform="matrix(16.438357,0,0,-16.438357,30.268692,121.293148)" fill="#343a40"/>
<use data-text="d" xlink:href="#font_1_71" transform="matrix(16.438357,0,0,-16.438357,38.734449,121.293148)" fill="#343a40"/>
<use data-text="c" xlink:href="#font_1_70" transform="matrix(16.438357,0,0,-16.438357,52.805677,121.293148)" fill="#343a40"/>
<use data-text="a" xlink:href="#font_1_68" transform="matrix(16.438357,0,0,-16.438357,60.48239,121.293148)" fill="#343a40"/>
<use data-text="m" xlink:href="#font_1_80" transform="matrix(16.438357,0,0,-16.438357,68.84951,121.293148)" fill="#343a40"/>
<use data-text="e" xlink:href="#font_1_72" transform="matrix(16.438357,0,0,-16.438357,82.82211,121.293148)" fill="#343a40"/>
<use data-text="r" xlink:href="#font_1_85" transform="matrix(16.438357,0,0,-16.438357,95.67691,121.293148)" fill="#343a40"/>
<use data-text="i" xlink:href="#font_1_76" transform="matrix(16.438357,0,0,-16.438357,102.12075,121.293148)" fill="#343a40"/>
<use data-text="d" xlink:href="#font_1_71" transform="matrix(16.438357,0,0,-16.438357,107.10157,121.293148)" fill="#343a40"/>
<use data-text="i" xlink:href="#font_1_76" transform="matrix(16.438357,0,0,-16.438357,116.372798,121.293148)" fill="#343a40"/>
<use data-text="n" xlink:href="#font_1_81" transform="matrix(16.438357,0,0,-16.438357,121.353618,121.293148)" fill="#343a40"/>
<use data-text="g" xlink:href="#font_1_74" transform="matrix(16.438357,0,0,-16.438357,130.67417,121.293148)" fill="#343a40"/>
<use data-text="&#x201d;" xlink:href="#font_1_181" transform="matrix(16.438357,0,0,-16.438357,138.99196,121.293148)" fill="#343a40"/>
</svg>
