<svg xmlns="http://www.w3.org/2000/svg" xmlns:xlink="http://www.w3.org/1999/xlink" xmlns:inkscape="http://www.inkscape.org/namespaces/inkscape" version="1.1" width="250.17382" height="141.31992" viewBox="0 0 250.17382 141.31992">
<defs>
<path id="font_1_1258" d="M.107421878 .4736328C.13574219 .45377604 .16520183 .43286134 .19580078 .41088868 .22639974 .38891603 .2549642 .36547853 .28149415 .34057618 .30802409 .31567384 .32950846 .2891439 .34594728 .26098634 .36238609 .23282878 .37060548 .20279949 .37060548 .17089844 .37060548 .11035156 .34985353 .06673177 .3083496 .040039064 .2668457 .0133463549 .2006836 0 .10986328 0H-.009277344V.08886719H.109375C.17252605 .08886719 .21777344 .09448242 .24511719 .10571289 .27246095 .11694336 .2861328 .13932292 .2861328 .17285156 .2861328 .19433594 .27856446 .21533203 .26342774 .23583985 .24829102 .25634767 .22875977 .27661134 .20483399 .29663087 .1809082 .3166504 .15527344 .3363444 .12792969 .3557129 .10058594 .3750814 .07486979 .39420573 .05078125 .41308595 .040364583 .42154948 .032389326 .43147788 .026855469 .4428711 .021321616 .4542643 .018554688 .46565757 .018554688 .47705079 .018554688 .49039714 .022216797 .50301107 .029541016 .5148926 .036865236 .5267741 .048339845 .5358073 .063964847 .5419922L.41503907 .6845703V.59814456L.107421878 .4736328Z"/>
<path id="font_1_731" d="M.028320313-.24658203V-.20019531L.23632813-.115234378V-.1616211L.028320313-.24658203Z"/>
<path id="font_1_1189" d="M.22949219 .5283203 .29785157 .46044923 .22949219 .39160157 .1616211 .46044923 .22949219 .5283203M.06738281 .5283203 .13574219 .46044923 .06738281 .39160157-.00048828127 .46044923 .06738281 .5283203M-.009765625 .08886719H.08300781C.12434896 .08886719 .15388997 .09814453 .17163086 .11669922 .18937175 .1352539 .19824219 .16373699 .19824219 .20214844 .19824219 .21777344 .19783528 .23258464 .19702149 .24658203 .19620769 .26057945 .19514974 .2745768 .19384766 .28857423L.27539063 .29833985 .28320313 .18408203C.28710938 .12060547 .32014976 .08886719 .38232423 .08886719H.39257813V0H.38134767C.34521485 0 .31632487 .0065104167 .29467774 .01953125 .2730306 .032552083 .25553385 .05094401 .2421875 .07470703 .22460938 .048990888 .20149739 .030110678 .17285156 .018066407 .14420574 .0060221354 .11425781 0 .08300781 0H-.009765625V.08886719Z"/>
<path id="font_1_728" d="M.03125 .5571289V.6035156L.23925781 .68847659V.64208987L.03125 .5571289Z"/>
<path id="font_1_1173" d="M.07421875 .6723633H.15673828V.2055664C.15673828 .15966797 .16520183 .12874349 .1821289 .11279297 .19905599 .096842449 .22460938 .08886719 .25878907 .08886719H.2709961V0H.25878907C.19661458 0 .15030925 .016520182 .11987305 .049560548 .08943685 .082600917 .07421875 .13476563 .07421875 .20605469V.6723633Z"/>
<path id="font_1_1176" d="M.079589847 0H-.010253906V.08886719H.07861328C.11116537 .08886719 .1332194 .09830729 .14477539 .1171875 .15633138 .1360677 .16210938 .15999349 .16210938 .18896485 .16210938 .2101237 .16015625 .23274739 .15625 .25683595 .15234375 .28092448 .14811199 .30517579 .14355469 .32958985L.22851563 .35107423C.23404949 .32503257 .23844402 .29947917 .24169922 .27441407 .24495442 .24934896 .24658203 .22542317 .24658203 .20263672 .24658203 .16357422 .24121094 .12874349 .23046875 .09814453 .21972656 .06754557 .20214844 .04353841 .17773438 .026123047 .15332031 .008707683 .12060547 0 .079589847 0M.09033203-.07470703 .16113281-.14550781 .09033203-.2163086 .01953125-.14550781 .09033203-.07470703Z"/>
<path id="font_1_724" d="M.028320313 .60009768V.6464844L.23632813 .7314453V.6850586L.028320313 .60009768M.028320313 .5V.5463867L.23632813 .63134768V.58496096L.028320313 .5Z"/>
<path id="font_1_541" d="M.07080078 .064941409C.07080078 .082845058 .07714844 .098225917 .08984375 .111083988 .10253906 .123942058 .11783854 .1303711 .13574219 .1303711 .15364583 .1303711 .16894531 .123942058 .18164063 .111083988 .19433594 .098225917 .2006836 .082845058 .2006836 .064941409 .2006836 .04703776 .19433594 .03173828 .18164063 .019042969 .16894531 .0063476564 .15364583 0 .13574219 0 .11783854 0 .10253906 .006184896 .08984375 .018554688 .07714844 .030924479 .07080078 .04638672 .07080078 .064941409Z"/>
<path id="font_1_1222" d="M.43554688 .64208987 .50146487 .5761719 .43554688 .5102539 .3696289 .5761719 .43554688 .64208987M.51904299 .5185547 .58496096 .45263673 .51904299 .38671876 .453125 .45263673 .51904299 .5185547M.35205079 .5185547 .41796876 .45263673 .35205079 .38671876 .2861328 .45263673 .35205079 .5185547M.3310547 0C.29361979 0 .26472984 .0064290368 .24438477 .01928711 .22403972 .032145185 .20784505 .05061849 .19580078 .07470703 .1805013 .05061849 .16097005 .032145185 .13720703 .01928711 .11344401 .0064290368 .079589847 0 .03564453 0H-.009277344V.08886719H.036621095C.07828776 .08886719 .10872396 .096598308 .12792969 .11206055 .14713542 .12752278 .15673828 .15576172 .15673828 .19677735 .15673828 .20524089 .15633138 .21525066 .15551758 .22680664 .15470378 .23836263 .15348308 .25455729 .15185547 .27539063L.23339844 .28564454 .24121094 .18359375C.24316406 .15625 .25154624 .1336263 .26635743 .115722659 .2811686 .09781901 .3030599 .08886719 .33203126 .08886719 .36653648 .08886719 .38997398 .09814453 .40234376 .11669922 .41471354 .1352539 .42089845 .16194661 .42089845 .19677735 .42089845 .20524089 .42049156 .21533203 .41967774 .22705078 .41886393 .23876953 .41764323 .2548828 .41601563 .27539063L.4975586 .28564454 .5053711 .18359375C.5069987 .15722656 .5139974 .134847 .5263672 .11645508 .538737 .09806315 .55875656 .08886719 .5864258 .08886719 .61344406 .08886719 .6319987 .098958339 .64208987 .119140628 .65218099 .13932292 .65722659 .16292317 .65722659 .1899414 .65722659 .21435547 .6548665 .2389323 .6501465 .26367188 .64542648 .28841148 .64127609 .308431 .6376953 .32373048L.7211914 .3461914C.7270508 .32435099 .7317708 .30112205 .73535159 .27650453 .7389323 .2518972 .74072268 .22737122 .74072268 .20292664 .74072268 .16771953 .73583987 .1346283 .7260742 .103652957 .7163086 .07268778 .7002767 .047668458 .6779785 .02859497 .65568038 .009531657 .6253255 0 .58691409 0 .55566409 0 .5304362 .0065104167 .51123049 .01953125 .49202476 .032552083 .47639976 .05094401 .46435548 .07470703 .4461263 .048339845 .42586265 .029296875 .40356446 .017578125 .38126628 .005859375 .35709635 0 .3310547 0Z"/>
<path id="font_1_1290" d="M-.0107421879 .08886719H.06298828C.10432943 .08886719 .13387044 .09814453 .15161133 .11669922 .16935222 .1352539 .17822266 .16373699 .17822266 .20214844 .17822266 .21777344 .17781575 .23258464 .17700196 .24658203 .17618816 .26057945 .1751302 .2745768 .17382813 .28857423L.2553711 .29833985 .2631836 .18408203C.26708985 .12060547 .30013023 .08886719 .3623047 .08886719H.3725586V0H.36132813C.3251953 0 .29630534 .0065104167 .2746582 .01953125 .25301109 .032552083 .23551433 .05094401 .22216797 .07470703 .20458985 .048990888 .18147786 .030110678 .15283203 .018066407 .124186199 .0060221354 .09423828 0 .06298828 0H-.0107421879V.08886719M.16552735-.07763672 .23388672-.14550781 .16552735-.21435547 .09765625-.14550781 .16552735-.07763672M.0034179688-.07763672 .071777347-.14550781 .0034179688-.21435547-.064453128-.14550781 .0034179688-.07763672Z"/>
<path id="font_1_737" d="M.020507813 .56811526C.020507813 .59162399 .028889975 .6118622 .045654298 .62882998 .06241862 .6458079 .08251953 .6542969 .10595703 .6542969 .12939453 .6542969 .14949544 .6458079 .16625977 .62882998 .1830241 .6118622 .19140625 .59162399 .19140625 .56811526 .19140625 .5446065 .1830241 .5244446 .16625977 .5076294 .14949544 .49082438 .12939453 .48242188 .10595703 .48242188 .08251953 .48242188 .06241862 .49082438 .045654298 .5076294 .028889975 .5244446 .020507813 .5446065 .020507813 .56811526M.059570314 .56811526C.059570314 .5550232 .06404623 .5440572 .07299805 .5352173 .08194987 .5263875 .092936199 .52197268 .10595703 .52197268 .11897787 .52197268 .12988281 .5263875 .13867188 .5352173 .14746094 .5440572 .15185547 .5550232 .15185547 .56811526 .15185547 .5812073 .14746094 .59233096 .13867188 .6014862 .12988281 .6106517 .11897787 .6152344 .10595703 .6152344 .092936199 .6152344 .08194987 .6106517 .07299805 .6014862 .06404623 .59233096 .059570314 .5812073 .059570314 .56811526Z"/>
<path id="font_1_713" d="M-.009765625 .08886719H.28564454V0H-.009765625V.08886719Z"/>
<path id="font_1_739" d="M.07128906 .5205078C.060221357 .5289714 .05078125 .538737 .04296875 .5498047 .03515625 .5608724 .03125 .5760091 .03125 .59521487 .03125 .62320968 .040934247 .6461589 .060302736 .6640625 .07967123 .6819661 .10172526 .69091799 .12646485 .69091799 .14794922 .69091799 .16764324 .68570968 .18554688 .67529299V.6269531C.17549642 .63216146 .166097 .6354167 .15734864 .63671877 .14860027 .6380208 .14049785 .6386719 .13304138 .6386719 .119115199 .6386719 .10623678 .6344401 .09440613 .62597659 .08257548 .617513 .076660159 .60514327 .076660159 .5888672 .076660159 .57877609 .08164469 .568929 .09161377 .5593262 .10158285 .5497233 .115712489 .54622396 .13400269 .5488281 .1346639 .5488281 .13540142 .5489909 .13621521 .5493164 .137029 .5496419 .13792928 .54996749 .13891602 .55029299L.20361328 .57373049 .21044922 .5253906 .024414063 .45166017 .017578125 .49951173 .07128906 .5205078Z"/>
<path id="font_1_781" d="M.15673828 .609375V.0009765625H.07421875V.609375H.15673828M-.025878907 .69132998-.017089844 .73176577C-.012858073 .7282054-.0072428386 .7236735-.00024414063 .71817019 .006754557 .7126668 .013183594 .70878097 .019042969 .70651248 .045410158 .75094607 .069254558 .78281149 .09057617 .80210879 .11189779 .82140609 .13541667 .8310547 .16113281 .8310547 .18717449 .8310547 .2084961 .822937 .22509766 .80670168 .24169922 .7904765 .25 .77019247 .25 .7458496 .25 .7133891 .23860677 .69066366 .21582031 .67767336 .19303386 .6646932 .15364583 .6582031 .09765625 .6582031H.08544922C.056152345 .6582031 .0320638 .6608836 .013183594 .6662445-.0056966149 .6716054-.018717448 .6799672-.025878907 .69132998M.09667969 .7001953C.13867188 .7001953 .16788738 .7030284 .18432617 .70869448 .20076497 .71436056 .20898438 .72609457 .20898438 .7438965 .20898438 .75652059 .20483399 .767039 .1965332 .77545168 .18823242 .7838745 .1772461 .78808596 .16357422 .78808596 .14567058 .78808596 .1295573 .78144839 .115234378 .7681732 .10091146 .75490829 .083333339 .73224899 .0625 .7001953H.09667969Z"/>
<path id="font_1_1262" d="M-.009765625 .08886719H.03125C.0703125 .08886719 .09667969 .0999349 .11035156 .12207031 .12402344 .14420574 .13085938 .171875 .13085938 .20507813V.6723633H.2133789V.2055664C.2133789 .13785808 .19873047 .08666992 .1694336 .052001954 .14013672 .017333985 .09391276 0 .030761719 0H-.009765625V.08886719Z"/>
<path id="font_1_1247" d="M.3022461 .61376956 .37304688 .54296877 .3022461 .47216798 .23144531 .54296877 .3022461 .61376956M.30371095 .38183595C.32877604 .38183595 .35465495 .37980143 .38134767 .37573243 .40804038 .37166343 .43286134 .3658854 .45581056 .35839845 .47875978 .35091148 .49739585 .34179688 .51171877 .3310547 .5260417 .3203125 .5332031 .30826823 .5332031 .29492188 .5332031 .28548179 .52823898 .27246095 .51831057 .25585938 .50838217 .23925781 .49568687 .22135417 .4802246 .20214844 .46476237 .1829427 .44856773 .1644694 .43164063 .14672852 .41471354 .12898763 .3992513 .11393229 .3852539 .1015625 .40804038 .095703128 .4296875 .0921224 .4501953 .09082031 .47070313 .08951823 .4892578 .08886719 .5058594 .08886719H.58203127V0H.50634768C.47216798 0 .43806968 .0040690104 .40405274 .012207031 .3700358 .020345053 .33658854 .033854169 .30371095 .052734376 .28222657 .040364583 .2574056 .030273438 .22924805 .022460938 .2010905 .0146484379 .17277019 .008951823 .14428711 .0053710939 .11580404 .0017903646 .09016927 0 .06738281 0H-.009765625V.08935547H.067871097C.078938808 .08935547 .09383138 .08935547 .11254883 .08935547 .13126628 .08935547 .15063477 .09032694 .1706543 .0922699 .19067383 .09422302 .20817058 .09732056 .22314453 .1015625 .20914714 .11393229 .19368489 .12898763 .17675781 .14672852 .15983074 .1644694 .14363607 .1829427 .12817383 .20214844 .112711589 .22135417 .0999349 .23925781 .08984375 .25585938 .0797526 .27246095 .07470703 .28548179 .07470703 .29492188 .07470703 .30826823 .08170573 .3203125 .095703128 .3310547 .10970052 .34179688 .12817383 .35091148 .15112305 .35839845 .17407227 .3658854 .19889324 .37166343 .22558594 .37573243 .25227867 .37980143 .2783203 .38183595 .30371095 .38183595M.30371095 .29785157C.2890625 .29785157 .2681478 .29671226 .2409668 .2944336 .21378581 .29215495 .18815105 .28694663 .1640625 .2788086 .18522136 .25211589 .20654297 .22819011 .22802735 .20703125 .24951172 .18587239 .26749674 .16902669 .28198243 .15649414L.30371095 .13769531 .3256836 .15649414C.34033204 .16902669 .3585612 .18587239 .3803711 .20703125 .402181 .22819011 .4235026 .25211589 .44433595 .2788086 .4202474 .28694663 .39453126 .29215495 .3671875 .2944336 .33984376 .29671226 .3186849 .29785157 .30371095 .29785157Z"/>
<path id="font_1_730" d="M.2241211 .52246096C.21728516 .52246096 .21142578 .52275088 .20654297 .5233307 .20166016 .5239207 .19596355 .52460739 .18945313 .5253906 .15625 .47916667 .09814453 .45377604 .015136719 .44921876L.0087890629 .4868164C.041341146 .4897461 .07014974 .49519859 .095214847 .5031738 .120279949 .5111491 .13867188 .5213216 .15039063 .5336914 .12760417 .53531906 .10660807 .54280599 .087402347 .55615237 .06819662 .5694987 .05859375 .59016928 .05859375 .61816409 .05859375 .63997396 .06624349 .65877279 .08154297 .67456057 .096842449 .6903483 .11604818 .6982422 .13916016 .6982422 .16227214 .6982422 .18147786 .6908366 .19677735 .6760254 .21207683 .6612142 .21972656 .64176437 .21972656 .6176758 .21972656 .5994466 .21533203 .57942709 .20654297 .5576172 .21110027 .5569661 .21826172 .55615237 .22802735 .5551758L.2241211 .52246096M.16748047 .5654297C.1710612 .5735677 .17415364 .5822754 .17675781 .59155276 .17936199 .6008301 .18066406 .609375 .18066406 .6171875 .18066406 .6295573 .17683919 .63948568 .16918946 .64697268 .16153972 .65445968 .15218099 .6582031 .14111328 .6582031 .12841797 .6582031 .11808268 .6538086 .11010742 .64501956 .102132167 .63623049 .09814453 .6266276 .09814453 .61621096 .09814453 .5996094 .10506185 .5880534 .118896488 .58154299 .13273113 .57503256 .14892578 .56966146 .16748047 .5654297Z"/>
<path id="font_1_1302" d="M.2841797 .10107422C.30859376 .107910159 .33040367 .1184082 .34960938 .13256836 .3688151 .14672852 .3839518 .1673991 .39501954 .19458008 .40608726 .22176107 .4116211 .25846354 .4116211 .3046875V.6723633H.49414063V.2788086C.49414063 .21663411 .5016276 .1694336 .51660159 .13720703 .5315755 .10498047 .5576172 .08886719 .59472659 .08886719H.6123047V0H.5932617C.5496419 0 .5161133 .010498047 .49267579 .03149414 .46923829 .052490236 .45214845 .08170573 .44140626 .119140628 .4140625 .07877604 .37394206 .048828126 .32104493 .029296875 .2681478 .009765625 .20654297 0 .13623047 0 .12288412 0 .10921224 .00032552085 .095214847 .0009765625 .081217449 .0016276041 .06705729 .0026041668 .052734376 .00390625V.087890628C.072916667 .08658854 .09000651 .0855306 .104003909 .0847168 .118001308 .08390299 .1319987 .083496097 .1459961 .083496097 .15934246 .083496097 .17097982 .08357748 .1809082 .083740238 .1908366 .08390299 .19905599 .084635417 .2055664 .0859375L.19824219 .13012696C.19335938 .1595866 .18522136 .19946289 .17382813 .24975586 .16243489 .30004884 .14689128 .35677085 .12719727 .41992188 .10750326 .4830729 .082845058 .54817709 .053222658 .6152344L.12890625 .6503906C.15820313 .5810547 .18286133 .5136719 .20288086 .4482422 .22290039 .3828125 .2388509 .3239746 .25073243 .27172853 .26261393 .21948242 .27115885 .17797852 .2763672 .1472168L.2841797 .10107422Z"/>
<path id="font_1_718" d="M.17382813 .1459961C.1920573 .20947266 .21590169 .25935874 .24536133 .2956543 .27482096 .33194987 .31510417 .35009767 .36621095 .35009767 .40071617 .35009767 .43147788 .3413086 .4584961 .32373048 .4855143 .30615235 .5069173 .28198243 .5227051 .2512207 .53849288 .22045899 .5463867 .1850586 .5463867 .14501953 .5463867 .10107422 .53426107 .06461588 .51000979 .03564453 .48575846 .0066731774 .4482422-.0078125 .39746095-.0078125 .37825523-.0078125 .35880534-.0047200524 .33911134 .0014648438 .31941734 .0076497399 .3005371 .014729817 .2824707 .022705079 .2644043 .030680338 .24788411 .037760419 .23291016 .043945314 .2179362 .050130208 .20540364 .053222658 .1953125 .053222658 .17708333 .053222658 .16333008 .047281904 .15405274 .03540039 .14477539 .02351888 .1385905 .0034179688 .13549805-.024902344 .1324056-.053222658 .13085938-.092447917 .13085938-.14257813 .13085938-.16471355 .13110352-.18448894 .1315918-.2019043 .13208008-.21931966 .13289388-.23649089 .1340332-.25341798 .13517253-.27034507 .13639324-.28955079 .13769531-.31103517H.053710939C.052083333-.28108726 .05078125-.25301109 .049804689-.22680664 .048828126-.20060222 .048339845-.17415364 .048339845-.14746094 .048339845-.1110026 .049397787-.07633463 .051513673-.04345703 .05362956-.010579427 .05867513 .01912435 .06665039 .045654298 .07462565 .07218424 .08707682 .0941569 .104003909 .111572269 .12093099 .12898763 .14420574 .14046224 .17382813 .1459961M.4638672 .14550781C.4638672 .17903646 .45491538 .20711263 .43701173 .22973633 .41910807 .25236003 .39615885 .26367188 .36816407 .26367188 .34798179 .26367188 .33089195 .2574056 .31689454 .24487305 .30289714 .2323405 .29117839 .21590169 .28173829 .19555664 .2722982 .1752116 .2639974 .15348308 .25683595 .1303711 .29231773 .114746097 .32185874 .10245768 .34545899 .09350586 .36905924 .08455404 .38671876 .080078128 .3984375 .080078128 .4202474 .080078128 .43660484 .08601888 .44750978 .09790039 .4584147 .1097819 .4638672 .12565105 .4638672 .14550781Z"/>
<path id="font_1_677" d="M.0703125 .7080078C.059244794 .7164714 .049804689 .726237 .041992189 .7373047 .034179689 .7483724 .030273438 .7635091 .030273438 .78271487 .030273438 .81070968 .039957685 .8336589 .059326173 .8515625 .078694667 .8694661 .100748699 .87841799 .12548828 .87841799 .14697266 .87841799 .16666667 .87320968 .18457031 .86279299V.8144531C.17451985 .81966146 .16512044 .8229167 .15637207 .82421877 .1476237 .8255208 .13952129 .8261719 .13206482 .8261719 .11813863 .8261719 .105260219 .8219401 .093429569 .81347659 .081598918 .805013 .075683597 .79264327 .075683597 .7763672 .075683597 .76627609 .08066813 .756429 .09063721 .7468262 .100606288 .7372233 .11473592 .73372396 .13302613 .7363281 .13368733 .7363281 .13442485 .7364909 .13523865 .7368164 .13605245 .7371419 .13695272 .73746749 .13793946 .73779299L.20263672 .76123049 .20947266 .7128906 .0234375 .63916018 .016601563 .6870117 .0703125 .7080078M.15722656 .609375V.0009765625H.07470703V.609375H.15722656Z"/>
<path id="font_1_1206" d="M.2944336 .62060549 .36523438 .5498047 .2944336 .4790039 .22363281 .5498047 .2944336 .62060549M-.009765625 .08886719H.07324219C.111328128 .08886719 .14632161 .092290248 .17822266 .09913635 .2101237 .10599264 .24129232 .11545309 .27172853 .1275177 .3021647 .13959249 .33406578 .15386963 .36743165 .17034912 .40079753 .18682862 .43815104 .20452881 .4794922 .2234497 .45638023 .2319336 .43245445 .2411499 .40771485 .25109864 .38297526 .26104737 .3594564 .27042643 .3371582 .27923585 .31486003 .28804527 .29541017 .29530335 .2788086 .30101014 .26220704 .30671693 .25048829 .3095703 .24365235 .3095703 .22379558 .3095703 .20629883 .30377708 .19116211 .29219056 .17602539 .28061424 .16210938 .2666677 .14941406 .25035096L.13623047 .23371887 .061523439 .27043153 .068847659 .28215028C.09033203 .31700135 .11531576 .34493003 .14379883 .36593629 .1722819 .38695274 .20572917 .39746095 .24414063 .39746095 .26009117 .39746095 .27937828 .39335633 .30200196 .3851471 .32462565 .37693788 .34928385 .36667887 .37597657 .35437013 .40266929 .34206138 .43033854 .32958476 .45898438 .3169403 .48763023 .30430604 .51627609 .29364015 .5449219 .28494264 .5735677 .27624513 .60091146 .27189637 .6269531 .27189637V.18673706C.6061198 .18445842 .5795085 .17687989 .54711917 .16400147 .5147298 .15113323 .47265626 .13101197 .42089845 .103637699 .37923179 .08147176 .34057618 .0626475 .30493165 .047164918 .2692871 .031692506 .23299153 .019963583 .19604492 .011978149 .15909831 .0039927165 .11767578 0 .071777347 0H-.009765625V.08886719Z"/>
<path id="font_1_1211" d="M.24609375 .6933594 .31689454 .6225586 .24609375 .5517578 .17529297 .6225586 .24609375 .6933594M.32910157 .17773438C.32910157 .18619792 .32722984 .19718425 .32348634 .21069336 .31974284 .22420247 .31526695 .2368164 .3100586 .24853516L.22363281 .44433595 .2998047 .47998048 .41064454 .21923828C.4256185 .18408203 .4387207 .1570638 .44995118 .1381836 .46118165 .11930338 .47224937 .10636393 .4831543 .099365238 .49405924 .09236654 .50651046 .08886719 .5205078 .08886719H.5410156V0H.5205078C.49479167 0 .47387696 .003092448 .45776368 .009277344 .4416504 .015462239 .42773438 .024739584 .41601563 .037109376 .40429688 .049479169 .39241538 .065104167 .3803711 .083984378 .35758464 .055338544 .3285319 .034261068 .2932129 .020751954 .2578939 .0072428386 .21386719 .00048828127 .16113281 .00048828127 .13834636 .00048828127 .11783854 .001546224 .099609378 .0036621094 .08138021 .0057779948 .0641276 .0087890629 .047851564 .0126953129V.10107422C.08528646 .092285159 .12060547 .087890628 .1538086 .087890628 .27067057 .087890628 .32910157 .11783854 .32910157 .17773438Z"/>
<path id="font_2_85" d="M.38085938 .3798828H.34179688C.33561198 .38736979 .3282064 .39379884 .31958009 .39916993 .31095378 .40454103 .30045573 .40722657 .28808595 .40722657 .2721354 .40722657 .25577799 .40169273 .23901367 .390625 .22224935 .37955729 .20524089 .36442057 .18798828 .34521485V.063964847C.18798828 .04996745 .19498699 .04264323 .20898438 .041992189L.27490235 .0390625V0H.024902344V.038085939L.07421875 .041992189C.080078128 .04264323 .08504232 .044921876 .08911133 .048828126 .093180339 .052734376 .095214847 .05777995 .095214847 .063964847V.4111328H.022949219V.44384767L.14697266 .4819336H.18798828V.3930664C.2163086 .425944 .2409668 .45100913 .2619629 .46826173 .28295899 .4855143 .3022461 .49414063 .31982423 .49414063 .33024089 .49414063 .34147135 .49251304 .35351563 .4892578 .3655599 .4860026 .37467448 .48258464 .38085938 .4790039V.3798828Z"/>
<path id="font_2_72" d="M.26611329-.012207031C.2257487-.012207031 .1879069-.0031738282 .15258789 .014892578 .11726888 .032958986 .08870443 .060384115 .06689453 .09716797 .045084638 .13395183 .034179689 .18017578 .034179689 .23583985 .034179689 .2879232 .044270833 .33333335 .064453128 .3720703 .084635417 .41080729 .112467449 .44083659 .14794922 .4621582 .18343099 .48347984 .22379558 .49414063 .26904298 .49414063 .33121745 .49414063 .3779297 .47485353 .4091797 .4362793 .4404297 .39770509 .4560547 .3486328 .4560547 .2890625 .4560547 .28580729 .4560547 .28149415 .4560547 .27612306 .4560547 .27075196 .45572917 .26578776 .45507813 .26123048H.13085938C.13085938 .23583985 .13354492 .2105306 .13891602 .18530274 .14428711 .16007488 .15332031 .13720703 .16601563 .11669922 .17871094 .096191409 .19580078 .0797526 .21728516 .06738281 .23876953 .05501302 .265625 .048828126 .29785157 .048828126 .3264974 .048828126 .3544108 .055419923 .3815918 .068603519 .4087728 .08178711 .43359376 .09586588 .4560547 .110839847V.049804689C.4280599 .032552083 .39786784 .017903647 .36547853 .005859375 .3330892-.006184896 .29996745-.012207031 .26611329-.012207031M.13623047 .30615235H.35595704V.328125C.35595704 .3610026 .34806315 .38867188 .3322754 .4111328 .31648765 .43359376 .2919922 .44482423 .25878907 .44482423 .22591146 .44482423 .19791667 .43245445 .17480469 .40771485 .1516927 .38297526 .13883464 .3491211 .13623047 .30615235Z"/>
<path id="font_2_83" d="M.52490237 .24804688C.52490237 .19563802 .5148112 .14990235 .4946289 .110839847 .47444663 .071777347 .44547526 .041503908 .40771485 .020019532 .36995445-.0014648438 .32470704-.012207031 .27197267-.012207031 .2569987-.012207031 .2421875-.011230469 .22753906-.009277344 .21289063-.0073242189 .19807942-.0052083337 .18310547-.0029296876V-.15185547C.18310547-.15804036 .18522136-.16292317 .18945313-.1665039 .19368489-.17008464 .19889324-.17220052 .20507813-.17285156L.26416017-.17919922V-.21777344H.020996094V-.17919922L.068847659-.17285156C.082845058-.17122396 .08984375-.16422527 .08984375-.15185547V.4111328H.020996094V.44384767L.14404297 .4819336H.18310547V.4321289C.20589192 .44970704 .23046875 .46443687 .25683595 .47631837 .28320313 .48819987 .30891929 .49414063 .33398438 .49414063 .3684896 .49414063 .40014649 .4839681 .42895509 .46362306 .45776368 .44327799 .48095704 .41471354 .49853517 .3779297 .5161133 .34114585 .52490237 .29785157 .52490237 .24804688M.4248047 .23388672C.4248047 .26839195 .41951499 .29996745 .40893556 .32861329 .3983561 .35725913 .3827311 .3802897 .36206056 .39770509 .34138999 .41512046 .31575523 .42382813 .28515626 .42382813 .26822917 .42382813 .25065104 .4207357 .23242188 .41455079 .2141927 .40836589 .1977539 .40152995 .18310547 .39404298V.049804689C.21044922 .03938802 .23746746 .034179689 .26416017 .034179689 .300944 .034179689 .33113609 .043619794 .35473634 .0625 .37833659 .08138021 .3959147 .106038417 .4074707 .13647461 .4190267 .16691081 .4248047 .19938152 .4248047 .23388672Z"/>
<path id="font_2_79" d="M.27001954 0H.026855469V.0390625L.080078128 .041992189C.084635417 .042317708 .08943685 .044840497 .09448242 .049560548 .09952799 .054280599 .10205078 .05875651 .10205078 .06298828V.66503909H.025878907V.6982422L.1538086 .7368164H.19482422V.06298828C.19482422 .05875651 .19726563 .054280599 .20214844 .049560548 .20703125 .044840497 .21158855 .042317708 .21582031 .041992189L.27001954 .0390625V0Z"/>
<path id="font_2_68" d="M.4921875 0H.34423829L.3310547 .05908203C.31835938 .048990888 .30257163 .038411458 .2836914 .02734375 .2648112 .016276041 .24495442 .006917318 .2241211-.0007324219 .20328777-.008382161 .18326824-.012207031 .1640625-.012207031 .12792969-.012207031 .09724935-.00016276042 .072021488 .023925782 .04679362 .048014326 .034179689 .08105469 .034179689 .123046878 .034179689 .14160156 .037516279 .15885417 .044189454 .17480469 .05086263 .1907552 .064208988 .20597331 .084228519 .22045899 .10424805 .23494466 .1340332 .24910482 .17358399 .26293946 .21313477 .27677409 .265625 .29085288 .3310547 .30517579 .3310547 .30745445 .3310547 .31306968 .3310547 .32202149 .3310547 .3309733 .3310547 .339681 .3310547 .34814454 .3310547 .41389976 .29996745 .44677735 .23779297 .44677735 .22054036 .44677735 .20564778 .44514976 .19311524 .44189454 .18058269 .4386393 .171875 .43603517 .16699219 .43408204V.34716798H.09423828C.085123699 .34716798 .076660159 .34887696 .068847659 .35229493 .061035158 .3557129 .057128908 .36360679 .057128908 .37597657 .057128908 .4033203 .06754557 .42569987 .088378909 .44311524 .10921224 .4605306 .13566081 .47338868 .16772461 .48168946 .1997884 .48999024 .23225911 .49414063 .26513673 .49414063 .30647788 .49414063 .33854167 .48771159 .36132813 .47485353 .3841146 .46199546 .4000651 .44425456 .4091797 .42163087 .41829429 .39900718 .42285157 .37320964 .42285157 .34423829V.063964847C.42285157 .05777995 .42488609 .052652997 .42895509 .048583986 .43302409 .044514974 .43798829 .042317708 .44384767 .041992189L.4921875 .0390625V0M.3310547 .09423828V.26708985C.2861328 .25602214 .2504069 .24487305 .22387696 .23364258 .197347 .22241211 .17757161 .21118164 .16455078 .19995117 .15152996 .1887207 .14298503 .17732747 .13891602 .16577149 .134847 .1542155 .1328125 .14225261 .1328125 .12988281 .1328125 .109375 .1394043 .090413417 .15258789 .07299805 .16577149 .055582685 .1842448 .046875 .20800781 .046875 .22753906 .046875 .2491862 .052246095 .27294923 .06298828 .29671226 .07373047 .31608073 .08414713 .3310547 .09423828Z"/>
<path id="font_2_70" d="M.4321289 .037109376C.40966798 .025065104 .38435874 .013834636 .35620118 .0034179688 .3280436-.0069986979 .29703776-.012207031 .2631836-.012207031 .21663411-.012207031 .17618816-.0013020834 .1418457 .020507813 .10750326 .042317708 .080973308 .072021488 .06225586 .10961914 .04353841 .1472168 .034179689 .1899414 .034179689 .23779297 .034179689 .29378257 .045328779 .3408203 .06762695 .37890626 .08992513 .4169922 .119384769 .4457194 .15600586 .4650879 .19262696 .4844564 .23225911 .49414063 .27490235 .49414063 .31884767 .49414063 .3557129 .4855957 .38549806 .46850587 .4152832 .45141603 .43017579 .42659507 .43017579 .39404298 .43017579 .37451173 .42407228 .3597819 .41186524 .34985353 .3996582 .33992515 .38606773 .33496095 .37109376 .33496095 .36002604 .33496095 .3504232 .33683268 .34228517 .34057618 .33414714 .34431968 .3269857 .34814454 .32080079 .35205079V.43896485C.3055013 .4477539 .2915039 .45214845 .2788086 .45214845 .2491862 .45214845 .22371419 .44344078 .20239258 .4260254 .18107097 .40861003 .16471355 .38476563 .15332031 .3544922 .14192708 .32421876 .13623047 .28971354 .13623047 .25097657 .13623047 .2141927 .14241536 .18058269 .15478516 .15014649 .16715496 .11971029 .18562825 .09554037 .21020508 .07763672 .2347819 .059733076 .26529948 .05078125 .3017578 .05078125 .32486979 .05078125 .34700523 .05452474 .36816407 .06201172 .3893229 .069498699 .41064454 .08024088 .4321289 .09423828V.037109376Z"/>
<path id="font_2_80" d="M.828125 0H.6040039V.0390625L.6459961 .041992189C.65999349 .04296875 .6669922 .05029297 .6669922 .063964847V.31884767C.6669922 .34977214 .6605632 .37451173 .6477051 .3930664 .634847 .4116211 .6116536 .42089845 .578125 .42089845 .56152346 .42089845 .5433757 .41829429 .52368167 .41308595 .5039876 .4078776 .48649089 .40120445 .4711914 .3930664V.063964847C.4711914 .05029297 .4781901 .04296875 .4921875 .041992189L.5341797 .0390625V0H.3149414V.0390625L.3569336 .041992189C.370931 .04296875 .3779297 .05029297 .3779297 .063964847V.3251953C.3779297 .35351563 .3712565 .37654624 .35791017 .3942871 .3445638 .41202799 .3219401 .42089845 .29003907 .42089845 .27115885 .42089845 .25146485 .4177246 .23095703 .41137696 .21044922 .4050293 .1944987 .39860026 .18310547 .39208985V.063964847C.18310547 .05029297 .19010417 .04296875 .20410156 .041992189L.24609375 .0390625V0H.020019532V.0390625L.068847659 .041992189C.082845058 .04296875 .08984375 .05029297 .08984375 .063964847V.4111328H.020996094V.44384767L.14208985 .4819336H.18310547V.4321289C.19807942 .4412435 .21492513 .45052085 .23364258 .45996095 .25236003 .46940104 .27148438 .47745768 .29101563 .48413087 .31054688 .49080406 .3289388 .49414063 .3461914 .49414063 .37516276 .49414063 .39860026 .48673503 .4165039 .47192384 .43440757 .45711265 .44759117 .44140626 .4560547 .4248047 .46940104 .43326823 .48632813 .44295249 .50683596 .45385743 .52734377 .46476237 .548584 .47420249 .57055667 .48217774 .5925293 .49015299 .6123047 .49414063 .6298828 .49414063 .66503909 .49414063 .69189456 .48608399 .7104492 .4699707 .7290039 .45385743 .7416992 .43400065 .74853518 .4104004 .7553711 .38680015 .75878909 .36360679 .75878909 .3408203V.063964847C.75878909 .05777995 .76082357 .052652997 .7648926 .048583986 .7689616 .044514974 .7739258 .042317708 .77978518 .041992189L.828125 .0390625V0Z"/>
<path id="font_2_81" d="M.546875 0H.32617188V.0390625L.36816407 .041992189C.37402345 .04264323 .37898765 .044921876 .38305665 .048828126 .38712565 .052734376 .38916017 .05777995 .38916017 .063964847V.32421876C.38916017 .35579429 .38183595 .37980143 .3671875 .39624024 .35253907 .41267906 .32779948 .42089845 .29296876 .42089845 .27408854 .42089845 .2552897 .4182129 .23657227 .4128418 .21785482 .4074707 .20003255 .40055339 .18310547 .39208985V.063964847C.18310547 .05029297 .19010417 .04296875 .20410156 .041992189L.24609375 .0390625V0H.020019532V.0390625L.068847659 .041992189C.082845058 .04296875 .08984375 .05029297 .08984375 .063964847V.4111328H.020019532V.44384767L.14208985 .4819336H.18310547V.4321289C.21110027 .44807945 .23982747 .46240235 .2692871 .47509767 .29874674 .48779298 .32503257 .49414063 .34814454 .49414063 .3917643 .49414063 .42496745 .48055015 .4477539 .45336915 .47054038 .42618815 .4819336 .38834635 .4819336 .33984376V.063964847C.4819336 .05777995 .4839681 .052734376 .4880371 .048828126 .4921061 .044921876 .4970703 .04264323 .5029297 .041992189L.546875 .0390625V0Z"/>
<path id="font_2_87" d="M.3330078 .020996094C.31966148 .013834636 .30037437 .0065104167 .27514649-.0009765625 .24991863-.008463542 .22428386-.012207031 .19824219-.012207031 .1608073-.012207031 .13354492-.0033365887 .11645508 .014404297 .099365238 .032145185 .09082031 .060709638 .09082031 .100097659V.4321289H.026855469V.46484376L.095214847 .4970703 .14013672 .60302737H.18408203V.4819336H.3251953V.4321289H.18408203V.15283203C.18408203 .11311849 .1907552 .08504232 .20410156 .068603519 .21744792 .052164716 .23746746 .043945314 .26416017 .043945314 .27848307 .043945314 .2919922 .045898439 .3046875 .049804689 .3173828 .053710939 .3268229 .057454427 .3330078 .061035158V.020996094Z"/>
<path id="font_2_180" d="M.39208985 .70214846C.38264976 .69108077 .37141929 .6780599 .35839845 .66308596 .3453776 .648112 .33390299 .6312663 .3239746 .6125488 .31404624 .59383139 .30908204 .5732422 .30908204 .55078127 .30908204 .54752609 .30924479 .5440267 .3095703 .5402832 .30989585 .53653976 .3100586 .5333659 .3100586 .5307617H.37304688L.38061524 .5197754C.3856608 .5124512 .3881836 .5032552 .3881836 .4921875 .3881836 .4752604 .38264976 .46069337 .37158204 .44848634 .3605143 .4362793 .34602867 .43017579 .328125 .43017579 .30208335 .43017579 .28173829 .4388021 .26708985 .4560547 .2524414 .47330729 .24511719 .4962565 .24511719 .52490237 .24511719 .5489909 .24951172 .5710449 .25830079 .59106448 .26708985 .611084 .27775065 .62890627 .2902832 .64453127 .30281578 .66015627 .31510417 .67333987 .32714845 .68408206 .33919273 .6948242 .34847007 .703125 .35498048 .7089844L.39208985 .70214846M.18603516 .70214846C.16617839 .6822917 .14737956 .65966799 .12963867 .63427737 .11189779 .6088867 .103027347 .5807292 .103027347 .5498047 .103027347 .5465495 .1031901 .5432129 .103515628 .5397949 .10384115 .53637698 .104003909 .5333659 .104003909 .5307617H.16699219L.17456055 .5202637C.17960613 .51326498 .1821289 .50358077 .1821289 .49121095 .1821289 .47428385 .17667644 .45987956 .16577149 .44799806 .15486653 .43611656 .14029949 .43017579 .12207031 .43017579 .096354167 .43017579 .07609049 .43847657 .061279298 .45507813 .046468099 .4716797 .0390625 .49430339 .0390625 .5229492 .0390625 .5473633 .04345703 .56974288 .052246095 .5900879 .061035158 .6104329 .07169596 .6284993 .084228519 .6442871 .09676107 .6600749 .10904948 .67333987 .12109375 .68408206 .13313802 .6948242 .14241536 .703125 .14892578 .7089844L.18603516 .70214846Z"/>
<path id="font_2_55" d="M.5830078 .51123049H.5239258L.5097656 .60498049C.507487 .6163737 .5019531 .6220703 .49316407 .6220703H.35009767V.068847659C.35009767 .063964847 .35180665 .059244794 .3552246 .0546875 .35864259 .050130208 .36393229 .047526044 .37109376 .046875L.4350586 .04296875V0H.1640625V.04296875L.22802735 .046875C.2351888 .047526044 .24047852 .050130208 .24389649 .0546875 .24731446 .059244794 .24902344 .063964847 .24902344 .068847659V.6220703H.10498047C.094563808 .6220703 .08886719 .6163737 .087890628 .60498049L.07421875 .51123049H.016113282V.67089846H.5830078V.51123049Z"/>
<path id="font_2_75" d="M.55078127 0H.328125V.0390625L.36914063 .041992189C.375 .04264323 .38012696 .044921876 .38452149 .048828126 .38891603 .052734376 .39111329 .05777995 .39111329 .063964847V.32177735C.39111329 .3504232 .38427735 .37410484 .37060548 .39282228 .3569336 .4115397 .33072917 .42089845 .2919922 .42089845 .27441407 .42089845 .25545249 .4181315 .23510742 .41259767 .21476238 .4070638 .19742839 .40022788 .18310547 .39208985V.063964847C.18310547 .05029297 .18977864 .04296875 .203125 .041992189L.24609375 .0390625V0H.020996094V.0390625L.068847659 .041992189C.082845058 .04296875 .08984375 .05029297 .08984375 .063964847V.66503909H.015136719V.6982422L.1430664 .7368164H.18310547V.4321289C.19514974 .43961589 .21077474 .4481608 .22998047 .45776368 .2491862 .46736656 .2693685 .47583009 .29052735 .4831543 .3116862 .49047853 .33089195 .49414063 .34814454 .49414063 .386556 .49414063 .41878257 .48177085 .44482423 .45703126 .47086589 .43229167 .48388673 .39420573 .48388673 .34277345V.063964847C.48388673 .05777995 .48608399 .052734376 .49047853 .048828126 .49487306 .044921876 .5 .04264323 .5058594 .041992189L.55078127 .0390625V0Z"/>
<path id="font_2_69" d="M.5209961 .26416017C.5209961 .21402996 .5110677 .16902669 .49121095 .12915039 .47135417 .089274089 .44026695 .05777995 .39794923 .03466797 .3556315 .011555989 .300944 0 .23388672 0H.08984375V.66503909H.014160156V.6982422L.1430664 .7368164H.18310547V.45703126C.1944987 .4625651 .212972 .47013346 .23852539 .47973634 .26407878 .4893392 .2915039 .49414063 .32080079 .49414063 .3647461 .49414063 .40152995 .4835612 .43115235 .46240235 .46077476 .4412435 .4831543 .41316734 .49829103 .37817384 .51342776 .34318034 .5209961 .30517579 .5209961 .26416017M.4189453 .24414063C.4189453 .30729167 .40559898 .35489909 .37890626 .3869629 .35221354 .4190267 .31461589 .4350586 .26611329 .4350586 .25504557 .4350586 .2409668 .43326823 .22387696 .4296875 .20678711 .42610679 .19319661 .42252604 .18310547 .4189453V.047851564C.19124349 .047526044 .19938152 .047281904 .20751953 .04711914 .21565755 .04695638 .22379558 .046875 .2319336 .046875 .29117839 .046875 .3371582 .061523439 .36987306 .09082031 .4025879 .12011719 .4189453 .17122396 .4189453 .24414063Z"/>
<path id="font_2_82" d="M.5097656 .24023438C.5097656 .19303386 .5 .15030925 .48046876 .11206055 .4609375 .07381185 .4333496 .04353841 .39770509 .021240235 .36206056-.0010579428 .31982423-.012207031 .2709961-.012207031 .22249349-.012207031 .1805013-.0011393229 .14501953 .020996094 .10953776 .04313151 .08219401 .07324219 .06298828 .111328128 .04378255 .14941406 .034179689 .19238281 .034179689 .24023438 .034179689 .2877604 .043863935 .33072917 .06323242 .36914063 .082600917 .4075521 .11027018 .43798829 .14624024 .46044923 .18221028 .48291017 .22477214 .49414063 .27392579 .49414063 .32373048 .49414063 .36621095 .4827474 .4013672 .45996095 .43652345 .43717448 .4633789 .40657554 .4819336 .36816407 .5004883 .3297526 .5097656 .28710938 .5097656 .24023438M.40576173 .24121094C.40576173 .27766929 .4009603 .3116862 .39135743 .34326173 .38175456 .37483726 .3671061 .40039063 .3474121 .41992188 .3277181 .43945313 .30289714 .44921876 .27294923 .44921876 .24202474 .44921876 .2167155 .43945313 .19702149 .41992188 .17732747 .40039063 .16276042 .37483726 .15332031 .34326173 .1438802 .3116862 .13916016 .27766929 .13916016 .24121094 .13916016 .20507813 .1439616 .17114258 .15356446 .1394043 .16316732 .107666019 .17781575 .08203125 .19750977 .0625 .21720378 .04296875 .24202474 .033203126 .27197267 .033203126 .30257163 .033203126 .3277181 .04296875 .3474121 .0625 .3671061 .08203125 .38175456 .10758463 .39135743 .13916016 .4009603 .17073567 .40576173 .20475261 .40576173 .24121094Z"/>
<path id="font_2_92" d="M.52001956 .4428711 .46777345 .43701173 .2758789-.030761719C.27164714-.041503908 .26505534-.056884767 .25610353-.0769043 .24715169-.09692383 .23657227-.11743164 .22436524-.13842774 .2121582-.15942383 .19905599-.17692058 .1850586-.19091797 .17301433-.20296224 .15974935-.21232097 .14526367-.21899414 .130778-.22566732 .11507162-.2290039 .09814453-.2290039 .07438151-.2290039 .056233724-.2232259 .043701173-.21166992 .03116862-.20011394 .024902344-.18684896 .024902344-.171875 .024902344-.14973958 .03564453-.12972005 .057128908-.111816409L.1508789-.15478516C.16194661-.14371746 .17301433-.12874349 .18408203-.10986328 .19514974-.09098307 .2051595-.07145182 .21411133-.05126953 .22306316-.03108724 .22998047-.013671875 .23486328 .0009765625L.064941409 .43701173 .009765625 .4428711V.4819336H.23095703V.4428711L.18310547 .4399414C.17757161 .43961589 .1730957 .43725587 .16967774 .43286134 .16625977 .4284668 .16569011 .4235026 .16796875 .41796876L.2841797 .123046878 .40283204 .41796876C.4051107 .4231771 .40478517 .4280599 .40185548 .4326172 .39892579 .43717448 .394694 .43961589 .38916017 .4399414L.34179688 .4428711V.4819336H.52001956V.4428711Z"/>
<path id="font_2_78" d="M.5239258 0H.36376954V.0390625L.23876953 .22705078H.18310547V.063964847C.18310547 .05029297 .19010417 .04296875 .20410156 .041992189L.24707031 .0390625V0H.020019532V.0390625L.068847659 .041992189C.082845058 .04296875 .08984375 .05029297 .08984375 .063964847V.66503909H.014160156V.6982422L.14208985 .7368164H.18310547V.25585938H.203125L.35009767 .421875C.3527018 .42513023 .35310874 .42871095 .35131837 .4326172 .34952799 .43652345 .34635417 .4386393 .34179688 .43896485L.30078126 .4428711V.4819336H.4951172V.4428711L.43115235 .43603517 .29882813 .29492188 .4711914 .044921876 .5239258 .0390625V0Z"/>
<path id="font_2_86" d="M.3491211 .35302735H.296875L.2890625 .42285157C.28190104 .4283854 .27132163 .43359376 .25732423 .43847657 .24332683 .44335938 .22851563 .44580079 .21289063 .44580079 .18554688 .44580079 .16520183 .43953453 .15185547 .42700196 .13850911 .4144694 .13183594 .3984375 .13183594 .37890626 .13183594 .36393229 .1352539 .35123698 .14208985 .3408203 .14892578 .33040367 .16048177 .3202311 .17675781 .31030274 .19303386 .30037437 .21516927 .28889976 .24316406 .2758789 .27799479 .25992839 .30680339 .24226888 .32958985 .22290039 .3523763 .2035319 .36376954 .17757161 .36376954 .14501953 .36376954 .09586588 .34684245 .057373048 .31298829 .029541016 .27913413 .0017089844 .23242188-.012207031 .17285156-.012207031 .14225261-.012207031 .11401367-.009033203 .088134769-.0026855469 .06225586 .0036621094 .044270833 .008951823 .034179689 .013183594V.1459961H.08496094L.09716797 .061035158C.10725912 .05452474 .11971029 .048258466 .13452149 .042236329 .14933269 .03621419 .1665039 .033203126 .18603516 .033203126 .21468099 .033203126 .2368164 .041178388 .2524414 .057128908 .2680664 .07307943 .2758789 .09098307 .2758789 .110839847 .2758789 .13688152 .2652181 .15730794 .24389649 .17211914 .22257488 .18693035 .19254558 .20361328 .1538086 .22216797 .11735026 .2397461 .08943685 .2578125 .07006836 .2763672 .05069987 .29492188 .041015626 .3191732 .041015626 .3491211 .041015626 .39371745 .056640626 .42903648 .087890628 .45507813 .119140628 .48111979 .16357422 .49414063 .2211914 .49414063 .25048829 .49414063 .27661134 .49145509 .29956056 .48608399 .32250978 .4807129 .33902995 .4757487 .3491211 .4711914V.35302735Z"/>
<path id="font_2_76" d="M.21777344 .64697268C.21777344 .6300456 .21191406 .6154785 .20019531 .6032715 .18847656 .59106448 .17415364 .58496096 .15722656 .58496096 .14029949 .58496096 .12573242 .59106448 .11352539 .6032715 .10131836 .6154785 .095214847 .6300456 .095214847 .64697268 .095214847 .6642253 .10131836 .67871096 .11352539 .6904297 .12573242 .70214846 .14029949 .7080078 .15722656 .7080078 .17415364 .7080078 .18847656 .70214846 .20019531 .6904297 .21191406 .67871096 .21777344 .6642253 .21777344 .64697268M.26904298 0H.034179689V.0390625L.08300781 .041992189C.09700521 .04296875 .104003909 .05029297 .104003909 .063964847V.42089845H.03515625V.4560547L.15722656 .49414063H.19677735V.063964847C.19677735 .05777995 .19881185 .052652997 .20288086 .048583986 .20694988 .044514974 .21191406 .042317708 .21777344 .041992189L.26904298 .0390625V0Z"/>
<path id="font_2_74" d="M.5078125 .41503907H.40820313C.4156901 .40299479 .42203776 .3898112 .4272461 .37548829 .43245445 .36116538 .4350586 .34440104 .4350586 .3251953 .4350586 .29003907 .4248047 .26017253 .40429688 .2355957 .38378907 .21101888 .35717774 .19278972 .3244629 .1809082 .29174806 .16902669 .2566732 .16438802 .21923828 .16699219 .21402996 .15852864 .21085613 .1492513 .2097168 .13916016 .20857747 .12906902 .20841472 .120279949 .20922852 .11279297 .21004232 .10530599 .21061199 .10107422 .2109375 .100097659 .22884114 .09814453 .2495931 .09586588 .27319337 .09326172 .2967936 .090657558 .3207194 .08658854 .3449707 .08105469 .36922203 .075520839 .3917643 .067871097 .41259767 .05810547 .433431 .048339845 .4501953 .03548177 .46289063 .01953125 .47558595 .0035807293 .4819336-.016276041 .4819336-.040039064 .4819336-.071614589 .4703776-.10180664 .44726563-.13061524 .42415367-.15942383 .39298503-.1830241 .35375978-.20141602 .31453453-.21980794 .27067057-.2290039 .22216797-.2290039 .16259766-.2290039 .116373699-.2154134 .083496097-.18823242 .05061849-.16105144 .034179689-.12727864 .034179689-.08691406 .034179689-.057942708 .04280599-.032145185 .060058595-.009521484 .077311199 .013102214 .104003909 .027669272 .14013672 .034179689 .13655599 .044596357 .13395183 .052083333 .13232422 .056640626 .13069661 .061197919 .12988281 .069010417 .12988281 .080078128 .12988281 .09309896 .13387044 .10750326 .1418457 .123291019 .14982097 .13907878 .16259766 .15592449 .18017578 .17382813 .14697266 .18131511 .118001308 .19816081 .09326172 .22436524 .06852213 .25056968 .056152345 .28385417 .056152345 .32421876 .056152345 .3766276 .07462565 .41805015 .111572269 .44848634 .14851888 .47892253 .19694011 .49414063 .25683595 .49414063 .28059898 .49414063 .30265299 .49064128 .32299806 .48364259 .3433431 .4766439 .36002604 .4700521 .37304688 .4638672H.5078125V.41503907M.33984376 .3310547C.33984376 .35221354 .33626304 .3720703 .32910157 .390625 .3219401 .4091797 .31152345 .42423503 .29785157 .43579103 .2841797 .44734703 .2672526 .453125 .24707031 .453125 .21907552 .453125 .19620769 .44230143 .1784668 .4206543 .1607259 .39900718 .15185547 .3688151 .15185547 .33007813 .15185547 .29654948 .15983074 .26782228 .17578125 .24389649 .19173177 .2199707 .2154948 .20800781 .24707031 .20800781 .27701823 .20800781 .29996745 .22005208 .31591798 .24414063 .3318685 .26822917 .33984376 .29720054 .33984376 .3310547M.3959961-.06689453C.3959961-.0460612 .38875328-.029947916 .37426759-.018554688 .3597819-.0071614587 .34179688 .0013020834 .3203125 .0068359377 .29882813 .012369792 .277181 .016357422 .2553711 .018798829 .2335612 .021240235 .21516927 .023925782 .20019531 .026855469 .17122396 .016438803 .15128581 .0022786458 .14038086-.015625 .1294759-.033528646 .12402344-.05061849 .12402344-.06689453 .12402344-.082845058 .12866211-.099853519 .13793946-.11791992 .1472168-.13598633 .16153972-.15136719 .1809082-.1640625 .20027669-.17675781 .22493489-.18310547 .2548828-.18310547 .28678385-.18310547 .31315104-.17675781 .33398438-.1640625 .35481773-.15136719 .37036134-.13598633 .38061524-.11791992 .39086915-.099853519 .3959961-.082845058 .3959961-.06689453Z"/>
<path id="font_2_29" d="M.19580078 .4267578C.19580078 .40852867 .18912761 .39282228 .17578125 .37963868 .16243489 .36645509 .14648438 .35986329 .12792969 .35986329 .109375 .35986329 .09358724 .36645509 .080566409 .37963868 .06754557 .39282228 .061035158 .40852867 .061035158 .4267578 .061035158 .4453125 .06754557 .46118165 .080566409 .47436524 .09358724 .48754884 .109375 .49414063 .12792969 .49414063 .14648438 .49414063 .16243489 .48754884 .17578125 .47436524 .18912761 .46118165 .19580078 .4453125 .19580078 .4267578M.19580078 .05517578C.19580078 .036621095 .18912761 .020751954 .17578125 .0075683596 .16243489-.0056152346 .14648438-.012207031 .12792969-.012207031 .109375-.012207031 .09358724-.0056152346 .080566409 .0075683596 .06754557 .020751954 .061035158 .036621095 .061035158 .05517578 .061035158 .073404949 .06754557 .08911133 .080566409 .10229492 .09358724 .115478519 .109375 .12207031 .12792969 .12207031 .14648438 .12207031 .16243489 .115478519 .17578125 .10229492 .18912761 .08911133 .19580078 .073404949 .19580078 .05517578Z"/>
<path id="font_2_181" d="M.4140625 .61621096C.4140625 .5917969 .40966798 .5694173 .4008789 .54907229 .39208985 .52872726 .38142906 .5106608 .36889649 .49487306 .35636393 .4790853 .34407554 .4658203 .33203126 .45507813 .31998698 .44433595 .31070964 .43603517 .30419923 .43017579L.26708985 .43798829C.28727214 .45817057 .3063151 .48079429 .32421876 .5058594 .3421224 .5309245 .35107423 .55891928 .35107423 .58984377 .35107423 .5934245 .3507487 .59676107 .35009767 .5998535 .34944663 .602946 .3491211 .60563156 .3491211 .60791018H.2861328L.27856446 .6191406C.2735189 .6266276 .2709961 .63655599 .2709961 .6489258 .2709961 .6661784 .27652995 .6805013 .28759767 .69189456 .29866538 .7032878 .31315104 .7089844 .3310547 .7089844 .3564453 .7089844 .3766276 .70060226 .39160157 .6838379 .40657554 .66707357 .4140625 .64453127 .4140625 .61621096M.20800781 .6152344C.20800781 .5911458 .20361328 .5690918 .19482422 .54907229 .18603516 .52905276 .17537435 .5111491 .1628418 .49536134 .15030925 .47957359 .13802083 .4662272 .12597656 .45532228 .11393229 .44441734 .104654949 .43603517 .09814453 .43017579L.061035158 .43798829C.07047526 .449056 .08170573 .46199546 .09472656 .47680665 .1077474 .49161784 .11922201 .5083008 .12915039 .52685549 .13907878 .54541018 .14404297 .5657552 .14404297 .5878906 .14404297 .5914714 .1438802 .5951335 .14355469 .59887698 .14322917 .6026204 .1430664 .60563156 .1430664 .60791018H.080078128L.072509769 .6196289C.067464198 .6274414 .064941409 .63688156 .064941409 .6479492 .064941409 .66520187 .07063802 .6796875 .08203125 .69140627 .09342448 .703125 .108072917 .7089844 .12597656 .7089844 .15201824 .7089844 .17220052 .70043948 .18652344 .6833496 .20084636 .66625979 .20800781 .6435547 .20800781 .6152344Z"/>
</defs>
<use data-text="&#x0643;" xlink:href="#font_1_1258" transform="matrix(16.408476,0,0,-16.408476,29.7009,15.353691)" fill="#343a40"/>
<use data-text="&#x0650;" xlink:href="#font_1_731" transform="matrix(16.408476,0,0,-16.408476,30.13278,15.194489)" fill="#343a40"/>
<use data-text="&#x062a;" xlink:href="#font_1_1189" transform="matrix(16.408476,0,0,-16.408476,23.41851,15.353691)" fill="#343a40"/>
<use data-text="&#x064e;" xlink:href="#font_1_728" transform="matrix(16.408476,0,0,-16.408476,23.61981,14.632675)" fill="#343a40"/>
<use data-text="&#x0627;" xlink:href="#font_1_1173" transform="matrix(16.408476,0,0,-16.408476,19.12533,15.353691)" fill="#343a40"/>
<use data-text="&#x0628;" xlink:href="#font_1_1176" transform="matrix(16.408476,0,0,-16.408476,14.301239,15.353691)" fill="#343a40"/>
<use data-text="&#x064b;" xlink:href="#font_1_724" transform="matrix(16.408476,0,0,-16.408476,14.48628,15.86792)" fill="#343a40"/>
<use data-text="&#x0627;" xlink:href="#font_1_1173" transform="matrix(16.408476,0,0,-16.408476,9.9918,15.353691)" fill="#343a40"/>
<use data-text="." xlink:href="#font_1_541" transform="matrix(16.408476,0,0,-16.408476,5.545103,15.353691)" fill="#343a40"/>
<use data-text="&#x0634;" xlink:href="#font_1_1222" transform="matrix(16.408476,0,0,-16.408476,66.97984,15.353691)" fill="#343a40"/>
<use data-text="&#x064e;" xlink:href="#font_1_728" transform="matrix(16.408476,0,0,-16.408476,71.65915,12.991165)" fill="#343a40"/>
<use data-text="&#x064a;" xlink:href="#font_1_1290" transform="matrix(16.408476,0,0,-16.408476,61.026845,15.353691)" fill="#343a40"/>
<use data-text="&#x0652;" xlink:href="#font_1_737" transform="matrix(16.408476,0,0,-16.408476,62.565874,15.763611)" fill="#343a40"/>
<use data-text="&#x0640;" xlink:href="#font_1_713" transform="matrix(16.408476,0,0,-16.408476,56.501256,15.353691)" fill="#343a40"/>
<use data-text="&#x0654;" xlink:href="#font_1_739" transform="matrix(16.408476,0,0,-16.408476,56.788564,15.803879)" fill="#343a40"/>
<use data-text="&#x064b;" xlink:href="#font_1_724" transform="matrix(16.408476,0,0,-16.408476,56.252378,12.422043)" fill="#343a40"/>
<use data-text="&#x0627;" xlink:href="#font_1_1173" transform="matrix(16.408476,0,0,-16.408476,52.206247,15.353691)" fill="#343a40"/>
<use data-text="&#x0671;" xlink:href="#font_1_781" transform="matrix(16.408476,0,0,-16.408476,128.10367,15.353691)" fill="#343a40"/>
<use data-text="&#x0644;" xlink:href="#font_1_1262" transform="matrix(16.408476,0,0,-16.408476,123.37801,15.353691)" fill="#343a40"/>
<use data-text="&#x0652;" xlink:href="#font_1_737" transform="matrix(16.408476,0,0,-16.408476,124.39425,10.82811)" fill="#343a40"/>
<use data-text="&#x063a;" xlink:href="#font_1_1247" transform="matrix(16.408476,0,0,-16.408476,113.98521,15.353691)" fill="#343a40"/>
<use data-text="&#x064f;" xlink:href="#font_1_730" transform="matrix(16.408476,0,0,-16.408476,116.48499,11.997467)" fill="#343a40"/>
<use data-text="&#xfefc;" xlink:href="#font_1_1302" transform="matrix(16.408476,0,0,-16.408476,104.09955,15.353691)" fill="#343a40"/>
<use data-text="&#x064e;" xlink:href="#font_1_728" transform="matrix(16.408476,0,0,-16.408476,109.09911,12.509872)" fill="#343a40"/>
<use data-text="&#x0645;" xlink:href="#font_1_718" transform="matrix(16.408476,0,0,-16.408476,94.34016,15.353691)" fill="#343a40"/>
<use data-text="&#x064f;" xlink:href="#font_1_730" transform="matrix(16.408476,0,0,-16.408476,98.05872,14.938286)" fill="#343a40"/>
<use data-text="&#x0623;" xlink:href="#font_1_677" transform="matrix(16.408476,0,0,-16.408476,166.04689,15.353691)" fill="#343a40"/>
<use data-text="&#x064e;" xlink:href="#font_1_728" transform="matrix(16.408476,0,0,-16.408476,165.56743,9.737427)" fill="#343a40"/>
<use data-text="&#x062e;" xlink:href="#font_1_1206" transform="matrix(16.408476,0,0,-16.408476,155.05591,15.353691)" fill="#343a40"/>
<use data-text="&#x064e;" xlink:href="#font_1_728" transform="matrix(16.408476,0,0,-16.408476,157.34706,13.254684)" fill="#343a40"/>
<use data-text="&#x0630;" xlink:href="#font_1_1211" transform="matrix(16.408476,0,0,-16.408476,146.33046,15.353691)" fill="#343a40"/>
<use data-text="&#x064e;" xlink:href="#font_1_728" transform="matrix(16.408476,0,0,-16.408476,147.97197,12.229889)" fill="#343a40"/>
<path transform="matrix(1.83,0,0,-1.83,1.52988,15.353691)" stroke-width=".3985" stroke-linecap="butt" stroke-miterlimit="10" stroke-linejoin="miter" fill="none" stroke="#343a40" d="M-.63705-4.26807C-.26347-5.01527 .60828-5.51341 1.85362-5.51341H8.72836C9.97371-5.51341 10.84546-6.01154 11.21906-6.75876 11.59264-6.01154 12.4644-5.51341 13.70975-5.51341H20.58449C21.82983-5.51341 22.7016-5.01527 23.07518-4.26807"/>
<use data-text="r" xlink:href="#font_2_85" transform="matrix(0,-10.9389719,-10.9389719,-0,24.434163,92.56139)" fill="#343a40"/>
<use data-text="e" xlink:href="#font_2_72" transform="matrix(0,-10.9389719,-10.9389719,-0,24.434163,88.284259)" fill="#343a40"/>
<use data-text="p" xlink:href="#font_2_83" transform="matrix(0,-10.9389719,-10.9389719,-0,24.434163,82.92416)" fill="#343a40"/>
<use data-text="l" xlink:href="#font_2_79" transform="matrix(0,-10.9389719,-10.9389719,-0,24.434163,76.80927)" fill="#343a40"/>
<use data-text="a" xlink:href="#font_2_68" transform="matrix(0,-10.9389719,-10.9389719,-0,24.434163,73.560398)" fill="#343a40"/>
<use data-text="c" xlink:href="#font_2_70" transform="matrix(0,-10.9389719,-10.9389719,-0,24.434163,67.99246)" fill="#343a40"/>
<use data-text="e" xlink:href="#font_2_72" transform="matrix(0,-10.9389719,-10.9389719,-0,24.434163,62.894899)" fill="#343a40"/>
<use data-text="m" xlink:href="#font_2_80" transform="matrix(0,-10.9389719,-10.9389719,-0,24.434163,57.534807)" fill="#343a40"/>
<use data-text="e" xlink:href="#font_2_72" transform="matrix(0,-10.9389719,-10.9389719,-0,24.434163,48.23668)" fill="#343a40"/>
<use data-text="n" xlink:href="#font_2_81" transform="matrix(0,-10.9389719,-10.9389719,-0,24.434163,42.876588)" fill="#343a40"/>
<use data-text="t" xlink:href="#font_2_87" transform="matrix(0,-10.9389719,-10.9389719,-0,24.434163,36.674188)" fill="#343a40"/>
<path transform="matrix(1.83,0,0,-1.83,1.52988,15.353691)" stroke-width=".3985" stroke-linecap="butt" stroke-miterlimit="10" stroke-linejoin="miter" fill="none" stroke="#343a40" d="M24.86577-4.26807C25.23935-5.01527 26.11111-5.51341 27.35646-5.51341H32.77327C34.01862-5.51341 34.89037-6.01154 35.26396-6.75876 35.63754-6.01154 36.50931-5.51341 37.75465-5.51341H43.17146C44.41681-5.51341 45.28857-5.01527 45.66216-4.26807"/>
<use data-text="r" xlink:href="#font_2_85" transform="matrix(0,-10.9389719,-10.9389719,-0,68.434688,73.34272)" fill="#343a40"/>
<use data-text="e" xlink:href="#font_2_72" transform="matrix(0,-10.9389719,-10.9389719,-0,68.434688,69.06558)" fill="#343a40"/>
<use data-text="p" xlink:href="#font_2_83" transform="matrix(0,-10.9389719,-10.9389719,-0,68.434688,63.70549)" fill="#343a40"/>
<use data-text="l" xlink:href="#font_2_79" transform="matrix(0,-10.9389719,-10.9389719,-0,68.434688,57.590608)" fill="#343a40"/>
<use data-text="a" xlink:href="#font_2_68" transform="matrix(0,-10.9389719,-10.9389719,-0,68.434688,54.34173)" fill="#343a40"/>
<use data-text="c" xlink:href="#font_2_70" transform="matrix(0,-10.9389719,-10.9389719,-0,68.434688,48.773797)" fill="#343a40"/>
<use data-text="e" xlink:href="#font_2_72" transform="matrix(0,-10.9389719,-10.9389719,-0,68.434688,43.67623)" fill="#343a40"/>
<use data-text="e" xlink:href="#font_2_72" transform="matrix(0,-10.9389719,-10.9389719,-0,68.434688,38.31614)" fill="#343a40"/>
<use data-text="&#x201c;" xlink:href="#font_2_180" transform="matrix(16.408476,0,0,-16.408476,1.52988,133.87364)" fill="#343a40"/>
<use data-text="T" xlink:href="#font_2_55" transform="matrix(16.408476,0,0,-16.408476,8.96292,133.87364)" fill="#343a40"/>
<use data-text="h" xlink:href="#font_2_75" transform="matrix(16.408476,0,0,-16.408476,18.7916,133.87364)" fill="#343a40"/>
<use data-text="e" xlink:href="#font_2_72" transform="matrix(16.408476,0,0,-16.408476,28.210064,133.87364)" fill="#343a40"/>
<use data-text="b" xlink:href="#font_2_69" transform="matrix(16.408476,0,0,-16.408476,41.068864,133.87364)" fill="#343a40"/>
<use data-text="o" xlink:href="#font_2_82" transform="matrix(16.408476,0,0,-16.408476,50.175569,133.87364)" fill="#343a40"/>
<use data-text="y" xlink:href="#font_2_92" transform="matrix(16.408476,0,0,-16.408476,58.87206,133.87364)" fill="#343a40"/>
<use data-text="t" xlink:href="#font_2_87" transform="matrix(16.408476,0,0,-16.408476,72.36369,133.87364)" fill="#343a40"/>
<use data-text="o" xlink:href="#font_2_82" transform="matrix(16.408476,0,0,-16.408476,77.94257,133.87364)" fill="#343a40"/>
<use data-text="o" xlink:href="#font_2_82" transform="matrix(16.408476,0,0,-16.408476,86.86878,133.87364)" fill="#343a40"/>
<use data-text="k" xlink:href="#font_2_78" transform="matrix(16.408476,0,0,-16.408476,95.795,133.87364)" fill="#343a40"/>
<use data-text="s" xlink:href="#font_2_86" transform="matrix(16.408476,0,0,-16.408476,109.362628,133.87364)" fill="#343a40"/>
<use data-text="o" xlink:href="#font_2_82" transform="matrix(16.408476,0,0,-16.408476,115.8932,133.87364)" fill="#343a40"/>
<use data-text="m" xlink:href="#font_2_80" transform="matrix(16.408476,0,0,-16.408476,124.819408,133.87364)" fill="#343a40"/>
<use data-text="e" xlink:href="#font_2_72" transform="matrix(16.408476,0,0,-16.408476,138.7666,133.87364)" fill="#343a40"/>
<use data-text="t" xlink:href="#font_2_87" transform="matrix(16.408476,0,0,-16.408476,146.80677,133.87364)" fill="#343a40"/>
<use data-text="h" xlink:href="#font_2_75" transform="matrix(16.408476,0,0,-16.408476,152.32,133.87364)" fill="#343a40"/>
<use data-text="i" xlink:href="#font_2_76" transform="matrix(16.408476,0,0,-16.408476,161.73847,133.87364)" fill="#343a40"/>
<use data-text="n" xlink:href="#font_2_81" transform="matrix(16.408476,0,0,-16.408476,166.71024,133.87364)" fill="#343a40"/>
<use data-text="g" xlink:href="#font_2_74" transform="matrix(16.408476,0,0,-16.408476,176.01386,133.87364)" fill="#343a40"/>
<use data-text=":" xlink:href="#font_2_29" transform="matrix(16.408476,0,0,-16.408476,184.6283,133.87364)" fill="#343a40"/>
<use data-text="a" xlink:href="#font_2_68" transform="matrix(16.408476,0,0,-16.408476,194.0166,133.87364)" fill="#343a40"/>
<use data-text="b" xlink:href="#font_2_69" transform="matrix(16.408476,0,0,-16.408476,207.17247,133.87364)" fill="#343a40"/>
<use data-text="o" xlink:href="#font_2_82" transform="matrix(16.408476,0,0,-16.408476,216.27918,133.87364)" fill="#343a40"/>
<use data-text="o" xlink:href="#font_2_82" transform="matrix(16.408476,0,0,-16.408476,225.20539,133.87364)" fill="#343a40"/>
<use data-text="k" xlink:href="#font_2_78" transform="matrix(16.408476,0,0,-16.408476,234.13159,133.87364)" fill="#343a40"/>
<use data-text="&#x201d;" xlink:href="#font_2_181" transform="matrix(16.408476,0,0,-16.408476,242.74604,133.87364)" fill="#343a40"/>
</svg>
