<svg xmlns="http://www.w3.org/2000/svg" xmlns:xlink="http://www.w3.org/1999/xlink" xmlns:inkscape="http://www.inkscape.org/namespaces/inkscape" version="1.1" width="289.42185" height="135.70183" viewBox="0 0 289.42185 135.70183">
<defs>
<path id="font_1_1226" d="M.25878907 .104003909C.31673179 .20296224 .3736979 .2759603 .4296875 .32299806 .4856771 .3700358 .5416667 .3935547 .59765627 .3935547 .6347656 .3935547 .6677246 .38549806 .6965332 .36938478 .7253418 .35327149 .7478841 .33138023 .76416018 .30371095 .7804362 .27604167 .7885742 .24479167 .7885742 .20996094 .7882487 .13867188 .7583008 .08585612 .69873049 .051513673 .63916018 .017171225 .5489909 0 .42822267 0H.40234376C.33333335 0 .28076173 .0065104167 .2446289 .01953125 .2084961 .032552083 .1829427 .05078125 .16796875 .07421875 .14908855 .048502607 .12784831 .029703776 .10424805 .017822266 .08064779 .0059407555 .049316408 0 .010253906 0H-.009765625L-.009277344 .08886719H.010253906C.055826826 .08886719 .086507167 .09855143 .10229492 .11791992 .11808268 .1372884 .12597656 .16536458 .12597656 .20214844 .12597656 .21777344 .1254069 .23225911 .12426758 .24560547 .12312826 .2589518 .12223307 .27327476 .12158203 .28857423L.203125 .29833985 .21044922 .18408203C.21207683 .16227214 .21663411 .14347331 .2241211 .12768555 .23160808 .11189779 .24316406 .104003909 .25878907 .104003909M.6015625 .3046875C.523112 .3046875 .4383138 .23274739 .34716798 .08886719H.42626954C.51904299 .08886719 .5882161 .09814453 .63378909 .11669922 .679362 .1352539 .70214846 .16471355 .70214846 .20507813 .70214846 .23372396 .69295248 .25748698 .67456057 .2763672 .65616866 .2952474 .63183596 .3046875 .6015625 .3046875Z"/>
<path id="font_1_728" d="M.03173828 .5571289V.6035156L.2397461 .68847659V.64208987L.03173828 .5571289Z"/>
<path id="font_1_1247" d="M.3022461 .61376956 .37304688 .54296877 .3022461 .47216798 .23144531 .54296877 .3022461 .61376956M.30371095 .38183595C.32877604 .38183595 .35465495 .37980143 .38134767 .37573243 .40804038 .37166343 .43286134 .3658854 .45581056 .35839845 .47875978 .35091148 .49739585 .34179688 .51171877 .3310547 .5260417 .3203125 .5332031 .30826823 .5332031 .29492188 .5332031 .28548179 .52823898 .27246095 .51831057 .25585938 .50838217 .23925781 .49568687 .22135417 .4802246 .20214844 .46476237 .1829427 .44856773 .1644694 .43164063 .14672852 .41471354 .12898763 .3992513 .11393229 .3852539 .1015625 .40804038 .095703128 .4296875 .0921224 .4501953 .09082031 .47070313 .08951823 .4892578 .08886719 .5058594 .08886719H.58203127V0H.50634768C.47216798 0 .43806968 .0040690104 .40405274 .012207031 .3700358 .020345053 .33658854 .033854169 .30371095 .052734376 .28222657 .040364583 .2574056 .030273438 .22924805 .022460938 .2010905 .0146484379 .17277019 .008951823 .14428711 .0053710939 .11580404 .0017903646 .09016927 0 .06738281 0H-.009765625V.08886719H.067871097C.078938808 .08886719 .09383138 .08911133 .11254883 .08959961 .13126628 .09008789 .15063477 .09122721 .1706543 .09301758 .19067383 .094807948 .20817058 .09765625 .22314453 .1015625 .20914714 .11393229 .19368489 .12898763 .17675781 .14672852 .15983074 .1644694 .14363607 .1829427 .12817383 .20214844 .112711589 .22135417 .0999349 .23925781 .08984375 .25585938 .0797526 .27246095 .07470703 .28548179 .07470703 .29492188 .07470703 .30826823 .08170573 .3203125 .095703128 .3310547 .10970052 .34179688 .12817383 .35091148 .15112305 .35839845 .17407227 .3658854 .19889324 .37166343 .22558594 .37573243 .25227867 .37980143 .2783203 .38183595 .30371095 .38183595M.30371095 .29785157C.2890625 .29785157 .2681478 .29671226 .2409668 .2944336 .21378581 .29215495 .18815105 .28694663 .1640625 .2788086 .18522136 .25211589 .20654297 .22819011 .22802735 .20703125 .24951172 .18587239 .26749674 .16902669 .28198243 .15649414L.30371095 .13769531 .3256836 .15649414C.34033204 .16902669 .3585612 .18587239 .3803711 .20703125 .402181 .22819011 .4235026 .25211589 .44433595 .2788086 .4202474 .28694663 .39453126 .29215495 .3671875 .2944336 .33984376 .29671226 .3186849 .29785157 .30371095 .29785157Z"/>
<path id="font_1_731" d="M.028320313-.24658203V-.20019531L.23632813-.115234378V-.1616211L.028320313-.24658203Z"/>
<path id="font_1_1291" d="M-.009765625 .08886719H.09765625C.13899739 .08886719 .1685384 .09814453 .1862793 .11669922 .20402019 .1352539 .21289063 .16373699 .21289063 .20214844 .21289063 .21777344 .21248372 .23258464 .21166992 .24658203 .21085613 .26057945 .20979817 .2745768 .2084961 .28857423L.29003907 .29833985 .29785157 .18408203C.3017578 .12060547 .3347982 .08886719 .39697267 .08886719H.40722657V0H.3959961C.35986329 0 .3309733 .0065104167 .30932618 .01953125 .28767906 .032552083 .27018229 .05094401 .25683595 .07470703 .23925781 .048990888 .21614583 .030110678 .1875 .018066407 .15885417 .0060221354 .12890625 0 .09765625 0H-.009765625V.08886719M.19970703-.07763672 .2680664-.14550781 .19970703-.21435547 .13183594-.14550781 .19970703-.07763672M.037597658-.07763672 .10595703-.14550781 .037597658-.21435547-.030273438-.14550781 .037597658-.07763672Z"/>
<path id="font_1_1213" d="M.3828125 0C.36035157 0 .34155274 .0030110677 .32641603 .009033203 .3112793 .015055339 .29947917 .021484375 .29101563 .028320313 .2861328-.014322917 .27433268-.055582685 .25561524-.095458988 .23689778-.13533528 .20882161-.17008464 .17138672-.19970703 .13395183-.22932942 .084472659-.25016276 .022949219-.26220704L-.005859375-.1850586C.07356771-.16780599 .1295573-.13761394 .16210938-.09448242 .19466146-.05135091 .2109375-.00032552085 .2109375 .05859375 .2109375 .08626302 .20792644 .11531576 .2019043 .14575196 .19588216 .17618816 .1875 .20719402 .17675781 .23876953L.2578125 .26611329 .2841797 .1640625C.29134117 .13671875 .30273438 .11735026 .31835938 .10595703 .33398438 .094563808 .35367839 .08886719 .3774414 .08886719H.3959961V0H.3828125Z"/>
<path id="font_1_726" d="M.2553711 .5151367C.23942058 .49267579 .21500652 .47452799 .1821289 .46069337 .1492513 .44685874 .11116537 .43945313 .067871097 .43847657L.051757814 .4736328C.061523439 .50097659 .06640625 .5213216 .06640625 .53466799 .06640625 .55159506 .05826823 .5600586 .041992189 .5600586 .033854169 .5600586 .022135416 .55777999 .0068359377 .55322268L.0024414063 .59375C.020019532 .5999349 .03597005 .60302737 .05029297 .60302737 .085123699 .60302737 .10253906 .5808919 .10253906 .5366211 .10253906 .5288086 .10205078 .5201823 .10107422 .5107422 .100097659 .50130209 .09830729 .4908854 .095703128 .4794922 .11393229 .48209635 .13509114 .48657228 .15917969 .49291993 .18326824 .49926759 .2023112 .50960287 .2163086 .5239258 .19352214 .5255534 .17252605 .53304037 .15332031 .5463867 .13411458 .5597331 .12451172 .5804036 .12451172 .60839846 .12451172 .6302083 .13216146 .64900717 .14746094 .6647949 .16276042 .6805827 .18196614 .68847659 .20507813 .68847659 .22819011 .68847659 .24739583 .681071 .2626953 .66625979 .27799479 .65144857 .28564454 .6319987 .28564454 .60791018 .28564454 .58968099 .28125 .56966146 .27246095 .54785159 .27701823 .5472005 .2841797 .5463867 .2939453 .54541018L.29003907 .51220706C.28320313 .51253256 .27734376 .51293948 .27246095 .51342776 .26757813 .513916 .2618815 .51448568 .2553711 .5151367M.23339844 .55566409C.23697917 .56380209 .24007161 .57250979 .24267578 .5817871 .24527996 .59106448 .24658203 .5996094 .24658203 .6074219 .24658203 .6197917 .24275716 .62972006 .23510742 .63720706 .22745769 .64469406 .21809896 .6484375 .20703125 .6484375 .19433594 .6484375 .18400066 .64404299 .17602539 .6352539 .16805013 .62646487 .1640625 .616862 .1640625 .6064453 .1640625 .58984377 .17097982 .5782878 .18481446 .57177737 .1986491 .5652669 .21484375 .5598958 .23339844 .55566409Z"/>
<path id="font_1_541" d="M.07080078 .064941409C.07080078 .082845058 .07714844 .098225917 .08984375 .111083988 .10253906 .123942058 .11783854 .1303711 .13574219 .1303711 .15364583 .1303711 .16894531 .123942058 .18164063 .111083988 .19433594 .098225917 .2006836 .082845058 .2006836 .064941409 .2006836 .04703776 .19433594 .03173828 .18164063 .019042969 .16894531 .0063476564 .15364583 0 .13574219 0 .11783854 0 .10253906 .006184896 .08984375 .018554688 .07714844 .030924479 .07080078 .04638672 .07080078 .064941409Z"/>
<path id="font_1_781" d="M.15722656 .6088867V.00048828127H.07470703V.6088867H.15722656M-.025390625 .6904297-.016601563 .73095706C-.012369792 .7273763-.006754557 .72281906 .00024414063 .71728518 .0072428386 .7117513 .013671875 .70784506 .01953125 .7055664 .045898439 .7501628 .069742839 .7821452 .09106445 .8015137 .11238607 .82088217 .13590496 .8305664 .1616211 .8305664 .18766277 .8305664 .20898438 .8224284 .22558594 .80615237 .2421875 .7898763 .25048829 .76953127 .25048829 .7451172 .25048829 .7125651 .23909505 .6897786 .2163086 .6767578 .19352214 .663737 .15413411 .65722659 .09814453 .65722659H.0859375C.056640626 .65722659 .032552083 .6599121 .013671875 .6652832-.0052083337 .6706543-.018229166 .67903646-.025390625 .6904297M.09716797 .69921877C.13916016 .69921877 .16837566 .7020671 .18481446 .7077637 .20125325 .71346029 .20947266 .72526046 .20947266 .74316409 .20947266 .7558594 .20532227 .7664388 .19702149 .77490237 .1887207 .7833659 .17773438 .78759768 .1640625 .78759768 .14615886 .78759768 .13004558 .7809245 .115722659 .7675781 .10139974 .75423178 .08382162 .7314453 .06298828 .69921877H.09716797Z"/>
<path id="font_1_1262" d="M-.009765625 .08886719H.03125C.0703125 .08886719 .09667969 .0999349 .11035156 .12207031 .12402344 .14420574 .13085938 .171875 .13085938 .20507813V.6723633H.2133789V.2055664C.2133789 .13785808 .19873047 .08666992 .1694336 .052001954 .14013672 .017333985 .09391276 0 .030761719 0H-.009765625V.08886719Z"/>
<path id="font_1_737" d="M.020507813 .5673828C.020507813 .5908203 .028889975 .6110026 .045654298 .6279297 .06241862 .64485678 .08251953 .6533203 .10595703 .6533203 .12939453 .6533203 .14949544 .64485678 .16625977 .6279297 .1830241 .6110026 .19140625 .5908203 .19140625 .5673828 .19140625 .5439453 .1830241 .5238444 .16625977 .5070801 .14949544 .49031578 .12939453 .4819336 .10595703 .4819336 .08251953 .4819336 .06241862 .49031578 .045654298 .5070801 .028889975 .5238444 .020507813 .5439453 .020507813 .5673828M.059570314 .5673828C.059570314 .554362 .06404623 .54345706 .07299805 .53466799 .08194987 .5258789 .092936199 .5214844 .10595703 .5214844 .11897787 .5214844 .12988281 .5258789 .13867188 .53466799 .14746094 .54345706 .15185547 .554362 .15185547 .5673828 .15185547 .5804036 .14746094 .5914714 .13867188 .60058596 .12988281 .6097005 .11897787 .6142578 .10595703 .6142578 .092936199 .6142578 .08194987 .6097005 .07299805 .60058596 .06404623 .5914714 .059570314 .5804036 .059570314 .5673828Z"/>
<path id="font_1_1179" d="M-.010253906 .08886719H.046875C.08821615 .08886719 .117757167 .09814453 .13549805 .11669922 .15323894 .1352539 .16210938 .16373699 .16210938 .20214844 .16210938 .21777344 .16170247 .23258464 .16088867 .24658203 .16007488 .26057945 .15901692 .2745768 .15771485 .28857423L.23925781 .29833985 .24707031 .18408203C.25097657 .12060547 .28401695 .08886719 .3461914 .08886719H.3564453V0H.34521485C.30908204 0 .28019206 .0065104167 .25854493 .01953125 .23689778 .032552083 .21940105 .05094401 .20605469 .07470703 .18847656 .048990888 .16536458 .030110678 .13671875 .018066407 .108072917 .0060221354 .078125 0 .046875 0H-.010253906V.08886719M.09033203-.07470703 .16113281-.14550781 .09033203-.2163086 .01953125-.14550781 .09033203-.07470703Z"/>
<path id="font_1_1290" d="M-.0107421879 .08886719H.06298828C.10432943 .08886719 .13387044 .09814453 .15161133 .11669922 .16935222 .1352539 .17822266 .16373699 .17822266 .20214844 .17822266 .21777344 .17781575 .23258464 .17700196 .24658203 .17618816 .26057945 .1751302 .2745768 .17382813 .28857423L.2553711 .29833985 .2631836 .18408203C.26708985 .12060547 .30013023 .08886719 .3623047 .08886719H.3725586V0H.36132813C.3251953 0 .29630534 .0065104167 .2746582 .01953125 .25301109 .032552083 .23551433 .05094401 .22216797 .07470703 .20458985 .048990888 .18147786 .030110678 .15283203 .018066407 .124186199 .0060221354 .09423828 0 .06298828 0H-.0107421879V.08886719M.16552735-.07763672 .23388672-.14550781 .16552735-.21435547 .09765625-.14550781 .16552735-.07763672M.0034179688-.07763672 .071777347-.14550781 .0034179688-.21435547-.064453128-.14550781 .0034179688-.07763672Z"/>
<path id="font_1_1185" d="M.5253906 .4790039 .59375 .4111328 .5253906 .34228517 .45751954 .4111328 .5253906 .4790039M.36328126 .4790039 .43164063 .4111328 .36328126 .34228517 .29541017 .4111328 .36328126 .4790039M.7397461 .28857423 .82128909 .29833985 .82958987 .18408203C.83154299 .15315755 .8404134 .1295573 .8562012 .11328125 .87198898 .09700521 .8956706 .08886719 .9272461 .08886719H.93896487V0H.9272461C.8904622 0 .8602702 .006917318 .8366699 .020751954 .81306967 .03458659 .7936198 .056803388 .7783203 .087402347 .75130209 .056152345 .7167155 .033772787 .67456057 .020263672 .6324056 .006754557 .57389327 0 .49902345 0H.41748048C.29475913 0 .20255535 .016601563 .14086914 .049804689 .079182948 .08300781 .048339845 .14046224 .048339845 .22216797 .048339845 .2446289 .05086263 .26660157 .055908204 .28808595 .060953779 .3095703 .06754557 .33024089 .075683597 .35009767L.15136719 .32177735C.14615886 .30745445 .1418457 .29215495 .13842774 .2758789 .13500977 .25960288 .13330078 .24414063 .13330078 .22949219 .1336263 .19140625 .14436849 .16219075 .16552735 .1418457 .1866862 .12150065 .21826172 .10758463 .2602539 .100097659 .3022461 .09261068 .35465495 .08886719 .41748048 .08886719H.49902345C.57682296 .08886719 .6371257 .09700521 .67993167 .11328125 .7227376 .1295573 .7441406 .15917969 .7441406 .20214844 .7441406 .2154948 .7437337 .2298177 .7429199 .24511719 .74210616 .26041667 .74104818 .27490235 .7397461 .28857423Z"/>
<path id="font_1_730" d="M.22460938 .52197268C.21777344 .52229818 .21191406 .5227051 .20703125 .52319338 .20214844 .52368167 .19645183 .5242513 .1899414 .52490237 .15673828 .47867839 .09863281 .45328776 .015625 .44873048L.009277344 .48632813C.041829427 .4892578 .07063802 .4947103 .095703128 .50268557 .12076823 .5106608 .13916016 .5208333 .1508789 .5332031 .12809246 .53483077 .10709635 .5423177 .087890628 .55566409 .0686849 .56901046 .05908203 .58968099 .05908203 .6176758 .05908203 .63948568 .06673177 .6582845 .08203125 .67407229 .09733073 .68986007 .11653646 .6977539 .13964844 .6977539 .16276042 .6977539 .18196614 .6903483 .19726563 .6755371 .21256511 .6607259 .22021485 .64127609 .22021485 .6171875 .22021485 .5989583 .21582031 .5789388 .20703125 .5571289 .21158855 .55647787 .21875 .55566409 .22851563 .5546875L.22460938 .52197268M.16796875 .5649414C.17154949 .5730794 .17464192 .5817871 .1772461 .59106448 .17985027 .6003418 .18115235 .6088867 .18115235 .6166992 .18115235 .62906906 .17732747 .6389974 .16967774 .6464844 .162028 .6539714 .15266927 .65771487 .14160156 .65771487 .12890625 .65771487 .11857096 .6533203 .1105957 .64453127 .102620448 .6357422 .09863281 .62613937 .09863281 .61572268 .09863281 .5991211 .10555013 .5875651 .119384769 .5810547 .1332194 .57454428 .14941406 .56917318 .16796875 .5649414Z"/>
<path id="font_2_76" d="M.21777344 .64697268C.21777344 .6300456 .21191406 .6154785 .20019531 .6032715 .18847656 .59106448 .17415364 .58496096 .15722656 .58496096 .14029949 .58496096 .12573242 .59106448 .11352539 .6032715 .10131836 .6154785 .095214847 .6300456 .095214847 .64697268 .095214847 .6642253 .10131836 .67871096 .11352539 .6904297 .12573242 .70214846 .14029949 .7080078 .15722656 .7080078 .17415364 .7080078 .18847656 .70214846 .20019531 .6904297 .21191406 .67871096 .21777344 .6642253 .21777344 .64697268M.26904298 0H.034179689V.0390625L.08300781 .041992189C.09700521 .04296875 .104003909 .05029297 .104003909 .063964847V.42089845H.03515625V.4560547L.15722656 .49414063H.19677735V.063964847C.19677735 .05777995 .19881185 .052652997 .20288086 .048583986 .20694988 .044514974 .21191406 .042317708 .21777344 .041992189L.26904298 .0390625V0Z"/>
<path id="font_2_81" d="M.546875 0H.32617188V.0390625L.36816407 .041992189C.37402345 .04264323 .37898765 .044921876 .38305665 .048828126 .38712565 .052734376 .38916017 .05777995 .38916017 .063964847V.32421876C.38916017 .35579429 .38183595 .37980143 .3671875 .39624024 .35253907 .41267906 .32779948 .42089845 .29296876 .42089845 .27408854 .42089845 .2552897 .4182129 .23657227 .4128418 .21785482 .4074707 .20003255 .40055339 .18310547 .39208985V.063964847C.18310547 .05029297 .19010417 .04296875 .20410156 .041992189L.24609375 .0390625V0H.020019532V.0390625L.068847659 .041992189C.082845058 .04296875 .08984375 .05029297 .08984375 .063964847V.4111328H.020019532V.44384767L.14208985 .4819336H.18310547V.4321289C.21110027 .44807945 .23982747 .46240235 .2692871 .47509767 .29874674 .48779298 .32503257 .49414063 .34814454 .49414063 .3917643 .49414063 .42496745 .48055015 .4477539 .45336915 .47054038 .42618815 .4819336 .38834635 .4819336 .33984376V.063964847C.4819336 .05777995 .4839681 .052734376 .4880371 .048828126 .4921061 .044921876 .4970703 .04264323 .5029297 .041992189L.546875 .0390625V0Z"/>
<path id="font_2_73" d="M.38916017 .6767578C.38916017 .66341146 .38582359 .6529134 .3791504 .6452637 .3724772 .63761398 .36539714 .63216146 .35791017 .62890627 .3504232 .62565109 .3453776 .62369796 .34277345 .6230469L.25097657 .6879883C.23665364 .6805013 .2232259 .66536459 .21069336 .6425781 .19816081 .6197917 .19189453 .58496096 .19189453 .53808596V.4741211H.31591798V.42285157H.19189453V.063964847C.19189453 .05777995 .19392903 .052652997 .19799805 .048583986 .20206706 .044514974 .20703125 .042317708 .21289063 .041992189L.27197267 .0390625V0H.028808594V.0390625L.078125 .041992189C.083984378 .042317708 .08894857 .044514974 .09301758 .048583986 .097086589 .052652997 .099121097 .05777995 .099121097 .063964847V.42285157H.03515625V.4580078L.099121097 .47607423C.099121097 .50895187 .10164388 .5362142 .10668945 .5578613 .11173502 .5795085 .12044271 .60221359 .1328125 .62597659 .15234375 .663737 .17749024 .6916504 .20825196 .7097168 .23901367 .7277832 .27067057 .7368164 .30322267 .7368164 .33154298 .7368164 .35294596 .7308757 .36743165 .71899417 .38191734 .7071126 .38916017 .6930339 .38916017 .6767578Z"/>
<path id="font_2_82" d="M.5097656 .24023438C.5097656 .19303386 .5 .15030925 .48046876 .11206055 .4609375 .07381185 .4333496 .04353841 .39770509 .021240235 .36206056-.0010579428 .31982423-.012207031 .2709961-.012207031 .22249349-.012207031 .1805013-.0011393229 .14501953 .020996094 .10953776 .04313151 .08219401 .07324219 .06298828 .111328128 .04378255 .14941406 .034179689 .19238281 .034179689 .24023438 .034179689 .2877604 .043863935 .33072917 .06323242 .36914063 .082600917 .4075521 .11027018 .43798829 .14624024 .46044923 .18221028 .48291017 .22477214 .49414063 .27392579 .49414063 .32373048 .49414063 .36621095 .4827474 .4013672 .45996095 .43652345 .43717448 .4633789 .40657554 .4819336 .36816407 .5004883 .3297526 .5097656 .28710938 .5097656 .24023438M.40576173 .24121094C.40576173 .27766929 .4009603 .3116862 .39135743 .34326173 .38175456 .37483726 .3671061 .40039063 .3474121 .41992188 .3277181 .43945313 .30289714 .44921876 .27294923 .44921876 .24202474 .44921876 .2167155 .43945313 .19702149 .41992188 .17732747 .40039063 .16276042 .37483726 .15332031 .34326173 .1438802 .3116862 .13916016 .27766929 .13916016 .24121094 .13916016 .20507813 .1439616 .17114258 .15356446 .1394043 .16316732 .107666019 .17781575 .08203125 .19750977 .0625 .21720378 .04296875 .24202474 .033203126 .27197267 .033203126 .30257163 .033203126 .3277181 .04296875 .3474121 .0625 .3671061 .08203125 .38175456 .10758463 .39135743 .13916016 .4009603 .17073567 .40576173 .20475261 .40576173 .24121094Z"/>
<path id="font_2_86" d="M.3491211 .35302735H.296875L.2890625 .42285157C.28190104 .4283854 .27132163 .43359376 .25732423 .43847657 .24332683 .44335938 .22851563 .44580079 .21289063 .44580079 .18554688 .44580079 .16520183 .43953453 .15185547 .42700196 .13850911 .4144694 .13183594 .3984375 .13183594 .37890626 .13183594 .36393229 .1352539 .35123698 .14208985 .3408203 .14892578 .33040367 .16048177 .3202311 .17675781 .31030274 .19303386 .30037437 .21516927 .28889976 .24316406 .2758789 .27799479 .25992839 .30680339 .24226888 .32958985 .22290039 .3523763 .2035319 .36376954 .17757161 .36376954 .14501953 .36376954 .09586588 .34684245 .057373048 .31298829 .029541016 .27913413 .0017089844 .23242188-.012207031 .17285156-.012207031 .14225261-.012207031 .11401367-.009033203 .088134769-.0026855469 .06225586 .0036621094 .044270833 .008951823 .034179689 .013183594V.1459961H.08496094L.09716797 .061035158C.10725912 .05452474 .11971029 .048258466 .13452149 .042236329 .14933269 .03621419 .1665039 .033203126 .18603516 .033203126 .21468099 .033203126 .2368164 .041178388 .2524414 .057128908 .2680664 .07307943 .2758789 .09098307 .2758789 .110839847 .2758789 .13688152 .2652181 .15730794 .24389649 .17211914 .22257488 .18693035 .19254558 .20361328 .1538086 .22216797 .11735026 .2397461 .08943685 .2578125 .07006836 .2763672 .05069987 .29492188 .041015626 .3191732 .041015626 .3491211 .041015626 .39371745 .056640626 .42903648 .087890628 .45507813 .119140628 .48111979 .16357422 .49414063 .2211914 .49414063 .25048829 .49414063 .27661134 .49145509 .29956056 .48608399 .32250978 .4807129 .33902995 .4757487 .3491211 .4711914V.35302735Z"/>
<path id="font_2_88" d="M.546875 0H.3881836V.057128908C.37679038 .048339845 .3623047 .03857422 .34472657 .027832032 .32714845 .017089844 .30826823 .0077311198 .28808595-.00024414063 .26790367-.008219401 .24788411-.012207031 .22802735-.012207031 .1850586-.012207031 .15128581 .0007324219 .12670899 .026611329 .102132167 .052490236 .08984375 .09358724 .08984375 .14990235V.42089845H.020019532V.45507813L.1430664 .49414063H.18310547V.16894531C.18310547 .13346355 .19034831 .10579427 .20483399 .0859375 .21931966 .06608073 .24430339 .056152345 .27978517 .056152345 .30029298 .056152345 .32047526 .05965169 .34033204 .06665039 .3601888 .073649089 .3761393 .080078128 .3881836 .0859375V.42089845H.3178711V.45507813L.4399414 .49414063H.48095704V.063964847C.48095704 .05777995 .4831543 .052734376 .48754884 .048828126 .49194337 .044921876 .4970703 .04264323 .5029297 .041992189L.546875 .0390625V0Z"/>
<path id="font_2_69" d="M.5209961 .26416017C.5209961 .21402996 .5110677 .16902669 .49121095 .12915039 .47135417 .089274089 .44026695 .05777995 .39794923 .03466797 .3556315 .011555989 .300944 0 .23388672 0H.08984375V.66503909H.014160156V.6982422L.1430664 .7368164H.18310547V.45703126C.1944987 .4625651 .212972 .47013346 .23852539 .47973634 .26407878 .4893392 .2915039 .49414063 .32080079 .49414063 .3647461 .49414063 .40152995 .4835612 .43115235 .46240235 .46077476 .4412435 .4831543 .41316734 .49829103 .37817384 .51342776 .34318034 .5209961 .30517579 .5209961 .26416017M.4189453 .24414063C.4189453 .30729167 .40559898 .35489909 .37890626 .3869629 .35221354 .4190267 .31461589 .4350586 .26611329 .4350586 .25504557 .4350586 .2409668 .43326823 .22387696 .4296875 .20678711 .42610679 .19319661 .42252604 .18310547 .4189453V.047851564C.19124349 .047526044 .19938152 .047281904 .20751953 .04711914 .21565755 .04695638 .22379558 .046875 .2319336 .046875 .29117839 .046875 .3371582 .061523439 .36987306 .09082031 .4025879 .12011719 .4189453 .17122396 .4189453 .24414063Z"/>
<path id="font_2_77" d="M.21289063 .64697268C.21289063 .6300456 .20703125 .6154785 .1953125 .6032715 .18359375 .59106448 .16910808 .58496096 .15185547 .58496096 .13492839 .58496096 .12036133 .59106448 .1081543 .6032715 .095947269 .6154785 .08984375 .6300456 .08984375 .64697268 .08984375 .6642253 .095947269 .67871096 .1081543 .6904297 .12036133 .70214846 .13492839 .7080078 .15185547 .7080078 .16910808 .7080078 .18359375 .70214846 .1953125 .6904297 .20703125 .67871096 .21289063 .6642253 .21289063 .64697268M.20214844 .063964847C.20214844 .044108076 .20125325 .021972657 .19946289-.0024414063 .19767253-.026855469 .19401042-.05078125 .18847656-.07421875 .1829427-.09765625 .17447917-.11832682 .16308594-.13623047 .14257813-.16780599 .11767578-.19116211 .088378909-.20629883 .05908203-.22143555 .028645834-.2290039-.0029296876-.2290039-.0234375-.2290039-.041259767-.224528-.056396486-.21557617-.0715332-.20662435-.07910156-.19270833-.07910156-.17382813-.07910156-.15690105-.07446289-.1438802-.06518555-.13476563-.055908204-.12565105-.046223958-.11946615-.036132814-.11621094L.061035158-.18310547C.079589847-.1726888 .09220377-.15266927 .09887695-.123046878 .10555013-.09342448 .10888672-.05940755 .10888672-.020996094V.42285157H.038085939V.4560547L.16113281 .49414063H.20214844V.063964847Z"/>
<path id="font_2_72" d="M.26611329-.012207031C.2257487-.012207031 .1879069-.0031738282 .15258789 .014892578 .11726888 .032958986 .08870443 .060384115 .06689453 .09716797 .045084638 .13395183 .034179689 .18017578 .034179689 .23583985 .034179689 .2879232 .044270833 .33333335 .064453128 .3720703 .084635417 .41080729 .112467449 .44083659 .14794922 .4621582 .18343099 .48347984 .22379558 .49414063 .26904298 .49414063 .33121745 .49414063 .3779297 .47485353 .4091797 .4362793 .4404297 .39770509 .4560547 .3486328 .4560547 .2890625 .4560547 .28580729 .4560547 .28149415 .4560547 .27612306 .4560547 .27075196 .45572917 .26578776 .45507813 .26123048H.13085938C.13085938 .23583985 .13354492 .2105306 .13891602 .18530274 .14428711 .16007488 .15332031 .13720703 .16601563 .11669922 .17871094 .096191409 .19580078 .0797526 .21728516 .06738281 .23876953 .05501302 .265625 .048828126 .29785157 .048828126 .3264974 .048828126 .3544108 .055419923 .3815918 .068603519 .4087728 .08178711 .43359376 .09586588 .4560547 .110839847V.049804689C.4280599 .032552083 .39786784 .017903647 .36547853 .005859375 .3330892-.006184896 .29996745-.012207031 .26611329-.012207031M.13623047 .30615235H.35595704V.328125C.35595704 .3610026 .34806315 .38867188 .3322754 .4111328 .31648765 .43359376 .2919922 .44482423 .25878907 .44482423 .22591146 .44482423 .19791667 .43245445 .17480469 .40771485 .1516927 .38297526 .13883464 .3491211 .13623047 .30615235Z"/>
<path id="font_2_70" d="M.4321289 .037109376C.40966798 .025065104 .38435874 .013834636 .35620118 .0034179688 .3280436-.0069986979 .29703776-.012207031 .2631836-.012207031 .21663411-.012207031 .17618816-.0013020834 .1418457 .020507813 .10750326 .042317708 .080973308 .072021488 .06225586 .10961914 .04353841 .1472168 .034179689 .1899414 .034179689 .23779297 .034179689 .29378257 .045328779 .3408203 .06762695 .37890626 .08992513 .4169922 .119384769 .4457194 .15600586 .4650879 .19262696 .4844564 .23225911 .49414063 .27490235 .49414063 .31884767 .49414063 .3557129 .4855957 .38549806 .46850587 .4152832 .45141603 .43017579 .42659507 .43017579 .39404298 .43017579 .37451173 .42407228 .3597819 .41186524 .34985353 .3996582 .33992515 .38606773 .33496095 .37109376 .33496095 .36002604 .33496095 .3504232 .33683268 .34228517 .34057618 .33414714 .34431968 .3269857 .34814454 .32080079 .35205079V.43896485C.3055013 .4477539 .2915039 .45214845 .2788086 .45214845 .2491862 .45214845 .22371419 .44344078 .20239258 .4260254 .18107097 .40861003 .16471355 .38476563 .15332031 .3544922 .14192708 .32421876 .13623047 .28971354 .13623047 .25097657 .13623047 .2141927 .14241536 .18058269 .15478516 .15014649 .16715496 .11971029 .18562825 .09554037 .21020508 .07763672 .2347819 .059733076 .26529948 .05078125 .3017578 .05078125 .32486979 .05078125 .34700523 .05452474 .36816407 .06201172 .3893229 .069498699 .41064454 .08024088 .4321289 .09423828V.037109376Z"/>
<path id="font_2_87" d="M.3330078 .020996094C.31966148 .013834636 .30037437 .0065104167 .27514649-.0009765625 .24991863-.008463542 .22428386-.012207031 .19824219-.012207031 .1608073-.012207031 .13354492-.0033365887 .11645508 .014404297 .099365238 .032145185 .09082031 .060709638 .09082031 .100097659V.4321289H.026855469V.46484376L.095214847 .4970703 .14013672 .60302737H.18408203V.4819336H.3251953V.4321289H.18408203V.15283203C.18408203 .11311849 .1907552 .08504232 .20410156 .068603519 .21744792 .052164716 .23746746 .043945314 .26416017 .043945314 .27848307 .043945314 .2919922 .045898439 .3046875 .049804689 .3173828 .053710939 .3268229 .057454427 .3330078 .061035158V.020996094Z"/>
<path id="font_2_180" d="M.39208985 .70214846C.38264976 .69108077 .37141929 .6780599 .35839845 .66308596 .3453776 .648112 .33390299 .6312663 .3239746 .6125488 .31404624 .59383139 .30908204 .5732422 .30908204 .55078127 .30908204 .54752609 .30924479 .5440267 .3095703 .5402832 .30989585 .53653976 .3100586 .5333659 .3100586 .5307617H.37304688L.38061524 .5197754C.3856608 .5124512 .3881836 .5032552 .3881836 .4921875 .3881836 .4752604 .38264976 .46069337 .37158204 .44848634 .3605143 .4362793 .34602867 .43017579 .328125 .43017579 .30208335 .43017579 .28173829 .4388021 .26708985 .4560547 .2524414 .47330729 .24511719 .4962565 .24511719 .52490237 .24511719 .5489909 .24951172 .5710449 .25830079 .59106448 .26708985 .611084 .27775065 .62890627 .2902832 .64453127 .30281578 .66015627 .31510417 .67333987 .32714845 .68408206 .33919273 .6948242 .34847007 .703125 .35498048 .7089844L.39208985 .70214846M.18603516 .70214846C.16617839 .6822917 .14737956 .65966799 .12963867 .63427737 .11189779 .6088867 .103027347 .5807292 .103027347 .5498047 .103027347 .5465495 .1031901 .5432129 .103515628 .5397949 .10384115 .53637698 .104003909 .5333659 .104003909 .5307617H.16699219L.17456055 .5202637C.17960613 .51326498 .1821289 .50358077 .1821289 .49121095 .1821289 .47428385 .17667644 .45987956 .16577149 .44799806 .15486653 .43611656 .14029949 .43017579 .12207031 .43017579 .096354167 .43017579 .07609049 .43847657 .061279298 .45507813 .046468099 .4716797 .0390625 .49430339 .0390625 .5229492 .0390625 .5473633 .04345703 .56974288 .052246095 .5900879 .061035158 .6104329 .07169596 .6284993 .084228519 .6442871 .09676107 .6600749 .10904948 .67333987 .12109375 .68408206 .13313802 .6948242 .14241536 .703125 .14892578 .7089844L.18603516 .70214846Z"/>
<path id="font_2_55" d="M.5830078 .51123049H.5239258L.5097656 .60498049C.507487 .6163737 .5019531 .6220703 .49316407 .6220703H.35009767V.068847659C.35009767 .063964847 .35180665 .059244794 .3552246 .0546875 .35864259 .050130208 .36393229 .047526044 .37109376 .046875L.4350586 .04296875V0H.1640625V.04296875L.22802735 .046875C.2351888 .047526044 .24047852 .050130208 .24389649 .0546875 .24731446 .059244794 .24902344 .063964847 .24902344 .068847659V.6220703H.10498047C.094563808 .6220703 .08886719 .6163737 .087890628 .60498049L.07421875 .51123049H.016113282V.67089846H.5830078V.51123049Z"/>
<path id="font_2_75" d="M.55078127 0H.328125V.0390625L.36914063 .041992189C.375 .04264323 .38012696 .044921876 .38452149 .048828126 .38891603 .052734376 .39111329 .05777995 .39111329 .063964847V.32177735C.39111329 .3504232 .38427735 .37410484 .37060548 .39282228 .3569336 .4115397 .33072917 .42089845 .2919922 .42089845 .27441407 .42089845 .25545249 .4181315 .23510742 .41259767 .21476238 .4070638 .19742839 .40022788 .18310547 .39208985V.063964847C.18310547 .05029297 .18977864 .04296875 .203125 .041992189L.24609375 .0390625V0H.020996094V.0390625L.068847659 .041992189C.082845058 .04296875 .08984375 .05029297 .08984375 .063964847V.66503909H.015136719V.6982422L.1430664 .7368164H.18310547V.4321289C.19514974 .43961589 .21077474 .4481608 .22998047 .45776368 .2491862 .46736656 .2693685 .47583009 .29052735 .4831543 .3116862 .49047853 .33089195 .49414063 .34814454 .49414063 .386556 .49414063 .41878257 .48177085 .44482423 .45703126 .47086589 .43229167 .48388673 .39420573 .48388673 .34277345V.063964847C.48388673 .05777995 .48608399 .052734376 .49047853 .048828126 .49487306 .044921876 .5 .04264323 .5058594 .041992189L.55078127 .0390625V0Z"/>
<path id="font_2_80" d="M.828125 0H.6040039V.0390625L.6459961 .041992189C.65999349 .04296875 .6669922 .05029297 .6669922 .063964847V.31884767C.6669922 .34977214 .6605632 .37451173 .6477051 .3930664 .634847 .4116211 .6116536 .42089845 .578125 .42089845 .56152346 .42089845 .5433757 .41829429 .52368167 .41308595 .5039876 .4078776 .48649089 .40120445 .4711914 .3930664V.063964847C.4711914 .05029297 .4781901 .04296875 .4921875 .041992189L.5341797 .0390625V0H.3149414V.0390625L.3569336 .041992189C.370931 .04296875 .3779297 .05029297 .3779297 .063964847V.3251953C.3779297 .35351563 .3712565 .37654624 .35791017 .3942871 .3445638 .41202799 .3219401 .42089845 .29003907 .42089845 .27115885 .42089845 .25146485 .4177246 .23095703 .41137696 .21044922 .4050293 .1944987 .39860026 .18310547 .39208985V.063964847C.18310547 .05029297 .19010417 .04296875 .20410156 .041992189L.24609375 .0390625V0H.020019532V.0390625L.068847659 .041992189C.082845058 .04296875 .08984375 .05029297 .08984375 .063964847V.4111328H.020996094V.44384767L.14208985 .4819336H.18310547V.4321289C.19807942 .4412435 .21492513 .45052085 .23364258 .45996095 .25236003 .46940104 .27148438 .47745768 .29101563 .48413087 .31054688 .49080406 .3289388 .49414063 .3461914 .49414063 .37516276 .49414063 .39860026 .48673503 .4165039 .47192384 .43440757 .45711265 .44759117 .44140626 .4560547 .4248047 .46940104 .43326823 .48632813 .44295249 .50683596 .45385743 .52734377 .46476237 .548584 .47420249 .57055667 .48217774 .5925293 .49015299 .6123047 .49414063 .6298828 .49414063 .66503909 .49414063 .69189456 .48608399 .7104492 .4699707 .7290039 .45385743 .7416992 .43400065 .74853518 .4104004 .7553711 .38680015 .75878909 .36360679 .75878909 .3408203V.063964847C.75878909 .05777995 .76082357 .052652997 .7648926 .048583986 .7689616 .044514974 .7739258 .042317708 .77978518 .041992189L.828125 .0390625V0Z"/>
<path id="font_2_68" d="M.4921875 0H.34423829L.3310547 .05908203C.31835938 .048990888 .30257163 .038411458 .2836914 .02734375 .2648112 .016276041 .24495442 .006917318 .2241211-.0007324219 .20328777-.008382161 .18326824-.012207031 .1640625-.012207031 .12792969-.012207031 .09724935-.00016276042 .072021488 .023925782 .04679362 .048014326 .034179689 .08105469 .034179689 .123046878 .034179689 .14160156 .037516279 .15885417 .044189454 .17480469 .05086263 .1907552 .064208988 .20597331 .084228519 .22045899 .10424805 .23494466 .1340332 .24910482 .17358399 .26293946 .21313477 .27677409 .265625 .29085288 .3310547 .30517579 .3310547 .30745445 .3310547 .31306968 .3310547 .32202149 .3310547 .3309733 .3310547 .339681 .3310547 .34814454 .3310547 .41389976 .29996745 .44677735 .23779297 .44677735 .22054036 .44677735 .20564778 .44514976 .19311524 .44189454 .18058269 .4386393 .171875 .43603517 .16699219 .43408204V.34716798H.09423828C.085123699 .34716798 .076660159 .34887696 .068847659 .35229493 .061035158 .3557129 .057128908 .36360679 .057128908 .37597657 .057128908 .4033203 .06754557 .42569987 .088378909 .44311524 .10921224 .4605306 .13566081 .47338868 .16772461 .48168946 .1997884 .48999024 .23225911 .49414063 .26513673 .49414063 .30647788 .49414063 .33854167 .48771159 .36132813 .47485353 .3841146 .46199546 .4000651 .44425456 .4091797 .42163087 .41829429 .39900718 .42285157 .37320964 .42285157 .34423829V.063964847C.42285157 .05777995 .42488609 .052652997 .42895509 .048583986 .43302409 .044514974 .43798829 .042317708 .44384767 .041992189L.4921875 .0390625V0M.3310547 .09423828V.26708985C.2861328 .25602214 .2504069 .24487305 .22387696 .23364258 .197347 .22241211 .17757161 .21118164 .16455078 .19995117 .15152996 .1887207 .14298503 .17732747 .13891602 .16577149 .134847 .1542155 .1328125 .14225261 .1328125 .12988281 .1328125 .109375 .1394043 .090413417 .15258789 .07299805 .16577149 .055582685 .1842448 .046875 .20800781 .046875 .22753906 .046875 .2491862 .052246095 .27294923 .06298828 .29671226 .07373047 .31608073 .08414713 .3310547 .09423828Z"/>
<path id="font_2_79" d="M.27001954 0H.026855469V.0390625L.080078128 .041992189C.084635417 .042317708 .08943685 .044840497 .09448242 .049560548 .09952799 .054280599 .10205078 .05875651 .10205078 .06298828V.66503909H.025878907V.6982422L.1538086 .7368164H.19482422V.06298828C.19482422 .05875651 .19726563 .054280599 .20214844 .049560548 .20703125 .044840497 .21158855 .042317708 .21582031 .041992189L.27001954 .0390625V0Z"/>
<path id="font_2_17" d="M.19580078 .05517578C.19580078 .036621095 .18912761 .020751954 .17578125 .0075683596 .16243489-.0056152346 .14648438-.012207031 .12792969-.012207031 .109375-.012207031 .09358724-.0056152346 .080566409 .0075683596 .06754557 .020751954 .061035158 .036621095 .061035158 .05517578 .061035158 .073404949 .06754557 .08911133 .080566409 .10229492 .09358724 .115478519 .109375 .12207031 .12792969 .12207031 .14648438 .12207031 .16243489 .115478519 .17578125 .10229492 .18912761 .08911133 .19580078 .073404949 .19580078 .05517578Z"/>
<path id="font_2_181" d="M.4140625 .61621096C.4140625 .5917969 .40966798 .5694173 .4008789 .54907229 .39208985 .52872726 .38142906 .5106608 .36889649 .49487306 .35636393 .4790853 .34407554 .4658203 .33203126 .45507813 .31998698 .44433595 .31070964 .43603517 .30419923 .43017579L.26708985 .43798829C.28727214 .45817057 .3063151 .48079429 .32421876 .5058594 .3421224 .5309245 .35107423 .55891928 .35107423 .58984377 .35107423 .5934245 .3507487 .59676107 .35009767 .5998535 .34944663 .602946 .3491211 .60563156 .3491211 .60791018H.2861328L.27856446 .6191406C.2735189 .6266276 .2709961 .63655599 .2709961 .6489258 .2709961 .6661784 .27652995 .6805013 .28759767 .69189456 .29866538 .7032878 .31315104 .7089844 .3310547 .7089844 .3564453 .7089844 .3766276 .70060226 .39160157 .6838379 .40657554 .66707357 .4140625 .64453127 .4140625 .61621096M.20800781 .6152344C.20800781 .5911458 .20361328 .5690918 .19482422 .54907229 .18603516 .52905276 .17537435 .5111491 .1628418 .49536134 .15030925 .47957359 .13802083 .4662272 .12597656 .45532228 .11393229 .44441734 .104654949 .43603517 .09814453 .43017579L.061035158 .43798829C.07047526 .449056 .08170573 .46199546 .09472656 .47680665 .1077474 .49161784 .11922201 .5083008 .12915039 .52685549 .13907878 .54541018 .14404297 .5657552 .14404297 .5878906 .14404297 .5914714 .1438802 .5951335 .14355469 .59887698 .14322917 .6026204 .1430664 .60563156 .1430664 .60791018H.080078128L.072509769 .6196289C.067464198 .6274414 .064941409 .63688156 .064941409 .6479492 .064941409 .66520187 .07063802 .6796875 .08203125 .69140627 .09342448 .703125 .108072917 .7089844 .12597656 .7089844 .15201824 .7089844 .17220052 .70043948 .18652344 .6833496 .20084636 .66625979 .20800781 .6435547 .20800781 .6152344Z"/>
<path id="font_2_11" d="M.34277345-.14208985C.2906901-.13623047 .24650066-.12093099 .21020508-.096191409 .1739095-.07145182 .14469402-.039469404 .122558597-.00024414063 .10042318 .03898112 .0843099 .08317057 .07421875 .13232422 .0641276 .18147786 .05908203 .23339844 .05908203 .28808595 .05908203 .3424479 .0641276 .39420573 .07421875 .44335938 .0843099 .49251304 .10042318 .5366211 .122558597 .5756836 .14469402 .6147461 .1739095 .64664718 .21020508 .6713867 .24650066 .6961263 .2906901 .711263 .34277345 .7167969V.67285159C.27246095 .6614583 .22306316 .6222331 .19458008 .5551758 .166097 .4881185 .15185547 .39908854 .15185547 .28808595 .15185547 .2141927 .15804036 .1496582 .17041016 .09448242 .18277996 .03930664 .20288086-.004638672 .23071289-.037353517 .25854493-.07006836 .29589845-.09033203 .34277345-.09814453V-.14208985Z"/>
<path id="font_2_85" d="M.38085938 .3798828H.34179688C.33561198 .38736979 .3282064 .39379884 .31958009 .39916993 .31095378 .40454103 .30045573 .40722657 .28808595 .40722657 .2721354 .40722657 .25577799 .40169273 .23901367 .390625 .22224935 .37955729 .20524089 .36442057 .18798828 .34521485V.063964847C.18798828 .04996745 .19498699 .04264323 .20898438 .041992189L.27490235 .0390625V0H.024902344V.038085939L.07421875 .041992189C.080078128 .04264323 .08504232 .044921876 .08911133 .048828126 .093180339 .052734376 .095214847 .05777995 .095214847 .063964847V.4111328H.022949219V.44384767L.14697266 .4819336H.18798828V.3930664C.2163086 .425944 .2409668 .45100913 .2619629 .46826173 .28295899 .4855143 .3022461 .49414063 .31982423 .49414063 .33024089 .49414063 .34147135 .49251304 .35351563 .4892578 .3655599 .4860026 .37467448 .48258464 .38085938 .4790039V.3798828Z"/>
<path id="font_2_92" d="M.52001956 .4428711 .46777345 .43701173 .2758789-.030761719C.27164714-.041503908 .26505534-.056884767 .25610353-.0769043 .24715169-.09692383 .23657227-.11743164 .22436524-.13842774 .2121582-.15942383 .19905599-.17692058 .1850586-.19091797 .17301433-.20296224 .15974935-.21232097 .14526367-.21899414 .130778-.22566732 .11507162-.2290039 .09814453-.2290039 .07438151-.2290039 .056233724-.2232259 .043701173-.21166992 .03116862-.20011394 .024902344-.18684896 .024902344-.171875 .024902344-.14973958 .03564453-.12972005 .057128908-.111816409L.1508789-.15478516C.16194661-.14371746 .17301433-.12874349 .18408203-.10986328 .19514974-.09098307 .2051595-.07145182 .21411133-.05126953 .22306316-.03108724 .22998047-.013671875 .23486328 .0009765625L.064941409 .43701173 .009765625 .4428711V.4819336H.23095703V.4428711L.18310547 .4399414C.17757161 .43961589 .1730957 .43725587 .16967774 .43286134 .16625977 .4284668 .16569011 .4235026 .16796875 .41796876L.2841797 .123046878 .40283204 .41796876C.4051107 .4231771 .40478517 .4280599 .40185548 .4326172 .39892579 .43717448 .394694 .43961589 .38916017 .4399414L.34179688 .4428711V.4819336H.52001956V.4428711Z"/>
<path id="font_2_29" d="M.19580078 .4267578C.19580078 .40852867 .18912761 .39282228 .17578125 .37963868 .16243489 .36645509 .14648438 .35986329 .12792969 .35986329 .109375 .35986329 .09358724 .36645509 .080566409 .37963868 .06754557 .39282228 .061035158 .40852867 .061035158 .4267578 .061035158 .4453125 .06754557 .46118165 .080566409 .47436524 .09358724 .48754884 .109375 .49414063 .12792969 .49414063 .14648438 .49414063 .16243489 .48754884 .17578125 .47436524 .18912761 .46118165 .19580078 .4453125 .19580078 .4267578M.19580078 .05517578C.19580078 .036621095 .18912761 .020751954 .17578125 .0075683596 .16243489-.0056152346 .14648438-.012207031 .12792969-.012207031 .109375-.012207031 .09358724-.0056152346 .080566409 .0075683596 .06754557 .020751954 .061035158 .036621095 .061035158 .05517578 .061035158 .073404949 .06754557 .08911133 .080566409 .10229492 .09358724 .115478519 .109375 .12207031 .12792969 .12207031 .14648438 .12207031 .16243489 .115478519 .17578125 .10229492 .18912761 .08911133 .19580078 .073404949 .19580078 .05517578Z"/>
<path id="font_2_16" d="M.2758789 .203125H.043945314V.27783204H.2758789V.203125Z"/>
<path id="font_2_12" d="M.3178711 .28808595C.3178711 .23339844 .31282554 .18147786 .30273438 .13232422 .29264323 .08317057 .27652995 .03898112 .25439454-.00024414063 .23225911-.039469404 .203125-.07145182 .16699219-.096191409 .13085938-.12093099 .08658854-.13623047 .034179689-.14208985V-.09814453C.08105469-.09033203 .1184082-.07006836 .14624024-.037353517 .17407227-.004638672 .19401042 .03930664 .20605469 .09448242 .21809896 .1496582 .2241211 .2141927 .2241211 .28808595 .2241211 .36197917 .21809896 .42635093 .20605469 .48120118 .19401042 .53605148 .17407227 .579834 .14624024 .6125488 .1184082 .6452637 .08105469 .66536459 .034179689 .67285159V.7167969C.08658854 .7109375 .13085938 .695638 .16699219 .67089846 .203125 .6461589 .23225911 .6143392 .25439454 .57543948 .27652995 .53653976 .29264323 .49251304 .30273438 .44335938 .31282554 .39420573 .3178711 .3424479 .3178711 .28808595Z"/>
</defs>
<use data-text="&#x0635;" xlink:href="#font_1_1226" transform="matrix(16.408476,0,0,-16.408476,32.231794,61.039659)" fill="#343a40"/>
<use data-text="&#x064e;" xlink:href="#font_1_728" transform="matrix(16.408476,0,0,-16.408476,39.202264,61.143968)" fill="#343a40"/>
<use data-text="&#x063a;" xlink:href="#font_1_1247" transform="matrix(16.408476,0,0,-16.408476,22.842062,61.039659)" fill="#343a40"/>
<use data-text="&#x0650;" xlink:href="#font_1_731" transform="matrix(16.408476,0,0,-16.408476,25.56693,60.863977)" fill="#343a40"/>
<use data-text="&#x064a;" xlink:href="#font_1_1291" transform="matrix(16.408476,0,0,-16.408476,16.32909,61.039659)" fill="#343a40"/>
<use data-text="&#x0631;" xlink:href="#font_1_1213" transform="matrix(16.408476,0,0,-16.408476,9.9954199,61.039659)" fill="#343a40"/>
<use data-text="&#x064c;" xlink:href="#font_1_726" transform="matrix(16.408476,0,0,-16.408476,9.83808,61.561204)" fill="#343a40"/>
<use data-text="." xlink:href="#font_1_541" transform="matrix(16.408476,0,0,-16.408476,5.5357506,61.039659)" fill="#343a40"/>
<use data-text="&#x0671;" xlink:href="#font_1_781" transform="matrix(16.408476,0,0,-16.408476,92.793819,61.039659)" fill="#343a40"/>
<use data-text="&#x064e;" xlink:href="#font_1_728" transform="matrix(16.408476,0,0,-16.408476,92.53029,56.32923)" fill="#343a40"/>
<use data-text="&#x0644;" xlink:href="#font_1_1262" transform="matrix(16.408476,0,0,-16.408476,88.066928,61.039659)" fill="#343a40"/>
<use data-text="&#x0652;" xlink:href="#font_1_737" transform="matrix(16.408476,0,0,-16.408476,89.084407,56.512239)" fill="#343a40"/>
<use data-text="&#x0628;" xlink:href="#font_1_1179" transform="matrix(16.408476,0,0,-16.408476,82.37928,61.039659)" fill="#343a40"/>
<use data-text="&#x064e;" xlink:href="#font_1_728" transform="matrix(16.408476,0,0,-16.408476,82.90815,63.098405)" fill="#343a40"/>
<use data-text="&#x064a;" xlink:href="#font_1_1290" transform="matrix(16.408476,0,0,-16.408476,76.42629,61.039659)" fill="#343a40"/>
<use data-text="&#x0652;" xlink:href="#font_1_737" transform="matrix(16.408476,0,0,-16.408476,77.96349,61.447748)" fill="#343a40"/>
<use data-text="&#x062a;" xlink:href="#font_1_1185" transform="matrix(16.408476,0,0,-16.408476,61.17873,61.039659)" fill="#343a40"/>
<use data-text="&#x064f;" xlink:href="#font_1_730" transform="matrix(16.408476,0,0,-16.408476,66.130718,59.28469)" fill="#343a40"/>
<path transform="matrix(1.83,0,0,-1.83,1.52988,61.039659)" stroke-width=".3985" stroke-linecap="butt" stroke-miterlimit="10" stroke-linejoin="miter" fill="none" stroke="#343a40" d="M-.63705 8.58932C-.26347 9.33653 .60828 9.83467 1.85362 9.83467H11.18013C12.42548 9.83467 13.29724 10.3328 13.67082 11.08002 14.04442 10.3328 14.91617 9.83467 16.16151 9.83467H25.48804C26.73338 9.83467 27.60515 9.33653 27.97873 8.58932"/>
<use data-text="i" xlink:href="#font_2_76" transform="matrix(0,-10.9389719,-10.9389719,-0,30.502442,39.487749)" fill="#343a40"/>
<use data-text="n" xlink:href="#font_2_81" transform="matrix(0,-10.9389719,-10.9389719,-0,30.502442,36.17324)" fill="#343a40"/>
<use data-text="f" xlink:href="#font_2_73" transform="matrix(0,-10.9389719,-10.9389719,-0,30.502442,29.970845)" fill="#343a40"/>
<use data-text="o" xlink:href="#font_2_82" transform="matrix(0,-10.9389719,-10.9389719,-0,30.502442,26.40474)" fill="#343a40"/>
<path transform="matrix(1.83,0,0,-1.83,1.52988,61.039659)" stroke-width=".3985" stroke-linecap="butt" stroke-miterlimit="10" stroke-linejoin="miter" fill="none" stroke="#343a40" d="M29.76932 8.58932C30.1429 9.33653 31.01466 9.83467 32.26001 9.83467H39.78271C41.02806 9.83467 41.89983 10.3328 42.2734 11.08002 42.647 10.3328 43.51875 9.83467 44.7641 9.83467H52.28682C53.53217 9.83467 54.40392 9.33653 54.77751 8.58932"/>
<use data-text="s" xlink:href="#font_2_86" transform="matrix(0,-10.9389719,-10.9389719,-0,82.844089,39.487749)" fill="#343a40"/>
<use data-text="u" xlink:href="#font_2_88" transform="matrix(0,-10.9389719,-10.9389719,-0,82.844089,35.134035)" fill="#343a40"/>
<use data-text="b" xlink:href="#font_2_69" transform="matrix(0,-10.9389719,-10.9389719,-0,82.844089,28.909752)" fill="#343a40"/>
<use data-text="j" xlink:href="#font_2_77" transform="matrix(0,-10.9389719,-10.9389719,-0,82.844089,22.838624)" fill="#343a40"/>
<use data-text="e" xlink:href="#font_2_72" transform="matrix(0,-10.9389719,-10.9389719,-0,82.844089,19.64444)" fill="#343a40"/>
<use data-text="c" xlink:href="#font_2_70" transform="matrix(0,-10.9389719,-10.9389719,-0,82.844089,14.28434)" fill="#343a40"/>
<use data-text="t" xlink:href="#font_2_87" transform="matrix(0,-10.9389719,-10.9389719,-0,82.844089,9.186783)" fill="#343a40"/>
<use data-text="&#x201c;" xlink:href="#font_2_180" transform="matrix(16.408476,0,0,-16.408476,7.36392,108.29208)" fill="#343a40"/>
<use data-text="T" xlink:href="#font_2_55" transform="matrix(16.408476,0,0,-16.408476,14.796961,108.29208)" fill="#343a40"/>
<use data-text="h" xlink:href="#font_2_75" transform="matrix(16.408476,0,0,-16.408476,24.625639,108.29208)" fill="#343a40"/>
<use data-text="e" xlink:href="#font_2_72" transform="matrix(16.408476,0,0,-16.408476,34.0441,108.29208)" fill="#343a40"/>
<use data-text="h" xlink:href="#font_2_75" transform="matrix(16.408476,0,0,-16.408476,46.89194,108.29208)" fill="#343a40"/>
<use data-text="o" xlink:href="#font_2_82" transform="matrix(16.408476,0,0,-16.408476,56.310407,108.29208)" fill="#343a40"/>
<use data-text="u" xlink:href="#font_2_88" transform="matrix(16.408476,0,0,-16.408476,65.23662,108.29208)" fill="#343a40"/>
<use data-text="s" xlink:href="#font_2_86" transform="matrix(16.408476,0,0,-16.408476,74.57304,108.29208)" fill="#343a40"/>
<use data-text="e" xlink:href="#font_2_72" transform="matrix(16.408476,0,0,-16.408476,81.103618,108.29208)" fill="#343a40"/>
<use data-text="i" xlink:href="#font_2_76" transform="matrix(16.408476,0,0,-16.408476,93.951457,108.29208)" fill="#343a40"/>
<use data-text="s" xlink:href="#font_2_86" transform="matrix(16.408476,0,0,-16.408476,98.923229,108.29208)" fill="#343a40"/>
<use data-text="s" xlink:href="#font_2_86" transform="matrix(16.408476,0,0,-16.408476,110.26148,108.29208)" fill="#343a40"/>
<use data-text="m" xlink:href="#font_2_80" transform="matrix(16.408476,0,0,-16.408476,116.79205,108.29208)" fill="#343a40"/>
<use data-text="a" xlink:href="#font_2_68" transform="matrix(16.408476,0,0,-16.408476,130.73926,108.29208)" fill="#343a40"/>
<use data-text="l" xlink:href="#font_2_79" transform="matrix(16.408476,0,0,-16.408476,139.09117,108.29208)" fill="#343a40"/>
<use data-text="l" xlink:href="#font_2_79" transform="matrix(16.408476,0,0,-16.408476,143.9645,108.29208)" fill="#343a40"/>
<use data-text="." xlink:href="#font_2_17" transform="matrix(16.408476,0,0,-16.408476,148.83782,108.29208)" fill="#343a40"/>
<use data-text="&#x201d;" xlink:href="#font_2_181" transform="matrix(16.408476,0,0,-16.408476,151.84058,108.29208)" fill="#343a40"/>
<use data-text="(" xlink:href="#font_2_11" transform="matrix(16.408476,0,0,-16.408476,7.36392,128.25556)" fill="#343a40"/>
<use data-text="l" xlink:href="#font_2_79" transform="matrix(16.408476,0,0,-16.408476,13.533506,128.25556)" fill="#343a40"/>
<use data-text="i" xlink:href="#font_2_76" transform="matrix(16.408476,0,0,-16.408476,18.406826,128.25556)" fill="#343a40"/>
<use data-text="t" xlink:href="#font_2_87" transform="matrix(16.408476,0,0,-16.408476,23.378594,128.25556)" fill="#343a40"/>
<use data-text="e" xlink:href="#font_2_72" transform="matrix(16.408476,0,0,-16.408476,28.957476,128.25556)" fill="#343a40"/>
<use data-text="r" xlink:href="#font_2_85" transform="matrix(16.408476,0,0,-16.408476,36.99763,128.25556)" fill="#343a40"/>
<use data-text="a" xlink:href="#font_2_68" transform="matrix(16.408476,0,0,-16.408476,43.413347,128.25556)" fill="#343a40"/>
<use data-text="l" xlink:href="#font_2_79" transform="matrix(16.408476,0,0,-16.408476,51.76526,128.25556)" fill="#343a40"/>
<use data-text="l" xlink:href="#font_2_79" transform="matrix(16.408476,0,0,-16.408476,56.638578,128.25556)" fill="#343a40"/>
<use data-text="y" xlink:href="#font_2_92" transform="matrix(16.408476,0,0,-16.408476,61.511896,128.25556)" fill="#343a40"/>
<use data-text=":" xlink:href="#font_2_29" transform="matrix(16.408476,0,0,-16.408476,70.20839,128.25556)" fill="#343a40"/>
<use data-text="&#x201c;" xlink:href="#font_2_180" transform="matrix(16.408476,0,0,-16.408476,81.202068,128.25556)" fill="#343a40"/>
<use data-text="T" xlink:href="#font_2_55" transform="matrix(16.408476,0,0,-16.408476,88.63511,128.25556)" fill="#343a40"/>
<use data-text="h" xlink:href="#font_2_75" transform="matrix(16.408476,0,0,-16.408476,98.46378,128.25556)" fill="#343a40"/>
<use data-text="e" xlink:href="#font_2_72" transform="matrix(16.408476,0,0,-16.408476,107.88225,128.25556)" fill="#343a40"/>
<use data-text="h" xlink:href="#font_2_75" transform="matrix(16.408476,0,0,-16.408476,120.73009,128.25556)" fill="#343a40"/>
<use data-text="o" xlink:href="#font_2_82" transform="matrix(16.408476,0,0,-16.408476,130.14856,128.25556)" fill="#343a40"/>
<use data-text="u" xlink:href="#font_2_88" transform="matrix(16.408476,0,0,-16.408476,139.07477,128.25556)" fill="#343a40"/>
<use data-text="s" xlink:href="#font_2_86" transform="matrix(16.408476,0,0,-16.408476,148.41118,128.25556)" fill="#343a40"/>
<use data-text="e" xlink:href="#font_2_72" transform="matrix(16.408476,0,0,-16.408476,154.94176,128.25556)" fill="#343a40"/>
<use data-text="i" xlink:href="#font_2_76" transform="matrix(16.408476,0,0,-16.408476,167.7896,128.25556)" fill="#343a40"/>
<use data-text="s" xlink:href="#font_2_86" transform="matrix(16.408476,0,0,-16.408476,172.76137,128.25556)" fill="#343a40"/>
<use data-text="a" xlink:href="#font_2_68" transform="matrix(16.408476,0,0,-16.408476,184.09963,128.25556)" fill="#343a40"/>
<use data-text="s" xlink:href="#font_2_86" transform="matrix(16.408476,0,0,-16.408476,197.25923,128.25556)" fill="#343a40"/>
<use data-text="m" xlink:href="#font_2_80" transform="matrix(16.408476,0,0,-16.408476,203.7898,128.25556)" fill="#343a40"/>
<use data-text="a" xlink:href="#font_2_68" transform="matrix(16.408476,0,0,-16.408476,217.737,128.25556)" fill="#343a40"/>
<use data-text="l" xlink:href="#font_2_79" transform="matrix(16.408476,0,0,-16.408476,226.08892,128.25556)" fill="#343a40"/>
<use data-text="l" xlink:href="#font_2_79" transform="matrix(16.408476,0,0,-16.408476,230.96224,128.25556)" fill="#343a40"/>
<use data-text="-" xlink:href="#font_2_16" transform="matrix(16.408476,0,0,-16.408476,235.83556,128.25556)" fill="#343a40"/>
<use data-text="o" xlink:href="#font_2_82" transform="matrix(16.408476,0,0,-16.408476,241.08629,128.25556)" fill="#343a40"/>
<use data-text="n" xlink:href="#font_2_81" transform="matrix(16.408476,0,0,-16.408476,250.0125,128.25556)" fill="#343a40"/>
<use data-text="e" xlink:href="#font_2_72" transform="matrix(16.408476,0,0,-16.408476,259.3161,128.25556)" fill="#343a40"/>
<use data-text="." xlink:href="#font_2_17" transform="matrix(16.408476,0,0,-16.408476,267.35627,128.25556)" fill="#343a40"/>
<use data-text="&#x201d;" xlink:href="#font_2_181" transform="matrix(16.408476,0,0,-16.408476,270.37544,128.25556)" fill="#343a40"/>
<use data-text=")" xlink:href="#font_2_12" transform="matrix(16.408476,0,0,-16.408476,277.80845,128.25556)" fill="#343a40"/>
</svg>
