<svg xmlns="http://www.w3.org/2000/svg" xmlns:xlink="http://www.w3.org/1999/xlink" xmlns:inkscape="http://www.inkscape.org/namespaces/inkscape" version="1.1" width="271.9596" height="167.43045" viewBox="0 0 271.9596 167.43045">
<defs>
<path id="font_1_781" d="M.15722656 .6088867V.00048828127H.07470703V.6088867H.15722656M-.025390625 .6904297-.016601563 .73095706C-.012369792 .7273763-.006754557 .72281906 .00024414063 .71728518 .0072428386 .7117513 .013671875 .70784506 .01953125 .7055664 .045898439 .7501628 .069742839 .7821452 .09106445 .8015137 .11238607 .82088217 .13590496 .8305664 .1616211 .8305664 .18766277 .8305664 .20898438 .8224284 .22558594 .80615237 .2421875 .7898763 .25048829 .76953127 .25048829 .7451172 .25048829 .7125651 .23909505 .6897786 .2163086 .6767578 .19352214 .663737 .15413411 .65722659 .09814453 .65722659H.0859375C.056640626 .65722659 .032552083 .6599121 .013671875 .6652832-.0052083337 .6706543-.018229166 .67903646-.025390625 .6904297M.09716797 .69921877C.13916016 .69921877 .16837566 .7020671 .18481446 .7077637 .20125325 .71346029 .20947266 .72526046 .20947266 .74316409 .20947266 .7558594 .20532227 .7664388 .19702149 .77490237 .1887207 .7833659 .17773438 .78759768 .1640625 .78759768 .14615886 .78759768 .13004558 .7809245 .115722659 .7675781 .10139974 .75423178 .08382162 .7314453 .06298828 .69921877H.09716797Z"/>
<path id="font_1_1262" d="M-.009765625 .08886719H.03125C.0703125 .08886719 .09667969 .0999349 .11035156 .12207031 .12402344 .14420574 .13085938 .171875 .13085938 .20507813V.6723633H.2133789V.2055664C.2133789 .13785808 .19873047 .08666992 .1694336 .052001954 .14013672 .017333985 .09391276 0 .030761719 0H-.009765625V.08886719Z"/>
<path id="font_1_1227" d="M.42822267 0H.40234376C.33333335 0 .28076173 .0065104167 .2446289 .01953125 .2084961 .032552083 .1829427 .05078125 .16796875 .07421875 .14908855 .048502607 .12784831 .029703776 .10424805 .017822266 .08064779 .0059407555 .049316408 0 .010253906 0H-.009765625L-.009277344 .08886719H.010253906C.055826826 .08886719 .086507167 .09855143 .10229492 .11791992 .11808268 .1372884 .12597656 .16536458 .12597656 .20214844 .12597656 .21777344 .1254069 .23225911 .12426758 .24560547 .12312826 .2589518 .12223307 .27327476 .12158203 .28857423L.203125 .29833985 .21044922 .18408203C.21207683 .16227214 .21663411 .14347331 .2241211 .12768555 .23160808 .11189779 .24316406 .104003909 .25878907 .104003909 .31705729 .20296224 .37410484 .2759603 .42993165 .32299806 .48575846 .3700358 .5416667 .3935547 .59765627 .3935547 .6347656 .3935547 .6677246 .38549806 .6965332 .36938478 .7253418 .35327149 .7478841 .33138023 .76416018 .30371095 .7804362 .27604167 .7885742 .24479167 .7885742 .20996094 .7882487 .16796875 .7757161 .13069661 .75097659 .09814453 .7604167 .09586588 .7727051 .09375 .7878418 .091796878 .8029785 .08984375 .8253581 .08886719 .85498049 .08886719H.8696289V0H.85546877C.8141276 0 .7800293 .004231771 .7531738 .0126953129 .72631838 .021158854 .70377609 .032877607 .6855469 .047851564 .6588542 .032877607 .62369796 .021158854 .5800781 .0126953129 .5364583 .004231771 .48583985 0 .42822267 0M.6015625 .3046875C.523112 .3046875 .4383138 .23274739 .34716798 .08886719H.42626954C.51904299 .08886719 .5882161 .09814453 .63378909 .11669922 .679362 .1352539 .70214846 .16471355 .70214846 .20507813 .70214846 .23372396 .69295248 .25748698 .67456057 .2763672 .65616866 .2952474 .63183596 .3046875 .6015625 .3046875Z"/>
<path id="font_1_735" d="M.03564453 .6582031V.70458987L.24316406 .7895508V.74316409L.03564453 .6582031M.16894531 .6357422C.16959636 .6223958 .17048645 .6086426 .1716156 .5944824 .17274475 .58032229 .17597454 .56852218 .18130493 .55908206 .18664551 .5496419 .19593811 .5449219 .20918274 .5449219 .22017925 .5449219 .22761536 .5491536 .23149109 .5576172 .23536682 .56608077 .23730469 .57633468 .23730469 .5883789 .23730469 .5991211 .2363332 .61002609 .23439026 .62109377 .23245748 .63216146 .23051961 .6422526 .22857666 .6513672L.27294923 .66015627C.27913413 .63932296 .28222657 .6180013 .28222657 .5961914 .28222657 .56722006 .27638755 .54386398 .26470948 .52612307 .2530416 .50838217 .23423767 .49951173 .20829773 .49951173 .20019023 .49951173 .1909434 .5013835 .18055725 .50512698 .17018128 .5088704 .16159058 .51627609 .15478516 .52734377 .14990235 .508138 .1402181 .4950358 .12573242 .4880371 .11124674 .48103843 .096354167 .47753907 .08105469 .47753907 .057291669 .47753907 .0398763 .4860026 .028808594 .5029297 .017740885 .51985678 .012207031 .54052737 .012207031 .5649414 .012207031 .5808919 .014485677 .59765627 .019042969 .6152344L.05859375 .6088867C.055338544 .59521487 .053710939 .58235678 .053710939 .5703125 .053710939 .55826827 .056070966 .54785159 .060791017 .5390625 .06551107 .53027346 .07421875 .5258789 .08691406 .5258789 .108072917 .5258789 .12044271 .53344729 .12402344 .548584 .12760417 .5637207 .12939453 .5864258 .12939453 .6166992L.12890625 .6308594 .16894531 .6357422Z"/>
<path id="font_1_1247" d="M.3022461 .61376956 .37304688 .54296877 .3022461 .47216798 .23144531 .54296877 .3022461 .61376956M.30371095 .38183595C.32877604 .38183595 .35465495 .37980143 .38134767 .37573243 .40804038 .37166343 .43286134 .3658854 .45581056 .35839845 .47875978 .35091148 .49739585 .34179688 .51171877 .3310547 .5260417 .3203125 .5332031 .30826823 .5332031 .29492188 .5332031 .28548179 .52823898 .27246095 .51831057 .25585938 .50838217 .23925781 .49568687 .22135417 .4802246 .20214844 .46476237 .1829427 .44856773 .1644694 .43164063 .14672852 .41471354 .12898763 .3992513 .11393229 .3852539 .1015625 .40804038 .095703128 .4296875 .0921224 .4501953 .09082031 .47070313 .08951823 .4892578 .08886719 .5058594 .08886719H.58203127V0H.50634768C.47216798 0 .43806968 .0040690104 .40405274 .012207031 .3700358 .020345053 .33658854 .033854169 .30371095 .052734376 .28222657 .040364583 .2574056 .030273438 .22924805 .022460938 .2010905 .0146484379 .17277019 .008951823 .14428711 .0053710939 .11580404 .0017903646 .09016927 0 .06738281 0H-.009765625V.08886719H.067871097C.078938808 .08886719 .09383138 .08911133 .11254883 .08959961 .13126628 .09008789 .15063477 .09122721 .1706543 .09301758 .19067383 .094807948 .20817058 .09765625 .22314453 .1015625 .20914714 .11393229 .19368489 .12898763 .17675781 .14672852 .15983074 .1644694 .14363607 .1829427 .12817383 .20214844 .112711589 .22135417 .0999349 .23925781 .08984375 .25585938 .0797526 .27246095 .07470703 .28548179 .07470703 .29492188 .07470703 .30826823 .08170573 .3203125 .095703128 .3310547 .10970052 .34179688 .12817383 .35091148 .15112305 .35839845 .17407227 .3658854 .19889324 .37166343 .22558594 .37573243 .25227867 .37980143 .2783203 .38183595 .30371095 .38183595M.30371095 .29785157C.2890625 .29785157 .2681478 .29671226 .2409668 .2944336 .21378581 .29215495 .18815105 .28694663 .1640625 .2788086 .18522136 .25211589 .20654297 .22819011 .22802735 .20703125 .24951172 .18587239 .26749674 .16902669 .28198243 .15649414L.30371095 .13769531 .3256836 .15649414C.34033204 .16902669 .3585612 .18587239 .3803711 .20703125 .402181 .22819011 .4235026 .25211589 .44433595 .2788086 .4202474 .28694663 .39453126 .29215495 .3671875 .2944336 .33984376 .29671226 .3186849 .29785157 .30371095 .29785157Z"/>
<path id="font_1_731" d="M.028320313-.24658203V-.20019531L.23632813-.115234378V-.1616211L.028320313-.24658203Z"/>
<path id="font_1_1291" d="M-.009765625 .08886719H.09765625C.13899739 .08886719 .1685384 .09814453 .1862793 .11669922 .20402019 .1352539 .21289063 .16373699 .21289063 .20214844 .21289063 .21777344 .21248372 .23258464 .21166992 .24658203 .21085613 .26057945 .20979817 .2745768 .2084961 .28857423L.29003907 .29833985 .29785157 .18408203C.3017578 .12060547 .3347982 .08886719 .39697267 .08886719H.40722657V0H.3959961C.35986329 0 .3309733 .0065104167 .30932618 .01953125 .28767906 .032552083 .27018229 .05094401 .25683595 .07470703 .23925781 .048990888 .21614583 .030110678 .1875 .018066407 .15885417 .0060221354 .12890625 0 .09765625 0H-.009765625V.08886719M.19970703-.07763672 .2680664-.14550781 .19970703-.21435547 .13183594-.14550781 .19970703-.07763672M.037597658-.07763672 .10595703-.14550781 .037597658-.21435547-.030273438-.14550781 .037597658-.07763672Z"/>
<path id="font_1_1213" d="M.3828125 0C.36035157 0 .34155274 .0030110677 .32641603 .009033203 .3112793 .015055339 .29947917 .021484375 .29101563 .028320313 .2861328-.014322917 .27433268-.055582685 .25561524-.095458988 .23689778-.13533528 .20882161-.17008464 .17138672-.19970703 .13395183-.22932942 .084472659-.25016276 .022949219-.26220704L-.005859375-.1850586C.07356771-.16780599 .1295573-.13761394 .16210938-.09448242 .19466146-.05135091 .2109375-.00032552085 .2109375 .05859375 .2109375 .08626302 .20792644 .11531576 .2019043 .14575196 .19588216 .17618816 .1875 .20719402 .17675781 .23876953L.2578125 .26611329 .2841797 .1640625C.29134117 .13671875 .30273438 .11735026 .31835938 .10595703 .33398438 .094563808 .35367839 .08886719 .3774414 .08886719H.3959961V0H.3828125Z"/>
<path id="font_1_730" d="M.22460938 .52197268C.21777344 .52229818 .21191406 .5227051 .20703125 .52319338 .20214844 .52368167 .19645183 .5242513 .1899414 .52490237 .15673828 .47867839 .09863281 .45328776 .015625 .44873048L.009277344 .48632813C.041829427 .4892578 .07063802 .4947103 .095703128 .50268557 .12076823 .5106608 .13916016 .5208333 .1508789 .5332031 .12809246 .53483077 .10709635 .5423177 .087890628 .55566409 .0686849 .56901046 .05908203 .58968099 .05908203 .6176758 .05908203 .63948568 .06673177 .6582845 .08203125 .67407229 .09733073 .68986007 .11653646 .6977539 .13964844 .6977539 .16276042 .6977539 .18196614 .6903483 .19726563 .6755371 .21256511 .6607259 .22021485 .64127609 .22021485 .6171875 .22021485 .5989583 .21582031 .5789388 .20703125 .5571289 .21158855 .55647787 .21875 .55566409 .22851563 .5546875L.22460938 .52197268M.16796875 .5649414C.17154949 .5730794 .17464192 .5817871 .1772461 .59106448 .17985027 .6003418 .18115235 .6088867 .18115235 .6166992 .18115235 .62906906 .17732747 .6389974 .16967774 .6464844 .162028 .6539714 .15266927 .65771487 .14160156 .65771487 .12890625 .65771487 .11857096 .6533203 .1105957 .64453127 .102620448 .6357422 .09863281 .62613937 .09863281 .61572268 .09863281 .5991211 .10555013 .5875651 .119384769 .5810547 .1332194 .57454428 .14941406 .56917318 .16796875 .5649414Z"/>
<path id="font_1_728" d="M.03173828 .5571289V.6035156L.2397461 .68847659V.64208987L.03173828 .5571289Z"/>
<path id="font_1_737" d="M.020507813 .5673828C.020507813 .5908203 .028889975 .6110026 .045654298 .6279297 .06241862 .64485678 .08251953 .6533203 .10595703 .6533203 .12939453 .6533203 .14949544 .64485678 .16625977 .6279297 .1830241 .6110026 .19140625 .5908203 .19140625 .5673828 .19140625 .5439453 .1830241 .5238444 .16625977 .5070801 .14949544 .49031578 .12939453 .4819336 .10595703 .4819336 .08251953 .4819336 .06241862 .49031578 .045654298 .5070801 .028889975 .5238444 .020507813 .5439453 .020507813 .5673828M.059570314 .5673828C.059570314 .554362 .06404623 .54345706 .07299805 .53466799 .08194987 .5258789 .092936199 .5214844 .10595703 .5214844 .11897787 .5214844 .12988281 .5258789 .13867188 .53466799 .14746094 .54345706 .15185547 .554362 .15185547 .5673828 .15185547 .5804036 .14746094 .5914714 .13867188 .60058596 .12988281 .6097005 .11897787 .6142578 .10595703 .6142578 .092936199 .6142578 .08194987 .6097005 .07299805 .60058596 .06404623 .5914714 .059570314 .5804036 .059570314 .5673828Z"/>
<path id="font_1_1179" d="M-.010253906 .08886719H.046875C.08821615 .08886719 .117757167 .09814453 .13549805 .11669922 .15323894 .1352539 .16210938 .16373699 .16210938 .20214844 .16210938 .21777344 .16170247 .23258464 .16088867 .24658203 .16007488 .26057945 .15901692 .2745768 .15771485 .28857423L.23925781 .29833985 .24707031 .18408203C.25097657 .12060547 .28401695 .08886719 .3461914 .08886719H.3564453V0H.34521485C.30908204 0 .28019206 .0065104167 .25854493 .01953125 .23689778 .032552083 .21940105 .05094401 .20605469 .07470703 .18847656 .048990888 .16536458 .030110678 .13671875 .018066407 .108072917 .0060221354 .078125 0 .046875 0H-.010253906V.08886719M.09033203-.07470703 .16113281-.14550781 .09033203-.2163086 .01953125-.14550781 .09033203-.07470703Z"/>
<path id="font_1_1290" d="M-.0107421879 .08886719H.06298828C.10432943 .08886719 .13387044 .09814453 .15161133 .11669922 .16935222 .1352539 .17822266 .16373699 .17822266 .20214844 .17822266 .21777344 .17781575 .23258464 .17700196 .24658203 .17618816 .26057945 .1751302 .2745768 .17382813 .28857423L.2553711 .29833985 .2631836 .18408203C.26708985 .12060547 .30013023 .08886719 .3623047 .08886719H.3725586V0H.36132813C.3251953 0 .29630534 .0065104167 .2746582 .01953125 .25301109 .032552083 .23551433 .05094401 .22216797 .07470703 .20458985 .048990888 .18147786 .030110678 .15283203 .018066407 .124186199 .0060221354 .09423828 0 .06298828 0H-.0107421879V.08886719M.16552735-.07763672 .23388672-.14550781 .16552735-.21435547 .09765625-.14550781 .16552735-.07763672M.0034179688-.07763672 .071777347-.14550781 .0034179688-.21435547-.064453128-.14550781 .0034179688-.07763672Z"/>
<path id="font_1_1185" d="M.5253906 .4790039 .59375 .4111328 .5253906 .34228517 .45751954 .4111328 .5253906 .4790039M.36328126 .4790039 .43164063 .4111328 .36328126 .34228517 .29541017 .4111328 .36328126 .4790039M.7397461 .28857423 .82128909 .29833985 .82958987 .18408203C.83154299 .15315755 .8404134 .1295573 .8562012 .11328125 .87198898 .09700521 .8956706 .08886719 .9272461 .08886719H.93896487V0H.9272461C.8904622 0 .8602702 .006917318 .8366699 .020751954 .81306967 .03458659 .7936198 .056803388 .7783203 .087402347 .75130209 .056152345 .7167155 .033772787 .67456057 .020263672 .6324056 .006754557 .57389327 0 .49902345 0H.41748048C.29475913 0 .20255535 .016601563 .14086914 .049804689 .079182948 .08300781 .048339845 .14046224 .048339845 .22216797 .048339845 .2446289 .05086263 .26660157 .055908204 .28808595 .060953779 .3095703 .06754557 .33024089 .075683597 .35009767L.15136719 .32177735C.14615886 .30745445 .1418457 .29215495 .13842774 .2758789 .13500977 .25960288 .13330078 .24414063 .13330078 .22949219 .1336263 .19140625 .14436849 .16219075 .16552735 .1418457 .1866862 .12150065 .21826172 .10758463 .2602539 .100097659 .3022461 .09261068 .35465495 .08886719 .41748048 .08886719H.49902345C.57682296 .08886719 .6371257 .09700521 .67993167 .11328125 .7227376 .1295573 .7441406 .15917969 .7441406 .20214844 .7441406 .2154948 .7437337 .2298177 .7429199 .24511719 .74210616 .26041667 .74104818 .27490235 .7397461 .28857423Z"/>
<path id="font_2_68" d="M.4921875 0H.34423829L.3310547 .05908203C.31835938 .048990888 .30257163 .038411458 .2836914 .02734375 .2648112 .016276041 .24495442 .006917318 .2241211-.0007324219 .20328777-.008382161 .18326824-.012207031 .1640625-.012207031 .12792969-.012207031 .09724935-.00016276042 .072021488 .023925782 .04679362 .048014326 .034179689 .08105469 .034179689 .123046878 .034179689 .14160156 .037516279 .15885417 .044189454 .17480469 .05086263 .1907552 .064208988 .20597331 .084228519 .22045899 .10424805 .23494466 .1340332 .24910482 .17358399 .26293946 .21313477 .27677409 .265625 .29085288 .3310547 .30517579 .3310547 .30745445 .3310547 .31306968 .3310547 .32202149 .3310547 .3309733 .3310547 .339681 .3310547 .34814454 .3310547 .41389976 .29996745 .44677735 .23779297 .44677735 .22054036 .44677735 .20564778 .44514976 .19311524 .44189454 .18058269 .4386393 .171875 .43603517 .16699219 .43408204V.34716798H.09423828C.085123699 .34716798 .076660159 .34887696 .068847659 .35229493 .061035158 .3557129 .057128908 .36360679 .057128908 .37597657 .057128908 .4033203 .06754557 .42569987 .088378909 .44311524 .10921224 .4605306 .13566081 .47338868 .16772461 .48168946 .1997884 .48999024 .23225911 .49414063 .26513673 .49414063 .30647788 .49414063 .33854167 .48771159 .36132813 .47485353 .3841146 .46199546 .4000651 .44425456 .4091797 .42163087 .41829429 .39900718 .42285157 .37320964 .42285157 .34423829V.063964847C.42285157 .05777995 .42488609 .052652997 .42895509 .048583986 .43302409 .044514974 .43798829 .042317708 .44384767 .041992189L.4921875 .0390625V0M.3310547 .09423828V.26708985C.2861328 .25602214 .2504069 .24487305 .22387696 .23364258 .197347 .22241211 .17757161 .21118164 .16455078 .19995117 .15152996 .1887207 .14298503 .17732747 .13891602 .16577149 .134847 .1542155 .1328125 .14225261 .1328125 .12988281 .1328125 .109375 .1394043 .090413417 .15258789 .07299805 .16577149 .055582685 .1842448 .046875 .20800781 .046875 .22753906 .046875 .2491862 .052246095 .27294923 .06298828 .29671226 .07373047 .31608073 .08414713 .3310547 .09423828Z"/>
<path id="font_2_87" d="M.3330078 .020996094C.31966148 .013834636 .30037437 .0065104167 .27514649-.0009765625 .24991863-.008463542 .22428386-.012207031 .19824219-.012207031 .1608073-.012207031 .13354492-.0033365887 .11645508 .014404297 .099365238 .032145185 .09082031 .060709638 .09082031 .100097659V.4321289H.026855469V.46484376L.095214847 .4970703 .14013672 .60302737H.18408203V.4819336H.3251953V.4321289H.18408203V.15283203C.18408203 .11311849 .1907552 .08504232 .20410156 .068603519 .21744792 .052164716 .23746746 .043945314 .26416017 .043945314 .27848307 .043945314 .2919922 .045898439 .3046875 .049804689 .3173828 .053710939 .3268229 .057454427 .3330078 .061035158V.020996094Z"/>
<path id="font_2_85" d="M.38085938 .3798828H.34179688C.33561198 .38736979 .3282064 .39379884 .31958009 .39916993 .31095378 .40454103 .30045573 .40722657 .28808595 .40722657 .2721354 .40722657 .25577799 .40169273 .23901367 .390625 .22224935 .37955729 .20524089 .36442057 .18798828 .34521485V.063964847C.18798828 .04996745 .19498699 .04264323 .20898438 .041992189L.27490235 .0390625V0H.024902344V.038085939L.07421875 .041992189C.080078128 .04264323 .08504232 .044921876 .08911133 .048828126 .093180339 .052734376 .095214847 .05777995 .095214847 .063964847V.4111328H.022949219V.44384767L.14697266 .4819336H.18798828V.3930664C.2163086 .425944 .2409668 .45100913 .2619629 .46826173 .28295899 .4855143 .3022461 .49414063 .31982423 .49414063 .33024089 .49414063 .34147135 .49251304 .35351563 .4892578 .3655599 .4860026 .37467448 .48258464 .38085938 .4790039V.3798828Z"/>
<path id="font_2_76" d="M.21777344 .64697268C.21777344 .6300456 .21191406 .6154785 .20019531 .6032715 .18847656 .59106448 .17415364 .58496096 .15722656 .58496096 .14029949 .58496096 .12573242 .59106448 .11352539 .6032715 .10131836 .6154785 .095214847 .6300456 .095214847 .64697268 .095214847 .6642253 .10131836 .67871096 .11352539 .6904297 .12573242 .70214846 .14029949 .7080078 .15722656 .7080078 .17415364 .7080078 .18847656 .70214846 .20019531 .6904297 .21191406 .67871096 .21777344 .6642253 .21777344 .64697268M.26904298 0H.034179689V.0390625L.08300781 .041992189C.09700521 .04296875 .104003909 .05029297 .104003909 .063964847V.42089845H.03515625V.4560547L.15722656 .49414063H.19677735V.063964847C.19677735 .05777995 .19881185 .052652997 .20288086 .048583986 .20694988 .044514974 .21191406 .042317708 .21777344 .041992189L.26904298 .0390625V0Z"/>
<path id="font_2_69" d="M.5209961 .26416017C.5209961 .21402996 .5110677 .16902669 .49121095 .12915039 .47135417 .089274089 .44026695 .05777995 .39794923 .03466797 .3556315 .011555989 .300944 0 .23388672 0H.08984375V.66503909H.014160156V.6982422L.1430664 .7368164H.18310547V.45703126C.1944987 .4625651 .212972 .47013346 .23852539 .47973634 .26407878 .4893392 .2915039 .49414063 .32080079 .49414063 .3647461 .49414063 .40152995 .4835612 .43115235 .46240235 .46077476 .4412435 .4831543 .41316734 .49829103 .37817384 .51342776 .34318034 .5209961 .30517579 .5209961 .26416017M.4189453 .24414063C.4189453 .30729167 .40559898 .35489909 .37890626 .3869629 .35221354 .4190267 .31461589 .4350586 .26611329 .4350586 .25504557 .4350586 .2409668 .43326823 .22387696 .4296875 .20678711 .42610679 .19319661 .42252604 .18310547 .4189453V.047851564C.19124349 .047526044 .19938152 .047281904 .20751953 .04711914 .21565755 .04695638 .22379558 .046875 .2319336 .046875 .29117839 .046875 .3371582 .061523439 .36987306 .09082031 .4025879 .12011719 .4189453 .17122396 .4189453 .24414063Z"/>
<path id="font_2_88" d="M.546875 0H.3881836V.057128908C.37679038 .048339845 .3623047 .03857422 .34472657 .027832032 .32714845 .017089844 .30826823 .0077311198 .28808595-.00024414063 .26790367-.008219401 .24788411-.012207031 .22802735-.012207031 .1850586-.012207031 .15128581 .0007324219 .12670899 .026611329 .102132167 .052490236 .08984375 .09358724 .08984375 .14990235V.42089845H.020019532V.45507813L.1430664 .49414063H.18310547V.16894531C.18310547 .13346355 .19034831 .10579427 .20483399 .0859375 .21931966 .06608073 .24430339 .056152345 .27978517 .056152345 .30029298 .056152345 .32047526 .05965169 .34033204 .06665039 .3601888 .073649089 .3761393 .080078128 .3881836 .0859375V.42089845H.3178711V.45507813L.4399414 .49414063H.48095704V.063964847C.48095704 .05777995 .4831543 .052734376 .48754884 .048828126 .49194337 .044921876 .4970703 .04264323 .5029297 .041992189L.546875 .0390625V0Z"/>
<path id="font_2_72" d="M.26611329-.012207031C.2257487-.012207031 .1879069-.0031738282 .15258789 .014892578 .11726888 .032958986 .08870443 .060384115 .06689453 .09716797 .045084638 .13395183 .034179689 .18017578 .034179689 .23583985 .034179689 .2879232 .044270833 .33333335 .064453128 .3720703 .084635417 .41080729 .112467449 .44083659 .14794922 .4621582 .18343099 .48347984 .22379558 .49414063 .26904298 .49414063 .33121745 .49414063 .3779297 .47485353 .4091797 .4362793 .4404297 .39770509 .4560547 .3486328 .4560547 .2890625 .4560547 .28580729 .4560547 .28149415 .4560547 .27612306 .4560547 .27075196 .45572917 .26578776 .45507813 .26123048H.13085938C.13085938 .23583985 .13354492 .2105306 .13891602 .18530274 .14428711 .16007488 .15332031 .13720703 .16601563 .11669922 .17871094 .096191409 .19580078 .0797526 .21728516 .06738281 .23876953 .05501302 .265625 .048828126 .29785157 .048828126 .3264974 .048828126 .3544108 .055419923 .3815918 .068603519 .4087728 .08178711 .43359376 .09586588 .4560547 .110839847V.049804689C.4280599 .032552083 .39786784 .017903647 .36547853 .005859375 .3330892-.006184896 .29996745-.012207031 .26611329-.012207031M.13623047 .30615235H.35595704V.328125C.35595704 .3610026 .34806315 .38867188 .3322754 .4111328 .31648765 .43359376 .2919922 .44482423 .25878907 .44482423 .22591146 .44482423 .19791667 .43245445 .17480469 .40771485 .1516927 .38297526 .13883464 .3491211 .13623047 .30615235Z"/>
<path id="font_2_16" d="M.2758789 .203125H.043945314V.27783204H.2758789V.203125Z"/>
<path id="font_2_83" d="M.52490237 .24804688C.52490237 .19563802 .5148112 .14990235 .4946289 .110839847 .47444663 .071777347 .44547526 .041503908 .40771485 .020019532 .36995445-.0014648438 .32470704-.012207031 .27197267-.012207031 .2569987-.012207031 .2421875-.011230469 .22753906-.009277344 .21289063-.0073242189 .19807942-.0052083337 .18310547-.0029296876V-.15185547C.18310547-.15804036 .18522136-.16292317 .18945313-.1665039 .19368489-.17008464 .19889324-.17220052 .20507813-.17285156L.26416017-.17919922V-.21777344H.020996094V-.17919922L.068847659-.17285156C.082845058-.17122396 .08984375-.16422527 .08984375-.15185547V.4111328H.020996094V.44384767L.14404297 .4819336H.18310547V.4321289C.20589192 .44970704 .23046875 .46443687 .25683595 .47631837 .28320313 .48819987 .30891929 .49414063 .33398438 .49414063 .3684896 .49414063 .40014649 .4839681 .42895509 .46362306 .45776368 .44327799 .48095704 .41471354 .49853517 .3779297 .5161133 .34114585 .52490237 .29785157 .52490237 .24804688M.4248047 .23388672C.4248047 .26839195 .41951499 .29996745 .40893556 .32861329 .3983561 .35725913 .3827311 .3802897 .36206056 .39770509 .34138999 .41512046 .31575523 .42382813 .28515626 .42382813 .26822917 .42382813 .25065104 .4207357 .23242188 .41455079 .2141927 .40836589 .1977539 .40152995 .18310547 .39404298V.049804689C.21044922 .03938802 .23746746 .034179689 .26416017 .034179689 .300944 .034179689 .33113609 .043619794 .35473634 .0625 .37833659 .08138021 .3959147 .106038417 .4074707 .13647461 .4190267 .16691081 .4248047 .19938152 .4248047 .23388672Z"/>
<path id="font_2_75" d="M.55078127 0H.328125V.0390625L.36914063 .041992189C.375 .04264323 .38012696 .044921876 .38452149 .048828126 .38891603 .052734376 .39111329 .05777995 .39111329 .063964847V.32177735C.39111329 .3504232 .38427735 .37410484 .37060548 .39282228 .3569336 .4115397 .33072917 .42089845 .2919922 .42089845 .27441407 .42089845 .25545249 .4181315 .23510742 .41259767 .21476238 .4070638 .19742839 .40022788 .18310547 .39208985V.063964847C.18310547 .05029297 .18977864 .04296875 .203125 .041992189L.24609375 .0390625V0H.020996094V.0390625L.068847659 .041992189C.082845058 .04296875 .08984375 .05029297 .08984375 .063964847V.66503909H.015136719V.6982422L.1430664 .7368164H.18310547V.4321289C.19514974 .43961589 .21077474 .4481608 .22998047 .45776368 .2491862 .46736656 .2693685 .47583009 .29052735 .4831543 .3116862 .49047853 .33089195 .49414063 .34814454 .49414063 .386556 .49414063 .41878257 .48177085 .44482423 .45703126 .47086589 .43229167 .48388673 .39420573 .48388673 .34277345V.063964847C.48388673 .05777995 .48608399 .052734376 .49047853 .048828126 .49487306 .044921876 .5 .04264323 .5058594 .041992189L.55078127 .0390625V0Z"/>
<path id="font_2_86" d="M.3491211 .35302735H.296875L.2890625 .42285157C.28190104 .4283854 .27132163 .43359376 .25732423 .43847657 .24332683 .44335938 .22851563 .44580079 .21289063 .44580079 .18554688 .44580079 .16520183 .43953453 .15185547 .42700196 .13850911 .4144694 .13183594 .3984375 .13183594 .37890626 .13183594 .36393229 .1352539 .35123698 .14208985 .3408203 .14892578 .33040367 .16048177 .3202311 .17675781 .31030274 .19303386 .30037437 .21516927 .28889976 .24316406 .2758789 .27799479 .25992839 .30680339 .24226888 .32958985 .22290039 .3523763 .2035319 .36376954 .17757161 .36376954 .14501953 .36376954 .09586588 .34684245 .057373048 .31298829 .029541016 .27913413 .0017089844 .23242188-.012207031 .17285156-.012207031 .14225261-.012207031 .11401367-.009033203 .088134769-.0026855469 .06225586 .0036621094 .044270833 .008951823 .034179689 .013183594V.1459961H.08496094L.09716797 .061035158C.10725912 .05452474 .11971029 .048258466 .13452149 .042236329 .14933269 .03621419 .1665039 .033203126 .18603516 .033203126 .21468099 .033203126 .2368164 .041178388 .2524414 .057128908 .2680664 .07307943 .2758789 .09098307 .2758789 .110839847 .2758789 .13688152 .2652181 .15730794 .24389649 .17211914 .22257488 .18693035 .19254558 .20361328 .1538086 .22216797 .11735026 .2397461 .08943685 .2578125 .07006836 .2763672 .05069987 .29492188 .041015626 .3191732 .041015626 .3491211 .041015626 .39371745 .056640626 .42903648 .087890628 .45507813 .119140628 .48111979 .16357422 .49414063 .2211914 .49414063 .25048829 .49414063 .27661134 .49145509 .29956056 .48608399 .32250978 .4807129 .33902995 .4757487 .3491211 .4711914V.35302735Z"/>
<path id="font_2_180" d="M.39208985 .70214846C.38264976 .69108077 .37141929 .6780599 .35839845 .66308596 .3453776 .648112 .33390299 .6312663 .3239746 .6125488 .31404624 .59383139 .30908204 .5732422 .30908204 .55078127 .30908204 .54752609 .30924479 .5440267 .3095703 .5402832 .30989585 .53653976 .3100586 .5333659 .3100586 .5307617H.37304688L.38061524 .5197754C.3856608 .5124512 .3881836 .5032552 .3881836 .4921875 .3881836 .4752604 .38264976 .46069337 .37158204 .44848634 .3605143 .4362793 .34602867 .43017579 .328125 .43017579 .30208335 .43017579 .28173829 .4388021 .26708985 .4560547 .2524414 .47330729 .24511719 .4962565 .24511719 .52490237 .24511719 .5489909 .24951172 .5710449 .25830079 .59106448 .26708985 .611084 .27775065 .62890627 .2902832 .64453127 .30281578 .66015627 .31510417 .67333987 .32714845 .68408206 .33919273 .6948242 .34847007 .703125 .35498048 .7089844L.39208985 .70214846M.18603516 .70214846C.16617839 .6822917 .14737956 .65966799 .12963867 .63427737 .11189779 .6088867 .103027347 .5807292 .103027347 .5498047 .103027347 .5465495 .1031901 .5432129 .103515628 .5397949 .10384115 .53637698 .104003909 .5333659 .104003909 .5307617H.16699219L.17456055 .5202637C.17960613 .51326498 .1821289 .50358077 .1821289 .49121095 .1821289 .47428385 .17667644 .45987956 .16577149 .44799806 .15486653 .43611656 .14029949 .43017579 .12207031 .43017579 .096354167 .43017579 .07609049 .43847657 .061279298 .45507813 .046468099 .4716797 .0390625 .49430339 .0390625 .5229492 .0390625 .5473633 .04345703 .56974288 .052246095 .5900879 .061035158 .6104329 .07169596 .6284993 .084228519 .6442871 .09676107 .6600749 .10904948 .67333987 .12109375 .68408206 .13313802 .6948242 .14241536 .703125 .14892578 .7089844L.18603516 .70214846Z"/>
<path id="font_2_80" d="M.828125 0H.6040039V.0390625L.6459961 .041992189C.65999349 .04296875 .6669922 .05029297 .6669922 .063964847V.31884767C.6669922 .34977214 .6605632 .37451173 .6477051 .3930664 .634847 .4116211 .6116536 .42089845 .578125 .42089845 .56152346 .42089845 .5433757 .41829429 .52368167 .41308595 .5039876 .4078776 .48649089 .40120445 .4711914 .3930664V.063964847C.4711914 .05029297 .4781901 .04296875 .4921875 .041992189L.5341797 .0390625V0H.3149414V.0390625L.3569336 .041992189C.370931 .04296875 .3779297 .05029297 .3779297 .063964847V.3251953C.3779297 .35351563 .3712565 .37654624 .35791017 .3942871 .3445638 .41202799 .3219401 .42089845 .29003907 .42089845 .27115885 .42089845 .25146485 .4177246 .23095703 .41137696 .21044922 .4050293 .1944987 .39860026 .18310547 .39208985V.063964847C.18310547 .05029297 .19010417 .04296875 .20410156 .041992189L.24609375 .0390625V0H.020019532V.0390625L.068847659 .041992189C.082845058 .04296875 .08984375 .05029297 .08984375 .063964847V.4111328H.020996094V.44384767L.14208985 .4819336H.18310547V.4321289C.19807942 .4412435 .21492513 .45052085 .23364258 .45996095 .25236003 .46940104 .27148438 .47745768 .29101563 .48413087 .31054688 .49080406 .3289388 .49414063 .3461914 .49414063 .37516276 .49414063 .39860026 .48673503 .4165039 .47192384 .43440757 .45711265 .44759117 .44140626 .4560547 .4248047 .46940104 .43326823 .48632813 .44295249 .50683596 .45385743 .52734377 .46476237 .548584 .47420249 .57055667 .48217774 .5925293 .49015299 .6123047 .49414063 .6298828 .49414063 .66503909 .49414063 .69189456 .48608399 .7104492 .4699707 .7290039 .45385743 .7416992 .43400065 .74853518 .4104004 .7553711 .38680015 .75878909 .36360679 .75878909 .3408203V.063964847C.75878909 .05777995 .76082357 .052652997 .7648926 .048583986 .7689616 .044514974 .7739258 .042317708 .77978518 .041992189L.828125 .0390625V0Z"/>
<path id="font_2_79" d="M.27001954 0H.026855469V.0390625L.080078128 .041992189C.084635417 .042317708 .08943685 .044840497 .09448242 .049560548 .09952799 .054280599 .10205078 .05875651 .10205078 .06298828V.66503909H.025878907V.6982422L.1538086 .7368164H.19482422V.06298828C.19482422 .05875651 .19726563 .054280599 .20214844 .049560548 .20703125 .044840497 .21158855 .042317708 .21582031 .041992189L.27001954 .0390625V0Z"/>
<path id="font_2_82" d="M.5097656 .24023438C.5097656 .19303386 .5 .15030925 .48046876 .11206055 .4609375 .07381185 .4333496 .04353841 .39770509 .021240235 .36206056-.0010579428 .31982423-.012207031 .2709961-.012207031 .22249349-.012207031 .1805013-.0011393229 .14501953 .020996094 .10953776 .04313151 .08219401 .07324219 .06298828 .111328128 .04378255 .14941406 .034179689 .19238281 .034179689 .24023438 .034179689 .2877604 .043863935 .33072917 .06323242 .36914063 .082600917 .4075521 .11027018 .43798829 .14624024 .46044923 .18221028 .48291017 .22477214 .49414063 .27392579 .49414063 .32373048 .49414063 .36621095 .4827474 .4013672 .45996095 .43652345 .43717448 .4633789 .40657554 .4819336 .36816407 .5004883 .3297526 .5097656 .28710938 .5097656 .24023438M.40576173 .24121094C.40576173 .27766929 .4009603 .3116862 .39135743 .34326173 .38175456 .37483726 .3671061 .40039063 .3474121 .41992188 .3277181 .43945313 .30289714 .44921876 .27294923 .44921876 .24202474 .44921876 .2167155 .43945313 .19702149 .41992188 .17732747 .40039063 .16276042 .37483726 .15332031 .34326173 .1438802 .3116862 .13916016 .27766929 .13916016 .24121094 .13916016 .20507813 .1439616 .17114258 .15356446 .1394043 .16316732 .107666019 .17781575 .08203125 .19750977 .0625 .21720378 .04296875 .24202474 .033203126 .27197267 .033203126 .30257163 .033203126 .3277181 .04296875 .3474121 .0625 .3671061 .08203125 .38175456 .10758463 .39135743 .13916016 .4009603 .17073567 .40576173 .20475261 .40576173 .24121094Z"/>
<path id="font_2_181" d="M.4140625 .61621096C.4140625 .5917969 .40966798 .5694173 .4008789 .54907229 .39208985 .52872726 .38142906 .5106608 .36889649 .49487306 .35636393 .4790853 .34407554 .4658203 .33203126 .45507813 .31998698 .44433595 .31070964 .43603517 .30419923 .43017579L.26708985 .43798829C.28727214 .45817057 .3063151 .48079429 .32421876 .5058594 .3421224 .5309245 .35107423 .55891928 .35107423 .58984377 .35107423 .5934245 .3507487 .59676107 .35009767 .5998535 .34944663 .602946 .3491211 .60563156 .3491211 .60791018H.2861328L.27856446 .6191406C.2735189 .6266276 .2709961 .63655599 .2709961 .6489258 .2709961 .6661784 .27652995 .6805013 .28759767 .69189456 .29866538 .7032878 .31315104 .7089844 .3310547 .7089844 .3564453 .7089844 .3766276 .70060226 .39160157 .6838379 .40657554 .66707357 .4140625 .64453127 .4140625 .61621096M.20800781 .6152344C.20800781 .5911458 .20361328 .5690918 .19482422 .54907229 .18603516 .52905276 .17537435 .5111491 .1628418 .49536134 .15030925 .47957359 .13802083 .4662272 .12597656 .45532228 .11393229 .44441734 .104654949 .43603517 .09814453 .43017579L.061035158 .43798829C.07047526 .449056 .08170573 .46199546 .09472656 .47680665 .1077474 .49161784 .11922201 .5083008 .12915039 .52685549 .13907878 .54541018 .14404297 .5657552 .14404297 .5878906 .14404297 .5914714 .1438802 .5951335 .14355469 .59887698 .14322917 .6026204 .1430664 .60563156 .1430664 .60791018H.080078128L.072509769 .6196289C.067464198 .6274414 .064941409 .63688156 .064941409 .6479492 .064941409 .66520187 .07063802 .6796875 .08203125 .69140627 .09342448 .703125 .108072917 .7089844 .12597656 .7089844 .15201824 .7089844 .17220052 .70043948 .18652344 .6833496 .20084636 .66625979 .20800781 .6435547 .20800781 .6152344Z"/>
<path id="font_2_11" d="M.34277345-.14208985C.2906901-.13623047 .24650066-.12093099 .21020508-.096191409 .1739095-.07145182 .14469402-.039469404 .122558597-.00024414063 .10042318 .03898112 .0843099 .08317057 .07421875 .13232422 .0641276 .18147786 .05908203 .23339844 .05908203 .28808595 .05908203 .3424479 .0641276 .39420573 .07421875 .44335938 .0843099 .49251304 .10042318 .5366211 .122558597 .5756836 .14469402 .6147461 .1739095 .64664718 .21020508 .6713867 .24650066 .6961263 .2906901 .711263 .34277345 .7167969V.67285159C.27246095 .6614583 .22306316 .6222331 .19458008 .5551758 .166097 .4881185 .15185547 .39908854 .15185547 .28808595 .15185547 .2141927 .15804036 .1496582 .17041016 .09448242 .18277996 .03930664 .20288086-.004638672 .23071289-.037353517 .25854493-.07006836 .29589845-.09033203 .34277345-.09814453V-.14208985Z"/>
<path id="font_2_92" d="M.52001956 .4428711 .46777345 .43701173 .2758789-.030761719C.27164714-.041503908 .26505534-.056884767 .25610353-.0769043 .24715169-.09692383 .23657227-.11743164 .22436524-.13842774 .2121582-.15942383 .19905599-.17692058 .1850586-.19091797 .17301433-.20296224 .15974935-.21232097 .14526367-.21899414 .130778-.22566732 .11507162-.2290039 .09814453-.2290039 .07438151-.2290039 .056233724-.2232259 .043701173-.21166992 .03116862-.20011394 .024902344-.18684896 .024902344-.171875 .024902344-.14973958 .03564453-.12972005 .057128908-.111816409L.1508789-.15478516C.16194661-.14371746 .17301433-.12874349 .18408203-.10986328 .19514974-.09098307 .2051595-.07145182 .21411133-.05126953 .22306316-.03108724 .22998047-.013671875 .23486328 .0009765625L.064941409 .43701173 .009765625 .4428711V.4819336H.23095703V.4428711L.18310547 .4399414C.17757161 .43961589 .1730957 .43725587 .16967774 .43286134 .16625977 .4284668 .16569011 .4235026 .16796875 .41796876L.2841797 .123046878 .40283204 .41796876C.4051107 .4231771 .40478517 .4280599 .40185548 .4326172 .39892579 .43717448 .394694 .43961589 .38916017 .4399414L.34179688 .4428711V.4819336H.52001956V.4428711Z"/>
<path id="font_2_29" d="M.19580078 .4267578C.19580078 .40852867 .18912761 .39282228 .17578125 .37963868 .16243489 .36645509 .14648438 .35986329 .12792969 .35986329 .109375 .35986329 .09358724 .36645509 .080566409 .37963868 .06754557 .39282228 .061035158 .40852867 .061035158 .4267578 .061035158 .4453125 .06754557 .46118165 .080566409 .47436524 .09358724 .48754884 .109375 .49414063 .12792969 .49414063 .14648438 .49414063 .16243489 .48754884 .17578125 .47436524 .18912761 .46118165 .19580078 .4453125 .19580078 .4267578M.19580078 .05517578C.19580078 .036621095 .18912761 .020751954 .17578125 .0075683596 .16243489-.0056152346 .14648438-.012207031 .12792969-.012207031 .109375-.012207031 .09358724-.0056152346 .080566409 .0075683596 .06754557 .020751954 .061035158 .036621095 .061035158 .05517578 .061035158 .073404949 .06754557 .08911133 .080566409 .10229492 .09358724 .115478519 .109375 .12207031 .12792969 .12207031 .14648438 .12207031 .16243489 .115478519 .17578125 .10229492 .18912761 .08911133 .19580078 .073404949 .19580078 .05517578Z"/>
<path id="font_2_81" d="M.546875 0H.32617188V.0390625L.36816407 .041992189C.37402345 .04264323 .37898765 .044921876 .38305665 .048828126 .38712565 .052734376 .38916017 .05777995 .38916017 .063964847V.32421876C.38916017 .35579429 .38183595 .37980143 .3671875 .39624024 .35253907 .41267906 .32779948 .42089845 .29296876 .42089845 .27408854 .42089845 .2552897 .4182129 .23657227 .4128418 .21785482 .4074707 .20003255 .40055339 .18310547 .39208985V.063964847C.18310547 .05029297 .19010417 .04296875 .20410156 .041992189L.24609375 .0390625V0H.020019532V.0390625L.068847659 .041992189C.082845058 .04296875 .08984375 .05029297 .08984375 .063964847V.4111328H.020019532V.44384767L.14208985 .4819336H.18310547V.4321289C.21110027 .44807945 .23982747 .46240235 .2692871 .47509767 .29874674 .48779298 .32503257 .49414063 .34814454 .49414063 .3917643 .49414063 .42496745 .48055015 .4477539 .45336915 .47054038 .42618815 .4819336 .38834635 .4819336 .33984376V.063964847C.4819336 .05777995 .4839681 .052734376 .4880371 .048828126 .4921061 .044921876 .4970703 .04264323 .5029297 .041992189L.546875 .0390625V0Z"/>
<path id="font_2_12" d="M.3178711 .28808595C.3178711 .23339844 .31282554 .18147786 .30273438 .13232422 .29264323 .08317057 .27652995 .03898112 .25439454-.00024414063 .23225911-.039469404 .203125-.07145182 .16699219-.096191409 .13085938-.12093099 .08658854-.13623047 .034179689-.14208985V-.09814453C.08105469-.09033203 .1184082-.07006836 .14624024-.037353517 .17407227-.004638672 .19401042 .03930664 .20605469 .09448242 .21809896 .1496582 .2241211 .2141927 .2241211 .28808595 .2241211 .36197917 .21809896 .42635093 .20605469 .48120118 .19401042 .53605148 .17407227 .579834 .14624024 .6125488 .1184082 .6452637 .08105469 .66536459 .034179689 .67285159V.7167969C.08658854 .7109375 .13085938 .695638 .16699219 .67089846 .203125 .6461589 .23225911 .6143392 .25439454 .57543948 .27652995 .53653976 .29264323 .49251304 .30273438 .44335938 .31282554 .39420573 .3178711 .3424479 .3178711 .28808595Z"/>
</defs>
<use data-text="&#x0671;" xlink:href="#font_1_781" transform="matrix(16.438357,0,0,-16.438357,66.48675,76.7877)" fill="#343a40"/>
<use data-text="&#x0644;" xlink:href="#font_1_1262" transform="matrix(16.438357,0,0,-16.438357,61.7525,76.7877)" fill="#343a40"/>
<use data-text="&#x0635;" xlink:href="#font_1_1227" transform="matrix(16.438357,0,0,-16.438357,47.631956,76.7877)" fill="#343a40"/>
<use data-text="&#x0651;" xlink:href="#font_1_735" transform="matrix(16.438357,0,0,-16.438357,54.398855,75.4875)" fill="#343a40"/>
<use data-text="&#x063a;" xlink:href="#font_1_1247" transform="matrix(16.438357,0,0,-16.438357,38.20905,76.7877)" fill="#343a40"/>
<use data-text="&#x0650;" xlink:href="#font_1_731" transform="matrix(16.438357,0,0,-16.438357,40.938154,76.61115)" fill="#343a40"/>
<use data-text="&#x064a;" xlink:href="#font_1_1291" transform="matrix(16.438357,0,0,-16.438357,31.683299,76.7877)" fill="#343a40"/>
<use data-text="&#x0631;" xlink:href="#font_1_1213" transform="matrix(16.438357,0,0,-16.438357,25.338093,76.7877)" fill="#343a40"/>
<use data-text="&#x064f;" xlink:href="#font_1_730" transform="matrix(16.438357,0,0,-16.438357,26.2185,77.47906)" fill="#343a40"/>
<use data-text="&#x0671;" xlink:href="#font_1_781" transform="matrix(16.438357,0,0,-16.438357,116.42069,76.7877)" fill="#343a40"/>
<use data-text="&#x064e;" xlink:href="#font_1_728" transform="matrix(16.438357,0,0,-16.438357,116.15505,72.0687)" fill="#343a40"/>
<use data-text="&#x0644;" xlink:href="#font_1_1262" transform="matrix(16.438357,0,0,-16.438357,111.6852,76.7877)" fill="#343a40"/>
<use data-text="&#x0652;" xlink:href="#font_1_737" transform="matrix(16.438357,0,0,-16.438357,112.70325,72.2535)" fill="#343a40"/>
<use data-text="&#x0628;" xlink:href="#font_1_1179" transform="matrix(16.438357,0,0,-16.438357,105.9861,76.7877)" fill="#343a40"/>
<use data-text="&#x064e;" xlink:href="#font_1_728" transform="matrix(16.438357,0,0,-16.438357,106.51575,78.8502)" fill="#343a40"/>
<use data-text="&#x064a;" xlink:href="#font_1_1290" transform="matrix(16.438357,0,0,-16.438357,100.02135,76.7877)" fill="#343a40"/>
<use data-text="&#x0652;" xlink:href="#font_1_737" transform="matrix(16.438357,0,0,-16.438357,101.562458,77.1969)" fill="#343a40"/>
<use data-text="&#x062a;" xlink:href="#font_1_1185" transform="matrix(16.438357,0,0,-16.438357,84.7473,76.7877)" fill="#343a40"/>
<use data-text="&#x064f;" xlink:href="#font_1_730" transform="matrix(16.438357,0,0,-16.438357,89.7072,75.03045)" fill="#343a40"/>
<path transform="matrix(1.65,0,0,-1.65,20.5194,76.7877)" stroke-width=".3985" stroke-linecap="butt" stroke-miterlimit="10" stroke-linejoin="miter" fill="none" stroke="#343a40" d="M-.19925 9.52156C.17433 10.26877 1.04608 10.7669 2.29143 10.7669H14.05392C15.29927 10.7669 16.17102 11.26503 16.54462 12.01225 16.9182 11.26503 17.78996 10.7669 19.03531 10.7669H30.79779C32.04314 10.7669 32.91489 10.26877 33.28848 9.52156"/>
<use data-text="a" xlink:href="#font_2_68" transform="matrix(0,-11.506852,-11.506852,-0,51.77865,55.270044)" fill="#343a40"/>
<use data-text="t" xlink:href="#font_2_87" transform="matrix(0,-11.506852,-11.506852,-0,51.77865,49.41305)" fill="#343a40"/>
<use data-text="t" xlink:href="#font_2_87" transform="matrix(0,-11.506852,-11.506852,-0,51.77865,45.50072)" fill="#343a40"/>
<use data-text="r" xlink:href="#font_2_85" transform="matrix(0,-11.506852,-11.506852,-0,51.77865,41.588396)" fill="#343a40"/>
<use data-text="i" xlink:href="#font_2_76" transform="matrix(0,-11.506852,-11.506852,-0,51.77865,37.08921)" fill="#343a40"/>
<use data-text="b" xlink:href="#font_2_69" transform="matrix(0,-11.506852,-11.506852,-0,51.77865,33.60264)" fill="#343a40"/>
<use data-text="u" xlink:href="#font_2_88" transform="matrix(0,-11.506852,-11.506852,-0,51.77865,27.216332)" fill="#343a40"/>
<use data-text="t" xlink:href="#font_2_87" transform="matrix(0,-11.506852,-11.506852,-0,51.77865,20.668938)" fill="#343a40"/>
<use data-text="e" xlink:href="#font_2_72" transform="matrix(0,-11.506852,-11.506852,-0,51.77865,16.756608)" fill="#343a40"/>
<path transform="matrix(1.65,0,0,-1.65,20.5194,76.7877)" stroke-width=".3985" stroke-linecap="butt" stroke-miterlimit="10" stroke-linejoin="miter" fill="none" stroke="#343a40" d="M35.80876 9.52156C36.18234 10.26877 37.05411 10.7669 38.29945 10.7669H47.18936C48.43471 10.7669 49.30647 11.26503 49.68005 12.01225 50.05365 11.26503 50.9254 10.7669 52.17075 10.7669H61.06067C62.30602 10.7669 63.17778 10.26877 63.55136 9.52156"/>
<use data-text="a" xlink:href="#font_2_68" transform="matrix(0,-11.506852,-11.506852,-0,106.45139,55.270044)" fill="#343a40"/>
<use data-text="t" xlink:href="#font_2_87" transform="matrix(0,-11.506852,-11.506852,-0,106.45139,49.413049)" fill="#343a40"/>
<use data-text="t" xlink:href="#font_2_87" transform="matrix(0,-11.506852,-11.506852,-0,106.45139,45.500719)" fill="#343a40"/>
<use data-text="r" xlink:href="#font_2_85" transform="matrix(0,-11.506852,-11.506852,-0,106.45139,41.588396)" fill="#343a40"/>
<use data-text="i" xlink:href="#font_2_76" transform="matrix(0,-11.506852,-11.506852,-0,106.45139,37.08921)" fill="#343a40"/>
<use data-text="b" xlink:href="#font_2_69" transform="matrix(0,-11.506852,-11.506852,-0,106.45139,33.60263)" fill="#343a40"/>
<use data-text="u" xlink:href="#font_2_88" transform="matrix(0,-11.506852,-11.506852,-0,106.45139,27.21634)" fill="#343a40"/>
<use data-text="t" xlink:href="#font_2_87" transform="matrix(0,-11.506852,-11.506852,-0,106.45139,20.668946)" fill="#343a40"/>
<use data-text="e" xlink:href="#font_2_72" transform="matrix(0,-11.506852,-11.506852,-0,106.45139,16.756623)" fill="#343a40"/>
<use data-text="e" xlink:href="#font_2_72" transform="matrix(0,-11.506852,-11.506852,-0,106.45139,11.118271)" fill="#343a40"/>
<path transform="matrix(1.65,0,0,-1.65,20.5194,76.7877)" stroke-width=".3985" stroke-linecap="butt" stroke-miterlimit="10" stroke-linejoin="miter" fill="none" stroke="#343a40" d="M-.19925-4.72015C.17433-5.46736 1.04608-5.9655 2.29143-5.9655H29.18536C30.43071-5.9655 31.30246-6.46362 31.67606-7.21085 32.04964-6.46362 32.9214-5.9655 34.16675-5.9655H61.06067C62.30602-5.9655 63.17778-5.46736 63.55136-4.72015"/>
<use data-text="a" xlink:href="#font_2_68" transform="matrix(11.506852,0,0,-11.506852,5.4796507,100.287)" fill="#343a40"/>
<use data-text="t" xlink:href="#font_2_87" transform="matrix(11.506852,0,0,-11.506852,11.3366379,100.287)" fill="#343a40"/>
<use data-text="t" xlink:href="#font_2_87" transform="matrix(11.506852,0,0,-11.506852,15.248968,100.287)" fill="#343a40"/>
<use data-text="r" xlink:href="#font_2_85" transform="matrix(11.506852,0,0,-11.506852,19.161297,100.287)" fill="#343a40"/>
<use data-text="i" xlink:href="#font_2_76" transform="matrix(11.506852,0,0,-11.506852,23.660477,100.287)" fill="#343a40"/>
<use data-text="b" xlink:href="#font_2_69" transform="matrix(11.506852,0,0,-11.506852,27.14705,100.287)" fill="#343a40"/>
<use data-text="u" xlink:href="#font_2_88" transform="matrix(11.506852,0,0,-11.506852,33.533357,100.287)" fill="#343a40"/>
<use data-text="t" xlink:href="#font_2_87" transform="matrix(11.506852,0,0,-11.506852,40.080755,100.287)" fill="#343a40"/>
<use data-text="e" xlink:href="#font_2_72" transform="matrix(11.506852,0,0,-11.506852,43.993085,100.287)" fill="#343a40"/>
<use data-text="e" xlink:href="#font_2_72" transform="matrix(11.506852,0,0,-11.506852,49.631444,100.287)" fill="#343a40"/>
<use data-text="-" xlink:href="#font_2_16" transform="matrix(11.506852,0,0,-11.506852,55.2698,100.287)" fill="#343a40"/>
<use data-text="a" xlink:href="#font_2_68" transform="matrix(11.506852,0,0,-11.506852,58.951993,100.287)" fill="#343a40"/>
<use data-text="t" xlink:href="#font_2_87" transform="matrix(11.506852,0,0,-11.506852,64.80898,100.287)" fill="#343a40"/>
<use data-text="t" xlink:href="#font_2_87" transform="matrix(11.506852,0,0,-11.506852,68.72131,100.287)" fill="#343a40"/>
<use data-text="r" xlink:href="#font_2_85" transform="matrix(11.506852,0,0,-11.506852,72.633647,100.287)" fill="#343a40"/>
<use data-text="i" xlink:href="#font_2_76" transform="matrix(11.506852,0,0,-11.506852,77.13282,100.287)" fill="#343a40"/>
<use data-text="b" xlink:href="#font_2_69" transform="matrix(11.506852,0,0,-11.506852,80.6194,100.287)" fill="#343a40"/>
<use data-text="u" xlink:href="#font_2_88" transform="matrix(11.506852,0,0,-11.506852,87.0057,100.287)" fill="#343a40"/>
<use data-text="t" xlink:href="#font_2_87" transform="matrix(11.506852,0,0,-11.506852,93.5531,100.287)" fill="#343a40"/>
<use data-text="e" xlink:href="#font_2_72" transform="matrix(11.506852,0,0,-11.506852,97.46543,100.287)" fill="#343a40"/>
<use data-text="p" xlink:href="#font_2_83" transform="matrix(11.506852,0,0,-11.506852,106.47529,100.287)" fill="#343a40"/>
<use data-text="h" xlink:href="#font_2_75" transform="matrix(11.506852,0,0,-11.506852,112.90762,100.287)" fill="#343a40"/>
<use data-text="r" xlink:href="#font_2_85" transform="matrix(11.506852,0,0,-11.506852,119.51256,100.287)" fill="#343a40"/>
<use data-text="a" xlink:href="#font_2_68" transform="matrix(11.506852,0,0,-11.506852,124.01174,100.287)" fill="#343a40"/>
<use data-text="s" xlink:href="#font_2_86" transform="matrix(11.506852,0,0,-11.506852,129.86873,100.287)" fill="#343a40"/>
<use data-text="e" xlink:href="#font_2_72" transform="matrix(11.506852,0,0,-11.506852,134.44846,100.287)" fill="#343a40"/>
<use data-text="&#x201c;" xlink:href="#font_2_180" transform="matrix(16.438357,0,0,-16.438357,26.3274,140.24506)" fill="#343a40"/>
<use data-text="t" xlink:href="#font_2_87" transform="matrix(16.438357,0,0,-16.438357,33.773977,140.24506)" fill="#343a40"/>
<use data-text="h" xlink:href="#font_2_75" transform="matrix(16.438357,0,0,-16.438357,39.29726,140.24506)" fill="#343a40"/>
<use data-text="e" xlink:href="#font_2_72" transform="matrix(16.438357,0,0,-16.438357,48.73288,140.24506)" fill="#343a40"/>
<use data-text="s" xlink:href="#font_2_86" transform="matrix(16.438357,0,0,-16.438357,61.587675,140.24506)" fill="#343a40"/>
<use data-text="m" xlink:href="#font_2_80" transform="matrix(16.438357,0,0,-16.438357,68.130138,140.24506)" fill="#343a40"/>
<use data-text="a" xlink:href="#font_2_68" transform="matrix(16.438357,0,0,-16.438357,82.10274,140.24506)" fill="#343a40"/>
<use data-text="l" xlink:href="#font_2_79" transform="matrix(16.438357,0,0,-16.438357,90.469867,140.24506)" fill="#343a40"/>
<use data-text="l" xlink:href="#font_2_79" transform="matrix(16.438357,0,0,-16.438357,95.35205,140.24506)" fill="#343a40"/>
<use data-text="h" xlink:href="#font_2_75" transform="matrix(16.438357,0,0,-16.438357,105.05068,140.24506)" fill="#343a40"/>
<use data-text="o" xlink:href="#font_2_82" transform="matrix(16.438357,0,0,-16.438357,114.4863,140.24506)" fill="#343a40"/>
<use data-text="u" xlink:href="#font_2_88" transform="matrix(16.438357,0,0,-16.438357,123.428768,140.24506)" fill="#343a40"/>
<use data-text="s" xlink:href="#font_2_86" transform="matrix(16.438357,0,0,-16.438357,132.78218,140.24506)" fill="#343a40"/>
<use data-text="e" xlink:href="#font_2_72" transform="matrix(16.438357,0,0,-16.438357,139.32466,140.24506)" fill="#343a40"/>
<use data-text="&#x201d;" xlink:href="#font_2_181" transform="matrix(16.438357,0,0,-16.438357,147.31369,140.24506)" fill="#343a40"/>
<use data-text="(" xlink:href="#font_2_11" transform="matrix(16.438357,0,0,-16.438357,26.3274,159.9708)" fill="#343a40"/>
<use data-text="l" xlink:href="#font_2_79" transform="matrix(16.438357,0,0,-16.438357,32.508226,159.9708)" fill="#343a40"/>
<use data-text="i" xlink:href="#font_2_76" transform="matrix(16.438357,0,0,-16.438357,37.390417,159.9708)" fill="#343a40"/>
<use data-text="t" xlink:href="#font_2_87" transform="matrix(16.438357,0,0,-16.438357,42.37124,159.9708)" fill="#343a40"/>
<use data-text="e" xlink:href="#font_2_72" transform="matrix(16.438357,0,0,-16.438357,47.96028,159.9708)" fill="#343a40"/>
<use data-text="r" xlink:href="#font_2_85" transform="matrix(16.438357,0,0,-16.438357,56.015077,159.9708)" fill="#343a40"/>
<use data-text="a" xlink:href="#font_2_68" transform="matrix(16.438357,0,0,-16.438357,62.442476,159.9708)" fill="#343a40"/>
<use data-text="l" xlink:href="#font_2_79" transform="matrix(16.438357,0,0,-16.438357,70.8096,159.9708)" fill="#343a40"/>
<use data-text="l" xlink:href="#font_2_79" transform="matrix(16.438357,0,0,-16.438357,75.69179,159.9708)" fill="#343a40"/>
<use data-text="y" xlink:href="#font_2_92" transform="matrix(16.438357,0,0,-16.438357,80.57398,159.9708)" fill="#343a40"/>
<use data-text=":" xlink:href="#font_2_29" transform="matrix(16.438357,0,0,-16.438357,89.286319,159.9708)" fill="#343a40"/>
<use data-text="&#x201c;" xlink:href="#font_2_180" transform="matrix(16.438357,0,0,-16.438357,100.30001,159.9708)" fill="#343a40"/>
<use data-text="t" xlink:href="#font_2_87" transform="matrix(16.438357,0,0,-16.438357,107.74659,159.9708)" fill="#343a40"/>
<use data-text="h" xlink:href="#font_2_75" transform="matrix(16.438357,0,0,-16.438357,113.26988,159.9708)" fill="#343a40"/>
<use data-text="e" xlink:href="#font_2_72" transform="matrix(16.438357,0,0,-16.438357,122.705509,159.9708)" fill="#343a40"/>
<use data-text="s" xlink:href="#font_2_86" transform="matrix(16.438357,0,0,-16.438357,135.56029,159.9708)" fill="#343a40"/>
<use data-text="m" xlink:href="#font_2_80" transform="matrix(16.438357,0,0,-16.438357,142.10277,159.9708)" fill="#343a40"/>
<use data-text="a" xlink:href="#font_2_68" transform="matrix(16.438357,0,0,-16.438357,156.07537,159.9708)" fill="#343a40"/>
<use data-text="l" xlink:href="#font_2_79" transform="matrix(16.438357,0,0,-16.438357,164.44249,159.9708)" fill="#343a40"/>
<use data-text="l" xlink:href="#font_2_79" transform="matrix(16.438357,0,0,-16.438357,169.32468,159.9708)" fill="#343a40"/>
<use data-text="-" xlink:href="#font_2_16" transform="matrix(16.438357,0,0,-16.438357,174.20688,159.9708)" fill="#343a40"/>
<use data-text="o" xlink:href="#font_2_82" transform="matrix(16.438357,0,0,-16.438357,179.46715,159.9708)" fill="#343a40"/>
<use data-text="n" xlink:href="#font_2_81" transform="matrix(16.438357,0,0,-16.438357,188.4096,159.9708)" fill="#343a40"/>
<use data-text="e" xlink:href="#font_2_72" transform="matrix(16.438357,0,0,-16.438357,197.73017,159.9708)" fill="#343a40"/>
<use data-text="h" xlink:href="#font_2_75" transform="matrix(16.438357,0,0,-16.438357,210.6014,159.9708)" fill="#343a40"/>
<use data-text="o" xlink:href="#font_2_82" transform="matrix(16.438357,0,0,-16.438357,220.037,159.9708)" fill="#343a40"/>
<use data-text="u" xlink:href="#font_2_88" transform="matrix(16.438357,0,0,-16.438357,228.97946,159.9708)" fill="#343a40"/>
<use data-text="s" xlink:href="#font_2_86" transform="matrix(16.438357,0,0,-16.438357,238.3329,159.9708)" fill="#343a40"/>
<use data-text="e" xlink:href="#font_2_72" transform="matrix(16.438357,0,0,-16.438357,244.89182,159.9708)" fill="#343a40"/>
<use data-text="&#x201d;" xlink:href="#font_2_181" transform="matrix(16.438357,0,0,-16.438357,252.88085,159.9708)" fill="#343a40"/>
<use data-text=")" xlink:href="#font_2_12" transform="matrix(16.438357,0,0,-16.438357,260.32743,159.9708)" fill="#343a40"/>
</svg>
