<svg xmlns="http://www.w3.org/2000/svg" xmlns:xlink="http://www.w3.org/1999/xlink" xmlns:inkscape="http://www.inkscape.org/namespaces/inkscape" version="1.1" width="198.95761" height="131.7472" viewBox="0 0 198.95761 131.7472">
<defs>
<path id="font_1_17" d="M.19580078 .05517578C.19580078 .036621095 .18912761 .020751954 .17578125 .0075683596 .16243489-.0056152346 .14648438-.012207031 .12792969-.012207031 .109375-.012207031 .09358724-.0056152346 .080566409 .0075683596 .06754557 .020751954 .061035158 .036621095 .061035158 .05517578 .061035158 .073404949 .06754557 .08911133 .080566409 .10229492 .09358724 .115478519 .109375 .12207031 .12792969 .12207031 .14648438 .12207031 .16243489 .115478519 .17578125 .10229492 .18912761 .08911133 .19580078 .073404949 .19580078 .05517578Z"/>
<path id="font_2_1176" d="M.079589847 0H-.010253906V.08886719H.07861328C.11116537 .08886719 .1332194 .09830729 .14477539 .1171875 .15633138 .1360677 .16210938 .15999349 .16210938 .18896485 .16210938 .2101237 .16015625 .23274739 .15625 .25683595 .15234375 .28092448 .14811199 .30517579 .14355469 .32958985L.22851563 .35107423C.23404949 .32503257 .23844402 .29947917 .24169922 .27441407 .24495442 .24934896 .24658203 .22542317 .24658203 .20263672 .24658203 .16357422 .24121094 .12874349 .23046875 .09814453 .21972656 .06754557 .20214844 .04353841 .17773438 .026123047 .15332031 .008707683 .12060547 0 .079589847 0M.09033203-.07470703 .16113281-.14550781 .09033203-.2163086 .01953125-.14550781 .09033203-.07470703Z"/>
<path id="font_2_728" d="M.03173828 .5571289V.6035156L.2397461 .68847659V.64208987L.03173828 .5571289Z"/>
<path id="font_2_1290" d="M-.0107421879 .08886719H.06298828C.10432943 .08886719 .13387044 .09814453 .15161133 .11669922 .16935222 .1352539 .17822266 .16373699 .17822266 .20214844 .17822266 .21777344 .17781575 .23258464 .17700196 .24658203 .17618816 .26057945 .1751302 .2745768 .17382813 .28857423L.2553711 .29833985 .2631836 .18408203C.26708985 .12060547 .30013023 .08886719 .3623047 .08886719H.3725586V0H.36132813C.3251953 0 .29630534 .0065104167 .2746582 .01953125 .25301109 .032552083 .23551433 .05094401 .22216797 .07470703 .20458985 .048990888 .18147786 .030110678 .15283203 .018066407 .124186199 .0060221354 .09423828 0 .06298828 0H-.0107421879V.08886719M.16552735-.07763672 .23388672-.14550781 .16552735-.21435547 .09765625-.14550781 .16552735-.07763672M.0034179688-.07763672 .071777347-.14550781 .0034179688-.21435547-.064453128-.14550781 .0034179688-.07763672Z"/>
<path id="font_2_737" d="M.020507813 .5673828C.020507813 .5908203 .028889975 .6110026 .045654298 .6279297 .06241862 .64485678 .08251953 .6533203 .10595703 .6533203 .12939453 .6533203 .14949544 .64485678 .16625977 .6279297 .1830241 .6110026 .19140625 .5908203 .19140625 .5673828 .19140625 .5439453 .1830241 .5238444 .16625977 .5070801 .14949544 .49031578 .12939453 .4819336 .10595703 .4819336 .08251953 .4819336 .06241862 .49031578 .045654298 .5070801 .028889975 .5238444 .020507813 .5439453 .020507813 .5673828M.059570314 .5673828C.059570314 .554362 .06404623 .54345706 .07299805 .53466799 .08194987 .5258789 .092936199 .5214844 .10595703 .5214844 .11897787 .5214844 .12988281 .5258789 .13867188 .53466799 .14746094 .54345706 .15185547 .554362 .15185547 .5673828 .15185547 .5804036 .14746094 .5914714 .13867188 .60058596 .12988281 .6097005 .11897787 .6142578 .10595703 .6142578 .092936199 .6142578 .08194987 .6097005 .07299805 .60058596 .06404623 .5914714 .059570314 .5804036 .059570314 .5673828Z"/>
<path id="font_2_1185" d="M.5253906 .4790039 .59375 .4111328 .5253906 .34228517 .45751954 .4111328 .5253906 .4790039M.36328126 .4790039 .43164063 .4111328 .36328126 .34228517 .29541017 .4111328 .36328126 .4790039M.7397461 .28857423 .82128909 .29833985 .82958987 .18408203C.83154299 .15315755 .8404134 .1295573 .8562012 .11328125 .87198898 .09700521 .8956706 .08886719 .9272461 .08886719H.93896487V0H.9272461C.8904622 0 .8602702 .006917318 .8366699 .020751954 .81306967 .03458659 .7936198 .056803388 .7783203 .087402347 .75130209 .056152345 .7167155 .033772787 .67456057 .020263672 .6324056 .006754557 .57389327 0 .49902345 0H.41748048C.29475913 0 .20255535 .016601563 .14086914 .049804689 .079182948 .08300781 .048339845 .14046224 .048339845 .22216797 .048339845 .2446289 .05086263 .26660157 .055908204 .28808595 .060953779 .3095703 .06754557 .33024089 .075683597 .35009767L.15136719 .32177735C.14615886 .30745445 .1418457 .29215495 .13842774 .2758789 .13500977 .25960288 .13330078 .24414063 .13330078 .22949219 .1336263 .19140625 .14436849 .16219075 .16552735 .1418457 .1866862 .12150065 .21826172 .10758463 .2602539 .100097659 .3022461 .09261068 .35465495 .08886719 .41748048 .08886719H.49902345C.57682296 .08886719 .6371257 .09700521 .67993167 .11328125 .7227376 .1295573 .7441406 .15917969 .7441406 .20214844 .7441406 .2154948 .7437337 .2298177 .7429199 .24511719 .74210616 .26041667 .74104818 .27490235 .7397461 .28857423Z"/>
<path id="font_2_726" d="M.2553711 .5151367C.23942058 .49267579 .21500652 .47452799 .1821289 .46069337 .1492513 .44685874 .11116537 .43945313 .067871097 .43847657L.051757814 .4736328C.061523439 .50097659 .06640625 .5213216 .06640625 .53466799 .06640625 .55159506 .05826823 .5600586 .041992189 .5600586 .033854169 .5600586 .022135416 .55777999 .0068359377 .55322268L.0024414063 .59375C.020019532 .5999349 .03597005 .60302737 .05029297 .60302737 .085123699 .60302737 .10253906 .5808919 .10253906 .5366211 .10253906 .5288086 .10205078 .5201823 .10107422 .5107422 .100097659 .50130209 .09830729 .4908854 .095703128 .4794922 .11393229 .48209635 .13509114 .48657228 .15917969 .49291993 .18326824 .49926759 .2023112 .50960287 .2163086 .5239258 .19352214 .5255534 .17252605 .53304037 .15332031 .5463867 .13411458 .5597331 .12451172 .5804036 .12451172 .60839846 .12451172 .6302083 .13216146 .64900717 .14746094 .6647949 .16276042 .6805827 .18196614 .68847659 .20507813 .68847659 .22819011 .68847659 .24739583 .681071 .2626953 .66625979 .27799479 .65144857 .28564454 .6319987 .28564454 .60791018 .28564454 .58968099 .28125 .56966146 .27246095 .54785159 .27701823 .5472005 .2841797 .5463867 .2939453 .54541018L.29003907 .51220706C.28320313 .51253256 .27734376 .51293948 .27246095 .51342776 .26757813 .513916 .2618815 .51448568 .2553711 .5151367M.23339844 .55566409C.23697917 .56380209 .24007161 .57250979 .24267578 .5817871 .24527996 .59106448 .24658203 .5996094 .24658203 .6074219 .24658203 .6197917 .24275716 .62972006 .23510742 .63720706 .22745769 .64469406 .21809896 .6484375 .20703125 .6484375 .19433594 .6484375 .18400066 .64404299 .17602539 .6352539 .16805013 .62646487 .1640625 .616862 .1640625 .6064453 .1640625 .58984377 .17097982 .5782878 .18481446 .57177737 .1986491 .5652669 .21484375 .5598958 .23339844 .55566409Z"/>
<path id="font_2_781" d="M.15722656 .6088867V.00048828127H.07470703V.6088867H.15722656M-.025390625 .6904297-.016601563 .73095706C-.012369792 .7273763-.006754557 .72281906 .00024414063 .71728518 .0072428386 .7117513 .013671875 .70784506 .01953125 .7055664 .045898439 .7501628 .069742839 .7821452 .09106445 .8015137 .11238607 .82088217 .13590496 .8305664 .1616211 .8305664 .18766277 .8305664 .20898438 .8224284 .22558594 .80615237 .2421875 .7898763 .25048829 .76953127 .25048829 .7451172 .25048829 .7125651 .23909505 .6897786 .2163086 .6767578 .19352214 .663737 .15413411 .65722659 .09814453 .65722659H.0859375C.056640626 .65722659 .032552083 .6599121 .013671875 .6652832-.0052083337 .6706543-.018229166 .67903646-.025390625 .6904297M.09716797 .69921877C.13916016 .69921877 .16837566 .7020671 .18481446 .7077637 .20125325 .71346029 .20947266 .72526046 .20947266 .74316409 .20947266 .7558594 .20532227 .7664388 .19702149 .77490237 .1887207 .7833659 .17773438 .78759768 .1640625 .78759768 .14615886 .78759768 .13004558 .7809245 .115722659 .7675781 .10139974 .75423178 .08382162 .7314453 .06298828 .69921877H.09716797Z"/>
<path id="font_2_1262" d="M-.009765625 .08886719H.03125C.0703125 .08886719 .09667969 .0999349 .11035156 .12207031 .12402344 .14420574 .13085938 .171875 .13085938 .20507813V.6723633H.2133789V.2055664C.2133789 .13785808 .19873047 .08666992 .1694336 .052001954 .14013672 .017333985 .09391276 0 .030761719 0H-.009765625V.08886719Z"/>
<path id="font_2_1179" d="M-.010253906 .08886719H.046875C.08821615 .08886719 .117757167 .09814453 .13549805 .11669922 .15323894 .1352539 .16210938 .16373699 .16210938 .20214844 .16210938 .21777344 .16170247 .23258464 .16088867 .24658203 .16007488 .26057945 .15901692 .2745768 .15771485 .28857423L.23925781 .29833985 .24707031 .18408203C.25097657 .12060547 .28401695 .08886719 .3461914 .08886719H.3564453V0H.34521485C.30908204 0 .28019206 .0065104167 .25854493 .01953125 .23689778 .032552083 .21940105 .05094401 .20605469 .07470703 .18847656 .048990888 .16536458 .030110678 .13671875 .018066407 .108072917 .0060221354 .078125 0 .046875 0H-.010253906V.08886719M.09033203-.07470703 .16113281-.14550781 .09033203-.2163086 .01953125-.14550781 .09033203-.07470703Z"/>
<path id="font_2_731" d="M.028320313-.24658203V-.20019531L.23632813-.115234378V-.1616211L.028320313-.24658203Z"/>
<path id="font_2_1273" d="M.14794922 .28857423 .22949219 .29833985 .23730469 .18408203C.24121094 .12060547 .2742513 .08886719 .33642579 .08886719H.3466797V0H.33544923C.2993164 0 .27042643 .0065104167 .2487793 .01953125 .22713216 .032552083 .20963542 .05094401 .19628906 .07470703 .17871094 .048990888 .15559896 .030110678 .12695313 .018066407 .09830729 .0060221354 .068359378 0 .037109376 0H-.009765625V.08886719H.037109376C.07845052 .08886719 .10799154 .09814453 .12573242 .11669922 .14347331 .1352539 .15234375 .16373699 .15234375 .20214844 .15234375 .21777344 .15193685 .23258464 .15112305 .24658203 .15030925 .26057945 .1492513 .2745768 .14794922 .28857423M.15722656 .5317383 .22802735 .4609375 .15722656 .39013673 .08642578 .4609375 .15722656 .5317383Z"/>
<path id="font_2_1173" d="M.07470703 .6723633H.15722656V.2055664C.15722656 .15966797 .16569011 .12874349 .18261719 .11279297 .19954427 .096842449 .22509766 .08886719 .25927735 .08886719H.27148438V0H.25927735C.19710286 0 .15079753 .016520182 .12036133 .049560548 .08992513 .082600917 .07470703 .13476563 .07470703 .20605469V.6723633Z"/>
<path id="font_2_675" d="M.14746094 .20898438C.14746094 .19596355 .15307617 .18139649 .16430664 .1652832 .17553711 .14916992 .19335938 .13444011 .21777344 .12109375 .23958333 .1282552 .25797526 .13411458 .27294923 .13867188 .2879232 .14322917 .3018392 .14705403 .31469728 .15014649 .32755534 .15323894 .34147135 .15608724 .3564453 .1586914V.076171878C.31608073 .06738281 .27189128 .05452474 .22387696 .037597658 .17586263 .020670573 .12060547-.0047200524 .05810547-.03857422L.045410158 .04296875C.06201172 .051757814 .075683597 .05891927 .08642578 .064453128 .09716797 .06998698 .11311849 .07747396 .13427735 .08691406 .11051432 .108072917 .09423828 .1283366 .08544922 .14770508 .076660159 .16707357 .072265628 .18733724 .072265628 .2084961 .072265628 .23616536 .07910156 .26163737 .09277344 .2849121 .10644531 .30818687 .12491862 .3268229 .14819336 .3408203 .1714681 .35481773 .19710286 .3618164 .22509766 .3618164 .2475586 .3618164 .26822917 .35888673 .28710938 .35302735 .3059896 .34716798 .3251953 .3370768 .34472657 .3227539L.31982423 .25732423C.30192057 .26611329 .28605143 .2722982 .2722168 .2758789 .25838218 .27945964 .24479167 .28125 .23144531 .28125 .20833333 .28125 .18855794 .2738444 .17211914 .2590332 .15568035 .244222 .14746094 .22753906 .14746094 .20898438Z"/>
<path id="font_2_730" d="M.22460938 .52197268C.21777344 .52229818 .21191406 .5227051 .20703125 .52319338 .20214844 .52368167 .19645183 .5242513 .1899414 .52490237 .15673828 .47867839 .09863281 .45328776 .015625 .44873048L.009277344 .48632813C.041829427 .4892578 .07063802 .4947103 .095703128 .50268557 .12076823 .5106608 .13916016 .5208333 .1508789 .5332031 .12809246 .53483077 .10709635 .5423177 .087890628 .55566409 .0686849 .56901046 .05908203 .58968099 .05908203 .6176758 .05908203 .63948568 .06673177 .6582845 .08203125 .67407229 .09733073 .68986007 .11653646 .6977539 .13964844 .6977539 .16276042 .6977539 .18196614 .6903483 .19726563 .6755371 .21256511 .6607259 .22021485 .64127609 .22021485 .6171875 .22021485 .5989583 .21582031 .5789388 .20703125 .5571289 .21158855 .55647787 .21875 .55566409 .22851563 .5546875L.22460938 .52197268M.16796875 .5649414C.17154949 .5730794 .17464192 .5817871 .1772461 .59106448 .17985027 .6003418 .18115235 .6088867 .18115235 .6166992 .18115235 .62906906 .17732747 .6389974 .16967774 .6464844 .162028 .6539714 .15266927 .65771487 .14160156 .65771487 .12890625 .65771487 .11857096 .6533203 .1105957 .64453127 .102620448 .6357422 .09863281 .62613937 .09863281 .61572268 .09863281 .5991211 .10555013 .5875651 .119384769 .5810547 .1332194 .57454428 .14941406 .56917318 .16796875 .5649414Z"/>
<path id="font_1_76" d="M.21777344 .64697268C.21777344 .6300456 .21191406 .6154785 .20019531 .6032715 .18847656 .59106448 .17415364 .58496096 .15722656 .58496096 .14029949 .58496096 .12573242 .59106448 .11352539 .6032715 .10131836 .6154785 .095214847 .6300456 .095214847 .64697268 .095214847 .6642253 .10131836 .67871096 .11352539 .6904297 .12573242 .70214846 .14029949 .7080078 .15722656 .7080078 .17415364 .7080078 .18847656 .70214846 .20019531 .6904297 .21191406 .67871096 .21777344 .6642253 .21777344 .64697268M.26904298 0H.034179689V.0390625L.08300781 .041992189C.09700521 .04296875 .104003909 .05029297 .104003909 .063964847V.42089845H.03515625V.4560547L.15722656 .49414063H.19677735V.063964847C.19677735 .05777995 .19881185 .052652997 .20288086 .048583986 .20694988 .044514974 .21191406 .042317708 .21777344 .041992189L.26904298 .0390625V0Z"/>
<path id="font_1_81" d="M.546875 0H.32617188V.0390625L.36816407 .041992189C.37402345 .04264323 .37898765 .044921876 .38305665 .048828126 .38712565 .052734376 .38916017 .05777995 .38916017 .063964847V.32421876C.38916017 .35579429 .38183595 .37980143 .3671875 .39624024 .35253907 .41267906 .32779948 .42089845 .29296876 .42089845 .27408854 .42089845 .2552897 .4182129 .23657227 .4128418 .21785482 .4074707 .20003255 .40055339 .18310547 .39208985V.063964847C.18310547 .05029297 .19010417 .04296875 .20410156 .041992189L.24609375 .0390625V0H.020019532V.0390625L.068847659 .041992189C.082845058 .04296875 .08984375 .05029297 .08984375 .063964847V.4111328H.020019532V.44384767L.14208985 .4819336H.18310547V.4321289C.21110027 .44807945 .23982747 .46240235 .2692871 .47509767 .29874674 .48779298 .32503257 .49414063 .34814454 .49414063 .3917643 .49414063 .42496745 .48055015 .4477539 .45336915 .47054038 .42618815 .4819336 .38834635 .4819336 .33984376V.063964847C.4819336 .05777995 .4839681 .052734376 .4880371 .048828126 .4921061 .044921876 .4970703 .04264323 .5029297 .041992189L.546875 .0390625V0Z"/>
<path id="font_1_73" d="M.38916017 .6767578C.38916017 .66341146 .38582359 .6529134 .3791504 .6452637 .3724772 .63761398 .36539714 .63216146 .35791017 .62890627 .3504232 .62565109 .3453776 .62369796 .34277345 .6230469L.25097657 .6879883C.23665364 .6805013 .2232259 .66536459 .21069336 .6425781 .19816081 .6197917 .19189453 .58496096 .19189453 .53808596V.4741211H.31591798V.42285157H.19189453V.063964847C.19189453 .05777995 .19392903 .052652997 .19799805 .048583986 .20206706 .044514974 .20703125 .042317708 .21289063 .041992189L.27197267 .0390625V0H.028808594V.0390625L.078125 .041992189C.083984378 .042317708 .08894857 .044514974 .09301758 .048583986 .097086589 .052652997 .099121097 .05777995 .099121097 .063964847V.42285157H.03515625V.4580078L.099121097 .47607423C.099121097 .50895187 .10164388 .5362142 .10668945 .5578613 .11173502 .5795085 .12044271 .60221359 .1328125 .62597659 .15234375 .663737 .17749024 .6916504 .20825196 .7097168 .23901367 .7277832 .27067057 .7368164 .30322267 .7368164 .33154298 .7368164 .35294596 .7308757 .36743165 .71899417 .38191734 .7071126 .38916017 .6930339 .38916017 .6767578Z"/>
<path id="font_1_82" d="M.5097656 .24023438C.5097656 .19303386 .5 .15030925 .48046876 .11206055 .4609375 .07381185 .4333496 .04353841 .39770509 .021240235 .36206056-.0010579428 .31982423-.012207031 .2709961-.012207031 .22249349-.012207031 .1805013-.0011393229 .14501953 .020996094 .10953776 .04313151 .08219401 .07324219 .06298828 .111328128 .04378255 .14941406 .034179689 .19238281 .034179689 .24023438 .034179689 .2877604 .043863935 .33072917 .06323242 .36914063 .082600917 .4075521 .11027018 .43798829 .14624024 .46044923 .18221028 .48291017 .22477214 .49414063 .27392579 .49414063 .32373048 .49414063 .36621095 .4827474 .4013672 .45996095 .43652345 .43717448 .4633789 .40657554 .4819336 .36816407 .5004883 .3297526 .5097656 .28710938 .5097656 .24023438M.40576173 .24121094C.40576173 .27766929 .4009603 .3116862 .39135743 .34326173 .38175456 .37483726 .3671061 .40039063 .3474121 .41992188 .3277181 .43945313 .30289714 .44921876 .27294923 .44921876 .24202474 .44921876 .2167155 .43945313 .19702149 .41992188 .17732747 .40039063 .16276042 .37483726 .15332031 .34326173 .1438802 .3116862 .13916016 .27766929 .13916016 .24121094 .13916016 .20507813 .1439616 .17114258 .15356446 .1394043 .16316732 .107666019 .17781575 .08203125 .19750977 .0625 .21720378 .04296875 .24202474 .033203126 .27197267 .033203126 .30257163 .033203126 .3277181 .04296875 .3474121 .0625 .3671061 .08203125 .38175456 .10758463 .39135743 .13916016 .4009603 .17073567 .40576173 .20475261 .40576173 .24121094Z"/>
<path id="font_1_86" d="M.3491211 .35302735H.296875L.2890625 .42285157C.28190104 .4283854 .27132163 .43359376 .25732423 .43847657 .24332683 .44335938 .22851563 .44580079 .21289063 .44580079 .18554688 .44580079 .16520183 .43953453 .15185547 .42700196 .13850911 .4144694 .13183594 .3984375 .13183594 .37890626 .13183594 .36393229 .1352539 .35123698 .14208985 .3408203 .14892578 .33040367 .16048177 .3202311 .17675781 .31030274 .19303386 .30037437 .21516927 .28889976 .24316406 .2758789 .27799479 .25992839 .30680339 .24226888 .32958985 .22290039 .3523763 .2035319 .36376954 .17757161 .36376954 .14501953 .36376954 .09586588 .34684245 .057373048 .31298829 .029541016 .27913413 .0017089844 .23242188-.012207031 .17285156-.012207031 .14225261-.012207031 .11401367-.009033203 .088134769-.0026855469 .06225586 .0036621094 .044270833 .008951823 .034179689 .013183594V.1459961H.08496094L.09716797 .061035158C.10725912 .05452474 .11971029 .048258466 .13452149 .042236329 .14933269 .03621419 .1665039 .033203126 .18603516 .033203126 .21468099 .033203126 .2368164 .041178388 .2524414 .057128908 .2680664 .07307943 .2758789 .09098307 .2758789 .110839847 .2758789 .13688152 .2652181 .15730794 .24389649 .17211914 .22257488 .18693035 .19254558 .20361328 .1538086 .22216797 .11735026 .2397461 .08943685 .2578125 .07006836 .2763672 .05069987 .29492188 .041015626 .3191732 .041015626 .3491211 .041015626 .39371745 .056640626 .42903648 .087890628 .45507813 .119140628 .48111979 .16357422 .49414063 .2211914 .49414063 .25048829 .49414063 .27661134 .49145509 .29956056 .48608399 .32250978 .4807129 .33902995 .4757487 .3491211 .4711914V.35302735Z"/>
<path id="font_1_88" d="M.546875 0H.3881836V.057128908C.37679038 .048339845 .3623047 .03857422 .34472657 .027832032 .32714845 .017089844 .30826823 .0077311198 .28808595-.00024414063 .26790367-.008219401 .24788411-.012207031 .22802735-.012207031 .1850586-.012207031 .15128581 .0007324219 .12670899 .026611329 .102132167 .052490236 .08984375 .09358724 .08984375 .14990235V.42089845H.020019532V.45507813L.1430664 .49414063H.18310547V.16894531C.18310547 .13346355 .19034831 .10579427 .20483399 .0859375 .21931966 .06608073 .24430339 .056152345 .27978517 .056152345 .30029298 .056152345 .32047526 .05965169 .34033204 .06665039 .3601888 .073649089 .3761393 .080078128 .3881836 .0859375V.42089845H.3178711V.45507813L.4399414 .49414063H.48095704V.063964847C.48095704 .05777995 .4831543 .052734376 .48754884 .048828126 .49194337 .044921876 .4970703 .04264323 .5029297 .041992189L.546875 .0390625V0Z"/>
<path id="font_1_69" d="M.5209961 .26416017C.5209961 .21402996 .5110677 .16902669 .49121095 .12915039 .47135417 .089274089 .44026695 .05777995 .39794923 .03466797 .3556315 .011555989 .300944 0 .23388672 0H.08984375V.66503909H.014160156V.6982422L.1430664 .7368164H.18310547V.45703126C.1944987 .4625651 .212972 .47013346 .23852539 .47973634 .26407878 .4893392 .2915039 .49414063 .32080079 .49414063 .3647461 .49414063 .40152995 .4835612 .43115235 .46240235 .46077476 .4412435 .4831543 .41316734 .49829103 .37817384 .51342776 .34318034 .5209961 .30517579 .5209961 .26416017M.4189453 .24414063C.4189453 .30729167 .40559898 .35489909 .37890626 .3869629 .35221354 .4190267 .31461589 .4350586 .26611329 .4350586 .25504557 .4350586 .2409668 .43326823 .22387696 .4296875 .20678711 .42610679 .19319661 .42252604 .18310547 .4189453V.047851564C.19124349 .047526044 .19938152 .047281904 .20751953 .04711914 .21565755 .04695638 .22379558 .046875 .2319336 .046875 .29117839 .046875 .3371582 .061523439 .36987306 .09082031 .4025879 .12011719 .4189453 .17122396 .4189453 .24414063Z"/>
<path id="font_1_77" d="M.21289063 .64697268C.21289063 .6300456 .20703125 .6154785 .1953125 .6032715 .18359375 .59106448 .16910808 .58496096 .15185547 .58496096 .13492839 .58496096 .12036133 .59106448 .1081543 .6032715 .095947269 .6154785 .08984375 .6300456 .08984375 .64697268 .08984375 .6642253 .095947269 .67871096 .1081543 .6904297 .12036133 .70214846 .13492839 .7080078 .15185547 .7080078 .16910808 .7080078 .18359375 .70214846 .1953125 .6904297 .20703125 .67871096 .21289063 .6642253 .21289063 .64697268M.20214844 .063964847C.20214844 .044108076 .20125325 .021972657 .19946289-.0024414063 .19767253-.026855469 .19401042-.05078125 .18847656-.07421875 .1829427-.09765625 .17447917-.11832682 .16308594-.13623047 .14257813-.16780599 .11767578-.19116211 .088378909-.20629883 .05908203-.22143555 .028645834-.2290039-.0029296876-.2290039-.0234375-.2290039-.041259767-.224528-.056396486-.21557617-.0715332-.20662435-.07910156-.19270833-.07910156-.17382813-.07910156-.15690105-.07446289-.1438802-.06518555-.13476563-.055908204-.12565105-.046223958-.11946615-.036132814-.11621094L.061035158-.18310547C.079589847-.1726888 .09220377-.15266927 .09887695-.123046878 .10555013-.09342448 .10888672-.05940755 .10888672-.020996094V.42285157H.038085939V.4560547L.16113281 .49414063H.20214844V.063964847Z"/>
<path id="font_1_72" d="M.26611329-.012207031C.2257487-.012207031 .1879069-.0031738282 .15258789 .014892578 .11726888 .032958986 .08870443 .060384115 .06689453 .09716797 .045084638 .13395183 .034179689 .18017578 .034179689 .23583985 .034179689 .2879232 .044270833 .33333335 .064453128 .3720703 .084635417 .41080729 .112467449 .44083659 .14794922 .4621582 .18343099 .48347984 .22379558 .49414063 .26904298 .49414063 .33121745 .49414063 .3779297 .47485353 .4091797 .4362793 .4404297 .39770509 .4560547 .3486328 .4560547 .2890625 .4560547 .28580729 .4560547 .28149415 .4560547 .27612306 .4560547 .27075196 .45572917 .26578776 .45507813 .26123048H.13085938C.13085938 .23583985 .13354492 .2105306 .13891602 .18530274 .14428711 .16007488 .15332031 .13720703 .16601563 .11669922 .17871094 .096191409 .19580078 .0797526 .21728516 .06738281 .23876953 .05501302 .265625 .048828126 .29785157 .048828126 .3264974 .048828126 .3544108 .055419923 .3815918 .068603519 .4087728 .08178711 .43359376 .09586588 .4560547 .110839847V.049804689C.4280599 .032552083 .39786784 .017903647 .36547853 .005859375 .3330892-.006184896 .29996745-.012207031 .26611329-.012207031M.13623047 .30615235H.35595704V.328125C.35595704 .3610026 .34806315 .38867188 .3322754 .4111328 .31648765 .43359376 .2919922 .44482423 .25878907 .44482423 .22591146 .44482423 .19791667 .43245445 .17480469 .40771485 .1516927 .38297526 .13883464 .3491211 .13623047 .30615235Z"/>
<path id="font_1_70" d="M.4321289 .037109376C.40966798 .025065104 .38435874 .013834636 .35620118 .0034179688 .3280436-.0069986979 .29703776-.012207031 .2631836-.012207031 .21663411-.012207031 .17618816-.0013020834 .1418457 .020507813 .10750326 .042317708 .080973308 .072021488 .06225586 .10961914 .04353841 .1472168 .034179689 .1899414 .034179689 .23779297 .034179689 .29378257 .045328779 .3408203 .06762695 .37890626 .08992513 .4169922 .119384769 .4457194 .15600586 .4650879 .19262696 .4844564 .23225911 .49414063 .27490235 .49414063 .31884767 .49414063 .3557129 .4855957 .38549806 .46850587 .4152832 .45141603 .43017579 .42659507 .43017579 .39404298 .43017579 .37451173 .42407228 .3597819 .41186524 .34985353 .3996582 .33992515 .38606773 .33496095 .37109376 .33496095 .36002604 .33496095 .3504232 .33683268 .34228517 .34057618 .33414714 .34431968 .3269857 .34814454 .32080079 .35205079V.43896485C.3055013 .4477539 .2915039 .45214845 .2788086 .45214845 .2491862 .45214845 .22371419 .44344078 .20239258 .4260254 .18107097 .40861003 .16471355 .38476563 .15332031 .3544922 .14192708 .32421876 .13623047 .28971354 .13623047 .25097657 .13623047 .2141927 .14241536 .18058269 .15478516 .15014649 .16715496 .11971029 .18562825 .09554037 .21020508 .07763672 .2347819 .059733076 .26529948 .05078125 .3017578 .05078125 .32486979 .05078125 .34700523 .05452474 .36816407 .06201172 .3893229 .069498699 .41064454 .08024088 .4321289 .09423828V.037109376Z"/>
<path id="font_1_87" d="M.3330078 .020996094C.31966148 .013834636 .30037437 .0065104167 .27514649-.0009765625 .24991863-.008463542 .22428386-.012207031 .19824219-.012207031 .1608073-.012207031 .13354492-.0033365887 .11645508 .014404297 .099365238 .032145185 .09082031 .060709638 .09082031 .100097659V.4321289H.026855469V.46484376L.095214847 .4970703 .14013672 .60302737H.18408203V.4819336H.3251953V.4321289H.18408203V.15283203C.18408203 .11311849 .1907552 .08504232 .20410156 .068603519 .21744792 .052164716 .23746746 .043945314 .26416017 .043945314 .27848307 .043945314 .2919922 .045898439 .3046875 .049804689 .3173828 .053710939 .3268229 .057454427 .3330078 .061035158V.020996094Z"/>
<path id="font_3_2658" d="M.27783204 .5517578C.27783204 .5175781 .26993815 .48470054 .2541504 .453125 .23836263 .42154948 .21435547 .39575196 .1821289 .37573243 .14990235 .3557129 .109375 .34570313 .060546876 .34570313L.072265628 .40527345C.100260417 .40527345 .1245931 .4116211 .14526367 .4243164 .16593425 .43701173 .18204753 .45385743 .19360352 .47485353 .2051595 .4958496 .2109375 .51904299 .2109375 .5444336 .2109375 .57177737 .20255535 .59366866 .18579102 .6101074 .16902669 .6265462 .1459961 .6347656 .11669922 .6347656L.12890625 .6958008C.17382813 .6958008 .20987956 .6819661 .23706055 .6542969 .26424156 .6266276 .27783204 .59244796 .27783204 .5517578Z"/>
<path id="font_3_68" d="M.17675781-.012207031C.14746094-.012207031 .1233724-.0063476564 .10449219 .0053710939 .08561198 .017089844 .070882167 .032145185 .060302736 .05053711 .04972331 .06892904 .04239909 .08846029 .038330079 .10913086 .034261068 .12980144 .032226564 .14908855 .032226564 .16699219 .032226564 .20572917 .038411458 .24438477 .05078125 .28295899 .06315104 .3215332 .08154297 .35677085 .10595703 .38867188 .1303711 .4205729 .16040039 .4461263 .19604492 .46533204 .23168946 .48453776 .27294923 .49414063 .31982423 .49414063 .3383789 .49414063 .35579429 .49039714 .3720703 .48291017 .38834635 .4754232 .40104167 .4671224 .41015626 .4580078L.4248047 .4819336H.49316407C.48990885 .47444663 .48632813 .46435548 .48242188 .45166017 .47851563 .43896485 .4757487 .43001304 .4741211 .4248047 .4711914 .41438804 .4671224 .39778648 .46191407 .375 .45670573 .35221354 .45109049 .32657878 .44506837 .2980957 .43904624 .26961265 .4333496 .2413737 .42797853 .2133789 .42260743 .18538411 .4181315 .16048177 .41455079 .13867188 .41097007 .11686198 .4091797 .1015625 .4091797 .09277344 .4091797 .075520839 .4129232 .063557948 .42041017 .056884767 .42789714 .05021159 .43847657 .046875 .45214845 .046875 .45670573 .046875 .46354167 .048095704 .47265626 .05053711 .48177085 .052978517 .49080406 .0555013 .49975587 .05810547 .5087077 .060709638 .5148112 .06233724 .5180664 .06298828V.026855469C.5128581 .024576823 .5022786 .020263672 .48632813 .013916016 .4703776 .0075683596 .45328776 .0016276041 .4350586-.00390625 .41682945-.0094401049 .40120445-.012207031 .3881836-.012207031 .36409507-.012207031 .34708659-.006266276 .3371582 .0056152346 .32722984 .017496745 .3211263 .03434245 .31884767 .056152345 .3038737 .04215495 .28393556 .02726237 .2590332 .011474609 .23413086-.004313151 .20670574-.012207031 .17675781-.012207031M.20800781 .05419922C.22363281 .05419922 .23909505 .05834961 .25439454 .06665039 .269694 .07495117 .28312174 .08414713 .29467774 .09423828 .30623374 .10432943 .31429038 .11165365 .31884767 .11621094L.37109376 .39208985C.37141929 .3943685 .36930339 .39990235 .3647461 .4086914 .3601888 .41748048 .35498048 .42586265 .3491211 .4338379 .34326173 .44181315 .33821617 .44580079 .33398438 .44580079 .29589845 .44580079 .26383464 .43693034 .23779297 .41918946 .2117513 .40144859 .19091797 .37858073 .17529297 .35058595 .15966797 .32259117 .14835613 .29288737 .14135742 .2614746 .13435872 .23006185 .13085938 .20052083 .13085938 .17285156 .13085938 .15429688 .13297527 .13590496 .13720703 .11767578 .1414388 .09944662 .14916992 .0843099 .16040039 .072265628 .17163086 .060221357 .1875 .05419922 .20800781 .05419922Z"/>
<path id="font_3_79" d="M.2631836 .025878907C.25797526 .02360026 .24723308 .01936849 .23095703 .013183594 .21468099 .0069986979 .19669597 .0012207031 .17700196-.0041503908 .15730794-.009521484 .13964844-.012207031 .12402344-.012207031 .09342448-.012207031 .071614589-.0053710939 .05859375 .008300781 .045572919 .021972657 .0390625 .03955078 .0390625 .061035158 .0390625 .06591797 .03922526 .071370448 .03955078 .07739258 .0398763 .08341471 .040690107 .08968099 .041992189 .096191409L.15185547 .66796877 .06298828 .6767578V.70703127L.21923828 .7368164H.2578125L.13623047 .099121097C.13557942 .09554037 .1352539 .091145839 .1352539 .0859375 .1352539 .076171878 .13989258 .06673177 .14916992 .057617189 .15844727 .048502607 .1694336 .043945314 .1821289 .043945314 .18863933 .043945314 .19759114 .045328779 .20898438 .048095704 .22037761 .05086263 .23136394 .0538737 .24194336 .057128908 .2525228 .060384115 .25960288 .06266276 .2631836 .063964847V.025878907Z"/>
<path id="font_3_69" d="M.45996095 .3100586C.45996095 .285319 .45662437 .25846354 .44995118 .22949219 .44327799 .20052083 .43294273 .17179363 .4189453 .14331055 .4049479 .11482748 .3869629 .08886719 .36499024 .06542969 .34301759 .041992189 .316569 .02319336 .28564454 .009033203 .25472007-.005126953 .21891277-.012207031 .17822266-.012207031 .15022786-.012207031 .122395839-.008219401 .09472656-.00024414063 .06705729 .0077311198 .041503908 .019205729 .018066407 .034179689L.13623047 .66796877 .046875 .6767578V.70703127L.203125 .7368164H.2421875L.1850586 .43408204C.20328777 .45035807 .22469075 .46443687 .24926758 .47631837 .2738444 .48819987 .2980143 .49414063 .32177735 .49414063 .35628257 .49414063 .38354493 .48453776 .40356446 .46533204 .42358399 .4461263 .43798829 .42236329 .44677735 .39404298 .4555664 .36572267 .45996095 .33772788 .45996095 .3100586M.36083985 .30615235C.36083985 .33610026 .3565267 .36002604 .3479004 .3779297 .33927409 .39583335 .3293457 .4086914 .31811524 .4165039 .30688478 .4243164 .29720054 .42822267 .2890625 .42822267 .27311198 .42822267 .25423179 .42325846 .23242188 .41333009 .21061199 .4034017 .19108074 .39127604 .17382813 .37695313L.11816406 .07421875C.12467448 .06477865 .13549805 .055908204 .15063477 .047607423 .16577149 .03930664 .18229167 .03515625 .20019531 .03515625 .2233073 .03515625 .24454753 .04345703 .26391603 .060058595 .28328453 .076660159 .30029298 .098470058 .3149414 .12548828 .32958985 .15250652 .3409017 .18188477 .34887696 .21362305 .3568522 .24536133 .36083985 .27620445 .36083985 .30615235Z"/>
<path id="font_3_92" d="M.5239258 .44384767 .4741211 .41308595C.46891276 .40820313 .4608561 .39770509 .44995118 .3815918 .43904624 .36547853 .42814128 .34798179 .41723634 .32910157 .4063314 .31022135 .39794923 .29378257 .39208985 .27978517 .3836263 .2586263 .37231446 .23177083 .3581543 .19921875 .34399415 .16666667 .32788087 .13167317 .30981446 .09423828 .29174806 .056803388 .2721354 .020019532 .25097657-.016113282 .23046875-.05126953 .20792644-.085123699 .18334961-.11767578 .15877278-.15022786 .13224285-.17692058 .103759769-.1977539 .075276698-.21858724 .045084638-.2290039 .013183594-.2290039-.011230469-.2290039-.030192057-.22526042-.043701173-.21777344-.057210287-.21028646-.06665039-.20133464-.072021488-.19091797-.07739258-.1805013-.080078128-.17122396-.080078128-.16308594-.080078128-.14778646-.07356771-.13435872-.060546876-.122802738-.047526044-.11124674-.03108724-.10498047-.011230469-.104003909L.046875-.16210938C.060546876-.16210938 .07902018-.1488444 .10229492-.12231445 .12556966-.09578451 .1554362-.048990888 .19189453 .018066407 .19091797 .02360026 .18839519 .037027997 .18432617 .05834961 .18025716 .07967123 .17529297 .10546875 .1694336 .13574219 .16357422 .16601563 .1570638 .19710286 .14990235 .2290039 .1430664 .26057945 .13582357 .2915853 .12817383 .32202149 .120524089 .35245768 .11352539 .37776695 .107177738 .39794923 .10083008 .4181315 .09602865 .42822267 .09277344 .42822267L.001953125 .4350586V.45996095C.0065104167 .46158854 .014322917 .46419273 .025390625 .46777345 .036458333 .47135417 .048665365 .47517906 .06201172 .47924806 .07535807 .48331706 .0875651 .4868164 .09863281 .4897461 .10970052 .49267579 .11751302 .49414063 .12207031 .49414063 .14355469 .49414063 .16031902 .484375 .17236328 .46484376 .18440755 .4453125 .1953125 .41910807 .20507813 .38623048 .21386719 .35660807 .22273763 .31982423 .23168946 .2758789 .24064128 .2319336 .25 .18326824 .25976563 .12988281L.41210938 .49414063H.44091798L.5239258 .46679688V.44384767Z"/>
<path id="font_3_87" d="M.3491211 .4189453H.20214844L.13916016 .10498047C.13590496 .087402347 .14046224 .073649089 .15283203 .0637207 .16520183 .053792318 .17985027 .048828126 .19677735 .048828126 .21598308 .048828126 .23551433 .051920576 .2553711 .05810547 .27522788 .06429037 .2903646 .06933594 .30078126 .07324219V.033203126C.2952474 .030924479 .28312174 .026041666 .2644043 .018554688 .24568685 .011067708 .22477214 .0040690104 .20166016-.0024414063 .17854817-.008951823 .15738933-.012207031 .1381836-.012207031 .10205078-.012207031 .077311199-.0039876305 .063964847 .012451172 .05061849 .028889975 .043945314 .049479169 .043945314 .07421875 .043945314 .080729167 .044270833 .087402347 .044921876 .09423828 .045572919 .10107422 .04654948 .108072917 .047851564 .115234378L.10888672 .4189453 .045898439 .41308595V.44580079L.12109375 .4790039 .16992188 .57910159H.23095703L.2109375 .46484376H.3491211V.4189453Z"/>
<path id="font_3_88" d="M.5239258 .023925782C.5157878 .01936849 .5036621 .014241536 .48754884 .008544922 .47143556 .0028483074 .4544271-.0020345052 .43652345-.0061035158 .41861979-.010172526 .4025065-.012207031 .3881836-.012207031 .36930339-.012207031 .3552246-.009114583 .34594728-.0029296876 .33666993 .0032552083 .33048503 .010660808 .32739259 .01928711 .32430015 .027913413 .3228353 .036376954 .32299806 .044677736 .3231608 .052978517 .3232422 .05908203 .3232422 .06298828 .2705078 .012858073 .2117513-.012207031 .14697266-.012207031 .11604818-.012207031 .09261068-.0053710939 .076660159 .008300781 .060709638 .021972657 .05053711 .03849284 .046142579 .057861329 .041748048 .07722982 .041341146 .09554037 .044921876 .11279297L.10986328 .4248047 .025878907 .43408204V.46289063L.17675781 .49414063H.21777344L.1381836 .11279297C.13460286 .09586588 .13907878 .08113607 .15161133 .068603519 .16414388 .056070966 .17692058 .049804689 .1899414 .049804689 .21402996 .049804689 .23836263 .056152345 .26293946 .068847659 .28751628 .08154297 .30924479 .09651693 .328125 .11376953L.4038086 .4819336H.4970703L.4169922 .09716797C.4127604 .076660159 .41625978 .06217448 .42749024 .053710939 .4387207 .045247396 .44986979 .041015626 .4609375 .041015626 .4674479 .041015626 .47607423 .041992189 .4868164 .043945314 .4975586 .045898439 .5099284 .05094401 .5239258 .05908203V.023925782Z"/>
<path id="font_3_76" d="M.25878907 .6411133C.25878907 .62646487 .25349937 .61344406 .24291992 .6020508 .2323405 .59065756 .21744792 .58496096 .19824219 .58496096 .17773438 .58496096 .16227214 .5904134 .15185547 .60131838 .1414388 .6122233 .13623047 .6254883 .13623047 .6411133 .13623047 .6541341 .14176433 .6666667 .15283203 .67871096 .16389974 .6907552 .17936199 .69677737 .19921875 .69677737 .21809896 .69677737 .23274739 .6909993 .24316406 .67944338 .25358073 .6678874 .25878907 .65511068 .25878907 .6411133M.2631836 .028808594C.25830079 .026529948 .24763997 .022054038 .23120117 .015380859 .21476238 .008707683 .19620769 .0024414063 .17553711-.0034179688 .15486653-.009277344 .13541667-.012207031 .1171875-.012207031 .09440104-.012207031 .077555339-.0072428386 .06665039 .0026855469 .05574544 .012613933 .049153646 .025146485 .046875 .040283204 .044596357 .055419923 .044921876 .07063802 .047851564 .0859375L.111816409 .4248047 .025878907 .43408204V.46289063L.17675781 .49414063H.21777344L.14208985 .09423828C.13948567 .080566409 .14192708 .068603519 .14941406 .05834961 .15690105 .048095704 .16748047 .04296875 .18115235 .04296875 .18896485 .04296875 .19840496 .044759115 .20947266 .048339845 .22054036 .051920576 .23120117 .055664064 .24145508 .059570314 .25170899 .06347656 .2589518 .06591797 .2631836 .06689453V.028808594Z"/>
<path id="font_3_81" d="M.52685549 .020019532C.51676437 .016438803 .50390627 .012125651 .48828126 .007080078 .47265626 .0020345052 .45638023-.0024414063 .43945313-.0063476564 .42252604-.010253906 .4070638-.012207031 .3930664-.012207031 .38720704-.012207031 .37923179-.01163737 .36914063-.010498047 .35904948-.009358724 .3491211-.0068359377 .33935548-.0029296876 .32958985 .0009765625 .3219401 .006917318 .31640626 .014892578 .3108724 .022867838 .30940757 .033528646 .31201173 .046875L.37304688 .3540039C.3766276 .37190757 .3761393 .38582359 .37158204 .39575196 .36702476 .40568034 .3606771 .41267906 .35253907 .41674806 .34440104 .42081706 .33658854 .42285157 .32910157 .42285157 .31835938 .42285157 .30444337 .41886393 .28735353 .41088868 .27026368 .40291343 .25260417 .39233399 .234375 .3791504 .21614583 .3659668 .19970703 .3515625 .1850586 .3359375L.11621094 0H.022949219L.10986328 .4248047 .025878907 .43408204V.46289063L.17675781 .49414063H.21679688L.19824219 .4008789C.21289063 .41585288 .23038738 .4305013 .25073243 .44482423 .27107749 .45914714 .292806 .47094728 .31591798 .4802246 .33902995 .48950196 .36165367 .49414063 .38378907 .49414063 .4205729 .49414063 .44677735 .48404948 .46240235 .4638672 .47802735 .4436849 .48160807 .4111328 .47314454 .36621095L.41992188 .083984378C.41764323 .07128906 .4193522 .06193034 .42504884 .055908204 .43074546 .049886068 .4375 .0460612 .4453125 .044433595 .453125 .04280599 .45898438 .041992189 .46289063 .041992189 .47200523 .041992189 .4819336 .04329427 .49267579 .045898439 .50341799 .048502607 .51448568 .05159505 .5258789 .05517578L.52685549 .020019532Z"/>
<path id="font_3_271" d="M.17675781-.012207031C.14746094-.012207031 .1233724-.0063476564 .10449219 .0053710939 .08561198 .017089844 .070882167 .032145185 .060302736 .05053711 .04972331 .06892904 .04239909 .08846029 .038330079 .10913086 .034261068 .12980144 .032226564 .14908855 .032226564 .16699219 .032226564 .20572917 .038411458 .24438477 .05078125 .28295899 .06315104 .3215332 .08154297 .35677085 .10595703 .38867188 .1303711 .4205729 .16040039 .4461263 .19604492 .46533204 .23168946 .48453776 .27294923 .49414063 .31982423 .49414063 .3383789 .49414063 .35579429 .49039714 .3720703 .48291017 .38834635 .4754232 .40104167 .4671224 .41015626 .4580078L.4248047 .4819336H.49316407C.48990885 .47444663 .48632813 .46435548 .48242188 .45166017 .47851563 .43896485 .4757487 .43001304 .4741211 .4248047 .4711914 .41438804 .4671224 .39778648 .46191407 .375 .45670573 .35221354 .45109049 .32657878 .44506837 .2980957 .43904624 .26961265 .4333496 .2413737 .42797853 .2133789 .42260743 .18538411 .4181315 .16048177 .41455079 .13867188 .41097007 .11686198 .4091797 .1015625 .4091797 .09277344 .4091797 .075520839 .4129232 .063557948 .42041017 .056884767 .42789714 .05021159 .43847657 .046875 .45214845 .046875 .45670573 .046875 .46354167 .048095704 .47265626 .05053711 .48177085 .052978517 .49080406 .0555013 .49975587 .05810547 .5087077 .060709638 .5148112 .06233724 .5180664 .06298828V.026855469C.5128581 .024576823 .5022786 .020263672 .48632813 .013916016 .4703776 .0075683596 .45328776 .0016276041 .4350586-.00390625 .41682945-.0094401049 .40120445-.012207031 .3881836-.012207031 .36409507-.012207031 .34708659-.006266276 .3371582 .0056152346 .32722984 .017496745 .3211263 .03434245 .31884767 .056152345 .3038737 .04215495 .28393556 .02726237 .2590332 .011474609 .23413086-.004313151 .20670574-.012207031 .17675781-.012207031M.20800781 .05419922C.22363281 .05419922 .23909505 .05834961 .25439454 .06665039 .269694 .07495117 .28312174 .08414713 .29467774 .09423828 .30623374 .10432943 .31429038 .11165365 .31884767 .11621094L.37109376 .39208985C.37141929 .3943685 .36930339 .39990235 .3647461 .4086914 .3601888 .41748048 .35498048 .42586265 .3491211 .4338379 .34326173 .44181315 .33821617 .44580079 .33398438 .44580079 .29589845 .44580079 .26383464 .43693034 .23779297 .41918946 .2117513 .40144859 .19091797 .37858073 .17529297 .35058595 .15966797 .32259117 .14835613 .29288737 .14135742 .2614746 .13435872 .23006185 .13085938 .20052083 .13085938 .17285156 .13085938 .15429688 .13297527 .13590496 .13720703 .11767578 .1414388 .09944662 .14916992 .0843099 .16040039 .072265628 .17163086 .060221357 .1875 .05419922 .20800781 .05419922M.5180664 .65185549 .5053711 .5859375H.20263672L.21679688 .65185549H.5180664Z"/>
<path id="font_3_17" d="M.15185547 .05517578C.15185547 .036621095 .1451823 .020751954 .13183594 .0075683596 .118489589-.0056152346 .10253906-.012207031 .083984378-.012207031 .06542969-.012207031 .049804689-.0056152346 .037109376 .0075683596 .024414063 .020751954 .018066407 .036621095 .018066407 .05517578 .018066407 .073404949 .024414063 .08911133 .037109376 .10229492 .049804689 .115478519 .06542969 .12207031 .083984378 .12207031 .10253906 .12207031 .118489589 .115478519 .13183594 .10229492 .1451823 .08911133 .15185547 .073404949 .15185547 .05517578Z"/>
<path id="font_1_180" d="M.39208985 .70214846C.38264976 .69108077 .37141929 .6780599 .35839845 .66308596 .3453776 .648112 .33390299 .6312663 .3239746 .6125488 .31404624 .59383139 .30908204 .5732422 .30908204 .55078127 .30908204 .54752609 .30924479 .5440267 .3095703 .5402832 .30989585 .53653976 .3100586 .5333659 .3100586 .5307617H.37304688L.38061524 .5197754C.3856608 .5124512 .3881836 .5032552 .3881836 .4921875 .3881836 .4752604 .38264976 .46069337 .37158204 .44848634 .3605143 .4362793 .34602867 .43017579 .328125 .43017579 .30208335 .43017579 .28173829 .4388021 .26708985 .4560547 .2524414 .47330729 .24511719 .4962565 .24511719 .52490237 .24511719 .5489909 .24951172 .5710449 .25830079 .59106448 .26708985 .611084 .27775065 .62890627 .2902832 .64453127 .30281578 .66015627 .31510417 .67333987 .32714845 .68408206 .33919273 .6948242 .34847007 .703125 .35498048 .7089844L.39208985 .70214846M.18603516 .70214846C.16617839 .6822917 .14737956 .65966799 .12963867 .63427737 .11189779 .6088867 .103027347 .5807292 .103027347 .5498047 .103027347 .5465495 .1031901 .5432129 .103515628 .5397949 .10384115 .53637698 .104003909 .5333659 .104003909 .5307617H.16699219L.17456055 .5202637C.17960613 .51326498 .1821289 .50358077 .1821289 .49121095 .1821289 .47428385 .17667644 .45987956 .16577149 .44799806 .15486653 .43611656 .14029949 .43017579 .12207031 .43017579 .096354167 .43017579 .07609049 .43847657 .061279298 .45507813 .046468099 .4716797 .0390625 .49430339 .0390625 .5229492 .0390625 .5473633 .04345703 .56974288 .052246095 .5900879 .061035158 .6104329 .07169596 .6284993 .084228519 .6442871 .09676107 .6600749 .10904948 .67333987 .12109375 .68408206 .13313802 .6948242 .14241536 .703125 .14892578 .7089844L.18603516 .70214846Z"/>
<path id="font_1_55" d="M.5830078 .51123049H.5239258L.5097656 .60498049C.507487 .6163737 .5019531 .6220703 .49316407 .6220703H.35009767V.068847659C.35009767 .063964847 .35180665 .059244794 .3552246 .0546875 .35864259 .050130208 .36393229 .047526044 .37109376 .046875L.4350586 .04296875V0H.1640625V.04296875L.22802735 .046875C.2351888 .047526044 .24047852 .050130208 .24389649 .0546875 .24731446 .059244794 .24902344 .063964847 .24902344 .068847659V.6220703H.10498047C.094563808 .6220703 .08886719 .6163737 .087890628 .60498049L.07421875 .51123049H.016113282V.67089846H.5830078V.51123049Z"/>
<path id="font_1_75" d="M.55078127 0H.328125V.0390625L.36914063 .041992189C.375 .04264323 .38012696 .044921876 .38452149 .048828126 .38891603 .052734376 .39111329 .05777995 .39111329 .063964847V.32177735C.39111329 .3504232 .38427735 .37410484 .37060548 .39282228 .3569336 .4115397 .33072917 .42089845 .2919922 .42089845 .27441407 .42089845 .25545249 .4181315 .23510742 .41259767 .21476238 .4070638 .19742839 .40022788 .18310547 .39208985V.063964847C.18310547 .05029297 .18977864 .04296875 .203125 .041992189L.24609375 .0390625V0H.020996094V.0390625L.068847659 .041992189C.082845058 .04296875 .08984375 .05029297 .08984375 .063964847V.66503909H.015136719V.6982422L.1430664 .7368164H.18310547V.4321289C.19514974 .43961589 .21077474 .4481608 .22998047 .45776368 .2491862 .46736656 .2693685 .47583009 .29052735 .4831543 .3116862 .49047853 .33089195 .49414063 .34814454 .49414063 .386556 .49414063 .41878257 .48177085 .44482423 .45703126 .47086589 .43229167 .48388673 .39420573 .48388673 .34277345V.063964847C.48388673 .05777995 .48608399 .052734376 .49047853 .048828126 .49487306 .044921876 .5 .04264323 .5058594 .041992189L.55078127 .0390625V0Z"/>
<path id="font_1_79" d="M.27001954 0H.026855469V.0390625L.080078128 .041992189C.084635417 .042317708 .08943685 .044840497 .09448242 .049560548 .09952799 .054280599 .10205078 .05875651 .10205078 .06298828V.66503909H.025878907V.6982422L.1538086 .7368164H.19482422V.06298828C.19482422 .05875651 .19726563 .054280599 .20214844 .049560548 .20703125 .044840497 .21158855 .042317708 .21582031 .041992189L.27001954 .0390625V0Z"/>
<path id="font_1_71" d="M.53808596 0H.38085938V.053222658C.3580729 .03564453 .33382163 .020345053 .30810548 .0073242189 .2823893-.0056966149 .25504557-.012207031 .22607422-.012207031 .19254558-.012207031 .1636556-.005126953 .1394043 .009033203 .11515299 .02319336 .09529623 .041992189 .079833988 .06542969 .06437174 .08886719 .052897138 .114746097 .045410158 .1430664 .037923177 .17138672 .034179689 .19970703 .034179689 .22802735 .034179689 .27327476 .04345703 .3161621 .06201172 .35668946 .080566409 .3972168 .10872396 .43025718 .14648438 .45581056 .1842448 .48136393 .23177083 .49414063 .2890625 .49414063 .30501304 .49414063 .32234703 .4925944 .34106446 .48950196 .3597819 .48640953 .37304688 .48388673 .38085938 .4819336V.66503909H.30517579V.6982422L.43408204 .7368164H.4741211V.063964847C.4741211 .05029297 .48111979 .04296875 .4951172 .041992189L.53808596 .0390625V0M.38085938 .09082031V.43115235C.37239585 .43408204 .3597819 .43725587 .34301759 .44067384 .32625328 .4440918 .31054688 .44580079 .29589845 .44580079 .24641927 .44580079 .20686849 .42749024 .1772461 .39086915 .1476237 .35424806 .1328125 .30566407 .1328125 .24511719 .1328125 .1907552 .14550781 .14567058 .17089844 .10986328 .19628906 .07405599 .2319336 .056152345 .27783204 .056152345 .2980143 .056152345 .31697593 .059977216 .3347168 .06762695 .35245768 .075276698 .36783854 .08300781 .38085938 .09082031Z"/>
<path id="font_1_74" d="M.5078125 .41503907H.40820313C.4156901 .40299479 .42203776 .3898112 .4272461 .37548829 .43245445 .36116538 .4350586 .34440104 .4350586 .3251953 .4350586 .29003907 .4248047 .26017253 .40429688 .2355957 .38378907 .21101888 .35717774 .19278972 .3244629 .1809082 .29174806 .16902669 .2566732 .16438802 .21923828 .16699219 .21402996 .15852864 .21085613 .1492513 .2097168 .13916016 .20857747 .12906902 .20841472 .120279949 .20922852 .11279297 .21004232 .10530599 .21061199 .10107422 .2109375 .100097659 .22884114 .09814453 .2495931 .09586588 .27319337 .09326172 .2967936 .090657558 .3207194 .08658854 .3449707 .08105469 .36922203 .075520839 .3917643 .067871097 .41259767 .05810547 .433431 .048339845 .4501953 .03548177 .46289063 .01953125 .47558595 .0035807293 .4819336-.016276041 .4819336-.040039064 .4819336-.071614589 .4703776-.10180664 .44726563-.13061524 .42415367-.15942383 .39298503-.1830241 .35375978-.20141602 .31453453-.21980794 .27067057-.2290039 .22216797-.2290039 .16259766-.2290039 .116373699-.2154134 .083496097-.18823242 .05061849-.16105144 .034179689-.12727864 .034179689-.08691406 .034179689-.057942708 .04280599-.032145185 .060058595-.009521484 .077311199 .013102214 .104003909 .027669272 .14013672 .034179689 .13655599 .044596357 .13395183 .052083333 .13232422 .056640626 .13069661 .061197919 .12988281 .069010417 .12988281 .080078128 .12988281 .09309896 .13387044 .10750326 .1418457 .123291019 .14982097 .13907878 .16259766 .15592449 .18017578 .17382813 .14697266 .18131511 .118001308 .19816081 .09326172 .22436524 .06852213 .25056968 .056152345 .28385417 .056152345 .32421876 .056152345 .3766276 .07462565 .41805015 .111572269 .44848634 .14851888 .47892253 .19694011 .49414063 .25683595 .49414063 .28059898 .49414063 .30265299 .49064128 .32299806 .48364259 .3433431 .4766439 .36002604 .4700521 .37304688 .4638672H.5078125V.41503907M.33984376 .3310547C.33984376 .35221354 .33626304 .3720703 .32910157 .390625 .3219401 .4091797 .31152345 .42423503 .29785157 .43579103 .2841797 .44734703 .2672526 .453125 .24707031 .453125 .21907552 .453125 .19620769 .44230143 .1784668 .4206543 .1607259 .39900718 .15185547 .3688151 .15185547 .33007813 .15185547 .29654948 .15983074 .26782228 .17578125 .24389649 .19173177 .2199707 .2154948 .20800781 .24707031 .20800781 .27701823 .20800781 .29996745 .22005208 .31591798 .24414063 .3318685 .26822917 .33984376 .29720054 .33984376 .3310547M.3959961-.06689453C.3959961-.0460612 .38875328-.029947916 .37426759-.018554688 .3597819-.0071614587 .34179688 .0013020834 .3203125 .0068359377 .29882813 .012369792 .277181 .016357422 .2553711 .018798829 .2335612 .021240235 .21516927 .023925782 .20019531 .026855469 .17122396 .016438803 .15128581 .0022786458 .14038086-.015625 .1294759-.033528646 .12402344-.05061849 .12402344-.06689453 .12402344-.082845058 .12866211-.099853519 .13793946-.11791992 .1472168-.13598633 .16153972-.15136719 .1809082-.1640625 .20027669-.17675781 .22493489-.18310547 .2548828-.18310547 .28678385-.18310547 .31315104-.17675781 .33398438-.1640625 .35481773-.15136719 .37036134-.13598633 .38061524-.11791992 .39086915-.099853519 .3959961-.082845058 .3959961-.06689453Z"/>
<path id="font_1_68" d="M.4921875 0H.34423829L.3310547 .05908203C.31835938 .048990888 .30257163 .038411458 .2836914 .02734375 .2648112 .016276041 .24495442 .006917318 .2241211-.0007324219 .20328777-.008382161 .18326824-.012207031 .1640625-.012207031 .12792969-.012207031 .09724935-.00016276042 .072021488 .023925782 .04679362 .048014326 .034179689 .08105469 .034179689 .123046878 .034179689 .14160156 .037516279 .15885417 .044189454 .17480469 .05086263 .1907552 .064208988 .20597331 .084228519 .22045899 .10424805 .23494466 .1340332 .24910482 .17358399 .26293946 .21313477 .27677409 .265625 .29085288 .3310547 .30517579 .3310547 .30745445 .3310547 .31306968 .3310547 .32202149 .3310547 .3309733 .3310547 .339681 .3310547 .34814454 .3310547 .41389976 .29996745 .44677735 .23779297 .44677735 .22054036 .44677735 .20564778 .44514976 .19311524 .44189454 .18058269 .4386393 .171875 .43603517 .16699219 .43408204V.34716798H.09423828C.085123699 .34716798 .076660159 .34887696 .068847659 .35229493 .061035158 .3557129 .057128908 .36360679 .057128908 .37597657 .057128908 .4033203 .06754557 .42569987 .088378909 .44311524 .10921224 .4605306 .13566081 .47338868 .16772461 .48168946 .1997884 .48999024 .23225911 .49414063 .26513673 .49414063 .30647788 .49414063 .33854167 .48771159 .36132813 .47485353 .3841146 .46199546 .4000651 .44425456 .4091797 .42163087 .41829429 .39900718 .42285157 .37320964 .42285157 .34423829V.063964847C.42285157 .05777995 .42488609 .052652997 .42895509 .048583986 .43302409 .044514974 .43798829 .042317708 .44384767 .041992189L.4921875 .0390625V0M.3310547 .09423828V.26708985C.2861328 .25602214 .2504069 .24487305 .22387696 .23364258 .197347 .22241211 .17757161 .21118164 .16455078 .19995117 .15152996 .1887207 .14298503 .17732747 .13891602 .16577149 .134847 .1542155 .1328125 .14225261 .1328125 .12988281 .1328125 .109375 .1394043 .090413417 .15258789 .07299805 .16577149 .055582685 .1842448 .046875 .20800781 .046875 .22753906 .046875 .2491862 .052246095 .27294923 .06298828 .29671226 .07373047 .31608073 .08414713 .3310547 .09423828Z"/>
<path id="font_1_181" d="M.4140625 .61621096C.4140625 .5917969 .40966798 .5694173 .4008789 .54907229 .39208985 .52872726 .38142906 .5106608 .36889649 .49487306 .35636393 .4790853 .34407554 .4658203 .33203126 .45507813 .31998698 .44433595 .31070964 .43603517 .30419923 .43017579L.26708985 .43798829C.28727214 .45817057 .3063151 .48079429 .32421876 .5058594 .3421224 .5309245 .35107423 .55891928 .35107423 .58984377 .35107423 .5934245 .3507487 .59676107 .35009767 .5998535 .34944663 .602946 .3491211 .60563156 .3491211 .60791018H.2861328L.27856446 .6191406C.2735189 .6266276 .2709961 .63655599 .2709961 .6489258 .2709961 .6661784 .27652995 .6805013 .28759767 .69189456 .29866538 .7032878 .31315104 .7089844 .3310547 .7089844 .3564453 .7089844 .3766276 .70060226 .39160157 .6838379 .40657554 .66707357 .4140625 .64453127 .4140625 .61621096M.20800781 .6152344C.20800781 .5911458 .20361328 .5690918 .19482422 .54907229 .18603516 .52905276 .17537435 .5111491 .1628418 .49536134 .15030925 .47957359 .13802083 .4662272 .12597656 .45532228 .11393229 .44441734 .104654949 .43603517 .09814453 .43017579L.061035158 .43798829C.07047526 .449056 .08170573 .46199546 .09472656 .47680665 .1077474 .49161784 .11922201 .5083008 .12915039 .52685549 .13907878 .54541018 .14404297 .5657552 .14404297 .5878906 .14404297 .5914714 .1438802 .5951335 .14355469 .59887698 .14322917 .6026204 .1430664 .60563156 .1430664 .60791018H.080078128L.072509769 .6196289C.067464198 .6274414 .064941409 .63688156 .064941409 .6479492 .064941409 .66520187 .07063802 .6796875 .08203125 .69140627 .09342448 .703125 .108072917 .7089844 .12597656 .7089844 .15201824 .7089844 .17220052 .70043948 .18652344 .6833496 .20084636 .66625979 .20800781 .6435547 .20800781 .6152344Z"/>
</defs>
<use data-text="." xlink:href="#font_1_17" transform="matrix(16.408476,0,0,-16.408476,.72834,61.03965)" fill="#343a40"/>
<use data-text="&#x0628;" xlink:href="#font_2_1176" transform="matrix(16.408476,0,0,-16.408476,32.92902,61.03965)" fill="#343a40"/>
<use data-text="&#x064e;" xlink:href="#font_2_728" transform="matrix(16.408476,0,0,-16.408476,33.15411,62.505479)" fill="#343a40"/>
<use data-text="&#x064a;" xlink:href="#font_2_1290" transform="matrix(16.408476,0,0,-16.408476,26.97603,61.03965)" fill="#343a40"/>
<use data-text="&#x0652;" xlink:href="#font_2_737" transform="matrix(16.408476,0,0,-16.408476,28.51506,61.44774)" fill="#343a40"/>
<use data-text="&#x062a;" xlink:href="#font_2_1185" transform="matrix(16.408476,0,0,-16.408476,11.7303,61.03965)" fill="#343a40"/>
<use data-text="&#x064c;" xlink:href="#font_2_726" transform="matrix(16.408476,0,0,-16.408476,15.64833,59.116327)" fill="#343a40"/>
<use data-text="&#x0671;" xlink:href="#font_2_781" transform="matrix(16.408476,0,0,-16.408476,79.07063,61.03965)" fill="#343a40"/>
<use data-text="&#x064e;" xlink:href="#font_2_728" transform="matrix(16.408476,0,0,-16.408476,78.80528,56.3274)" fill="#343a40"/>
<use data-text="&#x0644;" xlink:href="#font_2_1262" transform="matrix(16.408476,0,0,-16.408476,74.34375,61.03965)" fill="#343a40"/>
<use data-text="&#x0652;" xlink:href="#font_2_737" transform="matrix(16.408476,0,0,-16.408476,75.36122,56.51223)" fill="#343a40"/>
<use data-text="&#x0628;" xlink:href="#font_2_1179" transform="matrix(16.408476,0,0,-16.408476,68.65428,61.03965)" fill="#343a40"/>
<use data-text="&#x0650;" xlink:href="#font_2_731" transform="matrix(16.408476,0,0,-16.408476,67.980838,63.722429)" fill="#343a40"/>
<use data-text="&#x0646;" xlink:href="#font_2_1273" transform="matrix(16.408476,0,0,-16.408476,63.125848,61.03965)" fill="#343a40"/>
<use data-text="&#x064e;" xlink:href="#font_2_728" transform="matrix(16.408476,0,0,-16.408476,63.20637,60.49431)" fill="#343a40"/>
<use data-text="&#x0627;" xlink:href="#font_2_1173" transform="matrix(16.408476,0,0,-16.408476,58.832666,61.03965)" fill="#343a40"/>
<use data-text="&#x0621;" xlink:href="#font_2_675" transform="matrix(16.408476,0,0,-16.408476,52.203645,61.03965)" fill="#343a40"/>
<use data-text="&#x064f;" xlink:href="#font_2_730" transform="matrix(16.408476,0,0,-16.408476,53.15052,60.783449)" fill="#343a40"/>
<path transform="matrix(1.83,0,0,-1.83,.72834,61.03965)" stroke-width=".3985" stroke-linecap="butt" stroke-miterlimit="10" stroke-linejoin="miter" fill="none" stroke="#343a40" d="M-.19925 8.58932C.17433 9.33653 1.04608 9.83467 2.29143 9.83467H8.94289C10.18823 9.83467 11.06 10.3328 11.43358 11.08002 11.80717 10.3328 12.67892 9.83467 13.92427 9.83467H20.57573C21.82108 9.83467 22.69284 9.33653 23.06642 8.58932"/>
<use data-text="i" xlink:href="#font_1_76" transform="matrix(0,-10.9389719,-10.9389719,-0,25.607193,39.48774)" fill="#343a40"/>
<use data-text="n" xlink:href="#font_1_81" transform="matrix(0,-10.9389719,-10.9389719,-0,25.607193,36.173234)" fill="#343a40"/>
<use data-text="f" xlink:href="#font_1_73" transform="matrix(0,-10.9389719,-10.9389719,-0,25.607193,29.970837)" fill="#343a40"/>
<use data-text="o" xlink:href="#font_1_82" transform="matrix(0,-10.9389719,-10.9389719,-0,25.607193,26.404732)" fill="#343a40"/>
<path transform="matrix(1.83,0,0,-1.83,.72834,61.03965)" stroke-width=".3985" stroke-linecap="butt" stroke-miterlimit="10" stroke-linejoin="miter" fill="none" stroke="#343a40" d="M25.29482 8.58932C25.66841 9.33653 26.54016 9.83467 27.7855 9.83467H34.01448C35.25983 9.83467 36.13158 10.3328 36.50517 11.08002 36.87875 10.3328 37.75052 9.83467 38.99586 9.83467H45.22482C46.47017 9.83467 47.34193 9.33653 47.71552 8.58932"/>
<use data-text="s" xlink:href="#font_1_86" transform="matrix(0,-10.9389719,-10.9389719,-0,71.48713,39.48774)" fill="#343a40"/>
<use data-text="u" xlink:href="#font_1_88" transform="matrix(0,-10.9389719,-10.9389719,-0,71.48713,35.134027)" fill="#343a40"/>
<use data-text="b" xlink:href="#font_1_69" transform="matrix(0,-10.9389719,-10.9389719,-0,71.48713,28.909752)" fill="#343a40"/>
<use data-text="j" xlink:href="#font_1_77" transform="matrix(0,-10.9389719,-10.9389719,-0,71.48713,22.838616)" fill="#343a40"/>
<use data-text="e" xlink:href="#font_1_72" transform="matrix(0,-10.9389719,-10.9389719,-0,71.48713,19.64444)" fill="#343a40"/>
<use data-text="c" xlink:href="#font_1_70" transform="matrix(0,-10.9389719,-10.9389719,-0,71.48713,14.28434)" fill="#343a40"/>
<use data-text="t" xlink:href="#font_1_87" transform="matrix(0,-10.9389719,-10.9389719,-0,71.48713,9.186775)" fill="#343a40"/>
<use data-text="&#x02be;" xlink:href="#font_3_2658" transform="matrix(16.408476,0,0,-16.408476,6.5623805,104.33745)" fill="#343a40"/>
<use data-text="a" xlink:href="#font_3_68" transform="matrix(16.408476,0,0,-16.408476,11.074711,104.33745)" fill="#343a40"/>
<use data-text="l" xlink:href="#font_3_79" transform="matrix(16.408476,0,0,-16.408476,19.623528,104.33745)" fill="#343a40"/>
<use data-text="b" xlink:href="#font_3_69" transform="matrix(16.408476,0,0,-16.408476,23.971776,104.33745)" fill="#343a40"/>
<use data-text="a" xlink:href="#font_3_68" transform="matrix(16.408476,0,0,-16.408476,32.044744,104.33745)" fill="#343a40"/>
<use data-text="y" xlink:href="#font_3_92" transform="matrix(16.408476,0,0,-16.408476,40.527925,104.33745)" fill="#343a40"/>
<use data-text="t" xlink:href="#font_3_87" transform="matrix(16.408476,0,0,-16.408476,48.682939,104.33745)" fill="#343a40"/>
<use data-text="u" xlink:href="#font_3_88" transform="matrix(16.408476,0,0,-16.408476,53.60548,104.33745)" fill="#343a40"/>
<use data-text="b" xlink:href="#font_3_69" transform="matrix(16.408476,0,0,-16.408476,67.04402,104.33745)" fill="#343a40"/>
<use data-text="i" xlink:href="#font_3_76" transform="matrix(16.408476,0,0,-16.408476,75.117,104.33745)" fill="#343a40"/>
<use data-text="n" xlink:href="#font_3_81" transform="matrix(16.408476,0,0,-16.408476,79.48165,104.33745)" fill="#343a40"/>
<use data-text="&#x0101;" xlink:href="#font_3_271" transform="matrix(16.408476,0,0,-16.408476,88.17815,104.33745)" fill="#343a40"/>
<use data-text="&#x02be;" xlink:href="#font_3_2658" transform="matrix(16.408476,0,0,-16.408476,96.72696,104.33745)" fill="#343a40"/>
<use data-text="." xlink:href="#font_3_17" transform="matrix(16.408476,0,0,-16.408476,101.239299,104.33745)" fill="#343a40"/>
<use data-text="&#x201c;" xlink:href="#font_1_180" transform="matrix(16.408476,0,0,-16.408476,6.5623805,124.30093)" fill="#343a40"/>
<use data-text="T" xlink:href="#font_1_55" transform="matrix(16.408476,0,0,-16.408476,13.99542,124.30093)" fill="#343a40"/>
<use data-text="h" xlink:href="#font_1_75" transform="matrix(16.408476,0,0,-16.408476,23.824099,124.30093)" fill="#343a40"/>
<use data-text="e" xlink:href="#font_1_72" transform="matrix(16.408476,0,0,-16.408476,33.242567,124.30093)" fill="#343a40"/>
<use data-text="b" xlink:href="#font_1_69" transform="matrix(16.408476,0,0,-16.408476,46.0904,124.30093)" fill="#343a40"/>
<use data-text="u" xlink:href="#font_1_88" transform="matrix(16.408476,0,0,-16.408476,55.197107,124.30093)" fill="#343a40"/>
<use data-text="i" xlink:href="#font_1_76" transform="matrix(16.408476,0,0,-16.408476,64.53352,124.30093)" fill="#343a40"/>
<use data-text="l" xlink:href="#font_1_79" transform="matrix(16.408476,0,0,-16.408476,69.505298,124.30093)" fill="#343a40"/>
<use data-text="d" xlink:href="#font_1_71" transform="matrix(16.408476,0,0,-16.408476,74.37861,124.30093)" fill="#343a40"/>
<use data-text="i" xlink:href="#font_1_76" transform="matrix(16.408476,0,0,-16.408476,83.63299,124.30093)" fill="#343a40"/>
<use data-text="n" xlink:href="#font_1_81" transform="matrix(16.408476,0,0,-16.408476,88.60475,124.30093)" fill="#343a40"/>
<use data-text="g" xlink:href="#font_1_74" transform="matrix(16.408476,0,0,-16.408476,97.90836,124.30093)" fill="#343a40"/>
<use data-text="i" xlink:href="#font_1_76" transform="matrix(16.408476,0,0,-16.408476,111.3305,124.30093)" fill="#343a40"/>
<use data-text="s" xlink:href="#font_1_86" transform="matrix(16.408476,0,0,-16.408476,116.30226,124.30093)" fill="#343a40"/>
<use data-text="a" xlink:href="#font_1_68" transform="matrix(16.408476,0,0,-16.408476,127.64052,124.30093)" fill="#343a40"/>
<use data-text="h" xlink:href="#font_1_75" transform="matrix(16.408476,0,0,-16.408476,140.80013,124.30093)" fill="#343a40"/>
<use data-text="o" xlink:href="#font_1_82" transform="matrix(16.408476,0,0,-16.408476,150.2186,124.30093)" fill="#343a40"/>
<use data-text="u" xlink:href="#font_1_88" transform="matrix(16.408476,0,0,-16.408476,159.1448,124.30093)" fill="#343a40"/>
<use data-text="s" xlink:href="#font_1_86" transform="matrix(16.408476,0,0,-16.408476,168.48122,124.30093)" fill="#343a40"/>
<use data-text="e" xlink:href="#font_1_72" transform="matrix(16.408476,0,0,-16.408476,175.0118,124.30093)" fill="#343a40"/>
<use data-text="." xlink:href="#font_1_17" transform="matrix(16.408476,0,0,-16.408476,183.05194,124.30093)" fill="#343a40"/>
<use data-text="&#x201d;" xlink:href="#font_1_181" transform="matrix(16.408476,0,0,-16.408476,186.0547,124.30093)" fill="#343a40"/>
</svg>
