<svg xmlns="http://www.w3.org/2000/svg" xmlns:xlink="http://www.w3.org/1999/xlink" xmlns:inkscape="http://www.inkscape.org/namespaces/inkscape" version="1.1" width="68.41455" height="112.24672" viewBox="0 0 68.41455 112.24672">
<defs>
<path id="font_1_87" d="M.3330078 .020996094C.31966148 .013834636 .30037437 .0065104167 .27514649-.0009765625 .24991863-.008463542 .22428386-.012207031 .19824219-.012207031 .1608073-.012207031 .13354492-.0033365887 .11645508 .014404297 .099365238 .032145185 .09082031 .060709638 .09082031 .100097659V.4321289H.026855469V.46484376L.095214847 .4970703 .14013672 .60302737H.18408203V.4819336H.3251953V.4321289H.18408203V.15283203C.18408203 .11311849 .1907552 .08504232 .20410156 .068603519 .21744792 .052164716 .23746746 .043945314 .26416017 .043945314 .27848307 .043945314 .2919922 .045898439 .3046875 .049804689 .3173828 .053710939 .3268229 .057454427 .3330078 .061035158V.020996094Z"/>
<path id="font_1_75" d="M.55078127 0H.328125V.0390625L.36914063 .041992189C.375 .04264323 .38012696 .044921876 .38452149 .048828126 .38891603 .052734376 .39111329 .05777995 .39111329 .063964847V.32177735C.39111329 .3504232 .38427735 .37410484 .37060548 .39282228 .3569336 .4115397 .33072917 .42089845 .2919922 .42089845 .27441407 .42089845 .25545249 .4181315 .23510742 .41259767 .21476238 .4070638 .19742839 .40022788 .18310547 .39208985V.063964847C.18310547 .05029297 .18977864 .04296875 .203125 .041992189L.24609375 .0390625V0H.020996094V.0390625L.068847659 .041992189C.082845058 .04296875 .08984375 .05029297 .08984375 .063964847V.66503909H.015136719V.6982422L.1430664 .7368164H.18310547V.4321289C.19514974 .43961589 .21077474 .4481608 .22998047 .45776368 .2491862 .46736656 .2693685 .47583009 .29052735 .4831543 .3116862 .49047853 .33089195 .49414063 .34814454 .49414063 .386556 .49414063 .41878257 .48177085 .44482423 .45703126 .47086589 .43229167 .48388673 .39420573 .48388673 .34277345V.063964847C.48388673 .05777995 .48608399 .052734376 .49047853 .048828126 .49487306 .044921876 .5 .04264323 .5058594 .041992189L.55078127 .0390625V0Z"/>
<path id="font_1_76" d="M.21777344 .64697268C.21777344 .6300456 .21191406 .6154785 .20019531 .6032715 .18847656 .59106448 .17415364 .58496096 .15722656 .58496096 .14029949 .58496096 .12573242 .59106448 .11352539 .6032715 .10131836 .6154785 .095214847 .6300456 .095214847 .64697268 .095214847 .6642253 .10131836 .67871096 .11352539 .6904297 .12573242 .70214846 .14029949 .7080078 .15722656 .7080078 .17415364 .7080078 .18847656 .70214846 .20019531 .6904297 .21191406 .67871096 .21777344 .6642253 .21777344 .64697268M.26904298 0H.034179689V.0390625L.08300781 .041992189C.09700521 .04296875 .104003909 .05029297 .104003909 .063964847V.42089845H.03515625V.4560547L.15722656 .49414063H.19677735V.063964847C.19677735 .05777995 .19881185 .052652997 .20288086 .048583986 .20694988 .044514974 .21191406 .042317708 .21777344 .041992189L.26904298 .0390625V0Z"/>
<path id="font_1_86" d="M.3491211 .35302735H.296875L.2890625 .42285157C.28190104 .4283854 .27132163 .43359376 .25732423 .43847657 .24332683 .44335938 .22851563 .44580079 .21289063 .44580079 .18554688 .44580079 .16520183 .43953453 .15185547 .42700196 .13850911 .4144694 .13183594 .3984375 .13183594 .37890626 .13183594 .36393229 .1352539 .35123698 .14208985 .3408203 .14892578 .33040367 .16048177 .3202311 .17675781 .31030274 .19303386 .30037437 .21516927 .28889976 .24316406 .2758789 .27799479 .25992839 .30680339 .24226888 .32958985 .22290039 .3523763 .2035319 .36376954 .17757161 .36376954 .14501953 .36376954 .09586588 .34684245 .057373048 .31298829 .029541016 .27913413 .0017089844 .23242188-.012207031 .17285156-.012207031 .14225261-.012207031 .11401367-.009033203 .088134769-.0026855469 .06225586 .0036621094 .044270833 .008951823 .034179689 .013183594V.1459961H.08496094L.09716797 .061035158C.10725912 .05452474 .11971029 .048258466 .13452149 .042236329 .14933269 .03621419 .1665039 .033203126 .18603516 .033203126 .21468099 .033203126 .2368164 .041178388 .2524414 .057128908 .2680664 .07307943 .2758789 .09098307 .2758789 .110839847 .2758789 .13688152 .2652181 .15730794 .24389649 .17211914 .22257488 .18693035 .19254558 .20361328 .1538086 .22216797 .11735026 .2397461 .08943685 .2578125 .07006836 .2763672 .05069987 .29492188 .041015626 .3191732 .041015626 .3491211 .041015626 .39371745 .056640626 .42903648 .087890628 .45507813 .119140628 .48111979 .16357422 .49414063 .2211914 .49414063 .25048829 .49414063 .27661134 .49145509 .29956056 .48608399 .32250978 .4807129 .33902995 .4757487 .3491211 .4711914V.35302735Z"/>
<path id="font_1_69" d="M.5209961 .26416017C.5209961 .21402996 .5110677 .16902669 .49121095 .12915039 .47135417 .089274089 .44026695 .05777995 .39794923 .03466797 .3556315 .011555989 .300944 0 .23388672 0H.08984375V.66503909H.014160156V.6982422L.1430664 .7368164H.18310547V.45703126C.1944987 .4625651 .212972 .47013346 .23852539 .47973634 .26407878 .4893392 .2915039 .49414063 .32080079 .49414063 .3647461 .49414063 .40152995 .4835612 .43115235 .46240235 .46077476 .4412435 .4831543 .41316734 .49829103 .37817384 .51342776 .34318034 .5209961 .30517579 .5209961 .26416017M.4189453 .24414063C.4189453 .30729167 .40559898 .35489909 .37890626 .3869629 .35221354 .4190267 .31461589 .4350586 .26611329 .4350586 .25504557 .4350586 .2409668 .43326823 .22387696 .4296875 .20678711 .42610679 .19319661 .42252604 .18310547 .4189453V.047851564C.19124349 .047526044 .19938152 .047281904 .20751953 .04711914 .21565755 .04695638 .22379558 .046875 .2319336 .046875 .29117839 .046875 .3371582 .061523439 .36987306 .09082031 .4025879 .12011719 .4189453 .17122396 .4189453 .24414063Z"/>
<path id="font_1_82" d="M.5097656 .24023438C.5097656 .19303386 .5 .15030925 .48046876 .11206055 .4609375 .07381185 .4333496 .04353841 .39770509 .021240235 .36206056-.0010579428 .31982423-.012207031 .2709961-.012207031 .22249349-.012207031 .1805013-.0011393229 .14501953 .020996094 .10953776 .04313151 .08219401 .07324219 .06298828 .111328128 .04378255 .14941406 .034179689 .19238281 .034179689 .24023438 .034179689 .2877604 .043863935 .33072917 .06323242 .36914063 .082600917 .4075521 .11027018 .43798829 .14624024 .46044923 .18221028 .48291017 .22477214 .49414063 .27392579 .49414063 .32373048 .49414063 .36621095 .4827474 .4013672 .45996095 .43652345 .43717448 .4633789 .40657554 .4819336 .36816407 .5004883 .3297526 .5097656 .28710938 .5097656 .24023438M.40576173 .24121094C.40576173 .27766929 .4009603 .3116862 .39135743 .34326173 .38175456 .37483726 .3671061 .40039063 .3474121 .41992188 .3277181 .43945313 .30289714 .44921876 .27294923 .44921876 .24202474 .44921876 .2167155 .43945313 .19702149 .41992188 .17732747 .40039063 .16276042 .37483726 .15332031 .34326173 .1438802 .3116862 .13916016 .27766929 .13916016 .24121094 .13916016 .20507813 .1439616 .17114258 .15356446 .1394043 .16316732 .107666019 .17781575 .08203125 .19750977 .0625 .21720378 .04296875 .24202474 .033203126 .27197267 .033203126 .30257163 .033203126 .3277181 .04296875 .3474121 .0625 .3671061 .08203125 .38175456 .10758463 .39135743 .13916016 .4009603 .17073567 .40576173 .20475261 .40576173 .24121094Z"/>
<path id="font_1_78" d="M.5239258 0H.36376954V.0390625L.23876953 .22705078H.18310547V.063964847C.18310547 .05029297 .19010417 .04296875 .20410156 .041992189L.24707031 .0390625V0H.020019532V.0390625L.068847659 .041992189C.082845058 .04296875 .08984375 .05029297 .08984375 .063964847V.66503909H.014160156V.6982422L.14208985 .7368164H.18310547V.25585938H.203125L.35009767 .421875C.3527018 .42513023 .35310874 .42871095 .35131837 .4326172 .34952799 .43652345 .34635417 .4386393 .34179688 .43896485L.30078126 .4428711V.4819336H.4951172V.4428711L.43115235 .43603517 .29882813 .29492188 .4711914 .044921876 .5239258 .0390625V0Z"/>
<path id="font_1_83" d="M.52490237 .24804688C.52490237 .19563802 .5148112 .14990235 .4946289 .110839847 .47444663 .071777347 .44547526 .041503908 .40771485 .020019532 .36995445-.0014648438 .32470704-.012207031 .27197267-.012207031 .2569987-.012207031 .2421875-.011230469 .22753906-.009277344 .21289063-.0073242189 .19807942-.0052083337 .18310547-.0029296876V-.15185547C.18310547-.15804036 .18522136-.16292317 .18945313-.1665039 .19368489-.17008464 .19889324-.17220052 .20507813-.17285156L.26416017-.17919922V-.21777344H.020996094V-.17919922L.068847659-.17285156C.082845058-.17122396 .08984375-.16422527 .08984375-.15185547V.4111328H.020996094V.44384767L.14404297 .4819336H.18310547V.4321289C.20589192 .44970704 .23046875 .46443687 .25683595 .47631837 .28320313 .48819987 .30891929 .49414063 .33398438 .49414063 .3684896 .49414063 .40014649 .4839681 .42895509 .46362306 .45776368 .44327799 .48095704 .41471354 .49853517 .3779297 .5161133 .34114585 .52490237 .29785157 .52490237 .24804688M.4248047 .23388672C.4248047 .26839195 .41951499 .29996745 .40893556 .32861329 .3983561 .35725913 .3827311 .3802897 .36206056 .39770509 .34138999 .41512046 .31575523 .42382813 .28515626 .42382813 .26822917 .42382813 .25065104 .4207357 .23242188 .41455079 .2141927 .40836589 .1977539 .40152995 .18310547 .39404298V.049804689C.21044922 .03938802 .23746746 .034179689 .26416017 .034179689 .300944 .034179689 .33113609 .043619794 .35473634 .0625 .37833659 .08138021 .3959147 .106038417 .4074707 .13647461 .4190267 .16691081 .4248047 .19938152 .4248047 .23388672Z"/>
<path id="font_1_81" d="M.546875 0H.32617188V.0390625L.36816407 .041992189C.37402345 .04264323 .37898765 .044921876 .38305665 .048828126 .38712565 .052734376 .38916017 .05777995 .38916017 .063964847V.32421876C.38916017 .35579429 .38183595 .37980143 .3671875 .39624024 .35253907 .41267906 .32779948 .42089845 .29296876 .42089845 .27408854 .42089845 .2552897 .4182129 .23657227 .4128418 .21785482 .4074707 .20003255 .40055339 .18310547 .39208985V.063964847C.18310547 .05029297 .19010417 .04296875 .20410156 .041992189L.24609375 .0390625V0H.020019532V.0390625L.068847659 .041992189C.082845058 .04296875 .08984375 .05029297 .08984375 .063964847V.4111328H.020019532V.44384767L.14208985 .4819336H.18310547V.4321289C.21110027 .44807945 .23982747 .46240235 .2692871 .47509767 .29874674 .48779298 .32503257 .49414063 .34814454 .49414063 .3917643 .49414063 .42496745 .48055015 .4477539 .45336915 .47054038 .42618815 .4819336 .38834635 .4819336 .33984376V.063964847C.4819336 .05777995 .4839681 .052734376 .4880371 .048828126 .4921061 .044921876 .4970703 .04264323 .5029297 .041992189L.546875 .0390625V0Z"/>
<path id="font_1_74" d="M.5078125 .41503907H.40820313C.4156901 .40299479 .42203776 .3898112 .4272461 .37548829 .43245445 .36116538 .4350586 .34440104 .4350586 .3251953 .4350586 .29003907 .4248047 .26017253 .40429688 .2355957 .38378907 .21101888 .35717774 .19278972 .3244629 .1809082 .29174806 .16902669 .2566732 .16438802 .21923828 .16699219 .21402996 .15852864 .21085613 .1492513 .2097168 .13916016 .20857747 .12906902 .20841472 .120279949 .20922852 .11279297 .21004232 .10530599 .21061199 .10107422 .2109375 .100097659 .22884114 .09814453 .2495931 .09586588 .27319337 .09326172 .2967936 .090657558 .3207194 .08658854 .3449707 .08105469 .36922203 .075520839 .3917643 .067871097 .41259767 .05810547 .433431 .048339845 .4501953 .03548177 .46289063 .01953125 .47558595 .0035807293 .4819336-.016276041 .4819336-.040039064 .4819336-.071614589 .4703776-.10180664 .44726563-.13061524 .42415367-.15942383 .39298503-.1830241 .35375978-.20141602 .31453453-.21980794 .27067057-.2290039 .22216797-.2290039 .16259766-.2290039 .116373699-.2154134 .083496097-.18823242 .05061849-.16105144 .034179689-.12727864 .034179689-.08691406 .034179689-.057942708 .04280599-.032145185 .060058595-.009521484 .077311199 .013102214 .104003909 .027669272 .14013672 .034179689 .13655599 .044596357 .13395183 .052083333 .13232422 .056640626 .13069661 .061197919 .12988281 .069010417 .12988281 .080078128 .12988281 .09309896 .13387044 .10750326 .1418457 .123291019 .14982097 .13907878 .16259766 .15592449 .18017578 .17382813 .14697266 .18131511 .118001308 .19816081 .09326172 .22436524 .06852213 .25056968 .056152345 .28385417 .056152345 .32421876 .056152345 .3766276 .07462565 .41805015 .111572269 .44848634 .14851888 .47892253 .19694011 .49414063 .25683595 .49414063 .28059898 .49414063 .30265299 .49064128 .32299806 .48364259 .3433431 .4766439 .36002604 .4700521 .37304688 .4638672H.5078125V.41503907M.33984376 .3310547C.33984376 .35221354 .33626304 .3720703 .32910157 .390625 .3219401 .4091797 .31152345 .42423503 .29785157 .43579103 .2841797 .44734703 .2672526 .453125 .24707031 .453125 .21907552 .453125 .19620769 .44230143 .1784668 .4206543 .1607259 .39900718 .15185547 .3688151 .15185547 .33007813 .15185547 .29654948 .15983074 .26782228 .17578125 .24389649 .19173177 .2199707 .2154948 .20800781 .24707031 .20800781 .27701823 .20800781 .29996745 .22005208 .31591798 .24414063 .3318685 .26822917 .33984376 .29720054 .33984376 .3310547M.3959961-.06689453C.3959961-.0460612 .38875328-.029947916 .37426759-.018554688 .3597819-.0071614587 .34179688 .0013020834 .3203125 .0068359377 .29882813 .012369792 .277181 .016357422 .2553711 .018798829 .2335612 .021240235 .21516927 .023925782 .20019531 .026855469 .17122396 .016438803 .15128581 .0022786458 .14038086-.015625 .1294759-.033528646 .12402344-.05061849 .12402344-.06689453 .12402344-.082845058 .12866211-.099853519 .13793946-.11791992 .1472168-.13598633 .16153972-.15136719 .1809082-.1640625 .20027669-.17675781 .22493489-.18310547 .2548828-.18310547 .28678385-.18310547 .31315104-.17675781 .33398438-.1640625 .35481773-.15136719 .37036134-.13598633 .38061524-.11791992 .39086915-.099853519 .3959961-.082845058 .3959961-.06689453Z"/>
<path id="font_1_88" d="M.546875 0H.3881836V.057128908C.37679038 .048339845 .3623047 .03857422 .34472657 .027832032 .32714845 .017089844 .30826823 .0077311198 .28808595-.00024414063 .26790367-.008219401 .24788411-.012207031 .22802735-.012207031 .1850586-.012207031 .15128581 .0007324219 .12670899 .026611329 .102132167 .052490236 .08984375 .09358724 .08984375 .14990235V.42089845H.020019532V.45507813L.1430664 .49414063H.18310547V.16894531C.18310547 .13346355 .19034831 .10579427 .20483399 .0859375 .21931966 .06608073 .24430339 .056152345 .27978517 .056152345 .30029298 .056152345 .32047526 .05965169 .34033204 .06665039 .3601888 .073649089 .3761393 .080078128 .3881836 .0859375V.42089845H.3178711V.45507813L.4399414 .49414063H.48095704V.063964847C.48095704 .05777995 .4831543 .052734376 .48754884 .048828126 .49194337 .044921876 .4970703 .04264323 .5029297 .041992189L.546875 .0390625V0Z"/>
<path id="font_1_72" d="M.26611329-.012207031C.2257487-.012207031 .1879069-.0031738282 .15258789 .014892578 .11726888 .032958986 .08870443 .060384115 .06689453 .09716797 .045084638 .13395183 .034179689 .18017578 .034179689 .23583985 .034179689 .2879232 .044270833 .33333335 .064453128 .3720703 .084635417 .41080729 .112467449 .44083659 .14794922 .4621582 .18343099 .48347984 .22379558 .49414063 .26904298 .49414063 .33121745 .49414063 .3779297 .47485353 .4091797 .4362793 .4404297 .39770509 .4560547 .3486328 .4560547 .2890625 .4560547 .28580729 .4560547 .28149415 .4560547 .27612306 .4560547 .27075196 .45572917 .26578776 .45507813 .26123048H.13085938C.13085938 .23583985 .13354492 .2105306 .13891602 .18530274 .14428711 .16007488 .15332031 .13720703 .16601563 .11669922 .17871094 .096191409 .19580078 .0797526 .21728516 .06738281 .23876953 .05501302 .265625 .048828126 .29785157 .048828126 .3264974 .048828126 .3544108 .055419923 .3815918 .068603519 .4087728 .08178711 .43359376 .09586588 .4560547 .110839847V.049804689C.4280599 .032552083 .39786784 .017903647 .36547853 .005859375 .3330892-.006184896 .29996745-.012207031 .26611329-.012207031M.13623047 .30615235H.35595704V.328125C.35595704 .3610026 .34806315 .38867188 .3322754 .4111328 .31648765 .43359376 .2919922 .44482423 .25878907 .44482423 .22591146 .44482423 .19791667 .43245445 .17480469 .40771485 .1516927 .38297526 .13883464 .3491211 .13623047 .30615235Z"/>
<path id="font_1_71" d="M.53808596 0H.38085938V.053222658C.3580729 .03564453 .33382163 .020345053 .30810548 .0073242189 .2823893-.0056966149 .25504557-.012207031 .22607422-.012207031 .19254558-.012207031 .1636556-.005126953 .1394043 .009033203 .11515299 .02319336 .09529623 .041992189 .079833988 .06542969 .06437174 .08886719 .052897138 .114746097 .045410158 .1430664 .037923177 .17138672 .034179689 .19970703 .034179689 .22802735 .034179689 .27327476 .04345703 .3161621 .06201172 .35668946 .080566409 .3972168 .10872396 .43025718 .14648438 .45581056 .1842448 .48136393 .23177083 .49414063 .2890625 .49414063 .30501304 .49414063 .32234703 .4925944 .34106446 .48950196 .3597819 .48640953 .37304688 .48388673 .38085938 .4819336V.66503909H.30517579V.6982422L.43408204 .7368164H.4741211V.063964847C.4741211 .05029297 .48111979 .04296875 .4951172 .041992189L.53808596 .0390625V0M.38085938 .09082031V.43115235C.37239585 .43408204 .3597819 .43725587 .34301759 .44067384 .32625328 .4440918 .31054688 .44580079 .29589845 .44580079 .24641927 .44580079 .20686849 .42749024 .1772461 .39086915 .1476237 .35424806 .1328125 .30566407 .1328125 .24511719 .1328125 .1907552 .14550781 .14567058 .17089844 .10986328 .19628906 .07405599 .2319336 .056152345 .27783204 .056152345 .2980143 .056152345 .31697593 .059977216 .3347168 .06762695 .35245768 .075276698 .36783854 .08300781 .38085938 .09082031Z"/>
<path id="font_1_16" d="M.2758789 .203125H.043945314V.27783204H.2758789V.203125Z"/>
</defs>
<use data-text="t" xlink:href="#font_1_87" transform="matrix(16.408476,0,0,-16.408476,.72834,15.353706)" fill="#343a40"/>
<use data-text="h" xlink:href="#font_1_75" transform="matrix(16.408476,0,0,-16.408476,6.2415878,15.353706)" fill="#343a40"/>
<use data-text="i" xlink:href="#font_1_76" transform="matrix(16.408476,0,0,-16.408476,15.660052,15.353706)" fill="#343a40"/>
<use data-text="s" xlink:href="#font_1_86" transform="matrix(16.408476,0,0,-16.408476,20.63182,15.353706)" fill="#343a40"/>
<use data-text="b" xlink:href="#font_1_69" transform="matrix(16.408476,0,0,-16.408476,31.959122,15.353706)" fill="#343a40"/>
<use data-text="o" xlink:href="#font_1_82" transform="matrix(16.408476,0,0,-16.408476,41.065828,15.353706)" fill="#343a40"/>
<use data-text="o" xlink:href="#font_1_82" transform="matrix(16.408476,0,0,-16.408476,49.99204,15.353706)" fill="#343a40"/>
<use data-text="k" xlink:href="#font_1_78" transform="matrix(16.408476,0,0,-16.408476,58.918249,15.353706)" fill="#343a40"/>
<path transform="matrix(1.83,0,0,-1.83,.72834,15.353706)" stroke-width=".3985" stroke-linecap="butt" stroke-miterlimit="10" stroke-linejoin="miter" fill="none" stroke="#343a40" d="M-.19925-4.26807C.17433-5.01527 1.04608-5.51341 2.29143-5.51341H4.7289C5.97424-5.51341 6.84601-6.01154 7.21959-6.75876 7.59319-6.01154 8.46494-5.51341 9.71028-5.51341H12.14775C13.3931-5.51341 14.26486-5.01527 14.63844-4.26807"/>
<use data-text="p" xlink:href="#font_1_83" transform="matrix(0,-10.9389719,-10.9389719,-0,17.895569,97.33954)" fill="#343a40"/>
<use data-text="o" xlink:href="#font_1_82" transform="matrix(0,-10.9389719,-10.9389719,-0,17.895569,91.22465)" fill="#343a40"/>
<use data-text="i" xlink:href="#font_1_76" transform="matrix(0,-10.9389719,-10.9389719,-0,17.895569,85.27385)" fill="#343a40"/>
<use data-text="n" xlink:href="#font_1_81" transform="matrix(0,-10.9389719,-10.9389719,-0,17.895569,81.959339)" fill="#343a40"/>
<use data-text="t" xlink:href="#font_1_87" transform="matrix(0,-10.9389719,-10.9389719,-0,17.895569,75.75694)" fill="#343a40"/>
<use data-text="i" xlink:href="#font_1_76" transform="matrix(0,-10.9389719,-10.9389719,-0,17.895569,72.03769)" fill="#343a40"/>
<use data-text="n" xlink:href="#font_1_81" transform="matrix(0,-10.9389719,-10.9389719,-0,17.895569,68.72318)" fill="#343a40"/>
<use data-text="g" xlink:href="#font_1_74" transform="matrix(0,-10.9389719,-10.9389719,-0,17.895569,62.520788)" fill="#343a40"/>
<use data-text="n" xlink:href="#font_1_81" transform="matrix(0,-10.9389719,-10.9389719,-0,17.895569,53.572706)" fill="#343a40"/>
<use data-text="o" xlink:href="#font_1_82" transform="matrix(0,-10.9389719,-10.9389719,-0,17.895569,47.370309)" fill="#343a40"/>
<use data-text="u" xlink:href="#font_1_88" transform="matrix(0,-10.9389719,-10.9389719,-0,17.895569,41.419504)" fill="#343a40"/>
<use data-text="n" xlink:href="#font_1_81" transform="matrix(0,-10.9389719,-10.9389719,-0,17.895569,35.19522)" fill="#343a40"/>
<path transform="matrix(1.83,0,0,-1.83,.72834,15.353706)" stroke-width=".3985" stroke-linecap="butt" stroke-miterlimit="10" stroke-linejoin="miter" fill="none" stroke="#343a40" d="M16.86685-4.26807C17.24043-5.01527 18.1122-5.51341 19.35754-5.51341H24.33653C25.58188-5.51341 26.45364-6.01154 26.82722-6.75876 27.20082-6.01154 28.07257-5.51341 29.31792-5.51341H34.29692C35.54227-5.51341 36.41402-5.01527 36.78761-4.26807"/>
<use data-text="p" xlink:href="#font_1_83" transform="matrix(0,-10.9389719,-10.9389719,-0,53.776384,106.77867)" fill="#343a40"/>
<use data-text="o" xlink:href="#font_1_82" transform="matrix(0,-10.9389719,-10.9389719,-0,53.776384,100.66379)" fill="#343a40"/>
<use data-text="i" xlink:href="#font_1_76" transform="matrix(0,-10.9389719,-10.9389719,-0,53.776384,94.71299)" fill="#343a40"/>
<use data-text="n" xlink:href="#font_1_81" transform="matrix(0,-10.9389719,-10.9389719,-0,53.776384,91.398479)" fill="#343a40"/>
<use data-text="t" xlink:href="#font_1_87" transform="matrix(0,-10.9389719,-10.9389719,-0,53.776384,85.196079)" fill="#343a40"/>
<use data-text="e" xlink:href="#font_1_72" transform="matrix(0,-10.9389719,-10.9389719,-0,53.776384,81.47683)" fill="#343a40"/>
<use data-text="d" xlink:href="#font_1_71" transform="matrix(0,-10.9389719,-10.9389719,-0,53.776384,76.11673)" fill="#343a40"/>
<use data-text="-" xlink:href="#font_1_16" transform="matrix(0,-10.9389719,-10.9389719,-0,53.776384,69.94714)" fill="#343a40"/>
<use data-text="t" xlink:href="#font_1_87" transform="matrix(0,-10.9389719,-10.9389719,-0,53.776384,66.44668)" fill="#343a40"/>
<use data-text="o" xlink:href="#font_1_82" transform="matrix(0,-10.9389719,-10.9389719,-0,53.776384,62.727426)" fill="#343a40"/>
<use data-text="n" xlink:href="#font_1_81" transform="matrix(0,-10.9389719,-10.9389719,-0,53.776384,53.57151)" fill="#343a40"/>
<use data-text="o" xlink:href="#font_1_82" transform="matrix(0,-10.9389719,-10.9389719,-0,53.776384,47.36911)" fill="#343a40"/>
<use data-text="u" xlink:href="#font_1_88" transform="matrix(0,-10.9389719,-10.9389719,-0,53.776384,41.418313)" fill="#343a40"/>
<use data-text="n" xlink:href="#font_1_81" transform="matrix(0,-10.9389719,-10.9389719,-0,53.776384,35.19403)" fill="#343a40"/>
</svg>
