<svg xmlns="http://www.w3.org/2000/svg" xmlns:xlink="http://www.w3.org/1999/xlink" xmlns:inkscape="http://www.inkscape.org/namespaces/inkscape" version="1.1" width="321.96656" height="235.03606" viewBox="0 0 321.96656 235.03606">
<defs>
<path id="font_1_17" d="M.19580078 .05517578C.19580078 .036621095 .18912761 .020751954 .17578125 .0075683596 .16243489-.0056152346 .14648438-.012207031 .12792969-.012207031 .109375-.012207031 .09358724-.0056152346 .080566409 .0075683596 .06754557 .020751954 .061035158 .036621095 .061035158 .05517578 .061035158 .073404949 .06754557 .08911133 .080566409 .10229492 .09358724 .115478519 .109375 .12207031 .12792969 .12207031 .14648438 .12207031 .16243489 .115478519 .17578125 .10229492 .18912761 .08911133 .19580078 .073404949 .19580078 .05517578Z"/>
<path id="font_2_781" d="M.15673828 .609375V.0009765625H.07421875V.609375H.15673828M-.025878907 .69132998-.017089844 .73176577C-.012858073 .7282054-.0072428386 .7236735-.00024414063 .71817019 .006754557 .7126668 .013183594 .70878097 .019042969 .70651248 .045410158 .75094607 .069254558 .78281149 .09057617 .80210879 .11189779 .82140609 .13541667 .8310547 .16113281 .8310547 .18717449 .8310547 .2084961 .822937 .22509766 .80670168 .24169922 .7904765 .25 .77019247 .25 .7458496 .25 .7133891 .23860677 .69066366 .21582031 .67767336 .19303386 .6646932 .15364583 .6582031 .09765625 .6582031H.08544922C.056152345 .6582031 .0320638 .6608836 .013183594 .6662445-.0056966149 .6716054-.018717448 .6799672-.025878907 .69132998M.09667969 .7001953C.13867188 .7001953 .16788738 .7030284 .18432617 .70869448 .20076497 .71436056 .20898438 .72609457 .20898438 .7438965 .20898438 .75652059 .20483399 .767039 .1965332 .77545168 .18823242 .7838745 .1772461 .78808596 .16357422 .78808596 .14567058 .78808596 .1295573 .78144839 .115234378 .7681732 .10091146 .75490829 .083333339 .73224899 .0625 .7001953H.09667969Z"/>
<path id="font_2_1262" d="M-.009765625 .08886719H.03125C.0703125 .08886719 .09667969 .09994507 .11035156 .12210083 .12402344 .14425659 .13085938 .17194622 .13085938 .20516968V.67285159H.2133789V.205719C.2133789 .1379598 .19873047 .08673096 .1694336 .05203247 .14013672 .017344157 .09391276 0 .030761719 0H-.009765625V.08886719Z"/>
<path id="font_2_1213" d="M.3828125 0C.36035157 0 .34155274 .0030110677 .32641603 .009033203 .3112793 .015055339 .29947917 .021484375 .29101563 .028320313 .2861328-.014322917 .27433268-.055582685 .25561524-.095458988 .23689778-.13533528 .20882161-.17008464 .17138672-.19970703 .13395183-.22932942 .084472659-.25016276 .022949219-.26220704L-.005859375-.1850586C.07356771-.16780599 .1295573-.13761394 .16210938-.09448242 .19466146-.05135091 .2109375-.00032552085 .2109375 .05859375 .2109375 .08626302 .20792644 .11531576 .2019043 .14575196 .19588216 .17618816 .1875 .20719402 .17675781 .23876953L.2578125 .26611329 .2841797 .1640625C.29134117 .13671875 .30273438 .11735026 .31835938 .10595703 .33398438 .094563808 .35367839 .08886719 .3774414 .08886719H.3959961V0H.3828125Z"/>
<path id="font_2_735" d="M.03564453 .6582031V.70458987L.24316406 .7895508V.74316409L.03564453 .6582031M.16894531 .6357422C.16959636 .6223958 .17048645 .6086426 .1716156 .5944824 .17274475 .58032229 .17597454 .56852218 .18130493 .55908206 .18664551 .5496419 .19593811 .5449219 .20918274 .5449219 .22017925 .5449219 .22761536 .5491536 .23149109 .5576172 .23536682 .56608077 .23730469 .57633468 .23730469 .5883789 .23730469 .5991211 .2363332 .61002609 .23439026 .62109377 .23245748 .63216146 .23051961 .6422526 .22857666 .6513672L.27294923 .66015627C.27913413 .63932296 .28222657 .6180013 .28222657 .5961914 .28222657 .56722006 .27638755 .54386398 .26470948 .52612307 .2530416 .50838217 .23423767 .49951173 .20829773 .49951173 .20019023 .49951173 .1909434 .5013835 .18055725 .50512698 .17018128 .5088704 .16159058 .51627609 .15478516 .52734377 .14990235 .508138 .1402181 .4950358 .12573242 .4880371 .11124674 .48103843 .096354167 .47753907 .08105469 .47753907 .057291669 .47753907 .0398763 .4860026 .028808594 .5029297 .017740885 .51985678 .012207031 .54052737 .012207031 .5649414 .012207031 .5808919 .014485677 .59765627 .019042969 .6152344L.05859375 .6088867C.055338544 .59521487 .053710939 .58235678 .053710939 .5703125 .053710939 .55826827 .056070966 .54785159 .060791017 .5390625 .06551107 .53027346 .07421875 .5258789 .08691406 .5258789 .108072917 .5258789 .12044271 .53344729 .12402344 .548584 .12760417 .5637207 .12939453 .5864258 .12939453 .6166992L.12890625 .6308594 .16894531 .6357422Z"/>
<path id="font_2_1198" d="M.3251953-.07470703 .3959961-.14550781 .3251953-.2163086 .25439454-.14550781 .3251953-.07470703M-.009765625 .08886719H.07324219C.111328128 .08886719 .14632161 .092290248 .17822266 .09913635 .2101237 .10599264 .24129232 .11545309 .27172853 .1275177 .3021647 .13959249 .33406578 .15386963 .36743165 .17034912 .40079753 .18682862 .43815104 .20452881 .4794922 .2234497 .45638023 .2319336 .43245445 .2411499 .40771485 .25109864 .38297526 .26104737 .3594564 .27042643 .3371582 .27923585 .31486003 .28804527 .29541017 .29530335 .2788086 .30101014 .26220704 .30671693 .25048829 .3095703 .24365235 .3095703 .22379558 .3095703 .20629883 .30377708 .19116211 .29219056 .17602539 .28061424 .16210938 .2666677 .14941406 .25035096L.13623047 .23371887 .061523439 .27043153 .068847659 .28215028C.09033203 .31700135 .11531576 .34493003 .14379883 .36593629 .1722819 .38695274 .20572917 .39746095 .24414063 .39746095 .26009117 .39746095 .27937828 .39335633 .30200196 .3851471 .32462565 .37693788 .34928385 .36667887 .37597657 .35437013 .40266929 .34206138 .43033854 .32958476 .45898438 .3169403 .48763023 .30430604 .51627609 .29364015 .5449219 .28494264 .5735677 .27624513 .60091146 .27189637 .6269531 .27189637V.18673706C.6061198 .18445842 .5795085 .17687989 .54711917 .16400147 .5147298 .15113323 .47265626 .13101197 .42089845 .103637699 .37923179 .08147176 .34057618 .0626475 .30493165 .047164918 .2692871 .031692506 .23299153 .019963583 .19604492 .011978149 .15909831 .0039927165 .11767578 0 .071777347 0H-.009765625V.08886719Z"/>
<path id="font_2_730" d="M.2241211 .52246096C.21728516 .52246096 .21142578 .52275088 .20654297 .5233307 .20166016 .5239207 .19596355 .52460739 .18945313 .5253906 .15625 .47916667 .09814453 .45377604 .015136719 .44921876L.0087890629 .4868164C.041341146 .4897461 .07014974 .49519859 .095214847 .5031738 .120279949 .5111491 .13867188 .5213216 .15039063 .5336914 .12760417 .53531906 .10660807 .54280599 .087402347 .55615237 .06819662 .5694987 .05859375 .59016928 .05859375 .61816409 .05859375 .63997396 .06624349 .65877279 .08154297 .67456057 .096842449 .6903483 .11604818 .6982422 .13916016 .6982422 .16227214 .6982422 .18147786 .6908366 .19677735 .6760254 .21207683 .6612142 .21972656 .64176437 .21972656 .6176758 .21972656 .5994466 .21533203 .57942709 .20654297 .5576172 .21110027 .5569661 .21826172 .55615237 .22802735 .5551758L.2241211 .52246096M.16748047 .5654297C.1710612 .5735677 .17415364 .5822754 .17675781 .59155276 .17936199 .6008301 .18066406 .609375 .18066406 .6171875 .18066406 .6295573 .17683919 .63948568 .16918946 .64697268 .16153972 .65445968 .15218099 .6582031 .14111328 .6582031 .12841797 .6582031 .11808268 .6538086 .11010742 .64501956 .102132167 .63623049 .09814453 .6266276 .09814453 .61621096 .09814453 .5996094 .10506185 .5880534 .118896488 .58154299 .13273113 .57503256 .14892578 .56966146 .16748047 .5654297Z"/>
<path id="font_2_1261" d="M.30664063-.2421875C.24609375-.2421875 .19677735-.23135884 .1586914-.20970154 .12060547-.1880544 .09261068-.15785726 .07470703-.11911011 .056803388-.08036295 .047851564-.03543091 .047851564 .015686036 .047851564 .050201417 .051432294 .08561198 .05859375 .121917728 .06575521 .15822347 .075520839 .19363404 .087890628 .22814942L.16552735 .1968689C.15608724 .16691081 .14811199 .13613892 .14160156 .10455322 .13509114 .0729777 .13183594 .042373659 .13183594 .012741089 .13183594-.04001363 .14526367-.08103943 .17211914-.1103363 .19897461-.13964336 .24381511-.15429688 .30664063-.15429688 .36490885-.15429688 .4087728-.13833618 .43823243-.106414798 .46769206-.07449341 .48242188-.0230306 .48242188 .047973634V.67285159H.5649414V.19979859C.5649414 .16330974 .571696 .13569641 .5852051 .11695862 .5987142 .098230998 .6251628 .08886719 .6645508 .08886719H.6791992V0H.66552737C.63688156 0 .6163737 .0028483074 .6040039 .008544922 .5916341 .014241536 .5784505 .023763022 .5644531 .037109376 .5644531-.055989583 .54248049-.1258138 .49853517-.17236328 .45458985-.21891277 .390625-.2421875 .30664063-.2421875Z"/>
<path id="font_2_731" d="M.028320313-.24658203V-.20019531L.23632813-.115234378V-.1616211L.028320313-.24658203Z"/>
<path id="font_2_1276" d="M.2620697 .39648438 .30065919 .46875C.41739909 .41178385 .50438436 .36092124 .561615 .3161621 .61884567 .27140299 .64746096 .2257487 .64746096 .17919922 .64746096 .12158203 .62964889 .078125 .59402468 .048828126 .55840048 .01953125 .5106557 .0048828127 .4507904 .0048828127 .42834983 .0048828127 .4044393 .0066731774 .37905885 .010253906 .35368858 .013834636 .32961528 .018310547 .306839 .02368164 .2840627 .029052735 .26486717 .03434245 .24925232 .03955078 .22091167 .029134116 .18767803 .01993815 .14955139 .011962891 .11143494 .0039876305 .07462057 0 .039108278 0H-.009277344V.08886719H.032714845C.05419922 .08886719 .073160808 .08935547 .08959961 .09033203 .106038417 .091308597 .12402344 .092936199 .14355469 .095214847 .12109375 .11344401 .104899089 .13338216 .0949707 .1550293 .08504232 .17667644 .080078128 .19905599 .080078128 .22216797 .080078128 .25602214 .08806356 .28515626 .104034427 .3095703 .120015468 .33398438 .14120992 .3527832 .1676178 .3659668 .19403585 .3791504 .22289531 .3857422 .25419618 .3857422 .2682139 .3857422 .28223167 .3839518 .2962494 .3803711 .28518168 .38557945 .27378846 .39095054 .2620697 .39648438M.35058595 .09326172C.36490885 .09163412 .38053385 .09008789 .39746095 .08862305 .41438804 .0871582 .42933656 .08642578 .44230653 .08642578 .4815623 .08642578 .51148989 .09383138 .53208926 .10864258 .5526886 .12345377 .5629883 .14648438 .5629883 .17773438 .5629883 .19368489 .55389407 .21101888 .53570559 .22973633 .5175273 .24845378 .49325563 .26782228 .46289063 .2878418 .43252564 .30786134 .39899699 .32763673 .3623047 .34716798 .38020835 .33284507 .39461265 .31559245 .40551759 .29541017 .41642253 .27522788 .421875 .25390626 .421875 .23144531 .421875 .20084636 .41577149 .17472331 .40356446 .15307617 .39135743 .13142903 .3736979 .11149088 .35058595 .09326172M.1640625 .22314453C.1640625 .2039388 .17213948 .18481446 .18829346 .16577149 .2044576 .14672852 .22787984 .13134766 .25856019 .119628909 .31730653 .14339192 .3466797 .17757161 .3466797 .22216797 .3466797 .25048829 .33810935 .27205406 .32096864 .28686524 .3038381 .30167643 .28319804 .30908204 .25904847 .30908204 .23097229 .30908204 .2081197 .30126954 .19049073 .28564454 .1728719 .27001954 .1640625 .2491862 .1640625 .22314453Z"/>
<path id="font_2_728" d="M.03125 .5571289V.6035156L.23925781 .68847659V.64208987L.03125 .5571289Z"/>
<path id="font_2_713" d="M-.009765625 .08886719H.28564454V0H-.009765625V.08886719Z"/>
<path id="font_2_780" d="M.03125 .5419922V.7192383H.07470703V.5419922H.03125Z"/>
<path id="font_2_1211" d="M.24609375 .6933594 .31689454 .6225586 .24609375 .5517578 .17529297 .6225586 .24609375 .6933594M.32910157 .17773438C.32910157 .18619792 .32722984 .19718425 .32348634 .21069336 .31974284 .22420247 .31526695 .2368164 .3100586 .24853516L.22363281 .44433595 .2998047 .47998048 .41064454 .21923828C.4256185 .18408203 .4387207 .1570638 .44995118 .1381836 .46118165 .11930338 .47224937 .10636393 .4831543 .099365238 .49405924 .09236654 .50651046 .08886719 .5205078 .08886719H.5410156V0H.5205078C.49479167 0 .47387696 .003092448 .45776368 .009277344 .4416504 .015462239 .42773438 .024739584 .41601563 .037109376 .40429688 .049479169 .39241538 .065104167 .3803711 .083984378 .35758464 .055338544 .3285319 .034261068 .2932129 .020751954 .2578939 .0072428386 .21386719 .00048828127 .16113281 .00048828127 .13834636 .00048828127 .11783854 .001546224 .099609378 .0036621094 .08138021 .0057779948 .0641276 .0087890629 .047851564 .0126953129V.10107422C.08528646 .092285159 .12060547 .087890628 .1538086 .087890628 .27067057 .087890628 .32910157 .11783854 .32910157 .17773438Z"/>
<path id="font_2_681" d="M.15673828 .67285159V.0009765625H.07421875V.67285159H.15673828Z"/>
<path id="font_2_1258" d="M.107421878 .4736328C.13574219 .45377604 .16520183 .43286134 .19580078 .41088868 .22639974 .38891603 .2549642 .36547853 .28149415 .34057618 .30802409 .31567384 .32950846 .2891439 .34594728 .26098634 .36238609 .23282878 .37060548 .20279949 .37060548 .17089844 .37060548 .11035156 .34985353 .06673177 .3083496 .040039064 .2668457 .0133463549 .2006836 0 .10986328 0H-.009277344V.08886719H.109375C.17252605 .08886719 .21777344 .09448242 .24511719 .10571289 .27246095 .11694336 .2861328 .13932292 .2861328 .17285156 .2861328 .19433594 .27856446 .21533203 .26342774 .23583985 .24829102 .25634767 .22875977 .27661134 .20483399 .29663087 .1809082 .3166504 .15527344 .3363444 .12792969 .3557129 .10058594 .3750814 .07486979 .39420573 .05078125 .41308595 .040364583 .42154948 .032389326 .43147788 .026855469 .4428711 .021321616 .4542643 .018554688 .46565757 .018554688 .47705079 .018554688 .49039714 .022216797 .50301107 .029541016 .5148926 .036865236 .5267741 .048339845 .5358073 .063964847 .5419922L.41503907 .6845703V.59814456L.107421878 .4736328Z"/>
<path id="font_2_1189" d="M.22949219 .5283203 .29785157 .46044923 .22949219 .39160157 .1616211 .46044923 .22949219 .5283203M.06738281 .5283203 .13574219 .46044923 .06738281 .39160157-.00048828127 .46044923 .06738281 .5283203M-.009765625 .08886719H.08300781C.12434896 .08886719 .15388997 .09814453 .17163086 .11669922 .18937175 .1352539 .19824219 .16373699 .19824219 .20214844 .19824219 .21777344 .19783528 .23258464 .19702149 .24658203 .19620769 .26057945 .19514974 .2745768 .19384766 .28857423L.27539063 .29833985 .28320313 .18408203C.28710938 .12060547 .32014976 .08886719 .38232423 .08886719H.39257813V0H.38134767C.34521485 0 .31632487 .0065104167 .29467774 .01953125 .2730306 .032552083 .25553385 .05094401 .2421875 .07470703 .22460938 .048990888 .20149739 .030110678 .17285156 .018066407 .14420574 .0060221354 .11425781 0 .08300781 0H-.009765625V.08886719Z"/>
<path id="font_2_1173" d="M.07421875 .67285159H.15673828V.20565796C.15673828 .159729 .16520183 .1287791 .1821289 .11280823 .19905599 .096847537 .22460938 .08886719 .25878907 .08886719H.2709961V0H.25878907C.19661458 0 .15030925 .016530356 .11987305 .049591066 .08943685 .08266195 .07421875 .13486736 .07421875 .20620728V.67285159Z"/>
<path id="font_2_682" d="M.45289613-.07470703 .52375796-.14550781 .45289613-.2163086 .3820343-.14550781 .45289613-.07470703M.5310669 0H.41722108C.2944285 0 .20216878 .016601563 .1404419 .049804689 .078715007 .08300781 .047851564 .14046224 .047851564 .22216797 .047851564 .2446289 .050374349 .26660157 .055419923 .28808595 .060465497 .3095703 .06705729 .33024089 .07519531 .35009767L.15089417 .32177735C.14568584 .30745445 .1413676 .29215495 .13793946 .2758789 .13452149 .25960288 .1328125 .24414063 .1328125 .22949219 .1328125 .19140625 .14340718 .16219075 .16459656 .1418457 .1857961 .12150065 .21742249 .10758463 .2594757 .100097659 .3015391 .09261068 .35403443 .08886719 .41696168 .08886719H.5314026C.55356857 .08886719 .5767975 .08951823 .6010895 .09082031 .62538149 .0921224 .64812216 .095703128 .6693115 .1015625 .69051107 .107421878 .7077942 .11726888 .7211609 .13110352 .7345276 .14493816 .74121096 .16438802 .74121096 .18945313 .74121096 .2076823 .73941549 .22941081 .7358246 .25463868 .73224386 .27986656 .7280121 .30485026 .7231293 .32958985L.80810549 .35107423C.81396487 .3256836 .81844076 .2993978 .8215332 .2722168 .8246257 .24503581 .8261719 .22135417 .8261719 .20117188 .8261719 .15690105 .8186798 .12141927 .8036957 .09472656 .78871157 .06803385 .76778158 .047851564 .74090579 .034179689 .7140401 .020507813 .6827698 .0113932299 .6470947 .0068359377 .61142989 .0022786458 .5727539 0 .5310669 0Z"/>
<path id="font_1_69" d="M.5209961 .26416017C.5209961 .21402996 .5110677 .16902669 .49121095 .12915039 .47135417 .089274089 .44026695 .05777995 .39794923 .03466797 .3556315 .011555989 .300944 0 .23388672 0H.08984375V.66503909H.014160156V.6982422L.1430664 .7368164H.18310547V.45703126C.1944987 .4625651 .212972 .47013346 .23852539 .47973634 .26407878 .4893392 .2915039 .49414063 .32080079 .49414063 .3647461 .49414063 .40152995 .4835612 .43115235 .46240235 .46077476 .4412435 .4831543 .41316734 .49829103 .37817384 .51342776 .34318034 .5209961 .30517579 .5209961 .26416017M.4189453 .24414063C.4189453 .30729167 .40559898 .35489909 .37890626 .3869629 .35221354 .4190267 .31461589 .4350586 .26611329 .4350586 .25504557 .4350586 .2409668 .43326823 .22387696 .4296875 .20678711 .42610679 .19319661 .42252604 .18310547 .4189453V.047851564C.19124349 .047526044 .19938152 .047281904 .20751953 .04711914 .21565755 .04695638 .22379558 .046875 .2319336 .046875 .29117839 .046875 .3371582 .061523439 .36987306 .09082031 .4025879 .12011719 .4189453 .17122396 .4189453 .24414063Z"/>
<path id="font_1_68" d="M.4921875 0H.34423829L.3310547 .05908203C.31835938 .048990888 .30257163 .038411458 .2836914 .02734375 .2648112 .016276041 .24495442 .006917318 .2241211-.0007324219 .20328777-.008382161 .18326824-.012207031 .1640625-.012207031 .12792969-.012207031 .09724935-.00016276042 .072021488 .023925782 .04679362 .048014326 .034179689 .08105469 .034179689 .123046878 .034179689 .14160156 .037516279 .15885417 .044189454 .17480469 .05086263 .1907552 .064208988 .20597331 .084228519 .22045899 .10424805 .23494466 .1340332 .24910482 .17358399 .26293946 .21313477 .27677409 .265625 .29085288 .3310547 .30517579 .3310547 .30745445 .3310547 .31306968 .3310547 .32202149 .3310547 .3309733 .3310547 .339681 .3310547 .34814454 .3310547 .41389976 .29996745 .44677735 .23779297 .44677735 .22054036 .44677735 .20564778 .44514976 .19311524 .44189454 .18058269 .4386393 .171875 .43603517 .16699219 .43408204V.34716798H.09423828C.085123699 .34716798 .076660159 .34887696 .068847659 .35229493 .061035158 .3557129 .057128908 .36360679 .057128908 .37597657 .057128908 .4033203 .06754557 .42569987 .088378909 .44311524 .10921224 .4605306 .13566081 .47338868 .16772461 .48168946 .1997884 .48999024 .23225911 .49414063 .26513673 .49414063 .30647788 .49414063 .33854167 .48771159 .36132813 .47485353 .3841146 .46199546 .4000651 .44425456 .4091797 .42163087 .41829429 .39900718 .42285157 .37320964 .42285157 .34423829V.063964847C.42285157 .05777995 .42488609 .052652997 .42895509 .048583986 .43302409 .044514974 .43798829 .042317708 .44384767 .041992189L.4921875 .0390625V0M.3310547 .09423828V.26708985C.2861328 .25602214 .2504069 .24487305 .22387696 .23364258 .197347 .22241211 .17757161 .21118164 .16455078 .19995117 .15152996 .1887207 .14298503 .17732747 .13891602 .16577149 .134847 .1542155 .1328125 .14225261 .1328125 .12988281 .1328125 .109375 .1394043 .090413417 .15258789 .07299805 .16577149 .055582685 .1842448 .046875 .20800781 .046875 .22753906 .046875 .2491862 .052246095 .27294923 .06298828 .29671226 .07373047 .31608073 .08414713 .3310547 .09423828Z"/>
<path id="font_1_86" d="M.3491211 .35302735H.296875L.2890625 .42285157C.28190104 .4283854 .27132163 .43359376 .25732423 .43847657 .24332683 .44335938 .22851563 .44580079 .21289063 .44580079 .18554688 .44580079 .16520183 .43953453 .15185547 .42700196 .13850911 .4144694 .13183594 .3984375 .13183594 .37890626 .13183594 .36393229 .1352539 .35123698 .14208985 .3408203 .14892578 .33040367 .16048177 .3202311 .17675781 .31030274 .19303386 .30037437 .21516927 .28889976 .24316406 .2758789 .27799479 .25992839 .30680339 .24226888 .32958985 .22290039 .3523763 .2035319 .36376954 .17757161 .36376954 .14501953 .36376954 .09586588 .34684245 .057373048 .31298829 .029541016 .27913413 .0017089844 .23242188-.012207031 .17285156-.012207031 .14225261-.012207031 .11401367-.009033203 .088134769-.0026855469 .06225586 .0036621094 .044270833 .008951823 .034179689 .013183594V.1459961H.08496094L.09716797 .061035158C.10725912 .05452474 .11971029 .048258466 .13452149 .042236329 .14933269 .03621419 .1665039 .033203126 .18603516 .033203126 .21468099 .033203126 .2368164 .041178388 .2524414 .057128908 .2680664 .07307943 .2758789 .09098307 .2758789 .110839847 .2758789 .13688152 .2652181 .15730794 .24389649 .17211914 .22257488 .18693035 .19254558 .20361328 .1538086 .22216797 .11735026 .2397461 .08943685 .2578125 .07006836 .2763672 .05069987 .29492188 .041015626 .3191732 .041015626 .3491211 .041015626 .39371745 .056640626 .42903648 .087890628 .45507813 .119140628 .48111979 .16357422 .49414063 .2211914 .49414063 .25048829 .49414063 .27661134 .49145509 .29956056 .48608399 .32250978 .4807129 .33902995 .4757487 .3491211 .4711914V.35302735Z"/>
<path id="font_1_72" d="M.26611329-.012207031C.2257487-.012207031 .1879069-.0031738282 .15258789 .014892578 .11726888 .032958986 .08870443 .060384115 .06689453 .09716797 .045084638 .13395183 .034179689 .18017578 .034179689 .23583985 .034179689 .2879232 .044270833 .33333335 .064453128 .3720703 .084635417 .41080729 .112467449 .44083659 .14794922 .4621582 .18343099 .48347984 .22379558 .49414063 .26904298 .49414063 .33121745 .49414063 .3779297 .47485353 .4091797 .4362793 .4404297 .39770509 .4560547 .3486328 .4560547 .2890625 .4560547 .28580729 .4560547 .28149415 .4560547 .27612306 .4560547 .27075196 .45572917 .26578776 .45507813 .26123048H.13085938C.13085938 .23583985 .13354492 .2105306 .13891602 .18530274 .14428711 .16007488 .15332031 .13720703 .16601563 .11669922 .17871094 .096191409 .19580078 .0797526 .21728516 .06738281 .23876953 .05501302 .265625 .048828126 .29785157 .048828126 .3264974 .048828126 .3544108 .055419923 .3815918 .068603519 .4087728 .08178711 .43359376 .09586588 .4560547 .110839847V.049804689C.4280599 .032552083 .39786784 .017903647 .36547853 .005859375 .3330892-.006184896 .29996745-.012207031 .26611329-.012207031M.13623047 .30615235H.35595704V.328125C.35595704 .3610026 .34806315 .38867188 .3322754 .4111328 .31648765 .43359376 .2919922 .44482423 .25878907 .44482423 .22591146 .44482423 .19791667 .43245445 .17480469 .40771485 .1516927 .38297526 .13883464 .3491211 .13623047 .30615235Z"/>
<path id="font_1_16" d="M.2758789 .203125H.043945314V.27783204H.2758789V.203125Z"/>
<path id="font_1_81" d="M.546875 0H.32617188V.0390625L.36816407 .041992189C.37402345 .04264323 .37898765 .044921876 .38305665 .048828126 .38712565 .052734376 .38916017 .05777995 .38916017 .063964847V.32421876C.38916017 .35579429 .38183595 .37980143 .3671875 .39624024 .35253907 .41267906 .32779948 .42089845 .29296876 .42089845 .27408854 .42089845 .2552897 .4182129 .23657227 .4128418 .21785482 .4074707 .20003255 .40055339 .18310547 .39208985V.063964847C.18310547 .05029297 .19010417 .04296875 .20410156 .041992189L.24609375 .0390625V0H.020019532V.0390625L.068847659 .041992189C.082845058 .04296875 .08984375 .05029297 .08984375 .063964847V.4111328H.020019532V.44384767L.14208985 .4819336H.18310547V.4321289C.21110027 .44807945 .23982747 .46240235 .2692871 .47509767 .29874674 .48779298 .32503257 .49414063 .34814454 .49414063 .3917643 .49414063 .42496745 .48055015 .4477539 .45336915 .47054038 .42618815 .4819336 .38834635 .4819336 .33984376V.063964847C.4819336 .05777995 .4839681 .052734376 .4880371 .048828126 .4921061 .044921876 .4970703 .04264323 .5029297 .041992189L.546875 .0390625V0Z"/>
<path id="font_1_82" d="M.5097656 .24023438C.5097656 .19303386 .5 .15030925 .48046876 .11206055 .4609375 .07381185 .4333496 .04353841 .39770509 .021240235 .36206056-.0010579428 .31982423-.012207031 .2709961-.012207031 .22249349-.012207031 .1805013-.0011393229 .14501953 .020996094 .10953776 .04313151 .08219401 .07324219 .06298828 .111328128 .04378255 .14941406 .034179689 .19238281 .034179689 .24023438 .034179689 .2877604 .043863935 .33072917 .06323242 .36914063 .082600917 .4075521 .11027018 .43798829 .14624024 .46044923 .18221028 .48291017 .22477214 .49414063 .27392579 .49414063 .32373048 .49414063 .36621095 .4827474 .4013672 .45996095 .43652345 .43717448 .4633789 .40657554 .4819336 .36816407 .5004883 .3297526 .5097656 .28710938 .5097656 .24023438M.40576173 .24121094C.40576173 .27766929 .4009603 .3116862 .39135743 .34326173 .38175456 .37483726 .3671061 .40039063 .3474121 .41992188 .3277181 .43945313 .30289714 .44921876 .27294923 .44921876 .24202474 .44921876 .2167155 .43945313 .19702149 .41992188 .17732747 .40039063 .16276042 .37483726 .15332031 .34326173 .1438802 .3116862 .13916016 .27766929 .13916016 .24121094 .13916016 .20507813 .1439616 .17114258 .15356446 .1394043 .16316732 .107666019 .17781575 .08203125 .19750977 .0625 .21720378 .04296875 .24202474 .033203126 .27197267 .033203126 .30257163 .033203126 .3277181 .04296875 .3474121 .0625 .3671061 .08203125 .38175456 .10758463 .39135743 .13916016 .4009603 .17073567 .40576173 .20475261 .40576173 .24121094Z"/>
<path id="font_1_88" d="M.546875 0H.3881836V.057128908C.37679038 .048339845 .3623047 .03857422 .34472657 .027832032 .32714845 .017089844 .30826823 .0077311198 .28808595-.00024414063 .26790367-.008219401 .24788411-.012207031 .22802735-.012207031 .1850586-.012207031 .15128581 .0007324219 .12670899 .026611329 .102132167 .052490236 .08984375 .09358724 .08984375 .14990235V.42089845H.020019532V.45507813L.1430664 .49414063H.18310547V.16894531C.18310547 .13346355 .19034831 .10579427 .20483399 .0859375 .21931966 .06608073 .24430339 .056152345 .27978517 .056152345 .30029298 .056152345 .32047526 .05965169 .34033204 .06665039 .3601888 .073649089 .3761393 .080078128 .3881836 .0859375V.42089845H.3178711V.45507813L.4399414 .49414063H.48095704V.063964847C.48095704 .05777995 .4831543 .052734376 .48754884 .048828126 .49194337 .044921876 .4970703 .04264323 .5029297 .041992189L.546875 .0390625V0Z"/>
<path id="font_1_91" d="M.5 0H.28515626V.0390625L.31884767 .04296875C.32340495 .043619794 .32657878 .045979818 .32836915 .050048829 .33015953 .05411784 .33007813 .05777995 .328125 .061035158L.2421875 .18896485 .14404297 .061035158C.14176433 .05810547 .14111328 .05452474 .14208985 .05029297 .1430664 .0460612 .14567058 .043619794 .14990235 .04296875L.20019531 .0390625V0H.009765625V.0390625L.06689453 .046875 .20996094 .23291016 .07421875 .43408204 .015136719 .4428711V.4819336H.23486328V.4428711L.20019531 .43798829C.19563802 .43766276 .19230144 .43546549 .19018555 .43139649 .18806966 .42732749 .18798828 .4235026 .1899414 .41992188L.26904298 .30810548 .35595704 .41992188C.3585612 .42285157 .35921226 .42651368 .35791017 .4309082 .35660807 .43530274 .35367839 .43766276 .3491211 .43798829L.30615235 .4428711V.4819336H.48583985V.4428711L.4321289 .43408204 .29785157 .2631836 .44580079 .046875 .5 .0390625V0Z"/>
<path id="font_1_85" d="M.38085938 .3798828H.34179688C.33561198 .38736979 .3282064 .39379884 .31958009 .39916993 .31095378 .40454103 .30045573 .40722657 .28808595 .40722657 .2721354 .40722657 .25577799 .40169273 .23901367 .390625 .22224935 .37955729 .20524089 .36442057 .18798828 .34521485V.063964847C.18798828 .04996745 .19498699 .04264323 .20898438 .041992189L.27490235 .0390625V0H.024902344V.038085939L.07421875 .041992189C.080078128 .04264323 .08504232 .044921876 .08911133 .048828126 .093180339 .052734376 .095214847 .05777995 .095214847 .063964847V.4111328H.022949219V.44384767L.14697266 .4819336H.18798828V.3930664C.2163086 .425944 .2409668 .45100913 .2619629 .46826173 .28295899 .4855143 .3022461 .49414063 .31982423 .49414063 .33024089 .49414063 .34147135 .49251304 .35351563 .4892578 .3655599 .4860026 .37467448 .48258464 .38085938 .4790039V.3798828Z"/>
<path id="font_1_83" d="M.52490237 .24804688C.52490237 .19563802 .5148112 .14990235 .4946289 .110839847 .47444663 .071777347 .44547526 .041503908 .40771485 .020019532 .36995445-.0014648438 .32470704-.012207031 .27197267-.012207031 .2569987-.012207031 .2421875-.011230469 .22753906-.009277344 .21289063-.0073242189 .19807942-.0052083337 .18310547-.0029296876V-.15185547C.18310547-.15804036 .18522136-.16292317 .18945313-.1665039 .19368489-.17008464 .19889324-.17220052 .20507813-.17285156L.26416017-.17919922V-.21777344H.020996094V-.17919922L.068847659-.17285156C.082845058-.17122396 .08984375-.16422527 .08984375-.15185547V.4111328H.020996094V.44384767L.14404297 .4819336H.18310547V.4321289C.20589192 .44970704 .23046875 .46443687 .25683595 .47631837 .28320313 .48819987 .30891929 .49414063 .33398438 .49414063 .3684896 .49414063 .40014649 .4839681 .42895509 .46362306 .45776368 .44327799 .48095704 .41471354 .49853517 .3779297 .5161133 .34114585 .52490237 .29785157 .52490237 .24804688M.4248047 .23388672C.4248047 .26839195 .41951499 .29996745 .40893556 .32861329 .3983561 .35725913 .3827311 .3802897 .36206056 .39770509 .34138999 .41512046 .31575523 .42382813 .28515626 .42382813 .26822917 .42382813 .25065104 .4207357 .23242188 .41455079 .2141927 .40836589 .1977539 .40152995 .18310547 .39404298V.049804689C.21044922 .03938802 .23746746 .034179689 .26416017 .034179689 .300944 .034179689 .33113609 .043619794 .35473634 .0625 .37833659 .08138021 .3959147 .106038417 .4074707 .13647461 .4190267 .16691081 .4248047 .19938152 .4248047 .23388672Z"/>
<path id="font_1_79" d="M.27001954 0H.026855469V.0390625L.080078128 .041992189C.084635417 .042317708 .08943685 .044840497 .09448242 .049560548 .09952799 .054280599 .10205078 .05875651 .10205078 .06298828V.66503909H.025878907V.6982422L.1538086 .7368164H.19482422V.06298828C.19482422 .05875651 .19726563 .054280599 .20214844 .049560548 .20703125 .044840497 .21158855 .042317708 .21582031 .041992189L.27001954 .0390625V0Z"/>
<path id="font_1_70" d="M.4321289 .037109376C.40966798 .025065104 .38435874 .013834636 .35620118 .0034179688 .3280436-.0069986979 .29703776-.012207031 .2631836-.012207031 .21663411-.012207031 .17618816-.0013020834 .1418457 .020507813 .10750326 .042317708 .080973308 .072021488 .06225586 .10961914 .04353841 .1472168 .034179689 .1899414 .034179689 .23779297 .034179689 .29378257 .045328779 .3408203 .06762695 .37890626 .08992513 .4169922 .119384769 .4457194 .15600586 .4650879 .19262696 .4844564 .23225911 .49414063 .27490235 .49414063 .31884767 .49414063 .3557129 .4855957 .38549806 .46850587 .4152832 .45141603 .43017579 .42659507 .43017579 .39404298 .43017579 .37451173 .42407228 .3597819 .41186524 .34985353 .3996582 .33992515 .38606773 .33496095 .37109376 .33496095 .36002604 .33496095 .3504232 .33683268 .34228517 .34057618 .33414714 .34431968 .3269857 .34814454 .32080079 .35205079V.43896485C.3055013 .4477539 .2915039 .45214845 .2788086 .45214845 .2491862 .45214845 .22371419 .44344078 .20239258 .4260254 .18107097 .40861003 .16471355 .38476563 .15332031 .3544922 .14192708 .32421876 .13623047 .28971354 .13623047 .25097657 .13623047 .2141927 .14241536 .18058269 .15478516 .15014649 .16715496 .11971029 .18562825 .09554037 .21020508 .07763672 .2347819 .059733076 .26529948 .05078125 .3017578 .05078125 .32486979 .05078125 .34700523 .05452474 .36816407 .06201172 .3893229 .069498699 .41064454 .08024088 .4321289 .09423828V.037109376Z"/>
<path id="font_1_80" d="M.828125 0H.6040039V.0390625L.6459961 .041992189C.65999349 .04296875 .6669922 .05029297 .6669922 .063964847V.31884767C.6669922 .34977214 .6605632 .37451173 .6477051 .3930664 .634847 .4116211 .6116536 .42089845 .578125 .42089845 .56152346 .42089845 .5433757 .41829429 .52368167 .41308595 .5039876 .4078776 .48649089 .40120445 .4711914 .3930664V.063964847C.4711914 .05029297 .4781901 .04296875 .4921875 .041992189L.5341797 .0390625V0H.3149414V.0390625L.3569336 .041992189C.370931 .04296875 .3779297 .05029297 .3779297 .063964847V.3251953C.3779297 .35351563 .3712565 .37654624 .35791017 .3942871 .3445638 .41202799 .3219401 .42089845 .29003907 .42089845 .27115885 .42089845 .25146485 .4177246 .23095703 .41137696 .21044922 .4050293 .1944987 .39860026 .18310547 .39208985V.063964847C.18310547 .05029297 .19010417 .04296875 .20410156 .041992189L.24609375 .0390625V0H.020019532V.0390625L.068847659 .041992189C.082845058 .04296875 .08984375 .05029297 .08984375 .063964847V.4111328H.020996094V.44384767L.14208985 .4819336H.18310547V.4321289C.19807942 .4412435 .21492513 .45052085 .23364258 .45996095 .25236003 .46940104 .27148438 .47745768 .29101563 .48413087 .31054688 .49080406 .3289388 .49414063 .3461914 .49414063 .37516276 .49414063 .39860026 .48673503 .4165039 .47192384 .43440757 .45711265 .44759117 .44140626 .4560547 .4248047 .46940104 .43326823 .48632813 .44295249 .50683596 .45385743 .52734377 .46476237 .548584 .47420249 .57055667 .48217774 .5925293 .49015299 .6123047 .49414063 .6298828 .49414063 .66503909 .49414063 .69189456 .48608399 .7104492 .4699707 .7290039 .45385743 .7416992 .43400065 .74853518 .4104004 .7553711 .38680015 .75878909 .36360679 .75878909 .3408203V.063964847C.75878909 .05777995 .76082357 .052652997 .7648926 .048583986 .7689616 .044514974 .7739258 .042317708 .77978518 .041992189L.828125 .0390625V0Z"/>
<path id="font_1_87" d="M.3330078 .020996094C.31966148 .013834636 .30037437 .0065104167 .27514649-.0009765625 .24991863-.008463542 .22428386-.012207031 .19824219-.012207031 .1608073-.012207031 .13354492-.0033365887 .11645508 .014404297 .099365238 .032145185 .09082031 .060709638 .09082031 .100097659V.4321289H.026855469V.46484376L.095214847 .4970703 .14013672 .60302737H.18408203V.4819336H.3251953V.4321289H.18408203V.15283203C.18408203 .11311849 .1907552 .08504232 .20410156 .068603519 .21744792 .052164716 .23746746 .043945314 .26416017 .043945314 .27848307 .043945314 .2919922 .045898439 .3046875 .049804689 .3173828 .053710939 .3268229 .057454427 .3330078 .061035158V.020996094Z"/>
<path id="font_1_180" d="M.39208985 .70214846C.38264976 .69108077 .37141929 .6780599 .35839845 .66308596 .3453776 .648112 .33390299 .6312663 .3239746 .6125488 .31404624 .59383139 .30908204 .5732422 .30908204 .55078127 .30908204 .54752609 .30924479 .5440267 .3095703 .5402832 .30989585 .53653976 .3100586 .5333659 .3100586 .5307617H.37304688L.38061524 .5197754C.3856608 .5124512 .3881836 .5032552 .3881836 .4921875 .3881836 .4752604 .38264976 .46069337 .37158204 .44848634 .3605143 .4362793 .34602867 .43017579 .328125 .43017579 .30208335 .43017579 .28173829 .4388021 .26708985 .4560547 .2524414 .47330729 .24511719 .4962565 .24511719 .52490237 .24511719 .5489909 .24951172 .5710449 .25830079 .59106448 .26708985 .611084 .27775065 .62890627 .2902832 .64453127 .30281578 .66015627 .31510417 .67333987 .32714845 .68408206 .33919273 .6948242 .34847007 .703125 .35498048 .7089844L.39208985 .70214846M.18603516 .70214846C.16617839 .6822917 .14737956 .65966799 .12963867 .63427737 .11189779 .6088867 .103027347 .5807292 .103027347 .5498047 .103027347 .5465495 .1031901 .5432129 .103515628 .5397949 .10384115 .53637698 .104003909 .5333659 .104003909 .5307617H.16699219L.17456055 .5202637C.17960613 .51326498 .1821289 .50358077 .1821289 .49121095 .1821289 .47428385 .17667644 .45987956 .16577149 .44799806 .15486653 .43611656 .14029949 .43017579 .12207031 .43017579 .096354167 .43017579 .07609049 .43847657 .061279298 .45507813 .046468099 .4716797 .0390625 .49430339 .0390625 .5229492 .0390625 .5473633 .04345703 .56974288 .052246095 .5900879 .061035158 .6104329 .07169596 .6284993 .084228519 .6442871 .09676107 .6600749 .10904948 .67333987 .12109375 .68408206 .13313802 .6948242 .14241536 .703125 .14892578 .7089844L.18603516 .70214846Z"/>
<path id="font_1_75" d="M.55078127 0H.328125V.0390625L.36914063 .041992189C.375 .04264323 .38012696 .044921876 .38452149 .048828126 .38891603 .052734376 .39111329 .05777995 .39111329 .063964847V.32177735C.39111329 .3504232 .38427735 .37410484 .37060548 .39282228 .3569336 .4115397 .33072917 .42089845 .2919922 .42089845 .27441407 .42089845 .25545249 .4181315 .23510742 .41259767 .21476238 .4070638 .19742839 .40022788 .18310547 .39208985V.063964847C.18310547 .05029297 .18977864 .04296875 .203125 .041992189L.24609375 .0390625V0H.020996094V.0390625L.068847659 .041992189C.082845058 .04296875 .08984375 .05029297 .08984375 .063964847V.66503909H.015136719V.6982422L.1430664 .7368164H.18310547V.4321289C.19514974 .43961589 .21077474 .4481608 .22998047 .45776368 .2491862 .46736656 .2693685 .47583009 .29052735 .4831543 .3116862 .49047853 .33089195 .49414063 .34814454 .49414063 .386556 .49414063 .41878257 .48177085 .44482423 .45703126 .47086589 .43229167 .48388673 .39420573 .48388673 .34277345V.063964847C.48388673 .05777995 .48608399 .052734376 .49047853 .048828126 .49487306 .044921876 .5 .04264323 .5058594 .041992189L.55078127 .0390625V0Z"/>
<path id="font_1_78" d="M.5239258 0H.36376954V.0390625L.23876953 .22705078H.18310547V.063964847C.18310547 .05029297 .19010417 .04296875 .20410156 .041992189L.24707031 .0390625V0H.020019532V.0390625L.068847659 .041992189C.082845058 .04296875 .08984375 .05029297 .08984375 .063964847V.66503909H.014160156V.6982422L.14208985 .7368164H.18310547V.25585938H.203125L.35009767 .421875C.3527018 .42513023 .35310874 .42871095 .35131837 .4326172 .34952799 .43652345 .34635417 .4386393 .34179688 .43896485L.30078126 .4428711V.4819336H.4951172V.4428711L.43115235 .43603517 .29882813 .29492188 .4711914 .044921876 .5239258 .0390625V0Z"/>
<path id="font_1_73" d="M.38916017 .6767578C.38916017 .66341146 .38582359 .6529134 .3791504 .6452637 .3724772 .63761398 .36539714 .63216146 .35791017 .62890627 .3504232 .62565109 .3453776 .62369796 .34277345 .6230469L.25097657 .6879883C.23665364 .6805013 .2232259 .66536459 .21069336 .6425781 .19816081 .6197917 .19189453 .58496096 .19189453 .53808596V.4741211H.31591798V.42285157H.19189453V.063964847C.19189453 .05777995 .19392903 .052652997 .19799805 .048583986 .20206706 .044514974 .20703125 .042317708 .21289063 .041992189L.27197267 .0390625V0H.028808594V.0390625L.078125 .041992189C.083984378 .042317708 .08894857 .044514974 .09301758 .048583986 .097086589 .052652997 .099121097 .05777995 .099121097 .063964847V.42285157H.03515625V.4580078L.099121097 .47607423C.099121097 .50895187 .10164388 .5362142 .10668945 .5578613 .11173502 .5795085 .12044271 .60221359 .1328125 .62597659 .15234375 .663737 .17749024 .6916504 .20825196 .7097168 .23901367 .7277832 .27067057 .7368164 .30322267 .7368164 .33154298 .7368164 .35294596 .7308757 .36743165 .71899417 .38191734 .7071126 .38916017 .6930339 .38916017 .6767578Z"/>
<path id="font_1_76" d="M.21777344 .64697268C.21777344 .6300456 .21191406 .6154785 .20019531 .6032715 .18847656 .59106448 .17415364 .58496096 .15722656 .58496096 .14029949 .58496096 .12573242 .59106448 .11352539 .6032715 .10131836 .6154785 .095214847 .6300456 .095214847 .64697268 .095214847 .6642253 .10131836 .67871096 .11352539 .6904297 .12573242 .70214846 .14029949 .7080078 .15722656 .7080078 .17415364 .7080078 .18847656 .70214846 .20019531 .6904297 .21191406 .67871096 .21777344 .6642253 .21777344 .64697268M.26904298 0H.034179689V.0390625L.08300781 .041992189C.09700521 .04296875 .104003909 .05029297 .104003909 .063964847V.42089845H.03515625V.4560547L.15722656 .49414063H.19677735V.063964847C.19677735 .05777995 .19881185 .052652997 .20288086 .048583986 .20694988 .044514974 .21191406 .042317708 .21777344 .041992189L.26904298 .0390625V0Z"/>
<path id="font_1_181" d="M.4140625 .61621096C.4140625 .5917969 .40966798 .5694173 .4008789 .54907229 .39208985 .52872726 .38142906 .5106608 .36889649 .49487306 .35636393 .4790853 .34407554 .4658203 .33203126 .45507813 .31998698 .44433595 .31070964 .43603517 .30419923 .43017579L.26708985 .43798829C.28727214 .45817057 .3063151 .48079429 .32421876 .5058594 .3421224 .5309245 .35107423 .55891928 .35107423 .58984377 .35107423 .5934245 .3507487 .59676107 .35009767 .5998535 .34944663 .602946 .3491211 .60563156 .3491211 .60791018H.2861328L.27856446 .6191406C.2735189 .6266276 .2709961 .63655599 .2709961 .6489258 .2709961 .6661784 .27652995 .6805013 .28759767 .69189456 .29866538 .7032878 .31315104 .7089844 .3310547 .7089844 .3564453 .7089844 .3766276 .70060226 .39160157 .6838379 .40657554 .66707357 .4140625 .64453127 .4140625 .61621096M.20800781 .6152344C.20800781 .5911458 .20361328 .5690918 .19482422 .54907229 .18603516 .52905276 .17537435 .5111491 .1628418 .49536134 .15030925 .47957359 .13802083 .4662272 .12597656 .45532228 .11393229 .44441734 .104654949 .43603517 .09814453 .43017579L.061035158 .43798829C.07047526 .449056 .08170573 .46199546 .09472656 .47680665 .1077474 .49161784 .11922201 .5083008 .12915039 .52685549 .13907878 .54541018 .14404297 .5657552 .14404297 .5878906 .14404297 .5914714 .1438802 .5951335 .14355469 .59887698 .14322917 .6026204 .1430664 .60563156 .1430664 .60791018H.080078128L.072509769 .6196289C.067464198 .6274414 .064941409 .63688156 .064941409 .6479492 .064941409 .66520187 .07063802 .6796875 .08203125 .69140627 .09342448 .703125 .108072917 .7089844 .12597656 .7089844 .15201824 .7089844 .17220052 .70043948 .18652344 .6833496 .20084636 .66625979 .20800781 .6435547 .20800781 .6152344Z"/>
<path id="font_1_11" d="M.34277345-.14208985C.2906901-.13623047 .24650066-.12093099 .21020508-.096191409 .1739095-.07145182 .14469402-.039469404 .122558597-.00024414063 .10042318 .03898112 .0843099 .08317057 .07421875 .13232422 .0641276 .18147786 .05908203 .23339844 .05908203 .28808595 .05908203 .3424479 .0641276 .39420573 .07421875 .44335938 .0843099 .49251304 .10042318 .5366211 .122558597 .5756836 .14469402 .6147461 .1739095 .64664718 .21020508 .6713867 .24650066 .6961263 .2906901 .711263 .34277345 .7167969V.67285159C.27246095 .6614583 .22306316 .6222331 .19458008 .5551758 .166097 .4881185 .15185547 .39908854 .15185547 .28808595 .15185547 .2141927 .15804036 .1496582 .17041016 .09448242 .18277996 .03930664 .20288086-.004638672 .23071289-.037353517 .25854493-.07006836 .29589845-.09033203 .34277345-.09814453V-.14208985Z"/>
<path id="font_1_92" d="M.52001956 .4428711 .46777345 .43701173 .2758789-.030761719C.27164714-.041503908 .26505534-.056884767 .25610353-.0769043 .24715169-.09692383 .23657227-.11743164 .22436524-.13842774 .2121582-.15942383 .19905599-.17692058 .1850586-.19091797 .17301433-.20296224 .15974935-.21232097 .14526367-.21899414 .130778-.22566732 .11507162-.2290039 .09814453-.2290039 .07438151-.2290039 .056233724-.2232259 .043701173-.21166992 .03116862-.20011394 .024902344-.18684896 .024902344-.171875 .024902344-.14973958 .03564453-.12972005 .057128908-.111816409L.1508789-.15478516C.16194661-.14371746 .17301433-.12874349 .18408203-.10986328 .19514974-.09098307 .2051595-.07145182 .21411133-.05126953 .22306316-.03108724 .22998047-.013671875 .23486328 .0009765625L.064941409 .43701173 .009765625 .4428711V.4819336H.23095703V.4428711L.18310547 .4399414C.17757161 .43961589 .1730957 .43725587 .16967774 .43286134 .16625977 .4284668 .16569011 .4235026 .16796875 .41796876L.2841797 .123046878 .40283204 .41796876C.4051107 .4231771 .40478517 .4280599 .40185548 .4326172 .39892579 .43717448 .394694 .43961589 .38916017 .4399414L.34179688 .4428711V.4819336H.52001956V.4428711Z"/>
<path id="font_1_29" d="M.19580078 .4267578C.19580078 .40852867 .18912761 .39282228 .17578125 .37963868 .16243489 .36645509 .14648438 .35986329 .12792969 .35986329 .109375 .35986329 .09358724 .36645509 .080566409 .37963868 .06754557 .39282228 .061035158 .40852867 .061035158 .4267578 .061035158 .4453125 .06754557 .46118165 .080566409 .47436524 .09358724 .48754884 .109375 .49414063 .12792969 .49414063 .14648438 .49414063 .16243489 .48754884 .17578125 .47436524 .18912761 .46118165 .19580078 .4453125 .19580078 .4267578M.19580078 .05517578C.19580078 .036621095 .18912761 .020751954 .17578125 .0075683596 .16243489-.0056152346 .14648438-.012207031 .12792969-.012207031 .109375-.012207031 .09358724-.0056152346 .080566409 .0075683596 .06754557 .020751954 .061035158 .036621095 .061035158 .05517578 .061035158 .073404949 .06754557 .08911133 .080566409 .10229492 .09358724 .115478519 .109375 .12207031 .12792969 .12207031 .14648438 .12207031 .16243489 .115478519 .17578125 .10229492 .18912761 .08911133 .19580078 .073404949 .19580078 .05517578Z"/>
<path id="font_1_12" d="M.3178711 .28808595C.3178711 .23339844 .31282554 .18147786 .30273438 .13232422 .29264323 .08317057 .27652995 .03898112 .25439454-.00024414063 .23225911-.039469404 .203125-.07145182 .16699219-.096191409 .13085938-.12093099 .08658854-.13623047 .034179689-.14208985V-.09814453C.08105469-.09033203 .1184082-.07006836 .14624024-.037353517 .17407227-.004638672 .19401042 .03930664 .20605469 .09448242 .21809896 .1496582 .2241211 .2141927 .2241211 .28808595 .2241211 .36197917 .21809896 .42635093 .20605469 .48120118 .19401042 .53605148 .17407227 .579834 .14624024 .6125488 .1184082 .6452637 .08105469 .66536459 .034179689 .67285159V.7167969C.08658854 .7109375 .13085938 .695638 .16699219 .67089846 .203125 .6461589 .23225911 .6143392 .25439454 .57543948 .27652995 .53653976 .29264323 .49251304 .30273438 .44335938 .31282554 .39420573 .3178711 .3424479 .3178711 .28808595Z"/>
</defs>
<use data-text="." xlink:href="#font_1_17" transform="matrix(16.408476,0,0,-16.408476,.72834,89.203357)" fill="#343a40"/>
<use data-text="&#x0671;" xlink:href="#font_2_781" transform="matrix(16.408476,0,0,-16.408476,43.49727,89.203357)" fill="#343a40"/>
<use data-text="&#x0644;" xlink:href="#font_2_1262" transform="matrix(16.408476,0,0,-16.408476,38.77163,89.203357)" fill="#343a40"/>
<use data-text="&#x0631;" xlink:href="#font_2_1213" transform="matrix(16.408476,0,0,-16.408476,32.437955,89.203357)" fill="#343a40"/>
<use data-text="&#x0651;" xlink:href="#font_2_735" transform="matrix(16.408476,0,0,-16.408476,33.11385,90.17325)" fill="#343a40"/>
<use data-text="&#x062c;" xlink:href="#font_2_1198" transform="matrix(16.408476,0,0,-16.408476,22.721282,89.203357)" fill="#343a40"/>
<use data-text="&#x064f;" xlink:href="#font_2_730" transform="matrix(16.408476,0,0,-16.408476,24.829442,87.97725)" fill="#343a40"/>
<use data-text="&#x0644;" xlink:href="#font_2_1261" transform="matrix(16.408476,0,0,-16.408476,11.7303,89.203357)" fill="#343a40"/>
<use data-text="&#x0650;" xlink:href="#font_2_731" transform="matrix(16.408476,0,0,-16.408476,14.58144,92.63277)" fill="#343a40"/>
<use data-text="&#x0647;" xlink:href="#font_2_1276" transform="matrix(16.408476,0,0,-16.408476,78.78151,89.203357)" fill="#343a40"/>
<use data-text="&#x064e;" xlink:href="#font_2_728" transform="matrix(16.408476,0,0,-16.408476,81.51369,88.595798)" fill="#343a40"/>
<use data-text="&#x0640;" xlink:href="#font_2_713" transform="matrix(16.408476,0,0,-16.408476,74.25409,89.203357)" fill="#343a40"/>
<use data-text="&#x0670;" xlink:href="#font_2_780" transform="matrix(16.408476,0,0,-16.408476,75.79312,90.742389)" fill="#343a40"/>
<use data-text="&#x0630;" xlink:href="#font_2_1211" transform="matrix(16.408476,0,0,-16.408476,65.53047,89.203357)" fill="#343a40"/>
<use data-text="&#x064e;" xlink:href="#font_2_728" transform="matrix(16.408476,0,0,-16.408476,67.17198,86.079547)" fill="#343a40"/>
<use data-text="&#x0627;" xlink:href="#font_2_681" transform="matrix(16.408476,0,0,-16.408476,61.724077,89.203357)" fill="#343a40"/>
<use data-text="&#x0643;" xlink:href="#font_2_1258" transform="matrix(16.408476,0,0,-16.408476,129.52924,89.203357)" fill="#343a40"/>
<use data-text="&#x0650;" xlink:href="#font_2_731" transform="matrix(16.408476,0,0,-16.408476,129.9611,89.04414)" fill="#343a40"/>
<use data-text="&#x062a;" xlink:href="#font_2_1189" transform="matrix(16.408476,0,0,-16.408476,123.24867,89.203357)" fill="#343a40"/>
<use data-text="&#x064e;" xlink:href="#font_2_728" transform="matrix(16.408476,0,0,-16.408476,123.44814,88.48233)" fill="#343a40"/>
<use data-text="&#x0627;" xlink:href="#font_2_1173" transform="matrix(16.408476,0,0,-16.408476,118.95366,89.203357)" fill="#343a40"/>
<use data-text="&#x0628;" xlink:href="#font_2_682" transform="matrix(16.408476,0,0,-16.408476,104.612659,89.203357)" fill="#343a40"/>
<use data-text="&#x064f;" xlink:href="#font_2_730" transform="matrix(16.408476,0,0,-16.408476,109.355319,88.835529)" fill="#343a40"/>
<path transform="matrix(1.83,0,0,-1.83,.72834,89.203357)" stroke-width=".3985" stroke-linecap="butt" stroke-miterlimit="10" stroke-linejoin="miter" fill="none" stroke="#343a40" d="M30.50485 8.58932C30.87843 9.33653 31.7502 9.83467 32.99554 9.83467H38.61594C39.86128 9.83467 40.73303 10.3328 41.10663 11.08002 41.48022 10.3328 42.35197 9.83467 43.59732 9.83467H49.21771C50.46306 9.83467 51.33482 9.33653 51.7084 8.58932"/>
<use data-text="b" xlink:href="#font_1_69" transform="matrix(0,-10.9389719,-10.9389719,-0,79.90695,67.65144)" fill="#343a40"/>
<use data-text="a" xlink:href="#font_1_68" transform="matrix(0,-10.9389719,-10.9389719,-0,79.90695,61.580308)" fill="#343a40"/>
<use data-text="s" xlink:href="#font_1_86" transform="matrix(0,-10.9389719,-10.9389719,-0,79.90695,56.012376)" fill="#343a40"/>
<use data-text="e" xlink:href="#font_1_72" transform="matrix(0,-10.9389719,-10.9389719,-0,79.90695,51.65866)" fill="#343a40"/>
<use data-text="-" xlink:href="#font_1_16" transform="matrix(0,-10.9389719,-10.9389719,-0,79.90695,46.29857)" fill="#343a40"/>
<use data-text="n" xlink:href="#font_1_81" transform="matrix(0,-10.9389719,-10.9389719,-0,79.90695,42.798097)" fill="#343a40"/>
<use data-text="o" xlink:href="#font_1_82" transform="matrix(0,-10.9389719,-10.9389719,-0,79.90695,36.595697)" fill="#343a40"/>
<use data-text="u" xlink:href="#font_1_88" transform="matrix(0,-10.9389719,-10.9389719,-0,79.90695,30.644898)" fill="#343a40"/>
<use data-text="n" xlink:href="#font_1_81" transform="matrix(0,-10.9389719,-10.9389719,-0,79.90695,24.420624)" fill="#343a40"/>
<path transform="matrix(1.83,0,0,-1.83,.72834,89.203357)" stroke-width=".3985" stroke-linecap="butt" stroke-miterlimit="10" stroke-linejoin="miter" fill="none" stroke="#343a40" d="M53.93681 8.58932C54.3104 9.33653 55.18216 9.83467 56.4275 9.83467H63.07239C64.31773 9.83467 65.1895 10.3328 65.56308 11.08002 65.93668 10.3328 66.80843 9.83467 68.05377 9.83467H74.69867C75.94402 9.83467 76.81577 9.33653 77.18936 8.58932"/>
<use data-text="a" xlink:href="#font_1_68" transform="matrix(0,-10.9389719,-10.9389719,-0,124.66144,67.65144)" fill="#343a40"/>
<use data-text="n" xlink:href="#font_1_81" transform="matrix(0,-10.9389719,-10.9389719,-0,124.66144,62.08351)" fill="#343a40"/>
<use data-text="n" xlink:href="#font_1_81" transform="matrix(0,-10.9389719,-10.9389719,-0,124.66144,55.881105)" fill="#343a40"/>
<use data-text="e" xlink:href="#font_1_72" transform="matrix(0,-10.9389719,-10.9389719,-0,124.66144,49.67871)" fill="#343a40"/>
<use data-text="x" xlink:href="#font_1_91" transform="matrix(0,-10.9389719,-10.9389719,-0,124.66144,44.318605)" fill="#343a40"/>
<use data-text="e" xlink:href="#font_1_72" transform="matrix(0,-10.9389719,-10.9389719,-0,124.66144,38.892869)" fill="#343a40"/>
<use data-text="-" xlink:href="#font_1_16" transform="matrix(0,-10.9389719,-10.9389719,-0,124.66144,33.532777)" fill="#343a40"/>
<use data-text="n" xlink:href="#font_1_81" transform="matrix(0,-10.9389719,-10.9389719,-0,124.66144,30.032303)" fill="#343a40"/>
<use data-text="o" xlink:href="#font_1_82" transform="matrix(0,-10.9389719,-10.9389719,-0,124.66144,23.829895)" fill="#343a40"/>
<use data-text="u" xlink:href="#font_1_88" transform="matrix(0,-10.9389719,-10.9389719,-0,124.66144,17.879105)" fill="#343a40"/>
<use data-text="n" xlink:href="#font_1_81" transform="matrix(0,-10.9389719,-10.9389719,-0,124.66144,11.654831)" fill="#343a40"/>
<path transform="matrix(1.83,0,0,-1.83,.72834,89.203357)" stroke-width=".3985" stroke-linecap="butt" stroke-miterlimit="10" stroke-linejoin="miter" fill="none" stroke="#343a40" d="M-.19925-4.26807C.17433-5.01527 1.04608-5.51341 2.29143-5.51341H11.5479C12.79324-5.51341 13.66501-6.01154 14.03859-6.75876 14.41219-6.01154 15.28394-5.51341 16.52928-5.51341H25.78575C27.0311-5.51341 27.90286-5.01527 28.27644-4.26807"/>
<use data-text="r" xlink:href="#font_1_85" transform="matrix(0,-10.9389719,-10.9389719,-0,30.374344,162.45642)" fill="#343a40"/>
<use data-text="e" xlink:href="#font_1_72" transform="matrix(0,-10.9389719,-10.9389719,-0,30.374344,158.17929)" fill="#343a40"/>
<use data-text="p" xlink:href="#font_1_83" transform="matrix(0,-10.9389719,-10.9389719,-0,30.374344,152.81919)" fill="#343a40"/>
<use data-text="l" xlink:href="#font_1_79" transform="matrix(0,-10.9389719,-10.9389719,-0,30.374344,146.7043)" fill="#343a40"/>
<use data-text="a" xlink:href="#font_1_68" transform="matrix(0,-10.9389719,-10.9389719,-0,30.374344,143.45543)" fill="#343a40"/>
<use data-text="c" xlink:href="#font_1_70" transform="matrix(0,-10.9389719,-10.9389719,-0,30.374344,137.8875)" fill="#343a40"/>
<use data-text="e" xlink:href="#font_1_72" transform="matrix(0,-10.9389719,-10.9389719,-0,30.374344,132.78993)" fill="#343a40"/>
<use data-text="m" xlink:href="#font_1_80" transform="matrix(0,-10.9389719,-10.9389719,-0,30.374344,127.42983)" fill="#343a40"/>
<use data-text="e" xlink:href="#font_1_72" transform="matrix(0,-10.9389719,-10.9389719,-0,30.374344,118.13171)" fill="#343a40"/>
<use data-text="n" xlink:href="#font_1_81" transform="matrix(0,-10.9389719,-10.9389719,-0,30.374344,112.771617)" fill="#343a40"/>
<use data-text="t" xlink:href="#font_1_87" transform="matrix(0,-10.9389719,-10.9389719,-0,30.374344,106.569217)" fill="#343a40"/>
<path transform="matrix(1.83,0,0,-1.83,.72834,89.203357)" stroke-width=".3985" stroke-linecap="butt" stroke-miterlimit="10" stroke-linejoin="miter" fill="none" stroke="#343a40" d="M30.50485-4.26807C30.87843-5.01527 31.7502-5.51341 32.99554-5.51341H38.61594C39.86128-5.51341 40.73303-6.01154 41.10663-6.75876 41.48022-6.01154 42.35197-5.51341 43.59732-5.51341H49.21771C50.46306-5.51341 51.33482-5.01527 51.7084-4.26807"/>
<use data-text="r" xlink:href="#font_1_85" transform="matrix(0,-10.9389719,-10.9389719,-0,79.90695,143.2396)" fill="#343a40"/>
<use data-text="e" xlink:href="#font_1_72" transform="matrix(0,-10.9389719,-10.9389719,-0,79.90695,138.96247)" fill="#343a40"/>
<use data-text="p" xlink:href="#font_1_83" transform="matrix(0,-10.9389719,-10.9389719,-0,79.90695,133.60236)" fill="#343a40"/>
<use data-text="l" xlink:href="#font_1_79" transform="matrix(0,-10.9389719,-10.9389719,-0,79.90695,127.487468)" fill="#343a40"/>
<use data-text="a" xlink:href="#font_1_68" transform="matrix(0,-10.9389719,-10.9389719,-0,79.90695,124.238597)" fill="#343a40"/>
<use data-text="c" xlink:href="#font_1_70" transform="matrix(0,-10.9389719,-10.9389719,-0,79.90695,118.670658)" fill="#343a40"/>
<use data-text="e" xlink:href="#font_1_72" transform="matrix(0,-10.9389719,-10.9389719,-0,79.90695,113.5731)" fill="#343a40"/>
<use data-text="e" xlink:href="#font_1_72" transform="matrix(0,-10.9389719,-10.9389719,-0,79.90695,108.213)" fill="#343a40"/>
<use data-text="&#x201c;" xlink:href="#font_1_180" transform="matrix(16.408476,0,0,-16.408476,6.5623805,207.62633)" fill="#343a40"/>
<use data-text="t" xlink:href="#font_1_87" transform="matrix(16.408476,0,0,-16.408476,13.99542,207.62633)" fill="#343a40"/>
<use data-text="h" xlink:href="#font_1_75" transform="matrix(16.408476,0,0,-16.408476,19.508667,207.62633)" fill="#343a40"/>
<use data-text="e" xlink:href="#font_1_72" transform="matrix(16.408476,0,0,-16.408476,28.927134,207.62633)" fill="#343a40"/>
<use data-text="b" xlink:href="#font_1_69" transform="matrix(16.408476,0,0,-16.408476,41.75856,207.62633)" fill="#343a40"/>
<use data-text="o" xlink:href="#font_1_82" transform="matrix(16.408476,0,0,-16.408476,50.865266,207.62633)" fill="#343a40"/>
<use data-text="o" xlink:href="#font_1_82" transform="matrix(16.408476,0,0,-16.408476,59.79148,207.62633)" fill="#343a40"/>
<use data-text="k" xlink:href="#font_1_78" transform="matrix(16.408476,0,0,-16.408476,68.7177,207.62633)" fill="#343a40"/>
<use data-text="o" xlink:href="#font_1_82" transform="matrix(16.408476,0,0,-16.408476,82.287509,207.62633)" fill="#343a40"/>
<use data-text="f" xlink:href="#font_1_73" transform="matrix(16.408476,0,0,-16.408476,91.21372,207.62633)" fill="#343a40"/>
<use data-text="t" xlink:href="#font_1_87" transform="matrix(16.408476,0,0,-16.408476,101.37057,207.62633)" fill="#343a40"/>
<use data-text="h" xlink:href="#font_1_75" transform="matrix(16.408476,0,0,-16.408476,106.88382,207.62633)" fill="#343a40"/>
<use data-text="i" xlink:href="#font_1_76" transform="matrix(16.408476,0,0,-16.408476,116.302288,207.62633)" fill="#343a40"/>
<use data-text="s" xlink:href="#font_1_86" transform="matrix(16.408476,0,0,-16.408476,121.274059,207.62633)" fill="#343a40"/>
<use data-text="m" xlink:href="#font_1_80" transform="matrix(16.408476,0,0,-16.408476,132.5959,207.62633)" fill="#343a40"/>
<use data-text="a" xlink:href="#font_1_68" transform="matrix(16.408476,0,0,-16.408476,146.54309,207.62633)" fill="#343a40"/>
<use data-text="n" xlink:href="#font_1_81" transform="matrix(16.408476,0,0,-16.408476,154.89502,207.62633)" fill="#343a40"/>
<use data-text="&#x201d;" xlink:href="#font_1_181" transform="matrix(16.408476,0,0,-16.408476,163.5751,207.62633)" fill="#343a40"/>
<use data-text="(" xlink:href="#font_1_11" transform="matrix(16.408476,0,0,-16.408476,6.5623805,227.5898)" fill="#343a40"/>
<use data-text="l" xlink:href="#font_1_79" transform="matrix(16.408476,0,0,-16.408476,12.731968,227.5898)" fill="#343a40"/>
<use data-text="i" xlink:href="#font_1_76" transform="matrix(16.408476,0,0,-16.408476,17.605286,227.5898)" fill="#343a40"/>
<use data-text="t" xlink:href="#font_1_87" transform="matrix(16.408476,0,0,-16.408476,22.577055,227.5898)" fill="#343a40"/>
<use data-text="e" xlink:href="#font_1_72" transform="matrix(16.408476,0,0,-16.408476,28.155938,227.5898)" fill="#343a40"/>
<use data-text="r" xlink:href="#font_1_85" transform="matrix(16.408476,0,0,-16.408476,36.19609,227.5898)" fill="#343a40"/>
<use data-text="a" xlink:href="#font_1_68" transform="matrix(16.408476,0,0,-16.408476,42.611806,227.5898)" fill="#343a40"/>
<use data-text="l" xlink:href="#font_1_79" transform="matrix(16.408476,0,0,-16.408476,50.96372,227.5898)" fill="#343a40"/>
<use data-text="l" xlink:href="#font_1_79" transform="matrix(16.408476,0,0,-16.408476,55.837038,227.5898)" fill="#343a40"/>
<use data-text="y" xlink:href="#font_1_92" transform="matrix(16.408476,0,0,-16.408476,60.710355,227.5898)" fill="#343a40"/>
<use data-text=":" xlink:href="#font_1_29" transform="matrix(16.408476,0,0,-16.408476,69.406848,227.5898)" fill="#343a40"/>
<use data-text="&#x201c;" xlink:href="#font_1_180" transform="matrix(16.408476,0,0,-16.408476,80.40052,227.5898)" fill="#343a40"/>
<use data-text="t" xlink:href="#font_1_87" transform="matrix(16.408476,0,0,-16.408476,87.833568,227.5898)" fill="#343a40"/>
<use data-text="h" xlink:href="#font_1_75" transform="matrix(16.408476,0,0,-16.408476,93.34681,227.5898)" fill="#343a40"/>
<use data-text="e" xlink:href="#font_1_72" transform="matrix(16.408476,0,0,-16.408476,102.765277,227.5898)" fill="#343a40"/>
<use data-text="b" xlink:href="#font_1_69" transform="matrix(16.408476,0,0,-16.408476,115.59671,227.5898)" fill="#343a40"/>
<use data-text="o" xlink:href="#font_1_82" transform="matrix(16.408476,0,0,-16.408476,124.70341,227.5898)" fill="#343a40"/>
<use data-text="o" xlink:href="#font_1_82" transform="matrix(16.408476,0,0,-16.408476,133.62961,227.5898)" fill="#343a40"/>
<use data-text="k" xlink:href="#font_1_78" transform="matrix(16.408476,0,0,-16.408476,142.55582,227.5898)" fill="#343a40"/>
<use data-text="o" xlink:href="#font_1_82" transform="matrix(16.408476,0,0,-16.408476,156.12564,227.5898)" fill="#343a40"/>
<use data-text="f" xlink:href="#font_1_73" transform="matrix(16.408476,0,0,-16.408476,165.05184,227.5898)" fill="#343a40"/>
<use data-text="t" xlink:href="#font_1_87" transform="matrix(16.408476,0,0,-16.408476,175.2087,227.5898)" fill="#343a40"/>
<use data-text="h" xlink:href="#font_1_75" transform="matrix(16.408476,0,0,-16.408476,180.72194,227.5898)" fill="#343a40"/>
<use data-text="i" xlink:href="#font_1_76" transform="matrix(16.408476,0,0,-16.408476,190.14041,227.5898)" fill="#343a40"/>
<use data-text="s" xlink:href="#font_1_86" transform="matrix(16.408476,0,0,-16.408476,195.11219,227.5898)" fill="#343a40"/>
<use data-text="-" xlink:href="#font_1_16" transform="matrix(16.408476,0,0,-16.408476,201.64275,227.5898)" fill="#343a40"/>
<use data-text="o" xlink:href="#font_1_82" transform="matrix(16.408476,0,0,-16.408476,206.89347,227.5898)" fill="#343a40"/>
<use data-text="n" xlink:href="#font_1_81" transform="matrix(16.408476,0,0,-16.408476,215.81967,227.5898)" fill="#343a40"/>
<use data-text="e" xlink:href="#font_1_72" transform="matrix(16.408476,0,0,-16.408476,225.12328,227.5898)" fill="#343a40"/>
<use data-text=":" xlink:href="#font_1_29" transform="matrix(16.408476,0,0,-16.408476,233.16342,227.5898)" fill="#343a40"/>
<use data-text="t" xlink:href="#font_1_87" transform="matrix(16.408476,0,0,-16.408476,244.15709,227.5898)" fill="#343a40"/>
<use data-text="h" xlink:href="#font_1_75" transform="matrix(16.408476,0,0,-16.408476,249.67035,227.5898)" fill="#343a40"/>
<use data-text="e" xlink:href="#font_1_72" transform="matrix(16.408476,0,0,-16.408476,259.0888,227.5898)" fill="#343a40"/>
<use data-text="m" xlink:href="#font_1_80" transform="matrix(16.408476,0,0,-16.408476,271.93666,227.5898)" fill="#343a40"/>
<use data-text="a" xlink:href="#font_1_68" transform="matrix(16.408476,0,0,-16.408476,285.88389,227.5898)" fill="#343a40"/>
<use data-text="n" xlink:href="#font_1_81" transform="matrix(16.408476,0,0,-16.408476,294.23579,227.5898)" fill="#343a40"/>
<use data-text="&#x201d;" xlink:href="#font_1_181" transform="matrix(16.408476,0,0,-16.408476,302.89949,227.5898)" fill="#343a40"/>
<use data-text=")" xlink:href="#font_1_12" transform="matrix(16.408476,0,0,-16.408476,310.3325,227.5898)" fill="#343a40"/>
</svg>
