<svg xmlns="http://www.w3.org/2000/svg" xmlns:xlink="http://www.w3.org/1999/xlink" xmlns:inkscape="http://www.inkscape.org/namespaces/inkscape" version="1.1" width="238.37221" height="161.4789" viewBox="0 0 238.37221 161.4789">
<defs>
<path id="font_1_17" d="M.19580078 .05517578C.19580078 .036621095 .18912761 .020751954 .17578125 .0075683596 .16243489-.0056152346 .14648438-.012207031 .12792969-.012207031 .109375-.012207031 .09358724-.0056152346 .080566409 .0075683596 .06754557 .020751954 .061035158 .036621095 .061035158 .05517578 .061035158 .073404949 .06754557 .08911133 .080566409 .10229492 .09358724 .115478519 .109375 .12207031 .12792969 .12207031 .14648438 .12207031 .16243489 .115478519 .17578125 .10229492 .18912761 .08911133 .19580078 .073404949 .19580078 .05517578Z"/>
<path id="font_2_691" d="M.022949219-.2626953-.005859375-.1850586C.07356771-.16780599 .1295573-.13761394 .16210938-.09448242 .19466146-.05135091 .2109375-.00032552085 .2109375 .05859375 .2109375 .08626302 .20792644 .11531576 .2019043 .14575196 .19588216 .17618816 .1875 .20719402 .17675781 .23876953L.2578125 .26611329C.28125 .19938152 .29296876 .13509114 .29296876 .07324219 .29296876 .018880209 .28344728-.03149414 .2644043-.07788086 .24536133-.12426758 .21590169-.1636556 .17602539-.19604492 .1361491-.22843425 .085123699-.25065104 .022949219-.2626953Z"/>
<path id="font_2_728" d="M.03125 .5571289V.6035156L.23925781 .68847659V.64208987L.03125 .5571289Z"/>
<path id="font_2_1198" d="M.3251953-.07470703 .3959961-.14550781 .3251953-.2163086 .25439454-.14550781 .3251953-.07470703M-.009765625 .08886719H.07324219C.111328128 .08886719 .14632161 .092290248 .17822266 .09913635 .2101237 .10599264 .24129232 .11545309 .27172853 .1275177 .3021647 .13959249 .33406578 .15386963 .36743165 .17034912 .40079753 .18682862 .43815104 .20452881 .4794922 .2234497 .45638023 .2319336 .43245445 .2411499 .40771485 .25109864 .38297526 .26104737 .3594564 .27042643 .3371582 .27923585 .31486003 .28804527 .29541017 .29530335 .2788086 .30101014 .26220704 .30671693 .25048829 .3095703 .24365235 .3095703 .22379558 .3095703 .20629883 .30377708 .19116211 .29219056 .17602539 .28061424 .16210938 .2666677 .14941406 .25035096L.13623047 .23371887 .061523439 .27043153 .068847659 .28215028C.09033203 .31700135 .11531576 .34493003 .14379883 .36593629 .1722819 .38695274 .20572917 .39746095 .24414063 .39746095 .26009117 .39746095 .27937828 .39335633 .30200196 .3851471 .32462565 .37693788 .34928385 .36667887 .37597657 .35437013 .40266929 .34206138 .43033854 .32958476 .45898438 .3169403 .48763023 .30430604 .51627609 .29364015 .5449219 .28494264 .5735677 .27624513 .60091146 .27189637 .6269531 .27189637V.18673706C.6061198 .18445842 .5795085 .17687989 .54711917 .16400147 .5147298 .15113323 .47265626 .13101197 .42089845 .103637699 .37923179 .08147176 .34057618 .0626475 .30493165 .047164918 .2692871 .031692506 .23299153 .019963583 .19604492 .011978149 .15909831 .0039927165 .11767578 0 .071777347 0H-.009765625V.08886719Z"/>
<path id="font_2_730" d="M.2241211 .52246096C.21728516 .52246096 .21142578 .52275088 .20654297 .5233307 .20166016 .5239207 .19596355 .52460739 .18945313 .5253906 .15625 .47916667 .09814453 .45377604 .015136719 .44921876L.0087890629 .4868164C.041341146 .4897461 .07014974 .49519859 .095214847 .5031738 .120279949 .5111491 .13867188 .5213216 .15039063 .5336914 .12760417 .53531906 .10660807 .54280599 .087402347 .55615237 .06819662 .5694987 .05859375 .59016928 .05859375 .61816409 .05859375 .63997396 .06624349 .65877279 .08154297 .67456057 .096842449 .6903483 .11604818 .6982422 .13916016 .6982422 .16227214 .6982422 .18147786 .6908366 .19677735 .6760254 .21207683 .6612142 .21972656 .64176437 .21972656 .6176758 .21972656 .5994466 .21533203 .57942709 .20654297 .5576172 .21110027 .5569661 .21826172 .55615237 .22802735 .5551758L.2241211 .52246096M.16748047 .5654297C.1710612 .5735677 .17415364 .5822754 .17675781 .59155276 .17936199 .6008301 .18066406 .609375 .18066406 .6171875 .18066406 .6295573 .17683919 .63948568 .16918946 .64697268 .16153972 .65445968 .15218099 .6582031 .14111328 .6582031 .12841797 .6582031 .11808268 .6538086 .11010742 .64501956 .102132167 .63623049 .09814453 .6266276 .09814453 .61621096 .09814453 .5996094 .10506185 .5880534 .118896488 .58154299 .13273113 .57503256 .14892578 .56966146 .16748047 .5654297Z"/>
<path id="font_2_1261" d="M.30664063-.2421875C.24609375-.2421875 .19677735-.23135884 .1586914-.20970154 .12060547-.1880544 .09261068-.15785726 .07470703-.11911011 .056803388-.08036295 .047851564-.03543091 .047851564 .015686036 .047851564 .050201417 .051432294 .08561198 .05859375 .121917728 .06575521 .15822347 .075520839 .19363404 .087890628 .22814942L.16552735 .1968689C.15608724 .16691081 .14811199 .13613892 .14160156 .10455322 .13509114 .0729777 .13183594 .042373659 .13183594 .012741089 .13183594-.04001363 .14526367-.08103943 .17211914-.1103363 .19897461-.13964336 .24381511-.15429688 .30664063-.15429688 .36490885-.15429688 .4087728-.13833618 .43823243-.106414798 .46769206-.07449341 .48242188-.0230306 .48242188 .047973634V.67285159H.5649414V.19979859C.5649414 .16330974 .571696 .13569641 .5852051 .11695862 .5987142 .098230998 .6251628 .08886719 .6645508 .08886719H.6791992V0H.66552737C.63688156 0 .6163737 .0028483074 .6040039 .008544922 .5916341 .014241536 .5784505 .023763022 .5644531 .037109376 .5644531-.055989583 .54248049-.1258138 .49853517-.17236328 .45458985-.21891277 .390625-.2421875 .30664063-.2421875Z"/>
<path id="font_2_1276" d="M.2620697 .39648438 .30065919 .46875C.41739909 .41178385 .50438436 .36092124 .561615 .3161621 .61884567 .27140299 .64746096 .2257487 .64746096 .17919922 .64746096 .12158203 .62964889 .078125 .59402468 .048828126 .55840048 .01953125 .5106557 .0048828127 .4507904 .0048828127 .42834983 .0048828127 .4044393 .0066731774 .37905885 .010253906 .35368858 .013834636 .32961528 .018310547 .306839 .02368164 .2840627 .029052735 .26486717 .03434245 .24925232 .03955078 .22091167 .029134116 .18767803 .01993815 .14955139 .011962891 .11143494 .0039876305 .07462057 0 .039108278 0H-.009277344V.08886719H.032714845C.05419922 .08886719 .073160808 .08935547 .08959961 .09033203 .106038417 .091308597 .12402344 .092936199 .14355469 .095214847 .12109375 .11344401 .104899089 .13338216 .0949707 .1550293 .08504232 .17667644 .080078128 .19905599 .080078128 .22216797 .080078128 .25602214 .08806356 .28515626 .104034427 .3095703 .120015468 .33398438 .14120992 .3527832 .1676178 .3659668 .19403585 .3791504 .22289531 .3857422 .25419618 .3857422 .2682139 .3857422 .28223167 .3839518 .2962494 .3803711 .28518168 .38557945 .27378846 .39095054 .2620697 .39648438M.35058595 .09326172C.36490885 .09163412 .38053385 .09008789 .39746095 .08862305 .41438804 .0871582 .42933656 .08642578 .44230653 .08642578 .4815623 .08642578 .51148989 .09383138 .53208926 .10864258 .5526886 .12345377 .5629883 .14648438 .5629883 .17773438 .5629883 .19368489 .55389407 .21101888 .53570559 .22973633 .5175273 .24845378 .49325563 .26782228 .46289063 .2878418 .43252564 .30786134 .39899699 .32763673 .3623047 .34716798 .38020835 .33284507 .39461265 .31559245 .40551759 .29541017 .41642253 .27522788 .421875 .25390626 .421875 .23144531 .421875 .20084636 .41577149 .17472331 .40356446 .15307617 .39135743 .13142903 .3736979 .11149088 .35058595 .09326172M.1640625 .22314453C.1640625 .2039388 .17213948 .18481446 .18829346 .16577149 .2044576 .14672852 .22787984 .13134766 .25856019 .119628909 .31730653 .14339192 .3466797 .17757161 .3466797 .22216797 .3466797 .25048829 .33810935 .27205406 .32096864 .28686524 .3038381 .30167643 .28319804 .30908204 .25904847 .30908204 .23097229 .30908204 .2081197 .30126954 .19049073 .28564454 .1728719 .27001954 .1640625 .2491862 .1640625 .22314453Z"/>
<path id="font_2_713" d="M-.009765625 .08886719H.28564454V0H-.009765625V.08886719Z"/>
<path id="font_2_780" d="M.03125 .5419922V.7192383H.07470703V.5419922H.03125Z"/>
<path id="font_2_1211" d="M.24609375 .6933594 .31689454 .6225586 .24609375 .5517578 .17529297 .6225586 .24609375 .6933594M.32910157 .17773438C.32910157 .18619792 .32722984 .19718425 .32348634 .21069336 .31974284 .22420247 .31526695 .2368164 .3100586 .24853516L.22363281 .44433595 .2998047 .47998048 .41064454 .21923828C.4256185 .18408203 .4387207 .1570638 .44995118 .1381836 .46118165 .11930338 .47224937 .10636393 .4831543 .099365238 .49405924 .09236654 .50651046 .08886719 .5205078 .08886719H.5410156V0H.5205078C.49479167 0 .47387696 .003092448 .45776368 .009277344 .4416504 .015462239 .42773438 .024739584 .41601563 .037109376 .40429688 .049479169 .39241538 .065104167 .3803711 .083984378 .35758464 .055338544 .3285319 .034261068 .2932129 .020751954 .2578939 .0072428386 .21386719 .00048828127 .16113281 .00048828127 .13834636 .00048828127 .11783854 .001546224 .099609378 .0036621094 .08138021 .0057779948 .0641276 .0087890629 .047851564 .0126953129V.10107422C.08528646 .092285159 .12060547 .087890628 .1538086 .087890628 .27067057 .087890628 .32910157 .11783854 .32910157 .17773438Z"/>
<path id="font_2_681" d="M.15673828 .67285159V.0009765625H.07421875V.67285159H.15673828Z"/>
<path id="font_1_86" d="M.3491211 .35302735H.296875L.2890625 .42285157C.28190104 .4283854 .27132163 .43359376 .25732423 .43847657 .24332683 .44335938 .22851563 .44580079 .21289063 .44580079 .18554688 .44580079 .16520183 .43953453 .15185547 .42700196 .13850911 .4144694 .13183594 .3984375 .13183594 .37890626 .13183594 .36393229 .1352539 .35123698 .14208985 .3408203 .14892578 .33040367 .16048177 .3202311 .17675781 .31030274 .19303386 .30037437 .21516927 .28889976 .24316406 .2758789 .27799479 .25992839 .30680339 .24226888 .32958985 .22290039 .3523763 .2035319 .36376954 .17757161 .36376954 .14501953 .36376954 .09586588 .34684245 .057373048 .31298829 .029541016 .27913413 .0017089844 .23242188-.012207031 .17285156-.012207031 .14225261-.012207031 .11401367-.009033203 .088134769-.0026855469 .06225586 .0036621094 .044270833 .008951823 .034179689 .013183594V.1459961H.08496094L.09716797 .061035158C.10725912 .05452474 .11971029 .048258466 .13452149 .042236329 .14933269 .03621419 .1665039 .033203126 .18603516 .033203126 .21468099 .033203126 .2368164 .041178388 .2524414 .057128908 .2680664 .07307943 .2758789 .09098307 .2758789 .110839847 .2758789 .13688152 .2652181 .15730794 .24389649 .17211914 .22257488 .18693035 .19254558 .20361328 .1538086 .22216797 .11735026 .2397461 .08943685 .2578125 .07006836 .2763672 .05069987 .29492188 .041015626 .3191732 .041015626 .3491211 .041015626 .39371745 .056640626 .42903648 .087890628 .45507813 .119140628 .48111979 .16357422 .49414063 .2211914 .49414063 .25048829 .49414063 .27661134 .49145509 .29956056 .48608399 .32250978 .4807129 .33902995 .4757487 .3491211 .4711914V.35302735Z"/>
<path id="font_1_88" d="M.546875 0H.3881836V.057128908C.37679038 .048339845 .3623047 .03857422 .34472657 .027832032 .32714845 .017089844 .30826823 .0077311198 .28808595-.00024414063 .26790367-.008219401 .24788411-.012207031 .22802735-.012207031 .1850586-.012207031 .15128581 .0007324219 .12670899 .026611329 .102132167 .052490236 .08984375 .09358724 .08984375 .14990235V.42089845H.020019532V.45507813L.1430664 .49414063H.18310547V.16894531C.18310547 .13346355 .19034831 .10579427 .20483399 .0859375 .21931966 .06608073 .24430339 .056152345 .27978517 .056152345 .30029298 .056152345 .32047526 .05965169 .34033204 .06665039 .3601888 .073649089 .3761393 .080078128 .3881836 .0859375V.42089845H.3178711V.45507813L.4399414 .49414063H.48095704V.063964847C.48095704 .05777995 .4831543 .052734376 .48754884 .048828126 .49194337 .044921876 .4970703 .04264323 .5029297 .041992189L.546875 .0390625V0Z"/>
<path id="font_1_69" d="M.5209961 .26416017C.5209961 .21402996 .5110677 .16902669 .49121095 .12915039 .47135417 .089274089 .44026695 .05777995 .39794923 .03466797 .3556315 .011555989 .300944 0 .23388672 0H.08984375V.66503909H.014160156V.6982422L.1430664 .7368164H.18310547V.45703126C.1944987 .4625651 .212972 .47013346 .23852539 .47973634 .26407878 .4893392 .2915039 .49414063 .32080079 .49414063 .3647461 .49414063 .40152995 .4835612 .43115235 .46240235 .46077476 .4412435 .4831543 .41316734 .49829103 .37817384 .51342776 .34318034 .5209961 .30517579 .5209961 .26416017M.4189453 .24414063C.4189453 .30729167 .40559898 .35489909 .37890626 .3869629 .35221354 .4190267 .31461589 .4350586 .26611329 .4350586 .25504557 .4350586 .2409668 .43326823 .22387696 .4296875 .20678711 .42610679 .19319661 .42252604 .18310547 .4189453V.047851564C.19124349 .047526044 .19938152 .047281904 .20751953 .04711914 .21565755 .04695638 .22379558 .046875 .2319336 .046875 .29117839 .046875 .3371582 .061523439 .36987306 .09082031 .4025879 .12011719 .4189453 .17122396 .4189453 .24414063Z"/>
<path id="font_1_77" d="M.21289063 .64697268C.21289063 .6300456 .20703125 .6154785 .1953125 .6032715 .18359375 .59106448 .16910808 .58496096 .15185547 .58496096 .13492839 .58496096 .12036133 .59106448 .1081543 .6032715 .095947269 .6154785 .08984375 .6300456 .08984375 .64697268 .08984375 .6642253 .095947269 .67871096 .1081543 .6904297 .12036133 .70214846 .13492839 .7080078 .15185547 .7080078 .16910808 .7080078 .18359375 .70214846 .1953125 .6904297 .20703125 .67871096 .21289063 .6642253 .21289063 .64697268M.20214844 .063964847C.20214844 .044108076 .20125325 .021972657 .19946289-.0024414063 .19767253-.026855469 .19401042-.05078125 .18847656-.07421875 .1829427-.09765625 .17447917-.11832682 .16308594-.13623047 .14257813-.16780599 .11767578-.19116211 .088378909-.20629883 .05908203-.22143555 .028645834-.2290039-.0029296876-.2290039-.0234375-.2290039-.041259767-.224528-.056396486-.21557617-.0715332-.20662435-.07910156-.19270833-.07910156-.17382813-.07910156-.15690105-.07446289-.1438802-.06518555-.13476563-.055908204-.12565105-.046223958-.11946615-.036132814-.11621094L.061035158-.18310547C.079589847-.1726888 .09220377-.15266927 .09887695-.123046878 .10555013-.09342448 .10888672-.05940755 .10888672-.020996094V.42285157H.038085939V.4560547L.16113281 .49414063H.20214844V.063964847Z"/>
<path id="font_1_72" d="M.26611329-.012207031C.2257487-.012207031 .1879069-.0031738282 .15258789 .014892578 .11726888 .032958986 .08870443 .060384115 .06689453 .09716797 .045084638 .13395183 .034179689 .18017578 .034179689 .23583985 .034179689 .2879232 .044270833 .33333335 .064453128 .3720703 .084635417 .41080729 .112467449 .44083659 .14794922 .4621582 .18343099 .48347984 .22379558 .49414063 .26904298 .49414063 .33121745 .49414063 .3779297 .47485353 .4091797 .4362793 .4404297 .39770509 .4560547 .3486328 .4560547 .2890625 .4560547 .28580729 .4560547 .28149415 .4560547 .27612306 .4560547 .27075196 .45572917 .26578776 .45507813 .26123048H.13085938C.13085938 .23583985 .13354492 .2105306 .13891602 .18530274 .14428711 .16007488 .15332031 .13720703 .16601563 .11669922 .17871094 .096191409 .19580078 .0797526 .21728516 .06738281 .23876953 .05501302 .265625 .048828126 .29785157 .048828126 .3264974 .048828126 .3544108 .055419923 .3815918 .068603519 .4087728 .08178711 .43359376 .09586588 .4560547 .110839847V.049804689C.4280599 .032552083 .39786784 .017903647 .36547853 .005859375 .3330892-.006184896 .29996745-.012207031 .26611329-.012207031M.13623047 .30615235H.35595704V.328125C.35595704 .3610026 .34806315 .38867188 .3322754 .4111328 .31648765 .43359376 .2919922 .44482423 .25878907 .44482423 .22591146 .44482423 .19791667 .43245445 .17480469 .40771485 .1516927 .38297526 .13883464 .3491211 .13623047 .30615235Z"/>
<path id="font_1_70" d="M.4321289 .037109376C.40966798 .025065104 .38435874 .013834636 .35620118 .0034179688 .3280436-.0069986979 .29703776-.012207031 .2631836-.012207031 .21663411-.012207031 .17618816-.0013020834 .1418457 .020507813 .10750326 .042317708 .080973308 .072021488 .06225586 .10961914 .04353841 .1472168 .034179689 .1899414 .034179689 .23779297 .034179689 .29378257 .045328779 .3408203 .06762695 .37890626 .08992513 .4169922 .119384769 .4457194 .15600586 .4650879 .19262696 .4844564 .23225911 .49414063 .27490235 .49414063 .31884767 .49414063 .3557129 .4855957 .38549806 .46850587 .4152832 .45141603 .43017579 .42659507 .43017579 .39404298 .43017579 .37451173 .42407228 .3597819 .41186524 .34985353 .3996582 .33992515 .38606773 .33496095 .37109376 .33496095 .36002604 .33496095 .3504232 .33683268 .34228517 .34057618 .33414714 .34431968 .3269857 .34814454 .32080079 .35205079V.43896485C.3055013 .4477539 .2915039 .45214845 .2788086 .45214845 .2491862 .45214845 .22371419 .44344078 .20239258 .4260254 .18107097 .40861003 .16471355 .38476563 .15332031 .3544922 .14192708 .32421876 .13623047 .28971354 .13623047 .25097657 .13623047 .2141927 .14241536 .18058269 .15478516 .15014649 .16715496 .11971029 .18562825 .09554037 .21020508 .07763672 .2347819 .059733076 .26529948 .05078125 .3017578 .05078125 .32486979 .05078125 .34700523 .05452474 .36816407 .06201172 .3893229 .069498699 .41064454 .08024088 .4321289 .09423828V.037109376Z"/>
<path id="font_1_87" d="M.3330078 .020996094C.31966148 .013834636 .30037437 .0065104167 .27514649-.0009765625 .24991863-.008463542 .22428386-.012207031 .19824219-.012207031 .1608073-.012207031 .13354492-.0033365887 .11645508 .014404297 .099365238 .032145185 .09082031 .060709638 .09082031 .100097659V.4321289H.026855469V.46484376L.095214847 .4970703 .14013672 .60302737H.18408203V.4819336H.3251953V.4321289H.18408203V.15283203C.18408203 .11311849 .1907552 .08504232 .20410156 .068603519 .21744792 .052164716 .23746746 .043945314 .26416017 .043945314 .27848307 .043945314 .2919922 .045898439 .3046875 .049804689 .3173828 .053710939 .3268229 .057454427 .3330078 .061035158V.020996094Z"/>
<path id="font_1_76" d="M.21777344 .64697268C.21777344 .6300456 .21191406 .6154785 .20019531 .6032715 .18847656 .59106448 .17415364 .58496096 .15722656 .58496096 .14029949 .58496096 .12573242 .59106448 .11352539 .6032715 .10131836 .6154785 .095214847 .6300456 .095214847 .64697268 .095214847 .6642253 .10131836 .67871096 .11352539 .6904297 .12573242 .70214846 .14029949 .7080078 .15722656 .7080078 .17415364 .7080078 .18847656 .70214846 .20019531 .6904297 .21191406 .67871096 .21777344 .6642253 .21777344 .64697268M.26904298 0H.034179689V.0390625L.08300781 .041992189C.09700521 .04296875 .104003909 .05029297 .104003909 .063964847V.42089845H.03515625V.4560547L.15722656 .49414063H.19677735V.063964847C.19677735 .05777995 .19881185 .052652997 .20288086 .048583986 .20694988 .044514974 .21191406 .042317708 .21777344 .041992189L.26904298 .0390625V0Z"/>
<path id="font_1_81" d="M.546875 0H.32617188V.0390625L.36816407 .041992189C.37402345 .04264323 .37898765 .044921876 .38305665 .048828126 .38712565 .052734376 .38916017 .05777995 .38916017 .063964847V.32421876C.38916017 .35579429 .38183595 .37980143 .3671875 .39624024 .35253907 .41267906 .32779948 .42089845 .29296876 .42089845 .27408854 .42089845 .2552897 .4182129 .23657227 .4128418 .21785482 .4074707 .20003255 .40055339 .18310547 .39208985V.063964847C.18310547 .05029297 .19010417 .04296875 .20410156 .041992189L.24609375 .0390625V0H.020019532V.0390625L.068847659 .041992189C.082845058 .04296875 .08984375 .05029297 .08984375 .063964847V.4111328H.020019532V.44384767L.14208985 .4819336H.18310547V.4321289C.21110027 .44807945 .23982747 .46240235 .2692871 .47509767 .29874674 .48779298 .32503257 .49414063 .34814454 .49414063 .3917643 .49414063 .42496745 .48055015 .4477539 .45336915 .47054038 .42618815 .4819336 .38834635 .4819336 .33984376V.063964847C.4819336 .05777995 .4839681 .052734376 .4880371 .048828126 .4921061 .044921876 .4970703 .04264323 .5029297 .041992189L.546875 .0390625V0Z"/>
<path id="font_1_73" d="M.38916017 .6767578C.38916017 .66341146 .38582359 .6529134 .3791504 .6452637 .3724772 .63761398 .36539714 .63216146 .35791017 .62890627 .3504232 .62565109 .3453776 .62369796 .34277345 .6230469L.25097657 .6879883C.23665364 .6805013 .2232259 .66536459 .21069336 .6425781 .19816081 .6197917 .19189453 .58496096 .19189453 .53808596V.4741211H.31591798V.42285157H.19189453V.063964847C.19189453 .05777995 .19392903 .052652997 .19799805 .048583986 .20206706 .044514974 .20703125 .042317708 .21289063 .041992189L.27197267 .0390625V0H.028808594V.0390625L.078125 .041992189C.083984378 .042317708 .08894857 .044514974 .09301758 .048583986 .097086589 .052652997 .099121097 .05777995 .099121097 .063964847V.42285157H.03515625V.4580078L.099121097 .47607423C.099121097 .50895187 .10164388 .5362142 .10668945 .5578613 .11173502 .5795085 .12044271 .60221359 .1328125 .62597659 .15234375 .663737 .17749024 .6916504 .20825196 .7097168 .23901367 .7277832 .27067057 .7368164 .30322267 .7368164 .33154298 .7368164 .35294596 .7308757 .36743165 .71899417 .38191734 .7071126 .38916017 .6930339 .38916017 .6767578Z"/>
<path id="font_1_82" d="M.5097656 .24023438C.5097656 .19303386 .5 .15030925 .48046876 .11206055 .4609375 .07381185 .4333496 .04353841 .39770509 .021240235 .36206056-.0010579428 .31982423-.012207031 .2709961-.012207031 .22249349-.012207031 .1805013-.0011393229 .14501953 .020996094 .10953776 .04313151 .08219401 .07324219 .06298828 .111328128 .04378255 .14941406 .034179689 .19238281 .034179689 .24023438 .034179689 .2877604 .043863935 .33072917 .06323242 .36914063 .082600917 .4075521 .11027018 .43798829 .14624024 .46044923 .18221028 .48291017 .22477214 .49414063 .27392579 .49414063 .32373048 .49414063 .36621095 .4827474 .4013672 .45996095 .43652345 .43717448 .4633789 .40657554 .4819336 .36816407 .5004883 .3297526 .5097656 .28710938 .5097656 .24023438M.40576173 .24121094C.40576173 .27766929 .4009603 .3116862 .39135743 .34326173 .38175456 .37483726 .3671061 .40039063 .3474121 .41992188 .3277181 .43945313 .30289714 .44921876 .27294923 .44921876 .24202474 .44921876 .2167155 .43945313 .19702149 .41992188 .17732747 .40039063 .16276042 .37483726 .15332031 .34326173 .1438802 .3116862 .13916016 .27766929 .13916016 .24121094 .13916016 .20507813 .1439616 .17114258 .15356446 .1394043 .16316732 .107666019 .17781575 .08203125 .19750977 .0625 .21720378 .04296875 .24202474 .033203126 .27197267 .033203126 .30257163 .033203126 .3277181 .04296875 .3474121 .0625 .3671061 .08203125 .38175456 .10758463 .39135743 .13916016 .4009603 .17073567 .40576173 .20475261 .40576173 .24121094Z"/>
<path id="font_1_180" d="M.39208985 .70214846C.38264976 .69108077 .37141929 .6780599 .35839845 .66308596 .3453776 .648112 .33390299 .6312663 .3239746 .6125488 .31404624 .59383139 .30908204 .5732422 .30908204 .55078127 .30908204 .54752609 .30924479 .5440267 .3095703 .5402832 .30989585 .53653976 .3100586 .5333659 .3100586 .5307617H.37304688L.38061524 .5197754C.3856608 .5124512 .3881836 .5032552 .3881836 .4921875 .3881836 .4752604 .38264976 .46069337 .37158204 .44848634 .3605143 .4362793 .34602867 .43017579 .328125 .43017579 .30208335 .43017579 .28173829 .4388021 .26708985 .4560547 .2524414 .47330729 .24511719 .4962565 .24511719 .52490237 .24511719 .5489909 .24951172 .5710449 .25830079 .59106448 .26708985 .611084 .27775065 .62890627 .2902832 .64453127 .30281578 .66015627 .31510417 .67333987 .32714845 .68408206 .33919273 .6948242 .34847007 .703125 .35498048 .7089844L.39208985 .70214846M.18603516 .70214846C.16617839 .6822917 .14737956 .65966799 .12963867 .63427737 .11189779 .6088867 .103027347 .5807292 .103027347 .5498047 .103027347 .5465495 .1031901 .5432129 .103515628 .5397949 .10384115 .53637698 .104003909 .5333659 .104003909 .5307617H.16699219L.17456055 .5202637C.17960613 .51326498 .1821289 .50358077 .1821289 .49121095 .1821289 .47428385 .17667644 .45987956 .16577149 .44799806 .15486653 .43611656 .14029949 .43017579 .12207031 .43017579 .096354167 .43017579 .07609049 .43847657 .061279298 .45507813 .046468099 .4716797 .0390625 .49430339 .0390625 .5229492 .0390625 .5473633 .04345703 .56974288 .052246095 .5900879 .061035158 .6104329 .07169596 .6284993 .084228519 .6442871 .09676107 .6600749 .10904948 .67333987 .12109375 .68408206 .13313802 .6948242 .14241536 .703125 .14892578 .7089844L.18603516 .70214846Z"/>
<path id="font_1_55" d="M.5830078 .51123049H.5239258L.5097656 .60498049C.507487 .6163737 .5019531 .6220703 .49316407 .6220703H.35009767V.068847659C.35009767 .063964847 .35180665 .059244794 .3552246 .0546875 .35864259 .050130208 .36393229 .047526044 .37109376 .046875L.4350586 .04296875V0H.1640625V.04296875L.22802735 .046875C.2351888 .047526044 .24047852 .050130208 .24389649 .0546875 .24731446 .059244794 .24902344 .063964847 .24902344 .068847659V.6220703H.10498047C.094563808 .6220703 .08886719 .6163737 .087890628 .60498049L.07421875 .51123049H.016113282V.67089846H.5830078V.51123049Z"/>
<path id="font_1_75" d="M.55078127 0H.328125V.0390625L.36914063 .041992189C.375 .04264323 .38012696 .044921876 .38452149 .048828126 .38891603 .052734376 .39111329 .05777995 .39111329 .063964847V.32177735C.39111329 .3504232 .38427735 .37410484 .37060548 .39282228 .3569336 .4115397 .33072917 .42089845 .2919922 .42089845 .27441407 .42089845 .25545249 .4181315 .23510742 .41259767 .21476238 .4070638 .19742839 .40022788 .18310547 .39208985V.063964847C.18310547 .05029297 .18977864 .04296875 .203125 .041992189L.24609375 .0390625V0H.020996094V.0390625L.068847659 .041992189C.082845058 .04296875 .08984375 .05029297 .08984375 .063964847V.66503909H.015136719V.6982422L.1430664 .7368164H.18310547V.4321289C.19514974 .43961589 .21077474 .4481608 .22998047 .45776368 .2491862 .46736656 .2693685 .47583009 .29052735 .4831543 .3116862 .49047853 .33089195 .49414063 .34814454 .49414063 .386556 .49414063 .41878257 .48177085 .44482423 .45703126 .47086589 .43229167 .48388673 .39420573 .48388673 .34277345V.063964847C.48388673 .05777995 .48608399 .052734376 .49047853 .048828126 .49487306 .044921876 .5 .04264323 .5058594 .041992189L.55078127 .0390625V0Z"/>
<path id="font_1_68" d="M.4921875 0H.34423829L.3310547 .05908203C.31835938 .048990888 .30257163 .038411458 .2836914 .02734375 .2648112 .016276041 .24495442 .006917318 .2241211-.0007324219 .20328777-.008382161 .18326824-.012207031 .1640625-.012207031 .12792969-.012207031 .09724935-.00016276042 .072021488 .023925782 .04679362 .048014326 .034179689 .08105469 .034179689 .123046878 .034179689 .14160156 .037516279 .15885417 .044189454 .17480469 .05086263 .1907552 .064208988 .20597331 .084228519 .22045899 .10424805 .23494466 .1340332 .24910482 .17358399 .26293946 .21313477 .27677409 .265625 .29085288 .3310547 .30517579 .3310547 .30745445 .3310547 .31306968 .3310547 .32202149 .3310547 .3309733 .3310547 .339681 .3310547 .34814454 .3310547 .41389976 .29996745 .44677735 .23779297 .44677735 .22054036 .44677735 .20564778 .44514976 .19311524 .44189454 .18058269 .4386393 .171875 .43603517 .16699219 .43408204V.34716798H.09423828C.085123699 .34716798 .076660159 .34887696 .068847659 .35229493 .061035158 .3557129 .057128908 .36360679 .057128908 .37597657 .057128908 .4033203 .06754557 .42569987 .088378909 .44311524 .10921224 .4605306 .13566081 .47338868 .16772461 .48168946 .1997884 .48999024 .23225911 .49414063 .26513673 .49414063 .30647788 .49414063 .33854167 .48771159 .36132813 .47485353 .3841146 .46199546 .4000651 .44425456 .4091797 .42163087 .41829429 .39900718 .42285157 .37320964 .42285157 .34423829V.063964847C.42285157 .05777995 .42488609 .052652997 .42895509 .048583986 .43302409 .044514974 .43798829 .042317708 .44384767 .041992189L.4921875 .0390625V0M.3310547 .09423828V.26708985C.2861328 .25602214 .2504069 .24487305 .22387696 .23364258 .197347 .22241211 .17757161 .21118164 .16455078 .19995117 .15152996 .1887207 .14298503 .17732747 .13891602 .16577149 .134847 .1542155 .1328125 .14225261 .1328125 .12988281 .1328125 .109375 .1394043 .090413417 .15258789 .07299805 .16577149 .055582685 .1842448 .046875 .20800781 .046875 .22753906 .046875 .2491862 .052246095 .27294923 .06298828 .29671226 .07373047 .31608073 .08414713 .3310547 .09423828Z"/>
<path id="font_1_80" d="M.828125 0H.6040039V.0390625L.6459961 .041992189C.65999349 .04296875 .6669922 .05029297 .6669922 .063964847V.31884767C.6669922 .34977214 .6605632 .37451173 .6477051 .3930664 .634847 .4116211 .6116536 .42089845 .578125 .42089845 .56152346 .42089845 .5433757 .41829429 .52368167 .41308595 .5039876 .4078776 .48649089 .40120445 .4711914 .3930664V.063964847C.4711914 .05029297 .4781901 .04296875 .4921875 .041992189L.5341797 .0390625V0H.3149414V.0390625L.3569336 .041992189C.370931 .04296875 .3779297 .05029297 .3779297 .063964847V.3251953C.3779297 .35351563 .3712565 .37654624 .35791017 .3942871 .3445638 .41202799 .3219401 .42089845 .29003907 .42089845 .27115885 .42089845 .25146485 .4177246 .23095703 .41137696 .21044922 .4050293 .1944987 .39860026 .18310547 .39208985V.063964847C.18310547 .05029297 .19010417 .04296875 .20410156 .041992189L.24609375 .0390625V0H.020019532V.0390625L.068847659 .041992189C.082845058 .04296875 .08984375 .05029297 .08984375 .063964847V.4111328H.020996094V.44384767L.14208985 .4819336H.18310547V.4321289C.19807942 .4412435 .21492513 .45052085 .23364258 .45996095 .25236003 .46940104 .27148438 .47745768 .29101563 .48413087 .31054688 .49080406 .3289388 .49414063 .3461914 .49414063 .37516276 .49414063 .39860026 .48673503 .4165039 .47192384 .43440757 .45711265 .44759117 .44140626 .4560547 .4248047 .46940104 .43326823 .48632813 .44295249 .50683596 .45385743 .52734377 .46476237 .548584 .47420249 .57055667 .48217774 .5925293 .49015299 .6123047 .49414063 .6298828 .49414063 .66503909 .49414063 .69189456 .48608399 .7104492 .4699707 .7290039 .45385743 .7416992 .43400065 .74853518 .4104004 .7553711 .38680015 .75878909 .36360679 .75878909 .3408203V.063964847C.75878909 .05777995 .76082357 .052652997 .7648926 .048583986 .7689616 .044514974 .7739258 .042317708 .77978518 .041992189L.828125 .0390625V0Z"/>
<path id="font_1_181" d="M.4140625 .61621096C.4140625 .5917969 .40966798 .5694173 .4008789 .54907229 .39208985 .52872726 .38142906 .5106608 .36889649 .49487306 .35636393 .4790853 .34407554 .4658203 .33203126 .45507813 .31998698 .44433595 .31070964 .43603517 .30419923 .43017579L.26708985 .43798829C.28727214 .45817057 .3063151 .48079429 .32421876 .5058594 .3421224 .5309245 .35107423 .55891928 .35107423 .58984377 .35107423 .5934245 .3507487 .59676107 .35009767 .5998535 .34944663 .602946 .3491211 .60563156 .3491211 .60791018H.2861328L.27856446 .6191406C.2735189 .6266276 .2709961 .63655599 .2709961 .6489258 .2709961 .6661784 .27652995 .6805013 .28759767 .69189456 .29866538 .7032878 .31315104 .7089844 .3310547 .7089844 .3564453 .7089844 .3766276 .70060226 .39160157 .6838379 .40657554 .66707357 .4140625 .64453127 .4140625 .61621096M.20800781 .6152344C.20800781 .5911458 .20361328 .5690918 .19482422 .54907229 .18603516 .52905276 .17537435 .5111491 .1628418 .49536134 .15030925 .47957359 .13802083 .4662272 .12597656 .45532228 .11393229 .44441734 .104654949 .43603517 .09814453 .43017579L.061035158 .43798829C.07047526 .449056 .08170573 .46199546 .09472656 .47680665 .1077474 .49161784 .11922201 .5083008 .12915039 .52685549 .13907878 .54541018 .14404297 .5657552 .14404297 .5878906 .14404297 .5914714 .1438802 .5951335 .14355469 .59887698 .14322917 .6026204 .1430664 .60563156 .1430664 .60791018H.080078128L.072509769 .6196289C.067464198 .6274414 .064941409 .63688156 .064941409 .6479492 .064941409 .66520187 .07063802 .6796875 .08203125 .69140627 .09342448 .703125 .108072917 .7089844 .12597656 .7089844 .15201824 .7089844 .17220052 .70043948 .18652344 .6833496 .20084636 .66625979 .20800781 .6435547 .20800781 .6152344Z"/>
<path id="font_1_11" d="M.34277345-.14208985C.2906901-.13623047 .24650066-.12093099 .21020508-.096191409 .1739095-.07145182 .14469402-.039469404 .122558597-.00024414063 .10042318 .03898112 .0843099 .08317057 .07421875 .13232422 .0641276 .18147786 .05908203 .23339844 .05908203 .28808595 .05908203 .3424479 .0641276 .39420573 .07421875 .44335938 .0843099 .49251304 .10042318 .5366211 .122558597 .5756836 .14469402 .6147461 .1739095 .64664718 .21020508 .6713867 .24650066 .6961263 .2906901 .711263 .34277345 .7167969V.67285159C.27246095 .6614583 .22306316 .6222331 .19458008 .5551758 .166097 .4881185 .15185547 .39908854 .15185547 .28808595 .15185547 .2141927 .15804036 .1496582 .17041016 .09448242 .18277996 .03930664 .20288086-.004638672 .23071289-.037353517 .25854493-.07006836 .29589845-.09033203 .34277345-.09814453V-.14208985Z"/>
<path id="font_1_79" d="M.27001954 0H.026855469V.0390625L.080078128 .041992189C.084635417 .042317708 .08943685 .044840497 .09448242 .049560548 .09952799 .054280599 .10205078 .05875651 .10205078 .06298828V.66503909H.025878907V.6982422L.1538086 .7368164H.19482422V.06298828C.19482422 .05875651 .19726563 .054280599 .20214844 .049560548 .20703125 .044840497 .21158855 .042317708 .21582031 .041992189L.27001954 .0390625V0Z"/>
<path id="font_1_85" d="M.38085938 .3798828H.34179688C.33561198 .38736979 .3282064 .39379884 .31958009 .39916993 .31095378 .40454103 .30045573 .40722657 .28808595 .40722657 .2721354 .40722657 .25577799 .40169273 .23901367 .390625 .22224935 .37955729 .20524089 .36442057 .18798828 .34521485V.063964847C.18798828 .04996745 .19498699 .04264323 .20898438 .041992189L.27490235 .0390625V0H.024902344V.038085939L.07421875 .041992189C.080078128 .04264323 .08504232 .044921876 .08911133 .048828126 .093180339 .052734376 .095214847 .05777995 .095214847 .063964847V.4111328H.022949219V.44384767L.14697266 .4819336H.18798828V.3930664C.2163086 .425944 .2409668 .45100913 .2619629 .46826173 .28295899 .4855143 .3022461 .49414063 .31982423 .49414063 .33024089 .49414063 .34147135 .49251304 .35351563 .4892578 .3655599 .4860026 .37467448 .48258464 .38085938 .4790039V.3798828Z"/>
<path id="font_1_92" d="M.52001956 .4428711 .46777345 .43701173 .2758789-.030761719C.27164714-.041503908 .26505534-.056884767 .25610353-.0769043 .24715169-.09692383 .23657227-.11743164 .22436524-.13842774 .2121582-.15942383 .19905599-.17692058 .1850586-.19091797 .17301433-.20296224 .15974935-.21232097 .14526367-.21899414 .130778-.22566732 .11507162-.2290039 .09814453-.2290039 .07438151-.2290039 .056233724-.2232259 .043701173-.21166992 .03116862-.20011394 .024902344-.18684896 .024902344-.171875 .024902344-.14973958 .03564453-.12972005 .057128908-.111816409L.1508789-.15478516C.16194661-.14371746 .17301433-.12874349 .18408203-.10986328 .19514974-.09098307 .2051595-.07145182 .21411133-.05126953 .22306316-.03108724 .22998047-.013671875 .23486328 .0009765625L.064941409 .43701173 .009765625 .4428711V.4819336H.23095703V.4428711L.18310547 .4399414C.17757161 .43961589 .1730957 .43725587 .16967774 .43286134 .16625977 .4284668 .16569011 .4235026 .16796875 .41796876L.2841797 .123046878 .40283204 .41796876C.4051107 .4231771 .40478517 .4280599 .40185548 .4326172 .39892579 .43717448 .394694 .43961589 .38916017 .4399414L.34179688 .4428711V.4819336H.52001956V.4428711Z"/>
<path id="font_1_29" d="M.19580078 .4267578C.19580078 .40852867 .18912761 .39282228 .17578125 .37963868 .16243489 .36645509 .14648438 .35986329 .12792969 .35986329 .109375 .35986329 .09358724 .36645509 .080566409 .37963868 .06754557 .39282228 .061035158 .40852867 .061035158 .4267578 .061035158 .4453125 .06754557 .46118165 .080566409 .47436524 .09358724 .48754884 .109375 .49414063 .12792969 .49414063 .14648438 .49414063 .16243489 .48754884 .17578125 .47436524 .18912761 .46118165 .19580078 .4453125 .19580078 .4267578M.19580078 .05517578C.19580078 .036621095 .18912761 .020751954 .17578125 .0075683596 .16243489-.0056152346 .14648438-.012207031 .12792969-.012207031 .109375-.012207031 .09358724-.0056152346 .080566409 .0075683596 .06754557 .020751954 .061035158 .036621095 .061035158 .05517578 .061035158 .073404949 .06754557 .08911133 .080566409 .10229492 .09358724 .115478519 .109375 .12207031 .12792969 .12207031 .14648438 .12207031 .16243489 .115478519 .17578125 .10229492 .18912761 .08911133 .19580078 .073404949 .19580078 .05517578Z"/>
<path id="font_1_16" d="M.2758789 .203125H.043945314V.27783204H.2758789V.203125Z"/>
<path id="font_1_12" d="M.3178711 .28808595C.3178711 .23339844 .31282554 .18147786 .30273438 .13232422 .29264323 .08317057 .27652995 .03898112 .25439454-.00024414063 .23225911-.039469404 .203125-.07145182 .16699219-.096191409 .13085938-.12093099 .08658854-.13623047 .034179689-.14208985V-.09814453C.08105469-.09033203 .1184082-.07006836 .14624024-.037353517 .17407227-.004638672 .19401042 .03930664 .20605469 .09448242 .21809896 .1496582 .2241211 .2141927 .2241211 .28808595 .2241211 .36197917 .21809896 .42635093 .20605469 .48120118 .19401042 .53605148 .17407227 .579834 .14624024 .6125488 .1184082 .6452637 .08105469 .66536459 .034179689 .67285159V.7167969C.08658854 .7109375 .13085938 .695638 .16699219 .67089846 .203125 .6461589 .23225911 .6143392 .25439454 .57543948 .27652995 .53653976 .29264323 .49251304 .30273438 .44335938 .31282554 .39420573 .3178711 .3424479 .3178711 .28808595Z"/>
</defs>
<use data-text="." xlink:href="#font_1_17" transform="matrix(16.438357,0,0,-16.438357,.6567,15.381302)" fill="#343a40"/>
<use data-text="&#x0631;" xlink:href="#font_2_691" transform="matrix(16.438357,0,0,-16.438357,32.4192,15.381302)" fill="#343a40"/>
<use data-text="&#x064e;" xlink:href="#font_2_728" transform="matrix(16.438357,0,0,-16.438357,33.2211,17.757309)" fill="#343a40"/>
<use data-text="&#x062c;" xlink:href="#font_2_1198" transform="matrix(16.438357,0,0,-16.438357,22.6908,15.381302)" fill="#343a40"/>
<use data-text="&#x064f;" xlink:href="#font_2_730" transform="matrix(16.438357,0,0,-16.438357,24.80115,14.153702)" fill="#343a40"/>
<use data-text="&#x0644;" xlink:href="#font_2_1261" transform="matrix(16.438357,0,0,-16.438357,11.6786999,15.381302)" fill="#343a40"/>
<use data-text="&#x0647;" xlink:href="#font_2_1276" transform="matrix(16.438357,0,0,-16.438357,69.58215,15.381302)" fill="#343a40"/>
<use data-text="&#x064e;" xlink:href="#font_2_728" transform="matrix(16.438357,0,0,-16.438357,72.31785,14.770798)" fill="#343a40"/>
<use data-text="&#x0640;" xlink:href="#font_2_713" transform="matrix(16.438357,0,0,-16.438357,65.0463,15.381302)" fill="#343a40"/>
<use data-text="&#x0670;" xlink:href="#font_2_780" transform="matrix(16.438357,0,0,-16.438357,66.587398,16.922394)" fill="#343a40"/>
<use data-text="&#x0630;" xlink:href="#font_2_1211" transform="matrix(16.438357,0,0,-16.438357,56.306249,15.381302)" fill="#343a40"/>
<use data-text="&#x064e;" xlink:href="#font_2_728" transform="matrix(16.438357,0,0,-16.438357,57.9513,12.251251)" fill="#343a40"/>
<use data-text="&#x0627;" xlink:href="#font_2_681" transform="matrix(16.438357,0,0,-16.438357,52.4931,15.381302)" fill="#343a40"/>
<path transform="matrix(1.65,0,0,-1.65,.6567,15.381302)" stroke-width=".3985" stroke-linecap="butt" stroke-miterlimit="10" stroke-linejoin="miter" fill="none" stroke="#343a40" d="M28.29776-4.72015C28.67136-5.46736 29.5431-5.9655 30.78845-5.9655H37.56468C38.81003-5.9655 39.6818-6.46362 40.05537-7.21085 40.42897-6.46362 41.30072-5.9655 42.54607-5.9655H49.32231C50.56766-5.9655 51.4394-5.46736 51.813-4.72015"/>
<use data-text="s" xlink:href="#font_1_86" transform="matrix(0,-11.506852,-11.506852,-0,70.70911,64.76084)" fill="#343a40"/>
<use data-text="u" xlink:href="#font_1_88" transform="matrix(0,-11.506852,-11.506852,-0,70.70911,60.181116)" fill="#343a40"/>
<use data-text="b" xlink:href="#font_1_69" transform="matrix(0,-11.506852,-11.506852,-0,70.70911,53.633714)" fill="#343a40"/>
<use data-text="j" xlink:href="#font_1_77" transform="matrix(0,-11.506852,-11.506852,-0,70.70911,47.247415)" fill="#343a40"/>
<use data-text="e" xlink:href="#font_1_72" transform="matrix(0,-11.506852,-11.506852,-0,70.70911,43.887407)" fill="#343a40"/>
<use data-text="c" xlink:href="#font_1_70" transform="matrix(0,-11.506852,-11.506852,-0,70.70911,38.249048)" fill="#343a40"/>
<use data-text="t" xlink:href="#font_1_87" transform="matrix(0,-11.506852,-11.506852,-0,70.70911,32.886857)" fill="#343a40"/>
<path transform="matrix(1.65,0,0,-1.65,.6567,15.381302)" stroke-width=".3985" stroke-linecap="butt" stroke-miterlimit="10" stroke-linejoin="miter" fill="none" stroke="#343a40" d="M-.19925-4.72015C.17433-5.46736 1.04608-5.9655 2.29143-5.9655H10.29842C11.54376-5.9655 12.41553-6.46362 12.78911-7.21085 13.1627-6.46362 14.03445-5.9655 15.2798-5.9655H23.28679C24.53214-5.9655 25.4039-5.46736 25.77748-4.72015"/>
<use data-text="i" xlink:href="#font_1_76" transform="matrix(0,-11.506852,-11.506852,-0,25.720192,49.0017)" fill="#343a40"/>
<use data-text="n" xlink:href="#font_1_81" transform="matrix(0,-11.506852,-11.506852,-0,25.720192,45.515127)" fill="#343a40"/>
<use data-text="f" xlink:href="#font_1_73" transform="matrix(0,-11.506852,-11.506852,-0,25.720192,38.990739)" fill="#343a40"/>
<use data-text="o" xlink:href="#font_1_82" transform="matrix(0,-11.506852,-11.506852,-0,25.720192,35.239503)" fill="#343a40"/>
<use data-text="&#x201c;" xlink:href="#font_1_180" transform="matrix(16.438357,0,0,-16.438357,6.4647,134.29352)" fill="#343a40"/>
<use data-text="T" xlink:href="#font_1_55" transform="matrix(16.438357,0,0,-16.438357,13.911276,134.29352)" fill="#343a40"/>
<use data-text="h" xlink:href="#font_1_75" transform="matrix(16.438357,0,0,-16.438357,23.75785,134.29352)" fill="#343a40"/>
<use data-text="i" xlink:href="#font_1_76" transform="matrix(16.438357,0,0,-16.438357,33.193468,134.29352)" fill="#343a40"/>
<use data-text="s" xlink:href="#font_1_86" transform="matrix(16.438357,0,0,-16.438357,38.17429,134.29352)" fill="#343a40"/>
<use data-text="i" xlink:href="#font_1_76" transform="matrix(16.438357,0,0,-16.438357,49.533197,134.29352)" fill="#343a40"/>
<use data-text="s" xlink:href="#font_1_86" transform="matrix(16.438357,0,0,-16.438357,54.51402,134.29352)" fill="#343a40"/>
<use data-text="a" xlink:href="#font_1_68" transform="matrix(16.438357,0,0,-16.438357,65.87292,134.29352)" fill="#343a40"/>
<use data-text="m" xlink:href="#font_1_80" transform="matrix(16.438357,0,0,-16.438357,79.05648,134.29352)" fill="#343a40"/>
<use data-text="a" xlink:href="#font_1_68" transform="matrix(16.438357,0,0,-16.438357,93.029079,134.29352)" fill="#343a40"/>
<use data-text="n" xlink:href="#font_1_81" transform="matrix(16.438357,0,0,-16.438357,101.3962,134.29352)" fill="#343a40"/>
<use data-text="." xlink:href="#font_1_17" transform="matrix(16.438357,0,0,-16.438357,110.71674,134.29352)" fill="#343a40"/>
<use data-text="&#x201d;" xlink:href="#font_1_181" transform="matrix(16.438357,0,0,-16.438357,113.72496,134.29352)" fill="#343a40"/>
<use data-text="(" xlink:href="#font_1_11" transform="matrix(16.438357,0,0,-16.438357,6.4647,154.01926)" fill="#343a40"/>
<use data-text="l" xlink:href="#font_1_79" transform="matrix(16.438357,0,0,-16.438357,12.645523,154.01926)" fill="#343a40"/>
<use data-text="i" xlink:href="#font_1_76" transform="matrix(16.438357,0,0,-16.438357,17.527714,154.01926)" fill="#343a40"/>
<use data-text="t" xlink:href="#font_1_87" transform="matrix(16.438357,0,0,-16.438357,22.508536,154.01926)" fill="#343a40"/>
<use data-text="e" xlink:href="#font_1_72" transform="matrix(16.438357,0,0,-16.438357,28.097579,154.01926)" fill="#343a40"/>
<use data-text="r" xlink:href="#font_1_85" transform="matrix(16.438357,0,0,-16.438357,36.15237,154.01926)" fill="#343a40"/>
<use data-text="a" xlink:href="#font_1_68" transform="matrix(16.438357,0,0,-16.438357,42.579767,154.01926)" fill="#343a40"/>
<use data-text="l" xlink:href="#font_1_79" transform="matrix(16.438357,0,0,-16.438357,50.94689,154.01926)" fill="#343a40"/>
<use data-text="l" xlink:href="#font_1_79" transform="matrix(16.438357,0,0,-16.438357,55.829084,154.01926)" fill="#343a40"/>
<use data-text="y" xlink:href="#font_1_92" transform="matrix(16.438357,0,0,-16.438357,60.711275,154.01926)" fill="#343a40"/>
<use data-text=":" xlink:href="#font_1_29" transform="matrix(16.438357,0,0,-16.438357,69.42361,154.01926)" fill="#343a40"/>
<use data-text="&#x201c;" xlink:href="#font_1_180" transform="matrix(16.438357,0,0,-16.438357,80.4373,154.01926)" fill="#343a40"/>
<use data-text="T" xlink:href="#font_1_55" transform="matrix(16.438357,0,0,-16.438357,87.88388,154.01926)" fill="#343a40"/>
<use data-text="h" xlink:href="#font_1_75" transform="matrix(16.438357,0,0,-16.438357,97.73045,154.01926)" fill="#343a40"/>
<use data-text="i" xlink:href="#font_1_76" transform="matrix(16.438357,0,0,-16.438357,107.16607,154.01926)" fill="#343a40"/>
<use data-text="s" xlink:href="#font_1_86" transform="matrix(16.438357,0,0,-16.438357,112.14689,154.01926)" fill="#343a40"/>
<use data-text="-" xlink:href="#font_1_16" transform="matrix(16.438357,0,0,-16.438357,118.68936,154.01926)" fill="#343a40"/>
<use data-text="o" xlink:href="#font_1_82" transform="matrix(16.438357,0,0,-16.438357,123.94962,154.01926)" fill="#343a40"/>
<use data-text="n" xlink:href="#font_1_81" transform="matrix(16.438357,0,0,-16.438357,132.89209,154.01926)" fill="#343a40"/>
<use data-text="e" xlink:href="#font_1_72" transform="matrix(16.438357,0,0,-16.438357,142.21265,154.01926)" fill="#343a40"/>
<use data-text="i" xlink:href="#font_1_76" transform="matrix(16.438357,0,0,-16.438357,155.08388,154.01926)" fill="#343a40"/>
<use data-text="s" xlink:href="#font_1_86" transform="matrix(16.438357,0,0,-16.438357,160.06468,154.01926)" fill="#343a40"/>
<use data-text="a" xlink:href="#font_1_68" transform="matrix(16.438357,0,0,-16.438357,171.4236,154.01926)" fill="#343a40"/>
<use data-text="m" xlink:href="#font_1_80" transform="matrix(16.438357,0,0,-16.438357,184.60715,154.01926)" fill="#343a40"/>
<use data-text="a" xlink:href="#font_1_68" transform="matrix(16.438357,0,0,-16.438357,198.57976,154.01926)" fill="#343a40"/>
<use data-text="n" xlink:href="#font_1_81" transform="matrix(16.438357,0,0,-16.438357,206.94689,154.01926)" fill="#343a40"/>
<use data-text="." xlink:href="#font_1_17" transform="matrix(16.438357,0,0,-16.438357,216.26743,154.01926)" fill="#343a40"/>
<use data-text="&#x201d;" xlink:href="#font_1_181" transform="matrix(16.438357,0,0,-16.438357,219.29207,154.01926)" fill="#343a40"/>
<use data-text=")" xlink:href="#font_1_12" transform="matrix(16.438357,0,0,-16.438357,226.73863,154.01926)" fill="#343a40"/>
</svg>
