<svg xmlns="http://www.w3.org/2000/svg" xmlns:xlink="http://www.w3.org/1999/xlink" xmlns:inkscape="http://www.inkscape.org/namespaces/inkscape" version="1.1" width="138.6774" height="219.22119" viewBox="0 0 138.6774 219.22119">
<defs>
<path id="font_1_1276" d="M.2620697 .39648438 .30065919 .46875C.41739909 .41178385 .50438436 .36092124 .561615 .3161621 .61884567 .27140299 .64746096 .2257487 .64746096 .17919922 .64746096 .12158203 .62964889 .078125 .59402468 .048828126 .55840048 .01953125 .5106557 .0048828127 .4507904 .0048828127 .42834983 .0048828127 .4044393 .0066731774 .37905885 .010253906 .35368858 .013834636 .32961528 .018310547 .306839 .02368164 .2840627 .029052735 .26486717 .03434245 .24925232 .03955078 .22091167 .029134116 .18767803 .01993815 .14955139 .011962891 .11143494 .0039876305 .07462057 0 .039108278 0H-.009277344V.08886719H.032714845C.05419922 .08886719 .073160808 .08935547 .08959961 .09033203 .106038417 .091308597 .12402344 .092936199 .14355469 .095214847 .12109375 .11344401 .104899089 .13338216 .0949707 .1550293 .08504232 .17667644 .080078128 .19905599 .080078128 .22216797 .080078128 .25602214 .08806356 .28515626 .104034427 .3095703 .120015468 .33398438 .14120992 .3527832 .1676178 .3659668 .19403585 .3791504 .22289531 .3857422 .25419618 .3857422 .2682139 .3857422 .28223167 .3839518 .2962494 .3803711 .28518168 .38557945 .27378846 .39095054 .2620697 .39648438M.35058595 .09326172C.36490885 .09163412 .38053385 .09008789 .39746095 .08862305 .41438804 .0871582 .42933656 .08642578 .44230653 .08642578 .4815623 .08642578 .51148989 .09383138 .53208926 .10864258 .5526886 .12345377 .5629883 .14648438 .5629883 .17773438 .5629883 .19368489 .55389407 .21101888 .53570559 .22973633 .5175273 .24845378 .49325563 .26782228 .46289063 .2878418 .43252564 .30786134 .39899699 .32763673 .3623047 .34716798 .38020835 .33284507 .39461265 .31559245 .40551759 .29541017 .41642253 .27522788 .421875 .25390626 .421875 .23144531 .421875 .20084636 .41577149 .17472331 .40356446 .15307617 .39135743 .13142903 .3736979 .11149088 .35058595 .09326172M.1640625 .22314453C.1640625 .2039388 .17213948 .18481446 .18829346 .16577149 .2044576 .14672852 .22787984 .13134766 .25856019 .119628909 .31730653 .14339192 .3466797 .17757161 .3466797 .22216797 .3466797 .25048829 .33810935 .27205406 .32096864 .28686524 .3038381 .30167643 .28319804 .30908204 .25904847 .30908204 .23097229 .30908204 .2081197 .30126954 .19049073 .28564454 .1728719 .27001954 .1640625 .2491862 .1640625 .22314453Z"/>
<path id="font_1_728" d="M.03125 .5571289V.6035156L.23925781 .68847659V.64208987L.03125 .5571289Z"/>
<path id="font_1_713" d="M-.009765625 .08886719H.28564454V0H-.009765625V.08886719Z"/>
<path id="font_1_780" d="M.03125 .5419922V.7192383H.07470703V.5419922H.03125Z"/>
<path id="font_1_1211" d="M.24609375 .6933594 .31689454 .6225586 .24609375 .5517578 .17529297 .6225586 .24609375 .6933594M.32910157 .17773438C.32910157 .18619792 .32722984 .19718425 .32348634 .21069336 .31974284 .22420247 .31526695 .2368164 .3100586 .24853516L.22363281 .44433595 .2998047 .47998048 .41064454 .21923828C.4256185 .18408203 .4387207 .1570638 .44995118 .1381836 .46118165 .11930338 .47224937 .10636393 .4831543 .099365238 .49405924 .09236654 .50651046 .08886719 .5205078 .08886719H.5410156V0H.5205078C.49479167 0 .47387696 .003092448 .45776368 .009277344 .4416504 .015462239 .42773438 .024739584 .41601563 .037109376 .40429688 .049479169 .39241538 .065104167 .3803711 .083984378 .35758464 .055338544 .3285319 .034261068 .2932129 .020751954 .2578939 .0072428386 .21386719 .00048828127 .16113281 .00048828127 .13834636 .00048828127 .11783854 .001546224 .099609378 .0036621094 .08138021 .0057779948 .0641276 .0087890629 .047851564 .0126953129V.10107422C.08528646 .092285159 .12060547 .087890628 .1538086 .087890628 .27067057 .087890628 .32910157 .11783854 .32910157 .17773438Z"/>
<path id="font_1_681" d="M.15673828 .67285159V.0009765625H.07421875V.67285159H.15673828Z"/>
<path id="font_1_1275" d="M.5107422 0C.46289063 0 .42569987 .011230469 .39916993 .033691408 .37263999 .056152345 .35546876 .08707682 .34765626 .12646485 .32877604 .10758463 .3083496 .09309896 .28637696 .08300781 .2644043 .072916667 .2397461 .067871097 .21240235 .067871097 .16585286 .067871097 .12679036 .08040365 .095214847 .10546875 .06363932 .13053386 .047851564 .16520183 .047851564 .20947266 .047851564 .25960288 .068359378 .30297853 .109375 .3395996 .15039063 .3762207 .21484375 .40804038 .30273438 .4350586L.2993164 .4584961 .3774414 .4741211 .41992188 .1743164C.42382813 .14567058 .43318687 .12426758 .44799806 .11010742 .46280924 .095947269 .484375 .08886719 .5126953 .08886719H.52783206V0H.5107422M.328125 .24560547C.328125 .25569663 .32747398 .26529948 .32617188 .27441407L.31396485 .35595704C.2508138 .33317057 .20483399 .31070964 .17602539 .28857423 .1472168 .2664388 .1328125 .2421875 .1328125 .21582031 .1328125 .19433594 .14013672 .17805989 .15478516 .16699219 .1694336 .15592449 .18929036 .15039063 .21435547 .15039063 .2335612 .15039063 .25187174 .15413411 .2692871 .1616211 .28670249 .16910808 .30086265 .18001302 .31176759 .19433594 .32267253 .20865886 .328125 .2257487 .328125 .24560547Z"/>
<path id="font_1_730" d="M.2241211 .52246096C.21728516 .52246096 .21142578 .52275088 .20654297 .5233307 .20166016 .5239207 .19596355 .52460739 .18945313 .5253906 .15625 .47916667 .09814453 .45377604 .015136719 .44921876L.0087890629 .4868164C.041341146 .4897461 .07014974 .49519859 .095214847 .5031738 .120279949 .5111491 .13867188 .5213216 .15039063 .5336914 .12760417 .53531906 .10660807 .54280599 .087402347 .55615237 .06819662 .5694987 .05859375 .59016928 .05859375 .61816409 .05859375 .63997396 .06624349 .65877279 .08154297 .67456057 .096842449 .6903483 .11604818 .6982422 .13916016 .6982422 .16227214 .6982422 .18147786 .6908366 .19677735 .6760254 .21207683 .6612142 .21972656 .64176437 .21972656 .6176758 .21972656 .5994466 .21533203 .57942709 .20654297 .5576172 .21110027 .5569661 .21826172 .55615237 .22802735 .5551758L.2241211 .52246096M.16748047 .5654297C.1710612 .5735677 .17415364 .5822754 .17675781 .59155276 .17936199 .6008301 .18066406 .609375 .18066406 .6171875 .18066406 .6295573 .17683919 .63948568 .16918946 .64697268 .16153972 .65445968 .15218099 .6582031 .14111328 .6582031 .12841797 .6582031 .11808268 .6538086 .11010742 .64501956 .102132167 .63623049 .09814453 .6266276 .09814453 .61621096 .09814453 .5996094 .10506185 .5880534 .118896488 .58154299 .13273113 .57503256 .14892578 .56966146 .16748047 .5654297Z"/>
<path id="font_1_1258" d="M.107421878 .4736328C.13574219 .45377604 .16520183 .43286134 .19580078 .41088868 .22639974 .38891603 .2549642 .36547853 .28149415 .34057618 .30802409 .31567384 .32950846 .2891439 .34594728 .26098634 .36238609 .23282878 .37060548 .20279949 .37060548 .17089844 .37060548 .11035156 .34985353 .06673177 .3083496 .040039064 .2668457 .0133463549 .2006836 0 .10986328 0H-.009277344V.08886719H.109375C.17252605 .08886719 .21777344 .09448242 .24511719 .10571289 .27246095 .11694336 .2861328 .13932292 .2861328 .17285156 .2861328 .19433594 .27856446 .21533203 .26342774 .23583985 .24829102 .25634767 .22875977 .27661134 .20483399 .29663087 .1809082 .3166504 .15527344 .3363444 .12792969 .3557129 .10058594 .3750814 .07486979 .39420573 .05078125 .41308595 .040364583 .42154948 .032389326 .43147788 .026855469 .4428711 .021321616 .4542643 .018554688 .46565757 .018554688 .47705079 .018554688 .49039714 .022216797 .50301107 .029541016 .5148926 .036865236 .5267741 .048339845 .5358073 .063964847 .5419922L.41503907 .6845703V.59814456L.107421878 .4736328Z"/>
<path id="font_1_731" d="M.028320313-.24658203V-.20019531L.23632813-.115234378V-.1616211L.028320313-.24658203Z"/>
<path id="font_1_1189" d="M.22949219 .5283203 .29785157 .46044923 .22949219 .39160157 .1616211 .46044923 .22949219 .5283203M.06738281 .5283203 .13574219 .46044923 .06738281 .39160157-.00048828127 .46044923 .06738281 .5283203M-.009765625 .08886719H.08300781C.12434896 .08886719 .15388997 .09814453 .17163086 .11669922 .18937175 .1352539 .19824219 .16373699 .19824219 .20214844 .19824219 .21777344 .19783528 .23258464 .19702149 .24658203 .19620769 .26057945 .19514974 .2745768 .19384766 .28857423L.27539063 .29833985 .28320313 .18408203C.28710938 .12060547 .32014976 .08886719 .38232423 .08886719H.39257813V0H.38134767C.34521485 0 .31632487 .0065104167 .29467774 .01953125 .2730306 .032552083 .25553385 .05094401 .2421875 .07470703 .22460938 .048990888 .20149739 .030110678 .17285156 .018066407 .14420574 .0060221354 .11425781 0 .08300781 0H-.009765625V.08886719Z"/>
<path id="font_1_1173" d="M.07421875 .67285159H.15673828V.20565796C.15673828 .159729 .16520183 .1287791 .1821289 .11280823 .19905599 .096847537 .22460938 .08886719 .25878907 .08886719H.2709961V0H.25878907C.19661458 0 .15030925 .016530356 .11987305 .049591066 .08943685 .08266195 .07421875 .13486736 .07421875 .20620728V.67285159Z"/>
<path id="font_1_1176" d="M.079589847 0H-.010253906V.08886719H.07861328C.11116537 .08886719 .1332194 .09830729 .14477539 .1171875 .15633138 .1360677 .16210938 .15999349 .16210938 .18896485 .16210938 .2101237 .16015625 .23274739 .15625 .25683595 .15234375 .28092448 .14811199 .30517579 .14355469 .32958985L.22851563 .35107423C.23404949 .32503257 .23844402 .29947917 .24169922 .27441407 .24495442 .24934896 .24658203 .22542317 .24658203 .20263672 .24658203 .16357422 .24121094 .12874349 .23046875 .09814453 .21972656 .06754557 .20214844 .04353841 .17773438 .026123047 .15332031 .008707683 .12060547 0 .079589847 0M.09033203-.07470703 .16113281-.14550781 .09033203-.2163086 .01953125-.14550781 .09033203-.07470703Z"/>
<path id="font_2_69" d="M.5209961 .26416017C.5209961 .21402996 .5110677 .16902669 .49121095 .12915039 .47135417 .089274089 .44026695 .05777995 .39794923 .03466797 .3556315 .011555989 .300944 0 .23388672 0H.08984375V.66503909H.014160156V.6982422L.1430664 .7368164H.18310547V.45703126C.1944987 .4625651 .212972 .47013346 .23852539 .47973634 .26407878 .4893392 .2915039 .49414063 .32080079 .49414063 .3647461 .49414063 .40152995 .4835612 .43115235 .46240235 .46077476 .4412435 .4831543 .41316734 .49829103 .37817384 .51342776 .34318034 .5209961 .30517579 .5209961 .26416017M.4189453 .24414063C.4189453 .30729167 .40559898 .35489909 .37890626 .3869629 .35221354 .4190267 .31461589 .4350586 .26611329 .4350586 .25504557 .4350586 .2409668 .43326823 .22387696 .4296875 .20678711 .42610679 .19319661 .42252604 .18310547 .4189453V.047851564C.19124349 .047526044 .19938152 .047281904 .20751953 .04711914 .21565755 .04695638 .22379558 .046875 .2319336 .046875 .29117839 .046875 .3371582 .061523439 .36987306 .09082031 .4025879 .12011719 .4189453 .17122396 .4189453 .24414063Z"/>
<path id="font_2_68" d="M.4921875 0H.34423829L.3310547 .05908203C.31835938 .048990888 .30257163 .038411458 .2836914 .02734375 .2648112 .016276041 .24495442 .006917318 .2241211-.0007324219 .20328777-.008382161 .18326824-.012207031 .1640625-.012207031 .12792969-.012207031 .09724935-.00016276042 .072021488 .023925782 .04679362 .048014326 .034179689 .08105469 .034179689 .123046878 .034179689 .14160156 .037516279 .15885417 .044189454 .17480469 .05086263 .1907552 .064208988 .20597331 .084228519 .22045899 .10424805 .23494466 .1340332 .24910482 .17358399 .26293946 .21313477 .27677409 .265625 .29085288 .3310547 .30517579 .3310547 .30745445 .3310547 .31306968 .3310547 .32202149 .3310547 .3309733 .3310547 .339681 .3310547 .34814454 .3310547 .41389976 .29996745 .44677735 .23779297 .44677735 .22054036 .44677735 .20564778 .44514976 .19311524 .44189454 .18058269 .4386393 .171875 .43603517 .16699219 .43408204V.34716798H.09423828C.085123699 .34716798 .076660159 .34887696 .068847659 .35229493 .061035158 .3557129 .057128908 .36360679 .057128908 .37597657 .057128908 .4033203 .06754557 .42569987 .088378909 .44311524 .10921224 .4605306 .13566081 .47338868 .16772461 .48168946 .1997884 .48999024 .23225911 .49414063 .26513673 .49414063 .30647788 .49414063 .33854167 .48771159 .36132813 .47485353 .3841146 .46199546 .4000651 .44425456 .4091797 .42163087 .41829429 .39900718 .42285157 .37320964 .42285157 .34423829V.063964847C.42285157 .05777995 .42488609 .052652997 .42895509 .048583986 .43302409 .044514974 .43798829 .042317708 .44384767 .041992189L.4921875 .0390625V0M.3310547 .09423828V.26708985C.2861328 .25602214 .2504069 .24487305 .22387696 .23364258 .197347 .22241211 .17757161 .21118164 .16455078 .19995117 .15152996 .1887207 .14298503 .17732747 .13891602 .16577149 .134847 .1542155 .1328125 .14225261 .1328125 .12988281 .1328125 .109375 .1394043 .090413417 .15258789 .07299805 .16577149 .055582685 .1842448 .046875 .20800781 .046875 .22753906 .046875 .2491862 .052246095 .27294923 .06298828 .29671226 .07373047 .31608073 .08414713 .3310547 .09423828Z"/>
<path id="font_2_86" d="M.3491211 .35302735H.296875L.2890625 .42285157C.28190104 .4283854 .27132163 .43359376 .25732423 .43847657 .24332683 .44335938 .22851563 .44580079 .21289063 .44580079 .18554688 .44580079 .16520183 .43953453 .15185547 .42700196 .13850911 .4144694 .13183594 .3984375 .13183594 .37890626 .13183594 .36393229 .1352539 .35123698 .14208985 .3408203 .14892578 .33040367 .16048177 .3202311 .17675781 .31030274 .19303386 .30037437 .21516927 .28889976 .24316406 .2758789 .27799479 .25992839 .30680339 .24226888 .32958985 .22290039 .3523763 .2035319 .36376954 .17757161 .36376954 .14501953 .36376954 .09586588 .34684245 .057373048 .31298829 .029541016 .27913413 .0017089844 .23242188-.012207031 .17285156-.012207031 .14225261-.012207031 .11401367-.009033203 .088134769-.0026855469 .06225586 .0036621094 .044270833 .008951823 .034179689 .013183594V.1459961H.08496094L.09716797 .061035158C.10725912 .05452474 .11971029 .048258466 .13452149 .042236329 .14933269 .03621419 .1665039 .033203126 .18603516 .033203126 .21468099 .033203126 .2368164 .041178388 .2524414 .057128908 .2680664 .07307943 .2758789 .09098307 .2758789 .110839847 .2758789 .13688152 .2652181 .15730794 .24389649 .17211914 .22257488 .18693035 .19254558 .20361328 .1538086 .22216797 .11735026 .2397461 .08943685 .2578125 .07006836 .2763672 .05069987 .29492188 .041015626 .3191732 .041015626 .3491211 .041015626 .39371745 .056640626 .42903648 .087890628 .45507813 .119140628 .48111979 .16357422 .49414063 .2211914 .49414063 .25048829 .49414063 .27661134 .49145509 .29956056 .48608399 .32250978 .4807129 .33902995 .4757487 .3491211 .4711914V.35302735Z"/>
<path id="font_2_72" d="M.26611329-.012207031C.2257487-.012207031 .1879069-.0031738282 .15258789 .014892578 .11726888 .032958986 .08870443 .060384115 .06689453 .09716797 .045084638 .13395183 .034179689 .18017578 .034179689 .23583985 .034179689 .2879232 .044270833 .33333335 .064453128 .3720703 .084635417 .41080729 .112467449 .44083659 .14794922 .4621582 .18343099 .48347984 .22379558 .49414063 .26904298 .49414063 .33121745 .49414063 .3779297 .47485353 .4091797 .4362793 .4404297 .39770509 .4560547 .3486328 .4560547 .2890625 .4560547 .28580729 .4560547 .28149415 .4560547 .27612306 .4560547 .27075196 .45572917 .26578776 .45507813 .26123048H.13085938C.13085938 .23583985 .13354492 .2105306 .13891602 .18530274 .14428711 .16007488 .15332031 .13720703 .16601563 .11669922 .17871094 .096191409 .19580078 .0797526 .21728516 .06738281 .23876953 .05501302 .265625 .048828126 .29785157 .048828126 .3264974 .048828126 .3544108 .055419923 .3815918 .068603519 .4087728 .08178711 .43359376 .09586588 .4560547 .110839847V.049804689C.4280599 .032552083 .39786784 .017903647 .36547853 .005859375 .3330892-.006184896 .29996745-.012207031 .26611329-.012207031M.13623047 .30615235H.35595704V.328125C.35595704 .3610026 .34806315 .38867188 .3322754 .4111328 .31648765 .43359376 .2919922 .44482423 .25878907 .44482423 .22591146 .44482423 .19791667 .43245445 .17480469 .40771485 .1516927 .38297526 .13883464 .3491211 .13623047 .30615235Z"/>
<path id="font_2_16" d="M.2758789 .203125H.043945314V.27783204H.2758789V.203125Z"/>
<path id="font_2_81" d="M.546875 0H.32617188V.0390625L.36816407 .041992189C.37402345 .04264323 .37898765 .044921876 .38305665 .048828126 .38712565 .052734376 .38916017 .05777995 .38916017 .063964847V.32421876C.38916017 .35579429 .38183595 .37980143 .3671875 .39624024 .35253907 .41267906 .32779948 .42089845 .29296876 .42089845 .27408854 .42089845 .2552897 .4182129 .23657227 .4128418 .21785482 .4074707 .20003255 .40055339 .18310547 .39208985V.063964847C.18310547 .05029297 .19010417 .04296875 .20410156 .041992189L.24609375 .0390625V0H.020019532V.0390625L.068847659 .041992189C.082845058 .04296875 .08984375 .05029297 .08984375 .063964847V.4111328H.020019532V.44384767L.14208985 .4819336H.18310547V.4321289C.21110027 .44807945 .23982747 .46240235 .2692871 .47509767 .29874674 .48779298 .32503257 .49414063 .34814454 .49414063 .3917643 .49414063 .42496745 .48055015 .4477539 .45336915 .47054038 .42618815 .4819336 .38834635 .4819336 .33984376V.063964847C.4819336 .05777995 .4839681 .052734376 .4880371 .048828126 .4921061 .044921876 .4970703 .04264323 .5029297 .041992189L.546875 .0390625V0Z"/>
<path id="font_2_82" d="M.5097656 .24023438C.5097656 .19303386 .5 .15030925 .48046876 .11206055 .4609375 .07381185 .4333496 .04353841 .39770509 .021240235 .36206056-.0010579428 .31982423-.012207031 .2709961-.012207031 .22249349-.012207031 .1805013-.0011393229 .14501953 .020996094 .10953776 .04313151 .08219401 .07324219 .06298828 .111328128 .04378255 .14941406 .034179689 .19238281 .034179689 .24023438 .034179689 .2877604 .043863935 .33072917 .06323242 .36914063 .082600917 .4075521 .11027018 .43798829 .14624024 .46044923 .18221028 .48291017 .22477214 .49414063 .27392579 .49414063 .32373048 .49414063 .36621095 .4827474 .4013672 .45996095 .43652345 .43717448 .4633789 .40657554 .4819336 .36816407 .5004883 .3297526 .5097656 .28710938 .5097656 .24023438M.40576173 .24121094C.40576173 .27766929 .4009603 .3116862 .39135743 .34326173 .38175456 .37483726 .3671061 .40039063 .3474121 .41992188 .3277181 .43945313 .30289714 .44921876 .27294923 .44921876 .24202474 .44921876 .2167155 .43945313 .19702149 .41992188 .17732747 .40039063 .16276042 .37483726 .15332031 .34326173 .1438802 .3116862 .13916016 .27766929 .13916016 .24121094 .13916016 .20507813 .1439616 .17114258 .15356446 .1394043 .16316732 .107666019 .17781575 .08203125 .19750977 .0625 .21720378 .04296875 .24202474 .033203126 .27197267 .033203126 .30257163 .033203126 .3277181 .04296875 .3474121 .0625 .3671061 .08203125 .38175456 .10758463 .39135743 .13916016 .4009603 .17073567 .40576173 .20475261 .40576173 .24121094Z"/>
<path id="font_2_88" d="M.546875 0H.3881836V.057128908C.37679038 .048339845 .3623047 .03857422 .34472657 .027832032 .32714845 .017089844 .30826823 .0077311198 .28808595-.00024414063 .26790367-.008219401 .24788411-.012207031 .22802735-.012207031 .1850586-.012207031 .15128581 .0007324219 .12670899 .026611329 .102132167 .052490236 .08984375 .09358724 .08984375 .14990235V.42089845H.020019532V.45507813L.1430664 .49414063H.18310547V.16894531C.18310547 .13346355 .19034831 .10579427 .20483399 .0859375 .21931966 .06608073 .24430339 .056152345 .27978517 .056152345 .30029298 .056152345 .32047526 .05965169 .34033204 .06665039 .3601888 .073649089 .3761393 .080078128 .3881836 .0859375V.42089845H.3178711V.45507813L.4399414 .49414063H.48095704V.063964847C.48095704 .05777995 .4831543 .052734376 .48754884 .048828126 .49194337 .044921876 .4970703 .04264323 .5029297 .041992189L.546875 .0390625V0Z"/>
<path id="font_2_91" d="M.5 0H.28515626V.0390625L.31884767 .04296875C.32340495 .043619794 .32657878 .045979818 .32836915 .050048829 .33015953 .05411784 .33007813 .05777995 .328125 .061035158L.2421875 .18896485 .14404297 .061035158C.14176433 .05810547 .14111328 .05452474 .14208985 .05029297 .1430664 .0460612 .14567058 .043619794 .14990235 .04296875L.20019531 .0390625V0H.009765625V.0390625L.06689453 .046875 .20996094 .23291016 .07421875 .43408204 .015136719 .4428711V.4819336H.23486328V.4428711L.20019531 .43798829C.19563802 .43766276 .19230144 .43546549 .19018555 .43139649 .18806966 .42732749 .18798828 .4235026 .1899414 .41992188L.26904298 .30810548 .35595704 .41992188C.3585612 .42285157 .35921226 .42651368 .35791017 .4309082 .35660807 .43530274 .35367839 .43766276 .3491211 .43798829L.30615235 .4428711V.4819336H.48583985V.4428711L.4321289 .43408204 .29785157 .2631836 .44580079 .046875 .5 .0390625V0Z"/>
<path id="font_2_87" d="M.3330078 .020996094C.31966148 .013834636 .30037437 .0065104167 .27514649-.0009765625 .24991863-.008463542 .22428386-.012207031 .19824219-.012207031 .1608073-.012207031 .13354492-.0033365887 .11645508 .014404297 .099365238 .032145185 .09082031 .060709638 .09082031 .100097659V.4321289H.026855469V.46484376L.095214847 .4970703 .14013672 .60302737H.18408203V.4819336H.3251953V.4321289H.18408203V.15283203C.18408203 .11311849 .1907552 .08504232 .20410156 .068603519 .21744792 .052164716 .23746746 .043945314 .26416017 .043945314 .27848307 .043945314 .2919922 .045898439 .3046875 .049804689 .3173828 .053710939 .3268229 .057454427 .3330078 .061035158V.020996094Z"/>
<path id="font_2_85" d="M.38085938 .3798828H.34179688C.33561198 .38736979 .3282064 .39379884 .31958009 .39916993 .31095378 .40454103 .30045573 .40722657 .28808595 .40722657 .2721354 .40722657 .25577799 .40169273 .23901367 .390625 .22224935 .37955729 .20524089 .36442057 .18798828 .34521485V.063964847C.18798828 .04996745 .19498699 .04264323 .20898438 .041992189L.27490235 .0390625V0H.024902344V.038085939L.07421875 .041992189C.080078128 .04264323 .08504232 .044921876 .08911133 .048828126 .093180339 .052734376 .095214847 .05777995 .095214847 .063964847V.4111328H.022949219V.44384767L.14697266 .4819336H.18798828V.3930664C.2163086 .425944 .2409668 .45100913 .2619629 .46826173 .28295899 .4855143 .3022461 .49414063 .31982423 .49414063 .33024089 .49414063 .34147135 .49251304 .35351563 .4892578 .3655599 .4860026 .37467448 .48258464 .38085938 .4790039V.3798828Z"/>
<path id="font_2_76" d="M.21777344 .64697268C.21777344 .6300456 .21191406 .6154785 .20019531 .6032715 .18847656 .59106448 .17415364 .58496096 .15722656 .58496096 .14029949 .58496096 .12573242 .59106448 .11352539 .6032715 .10131836 .6154785 .095214847 .6300456 .095214847 .64697268 .095214847 .6642253 .10131836 .67871096 .11352539 .6904297 .12573242 .70214846 .14029949 .7080078 .15722656 .7080078 .17415364 .7080078 .18847656 .70214846 .20019531 .6904297 .21191406 .67871096 .21777344 .6642253 .21777344 .64697268M.26904298 0H.034179689V.0390625L.08300781 .041992189C.09700521 .04296875 .104003909 .05029297 .104003909 .063964847V.42089845H.03515625V.4560547L.15722656 .49414063H.19677735V.063964847C.19677735 .05777995 .19881185 .052652997 .20288086 .048583986 .20694988 .044514974 .21191406 .042317708 .21777344 .041992189L.26904298 .0390625V0Z"/>
<path id="font_2_180" d="M.39208985 .70214846C.38264976 .69108077 .37141929 .6780599 .35839845 .66308596 .3453776 .648112 .33390299 .6312663 .3239746 .6125488 .31404624 .59383139 .30908204 .5732422 .30908204 .55078127 .30908204 .54752609 .30924479 .5440267 .3095703 .5402832 .30989585 .53653976 .3100586 .5333659 .3100586 .5307617H.37304688L.38061524 .5197754C.3856608 .5124512 .3881836 .5032552 .3881836 .4921875 .3881836 .4752604 .38264976 .46069337 .37158204 .44848634 .3605143 .4362793 .34602867 .43017579 .328125 .43017579 .30208335 .43017579 .28173829 .4388021 .26708985 .4560547 .2524414 .47330729 .24511719 .4962565 .24511719 .52490237 .24511719 .5489909 .24951172 .5710449 .25830079 .59106448 .26708985 .611084 .27775065 .62890627 .2902832 .64453127 .30281578 .66015627 .31510417 .67333987 .32714845 .68408206 .33919273 .6948242 .34847007 .703125 .35498048 .7089844L.39208985 .70214846M.18603516 .70214846C.16617839 .6822917 .14737956 .65966799 .12963867 .63427737 .11189779 .6088867 .103027347 .5807292 .103027347 .5498047 .103027347 .5465495 .1031901 .5432129 .103515628 .5397949 .10384115 .53637698 .104003909 .5333659 .104003909 .5307617H.16699219L.17456055 .5202637C.17960613 .51326498 .1821289 .50358077 .1821289 .49121095 .1821289 .47428385 .17667644 .45987956 .16577149 .44799806 .15486653 .43611656 .14029949 .43017579 .12207031 .43017579 .096354167 .43017579 .07609049 .43847657 .061279298 .45507813 .046468099 .4716797 .0390625 .49430339 .0390625 .5229492 .0390625 .5473633 .04345703 .56974288 .052246095 .5900879 .061035158 .6104329 .07169596 .6284993 .084228519 .6442871 .09676107 .6600749 .10904948 .67333987 .12109375 .68408206 .13313802 .6948242 .14241536 .703125 .14892578 .7089844L.18603516 .70214846Z"/>
<path id="font_2_75" d="M.55078127 0H.328125V.0390625L.36914063 .041992189C.375 .04264323 .38012696 .044921876 .38452149 .048828126 .38891603 .052734376 .39111329 .05777995 .39111329 .063964847V.32177735C.39111329 .3504232 .38427735 .37410484 .37060548 .39282228 .3569336 .4115397 .33072917 .42089845 .2919922 .42089845 .27441407 .42089845 .25545249 .4181315 .23510742 .41259767 .21476238 .4070638 .19742839 .40022788 .18310547 .39208985V.063964847C.18310547 .05029297 .18977864 .04296875 .203125 .041992189L.24609375 .0390625V0H.020996094V.0390625L.068847659 .041992189C.082845058 .04296875 .08984375 .05029297 .08984375 .063964847V.66503909H.015136719V.6982422L.1430664 .7368164H.18310547V.4321289C.19514974 .43961589 .21077474 .4481608 .22998047 .45776368 .2491862 .46736656 .2693685 .47583009 .29052735 .4831543 .3116862 .49047853 .33089195 .49414063 .34814454 .49414063 .386556 .49414063 .41878257 .48177085 .44482423 .45703126 .47086589 .43229167 .48388673 .39420573 .48388673 .34277345V.063964847C.48388673 .05777995 .48608399 .052734376 .49047853 .048828126 .49487306 .044921876 .5 .04264323 .5058594 .041992189L.55078127 .0390625V0Z"/>
<path id="font_2_78" d="M.5239258 0H.36376954V.0390625L.23876953 .22705078H.18310547V.063964847C.18310547 .05029297 .19010417 .04296875 .20410156 .041992189L.24707031 .0390625V0H.020019532V.0390625L.068847659 .041992189C.082845058 .04296875 .08984375 .05029297 .08984375 .063964847V.66503909H.014160156V.6982422L.14208985 .7368164H.18310547V.25585938H.203125L.35009767 .421875C.3527018 .42513023 .35310874 .42871095 .35131837 .4326172 .34952799 .43652345 .34635417 .4386393 .34179688 .43896485L.30078126 .4428711V.4819336H.4951172V.4428711L.43115235 .43603517 .29882813 .29492188 .4711914 .044921876 .5239258 .0390625V0Z"/>
<path id="font_2_73" d="M.38916017 .6767578C.38916017 .66341146 .38582359 .6529134 .3791504 .6452637 .3724772 .63761398 .36539714 .63216146 .35791017 .62890627 .3504232 .62565109 .3453776 .62369796 .34277345 .6230469L.25097657 .6879883C.23665364 .6805013 .2232259 .66536459 .21069336 .6425781 .19816081 .6197917 .19189453 .58496096 .19189453 .53808596V.4741211H.31591798V.42285157H.19189453V.063964847C.19189453 .05777995 .19392903 .052652997 .19799805 .048583986 .20206706 .044514974 .20703125 .042317708 .21289063 .041992189L.27197267 .0390625V0H.028808594V.0390625L.078125 .041992189C.083984378 .042317708 .08894857 .044514974 .09301758 .048583986 .097086589 .052652997 .099121097 .05777995 .099121097 .063964847V.42285157H.03515625V.4580078L.099121097 .47607423C.099121097 .50895187 .10164388 .5362142 .10668945 .5578613 .11173502 .5795085 .12044271 .60221359 .1328125 .62597659 .15234375 .663737 .17749024 .6916504 .20825196 .7097168 .23901367 .7277832 .27067057 .7368164 .30322267 .7368164 .33154298 .7368164 .35294596 .7308757 .36743165 .71899417 .38191734 .7071126 .38916017 .6930339 .38916017 .6767578Z"/>
<path id="font_2_181" d="M.4140625 .61621096C.4140625 .5917969 .40966798 .5694173 .4008789 .54907229 .39208985 .52872726 .38142906 .5106608 .36889649 .49487306 .35636393 .4790853 .34407554 .4658203 .33203126 .45507813 .31998698 .44433595 .31070964 .43603517 .30419923 .43017579L.26708985 .43798829C.28727214 .45817057 .3063151 .48079429 .32421876 .5058594 .3421224 .5309245 .35107423 .55891928 .35107423 .58984377 .35107423 .5934245 .3507487 .59676107 .35009767 .5998535 .34944663 .602946 .3491211 .60563156 .3491211 .60791018H.2861328L.27856446 .6191406C.2735189 .6266276 .2709961 .63655599 .2709961 .6489258 .2709961 .6661784 .27652995 .6805013 .28759767 .69189456 .29866538 .7032878 .31315104 .7089844 .3310547 .7089844 .3564453 .7089844 .3766276 .70060226 .39160157 .6838379 .40657554 .66707357 .4140625 .64453127 .4140625 .61621096M.20800781 .6152344C.20800781 .5911458 .20361328 .5690918 .19482422 .54907229 .18603516 .52905276 .17537435 .5111491 .1628418 .49536134 .15030925 .47957359 .13802083 .4662272 .12597656 .45532228 .11393229 .44441734 .104654949 .43603517 .09814453 .43017579L.061035158 .43798829C.07047526 .449056 .08170573 .46199546 .09472656 .47680665 .1077474 .49161784 .11922201 .5083008 .12915039 .52685549 .13907878 .54541018 .14404297 .5657552 .14404297 .5878906 .14404297 .5914714 .1438802 .5951335 .14355469 .59887698 .14322917 .6026204 .1430664 .60563156 .1430664 .60791018H.080078128L.072509769 .6196289C.067464198 .6274414 .064941409 .63688156 .064941409 .6479492 .064941409 .66520187 .07063802 .6796875 .08203125 .69140627 .09342448 .703125 .108072917 .7089844 .12597656 .7089844 .15201824 .7089844 .17220052 .70043948 .18652344 .6833496 .20084636 .66625979 .20800781 .6435547 .20800781 .6152344Z"/>
</defs>
<use data-text="&#x0647;" xlink:href="#font_1_1276" transform="matrix(16.408476,0,0,-16.408476,22.59318,89.205188)" fill="#343a40"/>
<use data-text="&#x064e;" xlink:href="#font_1_728" transform="matrix(16.408476,0,0,-16.408476,25.32537,88.595798)" fill="#343a40"/>
<use data-text="&#x0640;" xlink:href="#font_1_713" transform="matrix(16.408476,0,0,-16.408476,18.06759,89.205188)" fill="#343a40"/>
<use data-text="&#x0670;" xlink:href="#font_1_780" transform="matrix(16.408476,0,0,-16.408476,19.604792,90.74237)" fill="#343a40"/>
<use data-text="&#x0630;" xlink:href="#font_1_1211" transform="matrix(16.408476,0,0,-16.408476,9.342151,89.205188)" fill="#343a40"/>
<use data-text="&#x064e;" xlink:href="#font_1_728" transform="matrix(16.408476,0,0,-16.408476,10.98366,86.079547)" fill="#343a40"/>
<use data-text="&#x0627;" xlink:href="#font_1_681" transform="matrix(16.408476,0,0,-16.408476,5.5357506,89.205188)" fill="#343a40"/>
<use data-text="&#x0640;" xlink:href="#font_1_713" transform="matrix(16.408476,0,0,-16.408476,56.925809,89.205188)" fill="#343a40"/>
<use data-text="&#x0647;" xlink:href="#font_1_1275" transform="matrix(16.408476,0,0,-16.408476,48.42622,89.205188)" fill="#343a40"/>
<use data-text="&#x064f;" xlink:href="#font_1_730" transform="matrix(16.408476,0,0,-16.408476,51.46143,86.833499)" fill="#343a40"/>
<use data-text="&#x0643;" xlink:href="#font_1_1258" transform="matrix(16.408476,0,0,-16.408476,95.81515,89.205188)" fill="#343a40"/>
<use data-text="&#x0650;" xlink:href="#font_1_731" transform="matrix(16.408476,0,0,-16.408476,96.247028,89.04413)" fill="#343a40"/>
<use data-text="&#x062a;" xlink:href="#font_1_1189" transform="matrix(16.408476,0,0,-16.408476,89.53275,89.205188)" fill="#343a40"/>
<use data-text="&#x064e;" xlink:href="#font_1_728" transform="matrix(16.408476,0,0,-16.408476,89.734058,88.48416)" fill="#343a40"/>
<use data-text="&#x0627;" xlink:href="#font_1_1173" transform="matrix(16.408476,0,0,-16.408476,85.23957,89.205188)" fill="#343a40"/>
<use data-text="&#x0628;" xlink:href="#font_1_1176" transform="matrix(16.408476,0,0,-16.408476,80.41548,89.205188)" fill="#343a40"/>
<use data-text="&#x064f;" xlink:href="#font_1_730" transform="matrix(16.408476,0,0,-16.408476,80.62431,88.98741)" fill="#343a40"/>
<use data-text="&#x0640;" xlink:href="#font_1_713" transform="matrix(16.408476,0,0,-16.408476,75.87363,89.205188)" fill="#343a40"/>
<path transform="matrix(1.83,0,0,-1.83,.72834,89.205188)" stroke-width=".3985" stroke-linecap="butt" stroke-miterlimit="10" stroke-linejoin="miter" fill="none" stroke="#343a40" d="M23.23271 8.58932C23.6063 9.33653 24.47806 9.83467 25.7234 9.83467H27.1298C28.37515 9.83467 29.24692 10.3328 29.6205 11.08002 29.9941 10.3328 30.86584 9.83467 32.11119 9.83467H33.51761C34.76295 9.83467 35.6347 9.33653 36.0083 8.58932"/>
<use data-text="b" xlink:href="#font_2_69" transform="matrix(0,-10.9389719,-10.9389719,-0,58.887575,67.653278)" fill="#343a40"/>
<use data-text="a" xlink:href="#font_2_68" transform="matrix(0,-10.9389719,-10.9389719,-0,58.887575,61.582147)" fill="#343a40"/>
<use data-text="s" xlink:href="#font_2_86" transform="matrix(0,-10.9389719,-10.9389719,-0,58.887575,56.014207)" fill="#343a40"/>
<use data-text="e" xlink:href="#font_2_72" transform="matrix(0,-10.9389719,-10.9389719,-0,58.887575,51.660493)" fill="#343a40"/>
<use data-text="-" xlink:href="#font_2_16" transform="matrix(0,-10.9389719,-10.9389719,-0,58.887575,46.3004)" fill="#343a40"/>
<use data-text="n" xlink:href="#font_2_81" transform="matrix(0,-10.9389719,-10.9389719,-0,58.887575,42.799928)" fill="#343a40"/>
<use data-text="o" xlink:href="#font_2_82" transform="matrix(0,-10.9389719,-10.9389719,-0,58.887575,36.597528)" fill="#343a40"/>
<use data-text="u" xlink:href="#font_2_88" transform="matrix(0,-10.9389719,-10.9389719,-0,58.887575,30.646729)" fill="#343a40"/>
<use data-text="n" xlink:href="#font_2_81" transform="matrix(0,-10.9389719,-10.9389719,-0,58.887575,24.422455)" fill="#343a40"/>
<path transform="matrix(1.83,0,0,-1.83,.72834,89.205188)" stroke-width=".3985" stroke-linecap="butt" stroke-miterlimit="10" stroke-linejoin="miter" fill="none" stroke="#343a40" d="M38.2367 8.58932C38.61028 9.33653 39.48204 9.83467 40.72739 9.83467H46.01067C47.25601 9.83467 48.12776 10.3328 48.50136 11.08002 48.87494 10.3328 49.7467 9.83467 50.99205 9.83467H56.27533C57.52068 9.83467 58.39243 9.33653 58.76602 8.58932"/>
<use data-text="a" xlink:href="#font_2_68" transform="matrix(0,-10.9389719,-10.9389719,-0,93.439807,67.653278)" fill="#343a40"/>
<use data-text="n" xlink:href="#font_2_81" transform="matrix(0,-10.9389719,-10.9389719,-0,93.439807,62.085344)" fill="#343a40"/>
<use data-text="n" xlink:href="#font_2_81" transform="matrix(0,-10.9389719,-10.9389719,-0,93.439807,55.882944)" fill="#343a40"/>
<use data-text="e" xlink:href="#font_2_72" transform="matrix(0,-10.9389719,-10.9389719,-0,93.439807,49.680536)" fill="#343a40"/>
<use data-text="x" xlink:href="#font_2_91" transform="matrix(0,-10.9389719,-10.9389719,-0,93.439807,44.320444)" fill="#343a40"/>
<use data-text="e" xlink:href="#font_2_72" transform="matrix(0,-10.9389719,-10.9389719,-0,93.439807,38.894716)" fill="#343a40"/>
<use data-text="-" xlink:href="#font_2_16" transform="matrix(0,-10.9389719,-10.9389719,-0,93.439807,33.534616)" fill="#343a40"/>
<use data-text="n" xlink:href="#font_2_81" transform="matrix(0,-10.9389719,-10.9389719,-0,93.439807,30.034134)" fill="#343a40"/>
<use data-text="o" xlink:href="#font_2_82" transform="matrix(0,-10.9389719,-10.9389719,-0,93.439807,23.831742)" fill="#343a40"/>
<use data-text="u" xlink:href="#font_2_88" transform="matrix(0,-10.9389719,-10.9389719,-0,93.439807,17.880936)" fill="#343a40"/>
<use data-text="n" xlink:href="#font_2_81" transform="matrix(0,-10.9389719,-10.9389719,-0,93.439807,11.656662)" fill="#343a40"/>
<path transform="matrix(1.83,0,0,-1.83,.72834,89.205188)" stroke-width=".3985" stroke-linecap="butt" stroke-miterlimit="10" stroke-linejoin="miter" fill="none" stroke="#343a40" d="M-.19925-4.26807C.17433-5.01527 1.04608-5.51341 2.29143-5.51341H7.91183C9.15718-5.51341 10.02893-6.01154 10.40253-6.75876 10.77611-6.01154 11.64787-5.51341 12.89322-5.51341H18.51361C19.75896-5.51341 20.63072-5.01527 21.0043-4.26807"/>
<use data-text="a" xlink:href="#font_2_68" transform="matrix(0,-10.9389719,-10.9389719,-0,23.718628,144.82071)" fill="#343a40"/>
<use data-text="t" xlink:href="#font_2_87" transform="matrix(0,-10.9389719,-10.9389719,-0,23.718628,139.25276)" fill="#343a40"/>
<use data-text="t" xlink:href="#font_2_87" transform="matrix(0,-10.9389719,-10.9389719,-0,23.718628,135.53351)" fill="#343a40"/>
<use data-text="r" xlink:href="#font_2_85" transform="matrix(0,-10.9389719,-10.9389719,-0,23.718628,131.81427)" fill="#343a40"/>
<use data-text="i" xlink:href="#font_2_76" transform="matrix(0,-10.9389719,-10.9389719,-0,23.718628,127.537128)" fill="#343a40"/>
<use data-text="b" xlink:href="#font_2_69" transform="matrix(0,-10.9389719,-10.9389719,-0,23.718628,124.22262)" fill="#343a40"/>
<use data-text="u" xlink:href="#font_2_88" transform="matrix(0,-10.9389719,-10.9389719,-0,23.718628,118.15149)" fill="#343a40"/>
<use data-text="t" xlink:href="#font_2_87" transform="matrix(0,-10.9389719,-10.9389719,-0,23.718628,111.927219)" fill="#343a40"/>
<use data-text="e" xlink:href="#font_2_72" transform="matrix(0,-10.9389719,-10.9389719,-0,23.718628,108.20796)" fill="#343a40"/>
<path transform="matrix(1.83,0,0,-1.83,.72834,89.205188)" stroke-width=".3985" stroke-linecap="butt" stroke-miterlimit="10" stroke-linejoin="miter" fill="none" stroke="#343a40" d="M38.2367-4.26807C38.61028-5.01527 39.48204-5.51341 40.72739-5.51341H46.01067C47.25601-5.51341 48.12776-6.01154 48.50136-6.75876 48.87494-6.01154 49.7467-5.51341 50.99205-5.51341H56.27533C57.52068-5.51341 58.39243-5.01527 58.76602-4.26807"/>
<use data-text="a" xlink:href="#font_2_68" transform="matrix(0,-10.9389719,-10.9389719,-0,93.4398,150.18262)" fill="#343a40"/>
<use data-text="t" xlink:href="#font_2_87" transform="matrix(0,-10.9389719,-10.9389719,-0,93.4398,144.61469)" fill="#343a40"/>
<use data-text="t" xlink:href="#font_2_87" transform="matrix(0,-10.9389719,-10.9389719,-0,93.4398,140.89543)" fill="#343a40"/>
<use data-text="r" xlink:href="#font_2_85" transform="matrix(0,-10.9389719,-10.9389719,-0,93.4398,137.17618)" fill="#343a40"/>
<use data-text="i" xlink:href="#font_2_76" transform="matrix(0,-10.9389719,-10.9389719,-0,93.4398,132.89905)" fill="#343a40"/>
<use data-text="b" xlink:href="#font_2_69" transform="matrix(0,-10.9389719,-10.9389719,-0,93.4398,129.58454)" fill="#343a40"/>
<use data-text="u" xlink:href="#font_2_88" transform="matrix(0,-10.9389719,-10.9389719,-0,93.4398,123.513408)" fill="#343a40"/>
<use data-text="t" xlink:href="#font_2_87" transform="matrix(0,-10.9389719,-10.9389719,-0,93.4398,117.28913)" fill="#343a40"/>
<use data-text="e" xlink:href="#font_2_72" transform="matrix(0,-10.9389719,-10.9389719,-0,93.4398,113.56987)" fill="#343a40"/>
<use data-text="e" xlink:href="#font_2_72" transform="matrix(0,-10.9389719,-10.9389719,-0,93.4398,108.20978)" fill="#343a40"/>
<use data-text="&#x201c;" xlink:href="#font_2_180" transform="matrix(16.408476,0,0,-16.408476,6.5623805,211.77494)" fill="#343a40"/>
<use data-text="t" xlink:href="#font_2_87" transform="matrix(16.408476,0,0,-16.408476,13.99542,211.77494)" fill="#343a40"/>
<use data-text="h" xlink:href="#font_2_75" transform="matrix(16.408476,0,0,-16.408476,19.508667,211.77494)" fill="#343a40"/>
<use data-text="i" xlink:href="#font_2_76" transform="matrix(16.408476,0,0,-16.408476,28.927134,211.77494)" fill="#343a40"/>
<use data-text="s" xlink:href="#font_2_86" transform="matrix(16.408476,0,0,-16.408476,33.898904,211.77494)" fill="#343a40"/>
<use data-text="b" xlink:href="#font_2_69" transform="matrix(16.408476,0,0,-16.408476,45.220754,211.77494)" fill="#343a40"/>
<use data-text="o" xlink:href="#font_2_82" transform="matrix(16.408476,0,0,-16.408476,54.327459,211.77494)" fill="#343a40"/>
<use data-text="o" xlink:href="#font_2_82" transform="matrix(16.408476,0,0,-16.408476,63.25367,211.77494)" fill="#343a40"/>
<use data-text="k" xlink:href="#font_2_78" transform="matrix(16.408476,0,0,-16.408476,72.179889,211.77494)" fill="#343a40"/>
<use data-text="o" xlink:href="#font_2_82" transform="matrix(16.408476,0,0,-16.408476,85.749698,211.77494)" fill="#343a40"/>
<use data-text="f" xlink:href="#font_2_73" transform="matrix(16.408476,0,0,-16.408476,94.67591,211.77494)" fill="#343a40"/>
<use data-text="h" xlink:href="#font_2_75" transform="matrix(16.408476,0,0,-16.408476,104.83276,211.77494)" fill="#343a40"/>
<use data-text="i" xlink:href="#font_2_76" transform="matrix(16.408476,0,0,-16.408476,114.25122,211.77494)" fill="#343a40"/>
<use data-text="s" xlink:href="#font_2_86" transform="matrix(16.408476,0,0,-16.408476,119.223,211.77494)" fill="#343a40"/>
<use data-text="&#x201d;" xlink:href="#font_2_181" transform="matrix(16.408476,0,0,-16.408476,125.75357,211.77494)" fill="#343a40"/>
</svg>
