<svg xmlns="http://www.w3.org/2000/svg" xmlns:xlink="http://www.w3.org/1999/xlink" xmlns:inkscape="http://www.inkscape.org/namespaces/inkscape" version="1.1" width="382.11195" height="241.6689" viewBox="0 0 382.11195 241.6689">
<defs>
<path id="font_1_1206" d="M.2944336 .6201172 .36523438 .5493164 .2944336 .47851563 .22363281 .5493164 .2944336 .6201172M-.009765625 .08886719H.07324219C.111328128 .08886719 .14632161 .092285159 .17822266 .099121097 .2101237 .10595703 .24129232 .11539713 .27172853 .1274414 .3021647 .13948567 .33406578 .15372722 .36743165 .17016602 .40079753 .18660482 .43815104 .20426433 .4794922 .22314453 .45638023 .23160808 .43245445 .24080403 .40771485 .25073243 .38297526 .2606608 .3594564 .27001954 .3371582 .2788086 .31486003 .28759767 .29541017 .29484049 .2788086 .3005371 .26220704 .30623374 .25048829 .30908204 .24365235 .30908204 .22379558 .30908204 .20629883 .30330406 .19116211 .29174806 .17602539 .28019206 .16210938 .26627604 .14941406 .25L.13623047 .23339844 .061523439 .27001954 .068847659 .28173829C.09033203 .316569 .11531576 .34448243 .14379883 .36547853 .1722819 .3864746 .20572917 .39697267 .24414063 .39697267 .26009117 .39697267 .27937828 .39290367 .30200196 .38476563 .32462565 .3766276 .34928385 .36645509 .37597657 .35424806 .40266929 .34204103 .43033854 .32967124 .45898438 .31713868 .48763023 .3046061 .51627609 .2940267 .5449219 .2854004 .5735677 .27677409 .60091146 .27197267 .6269531 .2709961V.18652344C.6061198 .1842448 .5795085 .17667644 .54711917 .16381836 .5147298 .15096028 .47265626 .13085938 .42089845 .103515628 .37923179 .08138021 .34057618 .06258138 .30493165 .04711914 .2692871 .031656904 .23299153 .01993815 .19604492 .011962891 .15909831 .0039876305 .11767578 0 .071777347 0H-.009765625V.08886719Z"/>
<path id="font_1_728" d="M.03173828 .5571289V.6035156L.2397461 .68847659V.64208987L.03173828 .5571289Z"/>
<path id="font_1_1213" d="M.3828125 0C.36035157 0 .34155274 .0030110677 .32641603 .009033203 .3112793 .015055339 .29947917 .021484375 .29101563 .028320313 .2861328-.014322917 .27433268-.055582685 .25561524-.095458988 .23689778-.13533528 .20882161-.17008464 .17138672-.19970703 .13395183-.22932942 .084472659-.25016276 .022949219-.26220704L-.005859375-.1850586C.07356771-.16780599 .1295573-.13761394 .16210938-.09448242 .19466146-.05135091 .2109375-.00032552085 .2109375 .05859375 .2109375 .08626302 .20792644 .11531576 .2019043 .14575196 .19588216 .17618816 .1875 .20719402 .17675781 .23876953L.2578125 .26611329 .2841797 .1640625C.29134117 .13671875 .30273438 .11735026 .31835938 .10595703 .33398438 .094563808 .35367839 .08886719 .3774414 .08886719H.3959961V0H.3828125Z"/>
<path id="font_1_1198" d="M.3251953-.07470703 .3959961-.14550781 .3251953-.2163086 .25439454-.14550781 .3251953-.07470703M-.009765625 .08886719H.07324219C.111328128 .08886719 .14632161 .092285159 .17822266 .099121097 .2101237 .10595703 .24129232 .11539713 .27172853 .1274414 .3021647 .13948567 .33406578 .15372722 .36743165 .17016602 .40079753 .18660482 .43815104 .20426433 .4794922 .22314453 .45638023 .23160808 .43245445 .24080403 .40771485 .25073243 .38297526 .2606608 .3594564 .27001954 .3371582 .2788086 .31486003 .28759767 .29541017 .29484049 .2788086 .3005371 .26220704 .30623374 .25048829 .30908204 .24365235 .30908204 .22379558 .30908204 .20629883 .30330406 .19116211 .29174806 .17602539 .28019206 .16210938 .26627604 .14941406 .25L.13623047 .23339844 .061523439 .27001954 .068847659 .28173829C.09033203 .316569 .11531576 .34448243 .14379883 .36547853 .1722819 .3864746 .20572917 .39697267 .24414063 .39697267 .26009117 .39697267 .27937828 .39290367 .30200196 .38476563 .32462565 .3766276 .34928385 .36645509 .37597657 .35424806 .40266929 .34204103 .43033854 .32967124 .45898438 .31713868 .48763023 .3046061 .51627609 .2940267 .5449219 .2854004 .5735677 .27677409 .60091146 .27197267 .6269531 .2709961V.18652344C.6061198 .1842448 .5795085 .17667644 .54711917 .16381836 .5147298 .15096028 .47265626 .13085938 .42089845 .103515628 .37923179 .08138021 .34057618 .06258138 .30493165 .04711914 .2692871 .031656904 .23299153 .01993815 .19604492 .011962891 .15909831 .0039876305 .11767578 0 .071777347 0H-.009765625V.08886719Z"/>
<path id="font_1_737" d="M.020507813 .5673828C.020507813 .5908203 .028889975 .6110026 .045654298 .6279297 .06241862 .64485678 .08251953 .6533203 .10595703 .6533203 .12939453 .6533203 .14949544 .64485678 .16625977 .6279297 .1830241 .6110026 .19140625 .5908203 .19140625 .5673828 .19140625 .5439453 .1830241 .5238444 .16625977 .5070801 .14949544 .49031578 .12939453 .4819336 .10595703 .4819336 .08251953 .4819336 .06241862 .49031578 .045654298 .5070801 .028889975 .5238444 .020507813 .5439453 .020507813 .5673828M.059570314 .5673828C.059570314 .554362 .06404623 .54345706 .07299805 .53466799 .08194987 .5258789 .092936199 .5214844 .10595703 .5214844 .11897787 .5214844 .12988281 .5258789 .13867188 .53466799 .14746094 .54345706 .15185547 .554362 .15185547 .5673828 .15185547 .5804036 .14746094 .5914714 .13867188 .60058596 .12988281 .6097005 .11897787 .6142578 .10595703 .6142578 .092936199 .6142578 .08194987 .6097005 .07299805 .60058596 .06404623 .5914714 .059570314 .5804036 .059570314 .5673828Z"/>
<path id="font_1_1273" d="M.14794922 .28857423 .22949219 .29833985 .23730469 .18408203C.24121094 .12060547 .2742513 .08886719 .33642579 .08886719H.3466797V0H.33544923C.2993164 0 .27042643 .0065104167 .2487793 .01953125 .22713216 .032552083 .20963542 .05094401 .19628906 .07470703 .17871094 .048990888 .15559896 .030110678 .12695313 .018066407 .09830729 .0060221354 .068359378 0 .037109376 0H-.009765625V.08886719H.037109376C.07845052 .08886719 .10799154 .09814453 .12573242 .11669922 .14347331 .1352539 .15234375 .16373699 .15234375 .20214844 .15234375 .21777344 .15193685 .23258464 .15112305 .24658203 .15030925 .26057945 .1492513 .2745768 .14794922 .28857423M.15722656 .5317383 .22802735 .4609375 .15722656 .39013673 .08642578 .4609375 .15722656 .5317383Z"/>
<path id="font_1_1173" d="M.07470703 .6723633H.15722656V.2055664C.15722656 .15966797 .16569011 .12874349 .18261719 .11279297 .19954427 .096842449 .22509766 .08886719 .25927735 .08886719H.27148438V0H.25927735C.19710286 0 .15079753 .016520182 .12036133 .049560548 .08992513 .082600917 .07470703 .13476563 .07470703 .20605469V.6723633Z"/>
<path id="font_1_1266" d="M.3310547-.011230469C.2985026-.011230469 .2684733-.0041503908 .2409668 .010009766 .21346028 .024169922 .18489583 .045572919 .15527344 .07421875 .13411458 .05045573 .11376953 .032145185 .09423828 .01928711 .07470703 .0064290368 .04720052 0 .01171875 0H-.009765625V.08886719H.009277344C.03108724 .08886719 .049479169 .09513346 .064453128 .107666019 .079427089 .12019857 .09277344 .13639324 .10449219 .15625 .11621094 .17610677 .12784831 .19718425 .1394043 .21948242 .15096028 .2417806 .16389974 .26285807 .17822266 .28271485 .19254558 .30257163 .20987956 .31876628 .23022461 .33129884 .25056968 .3438314 .27571617 .35009767 .30566407 .35009767 .34179688 .35009767 .37329103 .34138999 .40014649 .3239746 .42700196 .30655924 .4478353 .28320313 .46264649 .25390626 .47745768 .22460938 .48486329 .19189453 .48486329 .15576172 .48486329 .10270182 .47143556 .061604818 .44458009 .032470704 .4177246 .0033365887 .3798828-.011230469 .3310547-.011230469M.3076172 .26367188C.29134117 .26367188 .27652995 .2582194 .2631836 .24731446 .24983724 .2364095 .23779297 .22233074 .22705078 .20507813 .2163086 .18782552 .20670574 .16992188 .19824219 .15136719 .21777344 .13085938 .23795574 .114095058 .25878907 .10107422 .28548179 .08382162 .30924479 .07519531 .33007813 .07519531 .37825523 .07519531 .40234376 .09944662 .40234376 .14794922 .40234376 .18180339 .39396159 .20955403 .37719728 .23120117 .36043296 .2528483 .3372396 .26367188 .3076172 .26367188Z"/>
<path id="font_1_731" d="M.028320313-.24658203V-.20019531L.23632813-.115234378V-.1616211L.028320313-.24658203Z"/>
<path id="font_1_1271" d="M.3310547 .3774414 .40185548 .30664063 .3310547 .23583985 .2602539 .30664063 .3310547 .3774414M.33642579-.16357422C.39078776-.16357422 .43286134-.15470378 .46264649-.13696289 .49243165-.11922201 .51326498-.095947269 .5251465-.06713867 .537028-.038330079 .54296877-.007486979 .54296877 .025390625 .54296877 .0641276 .53776046 .102376308 .52734377 .14013672 .51692709 .17789714 .50716146 .20882161 .49804688 .23291016L.58154299 .26660157 .6176758 .15234375C.6241862 .13151042 .634847 .115722659 .6496582 .10498047 .6644694 .09423828 .6852214 .08886719 .71191409 .08886719H.73095706V0H.7138672C.69108077 0 .67374679 .0021158856 .66186526 .0063476564 .6499837 .010579427 .63883468 .017740885 .62841799 .027832032 .62809249-.026529948 .6176758-.074788417 .59716799-.11694336 .57666018-.15909831 .54500326-.1920573 .50219729-.21582031 .45939128-.23958333 .40413413-.25146485 .33642579-.25146485 .26611329-.25146485 .20987956-.23860677 .16772461-.21289063 .12556966-.18717449 .09513346-.1529134 .076416019-.11010742 .057698568-.06730143 .048339845-.020345053 .048339845 .030761719 .048339845 .06526693 .051920576 .10066732 .05908203 .13696289 .06624349 .17325847 .07600912 .20865886 .088378909 .24316406L.16601563 .21191406C.15657552 .18196614 .14860027 .15120442 .14208985 .119628909 .13557942 .08805338 .13232422 .057454427 .13232422 .027832032 .13232422-.0073242189 .1385905-.03938802 .15112305-.068359378 .1636556-.09733073 .18473308-.12044271 .21435547-.13769531 .24397786-.15494792 .28466798-.16357422 .33642579-.16357422Z"/>
<path id="font_1_781" d="M.15722656 .6088867V.00048828127H.07470703V.6088867H.15722656M-.025390625 .6904297-.016601563 .73095706C-.012369792 .7273763-.006754557 .72281906 .00024414063 .71728518 .0072428386 .7117513 .013671875 .70784506 .01953125 .7055664 .045898439 .7501628 .069742839 .7821452 .09106445 .8015137 .11238607 .82088217 .13590496 .8305664 .1616211 .8305664 .18766277 .8305664 .20898438 .8224284 .22558594 .80615237 .2421875 .7898763 .25048829 .76953127 .25048829 .7451172 .25048829 .7125651 .23909505 .6897786 .2163086 .6767578 .19352214 .663737 .15413411 .65722659 .09814453 .65722659H.0859375C.056640626 .65722659 .032552083 .6599121 .013671875 .6652832-.0052083337 .6706543-.018229166 .67903646-.025390625 .6904297M.09716797 .69921877C.13916016 .69921877 .16837566 .7020671 .18481446 .7077637 .20125325 .71346029 .20947266 .72526046 .20947266 .74316409 .20947266 .7558594 .20532227 .7664388 .19702149 .77490237 .1887207 .7833659 .17773438 .78759768 .1640625 .78759768 .14615886 .78759768 .13004558 .7809245 .115722659 .7675781 .10139974 .75423178 .08382162 .7314453 .06298828 .69921877H.09716797Z"/>
<path id="font_1_1262" d="M-.009765625 .08886719H.03125C.0703125 .08886719 .09667969 .0999349 .11035156 .12207031 .12402344 .14420574 .13085938 .171875 .13085938 .20507813V.6723633H.2133789V.2055664C.2133789 .13785808 .19873047 .08666992 .1694336 .052001954 .14013672 .017333985 .09391276 0 .030761719 0H-.009765625V.08886719Z"/>
<path id="font_1_1268" d="M.01171875 0H-.009765625V.08886719H.009277344C.03108724 .08886719 .049479169 .09513346 .064453128 .107666019 .079427089 .12019857 .09277344 .13639324 .10449219 .15625 .11621094 .17610677 .12784831 .19718425 .1394043 .21948242 .15096028 .2417806 .16389974 .26285807 .17822266 .28271485 .19254558 .30257163 .20987956 .31876628 .23022461 .33129884 .25056968 .3438314 .27571617 .35009767 .30566407 .35009767 .35677085 .35009767 .39648438 .33455406 .4248047 .3034668 .453125 .27237956 .47216798 .23372396 .4819336 .1875 .488444 .15559896 .4995931 .13118489 .51538088 .11425781 .53116866 .09733073 .5494792 .08886719 .5703125 .08886719H.5830078V0H.5698242C.5489909 0 .5286458 .004313151 .50878909 .012939453 .48893229 .021565756 .472819 .03531901 .46044923 .05419922 .44677735 .03434245 .42985026 .018473307 .40966798 .006591797 .3894857-.0052897136 .36328126-.011230469 .3310547-.011230469 .2985026-.011230469 .2684733-.0041503908 .2409668 .010009766 .21346028 .024169922 .18489583 .045572919 .15527344 .07421875 .13411458 .05045573 .11376953 .032145185 .09423828 .01928711 .07470703 .0064290368 .04720052 0 .01171875 0M.3076172 .26367188C.29134117 .26367188 .27652995 .2582194 .2631836 .24731446 .24983724 .2364095 .23779297 .22233074 .22705078 .20507813 .2163086 .18782552 .20670574 .16992188 .19824219 .15136719 .20898438 .14029949 .21972656 .1303711 .23046875 .12158203 .24121094 .11279297 .2516276 .10530599 .26171876 .099121097 .2877604 .08317057 .31054688 .07519531 .33007813 .07519531 .37825523 .07519531 .40234376 .09944662 .40234376 .14794922 .40234376 .18180339 .39396159 .20955403 .37719728 .23120117 .36043296 .2528483 .3372396 .26367188 .3076172 .26367188Z"/>
<path id="font_1_1209" d="M.32958985 .17773438C.32958985 .18619792 .3277181 .19718425 .3239746 .21069336 .3202311 .22420247 .31575523 .2368164 .31054688 .24853516L.2241211 .44433595 .30029298 .47998048 .4111328 .21923828C.42610679 .18408203 .43920899 .1570638 .45043946 .1381836 .46166993 .11930338 .47273765 .10636393 .48364259 .099365238 .49454753 .09236654 .5069987 .08886719 .5209961 .08886719H.5415039V0H.5209961C.49527995 0 .47436524 .003092448 .45825196 .009277344 .44213868 .015462239 .42822267 .024739584 .4165039 .037109376 .40478517 .049479169 .39290367 .065104167 .38085938 .083984378 .3580729 .055338544 .32902018 .034261068 .29370118 .020751954 .25838218 .0072428386 .21435547 .00048828127 .1616211 .00048828127 .13883464 .00048828127 .11832682 .001546224 .100097659 .0036621094 .08186849 .0057779948 .06461588 .0087890629 .048339845 .0126953129V.10107422C.08577474 .092285159 .12109375 .087890628 .15429688 .087890628 .27115885 .087890628 .32958985 .11783854 .32958985 .17773438Z"/>
<path id="font_1_1285" d="M-.0107421879 .08886719H.095214847C.12776692 .08886719 .14982097 .09830729 .16137696 .1171875 .17293294 .1360677 .17871094 .15999349 .17871094 .18896485 .17871094 .2101237 .17675781 .23274739 .17285156 .25683595 .16894531 .28092448 .16471355 .30517579 .16015625 .32958985L.24511719 .35107423C.25065104 .32503257 .25504557 .29947917 .25830079 .27441407 .261556 .24934896 .2631836 .22542317 .2631836 .20263672 .2631836 .16357422 .2578125 .12874349 .24707031 .09814453 .23632813 .06754557 .21875 .04353841 .19433594 .026123047 .16992188 .008707683 .13720703 0 .096191409 0H-.0107421879V.08886719M.16552735-.07763672 .23388672-.14550781 .16552735-.21435547 .09765625-.14550781 .16552735-.07763672M.0034179688-.07763672 .071777347-.14550781 .0034179688-.21435547-.064453128-.14550781 .0034179688-.07763672Z"/>
<path id="font_1_1183" d="M.36523438 .67822268 .43359376 .61035159 .36523438 .5415039 .29736329 .61035159 .36523438 .67822268M.203125 .67822268 .27148438 .61035159 .203125 .5415039 .1352539 .61035159 .203125 .67822268M.51123049 0C.4633789 0 .42618815 .011230469 .3996582 .033691408 .37312828 .056152345 .35595704 .08707682 .34814454 .12646485 .3292643 .10758463 .3088379 .09309896 .28686524 .08300781 .26489259 .072916667 .24023438 .067871097 .21289063 .067871097 .16634114 .067871097 .12727864 .08040365 .095703128 .10546875 .0641276 .13053386 .048339845 .16520183 .048339845 .20947266 .048339845 .25960288 .068847659 .30297853 .10986328 .3395996 .1508789 .3762207 .21533203 .40804038 .30322267 .4350586L.2998047 .4584961 .3779297 .4741211 .42041017 .1743164C.4243164 .14567058 .43367515 .12426758 .44848634 .11010742 .46329753 .095947269 .48486329 .08886719 .5131836 .08886719H.5283203V0H.51123049M.32861329 .24560547C.32861329 .25569663 .32796226 .26529948 .32666017 .27441407L.31445313 .35595704C.2513021 .33317057 .20532227 .31070964 .17651367 .28857423 .14770508 .2664388 .13330078 .2421875 .13330078 .21582031 .13330078 .19433594 .140625 .17805989 .15527344 .16699219 .16992188 .15592449 .18977864 .15039063 .21484375 .15039063 .23404949 .15039063 .25236003 .15413411 .2697754 .1616211 .28719078 .16910808 .30135093 .18001302 .31225587 .19433594 .3231608 .20865886 .32861329 .2257487 .32861329 .24560547Z"/>
<path id="font_1_1287" d="M-.010253906 .08886719H.14892578C.18147786 .08886719 .2035319 .09830729 .21508789 .1171875 .22664388 .1360677 .23242188 .15999349 .23242188 .18896485 .23242188 .2101237 .23046875 .23274739 .2265625 .25683595 .22265625 .28092448 .21842449 .30517579 .21386719 .32958985L.29882813 .35107423C.30436198 .32503257 .3087565 .29947917 .31201173 .27441407 .31526695 .24934896 .31689454 .22542317 .31689454 .20263672 .31689454 .16357422 .31152345 .12874349 .30078126 .09814453 .29003907 .06754557 .27246095 .04353841 .24804688 .026123047 .22363281 .008707683 .19091797 0 .14990235 0H-.010253906V.08886719M.21923828-.07763672 .28759767-.14550781 .21923828-.21435547 .15136719-.14550781 .21923828-.07763672M.057128908-.07763672 .12548828-.14550781 .057128908-.21435547-.0107421879-.14550781 .057128908-.07763672Z"/>
<path id="font_1_1280" d="M.21289063 .3569336C.26367188 .3569336 .30647788 .33422853 .3413086 .28881837 .3761393 .2434082 .39420573 .17675781 .3955078 .08886719H.45458985V0H.3876953C.38053385-.037434896 .36629234-.073649089 .3449707-.10864258 .32364909-.14363607 .2919922-.17456055 .25-.20141602 .20800781-.22827149 .15234375-.24837239 .08300781-.26171876L.05419922-.18408203C.20166016-.15576172 .28710938-.09440104 .31054688 0H.23339844C.11002604 0 .048339845 .04996745 .048339845 .14990235 .048339845 .18180339 .05476888 .21370442 .06762695 .24560547 .08048502 .2775065 .09920248 .30403648 .1237793 .3251953 .14835613 .34635417 .17805989 .3569336 .21289063 .3569336M.22851563 .08886719H.3149414C.31103517 .1516927 .30069987 .19742839 .28393556 .22607422 .26717124 .25472007 .2430013 .26904298 .21142578 .26904298 .19059246 .26904298 .17423503 .26236979 .16235352 .24902344 .150472 .23567708 .14217122 .2199707 .13745117 .2019043 .13273113 .18383789 .1303711 .16748047 .1303711 .15283203 .1303711 .13004558 .13810222 .11368815 .15356446 .103759769 .16902669 .09383138 .19401042 .08886719 .22851563 .08886719Z"/>
<path id="font_1_718" d="M.17382813 .1459961C.1920573 .20947266 .21590169 .25935874 .24536133 .2956543 .27482096 .33194987 .31510417 .35009767 .36621095 .35009767 .40071617 .35009767 .43147788 .3413086 .4584961 .32373048 .4855143 .30615235 .5069173 .28198243 .5227051 .2512207 .53849288 .22045899 .5463867 .1850586 .5463867 .14501953 .5463867 .10107422 .53426107 .06461588 .51000979 .03564453 .48575846 .0066731774 .4482422-.0078125 .39746095-.0078125 .37825523-.0078125 .35880534-.0047200524 .33911134 .0014648438 .31941734 .0076497399 .3005371 .014729817 .2824707 .022705079 .2644043 .030680338 .24788411 .037760419 .23291016 .043945314 .2179362 .050130208 .20540364 .053222658 .1953125 .053222658 .17708333 .053222658 .16333008 .047281904 .15405274 .03540039 .14477539 .02351888 .1385905 .0034179688 .13549805-.024902344 .1324056-.053222658 .13085938-.092447917 .13085938-.14257813 .13085938-.16471355 .13110352-.18448894 .1315918-.2019043 .13208008-.21931966 .13289388-.23649089 .1340332-.25341798 .13517253-.27034507 .13639324-.28955079 .13769531-.31103517H.053710939C.052083333-.28108726 .05078125-.25301109 .049804689-.22680664 .048828126-.20060222 .048339845-.17415364 .048339845-.14746094 .048339845-.1110026 .049397787-.07633463 .051513673-.04345703 .05362956-.010579427 .05867513 .01912435 .06665039 .045654298 .07462565 .07218424 .08707682 .0941569 .104003909 .111572269 .12093099 .12898763 .14420574 .14046224 .17382813 .1459961M.4638672 .14550781C.4638672 .17903646 .45491538 .20711263 .43701173 .22973633 .41910807 .25236003 .39615885 .26367188 .36816407 .26367188 .34798179 .26367188 .33089195 .2574056 .31689454 .24487305 .30289714 .2323405 .29117839 .21590169 .28173829 .19555664 .2722982 .1752116 .2639974 .15348308 .25683595 .1303711 .29231773 .114746097 .32185874 .10245768 .34545899 .09350586 .36905924 .08455404 .38671876 .080078128 .3984375 .080078128 .4202474 .080078128 .43660484 .08601888 .44750978 .09790039 .4584147 .1097819 .4638672 .12565105 .4638672 .14550781Z"/>
<path id="font_1_1226" d="M.25878907 .104003909C.31673179 .20296224 .3736979 .2759603 .4296875 .32299806 .4856771 .3700358 .5416667 .3935547 .59765627 .3935547 .6347656 .3935547 .6677246 .38549806 .6965332 .36938478 .7253418 .35327149 .7478841 .33138023 .76416018 .30371095 .7804362 .27604167 .7885742 .24479167 .7885742 .20996094 .7882487 .13867188 .7583008 .08585612 .69873049 .051513673 .63916018 .017171225 .5489909 0 .42822267 0H.40234376C.33333335 0 .28076173 .0065104167 .2446289 .01953125 .2084961 .032552083 .1829427 .05078125 .16796875 .07421875 .14908855 .048502607 .12784831 .029703776 .10424805 .017822266 .08064779 .0059407555 .049316408 0 .010253906 0H-.009765625L-.009277344 .08886719H.010253906C.055826826 .08886719 .086507167 .09855143 .10229492 .11791992 .11808268 .1372884 .12597656 .16536458 .12597656 .20214844 .12597656 .21777344 .1254069 .23225911 .12426758 .24560547 .12312826 .2589518 .12223307 .27327476 .12158203 .28857423L.203125 .29833985 .21044922 .18408203C.21207683 .16227214 .21663411 .14347331 .2241211 .12768555 .23160808 .11189779 .24316406 .104003909 .25878907 .104003909M.6015625 .3046875C.523112 .3046875 .4383138 .23274739 .34716798 .08886719H.42626954C.51904299 .08886719 .5882161 .09814453 .63378909 .11669922 .679362 .1352539 .70214846 .16471355 .70214846 .20507813 .70214846 .23372396 .69295248 .25748698 .67456057 .2763672 .65616866 .2952474 .63183596 .3046875 .6015625 .3046875Z"/>
<path id="font_1_1203" d="M.6269531 .2709961V.18652344C.61295577 .18522136 .5965169 .181722 .5776367 .17602539 .55875656 .17032878 .538737 .16243489 .5175781 .15234375 .5182292 .12532552 .53125 .10799154 .5566406 .1003418 .58203127 .092692058 .6180013 .08886719 .6645508 .08886719H.69140627V0H.66259768C.5961914 0 .5464681 .0087890629 .51342776 .026367188 .48038737 .043945314 .46061198 .075520839 .45410157 .12109375 .38964845 .0859375 .32722984 .056966146 .2668457 .034179689 .2064616 .0113932299 .1414388 0 .071777347 0H-.009765625V.08886719H.07324219C.111328128 .08886719 .14632161 .092285159 .17822266 .099121097 .2101237 .10595703 .24129232 .11539713 .27172853 .1274414 .3021647 .13948567 .33406578 .15372722 .36743165 .17016602 .40079753 .18660482 .43815104 .20426433 .4794922 .22314453 .45638023 .23160808 .43245445 .24080403 .40771485 .25073243 .38297526 .2606608 .3594564 .27001954 .3371582 .2788086 .31486003 .28759767 .29541017 .29484049 .2788086 .3005371 .26220704 .30623374 .25048829 .30908204 .24365235 .30908204 .22379558 .30908204 .20629883 .30330406 .19116211 .29174806 .17602539 .28019206 .16210938 .26627604 .14941406 .25L.13623047 .23339844 .061523439 .27001954 .068847659 .28173829C.09033203 .316569 .11531576 .34448243 .14379883 .36547853 .1722819 .3864746 .20572917 .39697267 .24414063 .39697267 .26009117 .39697267 .27937828 .39290367 .30200196 .38476563 .32462565 .3766276 .34928385 .36645509 .37597657 .35424806 .40266929 .34204103 .43033854 .32967124 .45898438 .31713868 .48763023 .3046061 .51627609 .2940267 .5449219 .2854004 .5735677 .27677409 .60091146 .27197267 .6269531 .2709961Z"/>
<path id="font_1_1179" d="M-.010253906 .08886719H.046875C.08821615 .08886719 .117757167 .09814453 .13549805 .11669922 .15323894 .1352539 .16210938 .16373699 .16210938 .20214844 .16210938 .21777344 .16170247 .23258464 .16088867 .24658203 .16007488 .26057945 .15901692 .2745768 .15771485 .28857423L.23925781 .29833985 .24707031 .18408203C.25097657 .12060547 .28401695 .08886719 .3461914 .08886719H.3564453V0H.34521485C.30908204 0 .28019206 .0065104167 .25854493 .01953125 .23689778 .032552083 .21940105 .05094401 .20605469 .07470703 .18847656 .048990888 .16536458 .030110678 .13671875 .018066407 .108072917 .0060221354 .078125 0 .046875 0H-.010253906V.08886719M.09033203-.07470703 .16113281-.14550781 .09033203-.2163086 .01953125-.14550781 .09033203-.07470703Z"/>
<path id="font_1_1185" d="M.5253906 .4790039 .59375 .4111328 .5253906 .34228517 .45751954 .4111328 .5253906 .4790039M.36328126 .4790039 .43164063 .4111328 .36328126 .34228517 .29541017 .4111328 .36328126 .4790039M.7397461 .28857423 .82128909 .29833985 .82958987 .18408203C.83154299 .15315755 .8404134 .1295573 .8562012 .11328125 .87198898 .09700521 .8956706 .08886719 .9272461 .08886719H.93896487V0H.9272461C.8904622 0 .8602702 .006917318 .8366699 .020751954 .81306967 .03458659 .7936198 .056803388 .7783203 .087402347 .75130209 .056152345 .7167155 .033772787 .67456057 .020263672 .6324056 .006754557 .57389327 0 .49902345 0H.41748048C.29475913 0 .20255535 .016601563 .14086914 .049804689 .079182948 .08300781 .048339845 .14046224 .048339845 .22216797 .048339845 .2446289 .05086263 .26660157 .055908204 .28808595 .060953779 .3095703 .06754557 .33024089 .075683597 .35009767L.15136719 .32177735C.14615886 .30745445 .1418457 .29215495 .13842774 .2758789 .13500977 .25960288 .13330078 .24414063 .13330078 .22949219 .1336263 .19140625 .14436849 .16219075 .16552735 .1418457 .1866862 .12150065 .21826172 .10758463 .2602539 .100097659 .3022461 .09261068 .35465495 .08886719 .41748048 .08886719H.49902345C.57682296 .08886719 .6371257 .09700521 .67993167 .11328125 .7227376 .1295573 .7441406 .15917969 .7441406 .20214844 .7441406 .2154948 .7437337 .2298177 .7429199 .24511719 .74210616 .26041667 .74104818 .27490235 .7397461 .28857423Z"/>
<path id="font_1_730" d="M.22460938 .52197268C.21777344 .52229818 .21191406 .5227051 .20703125 .52319338 .20214844 .52368167 .19645183 .5242513 .1899414 .52490237 .15673828 .47867839 .09863281 .45328776 .015625 .44873048L.009277344 .48632813C.041829427 .4892578 .07063802 .4947103 .095703128 .50268557 .12076823 .5106608 .13916016 .5208333 .1508789 .5332031 .12809246 .53483077 .10709635 .5423177 .087890628 .55566409 .0686849 .56901046 .05908203 .58968099 .05908203 .6176758 .05908203 .63948568 .06673177 .6582845 .08203125 .67407229 .09733073 .68986007 .11653646 .6977539 .13964844 .6977539 .16276042 .6977539 .18196614 .6903483 .19726563 .6755371 .21256511 .6607259 .22021485 .64127609 .22021485 .6171875 .22021485 .5989583 .21582031 .5789388 .20703125 .5571289 .21158855 .55647787 .21875 .55566409 .22851563 .5546875L.22460938 .52197268M.16796875 .5649414C.17154949 .5730794 .17464192 .5817871 .1772461 .59106448 .17985027 .6003418 .18115235 .6088867 .18115235 .6166992 .18115235 .62906906 .17732747 .6389974 .16967774 .6464844 .162028 .6539714 .15266927 .65771487 .14160156 .65771487 .12890625 .65771487 .11857096 .6533203 .1105957 .64453127 .102620448 .6357422 .09863281 .62613937 .09863281 .61572268 .09863281 .5991211 .10555013 .5875651 .119384769 .5810547 .1332194 .57454428 .14941406 .56917318 .16796875 .5649414Z"/>
<path id="font_1_1255" d="M.34277345 .61816409 .4111328 .55029299 .34277345 .4814453 .27490235 .55029299 .34277345 .61816409M.18066406 .61816409 .24902344 .55029299 .18066406 .4814453 .11279297 .55029299 .18066406 .61816409M.43652345 .22998047C.43652345 .20426433 .4308268 .18041992 .4194336 .15844727 .40804038 .13647461 .39241538 .11393229 .3725586 .09082031 .39111329 .08984375 .4075521 .089274089 .421875 .08911133 .4361979 .08894857 .44889323 .08886719 .45996095 .08886719H.5073242V0H.46142579C.449056 0 .43204753 .0010579428 .4104004 .0031738282 .38875328 .0052897136 .36499024 .008951823 .33911134 .014160156 .31323243 .01936849 .2877604 .026367188 .2626953 .03515625 .2376302 .026041666 .21191406 .018961588 .18554688 .013916016 .15917969 .008870442 .13476563 .0052897136 .11230469 .0031738282 .08984375 .0010579428 .0719401 0 .05859375 0H-.009765625V.08886719H.05859375C.072265628 .08886719 .086507167 .08894857 .10131836 .08911133 .116129558 .089274089 .13411458 .09000651 .15527344 .091308597 .13574219 .114095058 .12044271 .13671875 .109375 .15917969 .09830729 .18164063 .09277344 .2055664 .09277344 .23095703 .09277344 .2511393 .09749349 .27148438 .106933597 .2919922 .116373699 .3125 .12906902 .33154298 .14501953 .3491211 .16097005 .36669923 .17919922 .38077799 .19970703 .39135743 .22021485 .40193687 .2413737 .40722657 .2631836 .40722657 .28597007 .40722657 .30777995 .40193687 .32861329 .39135743 .34944663 .38077799 .36791993 .3667806 .3840332 .34936524 .40014649 .33194987 .4129232 .31282554 .42236329 .2919922 .43180339 .27115885 .43652345 .25048829 .43652345 .22998047M.2631836 .32080079C.2508138 .32080079 .23787435 .3161621 .22436524 .30688478 .21085613 .29760743 .19946289 .28597007 .19018555 .27197267 .1809082 .25797526 .17626953 .24365235 .17626953 .2290039 .17626953 .21402996 .18066406 .19873047 .18945313 .18310547 .19824219 .16748047 .20939128 .15315755 .22290039 .14013672 .2364095 .12711589 .25016276 .11702474 .26416017 .10986328 .28889976 .120279949 .3099772 .13712566 .32739259 .16040039 .34480796 .18367513 .35351563 .20686849 .35351563 .22998047 .35351563 .24365235 .3487142 .25748698 .33911134 .27148438 .32950846 .28548179 .31770835 .29720054 .30371095 .30664063 .28971354 .31608073 .27620445 .32080079 .2631836 .32080079Z"/>
<path id="font_1_1284" d="M.33642579-.25146485C.26611329-.25146485 .20987956-.23860677 .16772461-.21289063 .12556966-.18717449 .09513346-.1529134 .076416019-.11010742 .057698568-.06730143 .048339845-.020345053 .048339845 .030761719 .048339845 .052897138 .050048829 .07845052 .053466798 .107421878 .056884767 .13639324 .06477865 .1694336 .07714844 .20654297L.15478516 .17773438C.14534505 .1451823 .13924153 .116373699 .13647461 .091308597 .13370769 .06624349 .13232422 .045084638 .13232422 .027832032 .13232422-.0073242189 .13850911-.03938802 .1508789-.068359378 .1632487-.09733073 .18432617-.12044271 .21411133-.13769531 .24389649-.15494792 .28466798-.16357422 .33642579-.16357422 .3852539-.16357422 .4271647-.15755208 .4621582-.14550781 .4971517-.13346355 .52400717-.119140628 .5427246-.10253906 .5614421-.0859375 .5708008-.07080078 .5708008-.057128908 .5708008-.041503908 .5640462-.028157553 .5505371-.017089844 .537028-.0060221354 .5151367-.00048828127 .48486329-.00048828127H.41259767C.40608726-.00048828127 .4013672 .0023600262 .3984375 .008056641 .3955078 .013753255 .39274089 .021158854 .39013673 .030273438L.37695313 .07714844C.3766276 .0797526 .37727867 .08227539 .37890626 .0847168 .38053385 .0871582 .38346354 .088378909 .3876953 .088378909H.6586914V-.00048828127H.6386719C.6435547-.010253906 .6467285-.01953125 .64819338-.028320313 .6496582-.037109376 .6503906-.046223958 .6503906-.055664064 .6503906-.07714844 .6441243-.099365238 .6315918-.12231445 .61905929-.14526367 .5998535-.1665039 .5739746-.18603516 .5480957-.2055664 .5154622-.22135417 .47607423-.23339844 .4366862-.2454427 .39013673-.25146485 .33642579-.25146485M.43066407-.3178711 .49902345-.3857422 .43066407-.45458985 .36279298-.3857422 .43066407-.3178711M.2685547-.3178711 .33691407-.3857422 .2685547-.45458985 .2006836-.3857422 .2685547-.3178711Z"/>
<path id="font_2_68" d="M.4921875 0H.34423829L.3310547 .05908203C.31835938 .048990888 .30257163 .038411458 .2836914 .02734375 .2648112 .016276041 .24495442 .006917318 .2241211-.0007324219 .20328777-.008382161 .18326824-.012207031 .1640625-.012207031 .12792969-.012207031 .09724935-.00016276042 .072021488 .023925782 .04679362 .048014326 .034179689 .08105469 .034179689 .123046878 .034179689 .14160156 .037516279 .15885417 .044189454 .17480469 .05086263 .1907552 .064208988 .20597331 .084228519 .22045899 .10424805 .23494466 .1340332 .24910482 .17358399 .26293946 .21313477 .27677409 .265625 .29085288 .3310547 .30517579 .3310547 .30745445 .3310547 .31306968 .3310547 .32202149 .3310547 .3309733 .3310547 .339681 .3310547 .34814454 .3310547 .41389976 .29996745 .44677735 .23779297 .44677735 .22054036 .44677735 .20564778 .44514976 .19311524 .44189454 .18058269 .4386393 .171875 .43603517 .16699219 .43408204V.34716798H.09423828C.085123699 .34716798 .076660159 .34887696 .068847659 .35229493 .061035158 .3557129 .057128908 .36360679 .057128908 .37597657 .057128908 .4033203 .06754557 .42569987 .088378909 .44311524 .10921224 .4605306 .13566081 .47338868 .16772461 .48168946 .1997884 .48999024 .23225911 .49414063 .26513673 .49414063 .30647788 .49414063 .33854167 .48771159 .36132813 .47485353 .3841146 .46199546 .4000651 .44425456 .4091797 .42163087 .41829429 .39900718 .42285157 .37320964 .42285157 .34423829V.063964847C.42285157 .05777995 .42488609 .052652997 .42895509 .048583986 .43302409 .044514974 .43798829 .042317708 .44384767 .041992189L.4921875 .0390625V0M.3310547 .09423828V.26708985C.2861328 .25602214 .2504069 .24487305 .22387696 .23364258 .197347 .22241211 .17757161 .21118164 .16455078 .19995117 .15152996 .1887207 .14298503 .17732747 .13891602 .16577149 .134847 .1542155 .1328125 .14225261 .1328125 .12988281 .1328125 .109375 .1394043 .090413417 .15258789 .07299805 .16577149 .055582685 .1842448 .046875 .20800781 .046875 .22753906 .046875 .2491862 .052246095 .27294923 .06298828 .29671226 .07373047 .31608073 .08414713 .3310547 .09423828Z"/>
<path id="font_2_81" d="M.546875 0H.32617188V.0390625L.36816407 .041992189C.37402345 .04264323 .37898765 .044921876 .38305665 .048828126 .38712565 .052734376 .38916017 .05777995 .38916017 .063964847V.32421876C.38916017 .35579429 .38183595 .37980143 .3671875 .39624024 .35253907 .41267906 .32779948 .42089845 .29296876 .42089845 .27408854 .42089845 .2552897 .4182129 .23657227 .4128418 .21785482 .4074707 .20003255 .40055339 .18310547 .39208985V.063964847C.18310547 .05029297 .19010417 .04296875 .20410156 .041992189L.24609375 .0390625V0H.020019532V.0390625L.068847659 .041992189C.082845058 .04296875 .08984375 .05029297 .08984375 .063964847V.4111328H.020019532V.44384767L.14208985 .4819336H.18310547V.4321289C.21110027 .44807945 .23982747 .46240235 .2692871 .47509767 .29874674 .48779298 .32503257 .49414063 .34814454 .49414063 .3917643 .49414063 .42496745 .48055015 .4477539 .45336915 .47054038 .42618815 .4819336 .38834635 .4819336 .33984376V.063964847C.4819336 .05777995 .4839681 .052734376 .4880371 .048828126 .4921061 .044921876 .4970703 .04264323 .5029297 .041992189L.546875 .0390625V0Z"/>
<path id="font_2_72" d="M.26611329-.012207031C.2257487-.012207031 .1879069-.0031738282 .15258789 .014892578 .11726888 .032958986 .08870443 .060384115 .06689453 .09716797 .045084638 .13395183 .034179689 .18017578 .034179689 .23583985 .034179689 .2879232 .044270833 .33333335 .064453128 .3720703 .084635417 .41080729 .112467449 .44083659 .14794922 .4621582 .18343099 .48347984 .22379558 .49414063 .26904298 .49414063 .33121745 .49414063 .3779297 .47485353 .4091797 .4362793 .4404297 .39770509 .4560547 .3486328 .4560547 .2890625 .4560547 .28580729 .4560547 .28149415 .4560547 .27612306 .4560547 .27075196 .45572917 .26578776 .45507813 .26123048H.13085938C.13085938 .23583985 .13354492 .2105306 .13891602 .18530274 .14428711 .16007488 .15332031 .13720703 .16601563 .11669922 .17871094 .096191409 .19580078 .0797526 .21728516 .06738281 .23876953 .05501302 .265625 .048828126 .29785157 .048828126 .3264974 .048828126 .3544108 .055419923 .3815918 .068603519 .4087728 .08178711 .43359376 .09586588 .4560547 .110839847V.049804689C.4280599 .032552083 .39786784 .017903647 .36547853 .005859375 .3330892-.006184896 .29996745-.012207031 .26611329-.012207031M.13623047 .30615235H.35595704V.328125C.35595704 .3610026 .34806315 .38867188 .3322754 .4111328 .31648765 .43359376 .2919922 .44482423 .25878907 .44482423 .22591146 .44482423 .19791667 .43245445 .17480469 .40771485 .1516927 .38297526 .13883464 .3491211 .13623047 .30615235Z"/>
<path id="font_2_91" d="M.5 0H.28515626V.0390625L.31884767 .04296875C.32340495 .043619794 .32657878 .045979818 .32836915 .050048829 .33015953 .05411784 .33007813 .05777995 .328125 .061035158L.2421875 .18896485 .14404297 .061035158C.14176433 .05810547 .14111328 .05452474 .14208985 .05029297 .1430664 .0460612 .14567058 .043619794 .14990235 .04296875L.20019531 .0390625V0H.009765625V.0390625L.06689453 .046875 .20996094 .23291016 .07421875 .43408204 .015136719 .4428711V.4819336H.23486328V.4428711L.20019531 .43798829C.19563802 .43766276 .19230144 .43546549 .19018555 .43139649 .18806966 .42732749 .18798828 .4235026 .1899414 .41992188L.26904298 .30810548 .35595704 .41992188C.3585612 .42285157 .35921226 .42651368 .35791017 .4309082 .35660807 .43530274 .35367839 .43766276 .3491211 .43798829L.30615235 .4428711V.4819336H.48583985V.4428711L.4321289 .43408204 .29785157 .2631836 .44580079 .046875 .5 .0390625V0Z"/>
<path id="font_2_82" d="M.5097656 .24023438C.5097656 .19303386 .5 .15030925 .48046876 .11206055 .4609375 .07381185 .4333496 .04353841 .39770509 .021240235 .36206056-.0010579428 .31982423-.012207031 .2709961-.012207031 .22249349-.012207031 .1805013-.0011393229 .14501953 .020996094 .10953776 .04313151 .08219401 .07324219 .06298828 .111328128 .04378255 .14941406 .034179689 .19238281 .034179689 .24023438 .034179689 .2877604 .043863935 .33072917 .06323242 .36914063 .082600917 .4075521 .11027018 .43798829 .14624024 .46044923 .18221028 .48291017 .22477214 .49414063 .27392579 .49414063 .32373048 .49414063 .36621095 .4827474 .4013672 .45996095 .43652345 .43717448 .4633789 .40657554 .4819336 .36816407 .5004883 .3297526 .5097656 .28710938 .5097656 .24023438M.40576173 .24121094C.40576173 .27766929 .4009603 .3116862 .39135743 .34326173 .38175456 .37483726 .3671061 .40039063 .3474121 .41992188 .3277181 .43945313 .30289714 .44921876 .27294923 .44921876 .24202474 .44921876 .2167155 .43945313 .19702149 .41992188 .17732747 .40039063 .16276042 .37483726 .15332031 .34326173 .1438802 .3116862 .13916016 .27766929 .13916016 .24121094 .13916016 .20507813 .1439616 .17114258 .15356446 .1394043 .16316732 .107666019 .17781575 .08203125 .19750977 .0625 .21720378 .04296875 .24202474 .033203126 .27197267 .033203126 .30257163 .033203126 .3277181 .04296875 .3474121 .0625 .3671061 .08203125 .38175456 .10758463 .39135743 .13916016 .4009603 .17073567 .40576173 .20475261 .40576173 .24121094Z"/>
<path id="font_2_88" d="M.546875 0H.3881836V.057128908C.37679038 .048339845 .3623047 .03857422 .34472657 .027832032 .32714845 .017089844 .30826823 .0077311198 .28808595-.00024414063 .26790367-.008219401 .24788411-.012207031 .22802735-.012207031 .1850586-.012207031 .15128581 .0007324219 .12670899 .026611329 .102132167 .052490236 .08984375 .09358724 .08984375 .14990235V.42089845H.020019532V.45507813L.1430664 .49414063H.18310547V.16894531C.18310547 .13346355 .19034831 .10579427 .20483399 .0859375 .21931966 .06608073 .24430339 .056152345 .27978517 .056152345 .30029298 .056152345 .32047526 .05965169 .34033204 .06665039 .3601888 .073649089 .3761393 .080078128 .3881836 .0859375V.42089845H.3178711V.45507813L.4399414 .49414063H.48095704V.063964847C.48095704 .05777995 .4831543 .052734376 .48754884 .048828126 .49194337 .044921876 .4970703 .04264323 .5029297 .041992189L.546875 .0390625V0Z"/>
<path id="font_2_86" d="M.3491211 .35302735H.296875L.2890625 .42285157C.28190104 .4283854 .27132163 .43359376 .25732423 .43847657 .24332683 .44335938 .22851563 .44580079 .21289063 .44580079 .18554688 .44580079 .16520183 .43953453 .15185547 .42700196 .13850911 .4144694 .13183594 .3984375 .13183594 .37890626 .13183594 .36393229 .1352539 .35123698 .14208985 .3408203 .14892578 .33040367 .16048177 .3202311 .17675781 .31030274 .19303386 .30037437 .21516927 .28889976 .24316406 .2758789 .27799479 .25992839 .30680339 .24226888 .32958985 .22290039 .3523763 .2035319 .36376954 .17757161 .36376954 .14501953 .36376954 .09586588 .34684245 .057373048 .31298829 .029541016 .27913413 .0017089844 .23242188-.012207031 .17285156-.012207031 .14225261-.012207031 .11401367-.009033203 .088134769-.0026855469 .06225586 .0036621094 .044270833 .008951823 .034179689 .013183594V.1459961H.08496094L.09716797 .061035158C.10725912 .05452474 .11971029 .048258466 .13452149 .042236329 .14933269 .03621419 .1665039 .033203126 .18603516 .033203126 .21468099 .033203126 .2368164 .041178388 .2524414 .057128908 .2680664 .07307943 .2758789 .09098307 .2758789 .110839847 .2758789 .13688152 .2652181 .15730794 .24389649 .17211914 .22257488 .18693035 .19254558 .20361328 .1538086 .22216797 .11735026 .2397461 .08943685 .2578125 .07006836 .2763672 .05069987 .29492188 .041015626 .3191732 .041015626 .3491211 .041015626 .39371745 .056640626 .42903648 .087890628 .45507813 .119140628 .48111979 .16357422 .49414063 .2211914 .49414063 .25048829 .49414063 .27661134 .49145509 .29956056 .48608399 .32250978 .4807129 .33902995 .4757487 .3491211 .4711914V.35302735Z"/>
<path id="font_2_87" d="M.3330078 .020996094C.31966148 .013834636 .30037437 .0065104167 .27514649-.0009765625 .24991863-.008463542 .22428386-.012207031 .19824219-.012207031 .1608073-.012207031 .13354492-.0033365887 .11645508 .014404297 .099365238 .032145185 .09082031 .060709638 .09082031 .100097659V.4321289H.026855469V.46484376L.095214847 .4970703 .14013672 .60302737H.18408203V.4819336H.3251953V.4321289H.18408203V.15283203C.18408203 .11311849 .1907552 .08504232 .20410156 .068603519 .21744792 .052164716 .23746746 .043945314 .26416017 .043945314 .27848307 .043945314 .2919922 .045898439 .3046875 .049804689 .3173828 .053710939 .3268229 .057454427 .3330078 .061035158V.020996094Z"/>
<path id="font_2_70" d="M.4321289 .037109376C.40966798 .025065104 .38435874 .013834636 .35620118 .0034179688 .3280436-.0069986979 .29703776-.012207031 .2631836-.012207031 .21663411-.012207031 .17618816-.0013020834 .1418457 .020507813 .10750326 .042317708 .080973308 .072021488 .06225586 .10961914 .04353841 .1472168 .034179689 .1899414 .034179689 .23779297 .034179689 .29378257 .045328779 .3408203 .06762695 .37890626 .08992513 .4169922 .119384769 .4457194 .15600586 .4650879 .19262696 .4844564 .23225911 .49414063 .27490235 .49414063 .31884767 .49414063 .3557129 .4855957 .38549806 .46850587 .4152832 .45141603 .43017579 .42659507 .43017579 .39404298 .43017579 .37451173 .42407228 .3597819 .41186524 .34985353 .3996582 .33992515 .38606773 .33496095 .37109376 .33496095 .36002604 .33496095 .3504232 .33683268 .34228517 .34057618 .33414714 .34431968 .3269857 .34814454 .32080079 .35205079V.43896485C.3055013 .4477539 .2915039 .45214845 .2788086 .45214845 .2491862 .45214845 .22371419 .44344078 .20239258 .4260254 .18107097 .40861003 .16471355 .38476563 .15332031 .3544922 .14192708 .32421876 .13623047 .28971354 .13623047 .25097657 .13623047 .2141927 .14241536 .18058269 .15478516 .15014649 .16715496 .11971029 .18562825 .09554037 .21020508 .07763672 .2347819 .059733076 .26529948 .05078125 .3017578 .05078125 .32486979 .05078125 .34700523 .05452474 .36816407 .06201172 .3893229 .069498699 .41064454 .08024088 .4321289 .09423828V.037109376Z"/>
<path id="font_2_76" d="M.21777344 .64697268C.21777344 .6300456 .21191406 .6154785 .20019531 .6032715 .18847656 .59106448 .17415364 .58496096 .15722656 .58496096 .14029949 .58496096 .12573242 .59106448 .11352539 .6032715 .10131836 .6154785 .095214847 .6300456 .095214847 .64697268 .095214847 .6642253 .10131836 .67871096 .11352539 .6904297 .12573242 .70214846 .14029949 .7080078 .15722656 .7080078 .17415364 .7080078 .18847656 .70214846 .20019531 .6904297 .21191406 .67871096 .21777344 .6642253 .21777344 .64697268M.26904298 0H.034179689V.0390625L.08300781 .041992189C.09700521 .04296875 .104003909 .05029297 .104003909 .063964847V.42089845H.03515625V.4560547L.15722656 .49414063H.19677735V.063964847C.19677735 .05777995 .19881185 .052652997 .20288086 .048583986 .20694988 .044514974 .21191406 .042317708 .21777344 .041992189L.26904298 .0390625V0Z"/>
<path id="font_2_83" d="M.52490237 .24804688C.52490237 .19563802 .5148112 .14990235 .4946289 .110839847 .47444663 .071777347 .44547526 .041503908 .40771485 .020019532 .36995445-.0014648438 .32470704-.012207031 .27197267-.012207031 .2569987-.012207031 .2421875-.011230469 .22753906-.009277344 .21289063-.0073242189 .19807942-.0052083337 .18310547-.0029296876V-.15185547C.18310547-.15804036 .18522136-.16292317 .18945313-.1665039 .19368489-.17008464 .19889324-.17220052 .20507813-.17285156L.26416017-.17919922V-.21777344H.020996094V-.17919922L.068847659-.17285156C.082845058-.17122396 .08984375-.16422527 .08984375-.15185547V.4111328H.020996094V.44384767L.14404297 .4819336H.18310547V.4321289C.20589192 .44970704 .23046875 .46443687 .25683595 .47631837 .28320313 .48819987 .30891929 .49414063 .33398438 .49414063 .3684896 .49414063 .40014649 .4839681 .42895509 .46362306 .45776368 .44327799 .48095704 .41471354 .49853517 .3779297 .5161133 .34114585 .52490237 .29785157 .52490237 .24804688M.4248047 .23388672C.4248047 .26839195 .41951499 .29996745 .40893556 .32861329 .3983561 .35725913 .3827311 .3802897 .36206056 .39770509 .34138999 .41512046 .31575523 .42382813 .28515626 .42382813 .26822917 .42382813 .25065104 .4207357 .23242188 .41455079 .2141927 .40836589 .1977539 .40152995 .18310547 .39404298V.049804689C.21044922 .03938802 .23746746 .034179689 .26416017 .034179689 .300944 .034179689 .33113609 .043619794 .35473634 .0625 .37833659 .08138021 .3959147 .106038417 .4074707 .13647461 .4190267 .16691081 .4248047 .19938152 .4248047 .23388672Z"/>
<path id="font_2_79" d="M.27001954 0H.026855469V.0390625L.080078128 .041992189C.084635417 .042317708 .08943685 .044840497 .09448242 .049560548 .09952799 .054280599 .10205078 .05875651 .10205078 .06298828V.66503909H.025878907V.6982422L.1538086 .7368164H.19482422V.06298828C.19482422 .05875651 .19726563 .054280599 .20214844 .049560548 .20703125 .044840497 .21158855 .042317708 .21582031 .041992189L.27001954 .0390625V0Z"/>
<path id="font_2_73" d="M.38916017 .6767578C.38916017 .66341146 .38582359 .6529134 .3791504 .6452637 .3724772 .63761398 .36539714 .63216146 .35791017 .62890627 .3504232 .62565109 .3453776 .62369796 .34277345 .6230469L.25097657 .6879883C.23665364 .6805013 .2232259 .66536459 .21069336 .6425781 .19816081 .6197917 .19189453 .58496096 .19189453 .53808596V.4741211H.31591798V.42285157H.19189453V.063964847C.19189453 .05777995 .19392903 .052652997 .19799805 .048583986 .20206706 .044514974 .20703125 .042317708 .21289063 .041992189L.27197267 .0390625V0H.028808594V.0390625L.078125 .041992189C.083984378 .042317708 .08894857 .044514974 .09301758 .048583986 .097086589 .052652997 .099121097 .05777995 .099121097 .063964847V.42285157H.03515625V.4580078L.099121097 .47607423C.099121097 .50895187 .10164388 .5362142 .10668945 .5578613 .11173502 .5795085 .12044271 .60221359 .1328125 .62597659 .15234375 .663737 .17749024 .6916504 .20825196 .7097168 .23901367 .7277832 .27067057 .7368164 .30322267 .7368164 .33154298 .7368164 .35294596 .7308757 .36743165 .71899417 .38191734 .7071126 .38916017 .6930339 .38916017 .6767578Z"/>
<path id="font_2_69" d="M.5209961 .26416017C.5209961 .21402996 .5110677 .16902669 .49121095 .12915039 .47135417 .089274089 .44026695 .05777995 .39794923 .03466797 .3556315 .011555989 .300944 0 .23388672 0H.08984375V.66503909H.014160156V.6982422L.1430664 .7368164H.18310547V.45703126C.1944987 .4625651 .212972 .47013346 .23852539 .47973634 .26407878 .4893392 .2915039 .49414063 .32080079 .49414063 .3647461 .49414063 .40152995 .4835612 .43115235 .46240235 .46077476 .4412435 .4831543 .41316734 .49829103 .37817384 .51342776 .34318034 .5209961 .30517579 .5209961 .26416017M.4189453 .24414063C.4189453 .30729167 .40559898 .35489909 .37890626 .3869629 .35221354 .4190267 .31461589 .4350586 .26611329 .4350586 .25504557 .4350586 .2409668 .43326823 .22387696 .4296875 .20678711 .42610679 .19319661 .42252604 .18310547 .4189453V.047851564C.19124349 .047526044 .19938152 .047281904 .20751953 .04711914 .21565755 .04695638 .22379558 .046875 .2319336 .046875 .29117839 .046875 .3371582 .061523439 .36987306 .09082031 .4025879 .12011719 .4189453 .17122396 .4189453 .24414063Z"/>
<path id="font_2_180" d="M.39208985 .70214846C.38264976 .69108077 .37141929 .6780599 .35839845 .66308596 .3453776 .648112 .33390299 .6312663 .3239746 .6125488 .31404624 .59383139 .30908204 .5732422 .30908204 .55078127 .30908204 .54752609 .30924479 .5440267 .3095703 .5402832 .30989585 .53653976 .3100586 .5333659 .3100586 .5307617H.37304688L.38061524 .5197754C.3856608 .5124512 .3881836 .5032552 .3881836 .4921875 .3881836 .4752604 .38264976 .46069337 .37158204 .44848634 .3605143 .4362793 .34602867 .43017579 .328125 .43017579 .30208335 .43017579 .28173829 .4388021 .26708985 .4560547 .2524414 .47330729 .24511719 .4962565 .24511719 .52490237 .24511719 .5489909 .24951172 .5710449 .25830079 .59106448 .26708985 .611084 .27775065 .62890627 .2902832 .64453127 .30281578 .66015627 .31510417 .67333987 .32714845 .68408206 .33919273 .6948242 .34847007 .703125 .35498048 .7089844L.39208985 .70214846M.18603516 .70214846C.16617839 .6822917 .14737956 .65966799 .12963867 .63427737 .11189779 .6088867 .103027347 .5807292 .103027347 .5498047 .103027347 .5465495 .1031901 .5432129 .103515628 .5397949 .10384115 .53637698 .104003909 .5333659 .104003909 .5307617H.16699219L.17456055 .5202637C.17960613 .51326498 .1821289 .50358077 .1821289 .49121095 .1821289 .47428385 .17667644 .45987956 .16577149 .44799806 .15486653 .43611656 .14029949 .43017579 .12207031 .43017579 .096354167 .43017579 .07609049 .43847657 .061279298 .45507813 .046468099 .4716797 .0390625 .49430339 .0390625 .5229492 .0390625 .5473633 .04345703 .56974288 .052246095 .5900879 .061035158 .6104329 .07169596 .6284993 .084228519 .6442871 .09676107 .6600749 .10904948 .67333987 .12109375 .68408206 .13313802 .6948242 .14241536 .703125 .14892578 .7089844L.18603516 .70214846Z"/>
<path id="font_2_44" d="M.296875 0H.033203126V.04296875L.09277344 .046875C.0999349 .047526044 .10522461 .050130208 .10864258 .0546875 .11206055 .059244794 .11376953 .063964847 .11376953 .068847659V.6020508C.11376953 .6069336 .11206055 .61157229 .10864258 .6159668 .10522461 .6203613 .0999349 .6227214 .09277344 .6230469L.033203126 .6269531V.67089846H.296875V.6269531L.23583985 .6230469C.2290039 .6227214 .22379558 .6203613 .22021485 .6159668 .21663411 .61157229 .21484375 .6069336 .21484375 .6020508V.068847659C.21484375 .063964847 .21663411 .059244794 .22021485 .0546875 .22379558 .050130208 .2290039 .047526044 .23583985 .046875L.296875 .04296875V0Z"/>
<path id="font_2_80" d="M.828125 0H.6040039V.0390625L.6459961 .041992189C.65999349 .04296875 .6669922 .05029297 .6669922 .063964847V.31884767C.6669922 .34977214 .6605632 .37451173 .6477051 .3930664 .634847 .4116211 .6116536 .42089845 .578125 .42089845 .56152346 .42089845 .5433757 .41829429 .52368167 .41308595 .5039876 .4078776 .48649089 .40120445 .4711914 .3930664V.063964847C.4711914 .05029297 .4781901 .04296875 .4921875 .041992189L.5341797 .0390625V0H.3149414V.0390625L.3569336 .041992189C.370931 .04296875 .3779297 .05029297 .3779297 .063964847V.3251953C.3779297 .35351563 .3712565 .37654624 .35791017 .3942871 .3445638 .41202799 .3219401 .42089845 .29003907 .42089845 .27115885 .42089845 .25146485 .4177246 .23095703 .41137696 .21044922 .4050293 .1944987 .39860026 .18310547 .39208985V.063964847C.18310547 .05029297 .19010417 .04296875 .20410156 .041992189L.24609375 .0390625V0H.020019532V.0390625L.068847659 .041992189C.082845058 .04296875 .08984375 .05029297 .08984375 .063964847V.4111328H.020996094V.44384767L.14208985 .4819336H.18310547V.4321289C.19807942 .4412435 .21492513 .45052085 .23364258 .45996095 .25236003 .46940104 .27148438 .47745768 .29101563 .48413087 .31054688 .49080406 .3289388 .49414063 .3461914 .49414063 .37516276 .49414063 .39860026 .48673503 .4165039 .47192384 .43440757 .45711265 .44759117 .44140626 .4560547 .4248047 .46940104 .43326823 .48632813 .44295249 .50683596 .45385743 .52734377 .46476237 .548584 .47420249 .57055667 .48217774 .5925293 .49015299 .6123047 .49414063 .6298828 .49414063 .66503909 .49414063 .69189456 .48608399 .7104492 .4699707 .7290039 .45385743 .7416992 .43400065 .74853518 .4104004 .7553711 .38680015 .75878909 .36360679 .75878909 .3408203V.063964847C.75878909 .05777995 .76082357 .052652997 .7648926 .048583986 .7689616 .044514974 .7739258 .042317708 .77978518 .041992189L.828125 .0390625V0Z"/>
<path id="font_2_71" d="M.53808596 0H.38085938V.053222658C.3580729 .03564453 .33382163 .020345053 .30810548 .0073242189 .2823893-.0056966149 .25504557-.012207031 .22607422-.012207031 .19254558-.012207031 .1636556-.005126953 .1394043 .009033203 .11515299 .02319336 .09529623 .041992189 .079833988 .06542969 .06437174 .08886719 .052897138 .114746097 .045410158 .1430664 .037923177 .17138672 .034179689 .19970703 .034179689 .22802735 .034179689 .27327476 .04345703 .3161621 .06201172 .35668946 .080566409 .3972168 .10872396 .43025718 .14648438 .45581056 .1842448 .48136393 .23177083 .49414063 .2890625 .49414063 .30501304 .49414063 .32234703 .4925944 .34106446 .48950196 .3597819 .48640953 .37304688 .48388673 .38085938 .4819336V.66503909H.30517579V.6982422L.43408204 .7368164H.4741211V.063964847C.4741211 .05029297 .48111979 .04296875 .4951172 .041992189L.53808596 .0390625V0M.38085938 .09082031V.43115235C.37239585 .43408204 .3597819 .43725587 .34301759 .44067384 .32625328 .4440918 .31054688 .44580079 .29589845 .44580079 .24641927 .44580079 .20686849 .42749024 .1772461 .39086915 .1476237 .35424806 .1328125 .30566407 .1328125 .24511719 .1328125 .1907552 .14550781 .14567058 .17089844 .10986328 .19628906 .07405599 .2319336 .056152345 .27783204 .056152345 .2980143 .056152345 .31697593 .059977216 .3347168 .06762695 .35245768 .075276698 .36783854 .08300781 .38085938 .09082031Z"/>
<path id="font_2_92" d="M.52001956 .4428711 .46777345 .43701173 .2758789-.030761719C.27164714-.041503908 .26505534-.056884767 .25610353-.0769043 .24715169-.09692383 .23657227-.11743164 .22436524-.13842774 .2121582-.15942383 .19905599-.17692058 .1850586-.19091797 .17301433-.20296224 .15974935-.21232097 .14526367-.21899414 .130778-.22566732 .11507162-.2290039 .09814453-.2290039 .07438151-.2290039 .056233724-.2232259 .043701173-.21166992 .03116862-.20011394 .024902344-.18684896 .024902344-.171875 .024902344-.14973958 .03564453-.12972005 .057128908-.111816409L.1508789-.15478516C.16194661-.14371746 .17301433-.12874349 .18408203-.10986328 .19514974-.09098307 .2051595-.07145182 .21411133-.05126953 .22306316-.03108724 .22998047-.013671875 .23486328 .0009765625L.064941409 .43701173 .009765625 .4428711V.4819336H.23095703V.4428711L.18310547 .4399414C.17757161 .43961589 .1730957 .43725587 .16967774 .43286134 .16625977 .4284668 .16569011 .4235026 .16796875 .41796876L.2841797 .123046878 .40283204 .41796876C.4051107 .4231771 .40478517 .4280599 .40185548 .4326172 .39892579 .43717448 .394694 .43961589 .38916017 .4399414L.34179688 .4428711V.4819336H.52001956V.4428711Z"/>
<path id="font_2_85" d="M.38085938 .3798828H.34179688C.33561198 .38736979 .3282064 .39379884 .31958009 .39916993 .31095378 .40454103 .30045573 .40722657 .28808595 .40722657 .2721354 .40722657 .25577799 .40169273 .23901367 .390625 .22224935 .37955729 .20524089 .36442057 .18798828 .34521485V.063964847C.18798828 .04996745 .19498699 .04264323 .20898438 .041992189L.27490235 .0390625V0H.024902344V.038085939L.07421875 .041992189C.080078128 .04264323 .08504232 .044921876 .08911133 .048828126 .093180339 .052734376 .095214847 .05777995 .095214847 .063964847V.4111328H.022949219V.44384767L.14697266 .4819336H.18798828V.3930664C.2163086 .425944 .2409668 .45100913 .2619629 .46826173 .28295899 .4855143 .3022461 .49414063 .31982423 .49414063 .33024089 .49414063 .34147135 .49251304 .35351563 .4892578 .3655599 .4860026 .37467448 .48258464 .38085938 .4790039V.3798828Z"/>
<path id="font_2_75" d="M.55078127 0H.328125V.0390625L.36914063 .041992189C.375 .04264323 .38012696 .044921876 .38452149 .048828126 .38891603 .052734376 .39111329 .05777995 .39111329 .063964847V.32177735C.39111329 .3504232 .38427735 .37410484 .37060548 .39282228 .3569336 .4115397 .33072917 .42089845 .2919922 .42089845 .27441407 .42089845 .25545249 .4181315 .23510742 .41259767 .21476238 .4070638 .19742839 .40022788 .18310547 .39208985V.063964847C.18310547 .05029297 .18977864 .04296875 .203125 .041992189L.24609375 .0390625V0H.020996094V.0390625L.068847659 .041992189C.082845058 .04296875 .08984375 .05029297 .08984375 .063964847V.66503909H.015136719V.6982422L.1430664 .7368164H.18310547V.4321289C.19514974 .43961589 .21077474 .4481608 .22998047 .45776368 .2491862 .46736656 .2693685 .47583009 .29052735 .4831543 .3116862 .49047853 .33089195 .49414063 .34814454 .49414063 .386556 .49414063 .41878257 .48177085 .44482423 .45703126 .47086589 .43229167 .48388673 .39420573 .48388673 .34277345V.063964847C.48388673 .05777995 .48608399 .052734376 .49047853 .048828126 .49487306 .044921876 .5 .04264323 .5058594 .041992189L.55078127 .0390625V0Z"/>
<path id="font_2_90" d="M.7729492 .4428711 .72216799 .43701173 .58496096 0H.51416018L.3959961 .37402345 .26416017 0H.1928711L.064941409 .43701173 .009765625 .4428711V.4819336H.2290039V.4428711L.1821289 .4399414C.17659505 .43961589 .17236328 .43725587 .1694336 .43286134 .1665039 .4284668 .16569011 .4235026 .16699219 .41796876L.25 .106933597 .37890626 .4819336H.4501953L.56591799 .106933597 .6582031 .41796876C.65983077 .4231771 .65926107 .4280599 .65649417 .4326172 .65372726 .43717448 .64957687 .43961589 .64404299 .4399414L.59814456 .4428711V.4819336H.7729492V.4428711Z"/>
<path id="font_2_17" d="M.19580078 .05517578C.19580078 .036621095 .18912761 .020751954 .17578125 .0075683596 .16243489-.0056152346 .14648438-.012207031 .12792969-.012207031 .109375-.012207031 .09358724-.0056152346 .080566409 .0075683596 .06754557 .020751954 .061035158 .036621095 .061035158 .05517578 .061035158 .073404949 .06754557 .08911133 .080566409 .10229492 .09358724 .115478519 .109375 .12207031 .12792969 .12207031 .14648438 .12207031 .16243489 .115478519 .17578125 .10229492 .18912761 .08911133 .19580078 .073404949 .19580078 .05517578Z"/>
<path id="font_2_181" d="M.4140625 .61621096C.4140625 .5917969 .40966798 .5694173 .4008789 .54907229 .39208985 .52872726 .38142906 .5106608 .36889649 .49487306 .35636393 .4790853 .34407554 .4658203 .33203126 .45507813 .31998698 .44433595 .31070964 .43603517 .30419923 .43017579L.26708985 .43798829C.28727214 .45817057 .3063151 .48079429 .32421876 .5058594 .3421224 .5309245 .35107423 .55891928 .35107423 .58984377 .35107423 .5934245 .3507487 .59676107 .35009767 .5998535 .34944663 .602946 .3491211 .60563156 .3491211 .60791018H.2861328L.27856446 .6191406C.2735189 .6266276 .2709961 .63655599 .2709961 .6489258 .2709961 .6661784 .27652995 .6805013 .28759767 .69189456 .29866538 .7032878 .31315104 .7089844 .3310547 .7089844 .3564453 .7089844 .3766276 .70060226 .39160157 .6838379 .40657554 .66707357 .4140625 .64453127 .4140625 .61621096M.20800781 .6152344C.20800781 .5911458 .20361328 .5690918 .19482422 .54907229 .18603516 .52905276 .17537435 .5111491 .1628418 .49536134 .15030925 .47957359 .13802083 .4662272 .12597656 .45532228 .11393229 .44441734 .104654949 .43603517 .09814453 .43017579L.061035158 .43798829C.07047526 .449056 .08170573 .46199546 .09472656 .47680665 .1077474 .49161784 .11922201 .5083008 .12915039 .52685549 .13907878 .54541018 .14404297 .5657552 .14404297 .5878906 .14404297 .5914714 .1438802 .5951335 .14355469 .59887698 .14322917 .6026204 .1430664 .60563156 .1430664 .60791018H.080078128L.072509769 .6196289C.067464198 .6274414 .064941409 .63688156 .064941409 .6479492 .064941409 .66520187 .07063802 .6796875 .08203125 .69140627 .09342448 .703125 .108072917 .7089844 .12597656 .7089844 .15201824 .7089844 .17220052 .70043948 .18652344 .6833496 .20084636 .66625979 .20800781 .6435547 .20800781 .6152344Z"/>
</defs>
<use data-text="&#x062e;" xlink:href="#font_1_1206" transform="matrix(16.438357,0,0,-16.438357,106.736858,182.7144)" fill="#343a40"/>
<use data-text="&#x064e;" xlink:href="#font_1_728" transform="matrix(16.438357,0,0,-16.438357,109.032,180.6123)" fill="#343a40"/>
<use data-text="&#x0631;" xlink:href="#font_1_1213" transform="matrix(16.438357,0,0,-16.438357,100.38765,182.7144)" fill="#343a40"/>
<use data-text="&#x064e;" xlink:href="#font_1_728" transform="matrix(16.438357,0,0,-16.438357,101.2704,185.0904)" fill="#343a40"/>
<use data-text="&#x062c;" xlink:href="#font_1_1198" transform="matrix(16.438357,0,0,-16.438357,90.65925,182.7144)" fill="#343a40"/>
<use data-text="&#x0652;" xlink:href="#font_1_737" transform="matrix(16.438357,0,0,-16.438357,93.42795,181.5198)" fill="#343a40"/>
<use data-text="&#x0646;" xlink:href="#font_1_1273" transform="matrix(16.438357,0,0,-16.438357,85.1202,182.7144)" fill="#343a40"/>
<use data-text="&#x064e;" xlink:href="#font_1_728" transform="matrix(16.438357,0,0,-16.438357,85.20105,182.16989)" fill="#343a40"/>
<use data-text="&#x0627;" xlink:href="#font_1_1173" transform="matrix(16.438357,0,0,-16.438357,80.81865,182.7144)" fill="#343a40"/>
<use data-text="&#x0645;" xlink:href="#font_1_1266" transform="matrix(16.438357,0,0,-16.438357,67.65152,182.7144)" fill="#343a40"/>
<use data-text="&#x0650;" xlink:href="#font_1_731" transform="matrix(16.438357,0,0,-16.438357,69.9501,182.5791)" fill="#343a40"/>
<use data-text="&#x0646;" xlink:href="#font_1_1271" transform="matrix(16.438357,0,0,-16.438357,55.783197,182.7144)" fill="#343a40"/>
<use data-text="&#x064e;" xlink:href="#font_1_728" transform="matrix(16.438357,0,0,-16.438357,58.801054,183.975)" fill="#343a40"/>
<use data-text="&#x0671;" xlink:href="#font_1_781" transform="matrix(16.438357,0,0,-16.438357,47.5563,182.7144)" fill="#343a40"/>
<use data-text="&#x0644;" xlink:href="#font_1_1262" transform="matrix(16.438357,0,0,-16.438357,42.822057,182.7144)" fill="#343a40"/>
<use data-text="&#x0652;" xlink:href="#font_1_737" transform="matrix(16.438357,0,0,-16.438357,43.8405,178.1802)" fill="#343a40"/>
<use data-text="&#x0645;" xlink:href="#font_1_1268" transform="matrix(16.438357,0,0,-16.438357,33.397649,182.7144)" fill="#343a40"/>
<use data-text="&#x064e;" xlink:href="#font_1_728" transform="matrix(16.438357,0,0,-16.438357,35.9106,183.88755)" fill="#343a40"/>
<use data-text="&#x062f;" xlink:href="#font_1_1209" transform="matrix(16.438357,0,0,-16.438357,24.6576,182.7144)" fill="#343a40"/>
<use data-text="&#x0650;" xlink:href="#font_1_731" transform="matrix(16.438357,0,0,-16.438357,25.80435,182.61045)" fill="#343a40"/>
<use data-text="&#x064a;" xlink:href="#font_1_1285" transform="matrix(16.438357,0,0,-16.438357,19.536,182.7144)" fill="#343a40"/>
<use data-text="&#x0646;" xlink:href="#font_1_1273" transform="matrix(16.438357,0,0,-16.438357,14.012711,182.7144)" fill="#343a40"/>
<use data-text="&#x064e;" xlink:href="#font_1_728" transform="matrix(16.438357,0,0,-16.438357,14.077799,182.16989)" fill="#343a40"/>
<use data-text="&#x0629;" xlink:href="#font_1_1183" transform="matrix(16.438357,0,0,-16.438357,5.4730498,182.7144)" fill="#343a40"/>
<use data-text="&#x0650;" xlink:href="#font_1_731" transform="matrix(16.438357,0,0,-16.438357,7.3754999,182.53125)" fill="#343a40"/>
<use data-text="&#x064a;" xlink:href="#font_1_1287" transform="matrix(16.438357,0,0,-16.438357,149.28542,182.7144)" fill="#343a40"/>
<use data-text="&#x064e;" xlink:href="#font_1_728" transform="matrix(16.438357,0,0,-16.438357,150.4965,184.1763)" fill="#343a40"/>
<use data-text="&#x0648;" xlink:href="#font_1_1280" transform="matrix(16.438357,0,0,-16.438357,141.97261,182.7144)" fill="#343a40"/>
<use data-text="&#x0652;" xlink:href="#font_1_737" transform="matrix(16.438357,0,0,-16.438357,143.85855,181.9686)" fill="#343a40"/>
<use data-text="&#x0645;" xlink:href="#font_1_718" transform="matrix(16.438357,0,0,-16.438357,132.19637,182.7144)" fill="#343a40"/>
<use data-text="&#x064e;" xlink:href="#font_1_728" transform="matrix(16.438357,0,0,-16.438357,135.92041,183.98325)" fill="#343a40"/>
<use data-text="&#x0635;" xlink:href="#font_1_1226" transform="matrix(16.438357,0,0,-16.438357,252.78658,182.7144)" fill="#343a40"/>
<use data-text="&#x064e;" xlink:href="#font_1_728" transform="matrix(16.438357,0,0,-16.438357,259.771,182.82)" fill="#343a40"/>
<use data-text="&#x062d;" xlink:href="#font_1_1203" transform="matrix(16.438357,0,0,-16.438357,241.58142,182.7144)" fill="#343a40"/>
<use data-text="&#x064e;" xlink:href="#font_1_728" transform="matrix(16.438357,0,0,-16.438357,243.69342,183.1962)" fill="#343a40"/>
<use data-text="&#x0628;" xlink:href="#font_1_1179" transform="matrix(16.438357,0,0,-16.438357,235.88399,182.7144)" fill="#343a40"/>
<use data-text="&#x0652;" xlink:href="#font_1_737" transform="matrix(16.438357,0,0,-16.438357,237.07198,183.12525)" fill="#343a40"/>
<use data-text="&#x062a;" xlink:href="#font_1_1185" transform="matrix(16.438357,0,0,-16.438357,220.60828,182.7144)" fill="#343a40"/>
<use data-text="&#x064f;" xlink:href="#font_1_730" transform="matrix(16.438357,0,0,-16.438357,225.56983,180.95716)" fill="#343a40"/>
<use data-text="&#x0635;" xlink:href="#font_1_1226" transform="matrix(16.438357,0,0,-16.438357,202.44509,182.7144)" fill="#343a40"/>
<use data-text="&#x064e;" xlink:href="#font_1_728" transform="matrix(16.438357,0,0,-16.438357,209.42789,182.82)" fill="#343a40"/>
<use data-text="&#x062f;" xlink:href="#font_1_1209" transform="matrix(16.438357,0,0,-16.438357,193.70339,182.7144)" fill="#343a40"/>
<use data-text="&#x0650;" xlink:href="#font_1_731" transform="matrix(16.438357,0,0,-16.438357,194.85179,182.61045)" fill="#343a40"/>
<use data-text="&#x064a;" xlink:href="#font_1_1285" transform="matrix(16.438357,0,0,-16.438357,188.58344,182.7144)" fill="#343a40"/>
<use data-text="&#x0642;" xlink:href="#font_1_1255" transform="matrix(16.438357,0,0,-16.438357,180.41358,182.7144)" fill="#343a40"/>
<use data-text="&#x0650;" xlink:href="#font_1_731" transform="matrix(16.438357,0,0,-16.438357,182.20124,182.53125)" fill="#343a40"/>
<use data-text="&#x064a;" xlink:href="#font_1_1284" transform="matrix(16.438357,0,0,-16.438357,169.73714,182.7144)" fill="#343a40"/>
<path transform="matrix(1.65,0,0,-1.65,.6567,182.7144)" stroke-width=".3985" stroke-linecap="butt" stroke-miterlimit="10" stroke-linejoin="miter" fill="none" stroke="#343a40" d="M76.60356 9.52156C76.97716 10.26877 77.8489 10.7669 79.09425 10.7669H84.22868C85.47403 10.7669 86.34578 11.26503 86.71938 12.01225 87.09296 11.26503 87.96472 10.7669 89.21007 10.7669H94.34448C95.58983 10.7669 96.4616 10.26877 96.83517 9.52156"/>
<use data-text="a" xlink:href="#font_2_68" transform="matrix(0,-11.506852,-11.506852,-0,147.70307,161.19673)" fill="#343a40"/>
<use data-text="n" xlink:href="#font_2_81" transform="matrix(0,-11.506852,-11.506852,-0,147.70307,155.33975)" fill="#343a40"/>
<use data-text="n" xlink:href="#font_2_81" transform="matrix(0,-11.506852,-11.506852,-0,147.70307,148.81537)" fill="#343a40"/>
<use data-text="e" xlink:href="#font_2_72" transform="matrix(0,-11.506852,-11.506852,-0,147.70307,142.29099)" fill="#343a40"/>
<use data-text="x" xlink:href="#font_2_91" transform="matrix(0,-11.506852,-11.506852,-0,147.70307,136.65264)" fill="#343a40"/>
<use data-text="e" xlink:href="#font_2_72" transform="matrix(0,-11.506852,-11.506852,-0,147.70307,130.94524)" fill="#343a40"/>
<use data-text="n" xlink:href="#font_2_81" transform="matrix(0,-11.506852,-11.506852,-0,147.70307,121.946887)" fill="#343a40"/>
<use data-text="o" xlink:href="#font_2_82" transform="matrix(0,-11.506852,-11.506852,-0,147.70307,115.4225)" fill="#343a40"/>
<use data-text="u" xlink:href="#font_2_88" transform="matrix(0,-11.506852,-11.506852,-0,147.70307,109.162769)" fill="#343a40"/>
<use data-text="n" xlink:href="#font_2_81" transform="matrix(0,-11.506852,-11.506852,-0,147.70307,102.61537)" fill="#343a40"/>
<path transform="matrix(1.65,0,0,-1.65,.6567,182.7144)" stroke-width=".3985" stroke-linecap="butt" stroke-miterlimit="10" stroke-linejoin="miter" fill="none" stroke="#343a40" d="M-.19925 9.52156C.17433 10.26877 1.04608 10.7669 2.29143 10.7669H34.45132C35.69667 10.7669 36.56842 11.26503 36.94202 12.01225 37.3156 11.26503 38.18736 10.7669 39.43271 10.7669H71.5926C72.83795 10.7669 73.7097 10.26877 74.0833 9.52156"/>
<use data-text="s" xlink:href="#font_2_86" transform="matrix(0,-11.506852,-11.506852,-0,65.572658,161.19675)" fill="#343a40"/>
<use data-text="e" xlink:href="#font_2_72" transform="matrix(0,-11.506852,-11.506852,-0,65.572658,156.61704)" fill="#343a40"/>
<use data-text="n" xlink:href="#font_2_81" transform="matrix(0,-11.506852,-11.506852,-0,65.572658,150.97867)" fill="#343a40"/>
<use data-text="t" xlink:href="#font_2_87" transform="matrix(0,-11.506852,-11.506852,-0,65.572658,144.45429)" fill="#343a40"/>
<use data-text="e" xlink:href="#font_2_72" transform="matrix(0,-11.506852,-11.506852,-0,65.572658,140.54196)" fill="#343a40"/>
<use data-text="n" xlink:href="#font_2_81" transform="matrix(0,-11.506852,-11.506852,-0,65.572658,134.9036)" fill="#343a40"/>
<use data-text="c" xlink:href="#font_2_70" transform="matrix(0,-11.506852,-11.506852,-0,65.572658,128.37921)" fill="#343a40"/>
<use data-text="e" xlink:href="#font_2_72" transform="matrix(0,-11.506852,-11.506852,-0,65.572658,123.01702)" fill="#343a40"/>
<use data-text="i" xlink:href="#font_2_76" transform="matrix(0,-11.506852,-11.506852,-0,65.572658,114.00716)" fill="#343a40"/>
<use data-text="n" xlink:href="#font_2_81" transform="matrix(0,-11.506852,-11.506852,-0,65.572658,110.520587)" fill="#343a40"/>
<use data-text="p" xlink:href="#font_2_83" transform="matrix(0,-11.506852,-11.506852,-0,65.572658,100.6247)" fill="#343a40"/>
<use data-text="l" xlink:href="#font_2_79" transform="matrix(0,-11.506852,-11.506852,-0,65.572658,94.19237)" fill="#343a40"/>
<use data-text="a" xlink:href="#font_2_68" transform="matrix(0,-11.506852,-11.506852,-0,65.572658,90.774829)" fill="#343a40"/>
<use data-text="c" xlink:href="#font_2_70" transform="matrix(0,-11.506852,-11.506852,-0,65.572658,84.91785)" fill="#343a40"/>
<use data-text="e" xlink:href="#font_2_72" transform="matrix(0,-11.506852,-11.506852,-0,65.572658,79.55565)" fill="#343a40"/>
<use data-text="o" xlink:href="#font_2_82" transform="matrix(0,-11.506852,-11.506852,-0,65.572658,70.54579)" fill="#343a40"/>
<use data-text="f" xlink:href="#font_2_73" transform="matrix(0,-11.506852,-11.506852,-0,65.572658,64.28606)" fill="#343a40"/>
<use data-text="b" xlink:href="#font_2_69" transform="matrix(0,-11.506852,-11.506852,-0,65.572658,57.163316)" fill="#343a40"/>
<use data-text="a" xlink:href="#font_2_68" transform="matrix(0,-11.506852,-11.506852,-0,65.572658,50.777025)" fill="#343a40"/>
<use data-text="s" xlink:href="#font_2_86" transform="matrix(0,-11.506852,-11.506852,-0,65.572658,44.92003)" fill="#343a40"/>
<use data-text="e" xlink:href="#font_2_72" transform="matrix(0,-11.506852,-11.506852,-0,65.572658,40.3403)" fill="#343a40"/>
<use data-text="n" xlink:href="#font_2_81" transform="matrix(0,-11.506852,-11.506852,-0,65.572658,31.33046)" fill="#343a40"/>
<use data-text="o" xlink:href="#font_2_82" transform="matrix(0,-11.506852,-11.506852,-0,65.572658,24.806077)" fill="#343a40"/>
<use data-text="u" xlink:href="#font_2_88" transform="matrix(0,-11.506852,-11.506852,-0,65.572658,18.54634)" fill="#343a40"/>
<use data-text="n" xlink:href="#font_2_81" transform="matrix(0,-11.506852,-11.506852,-0,65.572658,11.998932)" fill="#343a40"/>
<path transform="matrix(1.65,0,0,-1.65,.6567,182.7144)" stroke-width=".3985" stroke-linecap="butt" stroke-miterlimit="10" stroke-linejoin="miter" fill="none" stroke="#343a40" d="M-.19925-4.72015C.17433-5.46736 1.04608-5.9655 2.29143-5.9655H45.82727C47.07262-5.9655 47.94437-6.46362 48.31796-7.21085 48.69154-6.46362 49.56331-5.9655 50.80865-5.9655H94.34448C95.58983-5.9655 96.4616-5.46736 96.83517-4.72015"/>
<use data-text="a" xlink:href="#font_2_68" transform="matrix(11.506852,0,0,-11.506852,52.1598,206.2137)" fill="#343a40"/>
<use data-text="n" xlink:href="#font_2_81" transform="matrix(11.506852,0,0,-11.506852,58.016794,206.2137)" fill="#343a40"/>
<use data-text="n" xlink:href="#font_2_81" transform="matrix(11.506852,0,0,-11.506852,64.54118,206.2137)" fill="#343a40"/>
<use data-text="e" xlink:href="#font_2_72" transform="matrix(11.506852,0,0,-11.506852,71.06557,206.2137)" fill="#343a40"/>
<use data-text="x" xlink:href="#font_2_91" transform="matrix(11.506852,0,0,-11.506852,76.70392,206.2137)" fill="#343a40"/>
<use data-text="a" xlink:href="#font_2_68" transform="matrix(11.506852,0,0,-11.506852,82.57242,206.2137)" fill="#343a40"/>
<use data-text="t" xlink:href="#font_2_87" transform="matrix(11.506852,0,0,-11.506852,88.42941,206.2137)" fill="#343a40"/>
<use data-text="i" xlink:href="#font_2_76" transform="matrix(11.506852,0,0,-11.506852,92.341739,206.2137)" fill="#343a40"/>
<use data-text="o" xlink:href="#font_2_82" transform="matrix(11.506852,0,0,-11.506852,95.82831,206.2137)" fill="#343a40"/>
<use data-text="n" xlink:href="#font_2_81" transform="matrix(11.506852,0,0,-11.506852,102.08804,206.2137)" fill="#343a40"/>
<use data-text="&#x201c;" xlink:href="#font_2_180" transform="matrix(16.438357,0,0,-16.438357,6.4647,234.20926)" fill="#343a40"/>
<use data-text="I" xlink:href="#font_2_44" transform="matrix(16.438357,0,0,-16.438357,13.911276,234.20926)" fill="#343a40"/>
<use data-text="a" xlink:href="#font_2_68" transform="matrix(16.438357,0,0,-16.438357,24.15237,234.20926)" fill="#343a40"/>
<use data-text="c" xlink:href="#font_2_70" transform="matrix(16.438357,0,0,-16.438357,32.519495,234.20926)" fill="#343a40"/>
<use data-text="c" xlink:href="#font_2_70" transform="matrix(16.438357,0,0,-16.438357,40.179769,234.20926)" fill="#343a40"/>
<use data-text="o" xlink:href="#font_2_82" transform="matrix(16.438357,0,0,-16.438357,47.840044,234.20926)" fill="#343a40"/>
<use data-text="m" xlink:href="#font_2_80" transform="matrix(16.438357,0,0,-16.438357,56.78251,234.20926)" fill="#343a40"/>
<use data-text="p" xlink:href="#font_2_83" transform="matrix(16.438357,0,0,-16.438357,70.75511,234.20926)" fill="#343a40"/>
<use data-text="a" xlink:href="#font_2_68" transform="matrix(16.438357,0,0,-16.438357,79.94415,234.20926)" fill="#343a40"/>
<use data-text="n" xlink:href="#font_2_81" transform="matrix(16.438357,0,0,-16.438357,88.31127,234.20926)" fill="#343a40"/>
<use data-text="i" xlink:href="#font_2_76" transform="matrix(16.438357,0,0,-16.438357,97.63182,234.20926)" fill="#343a40"/>
<use data-text="e" xlink:href="#font_2_72" transform="matrix(16.438357,0,0,-16.438357,102.61264,234.20926)" fill="#343a40"/>
<use data-text="d" xlink:href="#font_2_71" transform="matrix(16.438357,0,0,-16.438357,110.667438,234.20926)" fill="#343a40"/>
<use data-text="m" xlink:href="#font_2_80" transform="matrix(16.438357,0,0,-16.438357,124.755107,234.20926)" fill="#343a40"/>
<use data-text="y" xlink:href="#font_2_92" transform="matrix(16.438357,0,0,-16.438357,138.25099,234.20926)" fill="#343a40"/>
<use data-text="f" xlink:href="#font_2_73" transform="matrix(16.438357,0,0,-16.438357,151.76332,234.20926)" fill="#343a40"/>
<use data-text="r" xlink:href="#font_2_85" transform="matrix(16.438357,0,0,-16.438357,157.12221,234.20926)" fill="#343a40"/>
<use data-text="i" xlink:href="#font_2_76" transform="matrix(16.438357,0,0,-16.438357,163.5496,234.20926)" fill="#343a40"/>
<use data-text="e" xlink:href="#font_2_72" transform="matrix(16.438357,0,0,-16.438357,168.53043,234.20926)" fill="#343a40"/>
<use data-text="n" xlink:href="#font_2_81" transform="matrix(16.438357,0,0,-16.438357,176.58522,234.20926)" fill="#343a40"/>
<use data-text="d" xlink:href="#font_2_71" transform="matrix(16.438357,0,0,-16.438357,185.90578,234.20926)" fill="#343a40"/>
<use data-text="t" xlink:href="#font_2_87" transform="matrix(16.438357,0,0,-16.438357,199.99344,234.20926)" fill="#343a40"/>
<use data-text="h" xlink:href="#font_2_75" transform="matrix(16.438357,0,0,-16.438357,205.51673,234.20926)" fill="#343a40"/>
<use data-text="e" xlink:href="#font_2_72" transform="matrix(16.438357,0,0,-16.438357,214.95235,234.20926)" fill="#343a40"/>
<use data-text="d" xlink:href="#font_2_71" transform="matrix(16.438357,0,0,-16.438357,227.80715,234.20926)" fill="#343a40"/>
<use data-text="a" xlink:href="#font_2_68" transform="matrix(16.438357,0,0,-16.438357,237.07839,234.20926)" fill="#343a40"/>
<use data-text="y" xlink:href="#font_2_92" transform="matrix(16.438357,0,0,-16.438357,244.98522,234.20926)" fill="#343a40"/>
<use data-text="w" xlink:href="#font_2_90" transform="matrix(16.438357,0,0,-16.438357,258.49754,234.20926)" fill="#343a40"/>
<use data-text="e" xlink:href="#font_2_72" transform="matrix(16.438357,0,0,-16.438357,271.13865,234.20926)" fill="#343a40"/>
<use data-text="l" xlink:href="#font_2_79" transform="matrix(16.438357,0,0,-16.438357,283.99345,234.20926)" fill="#343a40"/>
<use data-text="e" xlink:href="#font_2_72" transform="matrix(16.438357,0,0,-16.438357,288.87565,234.20926)" fill="#343a40"/>
<use data-text="f" xlink:href="#font_2_73" transform="matrix(16.438357,0,0,-16.438357,296.93043,234.20926)" fill="#343a40"/>
<use data-text="t" xlink:href="#font_2_87" transform="matrix(16.438357,0,0,-16.438357,302.28935,234.20926)" fill="#343a40"/>
<use data-text="t" xlink:href="#font_2_87" transform="matrix(16.438357,0,0,-16.438357,312.69483,234.20926)" fill="#343a40"/>
<use data-text="h" xlink:href="#font_2_75" transform="matrix(16.438357,0,0,-16.438357,318.21809,234.20926)" fill="#343a40"/>
<use data-text="e" xlink:href="#font_2_72" transform="matrix(16.438357,0,0,-16.438357,327.6537,234.20926)" fill="#343a40"/>
<use data-text="c" xlink:href="#font_2_70" transform="matrix(16.438357,0,0,-16.438357,340.52494,234.20926)" fill="#343a40"/>
<use data-text="i" xlink:href="#font_2_76" transform="matrix(16.438357,0,0,-16.438357,348.1852,234.20926)" fill="#343a40"/>
<use data-text="t" xlink:href="#font_2_87" transform="matrix(16.438357,0,0,-16.438357,353.16606,234.20926)" fill="#343a40"/>
<use data-text="y" xlink:href="#font_2_92" transform="matrix(16.438357,0,0,-16.438357,358.75508,234.20926)" fill="#343a40"/>
<use data-text="." xlink:href="#font_2_17" transform="matrix(16.438357,0,0,-16.438357,366.1852,234.20926)" fill="#343a40"/>
<use data-text="&#x201d;" xlink:href="#font_2_181" transform="matrix(16.438357,0,0,-16.438357,369.19346,234.20926)" fill="#343a40"/>
</svg>
