<svg xmlns="http://www.w3.org/2000/svg" xmlns:xlink="http://www.w3.org/1999/xlink" xmlns:inkscape="http://www.inkscape.org/namespaces/inkscape" version="1.1" width="131.86614" height="163.57273" viewBox="0 0 131.86614 163.57273">
<defs>
<path id="font_1_781" d="M.15722656 .6088867V.00048828127H.07470703V.6088867H.15722656M-.025390625 .6904297-.016601563 .73095706C-.012369792 .7273763-.006754557 .72281906 .00024414063 .71728518 .0072428386 .7117513 .013671875 .70784506 .01953125 .7055664 .045898439 .7501628 .069742839 .7821452 .09106445 .8015137 .11238607 .82088217 .13590496 .8305664 .1616211 .8305664 .18766277 .8305664 .20898438 .8224284 .22558594 .80615237 .2421875 .7898763 .25048829 .76953127 .25048829 .7451172 .25048829 .7125651 .23909505 .6897786 .2163086 .6767578 .19352214 .663737 .15413411 .65722659 .09814453 .65722659H.0859375C.056640626 .65722659 .032552083 .6599121 .013671875 .6652832-.0052083337 .6706543-.018229166 .67903646-.025390625 .6904297M.09716797 .69921877C.13916016 .69921877 .16837566 .7020671 .18481446 .7077637 .20125325 .71346029 .20947266 .72526046 .20947266 .74316409 .20947266 .7558594 .20532227 .7664388 .19702149 .77490237 .1887207 .7833659 .17773438 .78759768 .1640625 .78759768 .14615886 .78759768 .13004558 .7809245 .115722659 .7675781 .10139974 .75423178 .08382162 .7314453 .06298828 .69921877H.09716797Z"/>
<path id="font_1_1262" d="M-.009765625 .08886719H.03125C.0703125 .08886719 .09667969 .0999349 .11035156 .12207031 .12402344 .14420574 .13085938 .171875 .13085938 .20507813V.6723633H.2133789V.2055664C.2133789 .13785808 .19873047 .08666992 .1694336 .052001954 .14013672 .017333985 .09391276 0 .030761719 0H-.009765625V.08886719Z"/>
<path id="font_1_737" d="M.020507813 .5673828C.020507813 .5908203 .028889975 .6110026 .045654298 .6279297 .06241862 .64485678 .08251953 .6533203 .10595703 .6533203 .12939453 .6533203 .14949544 .64485678 .16625977 .6279297 .1830241 .6110026 .19140625 .5908203 .19140625 .5673828 .19140625 .5439453 .1830241 .5238444 .16625977 .5070801 .14949544 .49031578 .12939453 .4819336 .10595703 .4819336 .08251953 .4819336 .06241862 .49031578 .045654298 .5070801 .028889975 .5238444 .020507813 .5439453 .020507813 .5673828M.059570314 .5673828C.059570314 .554362 .06404623 .54345706 .07299805 .53466799 .08194987 .5258789 .092936199 .5214844 .10595703 .5214844 .11897787 .5214844 .12988281 .5258789 .13867188 .53466799 .14746094 .54345706 .15185547 .554362 .15185547 .5673828 .15185547 .5804036 .14746094 .5914714 .13867188 .60058596 .12988281 .6097005 .11897787 .6142578 .10595703 .6142578 .092936199 .6142578 .08194987 .6097005 .07299805 .60058596 .06404623 .5914714 .059570314 .5804036 .059570314 .5673828Z"/>
<path id="font_1_1247" d="M.3022461 .61376956 .37304688 .54296877 .3022461 .47216798 .23144531 .54296877 .3022461 .61376956M.30371095 .38183595C.32877604 .38183595 .35465495 .37980143 .38134767 .37573243 .40804038 .37166343 .43286134 .3658854 .45581056 .35839845 .47875978 .35091148 .49739585 .34179688 .51171877 .3310547 .5260417 .3203125 .5332031 .30826823 .5332031 .29492188 .5332031 .28548179 .52823898 .27246095 .51831057 .25585938 .50838217 .23925781 .49568687 .22135417 .4802246 .20214844 .46476237 .1829427 .44856773 .1644694 .43164063 .14672852 .41471354 .12898763 .3992513 .11393229 .3852539 .1015625 .40804038 .095703128 .4296875 .0921224 .4501953 .09082031 .47070313 .08951823 .4892578 .08886719 .5058594 .08886719H.58203127V0H.50634768C.47216798 0 .43806968 .0040690104 .40405274 .012207031 .3700358 .020345053 .33658854 .033854169 .30371095 .052734376 .28222657 .040364583 .2574056 .030273438 .22924805 .022460938 .2010905 .0146484379 .17277019 .008951823 .14428711 .0053710939 .11580404 .0017903646 .09016927 0 .06738281 0H-.009765625V.08886719H.067871097C.078938808 .08886719 .09383138 .08911133 .11254883 .08959961 .13126628 .09008789 .15063477 .09122721 .1706543 .09301758 .19067383 .094807948 .20817058 .09765625 .22314453 .1015625 .20914714 .11393229 .19368489 .12898763 .17675781 .14672852 .15983074 .1644694 .14363607 .1829427 .12817383 .20214844 .112711589 .22135417 .0999349 .23925781 .08984375 .25585938 .0797526 .27246095 .07470703 .28548179 .07470703 .29492188 .07470703 .30826823 .08170573 .3203125 .095703128 .3310547 .10970052 .34179688 .12817383 .35091148 .15112305 .35839845 .17407227 .3658854 .19889324 .37166343 .22558594 .37573243 .25227867 .37980143 .2783203 .38183595 .30371095 .38183595M.30371095 .29785157C.2890625 .29785157 .2681478 .29671226 .2409668 .2944336 .21378581 .29215495 .18815105 .28694663 .1640625 .2788086 .18522136 .25211589 .20654297 .22819011 .22802735 .20703125 .24951172 .18587239 .26749674 .16902669 .28198243 .15649414L.30371095 .13769531 .3256836 .15649414C.34033204 .16902669 .3585612 .18587239 .3803711 .20703125 .402181 .22819011 .4235026 .25211589 .44433595 .2788086 .4202474 .28694663 .39453126 .29215495 .3671875 .2944336 .33984376 .29671226 .3186849 .29785157 .30371095 .29785157Z"/>
<path id="font_1_730" d="M.22460938 .52197268C.21777344 .52229818 .21191406 .5227051 .20703125 .52319338 .20214844 .52368167 .19645183 .5242513 .1899414 .52490237 .15673828 .47867839 .09863281 .45328776 .015625 .44873048L.009277344 .48632813C.041829427 .4892578 .07063802 .4947103 .095703128 .50268557 .12076823 .5106608 .13916016 .5208333 .1508789 .5332031 .12809246 .53483077 .10709635 .5423177 .087890628 .55566409 .0686849 .56901046 .05908203 .58968099 .05908203 .6176758 .05908203 .63948568 .06673177 .6582845 .08203125 .67407229 .09733073 .68986007 .11653646 .6977539 .13964844 .6977539 .16276042 .6977539 .18196614 .6903483 .19726563 .6755371 .21256511 .6607259 .22021485 .64127609 .22021485 .6171875 .22021485 .5989583 .21582031 .5789388 .20703125 .5571289 .21158855 .55647787 .21875 .55566409 .22851563 .5546875L.22460938 .52197268M.16796875 .5649414C.17154949 .5730794 .17464192 .5817871 .1772461 .59106448 .17985027 .6003418 .18115235 .6088867 .18115235 .6166992 .18115235 .62906906 .17732747 .6389974 .16967774 .6464844 .162028 .6539714 .15266927 .65771487 .14160156 .65771487 .12890625 .65771487 .11857096 .6533203 .1105957 .64453127 .102620448 .6357422 .09863281 .62613937 .09863281 .61572268 .09863281 .5991211 .10555013 .5875651 .119384769 .5810547 .1332194 .57454428 .14941406 .56917318 .16796875 .5649414Z"/>
<path id="font_1_1302" d="M.2841797 .10107422C.30859376 .107910159 .33040367 .1184082 .34960938 .13256836 .3688151 .14672852 .3839518 .1673991 .39501954 .19458008 .40608726 .22176107 .4116211 .25846354 .4116211 .3046875V.6723633H.49414063V.2788086C.49414063 .21663411 .5016276 .1694336 .51660159 .13720703 .5315755 .10498047 .5576172 .08886719 .59472659 .08886719H.6123047V0H.5932617C.5496419 0 .5161133 .010498047 .49267579 .03149414 .46923829 .052490236 .45214845 .08170573 .44140626 .119140628 .4140625 .07877604 .37394206 .048828126 .32104493 .029296875 .2681478 .009765625 .20654297 0 .13623047 0 .12288412 0 .10921224 .00032552085 .095214847 .0009765625 .081217449 .0016276041 .06705729 .0026041668 .052734376 .00390625V.087890628C.072916667 .08658854 .09000651 .0855306 .104003909 .0847168 .118001308 .08390299 .1319987 .083496097 .1459961 .083496097 .15934246 .083496097 .17097982 .08357748 .1809082 .083740238 .1908366 .08390299 .19905599 .084635417 .2055664 .0859375L.19824219 .13012696C.19335938 .1595866 .18522136 .19946289 .17382813 .24975586 .16243489 .30004884 .14689128 .35677085 .12719727 .41992188 .10750326 .4830729 .082845058 .54817709 .053222658 .6152344L.12890625 .6503906C.15820313 .5810547 .18286133 .5136719 .20288086 .4482422 .22290039 .3828125 .2388509 .3239746 .25073243 .27172853 .26261393 .21948242 .27115885 .17797852 .2763672 .1472168L.2841797 .10107422Z"/>
<path id="font_1_728" d="M.03173828 .5571289V.6035156L.2397461 .68847659V.64208987L.03173828 .5571289Z"/>
<path id="font_1_718" d="M.17382813 .1459961C.1920573 .20947266 .21590169 .25935874 .24536133 .2956543 .27482096 .33194987 .31510417 .35009767 .36621095 .35009767 .40071617 .35009767 .43147788 .3413086 .4584961 .32373048 .4855143 .30615235 .5069173 .28198243 .5227051 .2512207 .53849288 .22045899 .5463867 .1850586 .5463867 .14501953 .5463867 .10107422 .53426107 .06461588 .51000979 .03564453 .48575846 .0066731774 .4482422-.0078125 .39746095-.0078125 .37825523-.0078125 .35880534-.0047200524 .33911134 .0014648438 .31941734 .0076497399 .3005371 .014729817 .2824707 .022705079 .2644043 .030680338 .24788411 .037760419 .23291016 .043945314 .2179362 .050130208 .20540364 .053222658 .1953125 .053222658 .17708333 .053222658 .16333008 .047281904 .15405274 .03540039 .14477539 .02351888 .1385905 .0034179688 .13549805-.024902344 .1324056-.053222658 .13085938-.092447917 .13085938-.14257813 .13085938-.16471355 .13110352-.18448894 .1315918-.2019043 .13208008-.21931966 .13289388-.23649089 .1340332-.25341798 .13517253-.27034507 .13639324-.28955079 .13769531-.31103517H.053710939C.052083333-.28108726 .05078125-.25301109 .049804689-.22680664 .048828126-.20060222 .048339845-.17415364 .048339845-.14746094 .048339845-.1110026 .049397787-.07633463 .051513673-.04345703 .05362956-.010579427 .05867513 .01912435 .06665039 .045654298 .07462565 .07218424 .08707682 .0941569 .104003909 .111572269 .12093099 .12898763 .14420574 .14046224 .17382813 .1459961M.4638672 .14550781C.4638672 .17903646 .45491538 .20711263 .43701173 .22973633 .41910807 .25236003 .39615885 .26367188 .36816407 .26367188 .34798179 .26367188 .33089195 .2574056 .31689454 .24487305 .30289714 .2323405 .29117839 .21590169 .28173829 .19555664 .2722982 .1752116 .2639974 .15348308 .25683595 .1303711 .29231773 .114746097 .32185874 .10245768 .34545899 .09350586 .36905924 .08455404 .38671876 .080078128 .3984375 .080078128 .4202474 .080078128 .43660484 .08601888 .44750978 .09790039 .4584147 .1097819 .4638672 .12565105 .4638672 .14550781Z"/>
<path id="font_1_731" d="M.028320313-.24658203V-.20019531L.23632813-.115234378V-.1616211L.028320313-.24658203Z"/>
<path id="font_1_1258" d="M.107421878 .4736328C.13574219 .45377604 .16520183 .43286134 .19580078 .41088868 .22639974 .38891603 .2549642 .36547853 .28149415 .34057618 .30802409 .31567384 .32950846 .2891439 .34594728 .26098634 .36238609 .23282878 .37060548 .20279949 .37060548 .17089844 .37027995 .11035156 .34936524 .06673177 .30786134 .040039064 .26635743 .0133463549 .20019531 0 .109375 0H-.009765625V.08886719H.10888672C.17203777 .08886719 .21728516 .09448242 .2446289 .10571289 .27197267 .11694336 .28564454 .13932292 .28564454 .17285156 .28564454 .19433594 .27807618 .21533203 .26293946 .23583985 .24780274 .25634767 .22827149 .27661134 .2043457 .29663087 .18041992 .3166504 .15478516 .3363444 .1274414 .3557129 .100097659 .3750814 .07438151 .39420573 .05029297 .41308595 .0398763 .42154948 .031901044 .43147788 .026367188 .4428711 .020833334 .4542643 .018066407 .46565757 .018066407 .47705079 .018066407 .49039714 .021728516 .50301107 .029052735 .5148926 .036376954 .5267741 .047851564 .5358073 .06347656 .5419922L.41455079 .6845703V.59814456L.107421878 .4736328Z"/>
<path id="font_1_1189" d="M.22949219 .5283203 .29785157 .46044923 .22949219 .39160157 .1616211 .46044923 .22949219 .5283203M.06738281 .5283203 .13574219 .46044923 .06738281 .39160157-.00048828127 .46044923 .06738281 .5283203M-.009765625 .08886719H.08300781C.12434896 .08886719 .15388997 .09814453 .17163086 .11669922 .18937175 .1352539 .19824219 .16373699 .19824219 .20214844 .19824219 .21777344 .19783528 .23258464 .19702149 .24658203 .19620769 .26057945 .19514974 .2745768 .19384766 .28857423L.27539063 .29833985 .28320313 .18408203C.28710938 .12060547 .32014976 .08886719 .38232423 .08886719H.39257813V0H.38134767C.34521485 0 .31632487 .0065104167 .29467774 .01953125 .2730306 .032552083 .25553385 .05094401 .2421875 .07470703 .22460938 .048990888 .20149739 .030110678 .17285156 .018066407 .14420574 .0060221354 .11425781 0 .08300781 0H-.009765625V.08886719Z"/>
<path id="font_1_1173" d="M.07470703 .6723633H.15722656V.2055664C.15722656 .15966797 .16569011 .12874349 .18261719 .11279297 .19954427 .096842449 .22509766 .08886719 .25927735 .08886719H.27148438V0H.25927735C.19710286 0 .15079753 .016520182 .12036133 .049560548 .08992513 .082600917 .07470703 .13476563 .07470703 .20605469V.6723633Z"/>
<path id="font_1_682" d="M.453125-.07470703 .5239258-.14550781 .453125-.2163086 .38232423-.14550781 .453125-.07470703M.53125 0H.41748048C.29475913 0 .20255535 .016601563 .14086914 .049804689 .079182948 .08300781 .048339845 .14046224 .048339845 .22216797 .048339845 .2446289 .05086263 .26660157 .055908204 .28808595 .060953779 .3095703 .06754557 .33024089 .075683597 .35009767L.15136719 .32177735C.14615886 .30745445 .1418457 .29215495 .13842774 .2758789 .13500977 .25960288 .13330078 .24414063 .13330078 .22949219 .1336263 .19140625 .14436849 .16219075 .16552735 .1418457 .1866862 .12150065 .21826172 .10758463 .2602539 .100097659 .3022461 .09261068 .35465495 .08886719 .41748048 .08886719H.5317383C.5538737 .08886719 .5770671 .08951823 .60131838 .09082031 .62556967 .0921224 .6482747 .095703128 .6694336 .1015625 .69059249 .107421878 .70784506 .11726888 .7211914 .13110352 .7345378 .14493816 .74121096 .16438802 .74121096 .18945313 .74121096 .2076823 .7394206 .22941081 .73583987 .25463868 .7322591 .27986656 .72802737 .30485026 .72314456 .32958985L.80810549 .35107423C.81396487 .3256836 .81844076 .2993978 .8215332 .2722168 .8246257 .24503581 .8261719 .22135417 .8261719 .20117188 .8261719 .15690105 .8186849 .12141927 .80371096 .09472656 .788737 .06803385 .76782229 .047851564 .7409668 .034179689 .7141113 .020507813 .6828613 .0113932299 .6472168 .0068359377 .61157229 .0022786458 .5729167 0 .53125 0Z"/>
<path id="font_2_68" d="M.4921875 0H.34423829L.3310547 .05908203C.31835938 .048990888 .30257163 .038411458 .2836914 .02734375 .2648112 .016276041 .24495442 .006917318 .2241211-.0007324219 .20328777-.008382161 .18326824-.012207031 .1640625-.012207031 .12792969-.012207031 .09724935-.00016276042 .072021488 .023925782 .04679362 .048014326 .034179689 .08105469 .034179689 .123046878 .034179689 .14160156 .037516279 .15885417 .044189454 .17480469 .05086263 .1907552 .064208988 .20597331 .084228519 .22045899 .10424805 .23494466 .1340332 .24910482 .17358399 .26293946 .21313477 .27677409 .265625 .29085288 .3310547 .30517579 .3310547 .30745445 .3310547 .31306968 .3310547 .32202149 .3310547 .3309733 .3310547 .339681 .3310547 .34814454 .3310547 .41389976 .29996745 .44677735 .23779297 .44677735 .22054036 .44677735 .20564778 .44514976 .19311524 .44189454 .18058269 .4386393 .171875 .43603517 .16699219 .43408204V.34716798H.09423828C.085123699 .34716798 .076660159 .34887696 .068847659 .35229493 .061035158 .3557129 .057128908 .36360679 .057128908 .37597657 .057128908 .4033203 .06754557 .42569987 .088378909 .44311524 .10921224 .4605306 .13566081 .47338868 .16772461 .48168946 .1997884 .48999024 .23225911 .49414063 .26513673 .49414063 .30647788 .49414063 .33854167 .48771159 .36132813 .47485353 .3841146 .46199546 .4000651 .44425456 .4091797 .42163087 .41829429 .39900718 .42285157 .37320964 .42285157 .34423829V.063964847C.42285157 .05777995 .42488609 .052652997 .42895509 .048583986 .43302409 .044514974 .43798829 .042317708 .44384767 .041992189L.4921875 .0390625V0M.3310547 .09423828V.26708985C.2861328 .25602214 .2504069 .24487305 .22387696 .23364258 .197347 .22241211 .17757161 .21118164 .16455078 .19995117 .15152996 .1887207 .14298503 .17732747 .13891602 .16577149 .134847 .1542155 .1328125 .14225261 .1328125 .12988281 .1328125 .109375 .1394043 .090413417 .15258789 .07299805 .16577149 .055582685 .1842448 .046875 .20800781 .046875 .22753906 .046875 .2491862 .052246095 .27294923 .06298828 .29671226 .07373047 .31608073 .08414713 .3310547 .09423828Z"/>
<path id="font_2_81" d="M.546875 0H.32617188V.0390625L.36816407 .041992189C.37402345 .04264323 .37898765 .044921876 .38305665 .048828126 .38712565 .052734376 .38916017 .05777995 .38916017 .063964847V.32421876C.38916017 .35579429 .38183595 .37980143 .3671875 .39624024 .35253907 .41267906 .32779948 .42089845 .29296876 .42089845 .27408854 .42089845 .2552897 .4182129 .23657227 .4128418 .21785482 .4074707 .20003255 .40055339 .18310547 .39208985V.063964847C.18310547 .05029297 .19010417 .04296875 .20410156 .041992189L.24609375 .0390625V0H.020019532V.0390625L.068847659 .041992189C.082845058 .04296875 .08984375 .05029297 .08984375 .063964847V.4111328H.020019532V.44384767L.14208985 .4819336H.18310547V.4321289C.21110027 .44807945 .23982747 .46240235 .2692871 .47509767 .29874674 .48779298 .32503257 .49414063 .34814454 .49414063 .3917643 .49414063 .42496745 .48055015 .4477539 .45336915 .47054038 .42618815 .4819336 .38834635 .4819336 .33984376V.063964847C.4819336 .05777995 .4839681 .052734376 .4880371 .048828126 .4921061 .044921876 .4970703 .04264323 .5029297 .041992189L.546875 .0390625V0Z"/>
<path id="font_2_72" d="M.26611329-.012207031C.2257487-.012207031 .1879069-.0031738282 .15258789 .014892578 .11726888 .032958986 .08870443 .060384115 .06689453 .09716797 .045084638 .13395183 .034179689 .18017578 .034179689 .23583985 .034179689 .2879232 .044270833 .33333335 .064453128 .3720703 .084635417 .41080729 .112467449 .44083659 .14794922 .4621582 .18343099 .48347984 .22379558 .49414063 .26904298 .49414063 .33121745 .49414063 .3779297 .47485353 .4091797 .4362793 .4404297 .39770509 .4560547 .3486328 .4560547 .2890625 .4560547 .28580729 .4560547 .28149415 .4560547 .27612306 .4560547 .27075196 .45572917 .26578776 .45507813 .26123048H.13085938C.13085938 .23583985 .13354492 .2105306 .13891602 .18530274 .14428711 .16007488 .15332031 .13720703 .16601563 .11669922 .17871094 .096191409 .19580078 .0797526 .21728516 .06738281 .23876953 .05501302 .265625 .048828126 .29785157 .048828126 .3264974 .048828126 .3544108 .055419923 .3815918 .068603519 .4087728 .08178711 .43359376 .09586588 .4560547 .110839847V.049804689C.4280599 .032552083 .39786784 .017903647 .36547853 .005859375 .3330892-.006184896 .29996745-.012207031 .26611329-.012207031M.13623047 .30615235H.35595704V.328125C.35595704 .3610026 .34806315 .38867188 .3322754 .4111328 .31648765 .43359376 .2919922 .44482423 .25878907 .44482423 .22591146 .44482423 .19791667 .43245445 .17480469 .40771485 .1516927 .38297526 .13883464 .3491211 .13623047 .30615235Z"/>
<path id="font_2_91" d="M.5 0H.28515626V.0390625L.31884767 .04296875C.32340495 .043619794 .32657878 .045979818 .32836915 .050048829 .33015953 .05411784 .33007813 .05777995 .328125 .061035158L.2421875 .18896485 .14404297 .061035158C.14176433 .05810547 .14111328 .05452474 .14208985 .05029297 .1430664 .0460612 .14567058 .043619794 .14990235 .04296875L.20019531 .0390625V0H.009765625V.0390625L.06689453 .046875 .20996094 .23291016 .07421875 .43408204 .015136719 .4428711V.4819336H.23486328V.4428711L.20019531 .43798829C.19563802 .43766276 .19230144 .43546549 .19018555 .43139649 .18806966 .42732749 .18798828 .4235026 .1899414 .41992188L.26904298 .30810548 .35595704 .41992188C.3585612 .42285157 .35921226 .42651368 .35791017 .4309082 .35660807 .43530274 .35367839 .43766276 .3491211 .43798829L.30615235 .4428711V.4819336H.48583985V.4428711L.4321289 .43408204 .29785157 .2631836 .44580079 .046875 .5 .0390625V0Z"/>
<path id="font_2_82" d="M.5097656 .24023438C.5097656 .19303386 .5 .15030925 .48046876 .11206055 .4609375 .07381185 .4333496 .04353841 .39770509 .021240235 .36206056-.0010579428 .31982423-.012207031 .2709961-.012207031 .22249349-.012207031 .1805013-.0011393229 .14501953 .020996094 .10953776 .04313151 .08219401 .07324219 .06298828 .111328128 .04378255 .14941406 .034179689 .19238281 .034179689 .24023438 .034179689 .2877604 .043863935 .33072917 .06323242 .36914063 .082600917 .4075521 .11027018 .43798829 .14624024 .46044923 .18221028 .48291017 .22477214 .49414063 .27392579 .49414063 .32373048 .49414063 .36621095 .4827474 .4013672 .45996095 .43652345 .43717448 .4633789 .40657554 .4819336 .36816407 .5004883 .3297526 .5097656 .28710938 .5097656 .24023438M.40576173 .24121094C.40576173 .27766929 .4009603 .3116862 .39135743 .34326173 .38175456 .37483726 .3671061 .40039063 .3474121 .41992188 .3277181 .43945313 .30289714 .44921876 .27294923 .44921876 .24202474 .44921876 .2167155 .43945313 .19702149 .41992188 .17732747 .40039063 .16276042 .37483726 .15332031 .34326173 .1438802 .3116862 .13916016 .27766929 .13916016 .24121094 .13916016 .20507813 .1439616 .17114258 .15356446 .1394043 .16316732 .107666019 .17781575 .08203125 .19750977 .0625 .21720378 .04296875 .24202474 .033203126 .27197267 .033203126 .30257163 .033203126 .3277181 .04296875 .3474121 .0625 .3671061 .08203125 .38175456 .10758463 .39135743 .13916016 .4009603 .17073567 .40576173 .20475261 .40576173 .24121094Z"/>
<path id="font_2_88" d="M.546875 0H.3881836V.057128908C.37679038 .048339845 .3623047 .03857422 .34472657 .027832032 .32714845 .017089844 .30826823 .0077311198 .28808595-.00024414063 .26790367-.008219401 .24788411-.012207031 .22802735-.012207031 .1850586-.012207031 .15128581 .0007324219 .12670899 .026611329 .102132167 .052490236 .08984375 .09358724 .08984375 .14990235V.42089845H.020019532V.45507813L.1430664 .49414063H.18310547V.16894531C.18310547 .13346355 .19034831 .10579427 .20483399 .0859375 .21931966 .06608073 .24430339 .056152345 .27978517 .056152345 .30029298 .056152345 .32047526 .05965169 .34033204 .06665039 .3601888 .073649089 .3761393 .080078128 .3881836 .0859375V.42089845H.3178711V.45507813L.4399414 .49414063H.48095704V.063964847C.48095704 .05777995 .4831543 .052734376 .48754884 .048828126 .49194337 .044921876 .4970703 .04264323 .5029297 .041992189L.546875 .0390625V0Z"/>
<path id="font_2_69" d="M.5209961 .26416017C.5209961 .21402996 .5110677 .16902669 .49121095 .12915039 .47135417 .089274089 .44026695 .05777995 .39794923 .03466797 .3556315 .011555989 .300944 0 .23388672 0H.08984375V.66503909H.014160156V.6982422L.1430664 .7368164H.18310547V.45703126C.1944987 .4625651 .212972 .47013346 .23852539 .47973634 .26407878 .4893392 .2915039 .49414063 .32080079 .49414063 .3647461 .49414063 .40152995 .4835612 .43115235 .46240235 .46077476 .4412435 .4831543 .41316734 .49829103 .37817384 .51342776 .34318034 .5209961 .30517579 .5209961 .26416017M.4189453 .24414063C.4189453 .30729167 .40559898 .35489909 .37890626 .3869629 .35221354 .4190267 .31461589 .4350586 .26611329 .4350586 .25504557 .4350586 .2409668 .43326823 .22387696 .4296875 .20678711 .42610679 .19319661 .42252604 .18310547 .4189453V.047851564C.19124349 .047526044 .19938152 .047281904 .20751953 .04711914 .21565755 .04695638 .22379558 .046875 .2319336 .046875 .29117839 .046875 .3371582 .061523439 .36987306 .09082031 .4025879 .12011719 .4189453 .17122396 .4189453 .24414063Z"/>
<path id="font_2_86" d="M.3491211 .35302735H.296875L.2890625 .42285157C.28190104 .4283854 .27132163 .43359376 .25732423 .43847657 .24332683 .44335938 .22851563 .44580079 .21289063 .44580079 .18554688 .44580079 .16520183 .43953453 .15185547 .42700196 .13850911 .4144694 .13183594 .3984375 .13183594 .37890626 .13183594 .36393229 .1352539 .35123698 .14208985 .3408203 .14892578 .33040367 .16048177 .3202311 .17675781 .31030274 .19303386 .30037437 .21516927 .28889976 .24316406 .2758789 .27799479 .25992839 .30680339 .24226888 .32958985 .22290039 .3523763 .2035319 .36376954 .17757161 .36376954 .14501953 .36376954 .09586588 .34684245 .057373048 .31298829 .029541016 .27913413 .0017089844 .23242188-.012207031 .17285156-.012207031 .14225261-.012207031 .11401367-.009033203 .088134769-.0026855469 .06225586 .0036621094 .044270833 .008951823 .034179689 .013183594V.1459961H.08496094L.09716797 .061035158C.10725912 .05452474 .11971029 .048258466 .13452149 .042236329 .14933269 .03621419 .1665039 .033203126 .18603516 .033203126 .21468099 .033203126 .2368164 .041178388 .2524414 .057128908 .2680664 .07307943 .2758789 .09098307 .2758789 .110839847 .2758789 .13688152 .2652181 .15730794 .24389649 .17211914 .22257488 .18693035 .19254558 .20361328 .1538086 .22216797 .11735026 .2397461 .08943685 .2578125 .07006836 .2763672 .05069987 .29492188 .041015626 .3191732 .041015626 .3491211 .041015626 .39371745 .056640626 .42903648 .087890628 .45507813 .119140628 .48111979 .16357422 .49414063 .2211914 .49414063 .25048829 .49414063 .27661134 .49145509 .29956056 .48608399 .32250978 .4807129 .33902995 .4757487 .3491211 .4711914V.35302735Z"/>
<path id="font_2_87" d="M.3330078 .020996094C.31966148 .013834636 .30037437 .0065104167 .27514649-.0009765625 .24991863-.008463542 .22428386-.012207031 .19824219-.012207031 .1608073-.012207031 .13354492-.0033365887 .11645508 .014404297 .099365238 .032145185 .09082031 .060709638 .09082031 .100097659V.4321289H.026855469V.46484376L.095214847 .4970703 .14013672 .60302737H.18408203V.4819336H.3251953V.4321289H.18408203V.15283203C.18408203 .11311849 .1907552 .08504232 .20410156 .068603519 .21744792 .052164716 .23746746 .043945314 .26416017 .043945314 .27848307 .043945314 .2919922 .045898439 .3046875 .049804689 .3173828 .053710939 .3268229 .057454427 .3330078 .061035158V.020996094Z"/>
<path id="font_2_76" d="M.21777344 .64697268C.21777344 .6300456 .21191406 .6154785 .20019531 .6032715 .18847656 .59106448 .17415364 .58496096 .15722656 .58496096 .14029949 .58496096 .12573242 .59106448 .11352539 .6032715 .10131836 .6154785 .095214847 .6300456 .095214847 .64697268 .095214847 .6642253 .10131836 .67871096 .11352539 .6904297 .12573242 .70214846 .14029949 .7080078 .15722656 .7080078 .17415364 .7080078 .18847656 .70214846 .20019531 .6904297 .21191406 .67871096 .21777344 .6642253 .21777344 .64697268M.26904298 0H.034179689V.0390625L.08300781 .041992189C.09700521 .04296875 .104003909 .05029297 .104003909 .063964847V.42089845H.03515625V.4560547L.15722656 .49414063H.19677735V.063964847C.19677735 .05777995 .19881185 .052652997 .20288086 .048583986 .20694988 .044514974 .21191406 .042317708 .21777344 .041992189L.26904298 .0390625V0Z"/>
<path id="font_2_180" d="M.39208985 .70214846C.38264976 .69108077 .37141929 .6780599 .35839845 .66308596 .3453776 .648112 .33390299 .6312663 .3239746 .6125488 .31404624 .59383139 .30908204 .5732422 .30908204 .55078127 .30908204 .54752609 .30924479 .5440267 .3095703 .5402832 .30989585 .53653976 .3100586 .5333659 .3100586 .5307617H.37304688L.38061524 .5197754C.3856608 .5124512 .3881836 .5032552 .3881836 .4921875 .3881836 .4752604 .38264976 .46069337 .37158204 .44848634 .3605143 .4362793 .34602867 .43017579 .328125 .43017579 .30208335 .43017579 .28173829 .4388021 .26708985 .4560547 .2524414 .47330729 .24511719 .4962565 .24511719 .52490237 .24511719 .5489909 .24951172 .5710449 .25830079 .59106448 .26708985 .611084 .27775065 .62890627 .2902832 .64453127 .30281578 .66015627 .31510417 .67333987 .32714845 .68408206 .33919273 .6948242 .34847007 .703125 .35498048 .7089844L.39208985 .70214846M.18603516 .70214846C.16617839 .6822917 .14737956 .65966799 .12963867 .63427737 .11189779 .6088867 .103027347 .5807292 .103027347 .5498047 .103027347 .5465495 .1031901 .5432129 .103515628 .5397949 .10384115 .53637698 .104003909 .5333659 .104003909 .5307617H.16699219L.17456055 .5202637C.17960613 .51326498 .1821289 .50358077 .1821289 .49121095 .1821289 .47428385 .17667644 .45987956 .16577149 .44799806 .15486653 .43611656 .14029949 .43017579 .12207031 .43017579 .096354167 .43017579 .07609049 .43847657 .061279298 .45507813 .046468099 .4716797 .0390625 .49430339 .0390625 .5229492 .0390625 .5473633 .04345703 .56974288 .052246095 .5900879 .061035158 .6104329 .07169596 .6284993 .084228519 .6442871 .09676107 .6600749 .10904948 .67333987 .12109375 .68408206 .13313802 .6948242 .14241536 .703125 .14892578 .7089844L.18603516 .70214846Z"/>
<path id="font_2_75" d="M.55078127 0H.328125V.0390625L.36914063 .041992189C.375 .04264323 .38012696 .044921876 .38452149 .048828126 .38891603 .052734376 .39111329 .05777995 .39111329 .063964847V.32177735C.39111329 .3504232 .38427735 .37410484 .37060548 .39282228 .3569336 .4115397 .33072917 .42089845 .2919922 .42089845 .27441407 .42089845 .25545249 .4181315 .23510742 .41259767 .21476238 .4070638 .19742839 .40022788 .18310547 .39208985V.063964847C.18310547 .05029297 .18977864 .04296875 .203125 .041992189L.24609375 .0390625V0H.020996094V.0390625L.068847659 .041992189C.082845058 .04296875 .08984375 .05029297 .08984375 .063964847V.66503909H.015136719V.6982422L.1430664 .7368164H.18310547V.4321289C.19514974 .43961589 .21077474 .4481608 .22998047 .45776368 .2491862 .46736656 .2693685 .47583009 .29052735 .4831543 .3116862 .49047853 .33089195 .49414063 .34814454 .49414063 .386556 .49414063 .41878257 .48177085 .44482423 .45703126 .47086589 .43229167 .48388673 .39420573 .48388673 .34277345V.063964847C.48388673 .05777995 .48608399 .052734376 .49047853 .048828126 .49487306 .044921876 .5 .04264323 .5058594 .041992189L.55078127 .0390625V0Z"/>
<path id="font_2_92" d="M.52001956 .4428711 .46777345 .43701173 .2758789-.030761719C.27164714-.041503908 .26505534-.056884767 .25610353-.0769043 .24715169-.09692383 .23657227-.11743164 .22436524-.13842774 .2121582-.15942383 .19905599-.17692058 .1850586-.19091797 .17301433-.20296224 .15974935-.21232097 .14526367-.21899414 .130778-.22566732 .11507162-.2290039 .09814453-.2290039 .07438151-.2290039 .056233724-.2232259 .043701173-.21166992 .03116862-.20011394 .024902344-.18684896 .024902344-.171875 .024902344-.14973958 .03564453-.12972005 .057128908-.111816409L.1508789-.15478516C.16194661-.14371746 .17301433-.12874349 .18408203-.10986328 .19514974-.09098307 .2051595-.07145182 .21411133-.05126953 .22306316-.03108724 .22998047-.013671875 .23486328 .0009765625L.064941409 .43701173 .009765625 .4428711V.4819336H.23095703V.4428711L.18310547 .4399414C.17757161 .43961589 .1730957 .43725587 .16967774 .43286134 .16625977 .4284668 .16569011 .4235026 .16796875 .41796876L.2841797 .123046878 .40283204 .41796876C.4051107 .4231771 .40478517 .4280599 .40185548 .4326172 .39892579 .43717448 .394694 .43961589 .38916017 .4399414L.34179688 .4428711V.4819336H.52001956V.4428711Z"/>
<path id="font_2_183" d="M.20800781 .61621096C.20800781 .5917969 .20361328 .5694173 .19482422 .54907229 .18603516 .52872726 .17537435 .5106608 .1628418 .49487306 .15030925 .4790853 .13802083 .4658203 .12597656 .45507813 .11393229 .44433595 .104654949 .43603517 .09814453 .43017579L.061035158 .43798829C.083496097 .4601237 .10310873 .48380534 .11987305 .5090332 .13663738 .53426107 .14469402 .56119796 .14404297 .58984377 .14404297 .59244796 .1438802 .59554037 .14355469 .5991211 .14322917 .60270187 .1430664 .60563156 .1430664 .60791018H.080078128L.072509769 .61938479C.067464198 .6270345 .064941409 .63655599 .064941409 .6479492 .064941409 .66520187 .07023112 .6796875 .08081055 .69140627 .09138998 .703125 .10611979 .7089844 .125 .7089844 .15006511 .7089844 .17016602 .70076498 .18530274 .6843262 .20043946 .6678874 .20800781 .6451823 .20800781 .61621096Z"/>
<path id="font_2_78" d="M.5239258 0H.36376954V.0390625L.23876953 .22705078H.18310547V.063964847C.18310547 .05029297 .19010417 .04296875 .20410156 .041992189L.24707031 .0390625V0H.020019532V.0390625L.068847659 .041992189C.082845058 .04296875 .08984375 .05029297 .08984375 .063964847V.66503909H.014160156V.6982422L.14208985 .7368164H.18310547V.25585938H.203125L.35009767 .421875C.3527018 .42513023 .35310874 .42871095 .35131837 .4326172 .34952799 .43652345 .34635417 .4386393 .34179688 .43896485L.30078126 .4428711V.4819336H.4951172V.4428711L.43115235 .43603517 .29882813 .29492188 .4711914 .044921876 .5239258 .0390625V0Z"/>
<path id="font_2_181" d="M.4140625 .61621096C.4140625 .5917969 .40966798 .5694173 .4008789 .54907229 .39208985 .52872726 .38142906 .5106608 .36889649 .49487306 .35636393 .4790853 .34407554 .4658203 .33203126 .45507813 .31998698 .44433595 .31070964 .43603517 .30419923 .43017579L.26708985 .43798829C.28727214 .45817057 .3063151 .48079429 .32421876 .5058594 .3421224 .5309245 .35107423 .55891928 .35107423 .58984377 .35107423 .5934245 .3507487 .59676107 .35009767 .5998535 .34944663 .602946 .3491211 .60563156 .3491211 .60791018H.2861328L.27856446 .6191406C.2735189 .6266276 .2709961 .63655599 .2709961 .6489258 .2709961 .6661784 .27652995 .6805013 .28759767 .69189456 .29866538 .7032878 .31315104 .7089844 .3310547 .7089844 .3564453 .7089844 .3766276 .70060226 .39160157 .6838379 .40657554 .66707357 .4140625 .64453127 .4140625 .61621096M.20800781 .6152344C.20800781 .5911458 .20361328 .5690918 .19482422 .54907229 .18603516 .52905276 .17537435 .5111491 .1628418 .49536134 .15030925 .47957359 .13802083 .4662272 .12597656 .45532228 .11393229 .44441734 .104654949 .43603517 .09814453 .43017579L.061035158 .43798829C.07047526 .449056 .08170573 .46199546 .09472656 .47680665 .1077474 .49161784 .11922201 .5083008 .12915039 .52685549 .13907878 .54541018 .14404297 .5657552 .14404297 .5878906 .14404297 .5914714 .1438802 .5951335 .14355469 .59887698 .14322917 .6026204 .1430664 .60563156 .1430664 .60791018H.080078128L.072509769 .6196289C.067464198 .6274414 .064941409 .63688156 .064941409 .6479492 .064941409 .66520187 .07063802 .6796875 .08203125 .69140627 .09342448 .703125 .108072917 .7089844 .12597656 .7089844 .15201824 .7089844 .17220052 .70043948 .18652344 .6833496 .20084636 .66625979 .20800781 .6435547 .20800781 .6152344Z"/>
</defs>
<use data-text="&#x0671;" xlink:href="#font_1_781" transform="matrix(16.408476,0,0,-16.408476,39.29925,88.91055)" fill="#343a40"/>
<use data-text="&#x0644;" xlink:href="#font_1_1262" transform="matrix(16.408476,0,0,-16.408476,34.573614,88.91055)" fill="#343a40"/>
<use data-text="&#x0652;" xlink:href="#font_1_737" transform="matrix(16.408476,0,0,-16.408476,35.58984,84.38313)" fill="#343a40"/>
<use data-text="&#x063a;" xlink:href="#font_1_1247" transform="matrix(16.408476,0,0,-16.408476,25.180802,88.91055)" fill="#343a40"/>
<use data-text="&#x064f;" xlink:href="#font_1_730" transform="matrix(16.408476,0,0,-16.408476,27.680583,85.55433)" fill="#343a40"/>
<use data-text="&#xfefc;" xlink:href="#font_1_1302" transform="matrix(16.408476,0,0,-16.408476,15.29514,88.91055)" fill="#343a40"/>
<use data-text="&#x064e;" xlink:href="#font_1_728" transform="matrix(16.408476,0,0,-16.408476,20.2947,86.06673)" fill="#343a40"/>
<use data-text="&#x0645;" xlink:href="#font_1_718" transform="matrix(16.408476,0,0,-16.408476,5.5357506,88.91055)" fill="#343a40"/>
<use data-text="&#x0650;" xlink:href="#font_1_731" transform="matrix(16.408476,0,0,-16.408476,5.01603,93.01341)" fill="#343a40"/>
<use data-text="&#x0643;" xlink:href="#font_1_1258" transform="matrix(16.408476,0,0,-16.408476,82.45065,88.91055)" fill="#343a40"/>
<use data-text="&#x0650;" xlink:href="#font_1_731" transform="matrix(16.408476,0,0,-16.408476,82.88435,88.74951)" fill="#343a40"/>
<use data-text="&#x062a;" xlink:href="#font_1_1189" transform="matrix(16.408476,0,0,-16.408476,76.17009,88.91055)" fill="#343a40"/>
<use data-text="&#x064e;" xlink:href="#font_1_728" transform="matrix(16.408476,0,0,-16.408476,76.36955,88.18953)" fill="#343a40"/>
<use data-text="&#x0627;" xlink:href="#font_1_1173" transform="matrix(16.408476,0,0,-16.408476,71.87508,88.91055)" fill="#343a40"/>
<use data-text="&#x0628;" xlink:href="#font_1_682" transform="matrix(16.408476,0,0,-16.408476,57.534074,88.91055)" fill="#343a40"/>
<use data-text="&#x064f;" xlink:href="#font_1_730" transform="matrix(16.408476,0,0,-16.408476,62.276727,88.542728)" fill="#343a40"/>
<path transform="matrix(1.83,0,0,-1.83,.72834,88.91055)" stroke-width=".3985" stroke-linecap="butt" stroke-miterlimit="10" stroke-linejoin="miter" fill="none" stroke="#343a40" d="M28.21068 8.58932C28.58427 9.33653 29.45602 9.83467 30.70137 9.83467H37.34627C38.59161 9.83467 39.46336 10.3328 39.83696 11.08002 40.21054 10.3328 41.0823 9.83467 42.32765 9.83467H48.97255C50.2179 9.83467 51.08965 9.33653 51.46324 8.58932"/>
<use data-text="a" xlink:href="#font_2_68" transform="matrix(0,-10.9389719,-10.9389719,-0,77.58469,67.35865)" fill="#343a40"/>
<use data-text="n" xlink:href="#font_2_81" transform="matrix(0,-10.9389719,-10.9389719,-0,77.58469,61.79071)" fill="#343a40"/>
<use data-text="n" xlink:href="#font_2_81" transform="matrix(0,-10.9389719,-10.9389719,-0,77.58469,55.58831)" fill="#343a40"/>
<use data-text="e" xlink:href="#font_2_72" transform="matrix(0,-10.9389719,-10.9389719,-0,77.58469,49.38591)" fill="#343a40"/>
<use data-text="x" xlink:href="#font_2_91" transform="matrix(0,-10.9389719,-10.9389719,-0,77.58469,44.025819)" fill="#343a40"/>
<use data-text="e" xlink:href="#font_2_72" transform="matrix(0,-10.9389719,-10.9389719,-0,77.58469,38.60009)" fill="#343a40"/>
<use data-text="n" xlink:href="#font_2_81" transform="matrix(0,-10.9389719,-10.9389719,-0,77.58469,30.045823)" fill="#343a40"/>
<use data-text="o" xlink:href="#font_2_82" transform="matrix(0,-10.9389719,-10.9389719,-0,77.58469,23.843422)" fill="#343a40"/>
<use data-text="u" xlink:href="#font_2_88" transform="matrix(0,-10.9389719,-10.9389719,-0,77.58469,17.892624)" fill="#343a40"/>
<use data-text="n" xlink:href="#font_2_81" transform="matrix(0,-10.9389719,-10.9389719,-0,77.58469,11.66835)" fill="#343a40"/>
<path transform="matrix(1.83,0,0,-1.83,.72834,88.91055)" stroke-width=".3985" stroke-linecap="butt" stroke-miterlimit="10" stroke-linejoin="miter" fill="none" stroke="#343a40" d="M-.19925 8.58932C.17433 9.33653 1.04608 9.83467 2.29143 9.83467H10.40082C11.64616 9.83467 12.51793 10.3328 12.89151 11.08002 13.2651 10.3328 14.13686 9.83467 15.3822 9.83467H23.4916C24.73694 9.83467 25.6087 9.33653 25.98228 8.58932"/>
<use data-text="b" xlink:href="#font_2_69" transform="matrix(0,-10.9389719,-10.9389719,-0,28.273499,67.35864)" fill="#343a40"/>
<use data-text="a" xlink:href="#font_2_68" transform="matrix(0,-10.9389719,-10.9389719,-0,28.273499,61.28751)" fill="#343a40"/>
<use data-text="s" xlink:href="#font_2_86" transform="matrix(0,-10.9389719,-10.9389719,-0,28.273499,55.719575)" fill="#343a40"/>
<use data-text="e" xlink:href="#font_2_72" transform="matrix(0,-10.9389719,-10.9389719,-0,28.273499,51.36586)" fill="#343a40"/>
<use data-text="n" xlink:href="#font_2_81" transform="matrix(0,-10.9389719,-10.9389719,-0,28.273499,42.800645)" fill="#343a40"/>
<use data-text="o" xlink:href="#font_2_82" transform="matrix(0,-10.9389719,-10.9389719,-0,28.273499,36.598249)" fill="#343a40"/>
<use data-text="u" xlink:href="#font_2_88" transform="matrix(0,-10.9389719,-10.9389719,-0,28.273499,30.647446)" fill="#343a40"/>
<use data-text="n" xlink:href="#font_2_81" transform="matrix(0,-10.9389719,-10.9389719,-0,28.273499,24.423172)" fill="#343a40"/>
<path transform="matrix(1.83,0,0,-1.83,.72834,88.91055)" stroke-width=".3985" stroke-linecap="butt" stroke-miterlimit="10" stroke-linejoin="miter" fill="none" stroke="#343a40" d="M-.19925-4.26807C.17433-5.01527 1.04608-5.51341 2.29143-5.51341H23.1413C24.38664-5.51341 25.25839-6.01154 25.63199-6.75876 26.00557-6.01154 26.87733-5.51341 28.12268-5.51341H48.97255C50.2179-5.51341 51.08965-5.01527 51.46324-4.26807"/>
<use data-text="a" xlink:href="#font_2_68" transform="matrix(10.9389719,0,0,-10.9389719,20.80527,112.43886)" fill="#343a40"/>
<use data-text="n" xlink:href="#font_2_81" transform="matrix(10.9389719,0,0,-10.9389719,26.373206,112.43886)" fill="#343a40"/>
<use data-text="n" xlink:href="#font_2_81" transform="matrix(10.9389719,0,0,-10.9389719,32.5756,112.43886)" fill="#343a40"/>
<use data-text="e" xlink:href="#font_2_72" transform="matrix(10.9389719,0,0,-10.9389719,38.778,112.43886)" fill="#343a40"/>
<use data-text="x" xlink:href="#font_2_91" transform="matrix(10.9389719,0,0,-10.9389719,44.1381,112.43886)" fill="#343a40"/>
<use data-text="a" xlink:href="#font_2_68" transform="matrix(10.9389719,0,0,-10.9389719,49.716974,112.43886)" fill="#343a40"/>
<use data-text="t" xlink:href="#font_2_87" transform="matrix(10.9389719,0,0,-10.9389719,55.284914,112.43886)" fill="#343a40"/>
<use data-text="i" xlink:href="#font_2_76" transform="matrix(10.9389719,0,0,-10.9389719,59.004167,112.43886)" fill="#343a40"/>
<use data-text="o" xlink:href="#font_2_82" transform="matrix(10.9389719,0,0,-10.9389719,62.318674,112.43886)" fill="#343a40"/>
<use data-text="n" xlink:href="#font_2_81" transform="matrix(10.9389719,0,0,-10.9389719,68.26948,112.43886)" fill="#343a40"/>
<use data-text="&#x201c;" xlink:href="#font_2_180" transform="matrix(16.408476,0,0,-16.408476,6.5623805,156.12647)" fill="#343a40"/>
<use data-text="t" xlink:href="#font_2_87" transform="matrix(16.408476,0,0,-16.408476,13.99542,156.12647)" fill="#343a40"/>
<use data-text="h" xlink:href="#font_2_75" transform="matrix(16.408476,0,0,-16.408476,19.508667,156.12647)" fill="#343a40"/>
<use data-text="e" xlink:href="#font_2_72" transform="matrix(16.408476,0,0,-16.408476,28.927134,156.12647)" fill="#343a40"/>
<use data-text="b" xlink:href="#font_2_69" transform="matrix(16.408476,0,0,-16.408476,41.75856,156.12647)" fill="#343a40"/>
<use data-text="o" xlink:href="#font_2_82" transform="matrix(16.408476,0,0,-16.408476,50.865266,156.12647)" fill="#343a40"/>
<use data-text="y" xlink:href="#font_2_92" transform="matrix(16.408476,0,0,-16.408476,59.56176,156.12647)" fill="#343a40"/>
<use data-text="&#x2019;" xlink:href="#font_2_183" transform="matrix(16.408476,0,0,-16.408476,68.258258,156.12647)" fill="#343a40"/>
<use data-text="s" xlink:href="#font_2_86" transform="matrix(16.408476,0,0,-16.408476,72.06502,156.12647)" fill="#343a40"/>
<use data-text="b" xlink:href="#font_2_69" transform="matrix(16.408476,0,0,-16.408476,83.38686,156.12647)" fill="#343a40"/>
<use data-text="o" xlink:href="#font_2_82" transform="matrix(16.408476,0,0,-16.408476,92.49357,156.12647)" fill="#343a40"/>
<use data-text="o" xlink:href="#font_2_82" transform="matrix(16.408476,0,0,-16.408476,101.419788,156.12647)" fill="#343a40"/>
<use data-text="k" xlink:href="#font_2_78" transform="matrix(16.408476,0,0,-16.408476,110.346,156.12647)" fill="#343a40"/>
<use data-text="&#x201d;" xlink:href="#font_2_181" transform="matrix(16.408476,0,0,-16.408476,118.96045,156.12647)" fill="#343a40"/>
</svg>
