<svg xmlns="http://www.w3.org/2000/svg" xmlns:xlink="http://www.w3.org/1999/xlink" xmlns:inkscape="http://www.inkscape.org/namespaces/inkscape" version="1.1" width="157.44464" height="82.8564" viewBox="0 0 157.44464 82.8564">
<defs>
<path id="font_1_781" d="M.15722656 .6088867V.00048828127H.07470703V.6088867H.15722656M-.025390625 .6904297-.016601563 .73095706C-.012369792 .7273763-.006754557 .72281906 .00024414063 .71728518 .0072428386 .7117513 .013671875 .70784506 .01953125 .7055664 .045898439 .7501628 .069742839 .7821452 .09106445 .8015137 .11238607 .82088217 .13590496 .8305664 .1616211 .8305664 .18766277 .8305664 .20898438 .8224284 .22558594 .80615237 .2421875 .7898763 .25048829 .76953127 .25048829 .7451172 .25048829 .7125651 .23909505 .6897786 .2163086 .6767578 .19352214 .663737 .15413411 .65722659 .09814453 .65722659H.0859375C.056640626 .65722659 .032552083 .6599121 .013671875 .6652832-.0052083337 .6706543-.018229166 .67903646-.025390625 .6904297M.09716797 .69921877C.13916016 .69921877 .16837566 .7020671 .18481446 .7077637 .20125325 .71346029 .20947266 .72526046 .20947266 .74316409 .20947266 .7558594 .20532227 .7664388 .19702149 .77490237 .1887207 .7833659 .17773438 .78759768 .1640625 .78759768 .14615886 .78759768 .13004558 .7809245 .115722659 .7675781 .10139974 .75423178 .08382162 .7314453 .06298828 .69921877H.09716797Z"/>
<path id="font_1_1262" d="M-.009765625 .08886719H.03125C.0703125 .08886719 .09667969 .0999349 .11035156 .12207031 .12402344 .14420574 .13085938 .171875 .13085938 .20507813V.6723633H.2133789V.2055664C.2133789 .13785808 .19873047 .08666992 .1694336 .052001954 .14013672 .017333985 .09391276 0 .030761719 0H-.009765625V.08886719Z"/>
<path id="font_1_737" d="M.020507813 .5673828C.020507813 .5908203 .028889975 .6110026 .045654298 .6279297 .06241862 .64485678 .08251953 .6533203 .10595703 .6533203 .12939453 .6533203 .14949544 .64485678 .16625977 .6279297 .1830241 .6110026 .19140625 .5908203 .19140625 .5673828 .19140625 .5439453 .1830241 .5238444 .16625977 .5070801 .14949544 .49031578 .12939453 .4819336 .10595703 .4819336 .08251953 .4819336 .06241862 .49031578 .045654298 .5070801 .028889975 .5238444 .020507813 .5439453 .020507813 .5673828M.059570314 .5673828C.059570314 .554362 .06404623 .54345706 .07299805 .53466799 .08194987 .5258789 .092936199 .5214844 .10595703 .5214844 .11897787 .5214844 .12988281 .5258789 .13867188 .53466799 .14746094 .54345706 .15185547 .554362 .15185547 .5673828 .15185547 .5804036 .14746094 .5914714 .13867188 .60058596 .12988281 .6097005 .11897787 .6142578 .10595703 .6142578 .092936199 .6142578 .08194987 .6097005 .07299805 .60058596 .06404623 .5914714 .059570314 .5804036 .059570314 .5673828Z"/>
<path id="font_1_1179" d="M-.010253906 .08886719H.046875C.08821615 .08886719 .117757167 .09814453 .13549805 .11669922 .15323894 .1352539 .16210938 .16373699 .16210938 .20214844 .16210938 .21777344 .16170247 .23258464 .16088867 .24658203 .16007488 .26057945 .15901692 .2745768 .15771485 .28857423L.23925781 .29833985 .24707031 .18408203C.25097657 .12060547 .28401695 .08886719 .3461914 .08886719H.3564453V0H.34521485C.30908204 0 .28019206 .0065104167 .25854493 .01953125 .23689778 .032552083 .21940105 .05094401 .20605469 .07470703 .18847656 .048990888 .16536458 .030110678 .13671875 .018066407 .108072917 .0060221354 .078125 0 .046875 0H-.010253906V.08886719M.09033203-.07470703 .16113281-.14550781 .09033203-.2163086 .01953125-.14550781 .09033203-.07470703Z"/>
<path id="font_1_728" d="M.03173828 .5571289V.6035156L.2397461 .68847659V.64208987L.03173828 .5571289Z"/>
<path id="font_1_1290" d="M-.0107421879 .08886719H.06298828C.10432943 .08886719 .13387044 .09814453 .15161133 .11669922 .16935222 .1352539 .17822266 .16373699 .17822266 .20214844 .17822266 .21777344 .17781575 .23258464 .17700196 .24658203 .17618816 .26057945 .1751302 .2745768 .17382813 .28857423L.2553711 .29833985 .2631836 .18408203C.26708985 .12060547 .30013023 .08886719 .3623047 .08886719H.3725586V0H.36132813C.3251953 0 .29630534 .0065104167 .2746582 .01953125 .25301109 .032552083 .23551433 .05094401 .22216797 .07470703 .20458985 .048990888 .18147786 .030110678 .15283203 .018066407 .124186199 .0060221354 .09423828 0 .06298828 0H-.0107421879V.08886719M.16552735-.07763672 .23388672-.14550781 .16552735-.21435547 .09765625-.14550781 .16552735-.07763672M.0034179688-.07763672 .071777347-.14550781 .0034179688-.21435547-.064453128-.14550781 .0034179688-.07763672Z"/>
<path id="font_1_1185" d="M.5253906 .4790039 .59375 .4111328 .5253906 .34228517 .45751954 .4111328 .5253906 .4790039M.36328126 .4790039 .43164063 .4111328 .36328126 .34228517 .29541017 .4111328 .36328126 .4790039M.7397461 .28857423 .82128909 .29833985 .82958987 .18408203C.83154299 .15315755 .8404134 .1295573 .8562012 .11328125 .87198898 .09700521 .8956706 .08886719 .9272461 .08886719H.93896487V0H.9272461C.8904622 0 .8602702 .006917318 .8366699 .020751954 .81306967 .03458659 .7936198 .056803388 .7783203 .087402347 .75130209 .056152345 .7167155 .033772787 .67456057 .020263672 .6324056 .006754557 .57389327 0 .49902345 0H.41748048C.29475913 0 .20255535 .016601563 .14086914 .049804689 .079182948 .08300781 .048339845 .14046224 .048339845 .22216797 .048339845 .2446289 .05086263 .26660157 .055908204 .28808595 .060953779 .3095703 .06754557 .33024089 .075683597 .35009767L.15136719 .32177735C.14615886 .30745445 .1418457 .29215495 .13842774 .2758789 .13500977 .25960288 .13330078 .24414063 .13330078 .22949219 .1336263 .19140625 .14436849 .16219075 .16552735 .1418457 .1866862 .12150065 .21826172 .10758463 .2602539 .100097659 .3022461 .09261068 .35465495 .08886719 .41748048 .08886719H.49902345C.57682296 .08886719 .6371257 .09700521 .67993167 .11328125 .7227376 .1295573 .7441406 .15917969 .7441406 .20214844 .7441406 .2154948 .7437337 .2298177 .7429199 .24511719 .74210616 .26041667 .74104818 .27490235 .7397461 .28857423Z"/>
<path id="font_1_731" d="M.028320313-.24658203V-.20019531L.23632813-.115234378V-.1616211L.028320313-.24658203Z"/>
<path id="font_1_1176" d="M.079589847 0H-.010253906V.08886719H.07861328C.11116537 .08886719 .1332194 .09830729 .14477539 .1171875 .15633138 .1360677 .16210938 .15999349 .16210938 .18896485 .16210938 .2101237 .16015625 .23274739 .15625 .25683595 .15234375 .28092448 .14811199 .30517579 .14355469 .32958985L.22851563 .35107423C.23404949 .32503257 .23844402 .29947917 .24169922 .27441407 .24495442 .24934896 .24658203 .22542317 .24658203 .20263672 .24658203 .16357422 .24121094 .12874349 .23046875 .09814453 .21972656 .06754557 .20214844 .04353841 .17773438 .026123047 .15332031 .008707683 .12060547 0 .079589847 0M.09033203-.07470703 .16113281-.14550781 .09033203-.2163086 .01953125-.14550781 .09033203-.07470703Z"/>
<path id="font_1_1173" d="M.07470703 .6723633H.15722656V.2055664C.15722656 .15966797 .16569011 .12874349 .18261719 .11279297 .19954427 .096842449 .22509766 .08886719 .25927735 .08886719H.27148438V0H.25927735C.19710286 0 .15079753 .016520182 .12036133 .049560548 .08992513 .082600917 .07470703 .13476563 .07470703 .20605469V.6723633Z"/>
<path id="font_1_682" d="M.453125-.07470703 .5239258-.14550781 .453125-.2163086 .38232423-.14550781 .453125-.07470703M.53125 0H.41748048C.29475913 0 .20255535 .016601563 .14086914 .049804689 .079182948 .08300781 .048339845 .14046224 .048339845 .22216797 .048339845 .2446289 .05086263 .26660157 .055908204 .28808595 .060953779 .3095703 .06754557 .33024089 .075683597 .35009767L.15136719 .32177735C.14615886 .30745445 .1418457 .29215495 .13842774 .2758789 .13500977 .25960288 .13330078 .24414063 .13330078 .22949219 .1336263 .19140625 .14436849 .16219075 .16552735 .1418457 .1866862 .12150065 .21826172 .10758463 .2602539 .100097659 .3022461 .09261068 .35465495 .08886719 .41748048 .08886719H.5317383C.5538737 .08886719 .5770671 .08951823 .60131838 .09082031 .62556967 .0921224 .6482747 .095703128 .6694336 .1015625 .69059249 .107421878 .70784506 .11726888 .7211914 .13110352 .7345378 .14493816 .74121096 .16438802 .74121096 .18945313 .74121096 .2076823 .7394206 .22941081 .73583987 .25463868 .7322591 .27986656 .72802737 .30485026 .72314456 .32958985L.80810549 .35107423C.81396487 .3256836 .81844076 .2993978 .8215332 .2722168 .8246257 .24503581 .8261719 .22135417 .8261719 .20117188 .8261719 .15690105 .8186849 .12141927 .80371096 .09472656 .788737 .06803385 .76782229 .047851564 .7409668 .034179689 .7141113 .020507813 .6828613 .0113932299 .6472168 .0068359377 .61157229 .0022786458 .5729167 0 .53125 0Z"/>
<path id="font_1_1266" d="M.3310547-.011230469C.2985026-.011230469 .2684733-.0041503908 .2409668 .010009766 .21346028 .024169922 .18489583 .045572919 .15527344 .07421875 .13411458 .05045573 .11376953 .032145185 .09423828 .01928711 .07470703 .0064290368 .04720052 0 .01171875 0H-.009765625V.08886719H.009277344C.03108724 .08886719 .049479169 .09513346 .064453128 .107666019 .079427089 .12019857 .09277344 .13639324 .10449219 .15625 .11621094 .17610677 .12784831 .19718425 .1394043 .21948242 .15096028 .2417806 .16389974 .26285807 .17822266 .28271485 .19254558 .30257163 .20987956 .31876628 .23022461 .33129884 .25056968 .3438314 .27571617 .35009767 .30566407 .35009767 .34179688 .35009767 .37329103 .34138999 .40014649 .3239746 .42700196 .30655924 .4478353 .28320313 .46264649 .25390626 .47745768 .22460938 .48486329 .19189453 .48486329 .15576172 .48486329 .10270182 .47143556 .061604818 .44458009 .032470704 .4177246 .0033365887 .3798828-.011230469 .3310547-.011230469M.3076172 .26367188C.29134117 .26367188 .27652995 .2582194 .2631836 .24731446 .24983724 .2364095 .23779297 .22233074 .22705078 .20507813 .2163086 .18782552 .20670574 .16992188 .19824219 .15136719 .21777344 .13085938 .23795574 .114095058 .25878907 .10107422 .28548179 .08382162 .30924479 .07519531 .33007813 .07519531 .37825523 .07519531 .40234376 .09944662 .40234376 .14794922 .40234376 .18180339 .39396159 .20955403 .37719728 .23120117 .36043296 .2528483 .3372396 .26367188 .3076172 .26367188Z"/>
<path id="font_1_1251" d="M.25976563 .625 .3305664 .5541992 .25976563 .48339845 .18896485 .5541992 .25976563 .625M.43652345 .22998047C.43652345 .20426433 .4308268 .18041992 .4194336 .15844727 .40804038 .13647461 .39241538 .11393229 .3725586 .09082031 .39111329 .08984375 .4075521 .089274089 .421875 .08911133 .4361979 .08894857 .44889323 .08886719 .45996095 .08886719H.5073242V0H.46142579C.449056 0 .43204753 .0010579428 .4104004 .0031738282 .38875328 .0052897136 .36499024 .008951823 .33911134 .014160156 .31323243 .01936849 .2877604 .026367188 .2626953 .03515625 .2376302 .026041666 .21191406 .018961588 .18554688 .013916016 .15917969 .008870442 .13476563 .0052897136 .11230469 .0031738282 .08984375 .0010579428 .0719401 0 .05859375 0H-.009765625V.08886719H.05859375C.072265628 .08886719 .086507167 .08894857 .10131836 .08911133 .116129558 .089274089 .13411458 .09000651 .15527344 .091308597 .13574219 .114095058 .12044271 .13671875 .109375 .15917969 .09830729 .18164063 .09277344 .2055664 .09277344 .23095703 .09277344 .2511393 .09749349 .27148438 .106933597 .2919922 .116373699 .3125 .12906902 .33154298 .14501953 .3491211 .16097005 .36669923 .17919922 .38077799 .19970703 .39135743 .22021485 .40193687 .2413737 .40722657 .2631836 .40722657 .28597007 .40722657 .30777995 .40193687 .32861329 .39135743 .34944663 .38077799 .36791993 .3667806 .3840332 .34936524 .40014649 .33194987 .4129232 .31282554 .42236329 .2919922 .43180339 .27115885 .43652345 .25048829 .43652345 .22998047M.2631836 .32080079C.2508138 .32080079 .23787435 .3161621 .22436524 .30688478 .21085613 .29760743 .19946289 .28597007 .19018555 .27197267 .1809082 .25797526 .17626953 .24365235 .17626953 .2290039 .17626953 .21402996 .18066406 .19873047 .18945313 .18310547 .19824219 .16748047 .20939128 .15315755 .22290039 .14013672 .2364095 .12711589 .25016276 .11702474 .26416017 .10986328 .28889976 .120279949 .3099772 .13712566 .32739259 .16040039 .34480796 .18367513 .35351563 .20686849 .35351563 .22998047 .35351563 .24365235 .3487142 .25748698 .33911134 .27148438 .32950846 .28548179 .31770835 .29720054 .30371095 .30664063 .28971354 .31608073 .27620445 .32080079 .2631836 .32080079Z"/>
<path id="font_1_1189" d="M.22949219 .5283203 .29785157 .46044923 .22949219 .39160157 .1616211 .46044923 .22949219 .5283203M.06738281 .5283203 .13574219 .46044923 .06738281 .39160157-.00048828127 .46044923 .06738281 .5283203M-.009765625 .08886719H.08300781C.12434896 .08886719 .15388997 .09814453 .17163086 .11669922 .18937175 .1352539 .19824219 .16373699 .19824219 .20214844 .19824219 .21777344 .19783528 .23258464 .19702149 .24658203 .19620769 .26057945 .19514974 .2745768 .19384766 .28857423L.27539063 .29833985 .28320313 .18408203C.28710938 .12060547 .32014976 .08886719 .38232423 .08886719H.39257813V0H.38134767C.34521485 0 .31632487 .0065104167 .29467774 .01953125 .2730306 .032552083 .25553385 .05094401 .2421875 .07470703 .22460938 .048990888 .20149739 .030110678 .17285156 .018066407 .14420574 .0060221354 .11425781 0 .08300781 0H-.009765625V.08886719Z"/>
<path id="font_1_687" d="M.6098633 .29833985V.21435547C.5157878 .20686849 .43277995 .18961589 .36083985 .16259766 .28889976 .13557942 .23266602 .10123698 .19213867 .059570314 .15161133 .017903647 .13134766-.028971354 .13134766-.08105469 .13134766-.1953125 .21468099-.2524414 .38134767-.2524414 .4181315-.2524414 .45581056-.2487793 .49438478-.24145508 .532959-.23413086 .56901046-.22265625 .60253909-.20703125L.6245117-.28857423C.59033206-.30452476 .5513509-.3166504 .50756838-.32495118 .4637858-.33325196 .41927085-.33740235 .37402345-.33740235 .31152345-.33740235 .25577799-.3285319 .20678711-.31079103 .15779622-.29305015 .11922201-.2655436 .09106445-.22827149 .0629069-.19099935 .048828126-.14339192 .048828126-.08544922 .048828126-.03173828 .06241862 .018473307 .08959961 .06518555 .1167806 .11189779 .15779622 .15275066 .21264649 .18774414 .26749674 .22273763 .33626304 .24934896 .4189453 .26757813 .3922526 .27864585 .3659668 .28938804 .3400879 .2998047 .31420899 .31022135 .2915853 .31892906 .2722168 .32592774 .2528483 .33292643 .23925781 .33642579 .23144531 .33642579 .21158855 .33642579 .19384766 .33129884 .17822266 .32104493 .16259766 .31079103 .14729817 .29622398 .13232422 .27734376L.119140628 .2607422 .044433595 .29736329 .051757814 .30908204C.07519531 .34684245 .10148112 .37548829 .13061524 .39501954 .15974935 .41455079 .19352214 .4243164 .2319336 .4243164 .25211589 .4243164 .27693687 .4181315 .30639649 .40576173 .3358561 .39339195 .36783854 .379069 .40234376 .36279298 .43684898 .34651695 .47192384 .33194987 .50756838 .3190918 .5432129 .30623374 .5773112 .2993164 .6098633 .29833985Z"/>
<path id="font_1_730" d="M.22460938 .52197268C.21777344 .52229818 .21191406 .5227051 .20703125 .52319338 .20214844 .52368167 .19645183 .5242513 .1899414 .52490237 .15673828 .47867839 .09863281 .45328776 .015625 .44873048L.009277344 .48632813C.041829427 .4892578 .07063802 .4947103 .095703128 .50268557 .12076823 .5106608 .13916016 .5208333 .1508789 .5332031 .12809246 .53483077 .10709635 .5423177 .087890628 .55566409 .0686849 .56901046 .05908203 .58968099 .05908203 .6176758 .05908203 .63948568 .06673177 .6582845 .08203125 .67407229 .09733073 .68986007 .11653646 .6977539 .13964844 .6977539 .16276042 .6977539 .18196614 .6903483 .19726563 .6755371 .21256511 .6607259 .22021485 .64127609 .22021485 .6171875 .22021485 .5989583 .21582031 .5789388 .20703125 .5571289 .21158855 .55647787 .21875 .55566409 .22851563 .5546875L.22460938 .52197268M.16796875 .5649414C.17154949 .5730794 .17464192 .5817871 .1772461 .59106448 .17985027 .6003418 .18115235 .6088867 .18115235 .6166992 .18115235 .62906906 .17732747 .6389974 .16967774 .6464844 .162028 .6539714 .15266927 .65771487 .14160156 .65771487 .12890625 .65771487 .11857096 .6533203 .1105957 .64453127 .102620448 .6357422 .09863281 .62613937 .09863281 .61572268 .09863281 .5991211 .10555013 .5875651 .119384769 .5810547 .1332194 .57454428 .14941406 .56917318 .16796875 .5649414Z"/>
<path id="font_2_1296" d="M.49798585 .14329529C.49798585 .1532898 .4889984 .1532898 .48599244 .1532898 .47599793 .1532898 .47499085 .14929199 .47200013 .13528443 .45498658 .07026672 .43699647 .011245728 .3959961 .011245728 .36898805 .011245728 .3659973 .037261964 .3659973 .057266237 .3659973 .07926941 .36799623 .08728027 .3789978 .13128662L.40098573 .22131348 .43699647 .36135865C.44400025 .38935853 .44400025 .39135743 .44400025 .39537049 .44400025 .41236878 .43199159 .42237855 .4149933 .42237855 .3909912 .42237855 .37599183 .4003601 .37298585 .37835694 .35499574 .41537477 .32598878 .4423828 .2809906 .4423828 .1639862 .4423828 .039993287 .29533387 .039993287 .14929199 .039993287 .055267335 .09498596-.0107421879 .17298889-.0107421879 .19299317-.0107421879 .24299622-.0067443849 .30299378 .06427002 .31098939 .022247315 .34599305-.0107421879 .3939972-.0107421879 .42900086-.0107421879 .45199586 .012252808 .46798707 .044265748 .4850006 .08027649 .49798585 .14329529 .49798585 .14329529M.36099244 .33235169C.36099244 .32633973 .35899354 .32034303 .35798646 .31533814L.30799867 .119277957C.30299378 .10127258 .30299378 .09927368 .28799439 .08227539 .24398804 .027252198 .20298767 .011245728 .1749878 .011245728 .125 .011245728 .11099243 .06626892 .11099243 .105285648 .11099243 .1552887 .14299011 .27833558 .1659851 .32434083 .19699097 .38336183 .24198914 .42037965 .28199769 .42037965 .34700013 .42037965 .36099244 .3383484 .36099244 .33235169Z"/>
<path id="font_3_966" d="M.47299195 0V.035995485H.43499757C.33499146 .035995485 .33499146 .048980714 .33499146 .081954959V.63560488C.33499146 .66259768 .33299256 .66360476 .30499269 .66360476 .24099732 .6006012 .1499939 .5996094 .10899353 .5996094V.56359866C.1329956 .56359866 .19898987 .56359866 .2539978 .5915985V.081954959C.2539978 .048980714 .2539978 .035995485 .1539917 .035995485H.115997318V0L.2939911 .0039978029 .47299195 0Z"/>
<path id="font_2_1297" d="M.4149933 .28233338C.4149933 .37335206 .3619995 .4423828 .28199769 .4423828 .23599243 .4423828 .19499207 .41337586 .16499329 .38235475L.23899842 .68333438C.23899842 .68333438 .23899842 .69433596 .22599793 .69433596 .20298767 .69433596 .12998963 .6863251 .10398865 .6843262 .09599304 .68333438 .084991458 .6823273 .084991458 .6643219 .084991458 .6523285 .09399414 .6523285 .10899353 .6523285 .15699768 .6523285 .15899658 .6453247 .15899658 .6353302 .15899658 .6283264 .1499939 .5943451 .14498902 .573349L.06298828 .24731446C.050994874 .1973114 .04699707 .18130493 .04699707 .14628601 .04699707 .05126953 .099990848-.0107421879 .17399597-.0107421879 .2919922-.0107421879 .4149933 .1382904 .4149933 .28233338M.34298707 .32633973C.34298707 .26733399 .30999757 .15229798 .2919922 .11428833 .25898744 .04725647 .21299744 .011245728 .17399597 .011245728 .13999939 .011245728 .10699463 .038253786 .10699463 .11227417 .10699463 .13128662 .10699463 .15029907 .12298584 .21331787L.14498902 .30534364C.15098572 .3273468 .15098572 .3293457 .1599884 .3403473 .20899964 .405365 .2539978 .42037965 .27999879 .42037965 .31599427 .42037965 .34298707 .3903656 .34298707 .32633973Z"/>
<path id="font_3_1013" d="M.5049896 .18203736H.47099305C.46798707 .16001892 .45799256 .100997928 .44499208 .09098816 .43699647 .084991458 .3600006 .084991458 .34599305 .084991458H.1619873C.2669983 .17803955 .3019867 .20603943 .3619995 .25306703 .43598939 .312088 .5049896 .374115 .5049896 .46914674 .5049896 .5900879 .39898683 .6640625 .2709961 .6640625 .14698792 .6640625 .06298828 .57710269 .06298828 .4851532 .06298828 .43414308 .10598755 .42915345 .115997318 .42915345 .13999939 .42915345 .16899109 .44615174 .16899109 .48214723 .16899109 .5001526 .1619873 .53515627 .10998535 .53515627 .14099121 .6060791 .20899964 .62805178 .2559967 .62805178 .35598756 .62805178 .4079895 .5501404 .4079895 .46914674 .4079895 .38212586 .34599305 .3130951 .31399537 .27708436L.07299805 .038986207C.06298828 .02999878 .06298828 .027999878 .06298828 0H.47499085L.5049896 .18203736Z"/>
<path id="font_4_180" d="M.39208985 .70214846C.38264976 .69108077 .37141929 .6780599 .35839845 .66308596 .3453776 .648112 .33390299 .6312663 .3239746 .6125488 .31404624 .59383139 .30908204 .5732422 .30908204 .55078127 .30908204 .54752609 .30924479 .5440267 .3095703 .5402832 .30989585 .53653976 .3100586 .5333659 .3100586 .5307617H.37304688L.38061524 .5197754C.3856608 .5124512 .3881836 .5032552 .3881836 .4921875 .3881836 .4752604 .38264976 .46069337 .37158204 .44848634 .3605143 .4362793 .34602867 .43017579 .328125 .43017579 .30208335 .43017579 .28173829 .4388021 .26708985 .4560547 .2524414 .47330729 .24511719 .4962565 .24511719 .52490237 .24511719 .5489909 .24951172 .5710449 .25830079 .59106448 .26708985 .611084 .27775065 .62890627 .2902832 .64453127 .30281578 .66015627 .31510417 .67333987 .32714845 .68408206 .33919273 .6948242 .34847007 .703125 .35498048 .7089844L.39208985 .70214846M.18603516 .70214846C.16617839 .6822917 .14737956 .65966799 .12963867 .63427737 .11189779 .6088867 .103027347 .5807292 .103027347 .5498047 .103027347 .5465495 .1031901 .5432129 .103515628 .5397949 .10384115 .53637698 .104003909 .5333659 .104003909 .5307617H.16699219L.17456055 .5202637C.17960613 .51326498 .1821289 .50358077 .1821289 .49121095 .1821289 .47428385 .17667644 .45987956 .16577149 .44799806 .15486653 .43611656 .14029949 .43017579 .12207031 .43017579 .096354167 .43017579 .07609049 .43847657 .061279298 .45507813 .046468099 .4716797 .0390625 .49430339 .0390625 .5229492 .0390625 .5473633 .04345703 .56974288 .052246095 .5900879 .061035158 .6104329 .07169596 .6284993 .084228519 .6442871 .09676107 .6600749 .10904948 .67333987 .12109375 .68408206 .13313802 .6948242 .14241536 .703125 .14892578 .7089844L.18603516 .70214846Z"/>
<path id="font_4_87" d="M.3330078 .020996094C.31966148 .013834636 .30037437 .0065104167 .27514649-.0009765625 .24991863-.008463542 .22428386-.012207031 .19824219-.012207031 .1608073-.012207031 .13354492-.0033365887 .11645508 .014404297 .099365238 .032145185 .09082031 .060709638 .09082031 .100097659V.4321289H.026855469V.46484376L.095214847 .4970703 .14013672 .60302737H.18408203V.4819336H.3251953V.4321289H.18408203V.15283203C.18408203 .11311849 .1907552 .08504232 .20410156 .068603519 .21744792 .052164716 .23746746 .043945314 .26416017 .043945314 .27848307 .043945314 .2919922 .045898439 .3046875 .049804689 .3173828 .053710939 .3268229 .057454427 .3330078 .061035158V.020996094Z"/>
<path id="font_4_75" d="M.55078127 0H.328125V.0390625L.36914063 .041992189C.375 .04264323 .38012696 .044921876 .38452149 .048828126 .38891603 .052734376 .39111329 .05777995 .39111329 .063964847V.32177735C.39111329 .3504232 .38427735 .37410484 .37060548 .39282228 .3569336 .4115397 .33072917 .42089845 .2919922 .42089845 .27441407 .42089845 .25545249 .4181315 .23510742 .41259767 .21476238 .4070638 .19742839 .40022788 .18310547 .39208985V.063964847C.18310547 .05029297 .18977864 .04296875 .203125 .041992189L.24609375 .0390625V0H.020996094V.0390625L.068847659 .041992189C.082845058 .04296875 .08984375 .05029297 .08984375 .063964847V.66503909H.015136719V.6982422L.1430664 .7368164H.18310547V.4321289C.19514974 .43961589 .21077474 .4481608 .22998047 .45776368 .2491862 .46736656 .2693685 .47583009 .29052735 .4831543 .3116862 .49047853 .33089195 .49414063 .34814454 .49414063 .386556 .49414063 .41878257 .48177085 .44482423 .45703126 .47086589 .43229167 .48388673 .39420573 .48388673 .34277345V.063964847C.48388673 .05777995 .48608399 .052734376 .49047853 .048828126 .49487306 .044921876 .5 .04264323 .5058594 .041992189L.55078127 .0390625V0Z"/>
<path id="font_4_72" d="M.26611329-.012207031C.2257487-.012207031 .1879069-.0031738282 .15258789 .014892578 .11726888 .032958986 .08870443 .060384115 .06689453 .09716797 .045084638 .13395183 .034179689 .18017578 .034179689 .23583985 .034179689 .2879232 .044270833 .33333335 .064453128 .3720703 .084635417 .41080729 .112467449 .44083659 .14794922 .4621582 .18343099 .48347984 .22379558 .49414063 .26904298 .49414063 .33121745 .49414063 .3779297 .47485353 .4091797 .4362793 .4404297 .39770509 .4560547 .3486328 .4560547 .2890625 .4560547 .28580729 .4560547 .28149415 .4560547 .27612306 .4560547 .27075196 .45572917 .26578776 .45507813 .26123048H.13085938C.13085938 .23583985 .13354492 .2105306 .13891602 .18530274 .14428711 .16007488 .15332031 .13720703 .16601563 .11669922 .17871094 .096191409 .19580078 .0797526 .21728516 .06738281 .23876953 .05501302 .265625 .048828126 .29785157 .048828126 .3264974 .048828126 .3544108 .055419923 .3815918 .068603519 .4087728 .08178711 .43359376 .09586588 .4560547 .110839847V.049804689C.4280599 .032552083 .39786784 .017903647 .36547853 .005859375 .3330892-.006184896 .29996745-.012207031 .26611329-.012207031M.13623047 .30615235H.35595704V.328125C.35595704 .3610026 .34806315 .38867188 .3322754 .4111328 .31648765 .43359376 .2919922 .44482423 .25878907 .44482423 .22591146 .44482423 .19791667 .43245445 .17480469 .40771485 .1516927 .38297526 .13883464 .3491211 .13623047 .30615235Z"/>
<path id="font_4_82" d="M.5097656 .24023438C.5097656 .19303386 .5 .15030925 .48046876 .11206055 .4609375 .07381185 .4333496 .04353841 .39770509 .021240235 .36206056-.0010579428 .31982423-.012207031 .2709961-.012207031 .22249349-.012207031 .1805013-.0011393229 .14501953 .020996094 .10953776 .04313151 .08219401 .07324219 .06298828 .111328128 .04378255 .14941406 .034179689 .19238281 .034179689 .24023438 .034179689 .2877604 .043863935 .33072917 .06323242 .36914063 .082600917 .4075521 .11027018 .43798829 .14624024 .46044923 .18221028 .48291017 .22477214 .49414063 .27392579 .49414063 .32373048 .49414063 .36621095 .4827474 .4013672 .45996095 .43652345 .43717448 .4633789 .40657554 .4819336 .36816407 .5004883 .3297526 .5097656 .28710938 .5097656 .24023438M.40576173 .24121094C.40576173 .27766929 .4009603 .3116862 .39135743 .34326173 .38175456 .37483726 .3671061 .40039063 .3474121 .41992188 .3277181 .43945313 .30289714 .44921876 .27294923 .44921876 .24202474 .44921876 .2167155 .43945313 .19702149 .41992188 .17732747 .40039063 .16276042 .37483726 .15332031 .34326173 .1438802 .3116862 .13916016 .27766929 .13916016 .24121094 .13916016 .20507813 .1439616 .17114258 .15356446 .1394043 .16316732 .107666019 .17781575 .08203125 .19750977 .0625 .21720378 .04296875 .24202474 .033203126 .27197267 .033203126 .30257163 .033203126 .3277181 .04296875 .3474121 .0625 .3671061 .08203125 .38175456 .10758463 .39135743 .13916016 .4009603 .17073567 .40576173 .20475261 .40576173 .24121094Z"/>
<path id="font_4_88" d="M.546875 0H.3881836V.057128908C.37679038 .048339845 .3623047 .03857422 .34472657 .027832032 .32714845 .017089844 .30826823 .0077311198 .28808595-.00024414063 .26790367-.008219401 .24788411-.012207031 .22802735-.012207031 .1850586-.012207031 .15128581 .0007324219 .12670899 .026611329 .102132167 .052490236 .08984375 .09358724 .08984375 .14990235V.42089845H.020019532V.45507813L.1430664 .49414063H.18310547V.16894531C.18310547 .13346355 .19034831 .10579427 .20483399 .0859375 .21931966 .06608073 .24430339 .056152345 .27978517 .056152345 .30029298 .056152345 .32047526 .05965169 .34033204 .06665039 .3601888 .073649089 .3761393 .080078128 .3881836 .0859375V.42089845H.3178711V.45507813L.4399414 .49414063H.48095704V.063964847C.48095704 .05777995 .4831543 .052734376 .48754884 .048828126 .49194337 .044921876 .4970703 .04264323 .5029297 .041992189L.546875 .0390625V0Z"/>
<path id="font_4_86" d="M.3491211 .35302735H.296875L.2890625 .42285157C.28190104 .4283854 .27132163 .43359376 .25732423 .43847657 .24332683 .44335938 .22851563 .44580079 .21289063 .44580079 .18554688 .44580079 .16520183 .43953453 .15185547 .42700196 .13850911 .4144694 .13183594 .3984375 .13183594 .37890626 .13183594 .36393229 .1352539 .35123698 .14208985 .3408203 .14892578 .33040367 .16048177 .3202311 .17675781 .31030274 .19303386 .30037437 .21516927 .28889976 .24316406 .2758789 .27799479 .25992839 .30680339 .24226888 .32958985 .22290039 .3523763 .2035319 .36376954 .17757161 .36376954 .14501953 .36376954 .09586588 .34684245 .057373048 .31298829 .029541016 .27913413 .0017089844 .23242188-.012207031 .17285156-.012207031 .14225261-.012207031 .11401367-.009033203 .088134769-.0026855469 .06225586 .0036621094 .044270833 .008951823 .034179689 .013183594V.1459961H.08496094L.09716797 .061035158C.10725912 .05452474 .11971029 .048258466 .13452149 .042236329 .14933269 .03621419 .1665039 .033203126 .18603516 .033203126 .21468099 .033203126 .2368164 .041178388 .2524414 .057128908 .2680664 .07307943 .2758789 .09098307 .2758789 .110839847 .2758789 .13688152 .2652181 .15730794 .24389649 .17211914 .22257488 .18693035 .19254558 .20361328 .1538086 .22216797 .11735026 .2397461 .08943685 .2578125 .07006836 .2763672 .05069987 .29492188 .041015626 .3191732 .041015626 .3491211 .041015626 .39371745 .056640626 .42903648 .087890628 .45507813 .119140628 .48111979 .16357422 .49414063 .2211914 .49414063 .25048829 .49414063 .27661134 .49145509 .29956056 .48608399 .32250978 .4807129 .33902995 .4757487 .3491211 .4711914V.35302735Z"/>
<path id="font_4_183" d="M.20800781 .61621096C.20800781 .5917969 .20361328 .5694173 .19482422 .54907229 .18603516 .52872726 .17537435 .5106608 .1628418 .49487306 .15030925 .4790853 .13802083 .4658203 .12597656 .45507813 .11393229 .44433595 .104654949 .43603517 .09814453 .43017579L.061035158 .43798829C.083496097 .4601237 .10310873 .48380534 .11987305 .5090332 .13663738 .53426107 .14469402 .56119796 .14404297 .58984377 .14404297 .59244796 .1438802 .59554037 .14355469 .5991211 .14322917 .60270187 .1430664 .60563156 .1430664 .60791018H.080078128L.072509769 .61938479C.067464198 .6270345 .064941409 .63655599 .064941409 .6479492 .064941409 .66520187 .07023112 .6796875 .08081055 .69140627 .09138998 .703125 .10611979 .7089844 .125 .7089844 .15006511 .7089844 .17016602 .70076498 .18530274 .6843262 .20043946 .6678874 .20800781 .6451823 .20800781 .61621096Z"/>
<path id="font_4_71" d="M.53808596 0H.38085938V.053222658C.3580729 .03564453 .33382163 .020345053 .30810548 .0073242189 .2823893-.0056966149 .25504557-.012207031 .22607422-.012207031 .19254558-.012207031 .1636556-.005126953 .1394043 .009033203 .11515299 .02319336 .09529623 .041992189 .079833988 .06542969 .06437174 .08886719 .052897138 .114746097 .045410158 .1430664 .037923177 .17138672 .034179689 .19970703 .034179689 .22802735 .034179689 .27327476 .04345703 .3161621 .06201172 .35668946 .080566409 .3972168 .10872396 .43025718 .14648438 .45581056 .1842448 .48136393 .23177083 .49414063 .2890625 .49414063 .30501304 .49414063 .32234703 .4925944 .34106446 .48950196 .3597819 .48640953 .37304688 .48388673 .38085938 .4819336V.66503909H.30517579V.6982422L.43408204 .7368164H.4741211V.063964847C.4741211 .05029297 .48111979 .04296875 .4951172 .041992189L.53808596 .0390625V0M.38085938 .09082031V.43115235C.37239585 .43408204 .3597819 .43725587 .34301759 .44067384 .32625328 .4440918 .31054688 .44580079 .29589845 .44580079 .24641927 .44580079 .20686849 .42749024 .1772461 .39086915 .1476237 .35424806 .1328125 .30566407 .1328125 .24511719 .1328125 .1907552 .14550781 .14567058 .17089844 .10986328 .19628906 .07405599 .2319336 .056152345 .27783204 .056152345 .2980143 .056152345 .31697593 .059977216 .3347168 .06762695 .35245768 .075276698 .36783854 .08300781 .38085938 .09082031Z"/>
<path id="font_4_85" d="M.38085938 .3798828H.34179688C.33561198 .38736979 .3282064 .39379884 .31958009 .39916993 .31095378 .40454103 .30045573 .40722657 .28808595 .40722657 .2721354 .40722657 .25577799 .40169273 .23901367 .390625 .22224935 .37955729 .20524089 .36442057 .18798828 .34521485V.063964847C.18798828 .04996745 .19498699 .04264323 .20898438 .041992189L.27490235 .0390625V0H.024902344V.038085939L.07421875 .041992189C.080078128 .04264323 .08504232 .044921876 .08911133 .048828126 .093180339 .052734376 .095214847 .05777995 .095214847 .063964847V.4111328H.022949219V.44384767L.14697266 .4819336H.18798828V.3930664C.2163086 .425944 .2409668 .45100913 .2619629 .46826173 .28295899 .4855143 .3022461 .49414063 .31982423 .49414063 .33024089 .49414063 .34147135 .49251304 .35351563 .4892578 .3655599 .4860026 .37467448 .48258464 .38085938 .4790039V.3798828Z"/>
<path id="font_4_78" d="M.5239258 0H.36376954V.0390625L.23876953 .22705078H.18310547V.063964847C.18310547 .05029297 .19010417 .04296875 .20410156 .041992189L.24707031 .0390625V0H.020019532V.0390625L.068847659 .041992189C.082845058 .04296875 .08984375 .05029297 .08984375 .063964847V.66503909H.014160156V.6982422L.14208985 .7368164H.18310547V.25585938H.203125L.35009767 .421875C.3527018 .42513023 .35310874 .42871095 .35131837 .4326172 .34952799 .43652345 .34635417 .4386393 .34179688 .43896485L.30078126 .4428711V.4819336H.4951172V.4428711L.43115235 .43603517 .29882813 .29492188 .4711914 .044921876 .5239258 .0390625V0Z"/>
<path id="font_4_92" d="M.52001956 .4428711 .46777345 .43701173 .2758789-.030761719C.27164714-.041503908 .26505534-.056884767 .25610353-.0769043 .24715169-.09692383 .23657227-.11743164 .22436524-.13842774 .2121582-.15942383 .19905599-.17692058 .1850586-.19091797 .17301433-.20296224 .15974935-.21232097 .14526367-.21899414 .130778-.22566732 .11507162-.2290039 .09814453-.2290039 .07438151-.2290039 .056233724-.2232259 .043701173-.21166992 .03116862-.20011394 .024902344-.18684896 .024902344-.171875 .024902344-.14973958 .03564453-.12972005 .057128908-.111816409L.1508789-.15478516C.16194661-.14371746 .17301433-.12874349 .18408203-.10986328 .19514974-.09098307 .2051595-.07145182 .21411133-.05126953 .22306316-.03108724 .22998047-.013671875 .23486328 .0009765625L.064941409 .43701173 .009765625 .4428711V.4819336H.23095703V.4428711L.18310547 .4399414C.17757161 .43961589 .1730957 .43725587 .16967774 .43286134 .16625977 .4284668 .16569011 .4235026 .16796875 .41796876L.2841797 .123046878 .40283204 .41796876C.4051107 .4231771 .40478517 .4280599 .40185548 .4326172 .39892579 .43717448 .394694 .43961589 .38916017 .4399414L.34179688 .4428711V.4819336H.52001956V.4428711Z"/>
<path id="font_4_181" d="M.4140625 .61621096C.4140625 .5917969 .40966798 .5694173 .4008789 .54907229 .39208985 .52872726 .38142906 .5106608 .36889649 .49487306 .35636393 .4790853 .34407554 .4658203 .33203126 .45507813 .31998698 .44433595 .31070964 .43603517 .30419923 .43017579L.26708985 .43798829C.28727214 .45817057 .3063151 .48079429 .32421876 .5058594 .3421224 .5309245 .35107423 .55891928 .35107423 .58984377 .35107423 .5934245 .3507487 .59676107 .35009767 .5998535 .34944663 .602946 .3491211 .60563156 .3491211 .60791018H.2861328L.27856446 .6191406C.2735189 .6266276 .2709961 .63655599 .2709961 .6489258 .2709961 .6661784 .27652995 .6805013 .28759767 .69189456 .29866538 .7032878 .31315104 .7089844 .3310547 .7089844 .3564453 .7089844 .3766276 .70060226 .39160157 .6838379 .40657554 .66707357 .4140625 .64453127 .4140625 .61621096M.20800781 .6152344C.20800781 .5911458 .20361328 .5690918 .19482422 .54907229 .18603516 .52905276 .17537435 .5111491 .1628418 .49536134 .15030925 .47957359 .13802083 .4662272 .12597656 .45532228 .11393229 .44441734 .104654949 .43603517 .09814453 .43017579L.061035158 .43798829C.07047526 .449056 .08170573 .46199546 .09472656 .47680665 .1077474 .49161784 .11922201 .5083008 .12915039 .52685549 .13907878 .54541018 .14404297 .5657552 .14404297 .5878906 .14404297 .5914714 .1438802 .5951335 .14355469 .59887698 .14322917 .6026204 .1430664 .60563156 .1430664 .60791018H.080078128L.072509769 .6196289C.067464198 .6274414 .064941409 .63688156 .064941409 .6479492 .064941409 .66520187 .07063802 .6796875 .08203125 .69140627 .09342448 .703125 .108072917 .7089844 .12597656 .7089844 .15201824 .7089844 .17220052 .70043948 .18652344 .6833496 .20084636 .66625979 .20800781 .6435547 .20800781 .6152344Z"/>
</defs>
<use data-text="&#x0671;" xlink:href="#font_1_781" transform="matrix(14.794527,0,0,-14.794527,33.49665,13.843498)" fill="#343a40"/>
<use data-text="&#x0644;" xlink:href="#font_1_1262" transform="matrix(14.794527,0,0,-14.794527,29.250622,13.843498)" fill="#343a40"/>
<use data-text="&#x0652;" xlink:href="#font_1_737" transform="matrix(14.794527,0,0,-14.794527,30.1521,9.761398)" fill="#343a40"/>
<use data-text="&#x0628;" xlink:href="#font_1_1179" transform="matrix(14.794527,0,0,-14.794527,24.106499,13.843498)" fill="#343a40"/>
<use data-text="&#x064e;" xlink:href="#font_1_728" transform="matrix(14.794527,0,0,-14.794527,24.58335,15.699753)" fill="#343a40"/>
<use data-text="&#x064a;" xlink:href="#font_1_1290" transform="matrix(14.794527,0,0,-14.794527,18.73905,13.843498)" fill="#343a40"/>
<use data-text="&#x0652;" xlink:href="#font_1_737" transform="matrix(14.794527,0,0,-14.794527,20.12505,14.211449)" fill="#343a40"/>
<use data-text="&#x062a;" xlink:href="#font_1_1185" transform="matrix(14.794527,0,0,-14.794527,4.99125,13.843498)" fill="#343a40"/>
<use data-text="&#x0650;" xlink:href="#font_1_731" transform="matrix(14.794527,0,0,-14.794527,9.60795,13.546501)" fill="#343a40"/>
<use data-text="&#x0628;" xlink:href="#font_1_1176" transform="matrix(14.794527,0,0,-14.794527,66.740848,13.843498)" fill="#343a40"/>
<use data-text="&#x064e;" xlink:href="#font_1_728" transform="matrix(14.794527,0,0,-14.794527,66.94379,15.165146)" fill="#343a40"/>
<use data-text="&#x0627;" xlink:href="#font_1_1173" transform="matrix(14.794527,0,0,-14.794527,62.869947,13.843498)" fill="#343a40"/>
<use data-text="&#x0628;" xlink:href="#font_1_682" transform="matrix(14.794527,0,0,-14.794527,49.939535,13.843498)" fill="#343a40"/>
<use data-text="&#x0650;" xlink:href="#font_1_731" transform="matrix(14.794527,0,0,-14.794527,54.677698,16.349854)" fill="#343a40"/>
<use data-text="&#x0645;" xlink:href="#font_1_1266" transform="matrix(14.794527,0,0,-14.794527,110.90144,13.843498)" fill="#343a40"/>
<use data-text="&#x0650;" xlink:href="#font_1_731" transform="matrix(14.794527,0,0,-14.794527,112.98209,13.719749)" fill="#343a40"/>
<use data-text="&#x0641;" xlink:href="#font_1_1251" transform="matrix(14.794527,0,0,-14.794527,103.540798,13.843498)" fill="#343a40"/>
<use data-text="&#x0652;" xlink:href="#font_1_737" transform="matrix(14.794527,0,0,-14.794527,105.72871,10.578148)" fill="#343a40"/>
<use data-text="&#x062a;" xlink:href="#font_1_1189" transform="matrix(14.794527,0,0,-14.794527,97.87635,13.843498)" fill="#343a40"/>
<use data-text="&#x064e;" xlink:href="#font_1_728" transform="matrix(14.794527,0,0,-14.794527,98.05785,13.1933979)" fill="#343a40"/>
<use data-text="&#x0627;" xlink:href="#font_1_1173" transform="matrix(14.794527,0,0,-14.794527,94.0038,13.843498)" fill="#343a40"/>
<use data-text="&#x062d;" xlink:href="#font_1_687" transform="matrix(14.794527,0,0,-14.794527,84.121059,13.843498)" fill="#343a40"/>
<use data-text="&#x064f;" xlink:href="#font_1_730" transform="matrix(14.794527,0,0,-14.794527,86.02935,12.419556)" fill="#343a40"/>
<path transform="matrix(1.65,0,0,-1.65,.6567,13.843498)" stroke-width=".3985" stroke-linecap="butt" stroke-miterlimit="10" stroke-linejoin="miter" fill="none" stroke="#343a40" d="M47.75046-4.26807C48.12404-5.01527 48.9958-5.51341 50.24115-5.51341H58.59572C59.84106-5.51341 60.71281-6.01154 61.08641-6.75876 61.45999-6.01154 62.33176-5.51341 63.5771-5.51341H71.93167C73.17702-5.51341 74.04877-5.01527 74.42236-4.26807"/>
<use data-text="&#x1d44e;" xlink:href="#font_2_1296" transform="matrix(16.542702,0,0,-16.542702,93.31575,38.6232)" fill="#343a40"/>
<use data-text="1" xlink:href="#font_3_966" transform="matrix(11.579898,0,0,-11.579898,102.06735,42.7086)" fill="#343a40"/>
<path transform="matrix(1.65,0,0,-1.65,.6567,13.843498)" stroke-width=".3985" stroke-linecap="butt" stroke-miterlimit="10" stroke-linejoin="miter" fill="none" stroke="#343a40" d="M27.03734-4.26807C27.41092-5.01527 28.28268-5.51341 29.52803-5.51341H33.789C35.03435-5.51341 35.90611-6.01154 36.2797-6.75876 36.65329-6.01154 37.52504-5.51341 38.77039-5.51341H43.03137C44.27672-5.51341 45.14847-5.01527 45.52206-4.26807"/>
<use data-text="&#x1d44f;" xlink:href="#font_2_1297" transform="matrix(16.542702,0,0,-16.542702,53.212499,38.6232)" fill="#343a40"/>
<use data-text="1" xlink:href="#font_3_966" transform="matrix(11.579898,0,0,-11.579898,60.309148,42.7086)" fill="#343a40"/>
<path transform="matrix(1.65,0,0,-1.65,.6567,13.843498)" stroke-width=".3985" stroke-linecap="butt" stroke-miterlimit="10" stroke-linejoin="miter" fill="none" stroke="#343a40" d="M27.03734-4.26807C27.41092-5.01527 28.28268-5.51341 29.52803-5.51341H33.789C35.03435-5.51341 35.90611-6.01154 36.2797-6.75876 36.65329-6.01154 37.52504-5.51341 38.77039-5.51341H43.03137C44.27672-5.51341 45.14847-5.01527 45.52206-4.26807"/>
<use data-text="&#x1d44e;" xlink:href="#font_2_1296" transform="matrix(16.542702,0,0,-16.542702,52.3842,54.664499)" fill="#343a40"/>
<use data-text="2" xlink:href="#font_3_1013" transform="matrix(11.579898,0,0,-11.579898,61.1358,58.75155)" fill="#343a40"/>
<path transform="matrix(1.65,0,0,-1.65,.6567,13.843498)" stroke-width=".3985" stroke-linecap="butt" stroke-miterlimit="10" stroke-linejoin="miter" fill="none" stroke="#343a40" d="M-.19925-4.26807C.17433-5.01527 1.04608-5.51341 2.29143-5.51341H9.81415C11.0595-5.51341 11.93124-6.01154 12.30484-6.75876 12.67842-6.01154 13.55019-5.51341 14.79553-5.51341H22.31824C23.56358-5.51341 24.43535-5.01527 24.80893-4.26807"/>
<use data-text="&#x1d44f;" xlink:href="#font_2_1297" transform="matrix(16.542702,0,0,-16.542702,13.653749,54.664499)" fill="#343a40"/>
<use data-text="2" xlink:href="#font_3_1013" transform="matrix(11.579898,0,0,-11.579898,20.7504,58.75155)" fill="#343a40"/>
<use data-text="&#x201c;" xlink:href="#font_4_180" transform="matrix(14.794527,0,0,-14.794527,.6567,76.14255)" fill="#343a40"/>
<use data-text="t" xlink:href="#font_4_87" transform="matrix(14.794527,0,0,-14.794527,7.3586208,76.14255)" fill="#343a40"/>
<use data-text="h" xlink:href="#font_4_75" transform="matrix(14.794527,0,0,-14.794527,12.329582,76.14255)" fill="#343a40"/>
<use data-text="e" xlink:href="#font_4_72" transform="matrix(14.794527,0,0,-14.794527,20.821642,76.14255)" fill="#343a40"/>
<use data-text="h" xlink:href="#font_4_75" transform="matrix(14.794527,0,0,-14.794527,32.3994,76.14255)" fill="#343a40"/>
<use data-text="o" xlink:href="#font_4_82" transform="matrix(14.794527,0,0,-14.794527,40.891458,76.14255)" fill="#343a40"/>
<use data-text="u" xlink:href="#font_4_88" transform="matrix(14.794527,0,0,-14.794527,48.93968,76.14255)" fill="#343a40"/>
<use data-text="s" xlink:href="#font_4_86" transform="matrix(14.794527,0,0,-14.794527,57.357767,76.14255)" fill="#343a40"/>
<use data-text="e" xlink:href="#font_4_72" transform="matrix(14.794527,0,0,-14.794527,63.245988,76.14255)" fill="#343a40"/>
<use data-text="&#x2019;" xlink:href="#font_4_183" transform="matrix(14.794527,0,0,-14.794527,70.43613,76.14255)" fill="#343a40"/>
<use data-text="s" xlink:href="#font_4_86" transform="matrix(14.794527,0,0,-14.794527,73.86846,76.14255)" fill="#343a40"/>
<use data-text="d" xlink:href="#font_4_71" transform="matrix(14.794527,0,0,-14.794527,84.08565,76.14255)" fill="#343a40"/>
<use data-text="o" xlink:href="#font_4_82" transform="matrix(14.794527,0,0,-14.794527,92.429759,76.14255)" fill="#343a40"/>
<use data-text="o" xlink:href="#font_4_82" transform="matrix(14.794527,0,0,-14.794527,100.47798,76.14255)" fill="#343a40"/>
<use data-text="r" xlink:href="#font_4_85" transform="matrix(14.794527,0,0,-14.794527,108.52621,76.14255)" fill="#343a40"/>
<use data-text="&#x2019;" xlink:href="#font_4_183" transform="matrix(14.794527,0,0,-14.794527,114.31086,76.14255)" fill="#343a40"/>
<use data-text="s" xlink:href="#font_4_86" transform="matrix(14.794527,0,0,-14.794527,117.757999,76.14255)" fill="#343a40"/>
<use data-text="k" xlink:href="#font_4_78" transform="matrix(14.794527,0,0,-14.794527,127.9707,76.14255)" fill="#343a40"/>
<use data-text="e" xlink:href="#font_4_72" transform="matrix(14.794527,0,0,-14.794527,135.66385,76.14255)" fill="#343a40"/>
<use data-text="y" xlink:href="#font_4_92" transform="matrix(14.794527,0,0,-14.794527,142.91318,76.14255)" fill="#343a40"/>
<use data-text="&#x201d;" xlink:href="#font_4_181" transform="matrix(14.794527,0,0,-14.794527,150.7395,76.14255)" fill="#343a40"/>
</svg>
