<svg xmlns="http://www.w3.org/2000/svg" xmlns:xlink="http://www.w3.org/1999/xlink" xmlns:inkscape="http://www.inkscape.org/namespaces/inkscape" version="1.1" width="369.50813" height="158.21997" viewBox="0 0 369.50813 158.21997">
<defs>
<path id="font_1_17" d="M.19580078 .05517578C.19580078 .036621095 .18912761 .020751954 .17578125 .0075683596 .16243489-.0056152346 .14648438-.012207031 .12792969-.012207031 .109375-.012207031 .09358724-.0056152346 .080566409 .0075683596 .06754557 .020751954 .061035158 .036621095 .061035158 .05517578 .061035158 .073404949 .06754557 .08911133 .080566409 .10229492 .09358724 .115478519 .109375 .12207031 .12792969 .12207031 .14648438 .12207031 .16243489 .115478519 .17578125 .10229492 .18912761 .08911133 .19580078 .073404949 .19580078 .05517578Z"/>
<path id="font_2_1262" d="M-.009765625 .08886719H.03125C.0703125 .08886719 .09667969 .0999349 .11035156 .12207031 .12402344 .14420574 .13085938 .171875 .13085938 .20507813V.6723633H.2133789V.2055664C.2133789 .13785808 .19873047 .08666992 .1694336 .052001954 .14013672 .017333985 .09391276 0 .030761719 0H-.009765625V.08886719Z"/>
<path id="font_2_728" d="M.03173828 .5571289V.6035156L.2397461 .68847659V.64208987L.03173828 .5571289Z"/>
<path id="font_2_1255" d="M.34277345 .61816409 .4111328 .55029299 .34277345 .4814453 .27490235 .55029299 .34277345 .61816409M.18066406 .61816409 .24902344 .55029299 .18066406 .4814453 .11279297 .55029299 .18066406 .61816409M.43652345 .22998047C.43652345 .20426433 .4308268 .18041992 .4194336 .15844727 .40804038 .13647461 .39241538 .11393229 .3725586 .09082031 .39111329 .08984375 .4075521 .089274089 .421875 .08911133 .4361979 .08894857 .44889323 .08886719 .45996095 .08886719H.5073242V0H.46142579C.449056 0 .43204753 .0010579428 .4104004 .0031738282 .38875328 .0052897136 .36499024 .008951823 .33911134 .014160156 .31323243 .01936849 .2877604 .026367188 .2626953 .03515625 .2376302 .026041666 .21191406 .018961588 .18554688 .013916016 .15917969 .008870442 .13476563 .0052897136 .11230469 .0031738282 .08984375 .0010579428 .0719401 0 .05859375 0H-.009765625V.08886719H.05859375C.072265628 .08886719 .086507167 .08894857 .10131836 .08911133 .116129558 .089274089 .13411458 .09000651 .15527344 .091308597 .13574219 .114095058 .12044271 .13671875 .109375 .15917969 .09830729 .18164063 .09277344 .2055664 .09277344 .23095703 .09277344 .2511393 .09749349 .27148438 .106933597 .2919922 .116373699 .3125 .12906902 .33154298 .14501953 .3491211 .16097005 .36669923 .17919922 .38077799 .19970703 .39135743 .22021485 .40193687 .2413737 .40722657 .2631836 .40722657 .28597007 .40722657 .30777995 .40193687 .32861329 .39135743 .34944663 .38077799 .36791993 .3667806 .3840332 .34936524 .40014649 .33194987 .4129232 .31282554 .42236329 .2919922 .43180339 .27115885 .43652345 .25048829 .43652345 .22998047M.2631836 .32080079C.2508138 .32080079 .23787435 .3161621 .22436524 .30688478 .21085613 .29760743 .19946289 .28597007 .19018555 .27197267 .1809082 .25797526 .17626953 .24365235 .17626953 .2290039 .17626953 .21402996 .18066406 .19873047 .18945313 .18310547 .19824219 .16748047 .20939128 .15315755 .22290039 .14013672 .2364095 .12711589 .25016276 .11702474 .26416017 .10986328 .28889976 .120279949 .3099772 .13712566 .32739259 .16040039 .34480796 .18367513 .35351563 .20686849 .35351563 .22998047 .35351563 .24365235 .3487142 .25748698 .33911134 .27148438 .32950846 .28548179 .31770835 .29720054 .30371095 .30664063 .28971354 .31608073 .27620445 .32080079 .2631836 .32080079Z"/>
<path id="font_2_731" d="M.028320313-.24658203V-.20019531L.23632813-.115234378V-.1616211L.028320313-.24658203Z"/>
<path id="font_2_1290" d="M-.0107421879 .08886719H.06298828C.10432943 .08886719 .13387044 .09814453 .15161133 .11669922 .16935222 .1352539 .17822266 .16373699 .17822266 .20214844 .17822266 .21777344 .17781575 .23258464 .17700196 .24658203 .17618816 .26057945 .1751302 .2745768 .17382813 .28857423L.2553711 .29833985 .2631836 .18408203C.26708985 .12060547 .30013023 .08886719 .3623047 .08886719H.3725586V0H.36132813C.3251953 0 .29630534 .0065104167 .2746582 .01953125 .25301109 .032552083 .23551433 .05094401 .22216797 .07470703 .20458985 .048990888 .18147786 .030110678 .15283203 .018066407 .124186199 .0060221354 .09423828 0 .06298828 0H-.0107421879V.08886719M.16552735-.07763672 .23388672-.14550781 .16552735-.21435547 .09765625-.14550781 .16552735-.07763672M.0034179688-.07763672 .071777347-.14550781 .0034179688-.21435547-.064453128-.14550781 .0034179688-.07763672Z"/>
<path id="font_2_1189" d="M.22949219 .5283203 .29785157 .46044923 .22949219 .39160157 .1616211 .46044923 .22949219 .5283203M.06738281 .5283203 .13574219 .46044923 .06738281 .39160157-.00048828127 .46044923 .06738281 .5283203M-.009765625 .08886719H.08300781C.12434896 .08886719 .15388997 .09814453 .17163086 .11669922 .18937175 .1352539 .19824219 .16373699 .19824219 .20214844 .19824219 .21777344 .19783528 .23258464 .19702149 .24658203 .19620769 .26057945 .19514974 .2745768 .19384766 .28857423L.27539063 .29833985 .28320313 .18408203C.28710938 .12060547 .32014976 .08886719 .38232423 .08886719H.39257813V0H.38134767C.34521485 0 .31632487 .0065104167 .29467774 .01953125 .2730306 .032552083 .25553385 .05094401 .2421875 .07470703 .22460938 .048990888 .20149739 .030110678 .17285156 .018066407 .14420574 .0060221354 .11425781 0 .08300781 0H-.009765625V.08886719Z"/>
<path id="font_2_730" d="M.22460938 .52197268C.21777344 .52229818 .21191406 .5227051 .20703125 .52319338 .20214844 .52368167 .19645183 .5242513 .1899414 .52490237 .15673828 .47867839 .09863281 .45328776 .015625 .44873048L.009277344 .48632813C.041829427 .4892578 .07063802 .4947103 .095703128 .50268557 .12076823 .5106608 .13916016 .5208333 .1508789 .5332031 .12809246 .53483077 .10709635 .5423177 .087890628 .55566409 .0686849 .56901046 .05908203 .58968099 .05908203 .6176758 .05908203 .63948568 .06673177 .6582845 .08203125 .67407229 .09733073 .68986007 .11653646 .6977539 .13964844 .6977539 .16276042 .6977539 .18196614 .6903483 .19726563 .6755371 .21256511 .6607259 .22021485 .64127609 .22021485 .6171875 .22021485 .5989583 .21582031 .5789388 .20703125 .5571289 .21158855 .55647787 .21875 .55566409 .22851563 .5546875L.22460938 .52197268M.16796875 .5649414C.17154949 .5730794 .17464192 .5817871 .1772461 .59106448 .17985027 .6003418 .18115235 .6088867 .18115235 .6166992 .18115235 .62906906 .17732747 .6389974 .16967774 .6464844 .162028 .6539714 .15266927 .65771487 .14160156 .65771487 .12890625 .65771487 .11857096 .6533203 .1105957 .64453127 .102620448 .6357422 .09863281 .62613937 .09863281 .61572268 .09863281 .5991211 .10555013 .5875651 .119384769 .5810547 .1332194 .57454428 .14941406 .56917318 .16796875 .5649414Z"/>
<path id="font_2_1275" d="M.51123049 0C.4633789 0 .42618815 .011230469 .3996582 .033691408 .37312828 .056152345 .35595704 .08707682 .34814454 .12646485 .3292643 .10758463 .3088379 .09309896 .28686524 .08300781 .26489259 .072916667 .24023438 .067871097 .21289063 .067871097 .16634114 .067871097 .12727864 .08040365 .095703128 .10546875 .0641276 .13053386 .048339845 .16520183 .048339845 .20947266 .048339845 .25960288 .068847659 .30297853 .10986328 .3395996 .1508789 .3762207 .21533203 .40804038 .30322267 .4350586L.2998047 .4584961 .3779297 .4741211 .42041017 .1743164C.4243164 .14567058 .43367515 .12426758 .44848634 .11010742 .46329753 .095947269 .48486329 .08886719 .5131836 .08886719H.5283203V0H.51123049M.32861329 .24560547C.32861329 .25569663 .32796226 .26529948 .32666017 .27441407L.31445313 .35595704C.2513021 .33317057 .20532227 .31070964 .17651367 .28857423 .14770508 .2664388 .13330078 .2421875 .13330078 .21582031 .13330078 .19433594 .140625 .17805989 .15527344 .16699219 .16992188 .15592449 .18977864 .15039063 .21484375 .15039063 .23404949 .15039063 .25236003 .15413411 .2697754 .1616211 .28719078 .16910808 .30135093 .18001302 .31225587 .19433594 .3231608 .20865886 .32861329 .2257487 .32861329 .24560547Z"/>
<path id="font_2_1176" d="M.079589847 0H-.010253906V.08886719H.07861328C.11116537 .08886719 .1332194 .09830729 .14477539 .1171875 .15633138 .1360677 .16210938 .15999349 .16210938 .18896485 .16210938 .2101237 .16015625 .23274739 .15625 .25683595 .15234375 .28092448 .14811199 .30517579 .14355469 .32958985L.22851563 .35107423C.23404949 .32503257 .23844402 .29947917 .24169922 .27441407 .24495442 .24934896 .24658203 .22542317 .24658203 .20263672 .24658203 .16357422 .24121094 .12874349 .23046875 .09814453 .21972656 .06754557 .20214844 .04353841 .17773438 .026123047 .15332031 .008707683 .12060547 0 .079589847 0M.09033203-.07470703 .16113281-.14550781 .09033203-.2163086 .01953125-.14550781 .09033203-.07470703Z"/>
<path id="font_2_1055" d="M-.0107421879 .6904297-.001953125 .73095706C.0022786458 .7273763 .00789388 .72281906 .014892578 .71728518 .021891276 .7117513 .028320313 .70784506 .034179689 .7055664 .060546876 .7501628 .08439127 .7821452 .10571289 .8015137 .1270345 .82088217 .15055339 .8305664 .17626953 .8305664 .2023112 .8305664 .22363281 .8224284 .24023438 .80615237 .25683595 .7898763 .26513673 .76953127 .26513673 .7451172 .26513673 .7125651 .2537435 .6897786 .23095703 .6767578 .20817058 .663737 .16878255 .65722659 .11279297 .65722659H.10058594C.07128906 .65722659 .04720052 .6599121 .028320313 .6652832 .0094401049 .6706543-.0035807293 .67903646-.0107421879 .6904297M.111816409 .69921877C.1538086 .69921877 .1830241 .7020671 .19946289 .7077637 .21590169 .71346029 .2241211 .72526046 .2241211 .74316409 .2241211 .7558594 .2199707 .7664388 .21166992 .77490237 .20336914 .7833659 .19238281 .78759768 .17871094 .78759768 .1608073 .78759768 .14469402 .7809245 .1303711 .7675781 .11604818 .75423178 .098470058 .7314453 .07763672 .69921877H.111816409M.07470703 .6088867H.15722656V.2055664C.15722656 .15966797 .16569011 .12874349 .18261719 .11279297 .19954427 .096842449 .22509766 .08886719 .25927735 .08886719H.27148438V0H.25927735C.19710286 0 .15079753 .016438803 .12036133 .049316408 .08992513 .08219401 .07470703 .13427735 .07470703 .2055664V.6088867Z"/>
<path id="font_2_1297" d="M.04345703 .7246094C.032389326 .73307296 .022949219 .74283859 .015136719 .75390627 .0073242189 .76497396 .0034179688 .78011068 .0034179688 .7993164 .0034179688 .8273112 .013102214 .85026046 .032470704 .86816409 .05183919 .8860677 .07389323 .89501956 .09863281 .89501956 .12011719 .89501956 .1398112 .8898112 .15771485 .87939456L.15820313 .8310547C.14811199 .836263 .13867188 .83951827 .12988281 .8408203 .12109375 .8421224 .11295573 .84277346 .10546875 .84277346 .09147135 .84277346 .0785319 .8385417 .06665039 .8300781 .05476888 .82161459 .048828126 .8092448 .048828126 .79296877 .049153646 .7828776 .054280599 .7730306 .064208988 .76342776 .07413737 .7538249 .08821615 .7503255 .10644531 .7529297 .10709635 .7529297 .10782877 .75309249 .10864258 .75341799 .10945638 .75374349 .11035156 .75406906 .111328128 .75439456L.17578125 .77783206 .18261719 .7294922-.0034179688 .6557617-.010253906 .7036133 .04345703 .7246094M.13623047 0C.12288412 0 .10921224 .00032552085 .095214847 .0009765625 .081217449 .0016276041 .06705729 .0026041668 .052734376 .00390625V.087890628C.072916667 .08658854 .09000651 .0855306 .104003909 .0847168 .118001308 .08390299 .1319987 .083496097 .1459961 .083496097 .15934246 .083496097 .17097982 .08365885 .1809082 .083984378 .1908366 .0843099 .19905599 .08496094 .2055664 .0859375L.19824219 .13012696C.19335938 .1595866 .18522136 .19946289 .17382813 .24975586 .16243489 .30004884 .14689128 .35677085 .12719727 .41992188 .10750326 .4830729 .082845058 .54817709 .053222658 .6152344L.12890625 .6503906C.15820313 .5810547 .18286133 .5136719 .20288086 .4482422 .22290039 .3828125 .2388509 .3239746 .25073243 .27172853 .26261393 .21948242 .27115885 .17797852 .2763672 .1472168L.2841797 .10107422C.30859376 .107910159 .33040367 .1184082 .34960938 .13256836 .3688151 .14672852 .3839518 .1673991 .39501954 .19458008 .40608726 .22176107 .4116211 .25846354 .4116211 .3046875V.6723633H.49414063V.30322267C.49414063 .24169922 .48535157 .19116211 .46777345 .15161133 .4501953 .11206055 .42545573 .08129883 .3935547 .059326173 .36165367 .037353517 .32389323 .021972657 .28027345 .013183594 .23665364 .0043945314 .18863933 0 .13623047 0Z"/>
<path id="font_2_737" d="M.020507813 .5673828C.020507813 .5908203 .028889975 .6110026 .045654298 .6279297 .06241862 .64485678 .08251953 .6533203 .10595703 .6533203 .12939453 .6533203 .14949544 .64485678 .16625977 .6279297 .1830241 .6110026 .19140625 .5908203 .19140625 .5673828 .19140625 .5439453 .1830241 .5238444 .16625977 .5070801 .14949544 .49031578 .12939453 .4819336 .10595703 .4819336 .08251953 .4819336 .06241862 .49031578 .045654298 .5070801 .028889975 .5238444 .020507813 .5439453 .020507813 .5673828M.059570314 .5673828C.059570314 .554362 .06404623 .54345706 .07299805 .53466799 .08194987 .5258789 .092936199 .5214844 .10595703 .5214844 .11897787 .5214844 .12988281 .5258789 .13867188 .53466799 .14746094 .54345706 .15185547 .554362 .15185547 .5673828 .15185547 .5804036 .14746094 .5914714 .13867188 .60058596 .12988281 .6097005 .11897787 .6142578 .10595703 .6142578 .092936199 .6142578 .08194987 .6097005 .07299805 .60058596 .06404623 .5914714 .059570314 .5804036 .059570314 .5673828Z"/>
<path id="font_2_1266" d="M.3310547-.011230469C.2985026-.011230469 .2684733-.0041503908 .2409668 .010009766 .21346028 .024169922 .18489583 .045572919 .15527344 .07421875 .13411458 .05045573 .11376953 .032145185 .09423828 .01928711 .07470703 .0064290368 .04720052 0 .01171875 0H-.009765625V.08886719H.009277344C.03108724 .08886719 .049479169 .09513346 .064453128 .107666019 .079427089 .12019857 .09277344 .13639324 .10449219 .15625 .11621094 .17610677 .12784831 .19718425 .1394043 .21948242 .15096028 .2417806 .16389974 .26285807 .17822266 .28271485 .19254558 .30257163 .20987956 .31876628 .23022461 .33129884 .25056968 .3438314 .27571617 .35009767 .30566407 .35009767 .34179688 .35009767 .37329103 .34138999 .40014649 .3239746 .42700196 .30655924 .4478353 .28320313 .46264649 .25390626 .47745768 .22460938 .48486329 .19189453 .48486329 .15576172 .48486329 .10270182 .47143556 .061604818 .44458009 .032470704 .4177246 .0033365887 .3798828-.011230469 .3310547-.011230469M.3076172 .26367188C.29134117 .26367188 .27652995 .2582194 .2631836 .24731446 .24983724 .2364095 .23779297 .22233074 .22705078 .20507813 .2163086 .18782552 .20670574 .16992188 .19824219 .15136719 .21777344 .13085938 .23795574 .114095058 .25878907 .10107422 .28548179 .08382162 .30924479 .07519531 .33007813 .07519531 .37825523 .07519531 .40234376 .09944662 .40234376 .14794922 .40234376 .18180339 .39396159 .20955403 .37719728 .23120117 .36043296 .2528483 .3372396 .26367188 .3076172 .26367188Z"/>
<path id="font_2_1217" d="M.33642579-.16357422C.39078776-.16357422 .43286134-.15470378 .46264649-.13696289 .49243165-.11922201 .51326498-.095947269 .5251465-.06713867 .537028-.038330079 .54296877-.007486979 .54296877 .025390625 .54296877 .0641276 .53776046 .102376308 .52734377 .14013672 .51692709 .17789714 .50716146 .20882161 .49804688 .23291016L.58154299 .26660157 .61083987 .1743164C.6199544 .1459961 .6336263 .12467448 .65185549 .11035156 .67008468 .09602865 .69417318 .08886719 .7241211 .08886719 .7586263 .08886719 .7820638 .09814453 .7944336 .11669922 .8068034 .1352539 .8129883 .16194661 .8129883 .19677735 .8129883 .20524089 .81258139 .21533203 .8117676 .22705078 .8109538 .23876953 .8097331 .2548828 .80810549 .27539063L.88964846 .28564454 .89746096 .18359375C.89908859 .15722656 .9060872 .134847 .91845706 .11645508 .93082687 .09806315 .9508464 .08886719 .9785156 .08886719 1.0266928 .08886719 1.0507813 .12483724 1.0507813 .19677735 1.0507813 .2084961 1.0503744 .22070313 1.0495606 .23339844 1.0487467 .24609375 1.047526 .26285807 1.0458984 .2836914L1.1274414 .29345704 1.1352539 .18359375C1.1391602 .12044271 1.1713867 .08886719 1.2319336 .08886719H1.246582V0H1.2329102C1.1987305 0 1.1702474 .006266276 1.1474609 .018798829 1.1246744 .03133138 1.1090494 .050130208 1.1005859 .07519531 1.0869141 .05110677 1.0712077 .032552083 1.0534668 .01953125 1.035726 .0065104167 1.0109049 0 .9790039 0 .9477539 0 .92252609 .0065104167 .9033203 .01953125 .88411459 .032552083 .86848959 .05094401 .8564453 .07470703 .8382161 .048339845 .81795248 .029296875 .7956543 .017578125 .77335616 .005859375 .7491862 0 .72314456 0 .70166018 0 .68310549 .0026855469 .66748049 .008056641 .65185549 .013427734 .63883468 .020019532 .62841799 .027832032 .62809249-.026529948 .6176758-.074788417 .59716799-.11694336 .57666018-.15909831 .54500326-.1920573 .50219729-.21582031 .45939128-.23958333 .40413413-.25146485 .33642579-.25146485 .26611329-.25146485 .20987956-.23860677 .16772461-.21289063 .12556966-.18717449 .09513346-.1529134 .076416019-.11010742 .057698568-.06730143 .048339845-.020345053 .048339845 .030761719 .048339845 .06526693 .051920576 .10066732 .05908203 .13696289 .06624349 .17325847 .07600912 .20865886 .088378909 .24316406L.16601563 .21191406C.15657552 .18196614 .14860027 .15120442 .14208985 .119628909 .13557942 .08805338 .13232422 .057454427 .13232422 .027832032 .13232422-.0073242189 .1385905-.03938802 .15112305-.068359378 .1636556-.09733073 .18473308-.12044271 .21435547-.13769531 .24397786-.15494792 .28466798-.16357422 .33642579-.16357422Z"/>
<path id="font_2_781" d="M.15722656 .6088867V.00048828127H.07470703V.6088867H.15722656M-.025390625 .6904297-.016601563 .73095706C-.012369792 .7273763-.006754557 .72281906 .00024414063 .71728518 .0072428386 .7117513 .013671875 .70784506 .01953125 .7055664 .045898439 .7501628 .069742839 .7821452 .09106445 .8015137 .11238607 .82088217 .13590496 .8305664 .1616211 .8305664 .18766277 .8305664 .20898438 .8224284 .22558594 .80615237 .2421875 .7898763 .25048829 .76953127 .25048829 .7451172 .25048829 .7125651 .23909505 .6897786 .2163086 .6767578 .19352214 .663737 .15413411 .65722659 .09814453 .65722659H.0859375C.056640626 .65722659 .032552083 .6599121 .013671875 .6652832-.0052083337 .6706543-.018229166 .67903646-.025390625 .6904297M.09716797 .69921877C.13916016 .69921877 .16837566 .7020671 .18481446 .7077637 .20125325 .71346029 .20947266 .72526046 .20947266 .74316409 .20947266 .7558594 .20532227 .7664388 .19702149 .77490237 .1887207 .7833659 .17773438 .78759768 .1640625 .78759768 .14615886 .78759768 .13004558 .7809245 .115722659 .7675781 .10139974 .75423178 .08382162 .7314453 .06298828 .69921877H.09716797Z"/>
<path id="font_2_735" d="M.03564453 .6582031V.70458987L.24316406 .7895508V.74316409L.03564453 .6582031M.16894531 .6357422C.16959636 .6223958 .17048645 .6086426 .1716156 .5944824 .17274475 .58032229 .17597454 .56852218 .18130493 .55908206 .18664551 .5496419 .19593811 .5449219 .20918274 .5449219 .22017925 .5449219 .22761536 .5491536 .23149109 .5576172 .23536682 .56608077 .23730469 .57633468 .23730469 .5883789 .23730469 .5991211 .2363332 .61002609 .23439026 .62109377 .23245748 .63216146 .23051961 .6422526 .22857666 .6513672L.27294923 .66015627C.27913413 .63932296 .28222657 .6180013 .28222657 .5961914 .28222657 .56722006 .27638755 .54386398 .26470948 .52612307 .2530416 .50838217 .23423767 .49951173 .20829773 .49951173 .20019023 .49951173 .1909434 .5013835 .18055725 .50512698 .17018128 .5088704 .16159058 .51627609 .15478516 .52734377 .14990235 .508138 .1402181 .4950358 .12573242 .4880371 .11124674 .48103843 .096354167 .47753907 .08105469 .47753907 .057291669 .47753907 .0398763 .4860026 .028808594 .5029297 .017740885 .51985678 .012207031 .54052737 .012207031 .5649414 .012207031 .5808919 .014485677 .59765627 .019042969 .6152344L.05859375 .6088867C.055338544 .59521487 .053710939 .58235678 .053710939 .5703125 .053710939 .55826827 .056070966 .54785159 .060791017 .5390625 .06551107 .53027346 .07421875 .5258789 .08691406 .5258789 .108072917 .5258789 .12044271 .53344729 .12402344 .548584 .12760417 .5637207 .12939453 .5864258 .12939453 .6166992L.12890625 .6308594 .16894531 .6357422Z"/>
<path id="font_2_1211" d="M.24658203 .6933594 .3173828 .6225586 .24658203 .5517578 .17578125 .6225586 .24658203 .6933594M.32958985 .17773438C.32958985 .18619792 .3277181 .19718425 .3239746 .21069336 .3202311 .22420247 .31575523 .2368164 .31054688 .24853516L.2241211 .44433595 .30029298 .47998048 .4111328 .21923828C.42610679 .18408203 .43920899 .1570638 .45043946 .1381836 .46166993 .11930338 .47273765 .10636393 .48364259 .099365238 .49454753 .09236654 .5069987 .08886719 .5209961 .08886719H.5415039V0H.5209961C.49527995 0 .47436524 .003092448 .45825196 .009277344 .44213868 .015462239 .42822267 .024739584 .4165039 .037109376 .40478517 .049479169 .39290367 .065104167 .38085938 .083984378 .3580729 .055338544 .32902018 .034261068 .29370118 .020751954 .25838218 .0072428386 .21435547 .00048828127 .1616211 .00048828127 .13883464 .00048828127 .11832682 .001546224 .100097659 .0036621094 .08186849 .0057779948 .06461588 .0087890629 .048339845 .0126953129V.10107422C.08577474 .092285159 .12109375 .087890628 .15429688 .087890628 .27115885 .087890628 .32958985 .11783854 .32958985 .17773438Z"/>
<path id="font_2_723" d="M.43115235-.31201173 .49951173-.3798828 .43115235-.44873048 .36328126-.3798828 .43115235-.31201173M.26904298-.31201173 .33740235-.3798828 .26904298-.44873048 .20117188-.3798828 .26904298-.31201173M.33642579-.24658203C.26611329-.24658203 .20987956-.23372396 .16772461-.20800781 .12556966-.18229167 .09513346-.1480306 .076416019-.10522461 .057698568-.06241862 .048339845-.015462239 .048339845 .03564453 .048339845 .07014974 .051920576 .10555013 .05908203 .1418457 .06624349 .17814128 .07600912 .21354167 .088378909 .24804688L.16601563 .21679688C.15657552 .18684896 .14860027 .15608724 .14208985 .12451172 .13557942 .092936199 .13232422 .06233724 .13232422 .032714845 .13232422-.0024414063 .1385905-.034505208 .15112305-.06347656 .1636556-.092447917 .18473308-.1155599 .21435547-.1328125 .24397786-.15006511 .28466798-.1586914 .33642579-.1586914 .38264976-.1586914 .42399089-.1529134 .46044923-.14135742 .49690757-.12980144 .5257161-.11482748 .546875-.09643555 .5680339-.07804362 .5786133-.05859375 .5786133-.038085939 .5786133-.027669272 .5755208-.017903647 .56933596-.0087890629 .56315109 .00032552085 .5519206 .0048828127 .53564456 .0048828127H.45654298C.40836589 .0048828127 .3745931 .016520182 .3552246 .039794923 .3358561 .063069667 .32617188 .0953776 .32617188 .13671875 .32617188 .1796875 .33496095 .2191569 .35253907 .25512696 .3701172 .29109703 .39518229 .31982423 .42773438 .3413086 .46028648 .36279298 .4988607 .37353517 .54345706 .37353517 .5603841 .37353517 .57820639 .3712565 .5969238 .36669923 .6156413 .36214195 .6344401 .35351563 .6533203 .3408203L.6254883 .26660157C.59977218 .2796224 .5724284 .2861328 .54345706 .2861328 .5021159 .2861328 .46980796 .27164714 .4465332 .24267578 .42325846 .21370442 .4116211 .17838542 .4116211 .13671875 .4116211 .12141927 .41471354 .11027018 .42089845 .103271488 .42708335 .09627279 .43961589 .09277344 .4584961 .09277344H.54052737C.5854492 .09277344 .6161296 .08064779 .63256838 .056396486 .64900717 .032145185 .65722659 .0013020834 .65722659-.036132814 .65722659-.072265628 .64485678-.10636393 .6201172-.13842774 .5953776-.17049153 .5591634-.1965332 .5114746-.21655274 .4637858-.23657227 .4054362-.24658203 .33642579-.24658203Z"/>
<path id="font_2_691" d="M.022949219-.2626953-.005859375-.1850586C.07356771-.16780599 .1295573-.13761394 .16210938-.09448242 .19466146-.05135091 .2109375-.00032552085 .2109375 .05859375 .2109375 .08626302 .20792644 .11531576 .2019043 .14575196 .19588216 .17618816 .1875 .20719402 .17675781 .23876953L.2578125 .26611329C.28125 .19938152 .29296876 .13509114 .29296876 .07324219 .29296876 .018880209 .28344728-.03149414 .2644043-.07788086 .24536133-.12426758 .21590169-.1636556 .17602539-.19604492 .1361491-.22843425 .085123699-.25065104 .022949219-.2626953Z"/>
<path id="font_2_677" d="M.0703125 .70751956C.059244794 .7159831 .049804689 .7257487 .041992189 .7368164 .034179689 .7478841 .030273438 .7630208 .030273438 .78222659 .030273438 .8102214 .039957685 .8331706 .059326173 .8510742 .078694667 .86897787 .100748699 .8779297 .12548828 .8779297 .14697266 .8779297 .16666667 .8727214 .18457031 .8623047L.1850586 .81396487C.17496746 .81917318 .16552735 .8224284 .15673828 .82373049 .14794922 .82503256 .1398112 .8256836 .13232422 .8256836 .11832682 .8256836 .10538737 .82145187 .09350586 .8129883 .08162435 .8045247 .075683597 .79215499 .075683597 .7758789 .07600912 .7657878 .08113607 .75594076 .09106445 .7463379 .100992839 .73673507 .11507162 .73323568 .13330078 .73583987 .13395183 .73583987 .13468425 .7360026 .13549805 .7363281 .13631185 .7366536 .13720703 .7369792 .1381836 .7373047L.20263672 .7607422 .20947266 .71240237 .0234375 .6386719 .016601563 .68652346 .0703125 .70751956M.15722656 .6088867V.00048828127H.07470703V.6088867H.15722656Z"/>
<path id="font_2_1285" d="M-.0107421879 .08886719H.095214847C.12776692 .08886719 .14982097 .09830729 .16137696 .1171875 .17293294 .1360677 .17871094 .15999349 .17871094 .18896485 .17871094 .2101237 .17675781 .23274739 .17285156 .25683595 .16894531 .28092448 .16471355 .30517579 .16015625 .32958985L.24511719 .35107423C.25065104 .32503257 .25504557 .29947917 .25830079 .27441407 .261556 .24934896 .2631836 .22542317 .2631836 .20263672 .2631836 .16357422 .2578125 .12874349 .24707031 .09814453 .23632813 .06754557 .21875 .04353841 .19433594 .026123047 .16992188 .008707683 .13720703 0 .096191409 0H-.0107421879V.08886719M.16552735-.07763672 .23388672-.14550781 .16552735-.21435547 .09765625-.14550781 .16552735-.07763672M.0034179688-.07763672 .071777347-.14550781 .0034179688-.21435547-.064453128-.14550781 .0034179688-.07763672Z"/>
<path id="font_2_1185" d="M.5253906 .4790039 .59375 .4111328 .5253906 .34228517 .45751954 .4111328 .5253906 .4790039M.36328126 .4790039 .43164063 .4111328 .36328126 .34228517 .29541017 .4111328 .36328126 .4790039M.7397461 .28857423 .82128909 .29833985 .82958987 .18408203C.83154299 .15315755 .8404134 .1295573 .8562012 .11328125 .87198898 .09700521 .8956706 .08886719 .9272461 .08886719H.93896487V0H.9272461C.8904622 0 .8602702 .006917318 .8366699 .020751954 .81306967 .03458659 .7936198 .056803388 .7783203 .087402347 .75130209 .056152345 .7167155 .033772787 .67456057 .020263672 .6324056 .006754557 .57389327 0 .49902345 0H.41748048C.29475913 0 .20255535 .016601563 .14086914 .049804689 .079182948 .08300781 .048339845 .14046224 .048339845 .22216797 .048339845 .2446289 .05086263 .26660157 .055908204 .28808595 .060953779 .3095703 .06754557 .33024089 .075683597 .35009767L.15136719 .32177735C.14615886 .30745445 .1418457 .29215495 .13842774 .2758789 .13500977 .25960288 .13330078 .24414063 .13330078 .22949219 .1336263 .19140625 .14436849 .16219075 .16552735 .1418457 .1866862 .12150065 .21826172 .10758463 .2602539 .100097659 .3022461 .09261068 .35465495 .08886719 .41748048 .08886719H.49902345C.57682296 .08886719 .6371257 .09700521 .67993167 .11328125 .7227376 .1295573 .7441406 .15917969 .7441406 .20214844 .7441406 .2154948 .7437337 .2298177 .7429199 .24511719 .74210616 .26041667 .74104818 .27490235 .7397461 .28857423Z"/>
<path id="font_2_1213" d="M.3828125 0C.36035157 0 .34155274 .0030110677 .32641603 .009033203 .3112793 .015055339 .29947917 .021484375 .29101563 .028320313 .2861328-.014322917 .27433268-.055582685 .25561524-.095458988 .23689778-.13533528 .20882161-.17008464 .17138672-.19970703 .13395183-.22932942 .084472659-.25016276 .022949219-.26220704L-.005859375-.1850586C.07356771-.16780599 .1295573-.13761394 .16210938-.09448242 .19466146-.05135091 .2109375-.00032552085 .2109375 .05859375 .2109375 .08626302 .20792644 .11531576 .2019043 .14575196 .19588216 .17618816 .1875 .20719402 .17675781 .23876953L.2578125 .26611329 .2841797 .1640625C.29134117 .13671875 .30273438 .11735026 .31835938 .10595703 .33398438 .094563808 .35367839 .08886719 .3774414 .08886719H.3959961V0H.3828125Z"/>
<path id="font_2_1198" d="M.3251953-.07470703 .3959961-.14550781 .3251953-.2163086 .25439454-.14550781 .3251953-.07470703M-.009765625 .08886719H.07324219C.111328128 .08886719 .14632161 .092285159 .17822266 .099121097 .2101237 .10595703 .24129232 .11539713 .27172853 .1274414 .3021647 .13948567 .33406578 .15372722 .36743165 .17016602 .40079753 .18660482 .43815104 .20426433 .4794922 .22314453 .45638023 .23160808 .43245445 .24080403 .40771485 .25073243 .38297526 .2606608 .3594564 .27001954 .3371582 .2788086 .31486003 .28759767 .29541017 .29484049 .2788086 .3005371 .26220704 .30623374 .25048829 .30908204 .24365235 .30908204 .22379558 .30908204 .20629883 .30330406 .19116211 .29174806 .17602539 .28019206 .16210938 .26627604 .14941406 .25L.13623047 .23339844 .061523439 .27001954 .068847659 .28173829C.09033203 .316569 .11531576 .34448243 .14379883 .36547853 .1722819 .3864746 .20572917 .39697267 .24414063 .39697267 .26009117 .39697267 .27937828 .39290367 .30200196 .38476563 .32462565 .3766276 .34928385 .36645509 .37597657 .35424806 .40266929 .34204103 .43033854 .32967124 .45898438 .31713868 .48763023 .3046061 .51627609 .2940267 .5449219 .2854004 .5735677 .27677409 .60091146 .27197267 .6269531 .2709961V.18652344C.6061198 .1842448 .5795085 .17667644 .54711917 .16381836 .5147298 .15096028 .47265626 .13085938 .42089845 .103515628 .37923179 .08138021 .34057618 .06258138 .30493165 .04711914 .2692871 .031656904 .23299153 .01993815 .19604492 .011962891 .15909831 .0039876305 .11767578 0 .071777347 0H-.009765625V.08886719Z"/>
<path id="font_2_1261" d="M.3071289-.2421875C.24658203-.2421875 .19726563-.23136394 .15917969-.2097168 .12109375-.18806966 .09309896-.15787761 .07519531-.119140628 .057291669-.08040365 .048339845-.03548177 .048339845 .015625 .048339845 .050130208 .051920576 .0855306 .05908203 .12182617 .06624349 .15812175 .07600912 .19352214 .088378909 .22802735L.16601563 .19677735C.15657552 .16682942 .14860027 .1360677 .14208985 .10449219 .13557942 .072916667 .13232422 .042317708 .13232422 .0126953129 .13232422-.040039064 .14575196-.08105469 .17260742-.11035156 .19946289-.13964844 .24430339-.15429688 .3071289-.15429688 .36539714-.15429688 .40926109-.13834636 .4387207-.10644531 .46818034-.07454427 .48291017-.023111979 .48291017 .047851564V.6723633H.5654297V.19970703C.5654297 .1632487 .57218429 .13566081 .58569338 .11694336 .59920248 .098225917 .62565109 .08886719 .66503909 .08886719H.6796875V0H.6660156C.6373698 0 .616862 .0028483074 .6044922 .008544922 .5921224 .014241536 .5789388 .023763022 .5649414 .037109376 .5649414-.055989583 .54296877-.1258138 .49902345-.17236328 .45507813-.21891277 .39111329-.2421875 .3071289-.2421875Z"/>
<path id="font_1_70" d="M.4321289 .037109376C.40966798 .025065104 .38435874 .013834636 .35620118 .0034179688 .3280436-.0069986979 .29703776-.012207031 .2631836-.012207031 .21663411-.012207031 .17618816-.0013020834 .1418457 .020507813 .10750326 .042317708 .080973308 .072021488 .06225586 .10961914 .04353841 .1472168 .034179689 .1899414 .034179689 .23779297 .034179689 .29378257 .045328779 .3408203 .06762695 .37890626 .08992513 .4169922 .119384769 .4457194 .15600586 .4650879 .19262696 .4844564 .23225911 .49414063 .27490235 .49414063 .31884767 .49414063 .3557129 .4855957 .38549806 .46850587 .4152832 .45141603 .43017579 .42659507 .43017579 .39404298 .43017579 .37451173 .42407228 .3597819 .41186524 .34985353 .3996582 .33992515 .38606773 .33496095 .37109376 .33496095 .36002604 .33496095 .3504232 .33683268 .34228517 .34057618 .33414714 .34431968 .3269857 .34814454 .32080079 .35205079V.43896485C.3055013 .4477539 .2915039 .45214845 .2788086 .45214845 .2491862 .45214845 .22371419 .44344078 .20239258 .4260254 .18107097 .40861003 .16471355 .38476563 .15332031 .3544922 .14192708 .32421876 .13623047 .28971354 .13623047 .25097657 .13623047 .2141927 .14241536 .18058269 .15478516 .15014649 .16715496 .11971029 .18562825 .09554037 .21020508 .07763672 .2347819 .059733076 .26529948 .05078125 .3017578 .05078125 .32486979 .05078125 .34700523 .05452474 .36816407 .06201172 .3893229 .069498699 .41064454 .08024088 .4321289 .09423828V.037109376Z"/>
<path id="font_1_82" d="M.5097656 .24023438C.5097656 .19303386 .5 .15030925 .48046876 .11206055 .4609375 .07381185 .4333496 .04353841 .39770509 .021240235 .36206056-.0010579428 .31982423-.012207031 .2709961-.012207031 .22249349-.012207031 .1805013-.0011393229 .14501953 .020996094 .10953776 .04313151 .08219401 .07324219 .06298828 .111328128 .04378255 .14941406 .034179689 .19238281 .034179689 .24023438 .034179689 .2877604 .043863935 .33072917 .06323242 .36914063 .082600917 .4075521 .11027018 .43798829 .14624024 .46044923 .18221028 .48291017 .22477214 .49414063 .27392579 .49414063 .32373048 .49414063 .36621095 .4827474 .4013672 .45996095 .43652345 .43717448 .4633789 .40657554 .4819336 .36816407 .5004883 .3297526 .5097656 .28710938 .5097656 .24023438M.40576173 .24121094C.40576173 .27766929 .4009603 .3116862 .39135743 .34326173 .38175456 .37483726 .3671061 .40039063 .3474121 .41992188 .3277181 .43945313 .30289714 .44921876 .27294923 .44921876 .24202474 .44921876 .2167155 .43945313 .19702149 .41992188 .17732747 .40039063 .16276042 .37483726 .15332031 .34326173 .1438802 .3116862 .13916016 .27766929 .13916016 .24121094 .13916016 .20507813 .1439616 .17114258 .15356446 .1394043 .16316732 .107666019 .17781575 .08203125 .19750977 .0625 .21720378 .04296875 .24202474 .033203126 .27197267 .033203126 .30257163 .033203126 .3277181 .04296875 .3474121 .0625 .3671061 .08203125 .38175456 .10758463 .39135743 .13916016 .4009603 .17073567 .40576173 .20475261 .40576173 .24121094Z"/>
<path id="font_1_81" d="M.546875 0H.32617188V.0390625L.36816407 .041992189C.37402345 .04264323 .37898765 .044921876 .38305665 .048828126 .38712565 .052734376 .38916017 .05777995 .38916017 .063964847V.32421876C.38916017 .35579429 .38183595 .37980143 .3671875 .39624024 .35253907 .41267906 .32779948 .42089845 .29296876 .42089845 .27408854 .42089845 .2552897 .4182129 .23657227 .4128418 .21785482 .4074707 .20003255 .40055339 .18310547 .39208985V.063964847C.18310547 .05029297 .19010417 .04296875 .20410156 .041992189L.24609375 .0390625V0H.020019532V.0390625L.068847659 .041992189C.082845058 .04296875 .08984375 .05029297 .08984375 .063964847V.4111328H.020019532V.44384767L.14208985 .4819336H.18310547V.4321289C.21110027 .44807945 .23982747 .46240235 .2692871 .47509767 .29874674 .48779298 .32503257 .49414063 .34814454 .49414063 .3917643 .49414063 .42496745 .48055015 .4477539 .45336915 .47054038 .42618815 .4819336 .38834635 .4819336 .33984376V.063964847C.4819336 .05777995 .4839681 .052734376 .4880371 .048828126 .4921061 .044921876 .4970703 .04264323 .5029297 .041992189L.546875 .0390625V0Z"/>
<path id="font_1_72" d="M.26611329-.012207031C.2257487-.012207031 .1879069-.0031738282 .15258789 .014892578 .11726888 .032958986 .08870443 .060384115 .06689453 .09716797 .045084638 .13395183 .034179689 .18017578 .034179689 .23583985 .034179689 .2879232 .044270833 .33333335 .064453128 .3720703 .084635417 .41080729 .112467449 .44083659 .14794922 .4621582 .18343099 .48347984 .22379558 .49414063 .26904298 .49414063 .33121745 .49414063 .3779297 .47485353 .4091797 .4362793 .4404297 .39770509 .4560547 .3486328 .4560547 .2890625 .4560547 .28580729 .4560547 .28149415 .4560547 .27612306 .4560547 .27075196 .45572917 .26578776 .45507813 .26123048H.13085938C.13085938 .23583985 .13354492 .2105306 .13891602 .18530274 .14428711 .16007488 .15332031 .13720703 .16601563 .11669922 .17871094 .096191409 .19580078 .0797526 .21728516 .06738281 .23876953 .05501302 .265625 .048828126 .29785157 .048828126 .3264974 .048828126 .3544108 .055419923 .3815918 .068603519 .4087728 .08178711 .43359376 .09586588 .4560547 .110839847V.049804689C.4280599 .032552083 .39786784 .017903647 .36547853 .005859375 .3330892-.006184896 .29996745-.012207031 .26611329-.012207031M.13623047 .30615235H.35595704V.328125C.35595704 .3610026 .34806315 .38867188 .3322754 .4111328 .31648765 .43359376 .2919922 .44482423 .25878907 .44482423 .22591146 .44482423 .19791667 .43245445 .17480469 .40771485 .1516927 .38297526 .13883464 .3491211 .13623047 .30615235Z"/>
<path id="font_1_87" d="M.3330078 .020996094C.31966148 .013834636 .30037437 .0065104167 .27514649-.0009765625 .24991863-.008463542 .22428386-.012207031 .19824219-.012207031 .1608073-.012207031 .13354492-.0033365887 .11645508 .014404297 .099365238 .032145185 .09082031 .060709638 .09082031 .100097659V.4321289H.026855469V.46484376L.095214847 .4970703 .14013672 .60302737H.18408203V.4819336H.3251953V.4321289H.18408203V.15283203C.18408203 .11311849 .1907552 .08504232 .20410156 .068603519 .21744792 .052164716 .23746746 .043945314 .26416017 .043945314 .27848307 .043945314 .2919922 .045898439 .3046875 .049804689 .3173828 .053710939 .3268229 .057454427 .3330078 .061035158V.020996094Z"/>
<path id="font_1_76" d="M.21777344 .64697268C.21777344 .6300456 .21191406 .6154785 .20019531 .6032715 .18847656 .59106448 .17415364 .58496096 .15722656 .58496096 .14029949 .58496096 .12573242 .59106448 .11352539 .6032715 .10131836 .6154785 .095214847 .6300456 .095214847 .64697268 .095214847 .6642253 .10131836 .67871096 .11352539 .6904297 .12573242 .70214846 .14029949 .7080078 .15722656 .7080078 .17415364 .7080078 .18847656 .70214846 .20019531 .6904297 .21191406 .67871096 .21777344 .6642253 .21777344 .64697268M.26904298 0H.034179689V.0390625L.08300781 .041992189C.09700521 .04296875 .104003909 .05029297 .104003909 .063964847V.42089845H.03515625V.4560547L.15722656 .49414063H.19677735V.063964847C.19677735 .05777995 .19881185 .052652997 .20288086 .048583986 .20694988 .044514974 .21191406 .042317708 .21777344 .041992189L.26904298 .0390625V0Z"/>
<path id="font_1_74" d="M.5078125 .41503907H.40820313C.4156901 .40299479 .42203776 .3898112 .4272461 .37548829 .43245445 .36116538 .4350586 .34440104 .4350586 .3251953 .4350586 .29003907 .4248047 .26017253 .40429688 .2355957 .38378907 .21101888 .35717774 .19278972 .3244629 .1809082 .29174806 .16902669 .2566732 .16438802 .21923828 .16699219 .21402996 .15852864 .21085613 .1492513 .2097168 .13916016 .20857747 .12906902 .20841472 .120279949 .20922852 .11279297 .21004232 .10530599 .21061199 .10107422 .2109375 .100097659 .22884114 .09814453 .2495931 .09586588 .27319337 .09326172 .2967936 .090657558 .3207194 .08658854 .3449707 .08105469 .36922203 .075520839 .3917643 .067871097 .41259767 .05810547 .433431 .048339845 .4501953 .03548177 .46289063 .01953125 .47558595 .0035807293 .4819336-.016276041 .4819336-.040039064 .4819336-.071614589 .4703776-.10180664 .44726563-.13061524 .42415367-.15942383 .39298503-.1830241 .35375978-.20141602 .31453453-.21980794 .27067057-.2290039 .22216797-.2290039 .16259766-.2290039 .116373699-.2154134 .083496097-.18823242 .05061849-.16105144 .034179689-.12727864 .034179689-.08691406 .034179689-.057942708 .04280599-.032145185 .060058595-.009521484 .077311199 .013102214 .104003909 .027669272 .14013672 .034179689 .13655599 .044596357 .13395183 .052083333 .13232422 .056640626 .13069661 .061197919 .12988281 .069010417 .12988281 .080078128 .12988281 .09309896 .13387044 .10750326 .1418457 .123291019 .14982097 .13907878 .16259766 .15592449 .18017578 .17382813 .14697266 .18131511 .118001308 .19816081 .09326172 .22436524 .06852213 .25056968 .056152345 .28385417 .056152345 .32421876 .056152345 .3766276 .07462565 .41805015 .111572269 .44848634 .14851888 .47892253 .19694011 .49414063 .25683595 .49414063 .28059898 .49414063 .30265299 .49064128 .32299806 .48364259 .3433431 .4766439 .36002604 .4700521 .37304688 .4638672H.5078125V.41503907M.33984376 .3310547C.33984376 .35221354 .33626304 .3720703 .32910157 .390625 .3219401 .4091797 .31152345 .42423503 .29785157 .43579103 .2841797 .44734703 .2672526 .453125 .24707031 .453125 .21907552 .453125 .19620769 .44230143 .1784668 .4206543 .1607259 .39900718 .15185547 .3688151 .15185547 .33007813 .15185547 .29654948 .15983074 .26782228 .17578125 .24389649 .19173177 .2199707 .2154948 .20800781 .24707031 .20800781 .27701823 .20800781 .29996745 .22005208 .31591798 .24414063 .3318685 .26822917 .33984376 .29720054 .33984376 .3310547M.3959961-.06689453C.3959961-.0460612 .38875328-.029947916 .37426759-.018554688 .3597819-.0071614587 .34179688 .0013020834 .3203125 .0068359377 .29882813 .012369792 .277181 .016357422 .2553711 .018798829 .2335612 .021240235 .21516927 .023925782 .20019531 .026855469 .17122396 .016438803 .15128581 .0022786458 .14038086-.015625 .1294759-.033528646 .12402344-.05061849 .12402344-.06689453 .12402344-.082845058 .12866211-.099853519 .13793946-.11791992 .1472168-.13598633 .16153972-.15136719 .1809082-.1640625 .20027669-.17675781 .22493489-.18310547 .2548828-.18310547 .28678385-.18310547 .31315104-.17675781 .33398438-.1640625 .35481773-.15136719 .37036134-.13598633 .38061524-.11791992 .39086915-.099853519 .3959961-.082845058 .3959961-.06689453Z"/>
<path id="font_1_86" d="M.3491211 .35302735H.296875L.2890625 .42285157C.28190104 .4283854 .27132163 .43359376 .25732423 .43847657 .24332683 .44335938 .22851563 .44580079 .21289063 .44580079 .18554688 .44580079 .16520183 .43953453 .15185547 .42700196 .13850911 .4144694 .13183594 .3984375 .13183594 .37890626 .13183594 .36393229 .1352539 .35123698 .14208985 .3408203 .14892578 .33040367 .16048177 .3202311 .17675781 .31030274 .19303386 .30037437 .21516927 .28889976 .24316406 .2758789 .27799479 .25992839 .30680339 .24226888 .32958985 .22290039 .3523763 .2035319 .36376954 .17757161 .36376954 .14501953 .36376954 .09586588 .34684245 .057373048 .31298829 .029541016 .27913413 .0017089844 .23242188-.012207031 .17285156-.012207031 .14225261-.012207031 .11401367-.009033203 .088134769-.0026855469 .06225586 .0036621094 .044270833 .008951823 .034179689 .013183594V.1459961H.08496094L.09716797 .061035158C.10725912 .05452474 .11971029 .048258466 .13452149 .042236329 .14933269 .03621419 .1665039 .033203126 .18603516 .033203126 .21468099 .033203126 .2368164 .041178388 .2524414 .057128908 .2680664 .07307943 .2758789 .09098307 .2758789 .110839847 .2758789 .13688152 .2652181 .15730794 .24389649 .17211914 .22257488 .18693035 .19254558 .20361328 .1538086 .22216797 .11735026 .2397461 .08943685 .2578125 .07006836 .2763672 .05069987 .29492188 .041015626 .3191732 .041015626 .3491211 .041015626 .39371745 .056640626 .42903648 .087890628 .45507813 .119140628 .48111979 .16357422 .49414063 .2211914 .49414063 .25048829 .49414063 .27661134 .49145509 .29956056 .48608399 .32250978 .4807129 .33902995 .4757487 .3491211 .4711914V.35302735Z"/>
<path id="font_1_71" d="M.53808596 0H.38085938V.053222658C.3580729 .03564453 .33382163 .020345053 .30810548 .0073242189 .2823893-.0056966149 .25504557-.012207031 .22607422-.012207031 .19254558-.012207031 .1636556-.005126953 .1394043 .009033203 .11515299 .02319336 .09529623 .041992189 .079833988 .06542969 .06437174 .08886719 .052897138 .114746097 .045410158 .1430664 .037923177 .17138672 .034179689 .19970703 .034179689 .22802735 .034179689 .27327476 .04345703 .3161621 .06201172 .35668946 .080566409 .3972168 .10872396 .43025718 .14648438 .45581056 .1842448 .48136393 .23177083 .49414063 .2890625 .49414063 .30501304 .49414063 .32234703 .4925944 .34106446 .48950196 .3597819 .48640953 .37304688 .48388673 .38085938 .4819336V.66503909H.30517579V.6982422L.43408204 .7368164H.4741211V.063964847C.4741211 .05029297 .48111979 .04296875 .4951172 .041992189L.53808596 .0390625V0M.38085938 .09082031V.43115235C.37239585 .43408204 .3597819 .43725587 .34301759 .44067384 .32625328 .4440918 .31054688 .44580079 .29589845 .44580079 .24641927 .44580079 .20686849 .42749024 .1772461 .39086915 .1476237 .35424806 .1328125 .30566407 .1328125 .24511719 .1328125 .1907552 .14550781 .14567058 .17089844 .10986328 .19628906 .07405599 .2319336 .056152345 .27783204 .056152345 .2980143 .056152345 .31697593 .059977216 .3347168 .06762695 .35245768 .075276698 .36783854 .08300781 .38085938 .09082031Z"/>
<path id="font_1_88" d="M.546875 0H.3881836V.057128908C.37679038 .048339845 .3623047 .03857422 .34472657 .027832032 .32714845 .017089844 .30826823 .0077311198 .28808595-.00024414063 .26790367-.008219401 .24788411-.012207031 .22802735-.012207031 .1850586-.012207031 .15128581 .0007324219 .12670899 .026611329 .102132167 .052490236 .08984375 .09358724 .08984375 .14990235V.42089845H.020019532V.45507813L.1430664 .49414063H.18310547V.16894531C.18310547 .13346355 .19034831 .10579427 .20483399 .0859375 .21931966 .06608073 .24430339 .056152345 .27978517 .056152345 .30029298 .056152345 .32047526 .05965169 .34033204 .06665039 .3601888 .073649089 .3761393 .080078128 .3881836 .0859375V.42089845H.3178711V.45507813L.4399414 .49414063H.48095704V.063964847C.48095704 .05777995 .4831543 .052734376 .48754884 .048828126 .49194337 .044921876 .4970703 .04264323 .5029297 .041992189L.546875 .0390625V0Z"/>
<path id="font_1_180" d="M.39208985 .70214846C.38264976 .69108077 .37141929 .6780599 .35839845 .66308596 .3453776 .648112 .33390299 .6312663 .3239746 .6125488 .31404624 .59383139 .30908204 .5732422 .30908204 .55078127 .30908204 .54752609 .30924479 .5440267 .3095703 .5402832 .30989585 .53653976 .3100586 .5333659 .3100586 .5307617H.37304688L.38061524 .5197754C.3856608 .5124512 .3881836 .5032552 .3881836 .4921875 .3881836 .4752604 .38264976 .46069337 .37158204 .44848634 .3605143 .4362793 .34602867 .43017579 .328125 .43017579 .30208335 .43017579 .28173829 .4388021 .26708985 .4560547 .2524414 .47330729 .24511719 .4962565 .24511719 .52490237 .24511719 .5489909 .24951172 .5710449 .25830079 .59106448 .26708985 .611084 .27775065 .62890627 .2902832 .64453127 .30281578 .66015627 .31510417 .67333987 .32714845 .68408206 .33919273 .6948242 .34847007 .703125 .35498048 .7089844L.39208985 .70214846M.18603516 .70214846C.16617839 .6822917 .14737956 .65966799 .12963867 .63427737 .11189779 .6088867 .103027347 .5807292 .103027347 .5498047 .103027347 .5465495 .1031901 .5432129 .103515628 .5397949 .10384115 .53637698 .104003909 .5333659 .104003909 .5307617H.16699219L.17456055 .5202637C.17960613 .51326498 .1821289 .50358077 .1821289 .49121095 .1821289 .47428385 .17667644 .45987956 .16577149 .44799806 .15486653 .43611656 .14029949 .43017579 .12207031 .43017579 .096354167 .43017579 .07609049 .43847657 .061279298 .45507813 .046468099 .4716797 .0390625 .49430339 .0390625 .5229492 .0390625 .5473633 .04345703 .56974288 .052246095 .5900879 .061035158 .6104329 .07169596 .6284993 .084228519 .6442871 .09676107 .6600749 .10904948 .67333987 .12109375 .68408206 .13313802 .6948242 .14241536 .703125 .14892578 .7089844L.18603516 .70214846Z"/>
<path id="font_1_44" d="M.296875 0H.033203126V.04296875L.09277344 .046875C.0999349 .047526044 .10522461 .050130208 .10864258 .0546875 .11206055 .059244794 .11376953 .063964847 .11376953 .068847659V.6020508C.11376953 .6069336 .11206055 .61157229 .10864258 .6159668 .10522461 .6203613 .0999349 .6227214 .09277344 .6230469L.033203126 .6269531V.67089846H.296875V.6269531L.23583985 .6230469C.2290039 .6227214 .22379558 .6203613 .22021485 .6159668 .21663411 .61157229 .21484375 .6069336 .21484375 .6020508V.068847659C.21484375 .063964847 .21663411 .059244794 .22021485 .0546875 .22379558 .050130208 .2290039 .047526044 .23583985 .046875L.296875 .04296875V0Z"/>
<path id="font_1_68" d="M.4921875 0H.34423829L.3310547 .05908203C.31835938 .048990888 .30257163 .038411458 .2836914 .02734375 .2648112 .016276041 .24495442 .006917318 .2241211-.0007324219 .20328777-.008382161 .18326824-.012207031 .1640625-.012207031 .12792969-.012207031 .09724935-.00016276042 .072021488 .023925782 .04679362 .048014326 .034179689 .08105469 .034179689 .123046878 .034179689 .14160156 .037516279 .15885417 .044189454 .17480469 .05086263 .1907552 .064208988 .20597331 .084228519 .22045899 .10424805 .23494466 .1340332 .24910482 .17358399 .26293946 .21313477 .27677409 .265625 .29085288 .3310547 .30517579 .3310547 .30745445 .3310547 .31306968 .3310547 .32202149 .3310547 .3309733 .3310547 .339681 .3310547 .34814454 .3310547 .41389976 .29996745 .44677735 .23779297 .44677735 .22054036 .44677735 .20564778 .44514976 .19311524 .44189454 .18058269 .4386393 .171875 .43603517 .16699219 .43408204V.34716798H.09423828C.085123699 .34716798 .076660159 .34887696 .068847659 .35229493 .061035158 .3557129 .057128908 .36360679 .057128908 .37597657 .057128908 .4033203 .06754557 .42569987 .088378909 .44311524 .10921224 .4605306 .13566081 .47338868 .16772461 .48168946 .1997884 .48999024 .23225911 .49414063 .26513673 .49414063 .30647788 .49414063 .33854167 .48771159 .36132813 .47485353 .3841146 .46199546 .4000651 .44425456 .4091797 .42163087 .41829429 .39900718 .42285157 .37320964 .42285157 .34423829V.063964847C.42285157 .05777995 .42488609 .052652997 .42895509 .048583986 .43302409 .044514974 .43798829 .042317708 .44384767 .041992189L.4921875 .0390625V0M.3310547 .09423828V.26708985C.2861328 .25602214 .2504069 .24487305 .22387696 .23364258 .197347 .22241211 .17757161 .21118164 .16455078 .19995117 .15152996 .1887207 .14298503 .17732747 .13891602 .16577149 .134847 .1542155 .1328125 .14225261 .1328125 .12988281 .1328125 .109375 .1394043 .090413417 .15258789 .07299805 .16577149 .055582685 .1842448 .046875 .20800781 .046875 .22753906 .046875 .2491862 .052246095 .27294923 .06298828 .29671226 .07373047 .31608073 .08414713 .3310547 .09423828Z"/>
<path id="font_1_90" d="M.7729492 .4428711 .72216799 .43701173 .58496096 0H.51416018L.3959961 .37402345 .26416017 0H.1928711L.064941409 .43701173 .009765625 .4428711V.4819336H.2290039V.4428711L.1821289 .4399414C.17659505 .43961589 .17236328 .43725587 .1694336 .43286134 .1665039 .4284668 .16569011 .4235026 .16699219 .41796876L.25 .106933597 .37890626 .4819336H.4501953L.56591799 .106933597 .6582031 .41796876C.65983077 .4231771 .65926107 .4280599 .65649417 .4326172 .65372726 .43717448 .64957687 .43961589 .64404299 .4399414L.59814456 .4428711V.4819336H.7729492V.4428711Z"/>
<path id="font_1_75" d="M.55078127 0H.328125V.0390625L.36914063 .041992189C.375 .04264323 .38012696 .044921876 .38452149 .048828126 .38891603 .052734376 .39111329 .05777995 .39111329 .063964847V.32177735C.39111329 .3504232 .38427735 .37410484 .37060548 .39282228 .3569336 .4115397 .33072917 .42089845 .2919922 .42089845 .27441407 .42089845 .25545249 .4181315 .23510742 .41259767 .21476238 .4070638 .19742839 .40022788 .18310547 .39208985V.063964847C.18310547 .05029297 .18977864 .04296875 .203125 .041992189L.24609375 .0390625V0H.020996094V.0390625L.068847659 .041992189C.082845058 .04296875 .08984375 .05029297 .08984375 .063964847V.66503909H.015136719V.6982422L.1430664 .7368164H.18310547V.4321289C.19514974 .43961589 .21077474 .4481608 .22998047 .45776368 .2491862 .46736656 .2693685 .47583009 .29052735 .4831543 .3116862 .49047853 .33089195 .49414063 .34814454 .49414063 .386556 .49414063 .41878257 .48177085 .44482423 .45703126 .47086589 .43229167 .48388673 .39420573 .48388673 .34277345V.063964847C.48388673 .05777995 .48608399 .052734376 .49047853 .048828126 .49487306 .044921876 .5 .04264323 .5058594 .041992189L.55078127 .0390625V0Z"/>
<path id="font_1_62" d="M.37890626-.13183594H.13623047V.7080078H.37890626V.66308596H.22314453V-.0859375H.37890626V-.13183594Z"/>
<path id="font_1_83" d="M.52490237 .24804688C.52490237 .19563802 .5148112 .14990235 .4946289 .110839847 .47444663 .071777347 .44547526 .041503908 .40771485 .020019532 .36995445-.0014648438 .32470704-.012207031 .27197267-.012207031 .2569987-.012207031 .2421875-.011230469 .22753906-.009277344 .21289063-.0073242189 .19807942-.0052083337 .18310547-.0029296876V-.15185547C.18310547-.15804036 .18522136-.16292317 .18945313-.1665039 .19368489-.17008464 .19889324-.17220052 .20507813-.17285156L.26416017-.17919922V-.21777344H.020996094V-.17919922L.068847659-.17285156C.082845058-.17122396 .08984375-.16422527 .08984375-.15185547V.4111328H.020996094V.44384767L.14404297 .4819336H.18310547V.4321289C.20589192 .44970704 .23046875 .46443687 .25683595 .47631837 .28320313 .48819987 .30891929 .49414063 .33398438 .49414063 .3684896 .49414063 .40014649 .4839681 .42895509 .46362306 .45776368 .44327799 .48095704 .41471354 .49853517 .3779297 .5161133 .34114585 .52490237 .29785157 .52490237 .24804688M.4248047 .23388672C.4248047 .26839195 .41951499 .29996745 .40893556 .32861329 .3983561 .35725913 .3827311 .3802897 .36206056 .39770509 .34138999 .41512046 .31575523 .42382813 .28515626 .42382813 .26822917 .42382813 .25065104 .4207357 .23242188 .41455079 .2141927 .40836589 .1977539 .40152995 .18310547 .39404298V.049804689C.21044922 .03938802 .23746746 .034179689 .26416017 .034179689 .300944 .034179689 .33113609 .043619794 .35473634 .0625 .37833659 .08138021 .3959147 .106038417 .4074707 .13647461 .4190267 .16691081 .4248047 .19938152 .4248047 .23388672Z"/>
<path id="font_1_782" d="M.028808594 0V.0390625L.078125 .041992189C.083984378 .04264323 .08894857 .044921876 .09301758 .048828126 .097086589 .052734376 .099121097 .05777995 .099121097 .063964847V.42285157H.03515625V.4580078L.099121097 .47607423C.099121097 .50895187 .10164388 .5362142 .10668945 .5578613 .11173502 .5795085 .12044271 .60221359 .1328125 .62597659 .15234375 .663737 .17749024 .6916504 .20825196 .7097168 .23901367 .7277832 .27067057 .7368164 .30322267 .7368164 .33154298 .7368164 .35294596 .7308757 .36743165 .71899417 .38191734 .7071126 .38916017 .6930339 .38916017 .6767578 .38916017 .66341146 .38582359 .6529134 .3791504 .6452637 .3724772 .63761398 .36539714 .63216146 .35791017 .62890627 .3504232 .62565109 .3453776 .62369796 .34277345 .6230469 .34179688 .62402346 .33666993 .6277669 .32739259 .63427737 .31811524 .6407878 .30769859 .648112 .29614259 .65625 .28458659 .664388 .27433268 .67163088 .26538087 .6779785 .25642906 .6843262 .2516276 .6876628 .25097657 .6879883 .23665364 .6805013 .22355144 .66536459 .21166992 .6425781 .1997884 .6197917 .19352214 .58496096 .1928711 .53808596L.19189453 .4741211H.40820313L.48291017 .49316407H.5239258V.063964847C.5239258 .05777995 .52596029 .052734376 .5300293 .048828126 .5340983 .044921876 .5390625 .04264323 .5449219 .041992189L.59521487 .0390625V0H.36083985V.0390625L.41015626 .041992189C.41601563 .04264323 .42097984 .044921876 .42504884 .048828126 .42911784 .052734376 .43115235 .05777995 .43115235 .063964847V.42285157H.19189453V.063964847C.19189453 .05777995 .19392903 .052734376 .19799805 .048828126 .20206706 .044921876 .20703125 .04264323 .21289063 .041992189L.27197267 .0390625V0H.028808594M.48291017 .58496096C.46598307 .58496096 .45157878 .59106448 .43969728 .6032715 .42781578 .6154785 .421875 .6300456 .421875 .64697268 .421875 .6642253 .42781578 .67871096 .43969728 .6904297 .45157878 .70214846 .46598307 .7080078 .48291017 .7080078 .5001628 .7080078 .5148112 .70214846 .52685549 .6904297 .5388997 .67871096 .5449219 .6642253 .5449219 .64697268 .5449219 .6300456 .5388997 .6154785 .52685549 .6032715 .5148112 .59106448 .5001628 .58496096 .48291017 .58496096Z"/>
<path id="font_1_64" d="M.28808595-.13183594H.043945314V-.0859375H.20117188V.66308596H.043945314V.7080078H.28808595V-.13183594Z"/>
<path id="font_1_80" d="M.828125 0H.6040039V.0390625L.6459961 .041992189C.65999349 .04296875 .6669922 .05029297 .6669922 .063964847V.31884767C.6669922 .34977214 .6605632 .37451173 .6477051 .3930664 .634847 .4116211 .6116536 .42089845 .578125 .42089845 .56152346 .42089845 .5433757 .41829429 .52368167 .41308595 .5039876 .4078776 .48649089 .40120445 .4711914 .3930664V.063964847C.4711914 .05029297 .4781901 .04296875 .4921875 .041992189L.5341797 .0390625V0H.3149414V.0390625L.3569336 .041992189C.370931 .04296875 .3779297 .05029297 .3779297 .063964847V.3251953C.3779297 .35351563 .3712565 .37654624 .35791017 .3942871 .3445638 .41202799 .3219401 .42089845 .29003907 .42089845 .27115885 .42089845 .25146485 .4177246 .23095703 .41137696 .21044922 .4050293 .1944987 .39860026 .18310547 .39208985V.063964847C.18310547 .05029297 .19010417 .04296875 .20410156 .041992189L.24609375 .0390625V0H.020019532V.0390625L.068847659 .041992189C.082845058 .04296875 .08984375 .05029297 .08984375 .063964847V.4111328H.020996094V.44384767L.14208985 .4819336H.18310547V.4321289C.19807942 .4412435 .21492513 .45052085 .23364258 .45996095 .25236003 .46940104 .27148438 .47745768 .29101563 .48413087 .31054688 .49080406 .3289388 .49414063 .3461914 .49414063 .37516276 .49414063 .39860026 .48673503 .4165039 .47192384 .43440757 .45711265 .44759117 .44140626 .4560547 .4248047 .46940104 .43326823 .48632813 .44295249 .50683596 .45385743 .52734377 .46476237 .548584 .47420249 .57055667 .48217774 .5925293 .49015299 .6123047 .49414063 .6298828 .49414063 .66503909 .49414063 .69189456 .48608399 .7104492 .4699707 .7290039 .45385743 .7416992 .43400065 .74853518 .4104004 .7553711 .38680015 .75878909 .36360679 .75878909 .3408203V.063964847C.75878909 .05777995 .76082357 .052652997 .7648926 .048583986 .7689616 .044514974 .7739258 .042317708 .77978518 .041992189L.828125 .0390625V0Z"/>
<path id="font_1_92" d="M.52001956 .4428711 .46777345 .43701173 .2758789-.030761719C.27164714-.041503908 .26505534-.056884767 .25610353-.0769043 .24715169-.09692383 .23657227-.11743164 .22436524-.13842774 .2121582-.15942383 .19905599-.17692058 .1850586-.19091797 .17301433-.20296224 .15974935-.21232097 .14526367-.21899414 .130778-.22566732 .11507162-.2290039 .09814453-.2290039 .07438151-.2290039 .056233724-.2232259 .043701173-.21166992 .03116862-.20011394 .024902344-.18684896 .024902344-.171875 .024902344-.14973958 .03564453-.12972005 .057128908-.111816409L.1508789-.15478516C.16194661-.14371746 .17301433-.12874349 .18408203-.10986328 .19514974-.09098307 .2051595-.07145182 .21411133-.05126953 .22306316-.03108724 .22998047-.013671875 .23486328 .0009765625L.064941409 .43701173 .009765625 .4428711V.4819336H.23095703V.4428711L.18310547 .4399414C.17757161 .43961589 .1730957 .43725587 .16967774 .43286134 .16625977 .4284668 .16569011 .4235026 .16796875 .41796876L.2841797 .123046878 .40283204 .41796876C.4051107 .4231771 .40478517 .4280599 .40185548 .4326172 .39892579 .43717448 .394694 .43961589 .38916017 .4399414L.34179688 .4428711V.4819336H.52001956V.4428711Z"/>
<path id="font_1_85" d="M.38085938 .3798828H.34179688C.33561198 .38736979 .3282064 .39379884 .31958009 .39916993 .31095378 .40454103 .30045573 .40722657 .28808595 .40722657 .2721354 .40722657 .25577799 .40169273 .23901367 .390625 .22224935 .37955729 .20524089 .36442057 .18798828 .34521485V.063964847C.18798828 .04996745 .19498699 .04264323 .20898438 .041992189L.27490235 .0390625V0H.024902344V.038085939L.07421875 .041992189C.080078128 .04264323 .08504232 .044921876 .08911133 .048828126 .093180339 .052734376 .095214847 .05777995 .095214847 .063964847V.4111328H.022949219V.44384767L.14697266 .4819336H.18798828V.3930664C.2163086 .425944 .2409668 .45100913 .2619629 .46826173 .28295899 .4855143 .3022461 .49414063 .31982423 .49414063 .33024089 .49414063 .34147135 .49251304 .35351563 .4892578 .3655599 .4860026 .37467448 .48258464 .38085938 .4790039V.3798828Z"/>
<path id="font_1_181" d="M.4140625 .61621096C.4140625 .5917969 .40966798 .5694173 .4008789 .54907229 .39208985 .52872726 .38142906 .5106608 .36889649 .49487306 .35636393 .4790853 .34407554 .4658203 .33203126 .45507813 .31998698 .44433595 .31070964 .43603517 .30419923 .43017579L.26708985 .43798829C.28727214 .45817057 .3063151 .48079429 .32421876 .5058594 .3421224 .5309245 .35107423 .55891928 .35107423 .58984377 .35107423 .5934245 .3507487 .59676107 .35009767 .5998535 .34944663 .602946 .3491211 .60563156 .3491211 .60791018H.2861328L.27856446 .6191406C.2735189 .6266276 .2709961 .63655599 .2709961 .6489258 .2709961 .6661784 .27652995 .6805013 .28759767 .69189456 .29866538 .7032878 .31315104 .7089844 .3310547 .7089844 .3564453 .7089844 .3766276 .70060226 .39160157 .6838379 .40657554 .66707357 .4140625 .64453127 .4140625 .61621096M.20800781 .6152344C.20800781 .5911458 .20361328 .5690918 .19482422 .54907229 .18603516 .52905276 .17537435 .5111491 .1628418 .49536134 .15030925 .47957359 .13802083 .4662272 .12597656 .45532228 .11393229 .44441734 .104654949 .43603517 .09814453 .43017579L.061035158 .43798829C.07047526 .449056 .08170573 .46199546 .09472656 .47680665 .1077474 .49161784 .11922201 .5083008 .12915039 .52685549 .13907878 .54541018 .14404297 .5657552 .14404297 .5878906 .14404297 .5914714 .1438802 .5951335 .14355469 .59887698 .14322917 .6026204 .1430664 .60563156 .1430664 .60791018H.080078128L.072509769 .6196289C.067464198 .6274414 .064941409 .63688156 .064941409 .6479492 .064941409 .66520187 .07063802 .6796875 .08203125 .69140627 .09342448 .703125 .108072917 .7089844 .12597656 .7089844 .15201824 .7089844 .17220052 .70043948 .18652344 .6833496 .20084636 .66625979 .20800781 .6435547 .20800781 .6152344Z"/>
</defs>
<use data-text="." xlink:href="#font_1_17" transform="matrix(16.408476,0,0,-16.408476,.72834,21.284729)" fill="#343a40"/>
<use data-text="&#x0644;" xlink:href="#font_2_1262" transform="matrix(16.408476,0,0,-16.408476,92.54676,21.284729)" fill="#343a40"/>
<use data-text="&#x064e;" xlink:href="#font_2_728" transform="matrix(16.408476,0,0,-16.408476,92.90727,18.407959)" fill="#343a40"/>
<use data-text="&#x0642;" xlink:href="#font_2_1255" transform="matrix(16.408476,0,0,-16.408476,84.3813,21.284729)" fill="#343a40"/>
<use data-text="&#x0650;" xlink:href="#font_2_731" transform="matrix(16.408476,0,0,-16.408476,86.17653,21.0999)" fill="#343a40"/>
<use data-text="&#x064a;" xlink:href="#font_2_1290" transform="matrix(16.408476,0,0,-16.408476,78.42831,21.284729)" fill="#343a40"/>
<use data-text="&#x062a;" xlink:href="#font_2_1189" transform="matrix(16.408476,0,0,-16.408476,72.16027,21.284729)" fill="#343a40"/>
<use data-text="&#x064f;" xlink:href="#font_2_730" transform="matrix(16.408476,0,0,-16.408476,72.34722,18.880112)" fill="#343a40"/>
<use data-text="&#x0647;" xlink:href="#font_2_1275" transform="matrix(16.408476,0,0,-16.408476,63.638257,21.284729)" fill="#343a40"/>
<use data-text="&#x064f;" xlink:href="#font_2_730" transform="matrix(16.408476,0,0,-16.408476,66.68337,18.91304)" fill="#343a40"/>
<use data-text="&#x0628;" xlink:href="#font_2_1176" transform="matrix(16.408476,0,0,-16.408476,54.39309,21.284729)" fill="#343a40"/>
<use data-text="&#x0650;" xlink:href="#font_2_731" transform="matrix(16.408476,0,0,-16.408476,53.71965,23.967514)" fill="#343a40"/>
<use data-text="&#x0671;" xlink:href="#font_2_1055" transform="matrix(16.408476,0,0,-16.408476,50.09808,21.284729)" fill="#343a40"/>
<use data-text="&#xfef7;" xlink:href="#font_2_1297" transform="matrix(16.408476,0,0,-16.408476,40.772405,21.284729)" fill="#343a40"/>
<use data-text="&#x0652;" xlink:href="#font_2_737" transform="matrix(16.408476,0,0,-16.408476,46.48566,16.764634)" fill="#343a40"/>
<use data-text="&#x064e;" xlink:href="#font_2_728" transform="matrix(16.408476,0,0,-16.408476,39.82812,15.459839)" fill="#343a40"/>
<use data-text="&#x0645;" xlink:href="#font_2_1266" transform="matrix(16.408476,0,0,-16.408476,32.02317,21.284729)" fill="#343a40"/>
<use data-text="&#x0652;" xlink:href="#font_2_737" transform="matrix(16.408476,0,0,-16.408476,35.196393,20.803437)" fill="#343a40"/>
<use data-text="&#x0633;" xlink:href="#font_2_1217" transform="matrix(16.408476,0,0,-16.408476,11.7303,21.284729)" fill="#343a40"/>
<use data-text="&#x0650;" xlink:href="#font_2_731" transform="matrix(16.408476,0,0,-16.408476,15.05541,25.098435)" fill="#343a40"/>
<use data-text="&#x0671;" xlink:href="#font_2_781" transform="matrix(16.408476,0,0,-16.408476,136.7248,21.284729)" fill="#343a40"/>
<use data-text="&#x0644;" xlink:href="#font_2_1262" transform="matrix(16.408476,0,0,-16.408476,131.99915,21.284729)" fill="#343a40"/>
<use data-text="&#x0651;" xlink:href="#font_2_735" transform="matrix(16.408476,0,0,-16.408476,132.15712,17.00618)" fill="#343a40"/>
<use data-text="&#x0630;" xlink:href="#font_2_1211" transform="matrix(16.408476,0,0,-16.408476,123.27246,21.284729)" fill="#343a40"/>
<use data-text="&#x0650;" xlink:href="#font_2_731" transform="matrix(16.408476,0,0,-16.408476,124.762088,21.140168)" fill="#343a40"/>
<use data-text="&#x064a;" xlink:href="#font_2_723" transform="matrix(16.408476,0,0,-16.408476,111.69405,21.284729)" fill="#343a40"/>
<use data-text="&#x0631;" xlink:href="#font_2_691" transform="matrix(16.408476,0,0,-16.408476,217.97313,21.284729)" fill="#343a40"/>
<use data-text="&#x064e;" xlink:href="#font_2_728" transform="matrix(16.408476,0,0,-16.408476,218.77469,23.656418)" fill="#343a40"/>
<use data-text="&#x0623;" xlink:href="#font_2_677" transform="matrix(16.408476,0,0,-16.408476,215.28852,21.284729)" fill="#343a40"/>
<use data-text="&#x064e;" xlink:href="#font_2_728" transform="matrix(16.408476,0,0,-16.408476,214.80907,15.668457)" fill="#343a40"/>
<use data-text="&#x064a;" xlink:href="#font_2_1285" transform="matrix(16.408476,0,0,-16.408476,210.17734,21.284729)" fill="#343a40"/>
<use data-text="&#x0652;" xlink:href="#font_2_737" transform="matrix(16.408476,0,0,-16.408476,211.40345,21.0999)" fill="#343a40"/>
<use data-text="&#x062a;" xlink:href="#font_2_1185" transform="matrix(16.408476,0,0,-16.408476,194.9316,21.284729)" fill="#343a40"/>
<use data-text="&#x064f;" xlink:href="#font_2_730" transform="matrix(16.408476,0,0,-16.408476,199.88175,19.529755)" fill="#343a40"/>
<use data-text="&#x0671;" xlink:href="#font_2_781" transform="matrix(16.408476,0,0,-16.408476,186.71857,21.284729)" fill="#343a40"/>
<use data-text="&#x064e;" xlink:href="#font_2_728" transform="matrix(16.408476,0,0,-16.408476,186.45505,16.57248)" fill="#343a40"/>
<use data-text="&#x0644;" xlink:href="#font_2_1262" transform="matrix(16.408476,0,0,-16.408476,181.99167,21.284729)" fill="#343a40"/>
<use data-text="&#x0631;" xlink:href="#font_2_1213" transform="matrix(16.408476,0,0,-16.408476,175.658,21.284729)" fill="#343a40"/>
<use data-text="&#x0651;" xlink:href="#font_2_735" transform="matrix(16.408476,0,0,-16.408476,176.33515,22.252793)" fill="#343a40"/>
<use data-text="&#x062c;" xlink:href="#font_2_1198" transform="matrix(16.408476,0,0,-16.408476,165.9444,21.284729)" fill="#343a40"/>
<use data-text="&#x064f;" xlink:href="#font_2_730" transform="matrix(16.408476,0,0,-16.408476,168.05074,20.058625)" fill="#343a40"/>
<use data-text="&#x0644;" xlink:href="#font_2_1261" transform="matrix(16.408476,0,0,-16.408476,154.95159,21.284729)" fill="#343a40"/>
<use data-text="&#x064e;" xlink:href="#font_2_728" transform="matrix(16.408476,0,0,-16.408476,157.21897,22.333329)" fill="#343a40"/>
<path transform="matrix(1.83,0,0,-1.83,.72834,21.284729)" stroke-width=".3985" stroke-linecap="butt" stroke-miterlimit="10" stroke-linejoin="miter" fill="none" stroke="#343a40" d="M-.19925-4.26807C.17433-5.01527 1.04608-5.51341 2.29143-5.51341H25.20122C26.44656-5.51341 27.31833-6.01154 27.69191-6.75876 28.0655-6.01154 28.93726-5.51341 30.1826-5.51341H53.0924C54.33775-5.51341 55.2095-5.01527 55.5831-4.26807"/>
<use data-text="c" xlink:href="#font_1_70" transform="matrix(0,-10.9389719,-10.9389719,-0,58.32393,132.67317)" fill="#343a40"/>
<use data-text="o" xlink:href="#font_1_82" transform="matrix(0,-10.9389719,-10.9389719,-0,58.32393,127.57561)" fill="#343a40"/>
<use data-text="n" xlink:href="#font_1_81" transform="matrix(0,-10.9389719,-10.9389719,-0,58.32393,121.62481)" fill="#343a40"/>
<use data-text="n" xlink:href="#font_1_81" transform="matrix(0,-10.9389719,-10.9389719,-0,58.32393,115.42241)" fill="#343a40"/>
<use data-text="e" xlink:href="#font_1_72" transform="matrix(0,-10.9389719,-10.9389719,-0,58.32393,109.22001)" fill="#343a40"/>
<use data-text="c" xlink:href="#font_1_70" transform="matrix(0,-10.9389719,-10.9389719,-0,58.32393,103.85991)" fill="#343a40"/>
<use data-text="t" xlink:href="#font_1_87" transform="matrix(0,-10.9389719,-10.9389719,-0,58.32393,98.762348)" fill="#343a40"/>
<use data-text="i" xlink:href="#font_1_76" transform="matrix(0,-10.9389719,-10.9389719,-0,58.32393,95.04309)" fill="#343a40"/>
<use data-text="n" xlink:href="#font_1_81" transform="matrix(0,-10.9389719,-10.9389719,-0,58.32393,91.728588)" fill="#343a40"/>
<use data-text="g" xlink:href="#font_1_74" transform="matrix(0,-10.9389719,-10.9389719,-0,58.32393,85.526187)" fill="#343a40"/>
<use data-text="s" xlink:href="#font_1_86" transform="matrix(0,-10.9389719,-10.9389719,-0,58.32393,76.5781)" fill="#343a40"/>
<use data-text="e" xlink:href="#font_1_72" transform="matrix(0,-10.9389719,-10.9389719,-0,58.32393,72.224399)" fill="#343a40"/>
<use data-text="n" xlink:href="#font_1_81" transform="matrix(0,-10.9389719,-10.9389719,-0,58.32393,66.864299)" fill="#343a40"/>
<use data-text="t" xlink:href="#font_1_87" transform="matrix(0,-10.9389719,-10.9389719,-0,58.32393,60.661897)" fill="#343a40"/>
<use data-text="e" xlink:href="#font_1_72" transform="matrix(0,-10.9389719,-10.9389719,-0,58.32393,56.942644)" fill="#343a40"/>
<use data-text="n" xlink:href="#font_1_81" transform="matrix(0,-10.9389719,-10.9389719,-0,58.32393,51.58255)" fill="#343a40"/>
<use data-text="c" xlink:href="#font_1_70" transform="matrix(0,-10.9389719,-10.9389719,-0,58.32393,45.380144)" fill="#343a40"/>
<use data-text="e" xlink:href="#font_1_72" transform="matrix(0,-10.9389719,-10.9389719,-0,58.32393,40.282579)" fill="#343a40"/>
<path transform="matrix(1.83,0,0,-1.83,.72834,21.284729)" stroke-width=".3985" stroke-linecap="butt" stroke-miterlimit="10" stroke-linejoin="miter" fill="none" stroke="#343a40" d="M57.8115-4.26807C58.18507-5.01527 59.05684-5.51341 60.30219-5.51341H66.02547C67.27081-5.51341 68.14258-6.01154 68.51616-6.75876 68.88976-6.01154 69.7615-5.51341 71.00685-5.51341H76.73013C77.97548-5.51341 78.84724-5.01527 79.22083-4.26807"/>
<use data-text="c" xlink:href="#font_1_70" transform="matrix(0,-10.9389719,-10.9389719,-0,133.03185,111.86424)" fill="#343a40"/>
<use data-text="o" xlink:href="#font_1_82" transform="matrix(0,-10.9389719,-10.9389719,-0,133.03185,106.76668)" fill="#343a40"/>
<use data-text="n" xlink:href="#font_1_81" transform="matrix(0,-10.9389719,-10.9389719,-0,133.03185,100.81587)" fill="#343a40"/>
<use data-text="n" xlink:href="#font_1_81" transform="matrix(0,-10.9389719,-10.9389719,-0,133.03185,94.61348)" fill="#343a40"/>
<use data-text="e" xlink:href="#font_1_72" transform="matrix(0,-10.9389719,-10.9389719,-0,133.03185,88.41107)" fill="#343a40"/>
<use data-text="c" xlink:href="#font_1_70" transform="matrix(0,-10.9389719,-10.9389719,-0,133.03185,83.05098)" fill="#343a40"/>
<use data-text="t" xlink:href="#font_1_87" transform="matrix(0,-10.9389719,-10.9389719,-0,133.03185,77.953418)" fill="#343a40"/>
<use data-text="e" xlink:href="#font_1_72" transform="matrix(0,-10.9389719,-10.9389719,-0,133.03185,74.23416)" fill="#343a40"/>
<use data-text="d" xlink:href="#font_1_71" transform="matrix(0,-10.9389719,-10.9389719,-0,133.03185,68.874057)" fill="#343a40"/>
<use data-text="n" xlink:href="#font_1_81" transform="matrix(0,-10.9389719,-10.9389719,-0,133.03185,59.49936)" fill="#343a40"/>
<use data-text="o" xlink:href="#font_1_82" transform="matrix(0,-10.9389719,-10.9389719,-0,133.03185,53.296968)" fill="#343a40"/>
<use data-text="u" xlink:href="#font_1_88" transform="matrix(0,-10.9389719,-10.9389719,-0,133.03185,47.34616)" fill="#343a40"/>
<use data-text="n" xlink:href="#font_1_81" transform="matrix(0,-10.9389719,-10.9389719,-0,133.03185,41.121889)" fill="#343a40"/>
<use data-text="&#x201c;" xlink:href="#font_1_180" transform="matrix(16.408476,0,0,-16.408476,6.5623805,150.77371)" fill="#343a40"/>
<use data-text="I" xlink:href="#font_1_44" transform="matrix(16.408476,0,0,-16.408476,13.99542,150.77371)" fill="#343a40"/>
<use data-text="s" xlink:href="#font_1_86" transform="matrix(16.408476,0,0,-16.408476,24.217902,150.77371)" fill="#343a40"/>
<use data-text="a" xlink:href="#font_1_68" transform="matrix(16.408476,0,0,-16.408476,30.748475,150.77371)" fill="#343a40"/>
<use data-text="w" xlink:href="#font_1_90" transform="matrix(16.408476,0,0,-16.408476,38.624547,150.77371)" fill="#343a40"/>
<use data-text="t" xlink:href="#font_1_87" transform="matrix(16.408476,0,0,-16.408476,56.263658,150.77371)" fill="#343a40"/>
<use data-text="h" xlink:href="#font_1_75" transform="matrix(16.408476,0,0,-16.408476,61.7769,150.77371)" fill="#343a40"/>
<use data-text="e" xlink:href="#font_1_72" transform="matrix(16.408476,0,0,-16.408476,71.195369,150.77371)" fill="#343a40"/>
<use data-text="[" xlink:href="#font_1_62" transform="matrix(16.408476,0,0,-16.408476,84.0268,150.77371)" fill="#343a40"/>
<use data-text="s" xlink:href="#font_1_86" transform="matrix(16.408476,0,0,-16.408476,90.96758,150.77371)" fill="#343a40"/>
<use data-text="p" xlink:href="#font_1_83" transform="matrix(16.408476,0,0,-16.408476,97.49815,150.77371)" fill="#343a40"/>
<use data-text="e" xlink:href="#font_1_72" transform="matrix(16.408476,0,0,-16.408476,106.670497,150.77371)" fill="#343a40"/>
<use data-text="c" xlink:href="#font_1_70" transform="matrix(16.408476,0,0,-16.408476,114.71065,150.77371)" fill="#343a40"/>
<use data-text="i" xlink:href="#font_1_76" transform="matrix(16.408476,0,0,-16.408476,122.357,150.77371)" fill="#343a40"/>
<use data-text="f" xlink:href="#font_1_782" transform="matrix(16.408476,0,0,-16.408476,127.328769,150.77371)" fill="#343a40"/>
<use data-text="c" xlink:href="#font_1_70" transform="matrix(16.408476,0,0,-16.408476,137.6661,150.77371)" fill="#343a40"/>
<use data-text="]" xlink:href="#font_1_64" transform="matrix(16.408476,0,0,-16.408476,145.31247,150.77371)" fill="#343a40"/>
<use data-text="m" xlink:href="#font_1_80" transform="matrix(16.408476,0,0,-16.408476,157.04453,150.77371)" fill="#343a40"/>
<use data-text="a" xlink:href="#font_1_68" transform="matrix(16.408476,0,0,-16.408476,170.99173,150.77371)" fill="#343a40"/>
<use data-text="n" xlink:href="#font_1_81" transform="matrix(16.408476,0,0,-16.408476,179.34365,150.77371)" fill="#343a40"/>
<use data-text="w" xlink:href="#font_1_90" transform="matrix(16.408476,0,0,-16.408476,193.45494,150.77371)" fill="#343a40"/>
<use data-text="h" xlink:href="#font_1_75" transform="matrix(16.408476,0,0,-16.408476,206.30278,150.77371)" fill="#343a40"/>
<use data-text="o" xlink:href="#font_1_82" transform="matrix(16.408476,0,0,-16.408476,215.72126,150.77371)" fill="#343a40"/>
<use data-text="m" xlink:href="#font_1_80" transform="matrix(16.408476,0,0,-16.408476,224.64746,150.77371)" fill="#343a40"/>
<use data-text="I" xlink:href="#font_1_44" transform="matrix(16.408476,0,0,-16.408476,243.40235,150.77371)" fill="#343a40"/>
<use data-text="m" xlink:href="#font_1_80" transform="matrix(16.408476,0,0,-16.408476,253.62483,150.77371)" fill="#343a40"/>
<use data-text="e" xlink:href="#font_1_72" transform="matrix(16.408476,0,0,-16.408476,267.57206,150.77371)" fill="#343a40"/>
<use data-text="t" xlink:href="#font_1_87" transform="matrix(16.408476,0,0,-16.408476,275.6122,150.77371)" fill="#343a40"/>
<use data-text="y" xlink:href="#font_1_92" transform="matrix(16.408476,0,0,-16.408476,285.99879,150.77371)" fill="#343a40"/>
<use data-text="e" xlink:href="#font_1_72" transform="matrix(16.408476,0,0,-16.408476,294.48197,150.77371)" fill="#343a40"/>
<use data-text="s" xlink:href="#font_1_86" transform="matrix(16.408476,0,0,-16.408476,302.5221,150.77371)" fill="#343a40"/>
<use data-text="t" xlink:href="#font_1_87" transform="matrix(16.408476,0,0,-16.408476,309.05268,150.77371)" fill="#343a40"/>
<use data-text="e" xlink:href="#font_1_72" transform="matrix(16.408476,0,0,-16.408476,314.63157,150.77371)" fill="#343a40"/>
<use data-text="r" xlink:href="#font_1_85" transform="matrix(16.408476,0,0,-16.408476,322.67173,150.77371)" fill="#343a40"/>
<use data-text="d" xlink:href="#font_1_71" transform="matrix(16.408476,0,0,-16.408476,329.08744,150.77371)" fill="#343a40"/>
<use data-text="a" xlink:href="#font_1_68" transform="matrix(16.408476,0,0,-16.408476,338.3418,150.77371)" fill="#343a40"/>
<use data-text="y" xlink:href="#font_1_92" transform="matrix(16.408476,0,0,-16.408476,346.20146,150.77371)" fill="#343a40"/>
<use data-text="." xlink:href="#font_1_17" transform="matrix(16.408476,0,0,-16.408476,353.6181,150.77371)" fill="#343a40"/>
<use data-text="&#x201d;" xlink:href="#font_1_181" transform="matrix(16.408476,0,0,-16.408476,356.62089,150.77371)" fill="#343a40"/>
</svg>
